<svg xmlns="http://www.w3.org/2000/svg" xmlns:xlink="http://www.w3.org/1999/xlink" class="httpgd" width="769.00" height="562.00" viewBox="0 0 769.00 562.00">
<defs>
  <style type='text/css'><![CDATA[
    .httpgd line, .httpgd polyline, .httpgd polygon, .httpgd path, .httpgd rect, .httpgd circle {
      fill: none;
      stroke: #000000;
      stroke-linecap: round;
      stroke-linejoin: round;
      stroke-miterlimit: 10.00;
    }
  ]]></style>
<clipPath id="c0"><rect x="0.00" y="0.00" width="769.00" height="562.00"/></clipPath>
<clipPath id="c1"><rect x="38.03" y="23.18" width="603.04" height="507.33"/></clipPath>
<clipPath id="c2"><rect x="0.00" y="0.00" width="769.00" height="562.00"/></clipPath>
</defs>
<rect width="100%" height="100%" style="stroke: none;fill: #FFFFFF;"/>
<g clip-path="url(#c0)">
</g><g clip-path="url(#c1)">
<polyline points="38.03,507.44 641.08,507.44" style="stroke-width: 1.07;stroke: #EBEBEB;stroke-linecap: butt;"/>
<polyline points="38.03,392.14 641.08,392.14" style="stroke-width: 1.07;stroke: #EBEBEB;stroke-linecap: butt;"/>
<polyline points="38.03,276.84 641.08,276.84" style="stroke-width: 1.07;stroke: #EBEBEB;stroke-linecap: butt;"/>
<polyline points="38.03,161.54 641.08,161.54" style="stroke-width: 1.07;stroke: #EBEBEB;stroke-linecap: butt;"/>
<polyline points="38.03,46.24 641.08,46.24" style="stroke-width: 1.07;stroke: #EBEBEB;stroke-linecap: butt;"/>
<polyline points="111.26,530.50 111.26,23.18" style="stroke-width: 1.07;stroke: #EBEBEB;stroke-linecap: butt;"/>
<polyline points="263.46,530.50 263.46,23.18" style="stroke-width: 1.07;stroke: #EBEBEB;stroke-linecap: butt;"/>
<polyline points="415.65,530.50 415.65,23.18" style="stroke-width: 1.07;stroke: #EBEBEB;stroke-linecap: butt;"/>
<polyline points="567.85,530.50 567.85,23.18" style="stroke-width: 1.07;stroke: #EBEBEB;stroke-linecap: butt;"/>
<polygon points="65.44,46.24 68.20,46.24 70.95,46.24 73.71,46.24 76.46,46.24 79.22,46.24 81.97,46.24 84.73,46.24 87.48,46.24 90.24,46.24 92.99,46.24 95.75,46.24 98.50,46.24 101.26,46.24 104.01,46.24 106.77,46.24 109.52,46.24 112.28,46.24 115.03,46.24 117.79,46.24 120.54,46.24 123.30,46.24 126.05,46.24 128.81,46.24 131.56,46.24 134.32,46.24 137.07,46.24 139.83,46.24 142.58,46.24 145.34,46.24 148.09,46.24 150.85,46.24 153.60,46.24 156.36,46.24 159.11,46.24 161.87,46.24 164.62,46.24 167.38,46.24 170.13,46.24 172.89,46.24 175.64,46.24 178.39,46.24 181.15,46.25 183.90,46.25 186.66,46.26 189.41,46.26 192.17,46.28 194.92,46.30 197.68,46.32 200.43,46.37 203.19,46.43 205.94,46.52 208.70,46.65 211.45,46.85 214.21,47.14 216.96,47.57 219.72,48.20 222.47,49.15 225.23,50.53 227.98,52.56 230.74,55.56 233.49,59.90 236.25,65.95 239.00,74.08 241.76,84.69 244.51,97.94 247.27,113.79 250.02,131.95 252.78,151.91 255.53,172.78 258.29,193.68 261.04,213.62 263.80,232.08 266.55,251.64 269.31,271.34 272.06,291.25 274.82,310.93 277.57,330.13 280.33,348.61 283.08,366.14 285.83,382.54 288.59,397.68 291.34,411.52 294.10,424.02 296.85,435.22 299.61,445.16 302.36,453.92 305.12,461.59 307.87,468.27 310.63,474.05 313.38,479.04 316.14,483.32 318.89,486.99 321.65,490.12 324.40,492.79 327.16,495.06 329.91,496.99 332.67,498.62 335.42,500.00 338.18,501.17 340.93,502.15 343.69,502.99 346.44,503.69 349.20,504.28 351.95,504.78 354.71,505.21 357.46,505.56 360.22,505.86 362.97,506.11 365.73,506.32 368.48,506.50 371.24,506.65 373.99,506.78 376.75,506.88 379.50,506.97 382.26,507.05 385.01,507.11 387.77,507.16 390.52,507.21 393.28,507.24 396.03,507.28 398.78,507.30 401.54,507.33 404.29,507.34 407.05,507.36 409.80,507.37 412.56,507.38 415.31,507.39 418.07,507.40 420.82,507.41 423.58,507.41 426.33,507.42 429.09,507.42 431.84,507.43 434.60,507.43 437.35,507.43 440.11,507.43 442.86,507.43 445.62,507.44 448.37,507.44 451.13,507.44 453.88,507.44 456.64,507.44 459.39,507.44 462.15,507.44 464.90,507.44 467.66,507.44 470.41,507.44 473.17,507.44 475.92,507.44 478.68,507.44 481.43,507.44 484.19,507.44 486.94,507.44 489.70,507.44 492.45,507.44 495.21,507.44 497.96,507.44 500.72,507.44 503.47,507.44 506.22,507.44 508.98,507.44 511.73,507.44 514.49,507.44 517.24,507.44 520.00,507.44 522.75,507.44 525.51,507.44 528.26,507.44 531.02,507.44 533.77,507.44 536.53,507.44 539.28,507.44 542.04,507.44 544.79,507.44 547.55,507.44 550.30,507.44 553.06,507.44 555.81,507.44 558.57,507.44 561.32,507.44 564.08,507.44 566.83,507.44 569.59,507.44 572.34,507.44 575.10,507.44 577.85,507.44 580.61,507.44 583.36,507.44 586.12,507.44 588.87,507.44 591.63,507.44 594.38,507.44 597.14,507.44 599.89,507.44 602.65,507.44 605.40,507.44 608.16,507.44 610.91,507.44 613.67,507.44 613.67,507.44 610.91,507.44 608.16,507.44 605.40,507.44 602.65,507.44 599.89,507.44 597.14,507.44 594.38,507.44 591.63,507.44 588.87,507.44 586.12,507.44 583.36,507.44 580.61,507.44 577.85,507.44 575.10,507.44 572.34,507.44 569.59,507.44 566.83,507.44 564.08,507.44 561.32,507.44 558.57,507.44 555.81,507.44 553.06,507.44 550.30,507.44 547.55,507.44 544.79,507.44 542.04,507.44 539.28,507.44 536.53,507.44 533.77,507.44 531.02,507.44 528.26,507.44 525.51,507.44 522.75,507.44 520.00,507.44 517.24,507.44 514.49,507.44 511.73,507.44 508.98,507.44 506.22,507.44 503.47,507.44 500.72,507.44 497.96,507.44 495.21,507.44 492.45,507.44 489.70,507.44 486.94,507.44 484.19,507.44 481.43,507.44 478.68,507.44 475.92,507.44 473.17,507.44 470.41,507.44 467.66,507.44 464.90,507.44 462.15,507.44 459.39,507.44 456.64,507.44 453.88,507.44 451.13,507.44 448.37,507.44 445.62,507.44 442.86,507.44 440.11,507.44 437.35,507.44 434.60,507.44 431.84,507.44 429.09,507.44 426.33,507.44 423.58,507.44 420.82,507.44 418.07,507.44 415.31,507.44 412.56,507.44 409.80,507.44 407.05,507.44 404.29,507.44 401.54,507.44 398.78,507.44 396.03,507.44 393.28,507.44 390.52,507.44 387.77,507.44 385.01,507.44 382.26,507.44 379.50,507.44 376.75,507.44 373.99,507.44 371.24,507.44 368.48,507.44 365.73,507.44 362.97,507.44 360.22,507.44 357.46,507.44 354.71,507.44 351.95,507.44 349.20,507.44 346.44,507.44 343.69,507.44 340.93,507.44 338.18,507.44 335.42,507.44 332.67,507.43 329.91,507.43 327.16,507.42 324.40,507.41 321.65,507.39 318.89,507.36 316.14,507.32 313.38,507.26 310.63,507.18 307.87,507.05 305.12,506.86 302.36,506.58 299.61,506.17 296.85,505.56 294.10,504.67 291.34,503.35 288.59,501.42 285.83,498.59 283.08,494.48 280.33,488.54 277.57,480.03 274.82,468.05 272.06,451.49 269.31,429.27 266.55,400.55 263.80,365.20 261.04,324.21 258.29,279.83 255.53,235.23 252.78,193.59 250.02,159.35 247.27,138.20 244.51,123.68 241.76,113.05 239.00,103.76 236.25,95.55 233.49,88.40 230.74,82.19 227.98,76.83 225.23,72.22 222.47,68.27 219.72,64.89 216.96,62.02 214.21,59.57 211.45,57.50 208.70,55.74 205.94,54.25 203.19,53.00 200.43,51.93 197.68,51.03 194.92,50.28 192.17,49.64 189.41,49.10 186.66,48.65 183.90,48.27 181.15,47.94 178.39,47.67 175.64,47.45 172.89,47.25 170.13,47.09 167.38,46.96 164.62,46.84 161.87,46.75 159.11,46.67 156.36,46.60 153.60,46.54 150.85,46.49 148.09,46.45 145.34,46.42 142.58,46.39 139.83,46.36 137.07,46.34 134.32,46.33 131.56,46.31 128.81,46.30 126.05,46.29 123.30,46.28 120.54,46.28 117.79,46.27 115.03,46.26 112.28,46.26 109.52,46.26 106.77,46.25 104.01,46.25 101.26,46.25 98.50,46.25 95.75,46.25 92.99,46.24 90.24,46.24 87.48,46.24 84.73,46.24 81.97,46.24 79.22,46.24 76.46,46.24 73.71,46.24 70.95,46.24 68.20,46.24 65.44,46.24" style="stroke-width: 0.00;stroke: none;stroke-linecap: butt;fill: #F8766D;fill-opacity: 0.15;" />
<polyline points="65.44,46.24 68.20,46.24 70.95,46.24 73.71,46.24 76.46,46.24 79.22,46.24 81.97,46.24 84.73,46.24 87.48,46.24 90.24,46.24 92.99,46.24 95.75,46.24 98.50,46.24 101.26,46.24 104.01,46.24 106.77,46.24 109.52,46.24 112.28,46.24 115.03,46.24 117.79,46.24 120.54,46.24 123.30,46.24 126.05,46.24 128.81,46.24 131.56,46.24 134.32,46.24 137.07,46.24 139.83,46.24 142.58,46.24 145.34,46.24 148.09,46.24 150.85,46.24 153.60,46.24 156.36,46.24 159.11,46.24 161.87,46.24 164.62,46.24 167.38,46.24 170.13,46.24 172.89,46.24 175.64,46.24 178.39,46.24 181.15,46.25 183.90,46.25 186.66,46.26 189.41,46.26 192.17,46.28 194.92,46.30 197.68,46.32 200.43,46.37 203.19,46.43 205.94,46.52 208.70,46.65 211.45,46.85 214.21,47.14 216.96,47.57 219.72,48.20 222.47,49.15 225.23,50.53 227.98,52.56 230.74,55.56 233.49,59.90 236.25,65.95 239.00,74.08 241.76,84.69 244.51,97.94 247.27,113.79 250.02,131.95 252.78,151.91 255.53,172.78 258.29,193.68 261.04,213.62 263.80,232.08 266.55,251.64 269.31,271.34 272.06,291.25 274.82,310.93 277.57,330.13 280.33,348.61 283.08,366.14 285.83,382.54 288.59,397.68 291.34,411.52 294.10,424.02 296.85,435.22 299.61,445.16 302.36,453.92 305.12,461.59 307.87,468.27 310.63,474.05 313.38,479.04 316.14,483.32 318.89,486.99 321.65,490.12 324.40,492.79 327.16,495.06 329.91,496.99 332.67,498.62 335.42,500.00 338.18,501.17 340.93,502.15 343.69,502.99 346.44,503.69 349.20,504.28 351.95,504.78 354.71,505.21 357.46,505.56 360.22,505.86 362.97,506.11 365.73,506.32 368.48,506.50 371.24,506.65 373.99,506.78 376.75,506.88 379.50,506.97 382.26,507.05 385.01,507.11 387.77,507.16 390.52,507.21 393.28,507.24 396.03,507.28 398.78,507.30 401.54,507.33 404.29,507.34 407.05,507.36 409.80,507.37 412.56,507.38 415.31,507.39 418.07,507.40 420.82,507.41 423.58,507.41 426.33,507.42 429.09,507.42 431.84,507.43 434.60,507.43 437.35,507.43 440.11,507.43 442.86,507.43 445.62,507.44 448.37,507.44 451.13,507.44 453.88,507.44 456.64,507.44 459.39,507.44 462.15,507.44 464.90,507.44 467.66,507.44 470.41,507.44 473.17,507.44 475.92,507.44 478.68,507.44 481.43,507.44 484.19,507.44 486.94,507.44 489.70,507.44 492.45,507.44 495.21,507.44 497.96,507.44 500.72,507.44 503.47,507.44 506.22,507.44 508.98,507.44 511.73,507.44 514.49,507.44 517.24,507.44 520.00,507.44 522.75,507.44 525.51,507.44 528.26,507.44 531.02,507.44 533.77,507.44 536.53,507.44 539.28,507.44 542.04,507.44 544.79,507.44 547.55,507.44 550.30,507.44 553.06,507.44 555.81,507.44 558.57,507.44 561.32,507.44 564.08,507.44 566.83,507.44 569.59,507.44 572.34,507.44 575.10,507.44 577.85,507.44 580.61,507.44 583.36,507.44 586.12,507.44 588.87,507.44 591.63,507.44 594.38,507.44 597.14,507.44 599.89,507.44 602.65,507.44 605.40,507.44 608.16,507.44 610.91,507.44 613.67,507.44" style="stroke-width: 1.07;stroke: none;stroke-linecap: butt;"/>
<polyline points="613.67,507.44 610.91,507.44 608.16,507.44 605.40,507.44 602.65,507.44 599.89,507.44 597.14,507.44 594.38,507.44 591.63,507.44 588.87,507.44 586.12,507.44 583.36,507.44 580.61,507.44 577.85,507.44 575.10,507.44 572.34,507.44 569.59,507.44 566.83,507.44 564.08,507.44 561.32,507.44 558.57,507.44 555.81,507.44 553.06,507.44 550.30,507.44 547.55,507.44 544.79,507.44 542.04,507.44 539.28,507.44 536.53,507.44 533.77,507.44 531.02,507.44 528.26,507.44 525.51,507.44 522.75,507.44 520.00,507.44 517.24,507.44 514.49,507.44 511.73,507.44 508.98,507.44 506.22,507.44 503.47,507.44 500.72,507.44 497.96,507.44 495.21,507.44 492.45,507.44 489.70,507.44 486.94,507.44 484.19,507.44 481.43,507.44 478.68,507.44 475.92,507.44 473.17,507.44 470.41,507.44 467.66,507.44 464.90,507.44 462.15,507.44 459.39,507.44 456.64,507.44 453.88,507.44 451.13,507.44 448.37,507.44 445.62,507.44 442.86,507.44 440.11,507.44 437.35,507.44 434.60,507.44 431.84,507.44 429.09,507.44 426.33,507.44 423.58,507.44 420.82,507.44 418.07,507.44 415.31,507.44 412.56,507.44 409.80,507.44 407.05,507.44 404.29,507.44 401.54,507.44 398.78,507.44 396.03,507.44 393.28,507.44 390.52,507.44 387.77,507.44 385.01,507.44 382.26,507.44 379.50,507.44 376.75,507.44 373.99,507.44 371.24,507.44 368.48,507.44 365.73,507.44 362.97,507.44 360.22,507.44 357.46,507.44 354.71,507.44 351.95,507.44 349.20,507.44 346.44,507.44 343.69,507.44 340.93,507.44 338.18,507.44 335.42,507.44 332.67,507.43 329.91,507.43 327.16,507.42 324.40,507.41 321.65,507.39 318.89,507.36 316.14,507.32 313.38,507.26 310.63,507.18 307.87,507.05 305.12,506.86 302.36,506.58 299.61,506.17 296.85,505.56 294.10,504.67 291.34,503.35 288.59,501.42 285.83,498.59 283.08,494.48 280.33,488.54 277.57,480.03 274.82,468.05 272.06,451.49 269.31,429.27 266.55,400.55 263.80,365.20 261.04,324.21 258.29,279.83 255.53,235.23 252.78,193.59 250.02,159.35 247.27,138.20 244.51,123.68 241.76,113.05 239.00,103.76 236.25,95.55 233.49,88.40 230.74,82.19 227.98,76.83 225.23,72.22 222.47,68.27 219.72,64.89 216.96,62.02 214.21,59.57 211.45,57.50 208.70,55.74 205.94,54.25 203.19,53.00 200.43,51.93 197.68,51.03 194.92,50.28 192.17,49.64 189.41,49.10 186.66,48.65 183.90,48.27 181.15,47.94 178.39,47.67 175.64,47.45 172.89,47.25 170.13,47.09 167.38,46.96 164.62,46.84 161.87,46.75 159.11,46.67 156.36,46.60 153.60,46.54 150.85,46.49 148.09,46.45 145.34,46.42 142.58,46.39 139.83,46.36 137.07,46.34 134.32,46.33 131.56,46.31 128.81,46.30 126.05,46.29 123.30,46.28 120.54,46.28 117.79,46.27 115.03,46.26 112.28,46.26 109.52,46.26 106.77,46.25 104.01,46.25 101.26,46.25 98.50,46.25 95.75,46.25 92.99,46.24 90.24,46.24 87.48,46.24 84.73,46.24 81.97,46.24 79.22,46.24 76.46,46.24 73.71,46.24 70.95,46.24 68.20,46.24 65.44,46.24" style="stroke-width: 1.07;stroke: none;stroke-linecap: butt;"/>
<polygon points="65.44,70.63 68.20,70.63 70.95,70.69 73.71,70.78 76.46,70.78 79.22,70.78 81.97,70.78 84.73,70.78 87.48,70.78 90.24,70.78 92.99,70.83 95.75,70.92 98.50,70.92 101.26,70.92 104.01,70.92 106.77,70.92 109.52,70.92 112.28,70.96 115.03,71.02 117.79,71.08 120.54,71.08 123.30,71.08 126.05,71.08 128.81,71.08 131.56,71.08 134.32,71.08 137.07,71.08 139.83,71.08 142.58,71.08 145.34,71.10 148.09,71.24 150.85,71.35 153.60,71.35 156.36,71.35 159.11,71.35 161.87,71.35 164.62,71.51 167.38,71.51 170.13,71.51 172.89,71.51 175.64,71.59 178.39,71.59 181.15,71.63 183.90,71.63 186.66,71.63 189.41,71.63 192.17,71.73 194.92,71.84 197.68,71.93 200.43,72.35 203.19,72.40 205.94,72.82 208.70,73.19 211.45,74.01 214.21,74.86 216.96,75.70 219.72,77.22 222.47,79.64 225.23,83.24 227.98,88.32 230.74,95.20 233.49,103.83 236.25,114.66 239.00,130.19 241.76,148.78 244.51,171.51 247.27,195.43 250.02,221.85 252.78,245.22 255.53,264.23 258.29,280.51 261.04,291.98 263.80,298.99 266.55,304.21 269.31,307.71 272.06,311.15 274.82,314.99 277.57,317.62 280.33,320.52 283.08,323.54 285.83,325.98 288.59,328.99 291.34,331.91 294.10,334.82 296.85,337.72 299.61,340.61 302.36,343.70 305.12,346.87 307.87,350.15 310.63,353.25 313.38,356.05 316.14,358.87 318.89,361.94 321.65,364.92 324.40,367.73 327.16,370.26 329.91,372.76 332.67,375.24 335.42,377.76 338.18,380.36 340.93,382.94 343.69,385.38 346.44,387.82 349.20,390.26 351.95,392.68 354.71,395.08 357.46,397.53 360.22,399.95 362.97,402.33 365.73,404.68 368.48,406.99 371.24,409.27 373.99,411.51 376.75,413.71 379.50,415.88 382.26,418.01 385.01,420.12 387.77,422.19 390.52,424.22 393.28,426.22 396.03,428.18 398.78,430.10 401.54,431.99 404.29,433.84 407.05,435.66 409.80,437.44 412.56,439.18 415.31,440.89 418.07,442.56 420.82,444.20 423.58,445.81 426.33,447.38 429.09,448.92 431.84,450.42 434.60,451.90 437.35,453.34 440.11,454.74 442.86,456.12 445.62,457.47 448.37,458.78 451.13,460.06 453.88,461.32 456.64,462.55 459.39,463.74 462.15,464.91 464.90,466.05 467.66,467.17 470.41,468.25 473.17,469.31 475.92,470.35 478.68,471.36 481.43,472.34 484.19,473.30 486.94,474.24 489.70,475.15 492.45,476.04 495.21,476.90 497.96,477.75 500.72,478.57 503.47,479.37 506.22,480.15 508.98,480.92 511.73,481.66 514.49,482.38 517.24,483.08 520.00,483.76 522.75,484.43 525.51,485.08 528.26,485.71 531.02,486.32 533.77,486.92 536.53,487.50 539.28,488.07 542.04,488.62 544.79,489.16 547.55,489.68 550.30,490.18 553.06,490.68 555.81,491.16 558.57,491.62 561.32,492.08 564.08,492.52 566.83,492.95 569.59,493.36 572.34,493.77 575.10,494.16 577.85,494.55 580.61,494.92 583.36,495.28 586.12,495.63 588.87,495.98 591.63,496.31 594.38,496.63 597.14,496.94 599.89,497.25 602.65,497.55 605.40,497.83 608.16,498.11 610.91,498.38 613.67,498.65 613.67,507.44 610.91,507.44 608.16,507.44 605.40,507.44 602.65,507.44 599.89,507.44 597.14,507.44 594.38,507.44 591.63,507.44 588.87,507.44 586.12,507.44 583.36,507.44 580.61,507.44 577.85,507.44 575.10,507.44 572.34,507.44 569.59,507.44 566.83,507.44 564.08,507.44 561.32,507.44 558.57,507.44 555.81,507.44 553.06,507.44 550.30,507.44 547.55,507.44 544.79,507.44 542.04,507.44 539.28,507.44 536.53,507.44 533.77,507.44 531.02,507.44 528.26,507.44 525.51,507.44 522.75,507.44 520.00,507.44 517.24,507.44 514.49,507.44 511.73,507.44 508.98,507.44 506.22,507.44 503.47,507.44 500.72,507.44 497.96,507.44 495.21,507.44 492.45,507.44 489.70,507.44 486.94,507.44 484.19,507.44 481.43,507.44 478.68,507.44 475.92,507.44 473.17,507.44 470.41,507.44 467.66,507.44 464.90,507.44 462.15,507.44 459.39,507.44 456.64,507.44 453.88,507.44 451.13,507.44 448.37,507.44 445.62,507.44 442.86,507.44 440.11,507.44 437.35,507.44 434.60,507.44 431.84,507.44 429.09,507.44 426.33,507.44 423.58,507.44 420.82,507.44 418.07,507.44 415.31,507.44 412.56,507.44 409.80,507.44 407.05,507.44 404.29,507.44 401.54,507.44 398.78,507.44 396.03,507.44 393.28,507.44 390.52,507.44 387.77,507.44 385.01,507.44 382.26,507.44 379.50,507.44 376.75,507.44 373.99,507.44 371.24,507.44 368.48,507.44 365.73,507.44 362.97,507.44 360.22,507.44 357.46,507.44 354.71,507.44 351.95,507.44 349.20,507.44 346.44,507.44 343.69,507.44 340.93,507.44 338.18,507.44 335.42,507.44 332.67,507.44 329.91,507.44 327.16,507.44 324.40,507.44 321.65,507.44 318.89,507.44 316.14,507.44 313.38,507.44 310.63,507.44 307.87,507.44 305.12,507.44 302.36,507.44 299.61,507.44 296.85,507.44 294.10,507.44 291.34,507.44 288.59,507.44 285.83,507.44 283.08,507.44 280.33,507.44 277.57,507.44 274.82,507.44 272.06,507.44 269.31,507.44 266.55,507.44 263.80,507.44 261.04,507.44 258.29,507.44 255.53,507.44 252.78,507.44 250.02,507.44 247.27,507.44 244.51,507.44 241.76,507.44 239.00,507.44 236.25,507.44 233.49,507.44 230.74,507.44 227.98,507.44 225.23,507.44 222.47,507.44 219.72,507.44 216.96,507.42 214.21,507.34 211.45,506.94 208.70,505.02 205.94,495.96 203.19,463.77 200.43,370.83 197.68,284.35 194.92,269.57 192.17,261.22 189.41,254.83 186.66,252.27 183.90,246.60 181.15,231.52 178.39,226.92 175.64,221.42 172.89,219.12 170.13,212.28 167.38,207.74 164.62,205.45 161.87,203.20 159.11,200.34 156.36,198.14 153.60,195.96 150.85,193.82 148.09,190.32 145.34,184.18 142.58,177.72 139.83,174.16 137.07,172.09 134.32,170.06 131.56,167.93 128.81,165.95 126.05,164.01 123.30,162.13 120.54,160.31 117.79,158.72 115.03,157.02 112.28,155.33 109.52,153.65 106.77,152.01 104.01,150.40 101.26,148.82 98.50,147.28 95.75,145.77 92.99,144.29 90.24,142.97 87.48,141.88 84.73,140.77 81.97,139.65 79.22,138.82 76.46,138.49 73.71,137.99 70.95,137.07 68.20,136.12 65.44,135.12" style="stroke-width: 0.00;stroke: none;stroke-linecap: butt;fill: #7CAE00;fill-opacity: 0.15;" />
<polyline points="65.44,70.63 68.20,70.63 70.95,70.69 73.71,70.78 76.46,70.78 79.22,70.78 81.97,70.78 84.73,70.78 87.48,70.78 90.24,70.78 92.99,70.83 95.75,70.92 98.50,70.92 101.26,70.92 104.01,70.92 106.77,70.92 109.52,70.92 112.28,70.96 115.03,71.02 117.79,71.08 120.54,71.08 123.30,71.08 126.05,71.08 128.81,71.08 131.56,71.08 134.32,71.08 137.07,71.08 139.83,71.08 142.58,71.08 145.34,71.10 148.09,71.24 150.85,71.35 153.60,71.35 156.36,71.35 159.11,71.35 161.87,71.35 164.62,71.51 167.38,71.51 170.13,71.51 172.89,71.51 175.64,71.59 178.39,71.59 181.15,71.63 183.90,71.63 186.66,71.63 189.41,71.63 192.17,71.73 194.92,71.84 197.68,71.93 200.43,72.35 203.19,72.40 205.94,72.82 208.70,73.19 211.45,74.01 214.21,74.86 216.96,75.70 219.72,77.22 222.47,79.64 225.23,83.24 227.98,88.32 230.74,95.20 233.49,103.83 236.25,114.66 239.00,130.19 241.76,148.78 244.51,171.51 247.27,195.43 250.02,221.85 252.78,245.22 255.53,264.23 258.29,280.51 261.04,291.98 263.80,298.99 266.55,304.21 269.31,307.71 272.06,311.15 274.82,314.99 277.57,317.62 280.33,320.52 283.08,323.54 285.83,325.98 288.59,328.99 291.34,331.91 294.10,334.82 296.85,337.72 299.61,340.61 302.36,343.70 305.12,346.87 307.87,350.15 310.63,353.25 313.38,356.05 316.14,358.87 318.89,361.94 321.65,364.92 324.40,367.73 327.16,370.26 329.91,372.76 332.67,375.24 335.42,377.76 338.18,380.36 340.93,382.94 343.69,385.38 346.44,387.82 349.20,390.26 351.95,392.68 354.71,395.08 357.46,397.53 360.22,399.95 362.97,402.33 365.73,404.68 368.48,406.99 371.24,409.27 373.99,411.51 376.75,413.71 379.50,415.88 382.26,418.01 385.01,420.12 387.77,422.19 390.52,424.22 393.28,426.22 396.03,428.18 398.78,430.10 401.54,431.99 404.29,433.84 407.05,435.66 409.80,437.44 412.56,439.18 415.31,440.89 418.07,442.56 420.82,444.20 423.58,445.81 426.33,447.38 429.09,448.92 431.84,450.42 434.60,451.90 437.35,453.34 440.11,454.74 442.86,456.12 445.62,457.47 448.37,458.78 451.13,460.06 453.88,461.32 456.64,462.55 459.39,463.74 462.15,464.91 464.90,466.05 467.66,467.17 470.41,468.25 473.17,469.31 475.92,470.35 478.68,471.36 481.43,472.34 484.19,473.30 486.94,474.24 489.70,475.15 492.45,476.04 495.21,476.90 497.96,477.75 500.72,478.57 503.47,479.37 506.22,480.15 508.98,480.92 511.73,481.66 514.49,482.38 517.24,483.08 520.00,483.76 522.75,484.43 525.51,485.08 528.26,485.71 531.02,486.32 533.77,486.92 536.53,487.50 539.28,488.07 542.04,488.62 544.79,489.16 547.55,489.68 550.30,490.18 553.06,490.68 555.81,491.16 558.57,491.62 561.32,492.08 564.08,492.52 566.83,492.95 569.59,493.36 572.34,493.77 575.10,494.16 577.85,494.55 580.61,494.92 583.36,495.28 586.12,495.63 588.87,495.98 591.63,496.31 594.38,496.63 597.14,496.94 599.89,497.25 602.65,497.55 605.40,497.83 608.16,498.11 610.91,498.38 613.67,498.65" style="stroke-width: 1.07;stroke: none;stroke-linecap: butt;"/>
<polyline points="613.67,507.44 610.91,507.44 608.16,507.44 605.40,507.44 602.65,507.44 599.89,507.44 597.14,507.44 594.38,507.44 591.63,507.44 588.87,507.44 586.12,507.44 583.36,507.44 580.61,507.44 577.85,507.44 575.10,507.44 572.34,507.44 569.59,507.44 566.83,507.44 564.08,507.44 561.32,507.44 558.57,507.44 555.81,507.44 553.06,507.44 550.30,507.44 547.55,507.44 544.79,507.44 542.04,507.44 539.28,507.44 536.53,507.44 533.77,507.44 531.02,507.44 528.26,507.44 525.51,507.44 522.75,507.44 520.00,507.44 517.24,507.44 514.49,507.44 511.73,507.44 508.98,507.44 506.22,507.44 503.47,507.44 500.72,507.44 497.96,507.44 495.21,507.44 492.45,507.44 489.70,507.44 486.94,507.44 484.19,507.44 481.43,507.44 478.68,507.44 475.92,507.44 473.17,507.44 470.41,507.44 467.66,507.44 464.90,507.44 462.15,507.44 459.39,507.44 456.64,507.44 453.88,507.44 451.13,507.44 448.37,507.44 445.62,507.44 442.86,507.44 440.11,507.44 437.35,507.44 434.60,507.44 431.84,507.44 429.09,507.44 426.33,507.44 423.58,507.44 420.82,507.44 418.07,507.44 415.31,507.44 412.56,507.44 409.80,507.44 407.05,507.44 404.29,507.44 401.54,507.44 398.78,507.44 396.03,507.44 393.28,507.44 390.52,507.44 387.77,507.44 385.01,507.44 382.26,507.44 379.50,507.44 376.75,507.44 373.99,507.44 371.24,507.44 368.48,507.44 365.73,507.44 362.97,507.44 360.22,507.44 357.46,507.44 354.71,507.44 351.95,507.44 349.20,507.44 346.44,507.44 343.69,507.44 340.93,507.44 338.18,507.44 335.42,507.44 332.67,507.44 329.91,507.44 327.16,507.44 324.40,507.44 321.65,507.44 318.89,507.44 316.14,507.44 313.38,507.44 310.63,507.44 307.87,507.44 305.12,507.44 302.36,507.44 299.61,507.44 296.85,507.44 294.10,507.44 291.34,507.44 288.59,507.44 285.83,507.44 283.08,507.44 280.33,507.44 277.57,507.44 274.82,507.44 272.06,507.44 269.31,507.44 266.55,507.44 263.80,507.44 261.04,507.44 258.29,507.44 255.53,507.44 252.78,507.44 250.02,507.44 247.27,507.44 244.51,507.44 241.76,507.44 239.00,507.44 236.25,507.44 233.49,507.44 230.74,507.44 227.98,507.44 225.23,507.44 222.47,507.44 219.72,507.44 216.96,507.42 214.21,507.34 211.45,506.94 208.70,505.02 205.94,495.96 203.19,463.77 200.43,370.83 197.68,284.35 194.92,269.57 192.17,261.22 189.41,254.83 186.66,252.27 183.90,246.60 181.15,231.52 178.39,226.92 175.64,221.42 172.89,219.12 170.13,212.28 167.38,207.74 164.62,205.45 161.87,203.20 159.11,200.34 156.36,198.14 153.60,195.96 150.85,193.82 148.09,190.32 145.34,184.18 142.58,177.72 139.83,174.16 137.07,172.09 134.32,170.06 131.56,167.93 128.81,165.95 126.05,164.01 123.30,162.13 120.54,160.31 117.79,158.72 115.03,157.02 112.28,155.33 109.52,153.65 106.77,152.01 104.01,150.40 101.26,148.82 98.50,147.28 95.75,145.77 92.99,144.29 90.24,142.97 87.48,141.88 84.73,140.77 81.97,139.65 79.22,138.82 76.46,138.49 73.71,137.99 70.95,137.07 68.20,136.12 65.44,135.12" style="stroke-width: 1.07;stroke: none;stroke-linecap: butt;"/>
<polygon points="65.44,46.24 68.20,46.24 70.95,46.24 73.71,46.24 76.46,46.24 79.22,46.24 81.97,46.24 84.73,46.24 87.48,46.24 90.24,46.24 92.99,46.24 95.75,46.24 98.50,46.24 101.26,46.24 104.01,46.24 106.77,46.24 109.52,46.24 112.28,46.24 115.03,46.24 117.79,46.24 120.54,46.24 123.30,46.24 126.05,46.24 128.81,46.24 131.56,46.24 134.32,46.24 137.07,46.24 139.83,46.24 142.58,46.24 145.34,46.24 148.09,46.24 150.85,46.24 153.60,46.24 156.36,46.24 159.11,46.24 161.87,46.24 164.62,46.24 167.38,46.24 170.13,46.24 172.89,46.24 175.64,46.24 178.39,46.25 181.15,46.25 183.90,46.25 186.66,46.26 189.41,46.27 192.17,46.29 194.92,46.32 197.68,46.35 200.43,46.41 203.19,46.49 205.94,46.61 208.70,46.79 211.45,47.05 214.21,47.44 216.96,48.01 219.72,48.85 222.47,50.09 225.23,51.90 227.98,54.55 230.74,58.43 233.49,64.02 236.25,72.11 239.00,83.20 241.76,97.58 244.51,115.17 247.27,135.51 250.02,157.73 252.78,180.78 255.53,203.35 258.29,224.46 261.04,243.56 263.80,263.22 266.55,283.21 269.31,303.03 272.06,322.47 274.82,341.25 277.57,359.20 280.33,376.09 283.08,391.73 285.83,406.04 288.59,419.03 291.34,430.72 294.10,441.13 296.85,450.35 299.61,458.44 302.36,465.51 305.12,471.65 307.87,476.95 310.63,481.52 313.38,485.44 316.14,488.79 318.89,491.65 321.65,494.08 324.40,496.15 327.16,497.91 329.91,499.40 332.67,500.65 335.42,501.72 338.18,502.62 340.93,503.38 343.69,504.02 346.44,504.56 349.20,505.02 351.95,505.40 354.71,505.72 357.46,506.00 360.22,506.22 362.97,506.42 365.73,506.58 368.48,506.72 371.24,506.83 373.99,506.93 376.75,507.01 379.50,507.08 382.26,507.14 385.01,507.19 387.77,507.23 390.52,507.26 393.28,507.29 396.03,507.31 398.78,507.33 401.54,507.35 404.29,507.37 407.05,507.38 409.80,507.39 412.56,507.40 415.31,507.41 418.07,507.41 420.82,507.42 423.58,507.42 426.33,507.42 429.09,507.43 431.84,507.43 434.60,507.43 437.35,507.43 440.11,507.44 442.86,507.44 445.62,507.44 448.37,507.44 451.13,507.44 453.88,507.44 456.64,507.44 459.39,507.44 462.15,507.44 464.90,507.44 467.66,507.44 470.41,507.44 473.17,507.44 475.92,507.44 478.68,507.44 481.43,507.44 484.19,507.44 486.94,507.44 489.70,507.44 492.45,507.44 495.21,507.44 497.96,507.44 500.72,507.44 503.47,507.44 506.22,507.44 508.98,507.44 511.73,507.44 514.49,507.44 517.24,507.44 520.00,507.44 522.75,507.44 525.51,507.44 528.26,507.44 531.02,507.44 533.77,507.44 536.53,507.44 539.28,507.44 542.04,507.44 544.79,507.44 547.55,507.44 550.30,507.44 553.06,507.44 555.81,507.44 558.57,507.44 561.32,507.44 564.08,507.44 566.83,507.44 569.59,507.44 572.34,507.44 575.10,507.44 577.85,507.44 580.61,507.44 583.36,507.44 586.12,507.44 588.87,507.44 591.63,507.44 594.38,507.44 597.14,507.44 599.89,507.44 602.65,507.44 605.40,507.44 608.16,507.44 610.91,507.44 613.67,507.44 613.67,507.44 610.91,507.44 608.16,507.44 605.40,507.44 602.65,507.44 599.89,507.44 597.14,507.44 594.38,507.44 591.63,507.44 588.87,507.44 586.12,507.44 583.36,507.44 580.61,507.44 577.85,507.44 575.10,507.44 572.34,507.44 569.59,507.44 566.83,507.44 564.08,507.44 561.32,507.44 558.57,507.44 555.81,507.44 553.06,507.44 550.30,507.44 547.55,507.44 544.79,507.44 542.04,507.44 539.28,507.44 536.53,507.44 533.77,507.44 531.02,507.44 528.26,507.44 525.51,507.44 522.75,507.44 520.00,507.44 517.24,507.44 514.49,507.44 511.73,507.44 508.98,507.44 506.22,507.44 503.47,507.44 500.72,507.44 497.96,507.44 495.21,507.44 492.45,507.44 489.70,507.44 486.94,507.44 484.19,507.44 481.43,507.44 478.68,507.44 475.92,507.44 473.17,507.44 470.41,507.44 467.66,507.44 464.90,507.44 462.15,507.44 459.39,507.44 456.64,507.44 453.88,507.44 451.13,507.44 448.37,507.44 445.62,507.44 442.86,507.44 440.11,507.44 437.35,507.44 434.60,507.44 431.84,507.44 429.09,507.44 426.33,507.44 423.58,507.44 420.82,507.44 418.07,507.44 415.31,507.44 412.56,507.44 409.80,507.44 407.05,507.44 404.29,507.44 401.54,507.44 398.78,507.44 396.03,507.44 393.28,507.44 390.52,507.44 387.77,507.44 385.01,507.44 382.26,507.44 379.50,507.44 376.75,507.44 373.99,507.44 371.24,507.44 368.48,507.44 365.73,507.44 362.97,507.44 360.22,507.44 357.46,507.44 354.71,507.44 351.95,507.44 349.20,507.44 346.44,507.44 343.69,507.44 340.93,507.44 338.18,507.44 335.42,507.44 332.67,507.43 329.91,507.43 327.16,507.42 324.40,507.41 321.65,507.40 318.89,507.38 316.14,507.35 313.38,507.30 310.63,507.24 307.87,507.14 305.12,506.99 302.36,506.78 299.61,506.46 296.85,505.99 294.10,505.30 291.34,504.29 288.59,502.79 285.83,500.61 283.08,497.41 280.33,492.78 277.57,486.10 274.82,476.59 272.06,463.28 269.31,445.10 266.55,420.97 263.80,390.06 261.04,352.70 258.29,310.39 255.53,265.62 252.78,221.69 250.02,183.59 247.27,158.30 244.51,142.63 241.76,130.08 239.00,118.84 236.25,108.88 233.49,100.09 230.74,92.39 227.98,85.69 225.23,79.88 222.47,74.87 219.72,70.56 216.96,66.87 214.21,63.71 211.45,61.03 208.70,58.74 205.94,56.80 203.19,55.16 200.43,53.76 197.68,52.58 194.92,51.59 192.17,50.75 189.41,50.04 186.66,49.44 183.90,48.93 181.15,48.51 178.39,48.15 175.64,47.84 172.89,47.59 170.13,47.38 167.38,47.20 164.62,47.04 161.87,46.92 159.11,46.81 156.36,46.72 153.60,46.64 150.85,46.58 148.09,46.52 145.34,46.48 142.58,46.44 139.83,46.41 137.07,46.38 134.32,46.36 131.56,46.34 128.81,46.32 126.05,46.31 123.30,46.30 120.54,46.29 117.79,46.28 115.03,46.27 112.28,46.27 109.52,46.26 106.77,46.26 104.01,46.26 101.26,46.25 98.50,46.25 95.75,46.25 92.99,46.25 90.24,46.25 87.48,46.24 84.73,46.24 81.97,46.24 79.22,46.24 76.46,46.24 73.71,46.24 70.95,46.24 68.20,46.24 65.44,46.24" style="stroke-width: 0.00;stroke: none;stroke-linecap: butt;fill: #00BFC4;fill-opacity: 0.15;" />
<polyline points="65.44,46.24 68.20,46.24 70.95,46.24 73.71,46.24 76.46,46.24 79.22,46.24 81.97,46.24 84.73,46.24 87.48,46.24 90.24,46.24 92.99,46.24 95.75,46.24 98.50,46.24 101.26,46.24 104.01,46.24 106.77,46.24 109.52,46.24 112.28,46.24 115.03,46.24 117.79,46.24 120.54,46.24 123.30,46.24 126.05,46.24 128.81,46.24 131.56,46.24 134.32,46.24 137.07,46.24 139.83,46.24 142.58,46.24 145.34,46.24 148.09,46.24 150.85,46.24 153.60,46.24 156.36,46.24 159.11,46.24 161.87,46.24 164.62,46.24 167.38,46.24 170.13,46.24 172.89,46.24 175.64,46.24 178.39,46.25 181.15,46.25 183.90,46.25 186.66,46.26 189.41,46.27 192.17,46.29 194.92,46.32 197.68,46.35 200.43,46.41 203.19,46.49 205.94,46.61 208.70,46.79 211.45,47.05 214.21,47.44 216.96,48.01 219.72,48.85 222.47,50.09 225.23,51.90 227.98,54.55 230.74,58.43 233.49,64.02 236.25,72.11 239.00,83.20 241.76,97.58 244.51,115.17 247.27,135.51 250.02,157.73 252.78,180.78 255.53,203.35 258.29,224.46 261.04,243.56 263.80,263.22 266.55,283.21 269.31,303.03 272.06,322.47 274.82,341.25 277.57,359.20 280.33,376.09 283.08,391.73 285.83,406.04 288.59,419.03 291.34,430.72 294.10,441.13 296.85,450.35 299.61,458.44 302.36,465.51 305.12,471.65 307.87,476.95 310.63,481.52 313.38,485.44 316.14,488.79 318.89,491.65 321.65,494.08 324.40,496.15 327.16,497.91 329.91,499.40 332.67,500.65 335.42,501.72 338.18,502.62 340.93,503.38 343.69,504.02 346.44,504.56 349.20,505.02 351.95,505.40 354.71,505.72 357.46,506.00 360.22,506.22 362.97,506.42 365.73,506.58 368.48,506.72 371.24,506.83 373.99,506.93 376.75,507.01 379.50,507.08 382.26,507.14 385.01,507.19 387.77,507.23 390.52,507.26 393.28,507.29 396.03,507.31 398.78,507.33 401.54,507.35 404.29,507.37 407.05,507.38 409.80,507.39 412.56,507.40 415.31,507.41 418.07,507.41 420.82,507.42 423.58,507.42 426.33,507.42 429.09,507.43 431.84,507.43 434.60,507.43 437.35,507.43 440.11,507.44 442.86,507.44 445.62,507.44 448.37,507.44 451.13,507.44 453.88,507.44 456.64,507.44 459.39,507.44 462.15,507.44 464.90,507.44 467.66,507.44 470.41,507.44 473.17,507.44 475.92,507.44 478.68,507.44 481.43,507.44 484.19,507.44 486.94,507.44 489.70,507.44 492.45,507.44 495.21,507.44 497.96,507.44 500.72,507.44 503.47,507.44 506.22,507.44 508.98,507.44 511.73,507.44 514.49,507.44 517.24,507.44 520.00,507.44 522.75,507.44 525.51,507.44 528.26,507.44 531.02,507.44 533.77,507.44 536.53,507.44 539.28,507.44 542.04,507.44 544.79,507.44 547.55,507.44 550.30,507.44 553.06,507.44 555.81,507.44 558.57,507.44 561.32,507.44 564.08,507.44 566.83,507.44 569.59,507.44 572.34,507.44 575.10,507.44 577.85,507.44 580.61,507.44 583.36,507.44 586.12,507.44 588.87,507.44 591.63,507.44 594.38,507.44 597.14,507.44 599.89,507.44 602.65,507.44 605.40,507.44 608.16,507.44 610.91,507.44 613.67,507.44" style="stroke-width: 1.07;stroke: none;stroke-linecap: butt;"/>
<polyline points="613.67,507.44 610.91,507.44 608.16,507.44 605.40,507.44 602.65,507.44 599.89,507.44 597.14,507.44 594.38,507.44 591.63,507.44 588.87,507.44 586.12,507.44 583.36,507.44 580.61,507.44 577.85,507.44 575.10,507.44 572.34,507.44 569.59,507.44 566.83,507.44 564.08,507.44 561.32,507.44 558.57,507.44 555.81,507.44 553.06,507.44 550.30,507.44 547.55,507.44 544.79,507.44 542.04,507.44 539.28,507.44 536.53,507.44 533.77,507.44 531.02,507.44 528.26,507.44 525.51,507.44 522.75,507.44 520.00,507.44 517.24,507.44 514.49,507.44 511.73,507.44 508.98,507.44 506.22,507.44 503.47,507.44 500.72,507.44 497.96,507.44 495.21,507.44 492.45,507.44 489.70,507.44 486.94,507.44 484.19,507.44 481.43,507.44 478.68,507.44 475.92,507.44 473.17,507.44 470.41,507.44 467.66,507.44 464.90,507.44 462.15,507.44 459.39,507.44 456.64,507.44 453.88,507.44 451.13,507.44 448.37,507.44 445.62,507.44 442.86,507.44 440.11,507.44 437.35,507.44 434.60,507.44 431.84,507.44 429.09,507.44 426.33,507.44 423.58,507.44 420.82,507.44 418.07,507.44 415.31,507.44 412.56,507.44 409.80,507.44 407.05,507.44 404.29,507.44 401.54,507.44 398.78,507.44 396.03,507.44 393.28,507.44 390.52,507.44 387.77,507.44 385.01,507.44 382.26,507.44 379.50,507.44 376.75,507.44 373.99,507.44 371.24,507.44 368.48,507.44 365.73,507.44 362.97,507.44 360.22,507.44 357.46,507.44 354.71,507.44 351.95,507.44 349.20,507.44 346.44,507.44 343.69,507.44 340.93,507.44 338.18,507.44 335.42,507.44 332.67,507.43 329.91,507.43 327.16,507.42 324.40,507.41 321.65,507.40 318.89,507.38 316.14,507.35 313.38,507.30 310.63,507.24 307.87,507.14 305.12,506.99 302.36,506.78 299.61,506.46 296.85,505.99 294.10,505.30 291.34,504.29 288.59,502.79 285.83,500.61 283.08,497.41 280.33,492.78 277.57,486.10 274.82,476.59 272.06,463.28 269.31,445.10 266.55,420.97 263.80,390.06 261.04,352.70 258.29,310.39 255.53,265.62 252.78,221.69 250.02,183.59 247.27,158.30 244.51,142.63 241.76,130.08 239.00,118.84 236.25,108.88 233.49,100.09 230.74,92.39 227.98,85.69 225.23,79.88 222.47,74.87 219.72,70.56 216.96,66.87 214.21,63.71 211.45,61.03 208.70,58.74 205.94,56.80 203.19,55.16 200.43,53.76 197.68,52.58 194.92,51.59 192.17,50.75 189.41,50.04 186.66,49.44 183.90,48.93 181.15,48.51 178.39,48.15 175.64,47.84 172.89,47.59 170.13,47.38 167.38,47.20 164.62,47.04 161.87,46.92 159.11,46.81 156.36,46.72 153.60,46.64 150.85,46.58 148.09,46.52 145.34,46.48 142.58,46.44 139.83,46.41 137.07,46.38 134.32,46.36 131.56,46.34 128.81,46.32 126.05,46.31 123.30,46.30 120.54,46.29 117.79,46.28 115.03,46.27 112.28,46.27 109.52,46.26 106.77,46.26 104.01,46.26 101.26,46.25 98.50,46.25 95.75,46.25 92.99,46.25 90.24,46.25 87.48,46.24 84.73,46.24 81.97,46.24 79.22,46.24 76.46,46.24 73.71,46.24 70.95,46.24 68.20,46.24 65.44,46.24" style="stroke-width: 1.07;stroke: none;stroke-linecap: butt;"/>
<polygon points="65.44,46.24 68.20,46.24 70.95,46.24 73.71,46.24 76.46,46.24 79.22,46.24 81.97,46.24 84.73,46.24 87.48,46.24 90.24,46.24 92.99,46.24 95.75,46.24 98.50,46.24 101.26,46.24 104.01,46.24 106.77,46.24 109.52,46.24 112.28,46.24 115.03,46.24 117.79,46.24 120.54,46.24 123.30,46.24 126.05,46.24 128.81,46.24 131.56,46.24 134.32,46.24 137.07,46.24 139.83,46.24 142.58,46.24 145.34,46.24 148.09,46.24 150.85,46.24 153.60,46.24 156.36,46.24 159.11,46.24 161.87,46.24 164.62,46.24 167.38,46.24 170.13,46.24 172.89,46.24 175.64,46.24 178.39,46.24 181.15,46.24 183.90,46.25 186.66,46.25 189.41,46.26 192.17,46.27 194.92,46.30 197.68,46.33 200.43,46.38 203.19,46.46 205.94,46.60 208.70,46.80 211.45,47.13 214.21,47.65 216.96,48.47 219.72,49.75 222.47,51.77 225.23,54.92 227.98,59.82 230.74,67.34 233.49,78.73 236.25,95.58 239.00,119.66 241.76,152.47 244.51,194.42 247.27,243.68 250.02,279.23 252.78,296.36 255.53,313.22 258.29,329.70 261.04,345.62 263.80,360.85 266.55,375.28 269.31,388.84 272.06,401.45 274.82,413.10 277.57,423.76 280.33,433.47 283.08,442.24 285.83,450.12 288.59,457.18 291.34,463.46 294.10,469.03 296.85,473.95 299.61,478.28 302.36,482.09 305.12,485.42 307.87,488.34 310.63,490.88 313.38,493.10 316.14,495.02 318.89,496.70 321.65,498.15 324.40,499.41 327.16,500.51 329.91,501.45 332.67,502.27 335.42,502.98 338.18,503.59 340.93,504.12 343.69,504.57 346.44,504.97 349.20,505.31 351.95,505.60 354.71,505.86 357.46,506.07 360.22,506.26 362.97,506.43 365.73,506.57 368.48,506.69 371.24,506.79 373.99,506.88 376.75,506.96 379.50,507.03 382.26,507.08 385.01,507.13 387.77,507.18 390.52,507.21 393.28,507.24 396.03,507.27 398.78,507.30 401.54,507.32 404.29,507.33 407.05,507.35 409.80,507.36 412.56,507.37 415.31,507.38 418.07,507.39 420.82,507.40 423.58,507.40 426.33,507.41 429.09,507.41 431.84,507.42 434.60,507.42 437.35,507.42 440.11,507.43 442.86,507.43 445.62,507.43 448.37,507.43 451.13,507.43 453.88,507.44 456.64,507.44 459.39,507.44 462.15,507.44 464.90,507.44 467.66,507.44 470.41,507.44 473.17,507.44 475.92,507.44 478.68,507.44 481.43,507.44 484.19,507.44 486.94,507.44 489.70,507.44 492.45,507.44 495.21,507.44 497.96,507.44 500.72,507.44 503.47,507.44 506.22,507.44 508.98,507.44 511.73,507.44 514.49,507.44 517.24,507.44 520.00,507.44 522.75,507.44 525.51,507.44 528.26,507.44 531.02,507.44 533.77,507.44 536.53,507.44 539.28,507.44 542.04,507.44 544.79,507.44 547.55,507.44 550.30,507.44 553.06,507.44 555.81,507.44 558.57,507.44 561.32,507.44 564.08,507.44 566.83,507.44 569.59,507.44 572.34,507.44 575.10,507.44 577.85,507.44 580.61,507.44 583.36,507.44 586.12,507.44 588.87,507.44 591.63,507.44 594.38,507.44 597.14,507.44 599.89,507.44 602.65,507.44 605.40,507.44 608.16,507.44 610.91,507.44 613.67,507.44 613.67,507.44 610.91,507.44 608.16,507.44 605.40,507.44 602.65,507.44 599.89,507.44 597.14,507.44 594.38,507.44 591.63,507.44 588.87,507.44 586.12,507.44 583.36,507.44 580.61,507.44 577.85,507.44 575.10,507.44 572.34,507.44 569.59,507.44 566.83,507.44 564.08,507.44 561.32,507.44 558.57,507.44 555.81,507.44 553.06,507.44 550.30,507.44 547.55,507.44 544.79,507.44 542.04,507.44 539.28,507.44 536.53,507.44 533.77,507.44 531.02,507.44 528.26,507.44 525.51,507.44 522.75,507.44 520.00,507.44 517.24,507.44 514.49,507.44 511.73,507.44 508.98,507.44 506.22,507.44 503.47,507.44 500.72,507.44 497.96,507.44 495.21,507.44 492.45,507.44 489.70,507.44 486.94,507.44 484.19,507.44 481.43,507.44 478.68,507.44 475.92,507.44 473.17,507.44 470.41,507.44 467.66,507.44 464.90,507.44 462.15,507.44 459.39,507.44 456.64,507.44 453.88,507.44 451.13,507.44 448.37,507.44 445.62,507.44 442.86,507.44 440.11,507.44 437.35,507.44 434.60,507.44 431.84,507.44 429.09,507.44 426.33,507.44 423.58,507.44 420.82,507.44 418.07,507.44 415.31,507.44 412.56,507.44 409.80,507.44 407.05,507.44 404.29,507.44 401.54,507.44 398.78,507.44 396.03,507.44 393.28,507.44 390.52,507.44 387.77,507.44 385.01,507.44 382.26,507.44 379.50,507.44 376.75,507.44 373.99,507.44 371.24,507.44 368.48,507.44 365.73,507.44 362.97,507.44 360.22,507.44 357.46,507.44 354.71,507.44 351.95,507.44 349.20,507.44 346.44,507.44 343.69,507.44 340.93,507.44 338.18,507.44 335.42,507.44 332.67,507.44 329.91,507.44 327.16,507.44 324.40,507.44 321.65,507.44 318.89,507.44 316.14,507.44 313.38,507.43 310.63,507.43 307.87,507.42 305.12,507.40 302.36,507.38 299.61,507.34 296.85,507.28 294.10,507.19 291.34,507.04 288.59,506.80 285.83,506.43 283.08,505.84 280.33,504.92 277.57,503.47 274.82,501.19 272.06,497.64 269.31,492.13 266.55,483.70 263.80,471.00 261.04,452.37 258.29,426.07 255.53,390.86 252.78,346.85 250.02,296.30 247.27,262.19 244.51,245.24 241.76,228.61 239.00,212.49 236.25,197.03 233.49,182.34 230.74,168.51 227.98,155.62 225.23,143.70 222.47,132.76 219.72,122.79 216.96,113.77 214.21,105.64 211.45,98.37 208.70,91.88 205.94,86.12 203.19,81.03 200.43,76.54 197.68,72.59 194.92,69.14 192.17,66.11 189.41,63.47 186.66,61.17 183.90,59.16 181.15,57.42 178.39,55.91 175.64,54.60 172.89,53.46 170.13,52.48 167.38,51.62 164.62,50.89 161.87,50.25 159.11,49.70 156.36,49.23 153.60,48.82 150.85,48.46 148.09,48.16 145.34,47.89 142.58,47.66 139.83,47.47 137.07,47.30 134.32,47.15 131.56,47.03 128.81,46.92 126.05,46.82 123.30,46.74 120.54,46.67 117.79,46.61 115.03,46.56 112.28,46.52 109.52,46.48 106.77,46.44 104.01,46.42 101.26,46.39 98.50,46.37 95.75,46.35 92.99,46.34 90.24,46.32 87.48,46.31 84.73,46.30 81.97,46.29 79.22,46.28 76.46,46.28 73.71,46.27 70.95,46.27 68.20,46.26 65.44,46.26" style="stroke-width: 0.00;stroke: none;stroke-linecap: butt;fill: #C77CFF;fill-opacity: 0.15;" />
<polyline points="65.44,46.24 68.20,46.24 70.95,46.24 73.71,46.24 76.46,46.24 79.22,46.24 81.97,46.24 84.73,46.24 87.48,46.24 90.24,46.24 92.99,46.24 95.75,46.24 98.50,46.24 101.26,46.24 104.01,46.24 106.77,46.24 109.52,46.24 112.28,46.24 115.03,46.24 117.79,46.24 120.54,46.24 123.30,46.24 126.05,46.24 128.81,46.24 131.56,46.24 134.32,46.24 137.07,46.24 139.83,46.24 142.58,46.24 145.34,46.24 148.09,46.24 150.85,46.24 153.60,46.24 156.36,46.24 159.11,46.24 161.87,46.24 164.62,46.24 167.38,46.24 170.13,46.24 172.89,46.24 175.64,46.24 178.39,46.24 181.15,46.24 183.90,46.25 186.66,46.25 189.41,46.26 192.17,46.27 194.92,46.30 197.68,46.33 200.43,46.38 203.19,46.46 205.94,46.60 208.70,46.80 211.45,47.13 214.21,47.65 216.96,48.47 219.72,49.75 222.47,51.77 225.23,54.92 227.98,59.82 230.74,67.34 233.49,78.73 236.25,95.58 239.00,119.66 241.76,152.47 244.51,194.42 247.27,243.68 250.02,279.23 252.78,296.36 255.53,313.22 258.29,329.70 261.04,345.62 263.80,360.85 266.55,375.28 269.31,388.84 272.06,401.45 274.82,413.10 277.57,423.76 280.33,433.47 283.08,442.24 285.83,450.12 288.59,457.18 291.34,463.46 294.10,469.03 296.85,473.95 299.61,478.28 302.36,482.09 305.12,485.42 307.87,488.34 310.63,490.88 313.38,493.10 316.14,495.02 318.89,496.70 321.65,498.15 324.40,499.41 327.16,500.51 329.91,501.45 332.67,502.27 335.42,502.98 338.18,503.59 340.93,504.12 343.69,504.57 346.44,504.97 349.20,505.31 351.95,505.60 354.71,505.86 357.46,506.07 360.22,506.26 362.97,506.43 365.73,506.57 368.48,506.69 371.24,506.79 373.99,506.88 376.75,506.96 379.50,507.03 382.26,507.08 385.01,507.13 387.77,507.18 390.52,507.21 393.28,507.24 396.03,507.27 398.78,507.30 401.54,507.32 404.29,507.33 407.05,507.35 409.80,507.36 412.56,507.37 415.31,507.38 418.07,507.39 420.82,507.40 423.58,507.40 426.33,507.41 429.09,507.41 431.84,507.42 434.60,507.42 437.35,507.42 440.11,507.43 442.86,507.43 445.62,507.43 448.37,507.43 451.13,507.43 453.88,507.44 456.64,507.44 459.39,507.44 462.15,507.44 464.90,507.44 467.66,507.44 470.41,507.44 473.17,507.44 475.92,507.44 478.68,507.44 481.43,507.44 484.19,507.44 486.94,507.44 489.70,507.44 492.45,507.44 495.21,507.44 497.96,507.44 500.72,507.44 503.47,507.44 506.22,507.44 508.98,507.44 511.73,507.44 514.49,507.44 517.24,507.44 520.00,507.44 522.75,507.44 525.51,507.44 528.26,507.44 531.02,507.44 533.77,507.44 536.53,507.44 539.28,507.44 542.04,507.44 544.79,507.44 547.55,507.44 550.30,507.44 553.06,507.44 555.81,507.44 558.57,507.44 561.32,507.44 564.08,507.44 566.83,507.44 569.59,507.44 572.34,507.44 575.10,507.44 577.85,507.44 580.61,507.44 583.36,507.44 586.12,507.44 588.87,507.44 591.63,507.44 594.38,507.44 597.14,507.44 599.89,507.44 602.65,507.44 605.40,507.44 608.16,507.44 610.91,507.44 613.67,507.44" style="stroke-width: 1.07;stroke: none;stroke-linecap: butt;"/>
<polyline points="613.67,507.44 610.91,507.44 608.16,507.44 605.40,507.44 602.65,507.44 599.89,507.44 597.14,507.44 594.38,507.44 591.63,507.44 588.87,507.44 586.12,507.44 583.36,507.44 580.61,507.44 577.85,507.44 575.10,507.44 572.34,507.44 569.59,507.44 566.83,507.44 564.08,507.44 561.32,507.44 558.57,507.44 555.81,507.44 553.06,507.44 550.30,507.44 547.55,507.44 544.79,507.44 542.04,507.44 539.28,507.44 536.53,507.44 533.77,507.44 531.02,507.44 528.26,507.44 525.51,507.44 522.75,507.44 520.00,507.44 517.24,507.44 514.49,507.44 511.73,507.44 508.98,507.44 506.22,507.44 503.47,507.44 500.72,507.44 497.96,507.44 495.21,507.44 492.45,507.44 489.70,507.44 486.94,507.44 484.19,507.44 481.43,507.44 478.68,507.44 475.92,507.44 473.17,507.44 470.41,507.44 467.66,507.44 464.90,507.44 462.15,507.44 459.39,507.44 456.64,507.44 453.88,507.44 451.13,507.44 448.37,507.44 445.62,507.44 442.86,507.44 440.11,507.44 437.35,507.44 434.60,507.44 431.84,507.44 429.09,507.44 426.33,507.44 423.58,507.44 420.82,507.44 418.07,507.44 415.31,507.44 412.56,507.44 409.80,507.44 407.05,507.44 404.29,507.44 401.54,507.44 398.78,507.44 396.03,507.44 393.28,507.44 390.52,507.44 387.77,507.44 385.01,507.44 382.26,507.44 379.50,507.44 376.75,507.44 373.99,507.44 371.24,507.44 368.48,507.44 365.73,507.44 362.97,507.44 360.22,507.44 357.46,507.44 354.71,507.44 351.95,507.44 349.20,507.44 346.44,507.44 343.69,507.44 340.93,507.44 338.18,507.44 335.42,507.44 332.67,507.44 329.91,507.44 327.16,507.44 324.40,507.44 321.65,507.44 318.89,507.44 316.14,507.44 313.38,507.43 310.63,507.43 307.87,507.42 305.12,507.40 302.36,507.38 299.61,507.34 296.85,507.28 294.10,507.19 291.34,507.04 288.59,506.80 285.83,506.43 283.08,505.84 280.33,504.92 277.57,503.47 274.82,501.19 272.06,497.64 269.31,492.13 266.55,483.70 263.80,471.00 261.04,452.37 258.29,426.07 255.53,390.86 252.78,346.85 250.02,296.30 247.27,262.19 244.51,245.24 241.76,228.61 239.00,212.49 236.25,197.03 233.49,182.34 230.74,168.51 227.98,155.62 225.23,143.70 222.47,132.76 219.72,122.79 216.96,113.77 214.21,105.64 211.45,98.37 208.70,91.88 205.94,86.12 203.19,81.03 200.43,76.54 197.68,72.59 194.92,69.14 192.17,66.11 189.41,63.47 186.66,61.17 183.90,59.16 181.15,57.42 178.39,55.91 175.64,54.60 172.89,53.46 170.13,52.48 167.38,51.62 164.62,50.89 161.87,50.25 159.11,49.70 156.36,49.23 153.60,48.82 150.85,48.46 148.09,48.16 145.34,47.89 142.58,47.66 139.83,47.47 137.07,47.30 134.32,47.15 131.56,47.03 128.81,46.92 126.05,46.82 123.30,46.74 120.54,46.67 117.79,46.61 115.03,46.56 112.28,46.52 109.52,46.48 106.77,46.44 104.01,46.42 101.26,46.39 98.50,46.37 95.75,46.35 92.99,46.34 90.24,46.32 87.48,46.31 84.73,46.30 81.97,46.29 79.22,46.28 76.46,46.28 73.71,46.27 70.95,46.27 68.20,46.26 65.44,46.26" style="stroke-width: 1.07;stroke: none;stroke-linecap: butt;"/>
<circle cx="65.44" cy="46.24" r="2.06" style="stroke-width: 0.71;stroke: #F8766D;stroke-opacity: 0.70;fill: #F8766D;fill-opacity: 0.70;"/>
<circle cx="65.44" cy="46.24" r="2.06" style="stroke-width: 0.71;stroke: #F8766D;stroke-opacity: 0.70;fill: #F8766D;fill-opacity: 0.70;"/>
<circle cx="65.44" cy="46.24" r="2.06" style="stroke-width: 0.71;stroke: #F8766D;stroke-opacity: 0.70;fill: #F8766D;fill-opacity: 0.70;"/>
<circle cx="157.08" cy="46.24" r="2.06" style="stroke-width: 0.71;stroke: #F8766D;stroke-opacity: 0.70;fill: #F8766D;fill-opacity: 0.70;"/>
<circle cx="157.08" cy="46.24" r="2.06" style="stroke-width: 0.71;stroke: #F8766D;stroke-opacity: 0.70;fill: #F8766D;fill-opacity: 0.70;"/>
<circle cx="157.08" cy="49.41" r="2.06" style="stroke-width: 0.71;stroke: #F8766D;stroke-opacity: 0.70;fill: #F8766D;fill-opacity: 0.70;"/>
<circle cx="248.71" cy="61.21" r="2.06" style="stroke-width: 0.71;stroke: #F8766D;stroke-opacity: 0.70;fill: #F8766D;fill-opacity: 0.70;"/>
<circle cx="248.71" cy="130.07" r="2.06" style="stroke-width: 0.71;stroke: #F8766D;stroke-opacity: 0.70;fill: #F8766D;fill-opacity: 0.70;"/>
<circle cx="248.71" cy="179.56" r="2.06" style="stroke-width: 0.71;stroke: #F8766D;stroke-opacity: 0.70;fill: #F8766D;fill-opacity: 0.70;"/>
<circle cx="338.77" cy="507.44" r="2.06" style="stroke-width: 0.71;stroke: #F8766D;stroke-opacity: 0.70;fill: #F8766D;fill-opacity: 0.70;"/>
<circle cx="338.77" cy="507.44" r="2.06" style="stroke-width: 0.71;stroke: #F8766D;stroke-opacity: 0.70;fill: #F8766D;fill-opacity: 0.70;"/>
<circle cx="338.77" cy="507.44" r="2.06" style="stroke-width: 0.71;stroke: #F8766D;stroke-opacity: 0.70;fill: #F8766D;fill-opacity: 0.70;"/>
<circle cx="430.40" cy="507.44" r="2.06" style="stroke-width: 0.71;stroke: #F8766D;stroke-opacity: 0.70;fill: #F8766D;fill-opacity: 0.70;"/>
<circle cx="430.40" cy="507.44" r="2.06" style="stroke-width: 0.71;stroke: #F8766D;stroke-opacity: 0.70;fill: #F8766D;fill-opacity: 0.70;"/>
<circle cx="430.40" cy="507.44" r="2.06" style="stroke-width: 0.71;stroke: #F8766D;stroke-opacity: 0.70;fill: #F8766D;fill-opacity: 0.70;"/>
<circle cx="522.03" cy="507.44" r="2.06" style="stroke-width: 0.71;stroke: #F8766D;stroke-opacity: 0.70;fill: #F8766D;fill-opacity: 0.70;"/>
<circle cx="522.03" cy="507.44" r="2.06" style="stroke-width: 0.71;stroke: #F8766D;stroke-opacity: 0.70;fill: #F8766D;fill-opacity: 0.70;"/>
<circle cx="522.03" cy="507.44" r="2.06" style="stroke-width: 0.71;stroke: #F8766D;stroke-opacity: 0.70;fill: #F8766D;fill-opacity: 0.70;"/>
<circle cx="613.67" cy="505.82" r="2.06" style="stroke-width: 0.71;stroke: #F8766D;stroke-opacity: 0.70;fill: #F8766D;fill-opacity: 0.70;"/>
<circle cx="613.67" cy="507.44" r="2.06" style="stroke-width: 0.71;stroke: #F8766D;stroke-opacity: 0.70;fill: #F8766D;fill-opacity: 0.70;"/>
<circle cx="613.67" cy="507.44" r="2.06" style="stroke-width: 0.71;stroke: #F8766D;stroke-opacity: 0.70;fill: #F8766D;fill-opacity: 0.70;"/>
<circle cx="65.44" cy="46.24" r="2.06" style="stroke-width: 0.71;stroke: #C77CFF;stroke-opacity: 0.70;fill: #C77CFF;fill-opacity: 0.70;"/>
<circle cx="65.44" cy="46.24" r="2.06" style="stroke-width: 0.71;stroke: #C77CFF;stroke-opacity: 0.70;fill: #C77CFF;fill-opacity: 0.70;"/>
<circle cx="65.44" cy="46.24" r="2.06" style="stroke-width: 0.71;stroke: #C77CFF;stroke-opacity: 0.70;fill: #C77CFF;fill-opacity: 0.70;"/>
<circle cx="157.08" cy="46.24" r="2.06" style="stroke-width: 0.71;stroke: #C77CFF;stroke-opacity: 0.70;fill: #C77CFF;fill-opacity: 0.70;"/>
<circle cx="157.08" cy="46.24" r="2.06" style="stroke-width: 0.71;stroke: #C77CFF;stroke-opacity: 0.70;fill: #C77CFF;fill-opacity: 0.70;"/>
<circle cx="157.08" cy="46.24" r="2.06" style="stroke-width: 0.71;stroke: #C77CFF;stroke-opacity: 0.70;fill: #C77CFF;fill-opacity: 0.70;"/>
<circle cx="248.71" cy="268.91" r="2.06" style="stroke-width: 0.71;stroke: #C77CFF;stroke-opacity: 0.70;fill: #C77CFF;fill-opacity: 0.70;"/>
<circle cx="248.71" cy="273.77" r="2.06" style="stroke-width: 0.71;stroke: #C77CFF;stroke-opacity: 0.70;fill: #C77CFF;fill-opacity: 0.70;"/>
<circle cx="248.71" cy="264.58" r="2.06" style="stroke-width: 0.71;stroke: #C77CFF;stroke-opacity: 0.70;fill: #C77CFF;fill-opacity: 0.70;"/>
<circle cx="338.77" cy="507.44" r="2.06" style="stroke-width: 0.71;stroke: #C77CFF;stroke-opacity: 0.70;fill: #C77CFF;fill-opacity: 0.70;"/>
<circle cx="338.77" cy="507.44" r="2.06" style="stroke-width: 0.71;stroke: #C77CFF;stroke-opacity: 0.70;fill: #C77CFF;fill-opacity: 0.70;"/>
<circle cx="338.77" cy="507.44" r="2.06" style="stroke-width: 0.71;stroke: #C77CFF;stroke-opacity: 0.70;fill: #C77CFF;fill-opacity: 0.70;"/>
<circle cx="430.40" cy="507.44" r="2.06" style="stroke-width: 0.71;stroke: #C77CFF;stroke-opacity: 0.70;fill: #C77CFF;fill-opacity: 0.70;"/>
<circle cx="430.40" cy="507.44" r="2.06" style="stroke-width: 0.71;stroke: #C77CFF;stroke-opacity: 0.70;fill: #C77CFF;fill-opacity: 0.70;"/>
<circle cx="430.40" cy="507.44" r="2.06" style="stroke-width: 0.71;stroke: #C77CFF;stroke-opacity: 0.70;fill: #C77CFF;fill-opacity: 0.70;"/>
<circle cx="522.03" cy="507.44" r="2.06" style="stroke-width: 0.71;stroke: #C77CFF;stroke-opacity: 0.70;fill: #C77CFF;fill-opacity: 0.70;"/>
<circle cx="522.03" cy="507.44" r="2.06" style="stroke-width: 0.71;stroke: #C77CFF;stroke-opacity: 0.70;fill: #C77CFF;fill-opacity: 0.70;"/>
<circle cx="522.03" cy="507.44" r="2.06" style="stroke-width: 0.71;stroke: #C77CFF;stroke-opacity: 0.70;fill: #C77CFF;fill-opacity: 0.70;"/>
<circle cx="613.67" cy="507.44" r="2.06" style="stroke-width: 0.71;stroke: #C77CFF;stroke-opacity: 0.70;fill: #C77CFF;fill-opacity: 0.70;"/>
<circle cx="613.67" cy="506.62" r="2.06" style="stroke-width: 0.71;stroke: #C77CFF;stroke-opacity: 0.70;fill: #C77CFF;fill-opacity: 0.70;"/>
<circle cx="613.67" cy="507.44" r="2.06" style="stroke-width: 0.71;stroke: #C77CFF;stroke-opacity: 0.70;fill: #C77CFF;fill-opacity: 0.70;"/>
<circle cx="65.44" cy="46.24" r="2.06" style="stroke-width: 0.71;stroke: #00BFC4;stroke-opacity: 0.70;fill: #00BFC4;fill-opacity: 0.70;"/>
<circle cx="65.44" cy="46.24" r="2.06" style="stroke-width: 0.71;stroke: #00BFC4;stroke-opacity: 0.70;fill: #00BFC4;fill-opacity: 0.70;"/>
<circle cx="65.44" cy="46.24" r="2.06" style="stroke-width: 0.71;stroke: #00BFC4;stroke-opacity: 0.70;fill: #00BFC4;fill-opacity: 0.70;"/>
<circle cx="157.08" cy="46.24" r="2.06" style="stroke-width: 0.71;stroke: #00BFC4;stroke-opacity: 0.70;fill: #00BFC4;fill-opacity: 0.70;"/>
<circle cx="157.08" cy="46.24" r="2.06" style="stroke-width: 0.71;stroke: #00BFC4;stroke-opacity: 0.70;fill: #00BFC4;fill-opacity: 0.70;"/>
<circle cx="157.08" cy="46.24" r="2.06" style="stroke-width: 0.71;stroke: #00BFC4;stroke-opacity: 0.70;fill: #00BFC4;fill-opacity: 0.70;"/>
<circle cx="248.71" cy="149.60" r="2.06" style="stroke-width: 0.71;stroke: #00BFC4;stroke-opacity: 0.70;fill: #00BFC4;fill-opacity: 0.70;"/>
<circle cx="248.71" cy="162.03" r="2.06" style="stroke-width: 0.71;stroke: #00BFC4;stroke-opacity: 0.70;fill: #00BFC4;fill-opacity: 0.70;"/>
<circle cx="248.71" cy="130.64" r="2.06" style="stroke-width: 0.71;stroke: #00BFC4;stroke-opacity: 0.70;fill: #00BFC4;fill-opacity: 0.70;"/>
<circle cx="338.77" cy="507.44" r="2.06" style="stroke-width: 0.71;stroke: #00BFC4;stroke-opacity: 0.70;fill: #00BFC4;fill-opacity: 0.70;"/>
<circle cx="338.77" cy="507.44" r="2.06" style="stroke-width: 0.71;stroke: #00BFC4;stroke-opacity: 0.70;fill: #00BFC4;fill-opacity: 0.70;"/>
<circle cx="338.77" cy="507.44" r="2.06" style="stroke-width: 0.71;stroke: #00BFC4;stroke-opacity: 0.70;fill: #00BFC4;fill-opacity: 0.70;"/>
<circle cx="430.40" cy="507.44" r="2.06" style="stroke-width: 0.71;stroke: #00BFC4;stroke-opacity: 0.70;fill: #00BFC4;fill-opacity: 0.70;"/>
<circle cx="430.40" cy="507.44" r="2.06" style="stroke-width: 0.71;stroke: #00BFC4;stroke-opacity: 0.70;fill: #00BFC4;fill-opacity: 0.70;"/>
<circle cx="430.40" cy="507.44" r="2.06" style="stroke-width: 0.71;stroke: #00BFC4;stroke-opacity: 0.70;fill: #00BFC4;fill-opacity: 0.70;"/>
<circle cx="522.03" cy="507.44" r="2.06" style="stroke-width: 0.71;stroke: #00BFC4;stroke-opacity: 0.70;fill: #00BFC4;fill-opacity: 0.70;"/>
<circle cx="522.03" cy="507.44" r="2.06" style="stroke-width: 0.71;stroke: #00BFC4;stroke-opacity: 0.70;fill: #00BFC4;fill-opacity: 0.70;"/>
<circle cx="522.03" cy="507.44" r="2.06" style="stroke-width: 0.71;stroke: #00BFC4;stroke-opacity: 0.70;fill: #00BFC4;fill-opacity: 0.70;"/>
<circle cx="613.67" cy="507.44" r="2.06" style="stroke-width: 0.71;stroke: #00BFC4;stroke-opacity: 0.70;fill: #00BFC4;fill-opacity: 0.70;"/>
<circle cx="613.67" cy="507.44" r="2.06" style="stroke-width: 0.71;stroke: #00BFC4;stroke-opacity: 0.70;fill: #00BFC4;fill-opacity: 0.70;"/>
<circle cx="613.67" cy="504.49" r="2.06" style="stroke-width: 0.71;stroke: #00BFC4;stroke-opacity: 0.70;fill: #00BFC4;fill-opacity: 0.70;"/>
<circle cx="65.44" cy="127.80" r="2.06" style="stroke-width: 0.71;stroke: #7CAE00;stroke-opacity: 0.70;fill: #7CAE00;fill-opacity: 0.70;"/>
<circle cx="65.44" cy="112.63" r="2.06" style="stroke-width: 0.71;stroke: #7CAE00;stroke-opacity: 0.70;fill: #7CAE00;fill-opacity: 0.70;"/>
<circle cx="65.44" cy="118.29" r="2.06" style="stroke-width: 0.71;stroke: #7CAE00;stroke-opacity: 0.70;fill: #7CAE00;fill-opacity: 0.70;"/>
<circle cx="157.08" cy="74.64" r="2.06" style="stroke-width: 0.71;stroke: #7CAE00;stroke-opacity: 0.70;fill: #7CAE00;fill-opacity: 0.70;"/>
<circle cx="157.08" cy="85.48" r="2.06" style="stroke-width: 0.71;stroke: #7CAE00;stroke-opacity: 0.70;fill: #7CAE00;fill-opacity: 0.70;"/>
<circle cx="157.08" cy="47.81" r="2.06" style="stroke-width: 0.71;stroke: #7CAE00;stroke-opacity: 0.70;fill: #7CAE00;fill-opacity: 0.70;"/>
<circle cx="248.71" cy="204.96" r="2.06" style="stroke-width: 0.71;stroke: #7CAE00;stroke-opacity: 0.70;fill: #7CAE00;fill-opacity: 0.70;"/>
<circle cx="248.71" cy="218.53" r="2.06" style="stroke-width: 0.71;stroke: #7CAE00;stroke-opacity: 0.70;fill: #7CAE00;fill-opacity: 0.70;"/>
<circle cx="248.71" cy="253.78" r="2.06" style="stroke-width: 0.71;stroke: #7CAE00;stroke-opacity: 0.70;fill: #7CAE00;fill-opacity: 0.70;"/>
<circle cx="338.77" cy="507.44" r="2.06" style="stroke-width: 0.71;stroke: #7CAE00;stroke-opacity: 0.70;fill: #7CAE00;fill-opacity: 0.70;"/>
<circle cx="338.77" cy="507.44" r="2.06" style="stroke-width: 0.71;stroke: #7CAE00;stroke-opacity: 0.70;fill: #7CAE00;fill-opacity: 0.70;"/>
<circle cx="338.77" cy="507.44" r="2.06" style="stroke-width: 0.71;stroke: #7CAE00;stroke-opacity: 0.70;fill: #7CAE00;fill-opacity: 0.70;"/>
<circle cx="430.40" cy="507.44" r="2.06" style="stroke-width: 0.71;stroke: #7CAE00;stroke-opacity: 0.70;fill: #7CAE00;fill-opacity: 0.70;"/>
<circle cx="430.40" cy="507.44" r="2.06" style="stroke-width: 0.71;stroke: #7CAE00;stroke-opacity: 0.70;fill: #7CAE00;fill-opacity: 0.70;"/>
<circle cx="430.40" cy="507.44" r="2.06" style="stroke-width: 0.71;stroke: #7CAE00;stroke-opacity: 0.70;fill: #7CAE00;fill-opacity: 0.70;"/>
<circle cx="522.03" cy="507.44" r="2.06" style="stroke-width: 0.71;stroke: #7CAE00;stroke-opacity: 0.70;fill: #7CAE00;fill-opacity: 0.70;"/>
<circle cx="522.03" cy="507.44" r="2.06" style="stroke-width: 0.71;stroke: #7CAE00;stroke-opacity: 0.70;fill: #7CAE00;fill-opacity: 0.70;"/>
<circle cx="522.03" cy="507.44" r="2.06" style="stroke-width: 0.71;stroke: #7CAE00;stroke-opacity: 0.70;fill: #7CAE00;fill-opacity: 0.70;"/>
<circle cx="613.67" cy="507.40" r="2.06" style="stroke-width: 0.71;stroke: #7CAE00;stroke-opacity: 0.70;fill: #7CAE00;fill-opacity: 0.70;"/>
<circle cx="613.67" cy="507.44" r="2.06" style="stroke-width: 0.71;stroke: #7CAE00;stroke-opacity: 0.70;fill: #7CAE00;fill-opacity: 0.70;"/>
<circle cx="613.67" cy="507.44" r="2.06" style="stroke-width: 0.71;stroke: #7CAE00;stroke-opacity: 0.70;fill: #7CAE00;fill-opacity: 0.70;"/>
<polyline points="65.44,46.24 68.20,46.24 70.95,46.24 73.71,46.24 76.46,46.24 79.22,46.24 81.97,46.24 84.73,46.24 87.48,46.24 90.24,46.24 92.99,46.24 95.75,46.24 98.50,46.24 101.26,46.24 104.01,46.24 106.77,46.24 109.52,46.24 112.28,46.24 115.03,46.24 117.79,46.24 120.54,46.24 123.30,46.24 126.05,46.25 128.81,46.25 131.56,46.25 134.32,46.25 137.07,46.25 139.83,46.25 142.58,46.26 145.34,46.26 148.09,46.27 150.85,46.27 153.60,46.28 156.36,46.28 159.11,46.29 161.87,46.31 164.62,46.32 167.38,46.34 170.13,46.36 172.89,46.38 175.64,46.41 178.39,46.45 181.15,46.50 183.90,46.56 186.66,46.63 189.41,46.72 192.17,46.84 194.92,46.98 197.68,47.16 200.43,47.39 203.19,47.68 205.94,48.06 208.70,48.53 211.45,49.13 214.21,49.91 216.96,50.90 219.72,52.19 222.47,53.85 225.23,55.99 227.98,58.77 230.74,62.36 233.49,67.01 236.25,73.03 239.00,80.76 241.76,90.66 244.51,103.17 247.27,118.79 250.02,137.90 252.78,160.67 255.53,186.96 258.29,216.20 261.04,247.42 263.80,279.40 266.55,310.82 269.31,340.53 272.06,367.68 274.82,391.76 277.57,412.60 280.33,430.28 283.08,445.02 285.83,457.17 288.59,467.07 291.34,475.09 294.10,481.54 296.85,486.71 299.61,490.85 302.36,494.15 305.12,496.79 307.87,498.89 310.63,500.57 313.38,501.91 316.14,502.98 318.89,503.84 321.65,504.52 324.40,505.07 327.16,505.52 329.91,505.87 332.67,506.16 335.42,506.39 338.18,506.58 340.93,506.74 343.69,506.86 346.44,506.96 349.20,507.05 351.95,507.11 354.71,507.17 357.46,507.22 360.22,507.25 362.97,507.28 365.73,507.31 368.48,507.33 371.24,507.35 373.99,507.36 376.75,507.38 379.50,507.39 382.26,507.40 385.01,507.40 387.77,507.41 390.52,507.41 393.28,507.42 396.03,507.42 398.78,507.43 401.54,507.43 404.29,507.43 407.05,507.43 409.80,507.43 412.56,507.43 415.31,507.44 418.07,507.44 420.82,507.44 423.58,507.44 426.33,507.44 429.09,507.44 431.84,507.44 434.60,507.44 437.35,507.44 440.11,507.44 442.86,507.44 445.62,507.44 448.37,507.44 451.13,507.44 453.88,507.44 456.64,507.44 459.39,507.44 462.15,507.44 464.90,507.44 467.66,507.44 470.41,507.44 473.17,507.44 475.92,507.44 478.68,507.44 481.43,507.44 484.19,507.44 486.94,507.44 489.70,507.44 492.45,507.44 495.21,507.44 497.96,507.44 500.72,507.44 503.47,507.44 506.22,507.44 508.98,507.44 511.73,507.44 514.49,507.44 517.24,507.44 520.00,507.44 522.75,507.44 525.51,507.44 528.26,507.44 531.02,507.44 533.77,507.44 536.53,507.44 539.28,507.44 542.04,507.44 544.79,507.44 547.55,507.44 550.30,507.44 553.06,507.44 555.81,507.44 558.57,507.44 561.32,507.44 564.08,507.44 566.83,507.44 569.59,507.44 572.34,507.44 575.10,507.44 577.85,507.44 580.61,507.44 583.36,507.44 586.12,507.44 588.87,507.44 591.63,507.44 594.38,507.44 597.14,507.44 599.89,507.44 602.65,507.44 605.40,507.44 608.16,507.44 610.91,507.44 613.67,507.44" style="stroke-width: 1.71;stroke: #F8766D;stroke-linecap: butt;"/>
<polyline points="65.44,97.36 68.20,97.42 70.95,97.47 73.71,97.53 76.46,97.59 79.22,97.65 81.97,97.71 84.73,97.77 87.48,97.84 90.24,97.91 92.99,97.98 95.75,98.05 98.50,98.13 101.26,98.21 104.01,98.29 106.77,98.37 109.52,98.46 112.28,98.55 115.03,98.64 117.79,98.74 120.54,98.84 123.30,98.95 126.05,99.06 128.81,99.17 131.56,99.30 134.32,99.49 137.07,99.72 139.83,99.91 142.58,100.17 145.34,100.50 148.09,100.87 150.85,101.20 153.60,101.46 156.36,101.67 159.11,101.88 161.87,102.16 164.62,102.46 167.38,102.80 170.13,103.35 172.89,104.11 175.64,104.81 178.39,105.63 181.15,106.78 183.90,108.13 186.66,109.32 189.41,110.36 192.17,111.53 194.92,113.04 197.68,115.06 200.43,117.51 203.19,120.27 205.94,123.57 208.70,127.75 211.45,132.66 214.21,138.42 216.96,145.33 219.72,153.31 222.47,162.54 225.23,173.87 227.98,188.17 230.74,205.69 233.49,226.08 236.25,248.79 239.00,273.23 241.76,298.57 244.51,323.85 247.27,348.11 250.02,370.47 252.78,390.36 255.53,407.54 258.29,422.04 261.04,434.11 263.80,444.06 266.55,452.25 269.31,458.99 272.06,464.57 274.82,469.22 277.57,473.12 280.33,476.41 283.08,479.22 285.83,481.64 288.59,483.72 291.34,485.54 294.10,487.14 296.85,488.54 299.61,489.79 302.36,490.90 305.12,491.89 307.87,492.78 310.63,493.59 313.38,494.32 316.14,494.99 318.89,495.59 321.65,496.15 324.40,496.66 327.16,497.14 329.91,497.57 332.67,497.98 335.42,498.35 338.18,498.71 340.93,499.03 343.69,499.34 346.44,499.63 349.20,499.90 351.95,500.15 354.71,500.39 357.46,500.62 360.22,500.84 362.97,501.04 365.73,501.23 368.48,501.42 371.24,501.59 373.99,501.76 376.75,501.92 379.50,502.07 382.26,502.22 385.01,502.36 387.77,502.49 390.52,502.62 393.28,502.74 396.03,502.86 398.78,502.97 401.54,503.08 404.29,503.18 407.05,503.28 409.80,503.38 412.56,503.47 415.31,503.56 418.07,503.65 420.82,503.73 423.58,503.81 426.33,503.89 429.09,503.97 431.84,504.04 434.60,504.11 437.35,504.18 440.11,504.24 442.86,504.31 445.62,504.37 448.37,504.43 451.13,504.49 453.88,504.55 456.64,504.60 459.39,504.66 462.15,504.71 464.90,504.76 467.66,504.81 470.41,504.86 473.17,504.90 475.92,504.95 478.68,504.99 481.43,505.04 484.19,505.08 486.94,505.12 489.70,505.16 492.45,505.20 495.21,505.24 497.96,505.27 500.72,505.31 503.47,505.35 506.22,505.38 508.98,505.41 511.73,505.45 514.49,505.48 517.24,505.51 520.00,505.54 522.75,505.57 525.51,505.60 528.26,505.63 531.02,505.66 533.77,505.68 536.53,505.71 539.28,505.74 542.04,505.76 544.79,505.79 547.55,505.81 550.30,505.83 553.06,505.86 555.81,505.88 558.57,505.90 561.32,505.93 564.08,505.95 566.83,505.97 569.59,505.99 572.34,506.01 575.10,506.03 577.85,506.05 580.61,506.07 583.36,506.09 586.12,506.11 588.87,506.12 591.63,506.14 594.38,506.16 597.14,506.18 599.89,506.19 602.65,506.21 605.40,506.22 608.16,506.24 610.91,506.26 613.67,506.27" style="stroke-width: 1.71;stroke: #7CAE00;stroke-linecap: butt;"/>
<polyline points="65.44,46.24 68.20,46.24 70.95,46.24 73.71,46.24 76.46,46.24 79.22,46.24 81.97,46.24 84.73,46.24 87.48,46.24 90.24,46.24 92.99,46.24 95.75,46.24 98.50,46.24 101.26,46.24 104.01,46.24 106.77,46.24 109.52,46.24 112.28,46.24 115.03,46.24 117.79,46.24 120.54,46.25 123.30,46.25 126.05,46.25 128.81,46.25 131.56,46.25 134.32,46.25 137.07,46.26 139.83,46.26 142.58,46.27 145.34,46.27 148.09,46.28 150.85,46.28 153.60,46.29 156.36,46.30 159.11,46.32 161.87,46.33 164.62,46.35 167.38,46.37 170.13,46.40 172.89,46.43 175.64,46.48 178.39,46.53 181.15,46.59 183.90,46.67 186.66,46.77 189.41,46.90 192.17,47.05 194.92,47.25 197.68,47.50 200.43,47.81 203.19,48.21 205.94,48.71 208.70,49.35 211.45,50.18 214.21,51.23 216.96,52.59 219.72,54.33 222.47,56.58 225.23,59.47 227.98,63.21 230.74,68.03 233.49,74.23 236.25,82.17 239.00,92.27 241.76,105.01 244.51,120.85 247.27,140.16 250.02,163.14 252.78,189.65 255.53,219.13 258.29,250.59 261.04,282.77 263.80,314.33 266.55,344.08 269.31,371.17 272.06,395.10 274.82,415.71 277.57,433.10 280.33,447.54 283.08,459.38 285.83,468.99 288.59,476.73 291.34,482.93 294.10,487.89 296.85,491.84 299.61,494.98 302.36,497.47 305.12,499.46 307.87,501.03 310.63,502.29 313.38,503.29 316.14,504.09 318.89,504.73 321.65,505.24 324.40,505.65 327.16,505.98 329.91,506.25 332.67,506.47 335.42,506.64 338.18,506.78 340.93,506.90 343.69,506.99 346.44,507.07 349.20,507.13 351.95,507.18 354.71,507.23 357.46,507.26 360.22,507.29 362.97,507.32 365.73,507.34 368.48,507.35 371.24,507.37 373.99,507.38 376.75,507.39 379.50,507.40 382.26,507.40 385.01,507.41 387.77,507.41 390.52,507.42 393.28,507.42 396.03,507.42 398.78,507.43 401.54,507.43 404.29,507.43 407.05,507.43 409.80,507.43 412.56,507.44 415.31,507.44 418.07,507.44 420.82,507.44 423.58,507.44 426.33,507.44 429.09,507.44 431.84,507.44 434.60,507.44 437.35,507.44 440.11,507.44 442.86,507.44 445.62,507.44 448.37,507.44 451.13,507.44 453.88,507.44 456.64,507.44 459.39,507.44 462.15,507.44 464.90,507.44 467.66,507.44 470.41,507.44 473.17,507.44 475.92,507.44 478.68,507.44 481.43,507.44 484.19,507.44 486.94,507.44 489.70,507.44 492.45,507.44 495.21,507.44 497.96,507.44 500.72,507.44 503.47,507.44 506.22,507.44 508.98,507.44 511.73,507.44 514.49,507.44 517.24,507.44 520.00,507.44 522.75,507.44 525.51,507.44 528.26,507.44 531.02,507.44 533.77,507.44 536.53,507.44 539.28,507.44 542.04,507.44 544.79,507.44 547.55,507.44 550.30,507.44 553.06,507.44 555.81,507.44 558.57,507.44 561.32,507.44 564.08,507.44 566.83,507.44 569.59,507.44 572.34,507.44 575.10,507.44 577.85,507.44 580.61,507.44 583.36,507.44 586.12,507.44 588.87,507.44 591.63,507.44 594.38,507.44 597.14,507.44 599.89,507.44 602.65,507.44 605.40,507.44 608.16,507.44 610.91,507.44 613.67,507.44" style="stroke-width: 1.71;stroke: #00BFC4;stroke-linecap: butt;"/>
<polyline points="65.44,46.28 68.20,46.28 70.95,46.28 73.71,46.28 76.46,46.28 79.22,46.29 81.97,46.29 84.73,46.29 87.48,46.29 90.24,46.30 92.99,46.30 95.75,46.30 98.50,46.31 101.26,46.31 104.01,46.32 106.77,46.32 109.52,46.33 112.28,46.34 115.03,46.34 117.79,46.35 120.54,46.36 123.30,46.37 126.05,46.38 128.81,46.39 131.56,46.41 134.32,46.43 137.07,46.44 139.83,46.47 142.58,46.49 145.34,46.52 148.09,46.55 150.85,46.59 153.60,46.63 156.36,46.68 159.11,46.74 161.87,46.81 164.62,46.88 167.38,46.98 170.13,47.09 172.89,47.22 175.64,47.38 178.39,47.56 181.15,47.79 183.90,48.06 186.66,48.38 189.41,48.78 192.17,49.27 194.92,49.87 197.68,50.61 200.43,51.52 203.19,52.66 205.94,54.08 208.70,55.87 211.45,58.12 214.21,60.96 216.96,64.58 219.72,69.17 222.47,75.01 225.23,82.46 227.98,91.92 230.74,103.89 233.49,118.91 236.25,137.54 239.00,160.21 241.76,187.06 244.51,217.79 247.27,251.40 250.02,286.34 252.78,320.72 255.53,352.79 258.29,381.34 261.04,405.81 263.80,426.17 266.55,442.75 269.31,456.06 272.06,466.63 274.82,474.99 277.57,481.57 280.33,486.75 283.08,490.83 285.83,494.05 288.59,496.60 291.34,498.62 294.10,500.23 296.85,501.51 299.61,502.55 302.36,503.38 305.12,504.06 307.87,504.61 310.63,505.05 313.38,505.42 316.14,505.73 318.89,505.98 321.65,506.19 324.40,506.36 327.16,506.51 329.91,506.63 332.67,506.73 335.42,506.82 338.18,506.90 340.93,506.96 343.69,507.02 346.44,507.06 349.20,507.10 351.95,507.14 354.71,507.17 357.46,507.20 360.22,507.22 362.97,507.24 365.73,507.26 368.48,507.28 371.24,507.29 373.99,507.30 376.75,507.31 379.50,507.32 382.26,507.33 385.01,507.34 387.77,507.35 390.52,507.35 393.28,507.36 396.03,507.36 398.78,507.37 401.54,507.37 404.29,507.38 407.05,507.38 409.80,507.38 412.56,507.39 415.31,507.39 418.07,507.39 420.82,507.40 423.58,507.40 426.33,507.40 429.09,507.40 431.84,507.40 434.60,507.40 437.35,507.41 440.11,507.41 442.86,507.41 445.62,507.41 448.37,507.41 451.13,507.41 453.88,507.41 456.64,507.41 459.39,507.42 462.15,507.42 464.90,507.42 467.66,507.42 470.41,507.42 473.17,507.42 475.92,507.42 478.68,507.42 481.43,507.42 484.19,507.42 486.94,507.42 489.70,507.42 492.45,507.42 495.21,507.42 497.96,507.42 500.72,507.42 503.47,507.43 506.22,507.43 508.98,507.43 511.73,507.43 514.49,507.43 517.24,507.43 520.00,507.43 522.75,507.43 525.51,507.43 528.26,507.43 531.02,507.43 533.77,507.43 536.53,507.43 539.28,507.43 542.04,507.43 544.79,507.43 547.55,507.43 550.30,507.43 553.06,507.43 555.81,507.43 558.57,507.43 561.32,507.43 564.08,507.43 566.83,507.43 569.59,507.43 572.34,507.43 575.10,507.43 577.85,507.43 580.61,507.43 583.36,507.43 586.12,507.43 588.87,507.43 591.63,507.43 594.38,507.44 597.14,507.44 599.89,507.44 602.65,507.44 605.40,507.44 608.16,507.44 610.91,507.44 613.67,507.44" style="stroke-width: 1.71;stroke: #C77CFF;stroke-linecap: butt;"/>
</g><g clip-path="url(#c2)">
<g><text x="33.10" y="510.59" text-anchor="end" style="font-family: Arial;font-size: 8.80px;fill: #4D4D4D;" textLength="4.90px" lengthAdjust="spacingAndGlyphs">0</text></g>
<g><text x="33.10" y="395.29" text-anchor="end" style="font-family: Arial;font-size: 8.80px;fill: #4D4D4D;" textLength="9.79px" lengthAdjust="spacingAndGlyphs">25</text></g>
<g><text x="33.10" y="279.99" text-anchor="end" style="font-family: Arial;font-size: 8.80px;fill: #4D4D4D;" textLength="9.79px" lengthAdjust="spacingAndGlyphs">50</text></g>
<g><text x="33.10" y="164.69" text-anchor="end" style="font-family: Arial;font-size: 8.80px;fill: #4D4D4D;" textLength="9.79px" lengthAdjust="spacingAndGlyphs">75</text></g>
<g><text x="33.10" y="49.39" text-anchor="end" style="font-family: Arial;font-size: 8.80px;fill: #4D4D4D;" textLength="14.69px" lengthAdjust="spacingAndGlyphs">100</text></g>
<g><text x="111.26" y="541.74" text-anchor="middle" style="font-family: Arial;font-size: 8.80px;fill: #4D4D4D;" textLength="24.72px" lengthAdjust="spacingAndGlyphs">1e+02</text></g>
<g><text x="263.46" y="541.74" text-anchor="middle" style="font-family: Arial;font-size: 8.80px;fill: #4D4D4D;" textLength="24.72px" lengthAdjust="spacingAndGlyphs">1e+03</text></g>
<g><text x="415.65" y="541.74" text-anchor="middle" style="font-family: Arial;font-size: 8.80px;fill: #4D4D4D;" textLength="24.72px" lengthAdjust="spacingAndGlyphs">1e+04</text></g>
<g><text x="567.85" y="541.74" text-anchor="middle" style="font-family: Arial;font-size: 8.80px;fill: #4D4D4D;" textLength="24.72px" lengthAdjust="spacingAndGlyphs">1e+05</text></g>
<g><text x="339.55" y="554.20" text-anchor="middle" style="font-family: Arial;font-size: 11.00px;" textLength="50.36px" lengthAdjust="spacingAndGlyphs">Dose [M]</text></g>
<g><text transform="translate(13.36,276.84) rotate(-90.00)" text-anchor="middle" style="font-family: Arial;font-size: 11.00px;" textLength="57.87px" lengthAdjust="spacingAndGlyphs">Viability (%)</text></g>
<g><text x="657.51" y="243.48" style="font-family: Arial;font-size: 11.00px;" textLength="53.83px" lengthAdjust="spacingAndGlyphs">Compound</text></g>
<circle cx="666.15" cy="258.76" r="2.06" style="stroke-width: 0.71;stroke: #F8766D;stroke-opacity: 0.70;fill: #F8766D;fill-opacity: 0.70;"/>
<line x1="659.24" y1="258.76" x2="673.07" y2="258.76" style="stroke-width: 1.71;stroke: #F8766D;stroke-linecap: butt;"/>
<circle cx="666.15" cy="276.04" r="2.06" style="stroke-width: 0.71;stroke: #7CAE00;stroke-opacity: 0.70;fill: #7CAE00;fill-opacity: 0.70;"/>
<line x1="659.24" y1="276.04" x2="673.07" y2="276.04" style="stroke-width: 1.71;stroke: #7CAE00;stroke-linecap: butt;"/>
<circle cx="666.15" cy="293.32" r="2.06" style="stroke-width: 0.71;stroke: #00BFC4;stroke-opacity: 0.70;fill: #00BFC4;fill-opacity: 0.70;"/>
<line x1="659.24" y1="293.32" x2="673.07" y2="293.32" style="stroke-width: 1.71;stroke: #00BFC4;stroke-linecap: butt;"/>
<circle cx="666.15" cy="310.60" r="2.06" style="stroke-width: 0.71;stroke: #C77CFF;stroke-opacity: 0.70;fill: #C77CFF;fill-opacity: 0.70;"/>
<line x1="659.24" y1="310.60" x2="673.07" y2="310.60" style="stroke-width: 1.71;stroke: #C77CFF;stroke-linecap: butt;"/>
<g><text x="680.27" y="261.91" style="font-family: Arial;font-size: 8.80px;" textLength="45.48px" lengthAdjust="spacingAndGlyphs">KBrO3 (A1)</text></g>
<g><text x="680.27" y="279.19" style="font-family: Arial;font-size: 8.80px;" textLength="77.77px" lengthAdjust="spacingAndGlyphs">KBrO3_Erastin (A4)</text></g>
<g><text x="680.27" y="296.47" style="font-family: Arial;font-size: 8.80px;" textLength="68.95px" lengthAdjust="spacingAndGlyphs">KBrO3_NAC (A3)</text></g>
<g><text x="680.27" y="313.75" style="font-family: Arial;font-size: 8.80px;" textLength="67.97px" lengthAdjust="spacingAndGlyphs">KBrO3_SFN (A2)</text></g>
<g><text x="38.03" y="14.93" style="font-family: Arial;font-size: 13.20px;" textLength="400.36px" lengthAdjust="spacingAndGlyphs">Patient ASC397  doseresponse across compounds (ASC397cse)</text></g>
</g>
</svg>