<svg xmlns="http://www.w3.org/2000/svg" xmlns:xlink="http://www.w3.org/1999/xlink" class="httpgd" width="769.00" height="562.00" viewBox="0 0 769.00 562.00">
<defs>
  <style type='text/css'><![CDATA[
    .httpgd line, .httpgd polyline, .httpgd polygon, .httpgd path, .httpgd rect, .httpgd circle {
      fill: none;
      stroke: #000000;
      stroke-linecap: round;
      stroke-linejoin: round;
      stroke-miterlimit: 10.00;
    }
  ]]></style>
<clipPath id="c0"><rect x="0.00" y="0.00" width="769.00" height="562.00"/></clipPath>
<clipPath id="c1"><rect x="38.03" y="23.18" width="603.04" height="507.33"/></clipPath>
<clipPath id="c2"><rect x="0.00" y="0.00" width="769.00" height="562.00"/></clipPath>
</defs>
<rect width="100%" height="100%" style="stroke: none;fill: #FFFFFF;"/>
<g clip-path="url(#c0)">
</g><g clip-path="url(#c1)">
<polyline points="38.03,507.44 641.08,507.44" style="stroke-width: 1.07;stroke: #EBEBEB;stroke-linecap: butt;"/>
<polyline points="38.03,392.14 641.08,392.14" style="stroke-width: 1.07;stroke: #EBEBEB;stroke-linecap: butt;"/>
<polyline points="38.03,276.84 641.08,276.84" style="stroke-width: 1.07;stroke: #EBEBEB;stroke-linecap: butt;"/>
<polyline points="38.03,161.54 641.08,161.54" style="stroke-width: 1.07;stroke: #EBEBEB;stroke-linecap: butt;"/>
<polyline points="38.03,46.24 641.08,46.24" style="stroke-width: 1.07;stroke: #EBEBEB;stroke-linecap: butt;"/>
<polyline points="111.26,530.50 111.26,23.18" style="stroke-width: 1.07;stroke: #EBEBEB;stroke-linecap: butt;"/>
<polyline points="263.46,530.50 263.46,23.18" style="stroke-width: 1.07;stroke: #EBEBEB;stroke-linecap: butt;"/>
<polyline points="415.65,530.50 415.65,23.18" style="stroke-width: 1.07;stroke: #EBEBEB;stroke-linecap: butt;"/>
<polyline points="567.85,530.50 567.85,23.18" style="stroke-width: 1.07;stroke: #EBEBEB;stroke-linecap: butt;"/>
<polygon points="65.44,46.90 68.20,46.90 70.95,46.90 73.71,46.91 76.46,46.91 79.22,46.91 81.97,46.91 84.73,46.91 87.48,46.91 90.24,46.91 92.99,46.91 95.75,46.92 98.50,46.92 101.26,46.92 104.01,46.92 106.77,46.93 109.52,46.93 112.28,46.94 115.03,46.95 117.79,46.95 120.54,46.96 123.30,46.97 126.05,46.99 128.81,47.00 131.56,47.02 134.32,47.05 137.07,47.08 139.83,47.13 142.58,47.17 145.34,47.23 148.09,47.28 150.85,47.35 153.60,47.43 156.36,47.51 159.11,47.63 161.87,47.77 164.62,47.90 167.38,48.08 170.13,48.26 172.89,48.48 175.64,48.72 178.39,49.00 181.15,49.32 183.90,49.70 186.66,50.16 189.41,50.74 192.17,51.32 194.92,52.04 197.68,52.96 200.43,53.99 203.19,55.22 205.94,56.70 208.70,58.33 211.45,60.36 214.21,62.81 216.96,65.67 219.72,69.14 222.47,73.31 225.23,78.31 227.98,84.42 230.74,91.49 233.49,99.86 236.25,109.51 239.00,120.70 241.76,133.25 244.51,146.70 247.27,161.28 250.02,176.55 252.78,191.99 255.53,207.53 258.29,222.80 261.04,237.89 263.80,252.69 266.55,267.72 269.31,283.21 272.06,298.27 274.82,313.66 277.57,328.36 280.33,342.62 283.08,356.36 285.83,369.60 288.59,382.03 291.34,393.75 294.10,404.71 296.85,415.08 299.61,424.63 302.36,433.21 305.12,441.06 307.87,448.28 310.63,454.82 313.38,460.74 316.14,466.03 318.89,470.76 321.65,475.04 324.40,478.84 327.16,482.20 329.91,485.20 332.67,487.87 335.42,490.23 338.18,492.32 340.93,494.16 343.69,495.78 346.44,497.21 349.20,498.46 351.95,499.57 354.71,500.54 357.46,501.39 360.22,502.14 362.97,502.80 365.73,503.38 368.48,503.88 371.24,504.33 373.99,504.71 376.75,505.05 379.50,505.35 382.26,505.61 385.01,505.84 387.77,506.04 390.52,506.22 393.28,506.37 396.03,506.50 398.78,506.62 401.54,506.72 404.29,506.81 407.05,506.89 409.80,506.96 412.56,507.02 415.31,507.07 418.07,507.12 420.82,507.16 423.58,507.20 426.33,507.23 429.09,507.25 431.84,507.28 434.60,507.30 437.35,507.32 440.11,507.33 442.86,507.35 445.62,507.36 448.37,507.37 451.13,507.38 453.88,507.39 456.64,507.39 459.39,507.40 462.15,507.41 464.90,507.41 467.66,507.41 470.41,507.42 473.17,507.42 475.92,507.42 478.68,507.43 481.43,507.43 484.19,507.43 486.94,507.43 489.70,507.43 492.45,507.43 495.21,507.44 497.96,507.44 500.72,507.44 503.47,507.44 506.22,507.44 508.98,507.44 511.73,507.44 514.49,507.44 517.24,507.44 520.00,507.44 522.75,507.44 525.51,507.44 528.26,507.44 531.02,507.44 533.77,507.44 536.53,507.44 539.28,507.44 542.04,507.44 544.79,507.44 547.55,507.44 550.30,507.44 553.06,507.44 555.81,507.44 558.57,507.44 561.32,507.44 564.08,507.44 566.83,507.44 569.59,507.44 572.34,507.44 575.10,507.44 577.85,507.44 580.61,507.44 583.36,507.44 586.12,507.44 588.87,507.44 591.63,507.44 594.38,507.44 597.14,507.44 599.89,507.44 602.65,507.44 605.40,507.44 608.16,507.44 610.91,507.44 613.67,507.44 613.67,507.44 610.91,507.44 608.16,507.44 605.40,507.44 602.65,507.44 599.89,507.44 597.14,507.44 594.38,507.44 591.63,507.44 588.87,507.44 586.12,507.44 583.36,507.44 580.61,507.44 577.85,507.44 575.10,507.44 572.34,507.44 569.59,507.44 566.83,507.44 564.08,507.44 561.32,507.44 558.57,507.44 555.81,507.44 553.06,507.44 550.30,507.44 547.55,507.44 544.79,507.44 542.04,507.44 539.28,507.44 536.53,507.44 533.77,507.44 531.02,507.44 528.26,507.44 525.51,507.44 522.75,507.44 520.00,507.44 517.24,507.44 514.49,507.44 511.73,507.44 508.98,507.44 506.22,507.44 503.47,507.44 500.72,507.44 497.96,507.44 495.21,507.44 492.45,507.44 489.70,507.44 486.94,507.44 484.19,507.44 481.43,507.44 478.68,507.44 475.92,507.44 473.17,507.44 470.41,507.44 467.66,507.44 464.90,507.44 462.15,507.44 459.39,507.44 456.64,507.44 453.88,507.44 451.13,507.44 448.37,507.44 445.62,507.44 442.86,507.44 440.11,507.44 437.35,507.44 434.60,507.44 431.84,507.44 429.09,507.44 426.33,507.44 423.58,507.44 420.82,507.44 418.07,507.44 415.31,507.44 412.56,507.44 409.80,507.44 407.05,507.44 404.29,507.43 401.54,507.43 398.78,507.43 396.03,507.43 393.28,507.42 390.52,507.42 387.77,507.41 385.01,507.40 382.26,507.40 379.50,507.38 376.75,507.37 373.99,507.35 371.24,507.33 368.48,507.31 365.73,507.28 362.97,507.24 360.22,507.19 357.46,507.13 354.71,507.06 351.95,506.96 349.20,506.85 346.44,506.72 343.69,506.55 340.93,506.34 338.18,506.09 335.42,505.78 332.67,505.39 329.91,504.92 327.16,504.34 324.40,503.63 321.65,502.75 318.89,501.68 316.14,500.37 313.38,498.76 310.63,496.79 307.87,494.40 305.12,491.48 302.36,487.94 299.61,483.67 296.85,478.51 294.10,472.32 291.34,464.92 288.59,456.06 285.83,445.76 283.08,433.89 280.33,420.10 277.57,404.32 274.82,386.59 272.06,367.12 269.31,346.08 266.55,323.82 263.80,300.59 261.04,276.87 258.29,253.02 255.53,230.07 252.78,208.03 250.02,187.98 247.27,172.29 244.51,159.73 241.76,148.89 239.00,139.02 236.25,129.95 233.49,121.59 230.74,114.10 227.98,107.23 225.23,100.93 222.47,95.24 219.72,90.11 216.96,85.63 214.21,81.68 211.45,78.07 208.70,74.95 205.94,72.14 203.19,69.65 200.43,67.50 197.68,65.60 194.92,63.98 192.17,62.68 189.41,61.41 186.66,60.35 183.90,59.46 181.15,58.76 178.39,58.20 175.64,57.62 172.89,57.12 170.13,56.75 167.38,56.42 164.62,56.16 161.87,55.92 159.11,55.75 156.36,55.62 153.60,55.55 150.85,55.49 148.09,55.43 145.34,55.35 142.58,55.31 139.83,55.26 137.07,55.21 134.32,55.17 131.56,55.14 128.81,55.13 126.05,55.12 123.30,55.10 120.54,55.10 117.79,55.09 115.03,55.09 112.28,55.09 109.52,55.09 106.77,55.07 104.01,55.07 101.26,55.06 98.50,55.05 95.75,55.05 92.99,55.04 90.24,55.04 87.48,55.03 84.73,55.03 81.97,55.01 79.22,55.01 76.46,55.01 73.71,55.01 70.95,55.01 68.20,55.01 65.44,55.01" style="stroke-width: 0.00;stroke: none;stroke-linecap: butt;fill: #F8766D;fill-opacity: 0.15;" />
<polyline points="65.44,46.90 68.20,46.90 70.95,46.90 73.71,46.91 76.46,46.91 79.22,46.91 81.97,46.91 84.73,46.91 87.48,46.91 90.24,46.91 92.99,46.91 95.75,46.92 98.50,46.92 101.26,46.92 104.01,46.92 106.77,46.93 109.52,46.93 112.28,46.94 115.03,46.95 117.79,46.95 120.54,46.96 123.30,46.97 126.05,46.99 128.81,47.00 131.56,47.02 134.32,47.05 137.07,47.08 139.83,47.13 142.58,47.17 145.34,47.23 148.09,47.28 150.85,47.35 153.60,47.43 156.36,47.51 159.11,47.63 161.87,47.77 164.62,47.90 167.38,48.08 170.13,48.26 172.89,48.48 175.64,48.72 178.39,49.00 181.15,49.32 183.90,49.70 186.66,50.16 189.41,50.74 192.17,51.32 194.92,52.04 197.68,52.96 200.43,53.99 203.19,55.22 205.94,56.70 208.70,58.33 211.45,60.36 214.21,62.81 216.96,65.67 219.72,69.14 222.47,73.31 225.23,78.31 227.98,84.42 230.74,91.49 233.49,99.86 236.25,109.51 239.00,120.70 241.76,133.25 244.51,146.70 247.27,161.28 250.02,176.55 252.78,191.99 255.53,207.53 258.29,222.80 261.04,237.89 263.80,252.69 266.55,267.72 269.31,283.21 272.06,298.27 274.82,313.66 277.57,328.36 280.33,342.62 283.08,356.36 285.83,369.60 288.59,382.03 291.34,393.75 294.10,404.71 296.85,415.08 299.61,424.63 302.36,433.21 305.12,441.06 307.87,448.28 310.63,454.82 313.38,460.74 316.14,466.03 318.89,470.76 321.65,475.04 324.40,478.84 327.16,482.20 329.91,485.20 332.67,487.87 335.42,490.23 338.18,492.32 340.93,494.16 343.69,495.78 346.44,497.21 349.20,498.46 351.95,499.57 354.71,500.54 357.46,501.39 360.22,502.14 362.97,502.80 365.73,503.38 368.48,503.88 371.24,504.33 373.99,504.71 376.75,505.05 379.50,505.35 382.26,505.61 385.01,505.84 387.77,506.04 390.52,506.22 393.28,506.37 396.03,506.50 398.78,506.62 401.54,506.72 404.29,506.81 407.05,506.89 409.80,506.96 412.56,507.02 415.31,507.07 418.07,507.12 420.82,507.16 423.58,507.20 426.33,507.23 429.09,507.25 431.84,507.28 434.60,507.30 437.35,507.32 440.11,507.33 442.86,507.35 445.62,507.36 448.37,507.37 451.13,507.38 453.88,507.39 456.64,507.39 459.39,507.40 462.15,507.41 464.90,507.41 467.66,507.41 470.41,507.42 473.17,507.42 475.92,507.42 478.68,507.43 481.43,507.43 484.19,507.43 486.94,507.43 489.70,507.43 492.45,507.43 495.21,507.44 497.96,507.44 500.72,507.44 503.47,507.44 506.22,507.44 508.98,507.44 511.73,507.44 514.49,507.44 517.24,507.44 520.00,507.44 522.75,507.44 525.51,507.44 528.26,507.44 531.02,507.44 533.77,507.44 536.53,507.44 539.28,507.44 542.04,507.44 544.79,507.44 547.55,507.44 550.30,507.44 553.06,507.44 555.81,507.44 558.57,507.44 561.32,507.44 564.08,507.44 566.83,507.44 569.59,507.44 572.34,507.44 575.10,507.44 577.85,507.44 580.61,507.44 583.36,507.44 586.12,507.44 588.87,507.44 591.63,507.44 594.38,507.44 597.14,507.44 599.89,507.44 602.65,507.44 605.40,507.44 608.16,507.44 610.91,507.44 613.67,507.44" style="stroke-width: 1.07;stroke: none;stroke-linecap: butt;"/>
<polyline points="613.67,507.44 610.91,507.44 608.16,507.44 605.40,507.44 602.65,507.44 599.89,507.44 597.14,507.44 594.38,507.44 591.63,507.44 588.87,507.44 586.12,507.44 583.36,507.44 580.61,507.44 577.85,507.44 575.10,507.44 572.34,507.44 569.59,507.44 566.83,507.44 564.08,507.44 561.32,507.44 558.57,507.44 555.81,507.44 553.06,507.44 550.30,507.44 547.55,507.44 544.79,507.44 542.04,507.44 539.28,507.44 536.53,507.44 533.77,507.44 531.02,507.44 528.26,507.44 525.51,507.44 522.75,507.44 520.00,507.44 517.24,507.44 514.49,507.44 511.73,507.44 508.98,507.44 506.22,507.44 503.47,507.44 500.72,507.44 497.96,507.44 495.21,507.44 492.45,507.44 489.70,507.44 486.94,507.44 484.19,507.44 481.43,507.44 478.68,507.44 475.92,507.44 473.17,507.44 470.41,507.44 467.66,507.44 464.90,507.44 462.15,507.44 459.39,507.44 456.64,507.44 453.88,507.44 451.13,507.44 448.37,507.44 445.62,507.44 442.86,507.44 440.11,507.44 437.35,507.44 434.60,507.44 431.84,507.44 429.09,507.44 426.33,507.44 423.58,507.44 420.82,507.44 418.07,507.44 415.31,507.44 412.56,507.44 409.80,507.44 407.05,507.44 404.29,507.43 401.54,507.43 398.78,507.43 396.03,507.43 393.28,507.42 390.52,507.42 387.77,507.41 385.01,507.40 382.26,507.40 379.50,507.38 376.75,507.37 373.99,507.35 371.24,507.33 368.48,507.31 365.73,507.28 362.97,507.24 360.22,507.19 357.46,507.13 354.71,507.06 351.95,506.96 349.20,506.85 346.44,506.72 343.69,506.55 340.93,506.34 338.18,506.09 335.42,505.78 332.67,505.39 329.91,504.92 327.16,504.34 324.40,503.63 321.65,502.75 318.89,501.68 316.14,500.37 313.38,498.76 310.63,496.79 307.87,494.40 305.12,491.48 302.36,487.94 299.61,483.67 296.85,478.51 294.10,472.32 291.34,464.92 288.59,456.06 285.83,445.76 283.08,433.89 280.33,420.10 277.57,404.32 274.82,386.59 272.06,367.12 269.31,346.08 266.55,323.82 263.80,300.59 261.04,276.87 258.29,253.02 255.53,230.07 252.78,208.03 250.02,187.98 247.27,172.29 244.51,159.73 241.76,148.89 239.00,139.02 236.25,129.95 233.49,121.59 230.74,114.10 227.98,107.23 225.23,100.93 222.47,95.24 219.72,90.11 216.96,85.63 214.21,81.68 211.45,78.07 208.70,74.95 205.94,72.14 203.19,69.65 200.43,67.50 197.68,65.60 194.92,63.98 192.17,62.68 189.41,61.41 186.66,60.35 183.90,59.46 181.15,58.76 178.39,58.20 175.64,57.62 172.89,57.12 170.13,56.75 167.38,56.42 164.62,56.16 161.87,55.92 159.11,55.75 156.36,55.62 153.60,55.55 150.85,55.49 148.09,55.43 145.34,55.35 142.58,55.31 139.83,55.26 137.07,55.21 134.32,55.17 131.56,55.14 128.81,55.13 126.05,55.12 123.30,55.10 120.54,55.10 117.79,55.09 115.03,55.09 112.28,55.09 109.52,55.09 106.77,55.07 104.01,55.07 101.26,55.06 98.50,55.05 95.75,55.05 92.99,55.04 90.24,55.04 87.48,55.03 84.73,55.03 81.97,55.01 79.22,55.01 76.46,55.01 73.71,55.01 70.95,55.01 68.20,55.01 65.44,55.01" style="stroke-width: 1.07;stroke: none;stroke-linecap: butt;"/>
<polygon points="65.44,139.59 68.20,139.59 70.95,139.59 73.71,139.59 76.46,139.59 79.22,139.59 81.97,139.59 84.73,139.59 87.48,139.59 90.24,139.59 92.99,139.59 95.75,139.59 98.50,139.59 101.26,139.59 104.01,139.59 106.77,139.59 109.52,139.59 112.28,139.59 115.03,139.59 117.79,139.59 120.54,139.59 123.30,139.59 126.05,139.59 128.81,139.68 131.56,139.72 134.32,139.72 137.07,139.72 139.83,139.72 142.58,139.72 145.34,139.72 148.09,139.72 150.85,139.72 153.60,139.72 156.36,139.72 159.11,139.72 161.87,139.72 164.62,139.72 167.38,139.72 170.13,139.80 172.89,140.01 175.64,140.13 178.39,140.13 181.15,140.31 183.90,140.67 186.66,140.67 189.41,140.83 192.17,140.96 194.92,141.24 197.68,141.36 200.43,141.45 203.19,141.56 205.94,141.65 208.70,141.78 211.45,143.58 214.21,145.25 216.96,145.83 219.72,146.28 222.47,147.76 225.23,150.53 227.98,153.19 230.74,157.10 233.49,162.21 236.25,170.15 239.00,183.68 241.76,194.42 244.51,212.32 247.27,235.01 250.02,258.08 252.78,279.08 255.53,302.13 258.29,320.24 261.04,332.87 263.80,340.58 266.55,345.79 269.31,350.84 272.06,355.16 274.82,359.09 277.57,362.75 280.33,366.55 283.08,371.61 285.83,375.29 288.59,378.95 291.34,383.04 294.10,387.57 296.85,392.02 299.61,396.36 302.36,400.35 305.12,404.13 307.87,407.83 310.63,411.45 313.38,414.99 316.14,418.40 318.89,421.81 321.65,425.18 324.40,428.31 327.16,431.38 329.91,434.45 332.67,437.44 335.42,440.30 338.18,443.07 340.93,445.75 343.69,448.33 346.44,450.82 349.20,453.22 351.95,455.55 354.71,457.78 357.46,459.94 360.22,462.02 362.97,464.03 365.73,465.96 368.48,467.81 371.24,469.59 373.99,471.30 376.75,472.95 379.50,474.52 382.26,476.04 385.01,477.49 387.77,478.88 390.52,480.21 393.28,481.48 396.03,482.70 398.78,483.87 401.54,484.98 404.29,486.05 407.05,487.06 409.80,488.03 412.56,488.95 415.31,489.83 418.07,490.68 420.82,491.48 423.58,492.25 426.33,492.98 429.09,493.68 431.84,494.34 434.60,494.98 437.35,495.58 440.11,496.16 442.86,496.71 445.62,497.23 448.37,497.73 451.13,498.21 453.88,498.66 456.64,499.09 459.39,499.50 462.15,499.89 464.90,500.27 467.66,500.62 470.41,500.96 473.17,501.28 475.92,501.58 478.68,501.87 481.43,502.15 484.19,502.41 486.94,502.66 489.70,502.90 492.45,503.13 495.21,503.34 497.96,503.54 500.72,503.74 503.47,503.92 506.22,504.10 508.98,504.27 511.73,504.42 514.49,504.57 517.24,504.72 520.00,504.85 522.75,504.98 525.51,505.11 528.26,505.22 531.02,505.33 533.77,505.44 536.53,505.54 539.28,505.64 542.04,505.73 544.79,505.81 547.55,505.89 550.30,505.97 553.06,506.05 555.81,506.12 558.57,506.18 561.32,506.25 564.08,506.31 566.83,506.36 569.59,506.42 572.34,506.47 575.10,506.52 577.85,506.56 580.61,506.61 583.36,506.65 586.12,506.69 588.87,506.73 591.63,506.76 594.38,506.80 597.14,506.83 599.89,506.86 602.65,506.89 605.40,506.92 608.16,506.94 610.91,506.97 613.67,506.99 613.67,507.44 610.91,507.44 608.16,507.44 605.40,507.44 602.65,507.44 599.89,507.44 597.14,507.44 594.38,507.44 591.63,507.44 588.87,507.44 586.12,507.44 583.36,507.44 580.61,507.44 577.85,507.44 575.10,507.44 572.34,507.44 569.59,507.44 566.83,507.44 564.08,507.44 561.32,507.44 558.57,507.44 555.81,507.44 553.06,507.44 550.30,507.44 547.55,507.44 544.79,507.44 542.04,507.44 539.28,507.44 536.53,507.44 533.77,507.44 531.02,507.44 528.26,507.44 525.51,507.44 522.75,507.44 520.00,507.44 517.24,507.44 514.49,507.44 511.73,507.44 508.98,507.44 506.22,507.44 503.47,507.44 500.72,507.44 497.96,507.44 495.21,507.44 492.45,507.44 489.70,507.44 486.94,507.44 484.19,507.44 481.43,507.44 478.68,507.44 475.92,507.44 473.17,507.44 470.41,507.44 467.66,507.44 464.90,507.44 462.15,507.44 459.39,507.44 456.64,507.44 453.88,507.44 451.13,507.44 448.37,507.44 445.62,507.44 442.86,507.44 440.11,507.44 437.35,507.44 434.60,507.44 431.84,507.44 429.09,507.44 426.33,507.44 423.58,507.44 420.82,507.44 418.07,507.44 415.31,507.44 412.56,507.44 409.80,507.44 407.05,507.44 404.29,507.44 401.54,507.44 398.78,507.44 396.03,507.44 393.28,507.44 390.52,507.44 387.77,507.44 385.01,507.44 382.26,507.44 379.50,507.44 376.75,507.44 373.99,507.44 371.24,507.44 368.48,507.44 365.73,507.44 362.97,507.44 360.22,507.44 357.46,507.44 354.71,507.44 351.95,507.44 349.20,507.44 346.44,507.44 343.69,507.44 340.93,507.44 338.18,507.44 335.42,507.44 332.67,507.44 329.91,507.44 327.16,507.44 324.40,507.44 321.65,507.44 318.89,507.44 316.14,507.44 313.38,507.44 310.63,507.44 307.87,507.44 305.12,507.44 302.36,507.44 299.61,507.44 296.85,507.44 294.10,507.44 291.34,507.44 288.59,507.44 285.83,507.44 283.08,507.44 280.33,507.44 277.57,507.44 274.82,507.44 272.06,507.44 269.31,507.44 266.55,507.44 263.80,507.44 261.04,507.44 258.29,507.44 255.53,507.44 252.78,507.44 250.02,507.44 247.27,507.44 244.51,507.44 241.76,507.44 239.00,507.44 236.25,507.44 233.49,507.44 230.74,507.44 227.98,507.44 225.23,507.44 222.47,507.44 219.72,507.44 216.96,507.44 214.21,507.44 211.45,507.40 208.70,507.12 205.94,505.25 203.19,493.07 200.43,429.84 197.68,330.71 194.92,286.85 192.17,261.14 189.41,253.51 186.66,247.19 183.90,239.42 181.15,236.88 178.39,234.42 175.64,232.05 172.89,229.75 170.13,227.54 167.38,225.53 164.62,224.04 161.87,223.19 159.11,221.49 156.36,220.71 153.60,220.39 150.85,218.95 148.09,218.52 145.34,218.52 142.58,217.85 139.83,216.86 137.07,216.68 134.32,215.64 131.56,214.70 128.81,213.81 126.05,212.76 123.30,211.38 120.54,210.85 117.79,210.43 115.03,209.93 112.28,209.72 109.52,209.42 106.77,208.68 104.01,208.39 101.26,207.98 98.50,207.36 95.75,207.16 92.99,207.16 90.24,207.16 87.48,207.16 84.73,207.16 81.97,207.16 79.22,207.16 76.46,207.16 73.71,207.01 70.95,207.01 68.20,207.01 65.44,207.01" style="stroke-width: 0.00;stroke: none;stroke-linecap: butt;fill: #7CAE00;fill-opacity: 0.15;" />
<polyline points="65.44,139.59 68.20,139.59 70.95,139.59 73.71,139.59 76.46,139.59 79.22,139.59 81.97,139.59 84.73,139.59 87.48,139.59 90.24,139.59 92.99,139.59 95.75,139.59 98.50,139.59 101.26,139.59 104.01,139.59 106.77,139.59 109.52,139.59 112.28,139.59 115.03,139.59 117.79,139.59 120.54,139.59 123.30,139.59 126.05,139.59 128.81,139.68 131.56,139.72 134.32,139.72 137.07,139.72 139.83,139.72 142.58,139.72 145.34,139.72 148.09,139.72 150.85,139.72 153.60,139.72 156.36,139.72 159.11,139.72 161.87,139.72 164.62,139.72 167.38,139.72 170.13,139.80 172.89,140.01 175.64,140.13 178.39,140.13 181.15,140.31 183.90,140.67 186.66,140.67 189.41,140.83 192.17,140.96 194.92,141.24 197.68,141.36 200.43,141.45 203.19,141.56 205.94,141.65 208.70,141.78 211.45,143.58 214.21,145.25 216.96,145.83 219.72,146.28 222.47,147.76 225.23,150.53 227.98,153.19 230.74,157.10 233.49,162.21 236.25,170.15 239.00,183.68 241.76,194.42 244.51,212.32 247.27,235.01 250.02,258.08 252.78,279.08 255.53,302.13 258.29,320.24 261.04,332.87 263.80,340.58 266.55,345.79 269.31,350.84 272.06,355.16 274.82,359.09 277.57,362.75 280.33,366.55 283.08,371.61 285.83,375.29 288.59,378.95 291.34,383.04 294.10,387.57 296.85,392.02 299.61,396.36 302.36,400.35 305.12,404.13 307.87,407.83 310.63,411.45 313.38,414.99 316.14,418.40 318.89,421.81 321.65,425.18 324.40,428.31 327.16,431.38 329.91,434.45 332.67,437.44 335.42,440.30 338.18,443.07 340.93,445.75 343.69,448.33 346.44,450.82 349.20,453.22 351.95,455.55 354.71,457.78 357.46,459.94 360.22,462.02 362.97,464.03 365.73,465.96 368.48,467.81 371.24,469.59 373.99,471.30 376.75,472.95 379.50,474.52 382.26,476.04 385.01,477.49 387.77,478.88 390.52,480.21 393.28,481.48 396.03,482.70 398.78,483.87 401.54,484.98 404.29,486.05 407.05,487.06 409.80,488.03 412.56,488.95 415.31,489.83 418.07,490.68 420.82,491.48 423.58,492.25 426.33,492.98 429.09,493.68 431.84,494.34 434.60,494.98 437.35,495.58 440.11,496.16 442.86,496.71 445.62,497.23 448.37,497.73 451.13,498.21 453.88,498.66 456.64,499.09 459.39,499.50 462.15,499.89 464.90,500.27 467.66,500.62 470.41,500.96 473.17,501.28 475.92,501.58 478.68,501.87 481.43,502.15 484.19,502.41 486.94,502.66 489.70,502.90 492.45,503.13 495.21,503.34 497.96,503.54 500.72,503.74 503.47,503.92 506.22,504.10 508.98,504.27 511.73,504.42 514.49,504.57 517.24,504.72 520.00,504.85 522.75,504.98 525.51,505.11 528.26,505.22 531.02,505.33 533.77,505.44 536.53,505.54 539.28,505.64 542.04,505.73 544.79,505.81 547.55,505.89 550.30,505.97 553.06,506.05 555.81,506.12 558.57,506.18 561.32,506.25 564.08,506.31 566.83,506.36 569.59,506.42 572.34,506.47 575.10,506.52 577.85,506.56 580.61,506.61 583.36,506.65 586.12,506.69 588.87,506.73 591.63,506.76 594.38,506.80 597.14,506.83 599.89,506.86 602.65,506.89 605.40,506.92 608.16,506.94 610.91,506.97 613.67,506.99" style="stroke-width: 1.07;stroke: none;stroke-linecap: butt;"/>
<polyline points="613.67,507.44 610.91,507.44 608.16,507.44 605.40,507.44 602.65,507.44 599.89,507.44 597.14,507.44 594.38,507.44 591.63,507.44 588.87,507.44 586.12,507.44 583.36,507.44 580.61,507.44 577.85,507.44 575.10,507.44 572.34,507.44 569.59,507.44 566.83,507.44 564.08,507.44 561.32,507.44 558.57,507.44 555.81,507.44 553.06,507.44 550.30,507.44 547.55,507.44 544.79,507.44 542.04,507.44 539.28,507.44 536.53,507.44 533.77,507.44 531.02,507.44 528.26,507.44 525.51,507.44 522.75,507.44 520.00,507.44 517.24,507.44 514.49,507.44 511.73,507.44 508.98,507.44 506.22,507.44 503.47,507.44 500.72,507.44 497.96,507.44 495.21,507.44 492.45,507.44 489.70,507.44 486.94,507.44 484.19,507.44 481.43,507.44 478.68,507.44 475.92,507.44 473.17,507.44 470.41,507.44 467.66,507.44 464.90,507.44 462.15,507.44 459.39,507.44 456.64,507.44 453.88,507.44 451.13,507.44 448.37,507.44 445.62,507.44 442.86,507.44 440.11,507.44 437.35,507.44 434.60,507.44 431.84,507.44 429.09,507.44 426.33,507.44 423.58,507.44 420.82,507.44 418.07,507.44 415.31,507.44 412.56,507.44 409.80,507.44 407.05,507.44 404.29,507.44 401.54,507.44 398.78,507.44 396.03,507.44 393.28,507.44 390.52,507.44 387.77,507.44 385.01,507.44 382.26,507.44 379.50,507.44 376.75,507.44 373.99,507.44 371.24,507.44 368.48,507.44 365.73,507.44 362.97,507.44 360.22,507.44 357.46,507.44 354.71,507.44 351.95,507.44 349.20,507.44 346.44,507.44 343.69,507.44 340.93,507.44 338.18,507.44 335.42,507.44 332.67,507.44 329.91,507.44 327.16,507.44 324.40,507.44 321.65,507.44 318.89,507.44 316.14,507.44 313.38,507.44 310.63,507.44 307.87,507.44 305.12,507.44 302.36,507.44 299.61,507.44 296.85,507.44 294.10,507.44 291.34,507.44 288.59,507.44 285.83,507.44 283.08,507.44 280.33,507.44 277.57,507.44 274.82,507.44 272.06,507.44 269.31,507.44 266.55,507.44 263.80,507.44 261.04,507.44 258.29,507.44 255.53,507.44 252.78,507.44 250.02,507.44 247.27,507.44 244.51,507.44 241.76,507.44 239.00,507.44 236.25,507.44 233.49,507.44 230.74,507.44 227.98,507.44 225.23,507.44 222.47,507.44 219.72,507.44 216.96,507.44 214.21,507.44 211.45,507.40 208.70,507.12 205.94,505.25 203.19,493.07 200.43,429.84 197.68,330.71 194.92,286.85 192.17,261.14 189.41,253.51 186.66,247.19 183.90,239.42 181.15,236.88 178.39,234.42 175.64,232.05 172.89,229.75 170.13,227.54 167.38,225.53 164.62,224.04 161.87,223.19 159.11,221.49 156.36,220.71 153.60,220.39 150.85,218.95 148.09,218.52 145.34,218.52 142.58,217.85 139.83,216.86 137.07,216.68 134.32,215.64 131.56,214.70 128.81,213.81 126.05,212.76 123.30,211.38 120.54,210.85 117.79,210.43 115.03,209.93 112.28,209.72 109.52,209.42 106.77,208.68 104.01,208.39 101.26,207.98 98.50,207.36 95.75,207.16 92.99,207.16 90.24,207.16 87.48,207.16 84.73,207.16 81.97,207.16 79.22,207.16 76.46,207.16 73.71,207.01 70.95,207.01 68.20,207.01 65.44,207.01" style="stroke-width: 1.07;stroke: none;stroke-linecap: butt;"/>
<polygon points="65.44,46.24 68.20,46.24 70.95,46.24 73.71,46.24 76.46,46.24 79.22,46.24 81.97,46.24 84.73,46.24 87.48,46.24 90.24,46.24 92.99,46.24 95.75,46.24 98.50,46.24 101.26,46.24 104.01,46.24 106.77,46.24 109.52,46.24 112.28,46.24 115.03,46.24 117.79,46.24 120.54,46.24 123.30,46.24 126.05,46.24 128.81,46.24 131.56,46.24 134.32,46.24 137.07,46.24 139.83,46.24 142.58,46.24 145.34,46.24 148.09,46.24 150.85,46.24 153.60,46.24 156.36,46.24 159.11,46.24 161.87,46.24 164.62,46.24 167.38,46.24 170.13,46.24 172.89,46.24 175.64,46.24 178.39,46.25 181.15,46.25 183.90,46.26 186.66,46.27 189.41,46.29 192.17,46.31 194.92,46.35 197.68,46.40 200.43,46.48 203.19,46.60 205.94,46.78 208.70,47.04 211.45,47.43 214.21,48.00 216.96,48.84 219.72,50.08 222.47,51.91 225.23,54.59 227.98,58.51 230.74,64.19 233.49,72.32 236.25,83.89 239.00,99.93 241.76,121.54 244.51,149.13 247.27,179.22 250.02,208.58 252.78,234.59 255.53,256.45 258.29,278.42 261.04,300.29 263.80,321.75 266.55,342.37 269.31,361.91 272.06,380.13 274.82,396.87 277.57,412.08 280.33,425.67 283.08,437.70 285.83,448.24 288.59,457.38 291.34,465.27 294.10,472.01 296.85,477.75 299.61,482.62 302.36,486.73 305.12,490.18 307.87,493.06 310.63,495.47 313.38,497.48 316.14,499.16 318.89,500.55 321.65,501.71 324.40,502.68 327.16,503.47 329.91,504.12 332.67,504.65 335.42,505.08 338.18,505.46 340.93,505.77 343.69,506.03 346.44,506.25 349.20,506.42 351.95,506.56 354.71,506.67 357.46,506.75 360.22,506.81 362.97,506.88 365.73,506.92 368.48,506.94 371.24,506.95 373.99,506.96 376.75,506.97 379.50,506.98 382.26,506.98 385.01,506.98 387.77,506.99 390.52,506.99 393.28,506.99 396.03,506.99 398.78,507.00 401.54,507.00 404.29,507.00 407.05,507.00 409.80,507.00 412.56,507.00 415.31,507.00 418.07,507.01 420.82,507.01 423.58,507.01 426.33,507.01 429.09,507.01 431.84,507.01 434.60,507.01 437.35,507.01 440.11,507.01 442.86,507.01 445.62,507.01 448.37,507.01 451.13,507.01 453.88,507.01 456.64,507.01 459.39,507.01 462.15,507.01 464.90,507.01 467.66,507.01 470.41,507.01 473.17,507.01 475.92,507.01 478.68,507.01 481.43,507.01 484.19,507.01 486.94,507.01 489.70,507.01 492.45,507.01 495.21,507.01 497.96,507.01 500.72,507.01 503.47,507.01 506.22,507.01 508.98,507.01 511.73,507.01 514.49,507.01 517.24,507.01 520.00,507.01 522.75,507.01 525.51,507.01 528.26,507.01 531.02,507.01 533.77,507.01 536.53,507.01 539.28,507.01 542.04,507.01 544.79,507.01 547.55,507.01 550.30,507.01 553.06,507.01 555.81,507.01 558.57,507.01 561.32,507.01 564.08,507.01 566.83,507.01 569.59,507.01 572.34,507.01 575.10,507.01 577.85,507.01 580.61,507.01 583.36,507.01 586.12,507.01 588.87,507.01 591.63,507.01 594.38,507.01 597.14,507.01 599.89,507.01 602.65,507.01 605.40,507.01 608.16,507.01 610.91,507.01 613.67,507.01 613.67,507.42 610.91,507.42 608.16,507.42 605.40,507.42 602.65,507.42 599.89,507.42 597.14,507.42 594.38,507.42 591.63,507.42 588.87,507.42 586.12,507.42 583.36,507.42 580.61,507.42 577.85,507.42 575.10,507.42 572.34,507.42 569.59,507.42 566.83,507.42 564.08,507.42 561.32,507.42 558.57,507.42 555.81,507.42 553.06,507.42 550.30,507.42 547.55,507.42 544.79,507.42 542.04,507.42 539.28,507.42 536.53,507.42 533.77,507.42 531.02,507.42 528.26,507.42 525.51,507.42 522.75,507.42 520.00,507.42 517.24,507.42 514.49,507.42 511.73,507.42 508.98,507.42 506.22,507.42 503.47,507.42 500.72,507.42 497.96,507.42 495.21,507.42 492.45,507.42 489.70,507.42 486.94,507.42 484.19,507.42 481.43,507.42 478.68,507.42 475.92,507.42 473.17,507.42 470.41,507.42 467.66,507.42 464.90,507.42 462.15,507.42 459.39,507.42 456.64,507.42 453.88,507.42 451.13,507.42 448.37,507.42 445.62,507.42 442.86,507.42 440.11,507.42 437.35,507.42 434.60,507.42 431.84,507.42 429.09,507.42 426.33,507.42 423.58,507.42 420.82,507.42 418.07,507.42 415.31,507.42 412.56,507.42 409.80,507.42 407.05,507.42 404.29,507.42 401.54,507.42 398.78,507.42 396.03,507.42 393.28,507.42 390.52,507.42 387.77,507.42 385.01,507.41 382.26,507.41 379.50,507.41 376.75,507.41 373.99,507.41 371.24,507.41 368.48,507.40 365.73,507.40 362.97,507.40 360.22,507.39 357.46,507.39 354.71,507.38 351.95,507.38 349.20,507.37 346.44,507.37 343.69,507.36 340.93,507.35 338.18,507.35 335.42,507.34 332.67,507.33 329.91,507.32 327.16,507.30 324.40,507.28 321.65,507.26 318.89,507.23 316.14,507.20 313.38,507.16 310.63,507.11 307.87,507.03 305.12,506.94 302.36,506.80 299.61,506.60 296.85,506.31 294.10,505.88 291.34,505.25 288.59,504.25 285.83,502.85 283.08,500.79 280.33,497.76 277.57,493.37 274.82,487.02 272.06,477.93 269.31,465.14 266.55,447.52 263.80,423.97 261.04,393.78 258.29,357.00 255.53,314.89 252.78,269.97 250.02,225.50 247.27,194.44 244.51,175.79 241.76,158.82 239.00,143.42 236.25,129.62 233.49,117.39 230.74,106.66 227.98,97.34 225.23,89.30 222.47,82.42 219.72,76.56 216.96,71.59 214.21,67.40 211.45,63.87 208.70,60.91 205.94,58.43 203.19,56.36 200.43,54.64 197.68,53.21 194.92,52.01 192.17,51.02 189.41,50.20 186.66,49.52 183.90,48.95 181.15,48.48 178.39,48.10 175.64,47.77 172.89,47.51 170.13,47.29 167.38,47.11 164.62,46.96 161.87,46.83 159.11,46.73 156.36,46.64 153.60,46.57 150.85,46.52 148.09,46.47 145.34,46.43 142.58,46.39 139.83,46.37 137.07,46.34 134.32,46.33 131.56,46.31 128.81,46.30 126.05,46.29 123.30,46.28 120.54,46.27 117.79,46.27 115.03,46.26 112.28,46.26 109.52,46.25 106.77,46.25 104.01,46.25 101.26,46.25 98.50,46.25 95.75,46.24 92.99,46.24 90.24,46.24 87.48,46.24 84.73,46.24 81.97,46.24 79.22,46.24 76.46,46.24 73.71,46.24 70.95,46.24 68.20,46.24 65.44,46.24" style="stroke-width: 0.00;stroke: none;stroke-linecap: butt;fill: #00BFC4;fill-opacity: 0.15;" />
<polyline points="65.44,46.24 68.20,46.24 70.95,46.24 73.71,46.24 76.46,46.24 79.22,46.24 81.97,46.24 84.73,46.24 87.48,46.24 90.24,46.24 92.99,46.24 95.75,46.24 98.50,46.24 101.26,46.24 104.01,46.24 106.77,46.24 109.52,46.24 112.28,46.24 115.03,46.24 117.79,46.24 120.54,46.24 123.30,46.24 126.05,46.24 128.81,46.24 131.56,46.24 134.32,46.24 137.07,46.24 139.83,46.24 142.58,46.24 145.34,46.24 148.09,46.24 150.85,46.24 153.60,46.24 156.36,46.24 159.11,46.24 161.87,46.24 164.62,46.24 167.38,46.24 170.13,46.24 172.89,46.24 175.64,46.24 178.39,46.25 181.15,46.25 183.90,46.26 186.66,46.27 189.41,46.29 192.17,46.31 194.92,46.35 197.68,46.40 200.43,46.48 203.19,46.60 205.94,46.78 208.70,47.04 211.45,47.43 214.21,48.00 216.96,48.84 219.72,50.08 222.47,51.91 225.23,54.59 227.98,58.51 230.74,64.19 233.49,72.32 236.25,83.89 239.00,99.93 241.76,121.54 244.51,149.13 247.27,179.22 250.02,208.58 252.78,234.59 255.53,256.45 258.29,278.42 261.04,300.29 263.80,321.75 266.55,342.37 269.31,361.91 272.06,380.13 274.82,396.87 277.57,412.08 280.33,425.67 283.08,437.70 285.83,448.24 288.59,457.38 291.34,465.27 294.10,472.01 296.85,477.75 299.61,482.62 302.36,486.73 305.12,490.18 307.87,493.06 310.63,495.47 313.38,497.48 316.14,499.16 318.89,500.55 321.65,501.71 324.40,502.68 327.16,503.47 329.91,504.12 332.67,504.65 335.42,505.08 338.18,505.46 340.93,505.77 343.69,506.03 346.44,506.25 349.20,506.42 351.95,506.56 354.71,506.67 357.46,506.75 360.22,506.81 362.97,506.88 365.73,506.92 368.48,506.94 371.24,506.95 373.99,506.96 376.75,506.97 379.50,506.98 382.26,506.98 385.01,506.98 387.77,506.99 390.52,506.99 393.28,506.99 396.03,506.99 398.78,507.00 401.54,507.00 404.29,507.00 407.05,507.00 409.80,507.00 412.56,507.00 415.31,507.00 418.07,507.01 420.82,507.01 423.58,507.01 426.33,507.01 429.09,507.01 431.84,507.01 434.60,507.01 437.35,507.01 440.11,507.01 442.86,507.01 445.62,507.01 448.37,507.01 451.13,507.01 453.88,507.01 456.64,507.01 459.39,507.01 462.15,507.01 464.90,507.01 467.66,507.01 470.41,507.01 473.17,507.01 475.92,507.01 478.68,507.01 481.43,507.01 484.19,507.01 486.94,507.01 489.70,507.01 492.45,507.01 495.21,507.01 497.96,507.01 500.72,507.01 503.47,507.01 506.22,507.01 508.98,507.01 511.73,507.01 514.49,507.01 517.24,507.01 520.00,507.01 522.75,507.01 525.51,507.01 528.26,507.01 531.02,507.01 533.77,507.01 536.53,507.01 539.28,507.01 542.04,507.01 544.79,507.01 547.55,507.01 550.30,507.01 553.06,507.01 555.81,507.01 558.57,507.01 561.32,507.01 564.08,507.01 566.83,507.01 569.59,507.01 572.34,507.01 575.10,507.01 577.85,507.01 580.61,507.01 583.36,507.01 586.12,507.01 588.87,507.01 591.63,507.01 594.38,507.01 597.14,507.01 599.89,507.01 602.65,507.01 605.40,507.01 608.16,507.01 610.91,507.01 613.67,507.01" style="stroke-width: 1.07;stroke: none;stroke-linecap: butt;"/>
<polyline points="613.67,507.42 610.91,507.42 608.16,507.42 605.40,507.42 602.65,507.42 599.89,507.42 597.14,507.42 594.38,507.42 591.63,507.42 588.87,507.42 586.12,507.42 583.36,507.42 580.61,507.42 577.85,507.42 575.10,507.42 572.34,507.42 569.59,507.42 566.83,507.42 564.08,507.42 561.32,507.42 558.57,507.42 555.81,507.42 553.06,507.42 550.30,507.42 547.55,507.42 544.79,507.42 542.04,507.42 539.28,507.42 536.53,507.42 533.77,507.42 531.02,507.42 528.26,507.42 525.51,507.42 522.75,507.42 520.00,507.42 517.24,507.42 514.49,507.42 511.73,507.42 508.98,507.42 506.22,507.42 503.47,507.42 500.72,507.42 497.96,507.42 495.21,507.42 492.45,507.42 489.70,507.42 486.94,507.42 484.19,507.42 481.43,507.42 478.68,507.42 475.92,507.42 473.17,507.42 470.41,507.42 467.66,507.42 464.90,507.42 462.15,507.42 459.39,507.42 456.64,507.42 453.88,507.42 451.13,507.42 448.37,507.42 445.62,507.42 442.86,507.42 440.11,507.42 437.35,507.42 434.60,507.42 431.84,507.42 429.09,507.42 426.33,507.42 423.58,507.42 420.82,507.42 418.07,507.42 415.31,507.42 412.56,507.42 409.80,507.42 407.05,507.42 404.29,507.42 401.54,507.42 398.78,507.42 396.03,507.42 393.28,507.42 390.52,507.42 387.77,507.42 385.01,507.41 382.26,507.41 379.50,507.41 376.75,507.41 373.99,507.41 371.24,507.41 368.48,507.40 365.73,507.40 362.97,507.40 360.22,507.39 357.46,507.39 354.71,507.38 351.95,507.38 349.20,507.37 346.44,507.37 343.69,507.36 340.93,507.35 338.18,507.35 335.42,507.34 332.67,507.33 329.91,507.32 327.16,507.30 324.40,507.28 321.65,507.26 318.89,507.23 316.14,507.20 313.38,507.16 310.63,507.11 307.87,507.03 305.12,506.94 302.36,506.80 299.61,506.60 296.85,506.31 294.10,505.88 291.34,505.25 288.59,504.25 285.83,502.85 283.08,500.79 280.33,497.76 277.57,493.37 274.82,487.02 272.06,477.93 269.31,465.14 266.55,447.52 263.80,423.97 261.04,393.78 258.29,357.00 255.53,314.89 252.78,269.97 250.02,225.50 247.27,194.44 244.51,175.79 241.76,158.82 239.00,143.42 236.25,129.62 233.49,117.39 230.74,106.66 227.98,97.34 225.23,89.30 222.47,82.42 219.72,76.56 216.96,71.59 214.21,67.40 211.45,63.87 208.70,60.91 205.94,58.43 203.19,56.36 200.43,54.64 197.68,53.21 194.92,52.01 192.17,51.02 189.41,50.20 186.66,49.52 183.90,48.95 181.15,48.48 178.39,48.10 175.64,47.77 172.89,47.51 170.13,47.29 167.38,47.11 164.62,46.96 161.87,46.83 159.11,46.73 156.36,46.64 153.60,46.57 150.85,46.52 148.09,46.47 145.34,46.43 142.58,46.39 139.83,46.37 137.07,46.34 134.32,46.33 131.56,46.31 128.81,46.30 126.05,46.29 123.30,46.28 120.54,46.27 117.79,46.27 115.03,46.26 112.28,46.26 109.52,46.25 106.77,46.25 104.01,46.25 101.26,46.25 98.50,46.25 95.75,46.24 92.99,46.24 90.24,46.24 87.48,46.24 84.73,46.24 81.97,46.24 79.22,46.24 76.46,46.24 73.71,46.24 70.95,46.24 68.20,46.24 65.44,46.24" style="stroke-width: 1.07;stroke: none;stroke-linecap: butt;"/>
<polygon points="65.44,46.26 68.20,46.26 70.95,46.26 73.71,46.27 76.46,46.27 79.22,46.28 81.97,46.29 84.73,46.29 87.48,46.30 90.24,46.31 92.99,46.32 95.75,46.34 98.50,46.35 101.26,46.37 104.01,46.40 106.77,46.42 109.52,46.45 112.28,46.48 115.03,46.52 117.79,46.57 120.54,46.62 123.30,46.68 126.05,46.76 128.81,46.84 131.56,46.94 134.32,47.05 137.07,47.18 139.83,47.33 142.58,47.50 145.34,47.70 148.09,47.94 150.85,48.21 153.60,48.54 156.36,48.90 159.11,49.32 161.87,49.81 164.62,50.36 167.38,50.99 170.13,51.73 172.89,52.62 175.64,53.58 178.39,54.67 181.15,55.97 183.90,57.53 186.66,59.23 189.41,61.30 192.17,63.57 194.92,66.17 197.68,69.10 200.43,72.40 203.19,76.13 205.94,80.40 208.70,85.24 211.45,90.58 214.21,96.58 216.96,103.50 219.72,111.47 222.47,119.52 225.23,129.43 227.98,139.77 230.74,151.07 233.49,163.07 236.25,175.55 239.00,189.02 241.76,203.10 244.51,217.82 247.27,232.33 250.02,246.46 252.78,260.10 255.53,272.61 258.29,284.14 261.04,293.85 263.80,302.88 266.55,311.23 269.31,318.80 272.06,325.95 274.82,333.67 277.57,340.71 280.33,347.24 283.08,353.75 285.83,360.23 288.59,366.11 291.34,371.91 294.10,378.07 296.85,384.00 299.61,389.35 302.36,394.94 305.12,399.87 307.87,404.98 310.63,409.79 313.38,414.35 316.14,419.04 318.89,423.64 321.65,427.88 324.40,431.94 327.16,435.84 329.91,439.55 332.67,443.03 335.42,446.52 338.18,449.78 340.93,452.88 343.69,455.84 346.44,458.56 349.20,461.11 351.95,463.55 354.71,465.86 357.46,468.12 360.22,470.33 362.97,472.42 365.73,474.40 368.48,476.28 371.24,478.05 373.99,479.72 376.75,481.32 379.50,482.83 382.26,484.25 385.01,485.60 387.77,486.87 390.52,488.07 393.28,489.21 396.03,490.28 398.78,491.29 401.54,492.24 404.29,493.14 407.05,493.99 409.80,494.79 412.56,495.54 415.31,496.25 418.07,496.91 420.82,497.54 423.58,498.13 426.33,498.69 429.09,499.21 431.84,499.70 434.60,500.16 437.35,500.60 440.11,501.01 442.86,501.40 445.62,501.76 448.37,502.10 451.13,502.43 453.88,502.73 456.64,503.01 459.39,503.27 462.15,503.52 464.90,503.75 467.66,503.97 470.41,504.17 473.17,504.36 475.92,504.55 478.68,504.72 481.43,504.89 484.19,505.04 486.94,505.19 489.70,505.32 492.45,505.45 495.21,505.57 497.96,505.68 500.72,505.79 503.47,505.89 506.22,505.98 508.98,506.07 511.73,506.15 514.49,506.23 517.24,506.31 520.00,506.37 522.75,506.44 525.51,506.50 528.26,506.56 531.02,506.61 533.77,506.66 536.53,506.71 539.28,506.75 542.04,506.80 544.79,506.83 547.55,506.87 550.30,506.91 553.06,506.94 555.81,506.97 558.57,507.00 561.32,507.03 564.08,507.05 566.83,507.07 569.59,507.10 572.34,507.12 575.10,507.14 577.85,507.16 580.61,507.17 583.36,507.19 586.12,507.21 588.87,507.22 591.63,507.23 594.38,507.25 597.14,507.26 599.89,507.27 602.65,507.28 605.40,507.29 608.16,507.30 610.91,507.31 613.67,507.32 613.67,507.44 610.91,507.44 608.16,507.44 605.40,507.44 602.65,507.44 599.89,507.44 597.14,507.44 594.38,507.44 591.63,507.44 588.87,507.44 586.12,507.44 583.36,507.44 580.61,507.44 577.85,507.44 575.10,507.44 572.34,507.44 569.59,507.44 566.83,507.44 564.08,507.44 561.32,507.44 558.57,507.44 555.81,507.44 553.06,507.44 550.30,507.44 547.55,507.44 544.79,507.44 542.04,507.44 539.28,507.44 536.53,507.44 533.77,507.44 531.02,507.44 528.26,507.44 525.51,507.44 522.75,507.44 520.00,507.44 517.24,507.44 514.49,507.44 511.73,507.44 508.98,507.44 506.22,507.44 503.47,507.44 500.72,507.44 497.96,507.44 495.21,507.44 492.45,507.44 489.70,507.44 486.94,507.44 484.19,507.44 481.43,507.44 478.68,507.44 475.92,507.44 473.17,507.44 470.41,507.44 467.66,507.44 464.90,507.44 462.15,507.44 459.39,507.44 456.64,507.44 453.88,507.43 451.13,507.43 448.37,507.43 445.62,507.43 442.86,507.43 440.11,507.42 437.35,507.42 434.60,507.42 431.84,507.41 429.09,507.41 426.33,507.40 423.58,507.40 420.82,507.39 418.07,507.38 415.31,507.37 412.56,507.36 409.80,507.35 407.05,507.33 404.29,507.31 401.54,507.29 398.78,507.27 396.03,507.24 393.28,507.21 390.52,507.17 387.77,507.13 385.01,507.08 382.26,507.02 379.50,506.96 376.75,506.88 373.99,506.79 371.24,506.69 368.48,506.57 365.73,506.43 362.97,506.27 360.22,506.09 357.46,505.88 354.71,505.63 351.95,505.33 349.20,504.99 346.44,504.62 343.69,504.17 340.93,503.64 338.18,503.05 335.42,502.36 332.67,501.58 329.91,500.69 327.16,499.66 324.40,498.45 321.65,497.09 318.89,495.48 316.14,493.72 313.38,491.71 310.63,489.34 307.87,486.62 305.12,483.52 302.36,480.04 299.61,475.86 296.85,471.43 294.10,466.11 291.34,460.62 288.59,453.86 285.83,446.57 283.08,438.83 280.33,430.16 277.57,420.36 274.82,409.67 272.06,399.02 269.31,386.98 266.55,374.56 263.80,361.60 261.04,348.22 258.29,334.88 255.53,321.60 252.78,308.44 250.02,295.62 247.27,283.59 244.51,271.29 241.76,261.26 239.00,253.14 236.25,244.57 233.49,236.67 230.74,228.87 227.98,221.27 225.23,214.31 222.47,207.70 219.72,201.24 216.96,194.89 214.21,188.72 211.45,183.02 208.70,177.30 205.94,171.66 203.19,165.73 200.43,160.32 197.68,154.80 194.92,149.72 192.17,144.81 189.41,140.08 186.66,135.51 183.90,131.12 181.15,126.91 178.39,122.84 175.64,118.82 172.89,115.06 170.13,111.61 167.38,108.24 164.62,104.98 161.87,101.87 159.11,98.87 156.36,95.99 153.60,93.24 150.85,90.58 148.09,88.08 145.34,85.80 142.58,83.51 139.83,81.34 137.07,79.32 134.32,77.41 131.56,75.60 128.81,73.89 126.05,72.28 123.30,70.75 120.54,69.31 117.79,68.02 115.03,66.80 112.28,65.62 109.52,64.48 106.77,63.39 104.01,62.37 101.26,61.42 98.50,60.55 95.75,59.72 92.99,58.95 90.24,58.21 87.48,57.52 84.73,56.87 81.97,56.25 79.22,55.65 76.46,55.08 73.71,54.55 70.95,54.05 68.20,53.58 65.44,53.14" style="stroke-width: 0.00;stroke: none;stroke-linecap: butt;fill: #C77CFF;fill-opacity: 0.15;" />
<polyline points="65.44,46.26 68.20,46.26 70.95,46.26 73.71,46.27 76.46,46.27 79.22,46.28 81.97,46.29 84.73,46.29 87.48,46.30 90.24,46.31 92.99,46.32 95.75,46.34 98.50,46.35 101.26,46.37 104.01,46.40 106.77,46.42 109.52,46.45 112.28,46.48 115.03,46.52 117.79,46.57 120.54,46.62 123.30,46.68 126.05,46.76 128.81,46.84 131.56,46.94 134.32,47.05 137.07,47.18 139.83,47.33 142.58,47.50 145.34,47.70 148.09,47.94 150.85,48.21 153.60,48.54 156.36,48.90 159.11,49.32 161.87,49.81 164.62,50.36 167.38,50.99 170.13,51.73 172.89,52.62 175.64,53.58 178.39,54.67 181.15,55.97 183.90,57.53 186.66,59.23 189.41,61.30 192.17,63.57 194.92,66.17 197.68,69.10 200.43,72.40 203.19,76.13 205.94,80.40 208.70,85.24 211.45,90.58 214.21,96.58 216.96,103.50 219.72,111.47 222.47,119.52 225.23,129.43 227.98,139.77 230.74,151.07 233.49,163.07 236.25,175.55 239.00,189.02 241.76,203.10 244.51,217.82 247.27,232.33 250.02,246.46 252.78,260.10 255.53,272.61 258.29,284.14 261.04,293.85 263.80,302.88 266.55,311.23 269.31,318.80 272.06,325.95 274.82,333.67 277.57,340.71 280.33,347.24 283.08,353.75 285.83,360.23 288.59,366.11 291.34,371.91 294.10,378.07 296.85,384.00 299.61,389.35 302.36,394.94 305.12,399.87 307.87,404.98 310.63,409.79 313.38,414.35 316.14,419.04 318.89,423.64 321.65,427.88 324.40,431.94 327.16,435.84 329.91,439.55 332.67,443.03 335.42,446.52 338.18,449.78 340.93,452.88 343.69,455.84 346.44,458.56 349.20,461.11 351.95,463.55 354.71,465.86 357.46,468.12 360.22,470.33 362.97,472.42 365.73,474.40 368.48,476.28 371.24,478.05 373.99,479.72 376.75,481.32 379.50,482.83 382.26,484.25 385.01,485.60 387.77,486.87 390.52,488.07 393.28,489.21 396.03,490.28 398.78,491.29 401.54,492.24 404.29,493.14 407.05,493.99 409.80,494.79 412.56,495.54 415.31,496.25 418.07,496.91 420.82,497.54 423.58,498.13 426.33,498.69 429.09,499.21 431.84,499.70 434.60,500.16 437.35,500.60 440.11,501.01 442.86,501.40 445.62,501.76 448.37,502.10 451.13,502.43 453.88,502.73 456.64,503.01 459.39,503.27 462.15,503.52 464.90,503.75 467.66,503.97 470.41,504.17 473.17,504.36 475.92,504.55 478.68,504.72 481.43,504.89 484.19,505.04 486.94,505.19 489.70,505.32 492.45,505.45 495.21,505.57 497.96,505.68 500.72,505.79 503.47,505.89 506.22,505.98 508.98,506.07 511.73,506.15 514.49,506.23 517.24,506.31 520.00,506.37 522.75,506.44 525.51,506.50 528.26,506.56 531.02,506.61 533.77,506.66 536.53,506.71 539.28,506.75 542.04,506.80 544.79,506.83 547.55,506.87 550.30,506.91 553.06,506.94 555.81,506.97 558.57,507.00 561.32,507.03 564.08,507.05 566.83,507.07 569.59,507.10 572.34,507.12 575.10,507.14 577.85,507.16 580.61,507.17 583.36,507.19 586.12,507.21 588.87,507.22 591.63,507.23 594.38,507.25 597.14,507.26 599.89,507.27 602.65,507.28 605.40,507.29 608.16,507.30 610.91,507.31 613.67,507.32" style="stroke-width: 1.07;stroke: none;stroke-linecap: butt;"/>
<polyline points="613.67,507.44 610.91,507.44 608.16,507.44 605.40,507.44 602.65,507.44 599.89,507.44 597.14,507.44 594.38,507.44 591.63,507.44 588.87,507.44 586.12,507.44 583.36,507.44 580.61,507.44 577.85,507.44 575.10,507.44 572.34,507.44 569.59,507.44 566.83,507.44 564.08,507.44 561.32,507.44 558.57,507.44 555.81,507.44 553.06,507.44 550.30,507.44 547.55,507.44 544.79,507.44 542.04,507.44 539.28,507.44 536.53,507.44 533.77,507.44 531.02,507.44 528.26,507.44 525.51,507.44 522.75,507.44 520.00,507.44 517.24,507.44 514.49,507.44 511.73,507.44 508.98,507.44 506.22,507.44 503.47,507.44 500.72,507.44 497.96,507.44 495.21,507.44 492.45,507.44 489.70,507.44 486.94,507.44 484.19,507.44 481.43,507.44 478.68,507.44 475.92,507.44 473.17,507.44 470.41,507.44 467.66,507.44 464.90,507.44 462.15,507.44 459.39,507.44 456.64,507.44 453.88,507.43 451.13,507.43 448.37,507.43 445.62,507.43 442.86,507.43 440.11,507.42 437.35,507.42 434.60,507.42 431.84,507.41 429.09,507.41 426.33,507.40 423.58,507.40 420.82,507.39 418.07,507.38 415.31,507.37 412.56,507.36 409.80,507.35 407.05,507.33 404.29,507.31 401.54,507.29 398.78,507.27 396.03,507.24 393.28,507.21 390.52,507.17 387.77,507.13 385.01,507.08 382.26,507.02 379.50,506.96 376.75,506.88 373.99,506.79 371.24,506.69 368.48,506.57 365.73,506.43 362.97,506.27 360.22,506.09 357.46,505.88 354.71,505.63 351.95,505.33 349.20,504.99 346.44,504.62 343.69,504.17 340.93,503.64 338.18,503.05 335.42,502.36 332.67,501.58 329.91,500.69 327.16,499.66 324.40,498.45 321.65,497.09 318.89,495.48 316.14,493.72 313.38,491.71 310.63,489.34 307.87,486.62 305.12,483.52 302.36,480.04 299.61,475.86 296.85,471.43 294.10,466.11 291.34,460.62 288.59,453.86 285.83,446.57 283.08,438.83 280.33,430.16 277.57,420.36 274.82,409.67 272.06,399.02 269.31,386.98 266.55,374.56 263.80,361.60 261.04,348.22 258.29,334.88 255.53,321.60 252.78,308.44 250.02,295.62 247.27,283.59 244.51,271.29 241.76,261.26 239.00,253.14 236.25,244.57 233.49,236.67 230.74,228.87 227.98,221.27 225.23,214.31 222.47,207.70 219.72,201.24 216.96,194.89 214.21,188.72 211.45,183.02 208.70,177.30 205.94,171.66 203.19,165.73 200.43,160.32 197.68,154.80 194.92,149.72 192.17,144.81 189.41,140.08 186.66,135.51 183.90,131.12 181.15,126.91 178.39,122.84 175.64,118.82 172.89,115.06 170.13,111.61 167.38,108.24 164.62,104.98 161.87,101.87 159.11,98.87 156.36,95.99 153.60,93.24 150.85,90.58 148.09,88.08 145.34,85.80 142.58,83.51 139.83,81.34 137.07,79.32 134.32,77.41 131.56,75.60 128.81,73.89 126.05,72.28 123.30,70.75 120.54,69.31 117.79,68.02 115.03,66.80 112.28,65.62 109.52,64.48 106.77,63.39 104.01,62.37 101.26,61.42 98.50,60.55 95.75,59.72 92.99,58.95 90.24,58.21 87.48,57.52 84.73,56.87 81.97,56.25 79.22,55.65 76.46,55.08 73.71,54.55 70.95,54.05 68.20,53.58 65.44,53.14" style="stroke-width: 1.07;stroke: none;stroke-linecap: butt;"/>
<circle cx="65.44" cy="48.22" r="2.06" style="stroke-width: 0.71;stroke: #F8766D;stroke-opacity: 0.70;fill: #F8766D;fill-opacity: 0.70;"/>
<circle cx="65.44" cy="46.24" r="2.06" style="stroke-width: 0.71;stroke: #F8766D;stroke-opacity: 0.70;fill: #F8766D;fill-opacity: 0.70;"/>
<circle cx="65.44" cy="60.57" r="2.06" style="stroke-width: 0.71;stroke: #F8766D;stroke-opacity: 0.70;fill: #F8766D;fill-opacity: 0.70;"/>
<circle cx="157.08" cy="55.86" r="2.06" style="stroke-width: 0.71;stroke: #F8766D;stroke-opacity: 0.70;fill: #F8766D;fill-opacity: 0.70;"/>
<circle cx="157.08" cy="54.67" r="2.06" style="stroke-width: 0.71;stroke: #F8766D;stroke-opacity: 0.70;fill: #F8766D;fill-opacity: 0.70;"/>
<circle cx="157.08" cy="46.24" r="2.06" style="stroke-width: 0.71;stroke: #F8766D;stroke-opacity: 0.70;fill: #F8766D;fill-opacity: 0.70;"/>
<circle cx="248.71" cy="154.33" r="2.06" style="stroke-width: 0.71;stroke: #F8766D;stroke-opacity: 0.70;fill: #F8766D;fill-opacity: 0.70;"/>
<circle cx="248.71" cy="174.76" r="2.06" style="stroke-width: 0.71;stroke: #F8766D;stroke-opacity: 0.70;fill: #F8766D;fill-opacity: 0.70;"/>
<circle cx="248.71" cy="188.31" r="2.06" style="stroke-width: 0.71;stroke: #F8766D;stroke-opacity: 0.70;fill: #F8766D;fill-opacity: 0.70;"/>
<circle cx="338.77" cy="503.33" r="2.06" style="stroke-width: 0.71;stroke: #F8766D;stroke-opacity: 0.70;fill: #F8766D;fill-opacity: 0.70;"/>
<circle cx="338.77" cy="503.21" r="2.06" style="stroke-width: 0.71;stroke: #F8766D;stroke-opacity: 0.70;fill: #F8766D;fill-opacity: 0.70;"/>
<circle cx="338.77" cy="488.18" r="2.06" style="stroke-width: 0.71;stroke: #F8766D;stroke-opacity: 0.70;fill: #F8766D;fill-opacity: 0.70;"/>
<circle cx="430.40" cy="507.44" r="2.06" style="stroke-width: 0.71;stroke: #F8766D;stroke-opacity: 0.70;fill: #F8766D;fill-opacity: 0.70;"/>
<circle cx="430.40" cy="507.44" r="2.06" style="stroke-width: 0.71;stroke: #F8766D;stroke-opacity: 0.70;fill: #F8766D;fill-opacity: 0.70;"/>
<circle cx="430.40" cy="507.44" r="2.06" style="stroke-width: 0.71;stroke: #F8766D;stroke-opacity: 0.70;fill: #F8766D;fill-opacity: 0.70;"/>
<circle cx="522.03" cy="507.44" r="2.06" style="stroke-width: 0.71;stroke: #F8766D;stroke-opacity: 0.70;fill: #F8766D;fill-opacity: 0.70;"/>
<circle cx="522.03" cy="507.44" r="2.06" style="stroke-width: 0.71;stroke: #F8766D;stroke-opacity: 0.70;fill: #F8766D;fill-opacity: 0.70;"/>
<circle cx="522.03" cy="507.35" r="2.06" style="stroke-width: 0.71;stroke: #F8766D;stroke-opacity: 0.70;fill: #F8766D;fill-opacity: 0.70;"/>
<circle cx="613.67" cy="507.44" r="2.06" style="stroke-width: 0.71;stroke: #F8766D;stroke-opacity: 0.70;fill: #F8766D;fill-opacity: 0.70;"/>
<circle cx="613.67" cy="507.44" r="2.06" style="stroke-width: 0.71;stroke: #F8766D;stroke-opacity: 0.70;fill: #F8766D;fill-opacity: 0.70;"/>
<circle cx="613.67" cy="502.81" r="2.06" style="stroke-width: 0.71;stroke: #F8766D;stroke-opacity: 0.70;fill: #F8766D;fill-opacity: 0.70;"/>
<circle cx="65.44" cy="50.23" r="2.06" style="stroke-width: 0.71;stroke: #C77CFF;stroke-opacity: 0.70;fill: #C77CFF;fill-opacity: 0.70;"/>
<circle cx="65.44" cy="90.91" r="2.06" style="stroke-width: 0.71;stroke: #C77CFF;stroke-opacity: 0.70;fill: #C77CFF;fill-opacity: 0.70;"/>
<circle cx="65.44" cy="46.24" r="2.06" style="stroke-width: 0.71;stroke: #C77CFF;stroke-opacity: 0.70;fill: #C77CFF;fill-opacity: 0.70;"/>
<circle cx="157.08" cy="94.54" r="2.06" style="stroke-width: 0.71;stroke: #C77CFF;stroke-opacity: 0.70;fill: #C77CFF;fill-opacity: 0.70;"/>
<circle cx="157.08" cy="93.33" r="2.06" style="stroke-width: 0.71;stroke: #C77CFF;stroke-opacity: 0.70;fill: #C77CFF;fill-opacity: 0.70;"/>
<circle cx="157.08" cy="75.04" r="2.06" style="stroke-width: 0.71;stroke: #C77CFF;stroke-opacity: 0.70;fill: #C77CFF;fill-opacity: 0.70;"/>
<circle cx="248.71" cy="261.14" r="2.06" style="stroke-width: 0.71;stroke: #C77CFF;stroke-opacity: 0.70;fill: #C77CFF;fill-opacity: 0.70;"/>
<circle cx="248.71" cy="278.60" r="2.06" style="stroke-width: 0.71;stroke: #C77CFF;stroke-opacity: 0.70;fill: #C77CFF;fill-opacity: 0.70;"/>
<circle cx="248.71" cy="245.22" r="2.06" style="stroke-width: 0.71;stroke: #C77CFF;stroke-opacity: 0.70;fill: #C77CFF;fill-opacity: 0.70;"/>
<circle cx="338.77" cy="507.44" r="2.06" style="stroke-width: 0.71;stroke: #C77CFF;stroke-opacity: 0.70;fill: #C77CFF;fill-opacity: 0.70;"/>
<circle cx="338.77" cy="507.44" r="2.06" style="stroke-width: 0.71;stroke: #C77CFF;stroke-opacity: 0.70;fill: #C77CFF;fill-opacity: 0.70;"/>
<circle cx="338.77" cy="496.34" r="2.06" style="stroke-width: 0.71;stroke: #C77CFF;stroke-opacity: 0.70;fill: #C77CFF;fill-opacity: 0.70;"/>
<circle cx="430.40" cy="507.44" r="2.06" style="stroke-width: 0.71;stroke: #C77CFF;stroke-opacity: 0.70;fill: #C77CFF;fill-opacity: 0.70;"/>
<circle cx="430.40" cy="507.44" r="2.06" style="stroke-width: 0.71;stroke: #C77CFF;stroke-opacity: 0.70;fill: #C77CFF;fill-opacity: 0.70;"/>
<circle cx="430.40" cy="507.44" r="2.06" style="stroke-width: 0.71;stroke: #C77CFF;stroke-opacity: 0.70;fill: #C77CFF;fill-opacity: 0.70;"/>
<circle cx="522.03" cy="507.44" r="2.06" style="stroke-width: 0.71;stroke: #C77CFF;stroke-opacity: 0.70;fill: #C77CFF;fill-opacity: 0.70;"/>
<circle cx="522.03" cy="507.44" r="2.06" style="stroke-width: 0.71;stroke: #C77CFF;stroke-opacity: 0.70;fill: #C77CFF;fill-opacity: 0.70;"/>
<circle cx="522.03" cy="503.52" r="2.06" style="stroke-width: 0.71;stroke: #C77CFF;stroke-opacity: 0.70;fill: #C77CFF;fill-opacity: 0.70;"/>
<circle cx="613.67" cy="507.44" r="2.06" style="stroke-width: 0.71;stroke: #C77CFF;stroke-opacity: 0.70;fill: #C77CFF;fill-opacity: 0.70;"/>
<circle cx="613.67" cy="506.90" r="2.06" style="stroke-width: 0.71;stroke: #C77CFF;stroke-opacity: 0.70;fill: #C77CFF;fill-opacity: 0.70;"/>
<circle cx="613.67" cy="507.44" r="2.06" style="stroke-width: 0.71;stroke: #C77CFF;stroke-opacity: 0.70;fill: #C77CFF;fill-opacity: 0.70;"/>
<circle cx="65.44" cy="46.24" r="2.06" style="stroke-width: 0.71;stroke: #00BFC4;stroke-opacity: 0.70;fill: #00BFC4;fill-opacity: 0.70;"/>
<circle cx="65.44" cy="46.24" r="2.06" style="stroke-width: 0.71;stroke: #00BFC4;stroke-opacity: 0.70;fill: #00BFC4;fill-opacity: 0.70;"/>
<circle cx="65.44" cy="46.24" r="2.06" style="stroke-width: 0.71;stroke: #00BFC4;stroke-opacity: 0.70;fill: #00BFC4;fill-opacity: 0.70;"/>
<circle cx="157.08" cy="46.24" r="2.06" style="stroke-width: 0.71;stroke: #00BFC4;stroke-opacity: 0.70;fill: #00BFC4;fill-opacity: 0.70;"/>
<circle cx="157.08" cy="46.24" r="2.06" style="stroke-width: 0.71;stroke: #00BFC4;stroke-opacity: 0.70;fill: #00BFC4;fill-opacity: 0.70;"/>
<circle cx="157.08" cy="46.24" r="2.06" style="stroke-width: 0.71;stroke: #00BFC4;stroke-opacity: 0.70;fill: #00BFC4;fill-opacity: 0.70;"/>
<circle cx="248.71" cy="90.09" r="2.06" style="stroke-width: 0.71;stroke: #00BFC4;stroke-opacity: 0.70;fill: #00BFC4;fill-opacity: 0.70;"/>
<circle cx="248.71" cy="184.90" r="2.06" style="stroke-width: 0.71;stroke: #00BFC4;stroke-opacity: 0.70;fill: #00BFC4;fill-opacity: 0.70;"/>
<circle cx="248.71" cy="205.40" r="2.06" style="stroke-width: 0.71;stroke: #00BFC4;stroke-opacity: 0.70;fill: #00BFC4;fill-opacity: 0.70;"/>
<circle cx="338.77" cy="507.44" r="2.06" style="stroke-width: 0.71;stroke: #00BFC4;stroke-opacity: 0.70;fill: #00BFC4;fill-opacity: 0.70;"/>
<circle cx="338.77" cy="507.38" r="2.06" style="stroke-width: 0.71;stroke: #00BFC4;stroke-opacity: 0.70;fill: #00BFC4;fill-opacity: 0.70;"/>
<circle cx="338.77" cy="498.28" r="2.06" style="stroke-width: 0.71;stroke: #00BFC4;stroke-opacity: 0.70;fill: #00BFC4;fill-opacity: 0.70;"/>
<circle cx="430.40" cy="507.44" r="2.06" style="stroke-width: 0.71;stroke: #00BFC4;stroke-opacity: 0.70;fill: #00BFC4;fill-opacity: 0.70;"/>
<circle cx="430.40" cy="507.44" r="2.06" style="stroke-width: 0.71;stroke: #00BFC4;stroke-opacity: 0.70;fill: #00BFC4;fill-opacity: 0.70;"/>
<circle cx="430.40" cy="507.44" r="2.06" style="stroke-width: 0.71;stroke: #00BFC4;stroke-opacity: 0.70;fill: #00BFC4;fill-opacity: 0.70;"/>
<circle cx="522.03" cy="507.44" r="2.06" style="stroke-width: 0.71;stroke: #00BFC4;stroke-opacity: 0.70;fill: #00BFC4;fill-opacity: 0.70;"/>
<circle cx="522.03" cy="507.44" r="2.06" style="stroke-width: 0.71;stroke: #00BFC4;stroke-opacity: 0.70;fill: #00BFC4;fill-opacity: 0.70;"/>
<circle cx="522.03" cy="506.50" r="2.06" style="stroke-width: 0.71;stroke: #00BFC4;stroke-opacity: 0.70;fill: #00BFC4;fill-opacity: 0.70;"/>
<circle cx="613.67" cy="507.44" r="2.06" style="stroke-width: 0.71;stroke: #00BFC4;stroke-opacity: 0.70;fill: #00BFC4;fill-opacity: 0.70;"/>
<circle cx="613.67" cy="507.44" r="2.06" style="stroke-width: 0.71;stroke: #00BFC4;stroke-opacity: 0.70;fill: #00BFC4;fill-opacity: 0.70;"/>
<circle cx="613.67" cy="505.98" r="2.06" style="stroke-width: 0.71;stroke: #00BFC4;stroke-opacity: 0.70;fill: #00BFC4;fill-opacity: 0.70;"/>
<circle cx="65.44" cy="227.76" r="2.06" style="stroke-width: 0.71;stroke: #7CAE00;stroke-opacity: 0.70;fill: #7CAE00;fill-opacity: 0.70;"/>
<circle cx="65.44" cy="214.08" r="2.06" style="stroke-width: 0.71;stroke: #7CAE00;stroke-opacity: 0.70;fill: #7CAE00;fill-opacity: 0.70;"/>
<circle cx="65.44" cy="97.50" r="2.06" style="stroke-width: 0.71;stroke: #7CAE00;stroke-opacity: 0.70;fill: #7CAE00;fill-opacity: 0.70;"/>
<circle cx="157.08" cy="183.87" r="2.06" style="stroke-width: 0.71;stroke: #7CAE00;stroke-opacity: 0.70;fill: #7CAE00;fill-opacity: 0.70;"/>
<circle cx="157.08" cy="145.43" r="2.06" style="stroke-width: 0.71;stroke: #7CAE00;stroke-opacity: 0.70;fill: #7CAE00;fill-opacity: 0.70;"/>
<circle cx="157.08" cy="118.53" r="2.06" style="stroke-width: 0.71;stroke: #7CAE00;stroke-opacity: 0.70;fill: #7CAE00;fill-opacity: 0.70;"/>
<circle cx="248.71" cy="315.58" r="2.06" style="stroke-width: 0.71;stroke: #7CAE00;stroke-opacity: 0.70;fill: #7CAE00;fill-opacity: 0.70;"/>
<circle cx="248.71" cy="274.19" r="2.06" style="stroke-width: 0.71;stroke: #7CAE00;stroke-opacity: 0.70;fill: #7CAE00;fill-opacity: 0.70;"/>
<circle cx="248.71" cy="208.22" r="2.06" style="stroke-width: 0.71;stroke: #7CAE00;stroke-opacity: 0.70;fill: #7CAE00;fill-opacity: 0.70;"/>
<circle cx="338.77" cy="507.44" r="2.06" style="stroke-width: 0.71;stroke: #7CAE00;stroke-opacity: 0.70;fill: #7CAE00;fill-opacity: 0.70;"/>
<circle cx="338.77" cy="507.44" r="2.06" style="stroke-width: 0.71;stroke: #7CAE00;stroke-opacity: 0.70;fill: #7CAE00;fill-opacity: 0.70;"/>
<circle cx="338.77" cy="507.44" r="2.06" style="stroke-width: 0.71;stroke: #7CAE00;stroke-opacity: 0.70;fill: #7CAE00;fill-opacity: 0.70;"/>
<circle cx="430.40" cy="507.44" r="2.06" style="stroke-width: 0.71;stroke: #7CAE00;stroke-opacity: 0.70;fill: #7CAE00;fill-opacity: 0.70;"/>
<circle cx="430.40" cy="507.44" r="2.06" style="stroke-width: 0.71;stroke: #7CAE00;stroke-opacity: 0.70;fill: #7CAE00;fill-opacity: 0.70;"/>
<circle cx="430.40" cy="507.44" r="2.06" style="stroke-width: 0.71;stroke: #7CAE00;stroke-opacity: 0.70;fill: #7CAE00;fill-opacity: 0.70;"/>
<circle cx="522.03" cy="507.44" r="2.06" style="stroke-width: 0.71;stroke: #7CAE00;stroke-opacity: 0.70;fill: #7CAE00;fill-opacity: 0.70;"/>
<circle cx="522.03" cy="507.44" r="2.06" style="stroke-width: 0.71;stroke: #7CAE00;stroke-opacity: 0.70;fill: #7CAE00;fill-opacity: 0.70;"/>
<circle cx="522.03" cy="507.44" r="2.06" style="stroke-width: 0.71;stroke: #7CAE00;stroke-opacity: 0.70;fill: #7CAE00;fill-opacity: 0.70;"/>
<circle cx="613.67" cy="507.44" r="2.06" style="stroke-width: 0.71;stroke: #7CAE00;stroke-opacity: 0.70;fill: #7CAE00;fill-opacity: 0.70;"/>
<circle cx="613.67" cy="507.44" r="2.06" style="stroke-width: 0.71;stroke: #7CAE00;stroke-opacity: 0.70;fill: #7CAE00;fill-opacity: 0.70;"/>
<circle cx="613.67" cy="496.61" r="2.06" style="stroke-width: 0.71;stroke: #7CAE00;stroke-opacity: 0.70;fill: #7CAE00;fill-opacity: 0.70;"/>
<polyline points="65.44,50.94 68.20,50.95 70.95,50.95 73.71,50.95 76.46,50.95 79.22,50.95 81.97,50.95 84.73,50.95 87.48,50.95 90.24,50.96 92.99,50.96 95.75,50.96 98.50,50.97 101.26,50.97 104.01,50.98 106.77,50.98 109.52,50.99 112.28,51.00 115.03,51.01 117.79,51.02 120.54,51.03 123.30,51.04 126.05,51.06 128.81,51.08 131.56,51.10 134.32,51.13 137.07,51.16 139.83,51.20 142.58,51.25 145.34,51.30 148.09,51.36 150.85,51.43 153.60,51.51 156.36,51.61 159.11,51.73 161.87,51.86 164.62,52.02 167.38,52.21 170.13,52.43 172.89,52.68 175.64,52.99 178.39,53.34 181.15,53.76 183.90,54.25 186.66,54.83 189.41,55.51 192.17,56.31 194.92,57.25 197.68,58.35 200.43,59.64 203.19,61.17 205.94,62.95 208.70,65.04 211.45,67.49 214.21,70.35 216.96,73.70 219.72,77.59 222.47,82.11 225.23,87.35 227.98,93.40 230.74,100.35 233.49,108.31 236.25,117.36 239.00,127.59 241.76,139.06 244.51,151.82 247.27,165.88 250.02,181.20 252.78,197.69 255.53,215.23 258.29,233.62 261.04,252.63 263.80,272.00 266.55,291.43 269.31,310.65 272.06,329.36 274.82,347.35 277.57,364.39 280.33,380.35 283.08,395.12 285.83,408.64 288.59,420.91 291.34,431.94 294.10,441.78 296.85,450.51 299.61,458.21 302.36,464.96 305.12,470.85 307.87,475.97 310.63,480.42 313.38,484.26 316.14,487.57 318.89,490.43 321.65,492.88 324.40,494.99 327.16,496.79 329.91,498.34 332.67,499.66 335.42,500.79 338.18,501.76 340.93,502.58 343.69,503.29 346.44,503.89 349.20,504.41 351.95,504.85 354.71,505.22 357.46,505.54 360.22,505.82 362.97,506.05 365.73,506.25 368.48,506.42 371.24,506.57 373.99,506.69 376.75,506.80 379.50,506.89 382.26,506.97 385.01,507.04 387.77,507.10 390.52,507.15 393.28,507.19 396.03,507.22 398.78,507.25 401.54,507.28 404.29,507.30 407.05,507.32 409.80,507.34 412.56,507.35 415.31,507.37 418.07,507.38 420.82,507.39 423.58,507.39 426.33,507.40 429.09,507.41 431.84,507.41 434.60,507.42 437.35,507.42 440.11,507.42 442.86,507.43 445.62,507.43 448.37,507.43 451.13,507.43 453.88,507.43 456.64,507.43 459.39,507.44 462.15,507.44 464.90,507.44 467.66,507.44 470.41,507.44 473.17,507.44 475.92,507.44 478.68,507.44 481.43,507.44 484.19,507.44 486.94,507.44 489.70,507.44 492.45,507.44 495.21,507.44 497.96,507.44 500.72,507.44 503.47,507.44 506.22,507.44 508.98,507.44 511.73,507.44 514.49,507.44 517.24,507.44 520.00,507.44 522.75,507.44 525.51,507.44 528.26,507.44 531.02,507.44 533.77,507.44 536.53,507.44 539.28,507.44 542.04,507.44 544.79,507.44 547.55,507.44 550.30,507.44 553.06,507.44 555.81,507.44 558.57,507.44 561.32,507.44 564.08,507.44 566.83,507.44 569.59,507.44 572.34,507.44 575.10,507.44 577.85,507.44 580.61,507.44 583.36,507.44 586.12,507.44 588.87,507.44 591.63,507.44 594.38,507.44 597.14,507.44 599.89,507.44 602.65,507.44 605.40,507.44 608.16,507.44 610.91,507.44 613.67,507.44" style="stroke-width: 1.71;stroke: #F8766D;stroke-linecap: butt;"/>
<polyline points="65.44,172.29 68.20,172.31 70.95,172.34 73.71,172.36 76.46,172.39 79.22,172.41 81.97,172.44 84.73,172.47 87.48,172.50 90.24,172.53 92.99,172.56 95.75,172.59 98.50,172.62 101.26,172.66 104.01,172.69 106.77,172.73 109.52,172.76 112.28,172.80 115.03,172.84 117.79,172.88 120.54,172.93 123.30,172.97 126.05,173.02 128.81,173.07 131.56,173.12 134.32,173.17 137.07,173.22 139.83,173.28 142.58,173.34 145.34,173.40 148.09,173.46 150.85,173.53 153.60,173.60 156.36,173.67 159.11,173.75 161.87,173.83 164.62,173.91 167.38,174.00 170.13,174.10 172.89,174.19 175.64,174.30 178.39,174.41 181.15,174.54 183.90,174.76 186.66,175.31 189.41,176.35 192.17,177.78 194.92,180.09 197.68,183.31 200.43,187.43 203.19,193.25 205.94,199.92 208.70,206.97 211.45,214.74 214.21,224.41 216.96,236.24 219.72,248.71 222.47,261.45 225.23,273.97 227.98,286.53 230.74,300.10 233.49,315.23 236.25,331.92 239.00,349.81 241.76,368.49 244.51,387.38 247.27,405.60 250.02,422.32 252.78,437.07 255.53,449.64 258.29,460.01 261.04,468.36 263.80,474.97 266.55,480.19 269.31,484.31 272.06,487.58 274.82,490.20 277.57,492.30 280.33,494.02 283.08,495.42 285.83,496.57 288.59,497.54 291.34,498.35 294.10,499.04 296.85,499.63 299.61,500.14 302.36,500.58 305.12,500.97 307.87,501.32 310.63,501.63 313.38,501.91 316.14,502.16 318.89,502.39 321.65,502.60 324.40,502.79 327.16,502.97 329.91,503.14 332.67,503.29 335.42,503.43 338.18,503.57 340.93,503.70 343.69,503.81 346.44,503.93 349.20,504.03 351.95,504.13 354.71,504.23 357.46,504.32 360.22,504.41 362.97,504.49 365.73,504.57 368.48,504.64 371.24,504.71 373.99,504.78 376.75,504.85 379.50,504.91 382.26,504.97 385.01,505.03 387.77,505.09 390.52,505.14 393.28,505.19 396.03,505.24 398.78,505.29 401.54,505.33 404.29,505.38 407.05,505.42 409.80,505.46 412.56,505.50 415.31,505.54 418.07,505.58 420.82,505.61 423.58,505.65 426.33,505.68 429.09,505.71 431.84,505.74 434.60,505.77 437.35,505.80 440.11,505.83 442.86,505.86 445.62,505.89 448.37,505.91 451.13,505.94 453.88,505.96 456.64,505.99 459.39,506.01 462.15,506.03 464.90,506.05 467.66,506.07 470.41,506.09 473.17,506.11 475.92,506.13 478.68,506.15 481.43,506.17 484.19,506.19 486.94,506.21 489.70,506.22 492.45,506.24 495.21,506.26 497.96,506.27 500.72,506.29 503.47,506.30 506.22,506.32 508.98,506.33 511.73,506.35 514.49,506.36 517.24,506.37 520.00,506.39 522.75,506.40 525.51,506.41 528.26,506.42 531.02,506.44 533.77,506.45 536.53,506.46 539.28,506.47 542.04,506.48 544.79,506.49 547.55,506.50 550.30,506.51 553.06,506.52 555.81,506.53 558.57,506.54 561.32,506.55 564.08,506.56 566.83,506.57 569.59,506.58 572.34,506.59 575.10,506.60 577.85,506.61 580.61,506.61 583.36,506.62 586.12,506.63 588.87,506.64 591.63,506.65 594.38,506.65 597.14,506.66 599.89,506.67 602.65,506.68 605.40,506.68 608.16,506.69 610.91,506.70 613.67,506.70" style="stroke-width: 1.71;stroke: #7CAE00;stroke-linecap: butt;"/>
<polyline points="65.44,46.24 68.20,46.24 70.95,46.24 73.71,46.24 76.46,46.24 79.22,46.24 81.97,46.24 84.73,46.24 87.48,46.24 90.24,46.24 92.99,46.24 95.75,46.24 98.50,46.24 101.26,46.24 104.01,46.24 106.77,46.24 109.52,46.24 112.28,46.24 115.03,46.24 117.79,46.24 120.54,46.24 123.30,46.24 126.05,46.25 128.81,46.25 131.56,46.25 134.32,46.25 137.07,46.25 139.83,46.26 142.58,46.26 145.34,46.27 148.09,46.27 150.85,46.28 153.60,46.29 156.36,46.30 159.11,46.31 161.87,46.33 164.62,46.35 167.38,46.38 170.13,46.41 172.89,46.45 175.64,46.51 178.39,46.57 181.15,46.66 183.90,46.76 186.66,46.90 189.41,47.06 192.17,47.28 194.92,47.56 197.68,47.91 200.43,48.36 203.19,48.93 205.94,49.68 208.70,50.64 211.45,51.88 214.21,53.47 216.96,55.54 219.72,58.22 222.47,61.69 225.23,66.17 227.98,71.95 230.74,79.38 233.49,88.87 236.25,100.89 239.00,115.92 241.76,134.42 244.51,156.69 247.27,182.74 250.02,212.18 252.78,244.12 255.53,277.30 258.29,310.22 261.04,341.50 263.80,370.06 266.55,395.25 269.31,416.84 272.06,434.90 274.82,449.74 277.57,461.77 280.33,471.40 283.08,479.05 285.83,485.10 288.59,489.85 291.34,493.59 294.10,496.51 296.85,498.80 299.61,500.59 302.36,501.99 305.12,503.09 307.87,503.95 310.63,504.63 313.38,505.16 316.14,505.58 318.89,505.91 321.65,506.17 324.40,506.38 327.16,506.54 329.91,506.67 332.67,506.78 335.42,506.86 338.18,506.93 340.93,506.98 343.69,507.03 346.44,507.06 349.20,507.09 351.95,507.11 354.71,507.13 357.46,507.14 360.22,507.16 362.97,507.17 365.73,507.17 368.48,507.18 371.24,507.19 373.99,507.19 376.75,507.19 379.50,507.20 382.26,507.20 385.01,507.20 387.77,507.20 390.52,507.21 393.28,507.21 396.03,507.21 398.78,507.21 401.54,507.21 404.29,507.21 407.05,507.21 409.80,507.21 412.56,507.21 415.31,507.21 418.07,507.21 420.82,507.21 423.58,507.21 426.33,507.21 429.09,507.21 431.84,507.21 434.60,507.21 437.35,507.21 440.11,507.21 442.86,507.21 445.62,507.21 448.37,507.21 451.13,507.21 453.88,507.21 456.64,507.21 459.39,507.21 462.15,507.21 464.90,507.21 467.66,507.21 470.41,507.21 473.17,507.21 475.92,507.21 478.68,507.21 481.43,507.21 484.19,507.21 486.94,507.21 489.70,507.21 492.45,507.21 495.21,507.21 497.96,507.21 500.72,507.21 503.47,507.21 506.22,507.21 508.98,507.21 511.73,507.21 514.49,507.21 517.24,507.21 520.00,507.21 522.75,507.21 525.51,507.21 528.26,507.21 531.02,507.21 533.77,507.21 536.53,507.21 539.28,507.21 542.04,507.21 544.79,507.21 547.55,507.21 550.30,507.21 553.06,507.21 555.81,507.21 558.57,507.21 561.32,507.21 564.08,507.21 566.83,507.21 569.59,507.21 572.34,507.21 575.10,507.21 577.85,507.21 580.61,507.21 583.36,507.21 586.12,507.21 588.87,507.21 591.63,507.21 594.38,507.21 597.14,507.21 599.89,507.21 602.65,507.21 605.40,507.21 608.16,507.21 610.91,507.21 613.67,507.21" style="stroke-width: 1.71;stroke: #00BFC4;stroke-linecap: butt;"/>
<polyline points="65.44,47.38 68.20,47.47 70.95,47.56 73.71,47.66 76.46,47.77 79.22,47.89 81.97,48.02 84.73,48.16 87.48,48.31 90.24,48.47 92.99,48.65 95.75,48.84 98.50,49.05 101.26,49.28 104.01,49.52 106.77,49.79 109.52,50.09 112.28,50.40 115.03,50.75 117.79,51.13 120.54,51.54 123.30,51.99 126.05,52.47 128.81,53.01 131.56,53.59 134.32,54.22 137.07,54.91 139.83,55.66 142.58,56.48 145.34,57.38 148.09,58.36 150.85,59.42 153.60,60.59 156.36,61.86 159.11,63.25 161.87,64.77 164.62,66.42 167.38,68.23 170.13,70.20 172.89,72.35 175.64,74.70 178.39,77.25 181.15,80.03 183.90,83.06 186.66,86.36 189.41,89.94 192.17,93.82 194.92,98.04 197.68,102.61 200.43,107.55 203.19,112.88 205.94,118.63 208.70,124.81 211.45,131.45 214.21,138.55 216.96,146.13 219.72,154.20 222.47,162.76 225.23,171.81 227.98,181.33 230.74,191.31 233.49,201.72 236.25,212.53 239.00,223.69 241.76,235.16 244.51,246.87 247.27,258.77 250.02,270.77 252.78,282.82 255.53,294.83 258.29,306.74 261.04,318.47 263.80,329.95 266.55,341.14 269.31,351.97 272.06,362.40 274.82,372.41 277.57,381.95 280.33,391.01 283.08,399.59 285.83,407.68 288.59,415.27 291.34,422.39 294.10,429.03 296.85,435.22 299.61,440.97 302.36,446.31 305.12,451.25 307.87,455.82 310.63,460.03 313.38,463.91 316.14,467.49 318.89,470.78 321.65,473.80 324.40,476.58 327.16,479.13 329.91,481.47 332.67,483.61 335.42,485.57 338.18,487.37 340.93,489.02 343.69,490.53 346.44,491.92 349.20,493.19 351.95,494.35 354.71,495.41 357.46,496.38 360.22,497.27 362.97,498.09 365.73,498.84 368.48,499.53 371.24,500.15 373.99,500.73 376.75,501.26 379.50,501.74 382.26,502.19 385.01,502.60 387.77,502.97 390.52,503.32 393.28,503.63 396.03,503.92 398.78,504.19 401.54,504.44 404.29,504.66 407.05,504.87 409.80,505.06 412.56,505.24 415.31,505.40 418.07,505.55 420.82,505.69 423.58,505.81 426.33,505.93 429.09,506.04 431.84,506.14 434.60,506.23 437.35,506.32 440.11,506.40 442.86,506.47 445.62,506.54 448.37,506.60 451.13,506.66 453.88,506.71 456.64,506.76 459.39,506.81 462.15,506.85 464.90,506.89 467.66,506.92 470.41,506.96 473.17,506.99 475.92,507.02 478.68,507.05 481.43,507.07 484.19,507.10 486.94,507.12 489.70,507.14 492.45,507.16 495.21,507.18 497.96,507.19 500.72,507.21 503.47,507.22 506.22,507.24 508.98,507.25 511.73,507.26 514.49,507.27 517.24,507.28 520.00,507.29 522.75,507.30 525.51,507.31 528.26,507.32 531.02,507.32 533.77,507.33 536.53,507.34 539.28,507.34 542.04,507.35 544.79,507.35 547.55,507.36 550.30,507.36 553.06,507.37 555.81,507.37 558.57,507.38 561.32,507.38 564.08,507.38 566.83,507.39 569.59,507.39 572.34,507.39 575.10,507.39 577.85,507.40 580.61,507.40 583.36,507.40 586.12,507.40 588.87,507.41 591.63,507.41 594.38,507.41 597.14,507.41 599.89,507.41 602.65,507.41 605.40,507.42 608.16,507.42 610.91,507.42 613.67,507.42" style="stroke-width: 1.71;stroke: #C77CFF;stroke-linecap: butt;"/>
</g><g clip-path="url(#c2)">
<g><text x="33.10" y="510.59" text-anchor="end" style="font-family: Arial;font-size: 8.80px;fill: #4D4D4D;" textLength="4.90px" lengthAdjust="spacingAndGlyphs">0</text></g>
<g><text x="33.10" y="395.29" text-anchor="end" style="font-family: Arial;font-size: 8.80px;fill: #4D4D4D;" textLength="9.79px" lengthAdjust="spacingAndGlyphs">25</text></g>
<g><text x="33.10" y="279.99" text-anchor="end" style="font-family: Arial;font-size: 8.80px;fill: #4D4D4D;" textLength="9.79px" lengthAdjust="spacingAndGlyphs">50</text></g>
<g><text x="33.10" y="164.69" text-anchor="end" style="font-family: Arial;font-size: 8.80px;fill: #4D4D4D;" textLength="9.79px" lengthAdjust="spacingAndGlyphs">75</text></g>
<g><text x="33.10" y="49.39" text-anchor="end" style="font-family: Arial;font-size: 8.80px;fill: #4D4D4D;" textLength="14.69px" lengthAdjust="spacingAndGlyphs">100</text></g>
<g><text x="111.26" y="541.74" text-anchor="middle" style="font-family: Arial;font-size: 8.80px;fill: #4D4D4D;" textLength="24.72px" lengthAdjust="spacingAndGlyphs">1e+02</text></g>
<g><text x="263.46" y="541.74" text-anchor="middle" style="font-family: Arial;font-size: 8.80px;fill: #4D4D4D;" textLength="24.72px" lengthAdjust="spacingAndGlyphs">1e+03</text></g>
<g><text x="415.65" y="541.74" text-anchor="middle" style="font-family: Arial;font-size: 8.80px;fill: #4D4D4D;" textLength="24.72px" lengthAdjust="spacingAndGlyphs">1e+04</text></g>
<g><text x="567.85" y="541.74" text-anchor="middle" style="font-family: Arial;font-size: 8.80px;fill: #4D4D4D;" textLength="24.72px" lengthAdjust="spacingAndGlyphs">1e+05</text></g>
<g><text x="339.55" y="554.20" text-anchor="middle" style="font-family: Arial;font-size: 11.00px;" textLength="50.36px" lengthAdjust="spacingAndGlyphs">Dose [M]</text></g>
<g><text transform="translate(13.36,276.84) rotate(-90.00)" text-anchor="middle" style="font-family: Arial;font-size: 11.00px;" textLength="57.87px" lengthAdjust="spacingAndGlyphs">Viability (%)</text></g>
<g><text x="657.51" y="243.48" style="font-family: Arial;font-size: 11.00px;" textLength="53.83px" lengthAdjust="spacingAndGlyphs">Compound</text></g>
<circle cx="666.15" cy="258.76" r="2.06" style="stroke-width: 0.71;stroke: #F8766D;stroke-opacity: 0.70;fill: #F8766D;fill-opacity: 0.70;"/>
<line x1="659.24" y1="258.76" x2="673.07" y2="258.76" style="stroke-width: 1.71;stroke: #F8766D;stroke-linecap: butt;"/>
<circle cx="666.15" cy="276.04" r="2.06" style="stroke-width: 0.71;stroke: #7CAE00;stroke-opacity: 0.70;fill: #7CAE00;fill-opacity: 0.70;"/>
<line x1="659.24" y1="276.04" x2="673.07" y2="276.04" style="stroke-width: 1.71;stroke: #7CAE00;stroke-linecap: butt;"/>
<circle cx="666.15" cy="293.32" r="2.06" style="stroke-width: 0.71;stroke: #00BFC4;stroke-opacity: 0.70;fill: #00BFC4;fill-opacity: 0.70;"/>
<line x1="659.24" y1="293.32" x2="673.07" y2="293.32" style="stroke-width: 1.71;stroke: #00BFC4;stroke-linecap: butt;"/>
<circle cx="666.15" cy="310.60" r="2.06" style="stroke-width: 0.71;stroke: #C77CFF;stroke-opacity: 0.70;fill: #C77CFF;fill-opacity: 0.70;"/>
<line x1="659.24" y1="310.60" x2="673.07" y2="310.60" style="stroke-width: 1.71;stroke: #C77CFF;stroke-linecap: butt;"/>
<g><text x="680.27" y="261.91" style="font-family: Arial;font-size: 8.80px;" textLength="45.48px" lengthAdjust="spacingAndGlyphs">KBrO3 (A1)</text></g>
<g><text x="680.27" y="279.19" style="font-family: Arial;font-size: 8.80px;" textLength="77.77px" lengthAdjust="spacingAndGlyphs">KBrO3_Erastin (A4)</text></g>
<g><text x="680.27" y="296.47" style="font-family: Arial;font-size: 8.80px;" textLength="68.95px" lengthAdjust="spacingAndGlyphs">KBrO3_NAC (A3)</text></g>
<g><text x="680.27" y="313.75" style="font-family: Arial;font-size: 8.80px;" textLength="67.97px" lengthAdjust="spacingAndGlyphs">KBrO3_SFN (A2)</text></g>
<g><text x="38.03" y="14.93" style="font-family: Arial;font-size: 13.20px;" textLength="400.36px" lengthAdjust="spacingAndGlyphs">Patient ASC399  doseresponse across compounds (ASC399cse)</text></g>
</g>
</svg>