<svg xmlns="http://www.w3.org/2000/svg" xmlns:xlink="http://www.w3.org/1999/xlink" class="httpgd" width="769.00" height="562.00" viewBox="0 0 769.00 562.00">
<defs>
  <style type='text/css'><![CDATA[
    .httpgd line, .httpgd polyline, .httpgd polygon, .httpgd path, .httpgd rect, .httpgd circle {
      fill: none;
      stroke: #000000;
      stroke-linecap: round;
      stroke-linejoin: round;
      stroke-miterlimit: 10.00;
    }
  ]]></style>
<clipPath id="c0"><rect x="0.00" y="0.00" width="769.00" height="562.00"/></clipPath>
<clipPath id="c1"><rect x="38.03" y="23.18" width="603.04" height="507.33"/></clipPath>
<clipPath id="c2"><rect x="0.00" y="0.00" width="769.00" height="562.00"/></clipPath>
</defs>
<rect width="100%" height="100%" style="stroke: none;fill: #FFFFFF;"/>
<g clip-path="url(#c0)">
</g><g clip-path="url(#c1)">
<polyline points="38.03,507.44 641.08,507.44" style="stroke-width: 1.07;stroke: #EBEBEB;stroke-linecap: butt;"/>
<polyline points="38.03,392.14 641.08,392.14" style="stroke-width: 1.07;stroke: #EBEBEB;stroke-linecap: butt;"/>
<polyline points="38.03,276.84 641.08,276.84" style="stroke-width: 1.07;stroke: #EBEBEB;stroke-linecap: butt;"/>
<polyline points="38.03,161.54 641.08,161.54" style="stroke-width: 1.07;stroke: #EBEBEB;stroke-linecap: butt;"/>
<polyline points="38.03,46.24 641.08,46.24" style="stroke-width: 1.07;stroke: #EBEBEB;stroke-linecap: butt;"/>
<polyline points="111.26,530.50 111.26,23.18" style="stroke-width: 1.07;stroke: #EBEBEB;stroke-linecap: butt;"/>
<polyline points="263.46,530.50 263.46,23.18" style="stroke-width: 1.07;stroke: #EBEBEB;stroke-linecap: butt;"/>
<polyline points="415.65,530.50 415.65,23.18" style="stroke-width: 1.07;stroke: #EBEBEB;stroke-linecap: butt;"/>
<polyline points="567.85,530.50 567.85,23.18" style="stroke-width: 1.07;stroke: #EBEBEB;stroke-linecap: butt;"/>
<polygon points="65.44,46.24 68.20,46.24 70.95,46.24 73.71,46.24 76.46,46.24 79.22,46.24 81.97,46.24 84.73,46.24 87.48,46.24 90.24,46.24 92.99,46.24 95.75,46.24 98.50,46.24 101.26,46.24 104.01,46.24 106.77,46.24 109.52,46.24 112.28,46.24 115.03,46.24 117.79,46.24 120.54,46.24 123.30,46.24 126.05,46.24 128.81,46.24 131.56,46.24 134.32,46.24 137.07,46.25 139.83,46.25 142.58,46.25 145.34,46.26 148.09,46.26 150.85,46.27 153.60,46.28 156.36,46.29 159.11,46.30 161.87,46.32 164.62,46.34 167.38,46.38 170.13,46.42 172.89,46.47 175.64,46.53 178.39,46.62 181.15,46.73 183.90,46.87 186.66,47.05 189.41,47.28 192.17,47.58 194.92,47.97 197.68,48.46 200.43,49.10 203.19,49.92 205.94,50.97 208.70,52.31 211.45,54.03 214.21,56.22 216.96,59.00 219.72,62.53 222.47,67.02 225.23,72.65 227.98,79.70 230.74,88.48 233.49,99.23 236.25,112.32 239.00,127.91 241.76,146.21 244.51,166.69 247.27,187.97 250.02,209.10 252.78,228.68 255.53,246.78 258.29,264.69 261.04,282.74 263.80,300.75 266.55,318.49 269.31,335.64 272.06,352.19 274.82,367.80 277.57,382.51 280.33,396.23 283.08,408.87 285.83,420.44 288.59,430.94 291.34,440.39 294.10,448.86 296.85,456.39 299.61,463.07 302.36,468.95 305.12,474.11 307.87,478.63 310.63,482.58 313.38,486.01 316.14,488.98 318.89,491.56 321.65,493.79 324.40,495.71 327.16,497.37 329.91,498.80 332.67,500.03 335.42,501.09 338.18,502.00 340.93,502.78 343.69,503.45 346.44,504.02 349.20,504.51 351.95,504.93 354.71,505.29 357.46,505.60 360.22,505.87 362.97,506.10 365.73,506.29 368.48,506.46 371.24,506.60 373.99,506.72 376.75,506.83 379.50,506.91 382.26,506.99 385.01,507.06 387.77,507.11 390.52,507.16 393.28,507.20 396.03,507.24 398.78,507.27 401.54,507.29 404.29,507.31 407.05,507.33 409.80,507.35 412.56,507.36 415.31,507.37 418.07,507.38 420.82,507.39 423.58,507.40 426.33,507.41 429.09,507.41 431.84,507.42 434.60,507.42 437.35,507.42 440.11,507.43 442.86,507.43 445.62,507.43 448.37,507.43 451.13,507.43 453.88,507.44 456.64,507.44 459.39,507.44 462.15,507.44 464.90,507.44 467.66,507.44 470.41,507.44 473.17,507.44 475.92,507.44 478.68,507.44 481.43,507.44 484.19,507.44 486.94,507.44 489.70,507.44 492.45,507.44 495.21,507.44 497.96,507.44 500.72,507.44 503.47,507.44 506.22,507.44 508.98,507.44 511.73,507.44 514.49,507.44 517.24,507.44 520.00,507.44 522.75,507.44 525.51,507.44 528.26,507.44 531.02,507.44 533.77,507.44 536.53,507.44 539.28,507.44 542.04,507.44 544.79,507.44 547.55,507.44 550.30,507.44 553.06,507.44 555.81,507.44 558.57,507.44 561.32,507.44 564.08,507.44 566.83,507.44 569.59,507.44 572.34,507.44 575.10,507.44 577.85,507.44 580.61,507.44 583.36,507.44 586.12,507.44 588.87,507.44 591.63,507.44 594.38,507.44 597.14,507.44 599.89,507.44 602.65,507.44 605.40,507.44 608.16,507.44 610.91,507.44 613.67,507.44 613.67,507.44 610.91,507.44 608.16,507.44 605.40,507.44 602.65,507.44 599.89,507.44 597.14,507.44 594.38,507.44 591.63,507.44 588.87,507.44 586.12,507.44 583.36,507.44 580.61,507.44 577.85,507.44 575.10,507.44 572.34,507.44 569.59,507.44 566.83,507.44 564.08,507.44 561.32,507.44 558.57,507.44 555.81,507.44 553.06,507.44 550.30,507.44 547.55,507.44 544.79,507.44 542.04,507.44 539.28,507.44 536.53,507.44 533.77,507.44 531.02,507.44 528.26,507.44 525.51,507.44 522.75,507.44 520.00,507.44 517.24,507.44 514.49,507.44 511.73,507.44 508.98,507.44 506.22,507.44 503.47,507.44 500.72,507.44 497.96,507.44 495.21,507.44 492.45,507.44 489.70,507.44 486.94,507.44 484.19,507.44 481.43,507.44 478.68,507.44 475.92,507.44 473.17,507.44 470.41,507.44 467.66,507.44 464.90,507.44 462.15,507.44 459.39,507.44 456.64,507.44 453.88,507.44 451.13,507.44 448.37,507.44 445.62,507.44 442.86,507.44 440.11,507.44 437.35,507.44 434.60,507.44 431.84,507.44 429.09,507.44 426.33,507.44 423.58,507.44 420.82,507.44 418.07,507.44 415.31,507.44 412.56,507.44 409.80,507.44 407.05,507.44 404.29,507.44 401.54,507.44 398.78,507.44 396.03,507.44 393.28,507.44 390.52,507.44 387.77,507.44 385.01,507.44 382.26,507.44 379.50,507.44 376.75,507.44 373.99,507.43 371.24,507.43 368.48,507.43 365.73,507.42 362.97,507.42 360.22,507.41 357.46,507.40 354.71,507.39 351.95,507.38 349.20,507.36 346.44,507.33 343.69,507.30 340.93,507.26 338.18,507.21 335.42,507.14 332.67,507.05 329.91,506.94 327.16,506.79 324.40,506.60 321.65,506.36 318.89,506.05 316.14,505.65 313.38,505.14 310.63,504.48 307.87,503.64 305.12,502.56 302.36,501.17 299.61,499.40 296.85,497.15 294.10,494.27 291.34,490.62 288.59,486.02 285.83,480.22 283.08,472.98 280.33,463.98 277.57,452.94 274.82,439.54 272.06,423.54 269.31,404.67 266.55,382.96 263.80,358.73 261.04,332.25 258.29,304.08 255.53,275.03 252.78,246.00 250.02,218.16 247.27,196.34 244.51,180.81 241.76,166.42 239.00,153.10 236.25,140.75 233.49,129.61 230.74,119.55 227.98,110.43 225.23,102.28 222.47,95.03 219.72,88.62 216.96,83.01 214.21,78.08 211.45,73.77 208.70,70.01 205.94,66.72 203.19,63.87 200.43,61.40 197.68,59.27 194.92,57.43 192.17,55.84 189.41,54.48 186.66,53.30 183.90,52.30 181.15,51.43 178.39,50.68 175.64,50.05 172.89,49.50 170.13,49.03 167.38,48.63 164.62,48.28 161.87,47.99 159.11,47.74 156.36,47.52 153.60,47.33 150.85,47.18 148.09,47.04 145.34,46.92 142.58,46.83 139.83,46.74 137.07,46.67 134.32,46.61 131.56,46.55 128.81,46.51 126.05,46.47 123.30,46.43 120.54,46.41 117.79,46.38 115.03,46.36 112.28,46.34 109.52,46.33 106.77,46.31 104.01,46.30 101.26,46.29 98.50,46.29 95.75,46.28 92.99,46.27 90.24,46.27 87.48,46.26 84.73,46.26 81.97,46.26 79.22,46.25 76.46,46.25 73.71,46.25 70.95,46.25 68.20,46.25 65.44,46.25" style="stroke-width: 0.00;stroke: none;stroke-linecap: butt;fill: #F8766D;fill-opacity: 0.15;" />
<polyline points="65.44,46.24 68.20,46.24 70.95,46.24 73.71,46.24 76.46,46.24 79.22,46.24 81.97,46.24 84.73,46.24 87.48,46.24 90.24,46.24 92.99,46.24 95.75,46.24 98.50,46.24 101.26,46.24 104.01,46.24 106.77,46.24 109.52,46.24 112.28,46.24 115.03,46.24 117.79,46.24 120.54,46.24 123.30,46.24 126.05,46.24 128.81,46.24 131.56,46.24 134.32,46.24 137.07,46.25 139.83,46.25 142.58,46.25 145.34,46.26 148.09,46.26 150.85,46.27 153.60,46.28 156.36,46.29 159.11,46.30 161.87,46.32 164.62,46.34 167.38,46.38 170.13,46.42 172.89,46.47 175.64,46.53 178.39,46.62 181.15,46.73 183.90,46.87 186.66,47.05 189.41,47.28 192.17,47.58 194.92,47.97 197.68,48.46 200.43,49.10 203.19,49.92 205.94,50.97 208.70,52.31 211.45,54.03 214.21,56.22 216.96,59.00 219.72,62.53 222.47,67.02 225.23,72.65 227.98,79.70 230.74,88.48 233.49,99.23 236.25,112.32 239.00,127.91 241.76,146.21 244.51,166.69 247.27,187.97 250.02,209.10 252.78,228.68 255.53,246.78 258.29,264.69 261.04,282.74 263.80,300.75 266.55,318.49 269.31,335.64 272.06,352.19 274.82,367.80 277.57,382.51 280.33,396.23 283.08,408.87 285.83,420.44 288.59,430.94 291.34,440.39 294.10,448.86 296.85,456.39 299.61,463.07 302.36,468.95 305.12,474.11 307.87,478.63 310.63,482.58 313.38,486.01 316.14,488.98 318.89,491.56 321.65,493.79 324.40,495.71 327.16,497.37 329.91,498.80 332.67,500.03 335.42,501.09 338.18,502.00 340.93,502.78 343.69,503.45 346.44,504.02 349.20,504.51 351.95,504.93 354.71,505.29 357.46,505.60 360.22,505.87 362.97,506.10 365.73,506.29 368.48,506.46 371.24,506.60 373.99,506.72 376.75,506.83 379.50,506.91 382.26,506.99 385.01,507.06 387.77,507.11 390.52,507.16 393.28,507.20 396.03,507.24 398.78,507.27 401.54,507.29 404.29,507.31 407.05,507.33 409.80,507.35 412.56,507.36 415.31,507.37 418.07,507.38 420.82,507.39 423.58,507.40 426.33,507.41 429.09,507.41 431.84,507.42 434.60,507.42 437.35,507.42 440.11,507.43 442.86,507.43 445.62,507.43 448.37,507.43 451.13,507.43 453.88,507.44 456.64,507.44 459.39,507.44 462.15,507.44 464.90,507.44 467.66,507.44 470.41,507.44 473.17,507.44 475.92,507.44 478.68,507.44 481.43,507.44 484.19,507.44 486.94,507.44 489.70,507.44 492.45,507.44 495.21,507.44 497.96,507.44 500.72,507.44 503.47,507.44 506.22,507.44 508.98,507.44 511.73,507.44 514.49,507.44 517.24,507.44 520.00,507.44 522.75,507.44 525.51,507.44 528.26,507.44 531.02,507.44 533.77,507.44 536.53,507.44 539.28,507.44 542.04,507.44 544.79,507.44 547.55,507.44 550.30,507.44 553.06,507.44 555.81,507.44 558.57,507.44 561.32,507.44 564.08,507.44 566.83,507.44 569.59,507.44 572.34,507.44 575.10,507.44 577.85,507.44 580.61,507.44 583.36,507.44 586.12,507.44 588.87,507.44 591.63,507.44 594.38,507.44 597.14,507.44 599.89,507.44 602.65,507.44 605.40,507.44 608.16,507.44 610.91,507.44 613.67,507.44" style="stroke-width: 1.07;stroke: none;stroke-linecap: butt;"/>
<polyline points="613.67,507.44 610.91,507.44 608.16,507.44 605.40,507.44 602.65,507.44 599.89,507.44 597.14,507.44 594.38,507.44 591.63,507.44 588.87,507.44 586.12,507.44 583.36,507.44 580.61,507.44 577.85,507.44 575.10,507.44 572.34,507.44 569.59,507.44 566.83,507.44 564.08,507.44 561.32,507.44 558.57,507.44 555.81,507.44 553.06,507.44 550.30,507.44 547.55,507.44 544.79,507.44 542.04,507.44 539.28,507.44 536.53,507.44 533.77,507.44 531.02,507.44 528.26,507.44 525.51,507.44 522.75,507.44 520.00,507.44 517.24,507.44 514.49,507.44 511.73,507.44 508.98,507.44 506.22,507.44 503.47,507.44 500.72,507.44 497.96,507.44 495.21,507.44 492.45,507.44 489.70,507.44 486.94,507.44 484.19,507.44 481.43,507.44 478.68,507.44 475.92,507.44 473.17,507.44 470.41,507.44 467.66,507.44 464.90,507.44 462.15,507.44 459.39,507.44 456.64,507.44 453.88,507.44 451.13,507.44 448.37,507.44 445.62,507.44 442.86,507.44 440.11,507.44 437.35,507.44 434.60,507.44 431.84,507.44 429.09,507.44 426.33,507.44 423.58,507.44 420.82,507.44 418.07,507.44 415.31,507.44 412.56,507.44 409.80,507.44 407.05,507.44 404.29,507.44 401.54,507.44 398.78,507.44 396.03,507.44 393.28,507.44 390.52,507.44 387.77,507.44 385.01,507.44 382.26,507.44 379.50,507.44 376.75,507.44 373.99,507.43 371.24,507.43 368.48,507.43 365.73,507.42 362.97,507.42 360.22,507.41 357.46,507.40 354.71,507.39 351.95,507.38 349.20,507.36 346.44,507.33 343.69,507.30 340.93,507.26 338.18,507.21 335.42,507.14 332.67,507.05 329.91,506.94 327.16,506.79 324.40,506.60 321.65,506.36 318.89,506.05 316.14,505.65 313.38,505.14 310.63,504.48 307.87,503.64 305.12,502.56 302.36,501.17 299.61,499.40 296.85,497.15 294.10,494.27 291.34,490.62 288.59,486.02 285.83,480.22 283.08,472.98 280.33,463.98 277.57,452.94 274.82,439.54 272.06,423.54 269.31,404.67 266.55,382.96 263.80,358.73 261.04,332.25 258.29,304.08 255.53,275.03 252.78,246.00 250.02,218.16 247.27,196.34 244.51,180.81 241.76,166.42 239.00,153.10 236.25,140.75 233.49,129.61 230.74,119.55 227.98,110.43 225.23,102.28 222.47,95.03 219.72,88.62 216.96,83.01 214.21,78.08 211.45,73.77 208.70,70.01 205.94,66.72 203.19,63.87 200.43,61.40 197.68,59.27 194.92,57.43 192.17,55.84 189.41,54.48 186.66,53.30 183.90,52.30 181.15,51.43 178.39,50.68 175.64,50.05 172.89,49.50 170.13,49.03 167.38,48.63 164.62,48.28 161.87,47.99 159.11,47.74 156.36,47.52 153.60,47.33 150.85,47.18 148.09,47.04 145.34,46.92 142.58,46.83 139.83,46.74 137.07,46.67 134.32,46.61 131.56,46.55 128.81,46.51 126.05,46.47 123.30,46.43 120.54,46.41 117.79,46.38 115.03,46.36 112.28,46.34 109.52,46.33 106.77,46.31 104.01,46.30 101.26,46.29 98.50,46.29 95.75,46.28 92.99,46.27 90.24,46.27 87.48,46.26 84.73,46.26 81.97,46.26 79.22,46.25 76.46,46.25 73.71,46.25 70.95,46.25 68.20,46.25 65.44,46.25" style="stroke-width: 1.07;stroke: none;stroke-linecap: butt;"/>
<polygon points="65.44,81.76 68.20,81.76 70.95,81.76 73.71,81.76 76.46,81.76 79.22,81.76 81.97,81.76 84.73,81.76 87.48,81.76 90.24,81.76 92.99,81.76 95.75,81.76 98.50,81.76 101.26,81.77 104.01,81.78 106.77,81.79 109.52,81.81 112.28,81.82 115.03,81.85 117.79,81.87 120.54,81.89 123.30,81.89 126.05,81.89 128.81,81.89 131.56,81.89 134.32,81.89 137.07,81.89 139.83,81.89 142.58,81.89 145.34,81.94 148.09,81.94 150.85,81.94 153.60,81.94 156.36,82.00 159.11,82.04 161.87,82.04 164.62,82.09 167.38,82.19 170.13,82.19 172.89,82.19 175.64,82.19 178.39,82.19 181.15,82.24 183.90,82.27 186.66,82.31 189.41,82.31 192.17,82.31 194.92,82.37 197.68,82.41 200.43,82.48 203.19,82.56 205.94,82.68 208.70,82.88 211.45,83.14 214.21,83.41 216.96,83.75 219.72,84.47 222.47,85.18 225.23,86.85 227.98,89.36 230.74,93.43 233.49,99.97 236.25,110.10 239.00,126.40 241.76,147.36 244.51,174.54 247.27,203.34 250.02,231.25 252.78,257.76 255.53,278.93 258.29,293.66 261.04,300.85 263.80,305.99 266.55,311.06 269.31,315.94 272.06,320.99 274.82,326.43 277.57,331.79 280.33,337.12 283.08,342.31 285.83,347.39 288.59,352.40 291.34,357.36 294.10,362.25 296.85,367.05 299.61,371.77 302.36,376.40 305.12,380.95 307.87,385.41 310.63,389.78 313.38,394.05 316.14,398.22 318.89,402.29 321.65,406.27 324.40,410.14 327.16,413.90 329.91,417.56 332.67,421.12 335.42,424.57 338.18,427.92 340.93,431.17 343.69,434.31 346.44,437.35 349.20,440.28 351.95,443.12 354.71,445.86 357.46,448.50 360.22,451.05 362.97,453.50 365.73,455.86 368.48,458.14 371.24,460.32 373.99,462.42 376.75,464.44 379.50,466.38 382.26,468.24 385.01,470.02 387.77,471.73 390.52,473.37 393.28,474.94 396.03,476.45 398.78,477.89 401.54,479.27 404.29,480.59 407.05,481.85 409.80,483.05 412.56,484.20 415.31,485.30 418.07,486.36 420.82,487.36 423.58,488.32 426.33,489.23 429.09,490.11 431.84,490.94 434.60,491.73 437.35,492.49 440.11,493.21 442.86,493.90 445.62,494.56 448.37,495.18 451.13,495.78 453.88,496.35 456.64,496.89 459.39,497.41 462.15,497.90 464.90,498.36 467.66,498.81 470.41,499.23 473.17,499.63 475.92,500.02 478.68,500.38 481.43,500.73 484.19,501.06 486.94,501.38 489.70,501.68 492.45,501.96 495.21,502.23 497.96,502.49 500.72,502.73 503.47,502.97 506.22,503.19 508.98,503.40 511.73,503.60 514.49,503.79 517.24,503.97 520.00,504.14 522.75,504.31 525.51,504.46 528.26,504.61 531.02,504.75 533.77,504.89 536.53,505.01 539.28,505.14 542.04,505.25 544.79,505.36 547.55,505.46 550.30,505.56 553.06,505.66 555.81,505.74 558.57,505.83 561.32,505.91 564.08,505.99 566.83,506.06 569.59,506.13 572.34,506.19 575.10,506.26 577.85,506.32 580.61,506.37 583.36,506.43 586.12,506.48 588.87,506.52 591.63,506.57 594.38,506.61 597.14,506.66 599.89,506.69 602.65,506.73 605.40,506.77 608.16,506.80 610.91,506.83 613.67,506.86 613.67,507.44 610.91,507.44 608.16,507.44 605.40,507.44 602.65,507.44 599.89,507.44 597.14,507.44 594.38,507.44 591.63,507.44 588.87,507.44 586.12,507.44 583.36,507.44 580.61,507.44 577.85,507.44 575.10,507.44 572.34,507.44 569.59,507.44 566.83,507.44 564.08,507.44 561.32,507.44 558.57,507.44 555.81,507.44 553.06,507.44 550.30,507.44 547.55,507.44 544.79,507.44 542.04,507.44 539.28,507.44 536.53,507.44 533.77,507.44 531.02,507.44 528.26,507.44 525.51,507.44 522.75,507.44 520.00,507.44 517.24,507.44 514.49,507.44 511.73,507.44 508.98,507.44 506.22,507.44 503.47,507.44 500.72,507.44 497.96,507.44 495.21,507.44 492.45,507.44 489.70,507.44 486.94,507.44 484.19,507.44 481.43,507.44 478.68,507.44 475.92,507.44 473.17,507.44 470.41,507.44 467.66,507.44 464.90,507.44 462.15,507.44 459.39,507.44 456.64,507.44 453.88,507.44 451.13,507.44 448.37,507.44 445.62,507.44 442.86,507.44 440.11,507.44 437.35,507.44 434.60,507.44 431.84,507.44 429.09,507.44 426.33,507.44 423.58,507.44 420.82,507.44 418.07,507.44 415.31,507.44 412.56,507.44 409.80,507.44 407.05,507.44 404.29,507.44 401.54,507.44 398.78,507.44 396.03,507.44 393.28,507.44 390.52,507.44 387.77,507.44 385.01,507.44 382.26,507.44 379.50,507.44 376.75,507.44 373.99,507.44 371.24,507.44 368.48,507.44 365.73,507.44 362.97,507.44 360.22,507.44 357.46,507.44 354.71,507.44 351.95,507.44 349.20,507.44 346.44,507.44 343.69,507.44 340.93,507.44 338.18,507.44 335.42,507.44 332.67,507.44 329.91,507.44 327.16,507.44 324.40,507.44 321.65,507.44 318.89,507.44 316.14,507.44 313.38,507.44 310.63,507.44 307.87,507.44 305.12,507.44 302.36,507.44 299.61,507.44 296.85,507.44 294.10,507.44 291.34,507.44 288.59,507.44 285.83,507.44 283.08,507.44 280.33,507.44 277.57,507.44 274.82,507.44 272.06,507.44 269.31,507.44 266.55,507.44 263.80,507.44 261.04,507.44 258.29,507.44 255.53,507.44 252.78,507.44 250.02,507.44 247.27,507.44 244.51,507.44 241.76,507.44 239.00,507.44 236.25,507.44 233.49,507.44 230.74,507.44 227.98,507.44 225.23,507.43 222.47,507.37 219.72,506.93 216.96,503.95 214.21,484.36 211.45,387.16 208.70,281.59 205.94,247.87 203.19,211.27 200.43,197.04 197.68,190.91 194.92,187.14 192.17,183.47 189.41,179.91 186.66,176.45 183.90,173.10 181.15,169.85 178.39,166.72 175.64,163.70 172.89,160.77 170.13,157.95 167.38,155.23 164.62,152.60 161.87,150.07 159.11,147.64 156.36,145.29 153.60,143.04 150.85,140.87 148.09,138.79 145.34,136.80 142.58,134.88 139.83,133.04 137.07,131.28 134.32,129.59 131.56,127.97 128.81,126.42 126.05,124.94 123.30,123.52 120.54,122.16 117.79,120.86 115.03,119.62 112.28,118.44 109.52,117.31 106.77,116.23 104.01,115.20 101.26,114.21 98.50,113.36 95.75,112.71 92.99,112.42 90.24,112.42 87.48,112.42 84.73,111.97 81.97,111.93 79.22,111.90 76.46,111.48 73.71,111.16 70.95,111.11 68.20,110.94 65.44,110.84" style="stroke-width: 0.00;stroke: none;stroke-linecap: butt;fill: #7CAE00;fill-opacity: 0.15;" />
<polyline points="65.44,81.76 68.20,81.76 70.95,81.76 73.71,81.76 76.46,81.76 79.22,81.76 81.97,81.76 84.73,81.76 87.48,81.76 90.24,81.76 92.99,81.76 95.75,81.76 98.50,81.76 101.26,81.77 104.01,81.78 106.77,81.79 109.52,81.81 112.28,81.82 115.03,81.85 117.79,81.87 120.54,81.89 123.30,81.89 126.05,81.89 128.81,81.89 131.56,81.89 134.32,81.89 137.07,81.89 139.83,81.89 142.58,81.89 145.34,81.94 148.09,81.94 150.85,81.94 153.60,81.94 156.36,82.00 159.11,82.04 161.87,82.04 164.62,82.09 167.38,82.19 170.13,82.19 172.89,82.19 175.64,82.19 178.39,82.19 181.15,82.24 183.90,82.27 186.66,82.31 189.41,82.31 192.17,82.31 194.92,82.37 197.68,82.41 200.43,82.48 203.19,82.56 205.94,82.68 208.70,82.88 211.45,83.14 214.21,83.41 216.96,83.75 219.72,84.47 222.47,85.18 225.23,86.85 227.98,89.36 230.74,93.43 233.49,99.97 236.25,110.10 239.00,126.40 241.76,147.36 244.51,174.54 247.27,203.34 250.02,231.25 252.78,257.76 255.53,278.93 258.29,293.66 261.04,300.85 263.80,305.99 266.55,311.06 269.31,315.94 272.06,320.99 274.82,326.43 277.57,331.79 280.33,337.12 283.08,342.31 285.83,347.39 288.59,352.40 291.34,357.36 294.10,362.25 296.85,367.05 299.61,371.77 302.36,376.40 305.12,380.95 307.87,385.41 310.63,389.78 313.38,394.05 316.14,398.22 318.89,402.29 321.65,406.27 324.40,410.14 327.16,413.90 329.91,417.56 332.67,421.12 335.42,424.57 338.18,427.92 340.93,431.17 343.69,434.31 346.44,437.35 349.20,440.28 351.95,443.12 354.71,445.86 357.46,448.50 360.22,451.05 362.97,453.50 365.73,455.86 368.48,458.14 371.24,460.32 373.99,462.42 376.75,464.44 379.50,466.38 382.26,468.24 385.01,470.02 387.77,471.73 390.52,473.37 393.28,474.94 396.03,476.45 398.78,477.89 401.54,479.27 404.29,480.59 407.05,481.85 409.80,483.05 412.56,484.20 415.31,485.30 418.07,486.36 420.82,487.36 423.58,488.32 426.33,489.23 429.09,490.11 431.84,490.94 434.60,491.73 437.35,492.49 440.11,493.21 442.86,493.90 445.62,494.56 448.37,495.18 451.13,495.78 453.88,496.35 456.64,496.89 459.39,497.41 462.15,497.90 464.90,498.36 467.66,498.81 470.41,499.23 473.17,499.63 475.92,500.02 478.68,500.38 481.43,500.73 484.19,501.06 486.94,501.38 489.70,501.68 492.45,501.96 495.21,502.23 497.96,502.49 500.72,502.73 503.47,502.97 506.22,503.19 508.98,503.40 511.73,503.60 514.49,503.79 517.24,503.97 520.00,504.14 522.75,504.31 525.51,504.46 528.26,504.61 531.02,504.75 533.77,504.89 536.53,505.01 539.28,505.14 542.04,505.25 544.79,505.36 547.55,505.46 550.30,505.56 553.06,505.66 555.81,505.74 558.57,505.83 561.32,505.91 564.08,505.99 566.83,506.06 569.59,506.13 572.34,506.19 575.10,506.26 577.85,506.32 580.61,506.37 583.36,506.43 586.12,506.48 588.87,506.52 591.63,506.57 594.38,506.61 597.14,506.66 599.89,506.69 602.65,506.73 605.40,506.77 608.16,506.80 610.91,506.83 613.67,506.86" style="stroke-width: 1.07;stroke: none;stroke-linecap: butt;"/>
<polyline points="613.67,507.44 610.91,507.44 608.16,507.44 605.40,507.44 602.65,507.44 599.89,507.44 597.14,507.44 594.38,507.44 591.63,507.44 588.87,507.44 586.12,507.44 583.36,507.44 580.61,507.44 577.85,507.44 575.10,507.44 572.34,507.44 569.59,507.44 566.83,507.44 564.08,507.44 561.32,507.44 558.57,507.44 555.81,507.44 553.06,507.44 550.30,507.44 547.55,507.44 544.79,507.44 542.04,507.44 539.28,507.44 536.53,507.44 533.77,507.44 531.02,507.44 528.26,507.44 525.51,507.44 522.75,507.44 520.00,507.44 517.24,507.44 514.49,507.44 511.73,507.44 508.98,507.44 506.22,507.44 503.47,507.44 500.72,507.44 497.96,507.44 495.21,507.44 492.45,507.44 489.70,507.44 486.94,507.44 484.19,507.44 481.43,507.44 478.68,507.44 475.92,507.44 473.17,507.44 470.41,507.44 467.66,507.44 464.90,507.44 462.15,507.44 459.39,507.44 456.64,507.44 453.88,507.44 451.13,507.44 448.37,507.44 445.62,507.44 442.86,507.44 440.11,507.44 437.35,507.44 434.60,507.44 431.84,507.44 429.09,507.44 426.33,507.44 423.58,507.44 420.82,507.44 418.07,507.44 415.31,507.44 412.56,507.44 409.80,507.44 407.05,507.44 404.29,507.44 401.54,507.44 398.78,507.44 396.03,507.44 393.28,507.44 390.52,507.44 387.77,507.44 385.01,507.44 382.26,507.44 379.50,507.44 376.75,507.44 373.99,507.44 371.24,507.44 368.48,507.44 365.73,507.44 362.97,507.44 360.22,507.44 357.46,507.44 354.71,507.44 351.95,507.44 349.20,507.44 346.44,507.44 343.69,507.44 340.93,507.44 338.18,507.44 335.42,507.44 332.67,507.44 329.91,507.44 327.16,507.44 324.40,507.44 321.65,507.44 318.89,507.44 316.14,507.44 313.38,507.44 310.63,507.44 307.87,507.44 305.12,507.44 302.36,507.44 299.61,507.44 296.85,507.44 294.10,507.44 291.34,507.44 288.59,507.44 285.83,507.44 283.08,507.44 280.33,507.44 277.57,507.44 274.82,507.44 272.06,507.44 269.31,507.44 266.55,507.44 263.80,507.44 261.04,507.44 258.29,507.44 255.53,507.44 252.78,507.44 250.02,507.44 247.27,507.44 244.51,507.44 241.76,507.44 239.00,507.44 236.25,507.44 233.49,507.44 230.74,507.44 227.98,507.44 225.23,507.43 222.47,507.37 219.72,506.93 216.96,503.95 214.21,484.36 211.45,387.16 208.70,281.59 205.94,247.87 203.19,211.27 200.43,197.04 197.68,190.91 194.92,187.14 192.17,183.47 189.41,179.91 186.66,176.45 183.90,173.10 181.15,169.85 178.39,166.72 175.64,163.70 172.89,160.77 170.13,157.95 167.38,155.23 164.62,152.60 161.87,150.07 159.11,147.64 156.36,145.29 153.60,143.04 150.85,140.87 148.09,138.79 145.34,136.80 142.58,134.88 139.83,133.04 137.07,131.28 134.32,129.59 131.56,127.97 128.81,126.42 126.05,124.94 123.30,123.52 120.54,122.16 117.79,120.86 115.03,119.62 112.28,118.44 109.52,117.31 106.77,116.23 104.01,115.20 101.26,114.21 98.50,113.36 95.75,112.71 92.99,112.42 90.24,112.42 87.48,112.42 84.73,111.97 81.97,111.93 79.22,111.90 76.46,111.48 73.71,111.16 70.95,111.11 68.20,110.94 65.44,110.84" style="stroke-width: 1.07;stroke: none;stroke-linecap: butt;"/>
<polygon points="65.44,46.24 68.20,46.24 70.95,46.24 73.71,46.24 76.46,46.24 79.22,46.24 81.97,46.25 84.73,46.25 87.48,46.25 90.24,46.25 92.99,46.25 95.75,46.26 98.50,46.26 101.26,46.26 104.01,46.27 106.77,46.27 109.52,46.28 112.28,46.29 115.03,46.30 117.79,46.31 120.54,46.32 123.30,46.34 126.05,46.35 128.81,46.38 131.56,46.40 134.32,46.43 137.07,46.47 139.83,46.51 142.58,46.56 145.34,46.62 148.09,46.69 150.85,46.78 153.60,46.88 156.36,47.00 159.11,47.14 161.87,47.31 164.62,47.51 167.38,47.74 170.13,48.02 172.89,48.35 175.64,48.74 178.39,49.21 181.15,49.75 183.90,50.40 186.66,51.17 189.41,52.07 192.17,53.14 194.92,54.41 197.68,55.89 200.43,57.64 203.19,59.70 205.94,62.11 208.70,64.93 211.45,68.24 214.21,72.11 216.96,76.61 219.72,81.84 222.47,87.88 225.23,94.82 227.98,102.77 230.74,111.74 233.49,121.94 236.25,133.36 239.00,146.04 241.76,159.96 244.51,175.12 247.27,191.26 250.02,208.03 252.78,225.26 255.53,242.82 258.29,260.76 261.04,278.81 263.80,296.81 266.55,314.54 269.31,331.83 272.06,348.49 274.82,364.33 277.57,379.31 280.33,393.29 283.08,406.16 285.83,417.95 288.59,428.68 291.34,438.35 294.10,447.06 296.85,454.78 299.61,461.64 302.36,467.69 305.12,473.01 307.87,477.67 310.63,481.73 313.38,485.26 316.14,488.33 318.89,490.99 321.65,493.29 324.40,495.28 327.16,497.00 329.91,498.48 332.67,499.75 335.42,500.84 338.18,501.79 340.93,502.59 343.69,503.29 346.44,503.88 349.20,504.39 351.95,504.83 354.71,505.21 357.46,505.53 360.22,505.81 362.97,506.04 365.73,506.24 368.48,506.42 371.24,506.56 373.99,506.69 376.75,506.80 379.50,506.89 382.26,506.97 385.01,507.04 387.77,507.10 390.52,507.15 393.28,507.19 396.03,507.23 398.78,507.26 401.54,507.29 404.29,507.31 407.05,507.33 409.80,507.34 412.56,507.36 415.31,507.37 418.07,507.38 420.82,507.39 423.58,507.40 426.33,507.40 429.09,507.41 431.84,507.42 434.60,507.42 437.35,507.42 440.11,507.43 442.86,507.43 445.62,507.43 448.37,507.43 451.13,507.43 453.88,507.44 456.64,507.44 459.39,507.44 462.15,507.44 464.90,507.44 467.66,507.44 470.41,507.44 473.17,507.44 475.92,507.44 478.68,507.44 481.43,507.44 484.19,507.44 486.94,507.44 489.70,507.44 492.45,507.44 495.21,507.44 497.96,507.44 500.72,507.44 503.47,507.44 506.22,507.44 508.98,507.44 511.73,507.44 514.49,507.44 517.24,507.44 520.00,507.44 522.75,507.44 525.51,507.44 528.26,507.44 531.02,507.44 533.77,507.44 536.53,507.44 539.28,507.44 542.04,507.44 544.79,507.44 547.55,507.44 550.30,507.44 553.06,507.44 555.81,507.44 558.57,507.44 561.32,507.44 564.08,507.44 566.83,507.44 569.59,507.44 572.34,507.44 575.10,507.44 577.85,507.44 580.61,507.44 583.36,507.44 586.12,507.44 588.87,507.44 591.63,507.44 594.38,507.44 597.14,507.44 599.89,507.44 602.65,507.44 605.40,507.44 608.16,507.44 610.91,507.44 613.67,507.44 613.67,507.44 610.91,507.44 608.16,507.44 605.40,507.44 602.65,507.44 599.89,507.44 597.14,507.44 594.38,507.44 591.63,507.44 588.87,507.44 586.12,507.44 583.36,507.44 580.61,507.44 577.85,507.44 575.10,507.44 572.34,507.44 569.59,507.44 566.83,507.44 564.08,507.44 561.32,507.44 558.57,507.44 555.81,507.44 553.06,507.44 550.30,507.44 547.55,507.44 544.79,507.44 542.04,507.44 539.28,507.44 536.53,507.44 533.77,507.44 531.02,507.44 528.26,507.44 525.51,507.44 522.75,507.44 520.00,507.44 517.24,507.44 514.49,507.44 511.73,507.44 508.98,507.44 506.22,507.44 503.47,507.44 500.72,507.44 497.96,507.44 495.21,507.44 492.45,507.44 489.70,507.44 486.94,507.44 484.19,507.44 481.43,507.44 478.68,507.44 475.92,507.44 473.17,507.44 470.41,507.44 467.66,507.44 464.90,507.44 462.15,507.44 459.39,507.44 456.64,507.44 453.88,507.44 451.13,507.44 448.37,507.44 445.62,507.44 442.86,507.44 440.11,507.44 437.35,507.44 434.60,507.43 431.84,507.43 429.09,507.43 426.33,507.43 423.58,507.43 420.82,507.42 418.07,507.42 415.31,507.41 412.56,507.41 409.80,507.40 407.05,507.39 404.29,507.38 401.54,507.37 398.78,507.36 396.03,507.34 393.28,507.33 390.52,507.30 387.77,507.28 385.01,507.25 382.26,507.21 379.50,507.17 376.75,507.12 373.99,507.06 371.24,506.98 368.48,506.90 365.73,506.80 362.97,506.68 360.22,506.53 357.46,506.37 354.71,506.17 351.95,505.93 349.20,505.65 346.44,505.31 343.69,504.92 340.93,504.45 338.18,503.90 335.42,503.25 332.67,502.48 329.91,501.57 327.16,500.49 324.40,499.21 321.65,497.71 318.89,495.94 316.14,493.87 313.38,491.44 310.63,488.58 307.87,485.24 305.12,481.34 302.36,476.80 299.61,471.53 296.85,465.46 294.10,458.46 291.34,450.47 288.59,441.40 285.83,431.13 283.08,419.65 280.33,406.87 277.57,392.82 274.82,377.49 272.06,361.00 269.31,343.43 266.55,324.96 263.80,305.84 261.04,286.35 258.29,266.70 255.53,247.21 252.78,228.25 250.02,210.22 247.27,193.49 244.51,178.02 241.76,163.76 239.00,150.61 236.25,138.50 233.49,127.51 230.74,117.57 227.98,108.61 225.23,100.66 222.47,93.60 219.72,87.38 216.96,81.90 214.21,77.09 211.45,72.88 208.70,69.23 205.94,66.06 203.19,63.30 200.43,60.92 197.68,58.85 194.92,57.07 192.17,55.54 189.41,54.21 186.66,53.08 183.90,52.10 181.15,51.26 178.39,50.54 175.64,49.93 172.89,49.40 170.13,48.94 167.38,48.55 164.62,48.22 161.87,47.94 159.11,47.69 156.36,47.48 153.60,47.30 150.85,47.15 148.09,47.02 145.34,46.90 142.58,46.81 139.83,46.73 137.07,46.66 134.32,46.60 131.56,46.54 128.81,46.50 126.05,46.46 123.30,46.43 120.54,46.40 117.79,46.38 115.03,46.36 112.28,46.34 109.52,46.33 106.77,46.31 104.01,46.30 101.26,46.29 98.50,46.28 95.75,46.28 92.99,46.27 90.24,46.27 87.48,46.26 84.73,46.26 81.97,46.26 79.22,46.25 76.46,46.25 73.71,46.25 70.95,46.25 68.20,46.25 65.44,46.24" style="stroke-width: 0.00;stroke: none;stroke-linecap: butt;fill: #00BFC4;fill-opacity: 0.15;" />
<polyline points="65.44,46.24 68.20,46.24 70.95,46.24 73.71,46.24 76.46,46.24 79.22,46.24 81.97,46.25 84.73,46.25 87.48,46.25 90.24,46.25 92.99,46.25 95.75,46.26 98.50,46.26 101.26,46.26 104.01,46.27 106.77,46.27 109.52,46.28 112.28,46.29 115.03,46.30 117.79,46.31 120.54,46.32 123.30,46.34 126.05,46.35 128.81,46.38 131.56,46.40 134.32,46.43 137.07,46.47 139.83,46.51 142.58,46.56 145.34,46.62 148.09,46.69 150.85,46.78 153.60,46.88 156.36,47.00 159.11,47.14 161.87,47.31 164.62,47.51 167.38,47.74 170.13,48.02 172.89,48.35 175.64,48.74 178.39,49.21 181.15,49.75 183.90,50.40 186.66,51.17 189.41,52.07 192.17,53.14 194.92,54.41 197.68,55.89 200.43,57.64 203.19,59.70 205.94,62.11 208.70,64.93 211.45,68.24 214.21,72.11 216.96,76.61 219.72,81.84 222.47,87.88 225.23,94.82 227.98,102.77 230.74,111.74 233.49,121.94 236.25,133.36 239.00,146.04 241.76,159.96 244.51,175.12 247.27,191.26 250.02,208.03 252.78,225.26 255.53,242.82 258.29,260.76 261.04,278.81 263.80,296.81 266.55,314.54 269.31,331.83 272.06,348.49 274.82,364.33 277.57,379.31 280.33,393.29 283.08,406.16 285.83,417.95 288.59,428.68 291.34,438.35 294.10,447.06 296.85,454.78 299.61,461.64 302.36,467.69 305.12,473.01 307.87,477.67 310.63,481.73 313.38,485.26 316.14,488.33 318.89,490.99 321.65,493.29 324.40,495.28 327.16,497.00 329.91,498.48 332.67,499.75 335.42,500.84 338.18,501.79 340.93,502.59 343.69,503.29 346.44,503.88 349.20,504.39 351.95,504.83 354.71,505.21 357.46,505.53 360.22,505.81 362.97,506.04 365.73,506.24 368.48,506.42 371.24,506.56 373.99,506.69 376.75,506.80 379.50,506.89 382.26,506.97 385.01,507.04 387.77,507.10 390.52,507.15 393.28,507.19 396.03,507.23 398.78,507.26 401.54,507.29 404.29,507.31 407.05,507.33 409.80,507.34 412.56,507.36 415.31,507.37 418.07,507.38 420.82,507.39 423.58,507.40 426.33,507.40 429.09,507.41 431.84,507.42 434.60,507.42 437.35,507.42 440.11,507.43 442.86,507.43 445.62,507.43 448.37,507.43 451.13,507.43 453.88,507.44 456.64,507.44 459.39,507.44 462.15,507.44 464.90,507.44 467.66,507.44 470.41,507.44 473.17,507.44 475.92,507.44 478.68,507.44 481.43,507.44 484.19,507.44 486.94,507.44 489.70,507.44 492.45,507.44 495.21,507.44 497.96,507.44 500.72,507.44 503.47,507.44 506.22,507.44 508.98,507.44 511.73,507.44 514.49,507.44 517.24,507.44 520.00,507.44 522.75,507.44 525.51,507.44 528.26,507.44 531.02,507.44 533.77,507.44 536.53,507.44 539.28,507.44 542.04,507.44 544.79,507.44 547.55,507.44 550.30,507.44 553.06,507.44 555.81,507.44 558.57,507.44 561.32,507.44 564.08,507.44 566.83,507.44 569.59,507.44 572.34,507.44 575.10,507.44 577.85,507.44 580.61,507.44 583.36,507.44 586.12,507.44 588.87,507.44 591.63,507.44 594.38,507.44 597.14,507.44 599.89,507.44 602.65,507.44 605.40,507.44 608.16,507.44 610.91,507.44 613.67,507.44" style="stroke-width: 1.07;stroke: none;stroke-linecap: butt;"/>
<polyline points="613.67,507.44 610.91,507.44 608.16,507.44 605.40,507.44 602.65,507.44 599.89,507.44 597.14,507.44 594.38,507.44 591.63,507.44 588.87,507.44 586.12,507.44 583.36,507.44 580.61,507.44 577.85,507.44 575.10,507.44 572.34,507.44 569.59,507.44 566.83,507.44 564.08,507.44 561.32,507.44 558.57,507.44 555.81,507.44 553.06,507.44 550.30,507.44 547.55,507.44 544.79,507.44 542.04,507.44 539.28,507.44 536.53,507.44 533.77,507.44 531.02,507.44 528.26,507.44 525.51,507.44 522.75,507.44 520.00,507.44 517.24,507.44 514.49,507.44 511.73,507.44 508.98,507.44 506.22,507.44 503.47,507.44 500.72,507.44 497.96,507.44 495.21,507.44 492.45,507.44 489.70,507.44 486.94,507.44 484.19,507.44 481.43,507.44 478.68,507.44 475.92,507.44 473.17,507.44 470.41,507.44 467.66,507.44 464.90,507.44 462.15,507.44 459.39,507.44 456.64,507.44 453.88,507.44 451.13,507.44 448.37,507.44 445.62,507.44 442.86,507.44 440.11,507.44 437.35,507.44 434.60,507.43 431.84,507.43 429.09,507.43 426.33,507.43 423.58,507.43 420.82,507.42 418.07,507.42 415.31,507.41 412.56,507.41 409.80,507.40 407.05,507.39 404.29,507.38 401.54,507.37 398.78,507.36 396.03,507.34 393.28,507.33 390.52,507.30 387.77,507.28 385.01,507.25 382.26,507.21 379.50,507.17 376.75,507.12 373.99,507.06 371.24,506.98 368.48,506.90 365.73,506.80 362.97,506.68 360.22,506.53 357.46,506.37 354.71,506.17 351.95,505.93 349.20,505.65 346.44,505.31 343.69,504.92 340.93,504.45 338.18,503.90 335.42,503.25 332.67,502.48 329.91,501.57 327.16,500.49 324.40,499.21 321.65,497.71 318.89,495.94 316.14,493.87 313.38,491.44 310.63,488.58 307.87,485.24 305.12,481.34 302.36,476.80 299.61,471.53 296.85,465.46 294.10,458.46 291.34,450.47 288.59,441.40 285.83,431.13 283.08,419.65 280.33,406.87 277.57,392.82 274.82,377.49 272.06,361.00 269.31,343.43 266.55,324.96 263.80,305.84 261.04,286.35 258.29,266.70 255.53,247.21 252.78,228.25 250.02,210.22 247.27,193.49 244.51,178.02 241.76,163.76 239.00,150.61 236.25,138.50 233.49,127.51 230.74,117.57 227.98,108.61 225.23,100.66 222.47,93.60 219.72,87.38 216.96,81.90 214.21,77.09 211.45,72.88 208.70,69.23 205.94,66.06 203.19,63.30 200.43,60.92 197.68,58.85 194.92,57.07 192.17,55.54 189.41,54.21 186.66,53.08 183.90,52.10 181.15,51.26 178.39,50.54 175.64,49.93 172.89,49.40 170.13,48.94 167.38,48.55 164.62,48.22 161.87,47.94 159.11,47.69 156.36,47.48 153.60,47.30 150.85,47.15 148.09,47.02 145.34,46.90 142.58,46.81 139.83,46.73 137.07,46.66 134.32,46.60 131.56,46.54 128.81,46.50 126.05,46.46 123.30,46.43 120.54,46.40 117.79,46.38 115.03,46.36 112.28,46.34 109.52,46.33 106.77,46.31 104.01,46.30 101.26,46.29 98.50,46.28 95.75,46.28 92.99,46.27 90.24,46.27 87.48,46.26 84.73,46.26 81.97,46.26 79.22,46.25 76.46,46.25 73.71,46.25 70.95,46.25 68.20,46.25 65.44,46.24" style="stroke-width: 1.07;stroke: none;stroke-linecap: butt;"/>
<polygon points="65.44,46.26 68.20,46.26 70.95,46.27 73.71,46.27 76.46,46.28 79.22,46.29 81.97,46.29 84.73,46.30 87.48,46.31 90.24,46.33 92.99,46.34 95.75,46.36 98.50,46.38 101.26,46.40 104.01,46.42 106.77,46.45 109.52,46.49 112.28,46.53 115.03,46.58 117.79,46.63 120.54,46.70 123.30,46.77 126.05,46.86 128.81,46.96 131.56,47.08 134.32,47.21 137.07,47.37 139.83,47.55 142.58,47.76 145.34,48.01 148.09,48.30 150.85,48.63 153.60,49.02 156.36,49.48 159.11,49.99 161.87,50.59 164.62,51.29 167.38,52.10 170.13,53.03 172.89,54.11 175.64,55.35 178.39,56.79 181.15,58.45 183.90,60.36 186.66,62.56 189.41,65.08 192.17,67.98 194.92,71.30 197.68,75.10 200.43,79.42 203.19,84.34 205.94,89.99 208.70,96.27 211.45,103.33 214.21,111.22 216.96,119.99 219.72,129.62 222.47,140.37 225.23,152.05 227.98,164.77 230.74,178.38 233.49,192.87 236.25,207.99 239.00,223.80 241.76,239.83 244.51,256.03 247.27,272.23 250.02,287.58 252.78,302.05 255.53,315.36 258.29,327.64 261.04,339.71 263.80,351.06 266.55,362.05 269.31,372.50 272.06,382.47 274.82,391.93 277.57,400.95 280.33,409.60 283.08,417.62 285.83,425.09 288.59,432.03 291.34,438.51 294.10,444.62 296.85,450.16 299.61,455.27 302.36,459.97 305.12,464.29 307.87,468.30 310.63,471.96 313.38,475.30 316.14,478.34 318.89,481.10 321.65,483.62 324.40,485.90 327.16,487.98 329.91,489.87 332.67,491.60 335.42,493.16 338.18,494.57 340.93,495.83 343.69,496.98 346.44,498.02 349.20,498.95 351.95,499.80 354.71,500.56 357.46,501.24 360.22,501.86 362.97,502.42 365.73,502.92 368.48,503.38 371.24,503.78 373.99,504.15 376.75,504.48 379.50,504.78 382.26,505.05 385.01,505.29 387.77,505.50 390.52,505.70 393.28,505.87 396.03,506.03 398.78,506.17 401.54,506.30 404.29,506.42 407.05,506.52 409.80,506.61 412.56,506.70 415.31,506.77 418.07,506.84 420.82,506.90 423.58,506.96 426.33,507.00 429.09,507.05 431.84,507.09 434.60,507.12 437.35,507.16 440.11,507.19 442.86,507.21 445.62,507.23 448.37,507.26 451.13,507.27 453.88,507.29 456.64,507.31 459.39,507.32 462.15,507.33 464.90,507.34 467.66,507.35 470.41,507.36 473.17,507.37 475.92,507.38 478.68,507.38 481.43,507.39 484.19,507.40 486.94,507.40 489.70,507.41 492.45,507.41 495.21,507.41 497.96,507.42 500.72,507.42 503.47,507.42 506.22,507.42 508.98,507.43 511.73,507.43 514.49,507.43 517.24,507.43 520.00,507.43 522.75,507.43 525.51,507.43 528.26,507.43 531.02,507.44 533.77,507.44 536.53,507.44 539.28,507.44 542.04,507.44 544.79,507.44 547.55,507.44 550.30,507.44 553.06,507.44 555.81,507.44 558.57,507.44 561.32,507.44 564.08,507.44 566.83,507.44 569.59,507.44 572.34,507.44 575.10,507.44 577.85,507.44 580.61,507.44 583.36,507.44 586.12,507.44 588.87,507.44 591.63,507.44 594.38,507.44 597.14,507.44 599.89,507.44 602.65,507.44 605.40,507.44 608.16,507.44 610.91,507.44 613.67,507.44 613.67,507.44 610.91,507.44 608.16,507.44 605.40,507.44 602.65,507.44 599.89,507.44 597.14,507.44 594.38,507.44 591.63,507.44 588.87,507.44 586.12,507.44 583.36,507.44 580.61,507.44 577.85,507.44 575.10,507.44 572.34,507.44 569.59,507.44 566.83,507.44 564.08,507.44 561.32,507.44 558.57,507.44 555.81,507.44 553.06,507.44 550.30,507.44 547.55,507.44 544.79,507.44 542.04,507.44 539.28,507.44 536.53,507.44 533.77,507.44 531.02,507.44 528.26,507.44 525.51,507.44 522.75,507.44 520.00,507.44 517.24,507.44 514.49,507.44 511.73,507.44 508.98,507.44 506.22,507.44 503.47,507.44 500.72,507.44 497.96,507.44 495.21,507.44 492.45,507.44 489.70,507.44 486.94,507.44 484.19,507.44 481.43,507.44 478.68,507.44 475.92,507.44 473.17,507.44 470.41,507.44 467.66,507.44 464.90,507.44 462.15,507.44 459.39,507.44 456.64,507.44 453.88,507.44 451.13,507.44 448.37,507.44 445.62,507.43 442.86,507.43 440.11,507.43 437.35,507.43 434.60,507.43 431.84,507.42 429.09,507.42 426.33,507.42 423.58,507.41 420.82,507.41 418.07,507.40 415.31,507.40 412.56,507.39 409.80,507.38 407.05,507.37 404.29,507.36 401.54,507.34 398.78,507.33 396.03,507.31 393.28,507.28 390.52,507.26 387.77,507.23 385.01,507.19 382.26,507.15 379.50,507.11 376.75,507.05 373.99,506.99 371.24,506.91 368.48,506.83 365.73,506.73 362.97,506.61 360.22,506.48 357.46,506.32 354.71,506.14 351.95,505.93 349.20,505.69 346.44,505.40 343.69,505.07 340.93,504.70 338.18,504.25 335.42,503.74 332.67,503.15 329.91,502.46 327.16,501.67 324.40,500.75 321.65,499.70 318.89,498.48 316.14,497.05 313.38,495.40 310.63,493.49 307.87,491.31 305.12,488.83 302.36,485.99 299.61,482.74 296.85,479.01 294.10,474.74 291.34,469.77 288.59,464.23 285.83,458.15 283.08,451.07 280.33,443.28 277.57,434.48 274.82,424.86 272.06,414.27 269.31,402.70 266.55,390.10 263.80,376.62 261.04,362.46 258.29,347.44 255.53,332.25 252.78,316.73 250.02,301.29 247.27,286.45 244.51,272.62 241.76,259.07 239.00,246.62 236.25,234.61 233.49,222.59 230.74,210.94 227.98,199.74 225.23,188.99 222.47,178.56 219.72,168.64 216.96,159.33 214.21,150.46 211.45,142.26 208.70,134.44 205.94,127.15 203.19,120.44 200.43,113.99 197.68,107.97 194.92,102.54 192.17,97.41 189.41,92.73 186.66,88.48 183.90,84.58 181.15,81.00 178.39,77.74 175.64,74.74 172.89,72.03 170.13,69.58 167.38,67.34 164.62,65.30 161.87,63.45 159.11,61.77 156.36,60.25 153.60,58.88 150.85,57.64 148.09,56.51 145.34,55.48 142.58,54.56 139.83,53.73 137.07,52.99 134.32,52.33 131.56,51.73 128.81,51.18 126.05,50.69 123.30,50.24 120.54,49.84 117.79,49.48 115.03,49.16 112.28,48.87 109.52,48.60 106.77,48.37 104.01,48.15 101.26,47.96 98.50,47.79 95.75,47.63 92.99,47.49 90.24,47.36 87.48,47.25 84.73,47.15 81.97,47.06 79.22,46.98 76.46,46.90 73.71,46.83 70.95,46.77 68.20,46.72 65.44,46.67" style="stroke-width: 0.00;stroke: none;stroke-linecap: butt;fill: #C77CFF;fill-opacity: 0.15;" />
<polyline points="65.44,46.26 68.20,46.26 70.95,46.27 73.71,46.27 76.46,46.28 79.22,46.29 81.97,46.29 84.73,46.30 87.48,46.31 90.24,46.33 92.99,46.34 95.75,46.36 98.50,46.38 101.26,46.40 104.01,46.42 106.77,46.45 109.52,46.49 112.28,46.53 115.03,46.58 117.79,46.63 120.54,46.70 123.30,46.77 126.05,46.86 128.81,46.96 131.56,47.08 134.32,47.21 137.07,47.37 139.83,47.55 142.58,47.76 145.34,48.01 148.09,48.30 150.85,48.63 153.60,49.02 156.36,49.48 159.11,49.99 161.87,50.59 164.62,51.29 167.38,52.10 170.13,53.03 172.89,54.11 175.64,55.35 178.39,56.79 181.15,58.45 183.90,60.36 186.66,62.56 189.41,65.08 192.17,67.98 194.92,71.30 197.68,75.10 200.43,79.42 203.19,84.34 205.94,89.99 208.70,96.27 211.45,103.33 214.21,111.22 216.96,119.99 219.72,129.62 222.47,140.37 225.23,152.05 227.98,164.77 230.74,178.38 233.49,192.87 236.25,207.99 239.00,223.80 241.76,239.83 244.51,256.03 247.27,272.23 250.02,287.58 252.78,302.05 255.53,315.36 258.29,327.64 261.04,339.71 263.80,351.06 266.55,362.05 269.31,372.50 272.06,382.47 274.82,391.93 277.57,400.95 280.33,409.60 283.08,417.62 285.83,425.09 288.59,432.03 291.34,438.51 294.10,444.62 296.85,450.16 299.61,455.27 302.36,459.97 305.12,464.29 307.87,468.30 310.63,471.96 313.38,475.30 316.14,478.34 318.89,481.10 321.65,483.62 324.40,485.90 327.16,487.98 329.91,489.87 332.67,491.60 335.42,493.16 338.18,494.57 340.93,495.83 343.69,496.98 346.44,498.02 349.20,498.95 351.95,499.80 354.71,500.56 357.46,501.24 360.22,501.86 362.97,502.42 365.73,502.92 368.48,503.38 371.24,503.78 373.99,504.15 376.75,504.48 379.50,504.78 382.26,505.05 385.01,505.29 387.77,505.50 390.52,505.70 393.28,505.87 396.03,506.03 398.78,506.17 401.54,506.30 404.29,506.42 407.05,506.52 409.80,506.61 412.56,506.70 415.31,506.77 418.07,506.84 420.82,506.90 423.58,506.96 426.33,507.00 429.09,507.05 431.84,507.09 434.60,507.12 437.35,507.16 440.11,507.19 442.86,507.21 445.62,507.23 448.37,507.26 451.13,507.27 453.88,507.29 456.64,507.31 459.39,507.32 462.15,507.33 464.90,507.34 467.66,507.35 470.41,507.36 473.17,507.37 475.92,507.38 478.68,507.38 481.43,507.39 484.19,507.40 486.94,507.40 489.70,507.41 492.45,507.41 495.21,507.41 497.96,507.42 500.72,507.42 503.47,507.42 506.22,507.42 508.98,507.43 511.73,507.43 514.49,507.43 517.24,507.43 520.00,507.43 522.75,507.43 525.51,507.43 528.26,507.43 531.02,507.44 533.77,507.44 536.53,507.44 539.28,507.44 542.04,507.44 544.79,507.44 547.55,507.44 550.30,507.44 553.06,507.44 555.81,507.44 558.57,507.44 561.32,507.44 564.08,507.44 566.83,507.44 569.59,507.44 572.34,507.44 575.10,507.44 577.85,507.44 580.61,507.44 583.36,507.44 586.12,507.44 588.87,507.44 591.63,507.44 594.38,507.44 597.14,507.44 599.89,507.44 602.65,507.44 605.40,507.44 608.16,507.44 610.91,507.44 613.67,507.44" style="stroke-width: 1.07;stroke: none;stroke-linecap: butt;"/>
<polyline points="613.67,507.44 610.91,507.44 608.16,507.44 605.40,507.44 602.65,507.44 599.89,507.44 597.14,507.44 594.38,507.44 591.63,507.44 588.87,507.44 586.12,507.44 583.36,507.44 580.61,507.44 577.85,507.44 575.10,507.44 572.34,507.44 569.59,507.44 566.83,507.44 564.08,507.44 561.32,507.44 558.57,507.44 555.81,507.44 553.06,507.44 550.30,507.44 547.55,507.44 544.79,507.44 542.04,507.44 539.28,507.44 536.53,507.44 533.77,507.44 531.02,507.44 528.26,507.44 525.51,507.44 522.75,507.44 520.00,507.44 517.24,507.44 514.49,507.44 511.73,507.44 508.98,507.44 506.22,507.44 503.47,507.44 500.72,507.44 497.96,507.44 495.21,507.44 492.45,507.44 489.70,507.44 486.94,507.44 484.19,507.44 481.43,507.44 478.68,507.44 475.92,507.44 473.17,507.44 470.41,507.44 467.66,507.44 464.90,507.44 462.15,507.44 459.39,507.44 456.64,507.44 453.88,507.44 451.13,507.44 448.37,507.44 445.62,507.43 442.86,507.43 440.11,507.43 437.35,507.43 434.60,507.43 431.84,507.42 429.09,507.42 426.33,507.42 423.58,507.41 420.82,507.41 418.07,507.40 415.31,507.40 412.56,507.39 409.80,507.38 407.05,507.37 404.29,507.36 401.54,507.34 398.78,507.33 396.03,507.31 393.28,507.28 390.52,507.26 387.77,507.23 385.01,507.19 382.26,507.15 379.50,507.11 376.75,507.05 373.99,506.99 371.24,506.91 368.48,506.83 365.73,506.73 362.97,506.61 360.22,506.48 357.46,506.32 354.71,506.14 351.95,505.93 349.20,505.69 346.44,505.40 343.69,505.07 340.93,504.70 338.18,504.25 335.42,503.74 332.67,503.15 329.91,502.46 327.16,501.67 324.40,500.75 321.65,499.70 318.89,498.48 316.14,497.05 313.38,495.40 310.63,493.49 307.87,491.31 305.12,488.83 302.36,485.99 299.61,482.74 296.85,479.01 294.10,474.74 291.34,469.77 288.59,464.23 285.83,458.15 283.08,451.07 280.33,443.28 277.57,434.48 274.82,424.86 272.06,414.27 269.31,402.70 266.55,390.10 263.80,376.62 261.04,362.46 258.29,347.44 255.53,332.25 252.78,316.73 250.02,301.29 247.27,286.45 244.51,272.62 241.76,259.07 239.00,246.62 236.25,234.61 233.49,222.59 230.74,210.94 227.98,199.74 225.23,188.99 222.47,178.56 219.72,168.64 216.96,159.33 214.21,150.46 211.45,142.26 208.70,134.44 205.94,127.15 203.19,120.44 200.43,113.99 197.68,107.97 194.92,102.54 192.17,97.41 189.41,92.73 186.66,88.48 183.90,84.58 181.15,81.00 178.39,77.74 175.64,74.74 172.89,72.03 170.13,69.58 167.38,67.34 164.62,65.30 161.87,63.45 159.11,61.77 156.36,60.25 153.60,58.88 150.85,57.64 148.09,56.51 145.34,55.48 142.58,54.56 139.83,53.73 137.07,52.99 134.32,52.33 131.56,51.73 128.81,51.18 126.05,50.69 123.30,50.24 120.54,49.84 117.79,49.48 115.03,49.16 112.28,48.87 109.52,48.60 106.77,48.37 104.01,48.15 101.26,47.96 98.50,47.79 95.75,47.63 92.99,47.49 90.24,47.36 87.48,47.25 84.73,47.15 81.97,47.06 79.22,46.98 76.46,46.90 73.71,46.83 70.95,46.77 68.20,46.72 65.44,46.67" style="stroke-width: 1.07;stroke: none;stroke-linecap: butt;"/>
<circle cx="65.44" cy="46.24" r="2.06" style="stroke-width: 0.71;stroke: #F8766D;stroke-opacity: 0.70;fill: #F8766D;fill-opacity: 0.70;"/>
<circle cx="65.44" cy="46.24" r="2.06" style="stroke-width: 0.71;stroke: #F8766D;stroke-opacity: 0.70;fill: #F8766D;fill-opacity: 0.70;"/>
<circle cx="65.44" cy="46.24" r="2.06" style="stroke-width: 0.71;stroke: #F8766D;stroke-opacity: 0.70;fill: #F8766D;fill-opacity: 0.70;"/>
<circle cx="157.08" cy="53.11" r="2.06" style="stroke-width: 0.71;stroke: #F8766D;stroke-opacity: 0.70;fill: #F8766D;fill-opacity: 0.70;"/>
<circle cx="157.08" cy="46.24" r="2.06" style="stroke-width: 0.71;stroke: #F8766D;stroke-opacity: 0.70;fill: #F8766D;fill-opacity: 0.70;"/>
<circle cx="157.08" cy="46.24" r="2.06" style="stroke-width: 0.71;stroke: #F8766D;stroke-opacity: 0.70;fill: #F8766D;fill-opacity: 0.70;"/>
<circle cx="248.71" cy="207.61" r="2.06" style="stroke-width: 0.71;stroke: #F8766D;stroke-opacity: 0.70;fill: #F8766D;fill-opacity: 0.70;"/>
<circle cx="248.71" cy="173.34" r="2.06" style="stroke-width: 0.71;stroke: #F8766D;stroke-opacity: 0.70;fill: #F8766D;fill-opacity: 0.70;"/>
<circle cx="248.71" cy="220.70" r="2.06" style="stroke-width: 0.71;stroke: #F8766D;stroke-opacity: 0.70;fill: #F8766D;fill-opacity: 0.70;"/>
<circle cx="338.77" cy="505.34" r="2.06" style="stroke-width: 0.71;stroke: #F8766D;stroke-opacity: 0.70;fill: #F8766D;fill-opacity: 0.70;"/>
<circle cx="338.77" cy="507.44" r="2.06" style="stroke-width: 0.71;stroke: #F8766D;stroke-opacity: 0.70;fill: #F8766D;fill-opacity: 0.70;"/>
<circle cx="338.77" cy="507.44" r="2.06" style="stroke-width: 0.71;stroke: #F8766D;stroke-opacity: 0.70;fill: #F8766D;fill-opacity: 0.70;"/>
<circle cx="430.40" cy="507.44" r="2.06" style="stroke-width: 0.71;stroke: #F8766D;stroke-opacity: 0.70;fill: #F8766D;fill-opacity: 0.70;"/>
<circle cx="430.40" cy="507.44" r="2.06" style="stroke-width: 0.71;stroke: #F8766D;stroke-opacity: 0.70;fill: #F8766D;fill-opacity: 0.70;"/>
<circle cx="430.40" cy="507.44" r="2.06" style="stroke-width: 0.71;stroke: #F8766D;stroke-opacity: 0.70;fill: #F8766D;fill-opacity: 0.70;"/>
<circle cx="522.03" cy="507.44" r="2.06" style="stroke-width: 0.71;stroke: #F8766D;stroke-opacity: 0.70;fill: #F8766D;fill-opacity: 0.70;"/>
<circle cx="522.03" cy="507.44" r="2.06" style="stroke-width: 0.71;stroke: #F8766D;stroke-opacity: 0.70;fill: #F8766D;fill-opacity: 0.70;"/>
<circle cx="522.03" cy="507.44" r="2.06" style="stroke-width: 0.71;stroke: #F8766D;stroke-opacity: 0.70;fill: #F8766D;fill-opacity: 0.70;"/>
<circle cx="613.67" cy="507.44" r="2.06" style="stroke-width: 0.71;stroke: #F8766D;stroke-opacity: 0.70;fill: #F8766D;fill-opacity: 0.70;"/>
<circle cx="613.67" cy="507.44" r="2.06" style="stroke-width: 0.71;stroke: #F8766D;stroke-opacity: 0.70;fill: #F8766D;fill-opacity: 0.70;"/>
<circle cx="613.67" cy="507.33" r="2.06" style="stroke-width: 0.71;stroke: #F8766D;stroke-opacity: 0.70;fill: #F8766D;fill-opacity: 0.70;"/>
<circle cx="65.44" cy="46.24" r="2.06" style="stroke-width: 0.71;stroke: #C77CFF;stroke-opacity: 0.70;fill: #C77CFF;fill-opacity: 0.70;"/>
<circle cx="65.44" cy="46.24" r="2.06" style="stroke-width: 0.71;stroke: #C77CFF;stroke-opacity: 0.70;fill: #C77CFF;fill-opacity: 0.70;"/>
<circle cx="65.44" cy="46.24" r="2.06" style="stroke-width: 0.71;stroke: #C77CFF;stroke-opacity: 0.70;fill: #C77CFF;fill-opacity: 0.70;"/>
<circle cx="157.08" cy="46.24" r="2.06" style="stroke-width: 0.71;stroke: #C77CFF;stroke-opacity: 0.70;fill: #C77CFF;fill-opacity: 0.70;"/>
<circle cx="157.08" cy="46.24" r="2.06" style="stroke-width: 0.71;stroke: #C77CFF;stroke-opacity: 0.70;fill: #C77CFF;fill-opacity: 0.70;"/>
<circle cx="157.08" cy="82.24" r="2.06" style="stroke-width: 0.71;stroke: #C77CFF;stroke-opacity: 0.70;fill: #C77CFF;fill-opacity: 0.70;"/>
<circle cx="248.71" cy="284.89" r="2.06" style="stroke-width: 0.71;stroke: #C77CFF;stroke-opacity: 0.70;fill: #C77CFF;fill-opacity: 0.70;"/>
<circle cx="248.71" cy="276.39" r="2.06" style="stroke-width: 0.71;stroke: #C77CFF;stroke-opacity: 0.70;fill: #C77CFF;fill-opacity: 0.70;"/>
<circle cx="248.71" cy="298.83" r="2.06" style="stroke-width: 0.71;stroke: #C77CFF;stroke-opacity: 0.70;fill: #C77CFF;fill-opacity: 0.70;"/>
<circle cx="338.77" cy="507.44" r="2.06" style="stroke-width: 0.71;stroke: #C77CFF;stroke-opacity: 0.70;fill: #C77CFF;fill-opacity: 0.70;"/>
<circle cx="338.77" cy="507.44" r="2.06" style="stroke-width: 0.71;stroke: #C77CFF;stroke-opacity: 0.70;fill: #C77CFF;fill-opacity: 0.70;"/>
<circle cx="338.77" cy="506.22" r="2.06" style="stroke-width: 0.71;stroke: #C77CFF;stroke-opacity: 0.70;fill: #C77CFF;fill-opacity: 0.70;"/>
<circle cx="430.40" cy="507.44" r="2.06" style="stroke-width: 0.71;stroke: #C77CFF;stroke-opacity: 0.70;fill: #C77CFF;fill-opacity: 0.70;"/>
<circle cx="430.40" cy="507.44" r="2.06" style="stroke-width: 0.71;stroke: #C77CFF;stroke-opacity: 0.70;fill: #C77CFF;fill-opacity: 0.70;"/>
<circle cx="430.40" cy="507.44" r="2.06" style="stroke-width: 0.71;stroke: #C77CFF;stroke-opacity: 0.70;fill: #C77CFF;fill-opacity: 0.70;"/>
<circle cx="522.03" cy="507.44" r="2.06" style="stroke-width: 0.71;stroke: #C77CFF;stroke-opacity: 0.70;fill: #C77CFF;fill-opacity: 0.70;"/>
<circle cx="522.03" cy="507.44" r="2.06" style="stroke-width: 0.71;stroke: #C77CFF;stroke-opacity: 0.70;fill: #C77CFF;fill-opacity: 0.70;"/>
<circle cx="522.03" cy="507.44" r="2.06" style="stroke-width: 0.71;stroke: #C77CFF;stroke-opacity: 0.70;fill: #C77CFF;fill-opacity: 0.70;"/>
<circle cx="613.67" cy="507.44" r="2.06" style="stroke-width: 0.71;stroke: #C77CFF;stroke-opacity: 0.70;fill: #C77CFF;fill-opacity: 0.70;"/>
<circle cx="613.67" cy="506.99" r="2.06" style="stroke-width: 0.71;stroke: #C77CFF;stroke-opacity: 0.70;fill: #C77CFF;fill-opacity: 0.70;"/>
<circle cx="613.67" cy="507.44" r="2.06" style="stroke-width: 0.71;stroke: #C77CFF;stroke-opacity: 0.70;fill: #C77CFF;fill-opacity: 0.70;"/>
<circle cx="65.44" cy="46.24" r="2.06" style="stroke-width: 0.71;stroke: #00BFC4;stroke-opacity: 0.70;fill: #00BFC4;fill-opacity: 0.70;"/>
<circle cx="65.44" cy="46.24" r="2.06" style="stroke-width: 0.71;stroke: #00BFC4;stroke-opacity: 0.70;fill: #00BFC4;fill-opacity: 0.70;"/>
<circle cx="65.44" cy="46.24" r="2.06" style="stroke-width: 0.71;stroke: #00BFC4;stroke-opacity: 0.70;fill: #00BFC4;fill-opacity: 0.70;"/>
<circle cx="157.08" cy="46.24" r="2.06" style="stroke-width: 0.71;stroke: #00BFC4;stroke-opacity: 0.70;fill: #00BFC4;fill-opacity: 0.70;"/>
<circle cx="157.08" cy="46.24" r="2.06" style="stroke-width: 0.71;stroke: #00BFC4;stroke-opacity: 0.70;fill: #00BFC4;fill-opacity: 0.70;"/>
<circle cx="157.08" cy="46.24" r="2.06" style="stroke-width: 0.71;stroke: #00BFC4;stroke-opacity: 0.70;fill: #00BFC4;fill-opacity: 0.70;"/>
<circle cx="248.71" cy="237.31" r="2.06" style="stroke-width: 0.71;stroke: #00BFC4;stroke-opacity: 0.70;fill: #00BFC4;fill-opacity: 0.70;"/>
<circle cx="248.71" cy="211.85" r="2.06" style="stroke-width: 0.71;stroke: #00BFC4;stroke-opacity: 0.70;fill: #00BFC4;fill-opacity: 0.70;"/>
<circle cx="248.71" cy="153.72" r="2.06" style="stroke-width: 0.71;stroke: #00BFC4;stroke-opacity: 0.70;fill: #00BFC4;fill-opacity: 0.70;"/>
<circle cx="338.77" cy="501.67" r="2.06" style="stroke-width: 0.71;stroke: #00BFC4;stroke-opacity: 0.70;fill: #00BFC4;fill-opacity: 0.70;"/>
<circle cx="338.77" cy="507.44" r="2.06" style="stroke-width: 0.71;stroke: #00BFC4;stroke-opacity: 0.70;fill: #00BFC4;fill-opacity: 0.70;"/>
<circle cx="338.77" cy="499.56" r="2.06" style="stroke-width: 0.71;stroke: #00BFC4;stroke-opacity: 0.70;fill: #00BFC4;fill-opacity: 0.70;"/>
<circle cx="430.40" cy="507.44" r="2.06" style="stroke-width: 0.71;stroke: #00BFC4;stroke-opacity: 0.70;fill: #00BFC4;fill-opacity: 0.70;"/>
<circle cx="430.40" cy="507.44" r="2.06" style="stroke-width: 0.71;stroke: #00BFC4;stroke-opacity: 0.70;fill: #00BFC4;fill-opacity: 0.70;"/>
<circle cx="430.40" cy="507.44" r="2.06" style="stroke-width: 0.71;stroke: #00BFC4;stroke-opacity: 0.70;fill: #00BFC4;fill-opacity: 0.70;"/>
<circle cx="522.03" cy="507.44" r="2.06" style="stroke-width: 0.71;stroke: #00BFC4;stroke-opacity: 0.70;fill: #00BFC4;fill-opacity: 0.70;"/>
<circle cx="522.03" cy="507.44" r="2.06" style="stroke-width: 0.71;stroke: #00BFC4;stroke-opacity: 0.70;fill: #00BFC4;fill-opacity: 0.70;"/>
<circle cx="522.03" cy="507.44" r="2.06" style="stroke-width: 0.71;stroke: #00BFC4;stroke-opacity: 0.70;fill: #00BFC4;fill-opacity: 0.70;"/>
<circle cx="613.67" cy="507.44" r="2.06" style="stroke-width: 0.71;stroke: #00BFC4;stroke-opacity: 0.70;fill: #00BFC4;fill-opacity: 0.70;"/>
<circle cx="613.67" cy="505.71" r="2.06" style="stroke-width: 0.71;stroke: #00BFC4;stroke-opacity: 0.70;fill: #00BFC4;fill-opacity: 0.70;"/>
<circle cx="613.67" cy="507.44" r="2.06" style="stroke-width: 0.71;stroke: #00BFC4;stroke-opacity: 0.70;fill: #00BFC4;fill-opacity: 0.70;"/>
<circle cx="65.44" cy="65.37" r="2.06" style="stroke-width: 0.71;stroke: #7CAE00;stroke-opacity: 0.70;fill: #7CAE00;fill-opacity: 0.70;"/>
<circle cx="65.44" cy="101.58" r="2.06" style="stroke-width: 0.71;stroke: #7CAE00;stroke-opacity: 0.70;fill: #7CAE00;fill-opacity: 0.70;"/>
<circle cx="65.44" cy="146.94" r="2.06" style="stroke-width: 0.71;stroke: #7CAE00;stroke-opacity: 0.70;fill: #7CAE00;fill-opacity: 0.70;"/>
<circle cx="157.08" cy="57.90" r="2.06" style="stroke-width: 0.71;stroke: #7CAE00;stroke-opacity: 0.70;fill: #7CAE00;fill-opacity: 0.70;"/>
<circle cx="157.08" cy="75.34" r="2.06" style="stroke-width: 0.71;stroke: #7CAE00;stroke-opacity: 0.70;fill: #7CAE00;fill-opacity: 0.70;"/>
<circle cx="157.08" cy="110.45" r="2.06" style="stroke-width: 0.71;stroke: #7CAE00;stroke-opacity: 0.70;fill: #7CAE00;fill-opacity: 0.70;"/>
<circle cx="248.71" cy="256.09" r="2.06" style="stroke-width: 0.71;stroke: #7CAE00;stroke-opacity: 0.70;fill: #7CAE00;fill-opacity: 0.70;"/>
<circle cx="248.71" cy="184.43" r="2.06" style="stroke-width: 0.71;stroke: #7CAE00;stroke-opacity: 0.70;fill: #7CAE00;fill-opacity: 0.70;"/>
<circle cx="248.71" cy="227.87" r="2.06" style="stroke-width: 0.71;stroke: #7CAE00;stroke-opacity: 0.70;fill: #7CAE00;fill-opacity: 0.70;"/>
<circle cx="338.77" cy="507.44" r="2.06" style="stroke-width: 0.71;stroke: #7CAE00;stroke-opacity: 0.70;fill: #7CAE00;fill-opacity: 0.70;"/>
<circle cx="338.77" cy="507.44" r="2.06" style="stroke-width: 0.71;stroke: #7CAE00;stroke-opacity: 0.70;fill: #7CAE00;fill-opacity: 0.70;"/>
<circle cx="338.77" cy="507.44" r="2.06" style="stroke-width: 0.71;stroke: #7CAE00;stroke-opacity: 0.70;fill: #7CAE00;fill-opacity: 0.70;"/>
<circle cx="430.40" cy="507.44" r="2.06" style="stroke-width: 0.71;stroke: #7CAE00;stroke-opacity: 0.70;fill: #7CAE00;fill-opacity: 0.70;"/>
<circle cx="430.40" cy="507.44" r="2.06" style="stroke-width: 0.71;stroke: #7CAE00;stroke-opacity: 0.70;fill: #7CAE00;fill-opacity: 0.70;"/>
<circle cx="430.40" cy="507.44" r="2.06" style="stroke-width: 0.71;stroke: #7CAE00;stroke-opacity: 0.70;fill: #7CAE00;fill-opacity: 0.70;"/>
<circle cx="522.03" cy="507.44" r="2.06" style="stroke-width: 0.71;stroke: #7CAE00;stroke-opacity: 0.70;fill: #7CAE00;fill-opacity: 0.70;"/>
<circle cx="522.03" cy="507.44" r="2.06" style="stroke-width: 0.71;stroke: #7CAE00;stroke-opacity: 0.70;fill: #7CAE00;fill-opacity: 0.70;"/>
<circle cx="522.03" cy="507.44" r="2.06" style="stroke-width: 0.71;stroke: #7CAE00;stroke-opacity: 0.70;fill: #7CAE00;fill-opacity: 0.70;"/>
<circle cx="613.67" cy="507.44" r="2.06" style="stroke-width: 0.71;stroke: #7CAE00;stroke-opacity: 0.70;fill: #7CAE00;fill-opacity: 0.70;"/>
<circle cx="613.67" cy="507.17" r="2.06" style="stroke-width: 0.71;stroke: #7CAE00;stroke-opacity: 0.70;fill: #7CAE00;fill-opacity: 0.70;"/>
<circle cx="613.67" cy="507.44" r="2.06" style="stroke-width: 0.71;stroke: #7CAE00;stroke-opacity: 0.70;fill: #7CAE00;fill-opacity: 0.70;"/>
<polyline points="65.44,46.24 68.20,46.24 70.95,46.24 73.71,46.24 76.46,46.24 79.22,46.24 81.97,46.24 84.73,46.24 87.48,46.24 90.24,46.24 92.99,46.24 95.75,46.24 98.50,46.25 101.26,46.25 104.01,46.25 106.77,46.25 109.52,46.25 112.28,46.26 115.03,46.26 117.79,46.27 120.54,46.27 123.30,46.28 126.05,46.29 128.81,46.30 131.56,46.31 134.32,46.32 137.07,46.34 139.83,46.36 142.58,46.38 145.34,46.41 148.09,46.44 150.85,46.48 153.60,46.53 156.36,46.59 159.11,46.67 161.87,46.75 164.62,46.86 167.38,46.98 170.13,47.13 172.89,47.32 175.64,47.54 178.39,47.81 181.15,48.13 183.90,48.52 186.66,49.00 189.41,49.57 192.17,50.26 194.92,51.10 197.68,52.12 200.43,53.35 203.19,54.84 205.94,56.63 208.70,58.80 211.45,61.42 214.21,64.57 216.96,68.36 219.72,72.90 222.47,78.32 225.23,84.78 227.98,92.42 230.74,101.41 233.49,111.92 236.25,124.09 239.00,138.04 241.76,153.84 244.51,171.48 247.27,190.88 250.02,211.83 252.78,234.02 255.53,257.06 258.29,280.47 261.04,303.76 263.80,326.44 266.55,348.09 269.31,368.35 272.06,386.99 274.82,403.86 277.57,418.93 280.33,432.21 283.08,443.79 285.83,453.80 288.59,462.39 291.34,469.70 294.10,475.90 296.85,481.12 299.61,485.51 302.36,489.19 305.12,492.27 307.87,494.83 310.63,496.97 313.38,498.74 316.14,500.22 318.89,501.45 321.65,502.46 324.40,503.31 327.16,504.01 329.91,504.59 332.67,505.07 335.42,505.47 338.18,505.80 340.93,506.08 343.69,506.31 346.44,506.50 349.20,506.65 351.95,506.79 354.71,506.89 357.46,506.99 360.22,507.06 362.97,507.12 365.73,507.18 368.48,507.22 371.24,507.26 373.99,507.29 376.75,507.31 379.50,507.33 382.26,507.35 385.01,507.37 387.77,507.38 390.52,507.39 393.28,507.40 396.03,507.40 398.78,507.41 401.54,507.42 404.29,507.42 407.05,507.42 409.80,507.43 412.56,507.43 415.31,507.43 418.07,507.43 420.82,507.44 423.58,507.44 426.33,507.44 429.09,507.44 431.84,507.44 434.60,507.44 437.35,507.44 440.11,507.44 442.86,507.44 445.62,507.44 448.37,507.44 451.13,507.44 453.88,507.44 456.64,507.44 459.39,507.44 462.15,507.44 464.90,507.44 467.66,507.44 470.41,507.44 473.17,507.44 475.92,507.44 478.68,507.44 481.43,507.44 484.19,507.44 486.94,507.44 489.70,507.44 492.45,507.44 495.21,507.44 497.96,507.44 500.72,507.44 503.47,507.44 506.22,507.44 508.98,507.44 511.73,507.44 514.49,507.44 517.24,507.44 520.00,507.44 522.75,507.44 525.51,507.44 528.26,507.44 531.02,507.44 533.77,507.44 536.53,507.44 539.28,507.44 542.04,507.44 544.79,507.44 547.55,507.44 550.30,507.44 553.06,507.44 555.81,507.44 558.57,507.44 561.32,507.44 564.08,507.44 566.83,507.44 569.59,507.44 572.34,507.44 575.10,507.44 577.85,507.44 580.61,507.44 583.36,507.44 586.12,507.44 588.87,507.44 591.63,507.44 594.38,507.44 597.14,507.44 599.89,507.44 602.65,507.44 605.40,507.44 608.16,507.44 610.91,507.44 613.67,507.44" style="stroke-width: 1.71;stroke: #F8766D;stroke-linecap: butt;"/>
<polyline points="65.44,95.16 68.20,95.19 70.95,95.23 73.71,95.26 76.46,95.29 79.22,95.33 81.97,95.36 84.73,95.40 87.48,95.43 90.24,95.47 92.99,95.51 95.75,95.55 98.50,95.60 101.26,95.64 104.01,95.69 106.77,95.73 109.52,95.78 112.28,95.83 115.03,95.89 117.79,95.94 120.54,96.00 123.30,96.06 126.05,96.12 128.81,96.19 131.56,96.25 134.32,96.32 137.07,96.40 139.83,96.48 142.58,96.56 145.34,96.64 148.09,96.73 150.85,96.83 153.60,96.93 156.36,97.03 159.11,97.14 161.87,97.26 164.62,97.39 167.38,97.52 170.13,97.66 172.89,97.82 175.64,97.98 178.39,98.16 181.15,98.35 183.90,98.55 186.66,98.78 189.41,99.02 192.17,99.29 194.92,99.59 197.68,99.95 200.43,100.53 203.19,101.89 205.94,105.12 208.70,110.40 211.45,117.17 214.21,124.98 216.96,133.70 219.72,143.98 222.47,155.92 225.23,169.65 227.98,185.10 230.74,202.98 233.49,224.30 236.25,249.22 239.00,276.94 241.76,306.22 244.51,335.64 247.27,363.60 250.02,388.66 252.78,409.98 255.53,427.43 258.29,441.40 261.04,452.46 263.80,461.21 266.55,468.17 269.31,473.74 272.06,478.23 274.82,481.88 277.57,484.87 280.33,487.34 283.08,489.41 285.83,491.14 288.59,492.61 291.34,493.87 294.10,494.94 296.85,495.88 299.61,496.69 302.36,497.40 305.12,498.03 307.87,498.59 310.63,499.08 313.38,499.53 316.14,499.93 318.89,500.29 321.65,500.62 324.40,500.92 327.16,501.20 329.91,501.45 332.67,501.68 335.42,501.90 338.18,502.09 340.93,502.28 343.69,502.45 346.44,502.61 349.20,502.76 351.95,502.91 354.71,503.04 357.46,503.16 360.22,503.28 362.97,503.39 365.73,503.50 368.48,503.60 371.24,503.70 373.99,503.79 376.75,503.87 379.50,503.95 382.26,504.03 385.01,504.11 387.77,504.18 390.52,504.25 393.28,504.31 396.03,504.38 398.78,504.44 401.54,504.50 404.29,504.55 407.05,504.60 409.80,504.66 412.56,504.71 415.31,504.76 418.07,504.80 420.82,504.85 423.58,504.89 426.33,504.93 429.09,504.97 431.84,505.01 434.60,505.05 437.35,505.09 440.11,505.12 442.86,505.16 445.62,505.19 448.37,505.23 451.13,505.26 453.88,505.29 456.64,505.32 459.39,505.35 462.15,505.38 464.90,505.41 467.66,505.43 470.41,505.46 473.17,505.49 475.92,505.51 478.68,505.54 481.43,505.56 484.19,505.58 486.94,505.61 489.70,505.63 492.45,505.65 495.21,505.67 497.96,505.69 500.72,505.71 503.47,505.73 506.22,505.75 508.98,505.77 511.73,505.79 514.49,505.81 517.24,505.83 520.00,505.85 522.75,505.87 525.51,505.88 528.26,505.90 531.02,505.92 533.77,505.93 536.53,505.95 539.28,505.96 542.04,505.98 544.79,505.99 547.55,506.01 550.30,506.02 553.06,506.04 555.81,506.05 558.57,506.07 561.32,506.08 564.08,506.09 566.83,506.11 569.59,506.12 572.34,506.13 575.10,506.15 577.85,506.16 580.61,506.17 583.36,506.18 586.12,506.19 588.87,506.21 591.63,506.22 594.38,506.23 597.14,506.24 599.89,506.25 602.65,506.26 605.40,506.27 608.16,506.28 610.91,506.29 613.67,506.30" style="stroke-width: 1.71;stroke: #7CAE00;stroke-linecap: butt;"/>
<polyline points="65.44,46.24 68.20,46.24 70.95,46.24 73.71,46.24 76.46,46.25 79.22,46.25 81.97,46.25 84.73,46.25 87.48,46.25 90.24,46.26 92.99,46.26 95.75,46.26 98.50,46.27 101.26,46.28 104.01,46.28 106.77,46.29 109.52,46.30 112.28,46.31 115.03,46.32 117.79,46.34 120.54,46.35 123.30,46.38 126.05,46.40 128.81,46.43 131.56,46.46 134.32,46.50 137.07,46.55 139.83,46.60 142.58,46.67 145.34,46.74 148.09,46.83 150.85,46.94 153.60,47.06 156.36,47.21 159.11,47.38 161.87,47.58 164.62,47.82 167.38,48.10 170.13,48.43 172.89,48.82 175.64,49.27 178.39,49.81 181.15,50.43 183.90,51.17 186.66,52.03 189.41,53.05 192.17,54.23 194.92,55.62 197.68,57.25 200.43,59.14 203.19,61.36 205.94,63.94 208.70,66.94 211.45,70.42 214.21,74.45 216.96,79.11 219.72,84.46 222.47,90.59 225.23,97.59 227.98,105.54 230.74,114.52 233.49,124.58 236.25,135.80 239.00,148.20 241.76,161.78 244.51,176.51 247.27,192.33 250.02,209.12 252.78,226.74 255.53,244.99 258.29,263.66 261.04,282.51 263.80,301.28 266.55,319.72 269.31,337.62 272.06,354.75 274.82,370.97 277.57,386.14 280.33,400.18 283.08,413.04 285.83,424.72 288.59,435.24 291.34,444.64 294.10,452.99 296.85,460.36 299.61,466.83 302.36,472.48 305.12,477.41 307.87,481.68 310.63,485.37 313.38,488.56 316.14,491.31 318.89,493.66 321.65,495.69 324.40,497.42 327.16,498.90 329.91,500.17 332.67,501.25 335.42,502.17 338.18,502.96 340.93,503.63 343.69,504.20 346.44,504.68 349.20,505.10 351.95,505.45 354.71,505.75 357.46,506.00 360.22,506.22 362.97,506.40 365.73,506.56 368.48,506.69 371.24,506.80 373.99,506.90 376.75,506.98 379.50,507.05 382.26,507.11 385.01,507.16 387.77,507.20 390.52,507.24 393.28,507.27 396.03,507.30 398.78,507.32 401.54,507.34 404.29,507.35 407.05,507.37 409.80,507.38 412.56,507.39 415.31,507.40 418.07,507.40 420.82,507.41 423.58,507.41 426.33,507.42 429.09,507.42 431.84,507.43 434.60,507.43 437.35,507.43 440.11,507.43 442.86,507.43 445.62,507.44 448.37,507.44 451.13,507.44 453.88,507.44 456.64,507.44 459.39,507.44 462.15,507.44 464.90,507.44 467.66,507.44 470.41,507.44 473.17,507.44 475.92,507.44 478.68,507.44 481.43,507.44 484.19,507.44 486.94,507.44 489.70,507.44 492.45,507.44 495.21,507.44 497.96,507.44 500.72,507.44 503.47,507.44 506.22,507.44 508.98,507.44 511.73,507.44 514.49,507.44 517.24,507.44 520.00,507.44 522.75,507.44 525.51,507.44 528.26,507.44 531.02,507.44 533.77,507.44 536.53,507.44 539.28,507.44 542.04,507.44 544.79,507.44 547.55,507.44 550.30,507.44 553.06,507.44 555.81,507.44 558.57,507.44 561.32,507.44 564.08,507.44 566.83,507.44 569.59,507.44 572.34,507.44 575.10,507.44 577.85,507.44 580.61,507.44 583.36,507.44 586.12,507.44 588.87,507.44 591.63,507.44 594.38,507.44 597.14,507.44 599.89,507.44 602.65,507.44 605.40,507.44 608.16,507.44 610.91,507.44 613.67,507.44" style="stroke-width: 1.71;stroke: #00BFC4;stroke-linecap: butt;"/>
<polyline points="65.44,46.37 68.20,46.38 70.95,46.40 73.71,46.42 76.46,46.45 79.22,46.47 81.97,46.50 84.73,46.54 87.48,46.58 90.24,46.62 92.99,46.67 95.75,46.72 98.50,46.79 101.26,46.86 104.01,46.94 106.77,47.03 109.52,47.13 112.28,47.25 115.03,47.38 117.79,47.52 120.54,47.69 123.30,47.88 126.05,48.09 128.81,48.33 131.56,48.61 134.32,48.92 137.07,49.27 139.83,49.66 142.58,50.11 145.34,50.61 148.09,51.18 150.85,51.83 153.60,52.55 156.36,53.37 159.11,54.30 161.87,55.35 164.62,56.53 167.38,57.86 170.13,59.36 172.89,61.05 175.64,62.96 178.39,65.09 181.15,67.50 183.90,70.19 186.66,73.21 189.41,76.58 192.17,80.35 194.92,84.55 197.68,89.23 200.43,94.41 203.19,100.15 205.94,106.48 208.70,113.44 211.45,121.06 214.21,129.38 216.96,138.42 219.72,148.18 222.47,158.68 225.23,169.91 227.98,181.83 230.74,194.42 233.49,207.60 236.25,221.32 239.00,235.48 241.76,249.97 244.51,264.70 247.27,279.52 250.02,294.33 252.78,308.99 255.53,323.39 258.29,337.41 261.04,350.96 263.80,363.95 266.55,376.31 269.31,388.00 272.06,398.98 274.82,409.22 277.57,418.73 280.33,427.52 283.08,435.59 285.83,442.97 288.59,449.70 291.34,455.81 294.10,461.34 296.85,466.33 299.61,470.83 302.36,474.86 305.12,478.48 307.87,481.72 310.63,484.61 313.38,487.19 316.14,489.48 318.89,491.53 321.65,493.34 324.40,494.96 327.16,496.39 329.91,497.66 332.67,498.78 335.42,499.78 338.18,500.67 340.93,501.45 343.69,502.14 346.44,502.75 349.20,503.29 351.95,503.77 354.71,504.20 357.46,504.57 360.22,504.90 362.97,505.20 365.73,505.46 368.48,505.69 371.24,505.89 373.99,506.07 376.75,506.23 379.50,506.37 382.26,506.49 385.01,506.60 387.77,506.70 390.52,506.78 393.28,506.86 396.03,506.93 398.78,506.98 401.54,507.04 404.29,507.08 407.05,507.12 409.80,507.16 412.56,507.19 415.31,507.22 418.07,507.25 420.82,507.27 423.58,507.29 426.33,507.31 429.09,507.32 431.84,507.34 434.60,507.35 437.35,507.36 440.11,507.37 442.86,507.38 445.62,507.38 448.37,507.39 451.13,507.40 453.88,507.40 456.64,507.41 459.39,507.41 462.15,507.41 464.90,507.42 467.66,507.42 470.41,507.42 473.17,507.43 475.92,507.43 478.68,507.43 481.43,507.43 484.19,507.43 486.94,507.43 489.70,507.43 492.45,507.44 495.21,507.44 497.96,507.44 500.72,507.44 503.47,507.44 506.22,507.44 508.98,507.44 511.73,507.44 514.49,507.44 517.24,507.44 520.00,507.44 522.75,507.44 525.51,507.44 528.26,507.44 531.02,507.44 533.77,507.44 536.53,507.44 539.28,507.44 542.04,507.44 544.79,507.44 547.55,507.44 550.30,507.44 553.06,507.44 555.81,507.44 558.57,507.44 561.32,507.44 564.08,507.44 566.83,507.44 569.59,507.44 572.34,507.44 575.10,507.44 577.85,507.44 580.61,507.44 583.36,507.44 586.12,507.44 588.87,507.44 591.63,507.44 594.38,507.44 597.14,507.44 599.89,507.44 602.65,507.44 605.40,507.44 608.16,507.44 610.91,507.44 613.67,507.44" style="stroke-width: 1.71;stroke: #C77CFF;stroke-linecap: butt;"/>
</g><g clip-path="url(#c2)">
<g><text x="33.10" y="510.59" text-anchor="end" style="font-family: Arial;font-size: 8.80px;fill: #4D4D4D;" textLength="4.90px" lengthAdjust="spacingAndGlyphs">0</text></g>
<g><text x="33.10" y="395.29" text-anchor="end" style="font-family: Arial;font-size: 8.80px;fill: #4D4D4D;" textLength="9.79px" lengthAdjust="spacingAndGlyphs">25</text></g>
<g><text x="33.10" y="279.99" text-anchor="end" style="font-family: Arial;font-size: 8.80px;fill: #4D4D4D;" textLength="9.79px" lengthAdjust="spacingAndGlyphs">50</text></g>
<g><text x="33.10" y="164.69" text-anchor="end" style="font-family: Arial;font-size: 8.80px;fill: #4D4D4D;" textLength="9.79px" lengthAdjust="spacingAndGlyphs">75</text></g>
<g><text x="33.10" y="49.39" text-anchor="end" style="font-family: Arial;font-size: 8.80px;fill: #4D4D4D;" textLength="14.69px" lengthAdjust="spacingAndGlyphs">100</text></g>
<g><text x="111.26" y="541.74" text-anchor="middle" style="font-family: Arial;font-size: 8.80px;fill: #4D4D4D;" textLength="24.72px" lengthAdjust="spacingAndGlyphs">1e+02</text></g>
<g><text x="263.46" y="541.74" text-anchor="middle" style="font-family: Arial;font-size: 8.80px;fill: #4D4D4D;" textLength="24.72px" lengthAdjust="spacingAndGlyphs">1e+03</text></g>
<g><text x="415.65" y="541.74" text-anchor="middle" style="font-family: Arial;font-size: 8.80px;fill: #4D4D4D;" textLength="24.72px" lengthAdjust="spacingAndGlyphs">1e+04</text></g>
<g><text x="567.85" y="541.74" text-anchor="middle" style="font-family: Arial;font-size: 8.80px;fill: #4D4D4D;" textLength="24.72px" lengthAdjust="spacingAndGlyphs">1e+05</text></g>
<g><text x="339.55" y="554.20" text-anchor="middle" style="font-family: Arial;font-size: 11.00px;" textLength="50.36px" lengthAdjust="spacingAndGlyphs">Dose [M]</text></g>
<g><text transform="translate(13.36,276.84) rotate(-90.00)" text-anchor="middle" style="font-family: Arial;font-size: 11.00px;" textLength="57.87px" lengthAdjust="spacingAndGlyphs">Viability (%)</text></g>
<g><text x="657.51" y="243.48" style="font-family: Arial;font-size: 11.00px;" textLength="53.83px" lengthAdjust="spacingAndGlyphs">Compound</text></g>
<circle cx="666.15" cy="258.76" r="2.06" style="stroke-width: 0.71;stroke: #F8766D;stroke-opacity: 0.70;fill: #F8766D;fill-opacity: 0.70;"/>
<line x1="659.24" y1="258.76" x2="673.07" y2="258.76" style="stroke-width: 1.71;stroke: #F8766D;stroke-linecap: butt;"/>
<circle cx="666.15" cy="276.04" r="2.06" style="stroke-width: 0.71;stroke: #7CAE00;stroke-opacity: 0.70;fill: #7CAE00;fill-opacity: 0.70;"/>
<line x1="659.24" y1="276.04" x2="673.07" y2="276.04" style="stroke-width: 1.71;stroke: #7CAE00;stroke-linecap: butt;"/>
<circle cx="666.15" cy="293.32" r="2.06" style="stroke-width: 0.71;stroke: #00BFC4;stroke-opacity: 0.70;fill: #00BFC4;fill-opacity: 0.70;"/>
<line x1="659.24" y1="293.32" x2="673.07" y2="293.32" style="stroke-width: 1.71;stroke: #00BFC4;stroke-linecap: butt;"/>
<circle cx="666.15" cy="310.60" r="2.06" style="stroke-width: 0.71;stroke: #C77CFF;stroke-opacity: 0.70;fill: #C77CFF;fill-opacity: 0.70;"/>
<line x1="659.24" y1="310.60" x2="673.07" y2="310.60" style="stroke-width: 1.71;stroke: #C77CFF;stroke-linecap: butt;"/>
<g><text x="680.27" y="261.91" style="font-family: Arial;font-size: 8.80px;" textLength="45.48px" lengthAdjust="spacingAndGlyphs">KBrO3 (A1)</text></g>
<g><text x="680.27" y="279.19" style="font-family: Arial;font-size: 8.80px;" textLength="77.77px" lengthAdjust="spacingAndGlyphs">KBrO3_Erastin (A4)</text></g>
<g><text x="680.27" y="296.47" style="font-family: Arial;font-size: 8.80px;" textLength="68.95px" lengthAdjust="spacingAndGlyphs">KBrO3_NAC (A3)</text></g>
<g><text x="680.27" y="313.75" style="font-family: Arial;font-size: 8.80px;" textLength="67.97px" lengthAdjust="spacingAndGlyphs">KBrO3_SFN (A2)</text></g>
<g><text x="38.03" y="14.93" style="font-family: Arial;font-size: 13.20px;" textLength="379.83px" lengthAdjust="spacingAndGlyphs">Patient ASC397  doseresponse across compounds (ASC397)</text></g>
</g>
</svg>