<svg xmlns="http://www.w3.org/2000/svg" xmlns:xlink="http://www.w3.org/1999/xlink" class="httpgd" width="769.00" height="562.00" viewBox="0 0 769.00 562.00">
<defs>
  <style type='text/css'><![CDATA[
    .httpgd line, .httpgd polyline, .httpgd polygon, .httpgd path, .httpgd rect, .httpgd circle {
      fill: none;
      stroke: #000000;
      stroke-linecap: round;
      stroke-linejoin: round;
      stroke-miterlimit: 10.00;
    }
  ]]></style>
<clipPath id="c0"><rect x="0.00" y="0.00" width="769.00" height="562.00"/></clipPath>
<clipPath id="c1"><rect x="38.03" y="23.18" width="603.04" height="507.33"/></clipPath>
<clipPath id="c2"><rect x="0.00" y="0.00" width="769.00" height="562.00"/></clipPath>
</defs>
<rect width="100%" height="100%" style="stroke: none;fill: #FFFFFF;"/>
<g clip-path="url(#c0)">
</g><g clip-path="url(#c1)">
<polyline points="38.03,507.44 641.08,507.44" style="stroke-width: 1.07;stroke: #EBEBEB;stroke-linecap: butt;"/>
<polyline points="38.03,392.14 641.08,392.14" style="stroke-width: 1.07;stroke: #EBEBEB;stroke-linecap: butt;"/>
<polyline points="38.03,276.84 641.08,276.84" style="stroke-width: 1.07;stroke: #EBEBEB;stroke-linecap: butt;"/>
<polyline points="38.03,161.54 641.08,161.54" style="stroke-width: 1.07;stroke: #EBEBEB;stroke-linecap: butt;"/>
<polyline points="38.03,46.24 641.08,46.24" style="stroke-width: 1.07;stroke: #EBEBEB;stroke-linecap: butt;"/>
<polyline points="111.26,530.50 111.26,23.18" style="stroke-width: 1.07;stroke: #EBEBEB;stroke-linecap: butt;"/>
<polyline points="263.46,530.50 263.46,23.18" style="stroke-width: 1.07;stroke: #EBEBEB;stroke-linecap: butt;"/>
<polyline points="415.65,530.50 415.65,23.18" style="stroke-width: 1.07;stroke: #EBEBEB;stroke-linecap: butt;"/>
<polyline points="567.85,530.50 567.85,23.18" style="stroke-width: 1.07;stroke: #EBEBEB;stroke-linecap: butt;"/>
<polygon points="65.44,157.68 68.20,157.68 70.95,157.68 73.71,157.68 76.46,157.68 79.22,157.68 81.97,157.68 84.73,157.68 87.48,157.68 90.24,157.68 92.99,157.68 95.75,157.68 98.50,157.68 101.26,157.68 104.01,157.69 106.77,157.69 109.52,157.69 112.28,157.69 115.03,157.69 117.79,157.69 120.54,157.70 123.30,157.70 126.05,157.70 128.81,157.70 131.56,157.71 134.32,157.71 137.07,157.71 139.83,157.71 142.58,157.71 145.34,157.71 148.09,157.72 150.85,157.72 153.60,157.72 156.36,157.73 159.11,157.74 161.87,157.75 164.62,157.75 167.38,157.76 170.13,157.77 172.89,157.78 175.64,157.79 178.39,157.80 181.15,157.81 183.90,157.82 186.66,157.83 189.41,157.85 192.17,157.89 194.92,157.93 197.68,157.97 200.43,158.05 203.19,158.10 205.94,158.19 208.70,158.32 211.45,158.49 214.21,158.74 216.96,159.11 219.72,159.71 222.47,160.60 225.23,162.02 227.98,164.38 230.74,168.09 233.49,174.06 236.25,183.08 239.00,195.67 241.76,211.92 244.51,231.29 247.27,252.32 250.02,273.46 252.78,292.84 255.53,309.29 258.29,321.77 261.04,330.14 263.80,336.93 266.55,344.09 269.31,351.25 272.06,358.40 274.82,365.47 277.57,372.42 280.33,379.25 283.08,385.92 285.83,392.43 288.59,398.75 291.34,404.88 294.10,410.80 296.85,416.51 299.61,421.99 302.36,427.24 305.12,432.27 307.87,437.06 310.63,441.61 313.38,445.94 316.14,450.04 318.89,453.92 321.65,457.58 324.40,461.03 327.16,464.28 329.91,467.33 332.67,470.19 335.42,472.86 338.18,475.37 340.93,477.71 343.69,479.90 346.44,481.93 349.20,483.83 351.95,485.60 354.71,487.24 357.46,488.76 360.22,490.18 362.97,491.49 365.73,492.71 368.48,493.84 371.24,494.89 373.99,495.86 376.75,496.75 379.50,497.58 382.26,498.35 385.01,499.06 387.77,499.71 390.52,500.31 393.28,500.87 396.03,501.39 398.78,501.86 401.54,502.30 404.29,502.71 407.05,503.08 409.80,503.42 412.56,503.74 415.31,504.03 418.07,504.30 420.82,504.55 423.58,504.78 426.33,504.99 429.09,505.19 431.84,505.36 434.60,505.53 437.35,505.68 440.11,505.82 442.86,505.95 445.62,506.07 448.37,506.18 451.13,506.28 453.88,506.37 456.64,506.46 459.39,506.54 462.15,506.61 464.90,506.67 467.66,506.74 470.41,506.79 473.17,506.84 475.92,506.89 478.68,506.94 481.43,506.98 484.19,507.01 486.94,507.05 489.70,507.08 492.45,507.11 495.21,507.13 497.96,507.16 500.72,507.18 503.47,507.20 506.22,507.22 508.98,507.24 511.73,507.26 514.49,507.27 517.24,507.28 520.00,507.30 522.75,507.31 525.51,507.32 528.26,507.33 531.02,507.34 533.77,507.35 536.53,507.35 539.28,507.36 542.04,507.37 544.79,507.37 547.55,507.38 550.30,507.38 553.06,507.39 555.81,507.39 558.57,507.40 561.32,507.40 564.08,507.40 566.83,507.41 569.59,507.41 572.34,507.41 575.10,507.42 577.85,507.42 580.61,507.42 583.36,507.42 586.12,507.42 588.87,507.43 591.63,507.43 594.38,507.43 597.14,507.43 599.89,507.43 602.65,507.43 605.40,507.43 608.16,507.43 610.91,507.43 613.67,507.43 613.67,507.44 610.91,507.44 608.16,507.44 605.40,507.44 602.65,507.44 599.89,507.44 597.14,507.44 594.38,507.44 591.63,507.44 588.87,507.44 586.12,507.44 583.36,507.44 580.61,507.44 577.85,507.44 575.10,507.44 572.34,507.44 569.59,507.44 566.83,507.44 564.08,507.44 561.32,507.44 558.57,507.44 555.81,507.44 553.06,507.44 550.30,507.44 547.55,507.44 544.79,507.44 542.04,507.44 539.28,507.44 536.53,507.44 533.77,507.44 531.02,507.44 528.26,507.44 525.51,507.44 522.75,507.44 520.00,507.44 517.24,507.44 514.49,507.44 511.73,507.44 508.98,507.44 506.22,507.44 503.47,507.44 500.72,507.44 497.96,507.44 495.21,507.44 492.45,507.44 489.70,507.44 486.94,507.44 484.19,507.44 481.43,507.44 478.68,507.44 475.92,507.44 473.17,507.44 470.41,507.44 467.66,507.44 464.90,507.44 462.15,507.44 459.39,507.44 456.64,507.44 453.88,507.44 451.13,507.44 448.37,507.44 445.62,507.44 442.86,507.44 440.11,507.44 437.35,507.44 434.60,507.44 431.84,507.44 429.09,507.44 426.33,507.44 423.58,507.44 420.82,507.44 418.07,507.44 415.31,507.44 412.56,507.44 409.80,507.44 407.05,507.44 404.29,507.44 401.54,507.44 398.78,507.44 396.03,507.44 393.28,507.44 390.52,507.44 387.77,507.44 385.01,507.44 382.26,507.44 379.50,507.44 376.75,507.44 373.99,507.44 371.24,507.44 368.48,507.44 365.73,507.44 362.97,507.44 360.22,507.44 357.46,507.44 354.71,507.44 351.95,507.44 349.20,507.44 346.44,507.44 343.69,507.44 340.93,507.44 338.18,507.44 335.42,507.44 332.67,507.44 329.91,507.44 327.16,507.44 324.40,507.44 321.65,507.44 318.89,507.44 316.14,507.44 313.38,507.44 310.63,507.43 307.87,507.43 305.12,507.42 302.36,507.40 299.61,507.38 296.85,507.34 294.10,507.27 291.34,507.17 288.59,507.00 285.83,506.72 283.08,506.28 280.33,505.55 277.57,504.37 274.82,502.48 272.06,499.45 269.31,494.62 266.55,487.01 263.80,475.38 261.04,458.19 258.29,433.92 255.53,401.90 252.78,363.23 250.02,322.40 247.27,298.90 244.51,287.68 241.76,280.79 239.00,274.24 236.25,267.88 233.49,261.71 230.74,255.74 227.98,249.99 225.23,244.47 222.47,239.18 219.72,234.12 216.96,229.29 214.21,224.70 211.45,220.33 208.70,216.20 205.94,212.29 203.19,208.61 200.43,205.13 197.68,201.86 194.92,198.79 192.17,195.92 189.41,193.22 186.66,190.70 183.90,188.34 181.15,186.15 178.39,184.10 175.64,182.19 172.89,180.42 170.13,178.77 167.38,177.24 164.62,175.81 161.87,174.50 159.11,173.27 156.36,172.14 153.60,171.09 150.85,170.12 148.09,169.20 145.34,168.35 142.58,167.55 139.83,166.82 137.07,166.14 134.32,165.52 131.56,164.94 128.81,164.41 126.05,163.91 123.30,163.45 120.54,163.02 117.79,162.63 115.03,162.26 112.28,161.92 109.52,161.61 106.77,161.33 104.01,161.09 101.26,160.86 98.50,160.66 95.75,160.48 92.99,160.31 90.24,160.16 87.48,160.02 84.73,159.90 81.97,159.78 79.22,159.69 76.46,159.60 73.71,159.53 70.95,159.45 68.20,159.39 65.44,159.33" style="stroke-width: 0.00;stroke: none;stroke-linecap: butt;fill: #F8766D;fill-opacity: 0.15;" />
<polyline points="65.44,157.68 68.20,157.68 70.95,157.68 73.71,157.68 76.46,157.68 79.22,157.68 81.97,157.68 84.73,157.68 87.48,157.68 90.24,157.68 92.99,157.68 95.75,157.68 98.50,157.68 101.26,157.68 104.01,157.69 106.77,157.69 109.52,157.69 112.28,157.69 115.03,157.69 117.79,157.69 120.54,157.70 123.30,157.70 126.05,157.70 128.81,157.70 131.56,157.71 134.32,157.71 137.07,157.71 139.83,157.71 142.58,157.71 145.34,157.71 148.09,157.72 150.85,157.72 153.60,157.72 156.36,157.73 159.11,157.74 161.87,157.75 164.62,157.75 167.38,157.76 170.13,157.77 172.89,157.78 175.64,157.79 178.39,157.80 181.15,157.81 183.90,157.82 186.66,157.83 189.41,157.85 192.17,157.89 194.92,157.93 197.68,157.97 200.43,158.05 203.19,158.10 205.94,158.19 208.70,158.32 211.45,158.49 214.21,158.74 216.96,159.11 219.72,159.71 222.47,160.60 225.23,162.02 227.98,164.38 230.74,168.09 233.49,174.06 236.25,183.08 239.00,195.67 241.76,211.92 244.51,231.29 247.27,252.32 250.02,273.46 252.78,292.84 255.53,309.29 258.29,321.77 261.04,330.14 263.80,336.93 266.55,344.09 269.31,351.25 272.06,358.40 274.82,365.47 277.57,372.42 280.33,379.25 283.08,385.92 285.83,392.43 288.59,398.75 291.34,404.88 294.10,410.80 296.85,416.51 299.61,421.99 302.36,427.24 305.12,432.27 307.87,437.06 310.63,441.61 313.38,445.94 316.14,450.04 318.89,453.92 321.65,457.58 324.40,461.03 327.16,464.28 329.91,467.33 332.67,470.19 335.42,472.86 338.18,475.37 340.93,477.71 343.69,479.90 346.44,481.93 349.20,483.83 351.95,485.60 354.71,487.24 357.46,488.76 360.22,490.18 362.97,491.49 365.73,492.71 368.48,493.84 371.24,494.89 373.99,495.86 376.75,496.75 379.50,497.58 382.26,498.35 385.01,499.06 387.77,499.71 390.52,500.31 393.28,500.87 396.03,501.39 398.78,501.86 401.54,502.30 404.29,502.71 407.05,503.08 409.80,503.42 412.56,503.74 415.31,504.03 418.07,504.30 420.82,504.55 423.58,504.78 426.33,504.99 429.09,505.19 431.84,505.36 434.60,505.53 437.35,505.68 440.11,505.82 442.86,505.95 445.62,506.07 448.37,506.18 451.13,506.28 453.88,506.37 456.64,506.46 459.39,506.54 462.15,506.61 464.90,506.67 467.66,506.74 470.41,506.79 473.17,506.84 475.92,506.89 478.68,506.94 481.43,506.98 484.19,507.01 486.94,507.05 489.70,507.08 492.45,507.11 495.21,507.13 497.96,507.16 500.72,507.18 503.47,507.20 506.22,507.22 508.98,507.24 511.73,507.26 514.49,507.27 517.24,507.28 520.00,507.30 522.75,507.31 525.51,507.32 528.26,507.33 531.02,507.34 533.77,507.35 536.53,507.35 539.28,507.36 542.04,507.37 544.79,507.37 547.55,507.38 550.30,507.38 553.06,507.39 555.81,507.39 558.57,507.40 561.32,507.40 564.08,507.40 566.83,507.41 569.59,507.41 572.34,507.41 575.10,507.42 577.85,507.42 580.61,507.42 583.36,507.42 586.12,507.42 588.87,507.43 591.63,507.43 594.38,507.43 597.14,507.43 599.89,507.43 602.65,507.43 605.40,507.43 608.16,507.43 610.91,507.43 613.67,507.43" style="stroke-width: 1.07;stroke: none;stroke-linecap: butt;"/>
<polyline points="613.67,507.44 610.91,507.44 608.16,507.44 605.40,507.44 602.65,507.44 599.89,507.44 597.14,507.44 594.38,507.44 591.63,507.44 588.87,507.44 586.12,507.44 583.36,507.44 580.61,507.44 577.85,507.44 575.10,507.44 572.34,507.44 569.59,507.44 566.83,507.44 564.08,507.44 561.32,507.44 558.57,507.44 555.81,507.44 553.06,507.44 550.30,507.44 547.55,507.44 544.79,507.44 542.04,507.44 539.28,507.44 536.53,507.44 533.77,507.44 531.02,507.44 528.26,507.44 525.51,507.44 522.75,507.44 520.00,507.44 517.24,507.44 514.49,507.44 511.73,507.44 508.98,507.44 506.22,507.44 503.47,507.44 500.72,507.44 497.96,507.44 495.21,507.44 492.45,507.44 489.70,507.44 486.94,507.44 484.19,507.44 481.43,507.44 478.68,507.44 475.92,507.44 473.17,507.44 470.41,507.44 467.66,507.44 464.90,507.44 462.15,507.44 459.39,507.44 456.64,507.44 453.88,507.44 451.13,507.44 448.37,507.44 445.62,507.44 442.86,507.44 440.11,507.44 437.35,507.44 434.60,507.44 431.84,507.44 429.09,507.44 426.33,507.44 423.58,507.44 420.82,507.44 418.07,507.44 415.31,507.44 412.56,507.44 409.80,507.44 407.05,507.44 404.29,507.44 401.54,507.44 398.78,507.44 396.03,507.44 393.28,507.44 390.52,507.44 387.77,507.44 385.01,507.44 382.26,507.44 379.50,507.44 376.75,507.44 373.99,507.44 371.24,507.44 368.48,507.44 365.73,507.44 362.97,507.44 360.22,507.44 357.46,507.44 354.71,507.44 351.95,507.44 349.20,507.44 346.44,507.44 343.69,507.44 340.93,507.44 338.18,507.44 335.42,507.44 332.67,507.44 329.91,507.44 327.16,507.44 324.40,507.44 321.65,507.44 318.89,507.44 316.14,507.44 313.38,507.44 310.63,507.43 307.87,507.43 305.12,507.42 302.36,507.40 299.61,507.38 296.85,507.34 294.10,507.27 291.34,507.17 288.59,507.00 285.83,506.72 283.08,506.28 280.33,505.55 277.57,504.37 274.82,502.48 272.06,499.45 269.31,494.62 266.55,487.01 263.80,475.38 261.04,458.19 258.29,433.92 255.53,401.90 252.78,363.23 250.02,322.40 247.27,298.90 244.51,287.68 241.76,280.79 239.00,274.24 236.25,267.88 233.49,261.71 230.74,255.74 227.98,249.99 225.23,244.47 222.47,239.18 219.72,234.12 216.96,229.29 214.21,224.70 211.45,220.33 208.70,216.20 205.94,212.29 203.19,208.61 200.43,205.13 197.68,201.86 194.92,198.79 192.17,195.92 189.41,193.22 186.66,190.70 183.90,188.34 181.15,186.15 178.39,184.10 175.64,182.19 172.89,180.42 170.13,178.77 167.38,177.24 164.62,175.81 161.87,174.50 159.11,173.27 156.36,172.14 153.60,171.09 150.85,170.12 148.09,169.20 145.34,168.35 142.58,167.55 139.83,166.82 137.07,166.14 134.32,165.52 131.56,164.94 128.81,164.41 126.05,163.91 123.30,163.45 120.54,163.02 117.79,162.63 115.03,162.26 112.28,161.92 109.52,161.61 106.77,161.33 104.01,161.09 101.26,160.86 98.50,160.66 95.75,160.48 92.99,160.31 90.24,160.16 87.48,160.02 84.73,159.90 81.97,159.78 79.22,159.69 76.46,159.60 73.71,159.53 70.95,159.45 68.20,159.39 65.44,159.33" style="stroke-width: 1.07;stroke: none;stroke-linecap: butt;"/>
<polygon points="65.44,119.05 68.20,119.05 70.95,119.05 73.71,119.05 76.46,119.05 79.22,119.05 81.97,119.05 84.73,119.05 87.48,119.05 90.24,119.05 92.99,119.05 95.75,119.05 98.50,119.05 101.26,119.05 104.01,119.05 106.77,119.05 109.52,119.05 112.28,119.05 115.03,119.05 117.79,119.05 120.54,119.05 123.30,119.05 126.05,119.05 128.81,119.05 131.56,119.05 134.32,119.05 137.07,119.05 139.83,119.05 142.58,119.05 145.34,119.05 148.09,119.05 150.85,119.06 153.60,119.10 156.36,119.13 159.11,119.17 161.87,119.21 164.62,119.26 167.38,119.31 170.13,119.31 172.89,119.31 175.64,119.31 178.39,119.31 181.15,119.31 183.90,119.31 186.66,119.31 189.41,119.31 192.17,119.31 194.92,119.34 197.68,119.52 200.43,119.76 203.19,119.91 205.94,119.91 208.70,119.91 211.45,119.91 214.21,119.94 216.96,120.09 219.72,120.33 222.47,121.69 225.23,123.18 227.98,126.89 230.74,132.78 233.49,139.03 236.25,146.54 239.00,159.35 241.76,178.80 244.51,204.88 247.27,234.96 250.02,269.30 252.78,300.61 255.53,319.59 258.29,329.58 261.04,336.29 263.80,340.02 266.55,343.87 269.31,349.96 272.06,355.67 274.82,360.49 277.57,365.07 280.33,370.05 283.08,374.64 285.83,379.16 288.59,383.42 291.34,387.91 294.10,392.53 296.85,397.05 299.61,401.42 302.36,405.64 305.12,409.76 307.87,413.77 310.63,417.66 313.38,421.45 316.14,425.12 318.89,428.68 321.65,432.13 324.40,435.46 327.16,438.68 329.91,441.78 332.67,444.78 335.42,447.66 338.18,450.44 340.93,453.11 343.69,455.68 346.44,458.14 349.20,460.50 351.95,462.77 354.71,464.94 357.46,467.02 360.22,469.00 362.97,470.90 365.73,472.72 368.48,474.44 371.24,476.08 373.99,477.65 376.75,479.15 379.50,480.57 382.26,481.93 385.01,483.23 387.77,484.47 390.52,485.64 393.28,486.76 396.03,487.83 398.78,488.84 401.54,489.81 404.29,490.72 407.05,491.59 409.80,492.42 412.56,493.21 415.31,493.95 418.07,494.66 420.82,495.33 423.58,495.97 426.33,496.58 429.09,497.15 431.84,497.70 434.60,498.21 437.35,498.70 440.11,499.17 442.86,499.61 445.62,500.03 448.37,500.42 451.13,500.80 453.88,501.15 456.64,501.49 459.39,501.81 462.15,502.11 464.90,502.40 467.66,502.67 470.41,502.93 473.17,503.17 475.92,503.40 478.68,503.62 481.43,503.82 484.19,504.02 486.94,504.20 489.70,504.38 492.45,504.54 495.21,504.70 497.96,504.85 500.72,504.99 503.47,505.12 506.22,505.25 508.98,505.37 511.73,505.48 514.49,505.58 517.24,505.68 520.00,505.78 522.75,505.87 525.51,505.96 528.26,506.04 531.02,506.11 533.77,506.18 536.53,506.25 539.28,506.32 542.04,506.38 544.79,506.44 547.55,506.49 550.30,506.54 553.06,506.59 555.81,506.64 558.57,506.68 561.32,506.72 564.08,506.76 566.83,506.80 569.59,506.83 572.34,506.87 575.10,506.90 577.85,506.93 580.61,506.96 583.36,506.98 586.12,507.01 588.87,507.03 591.63,507.05 594.38,507.07 597.14,507.09 599.89,507.11 602.65,507.13 605.40,507.15 608.16,507.16 610.91,507.18 613.67,507.19 613.67,507.44 610.91,507.44 608.16,507.44 605.40,507.44 602.65,507.44 599.89,507.44 597.14,507.44 594.38,507.44 591.63,507.44 588.87,507.44 586.12,507.44 583.36,507.44 580.61,507.44 577.85,507.44 575.10,507.44 572.34,507.44 569.59,507.44 566.83,507.44 564.08,507.44 561.32,507.44 558.57,507.44 555.81,507.44 553.06,507.44 550.30,507.44 547.55,507.44 544.79,507.44 542.04,507.44 539.28,507.44 536.53,507.44 533.77,507.44 531.02,507.44 528.26,507.44 525.51,507.44 522.75,507.44 520.00,507.44 517.24,507.44 514.49,507.44 511.73,507.44 508.98,507.44 506.22,507.44 503.47,507.44 500.72,507.44 497.96,507.44 495.21,507.44 492.45,507.44 489.70,507.44 486.94,507.44 484.19,507.44 481.43,507.44 478.68,507.44 475.92,507.44 473.17,507.44 470.41,507.44 467.66,507.44 464.90,507.44 462.15,507.44 459.39,507.44 456.64,507.44 453.88,507.44 451.13,507.44 448.37,507.44 445.62,507.44 442.86,507.44 440.11,507.44 437.35,507.44 434.60,507.44 431.84,507.44 429.09,507.44 426.33,507.44 423.58,507.44 420.82,507.44 418.07,507.44 415.31,507.44 412.56,507.44 409.80,507.44 407.05,507.44 404.29,507.44 401.54,507.44 398.78,507.44 396.03,507.44 393.28,507.44 390.52,507.44 387.77,507.44 385.01,507.44 382.26,507.44 379.50,507.44 376.75,507.44 373.99,507.44 371.24,507.44 368.48,507.44 365.73,507.44 362.97,507.44 360.22,507.44 357.46,507.44 354.71,507.44 351.95,507.44 349.20,507.44 346.44,507.44 343.69,507.44 340.93,507.44 338.18,507.44 335.42,507.44 332.67,507.44 329.91,507.44 327.16,507.44 324.40,507.44 321.65,507.44 318.89,507.44 316.14,507.44 313.38,507.44 310.63,507.44 307.87,507.44 305.12,507.44 302.36,507.44 299.61,507.44 296.85,507.44 294.10,507.44 291.34,507.44 288.59,507.44 285.83,507.44 283.08,507.44 280.33,507.44 277.57,507.44 274.82,507.44 272.06,507.44 269.31,507.44 266.55,507.44 263.80,507.44 261.04,507.44 258.29,507.44 255.53,507.44 252.78,507.44 250.02,507.44 247.27,507.44 244.51,507.44 241.76,507.43 239.00,507.35 236.25,506.82 233.49,503.31 230.74,481.67 227.98,387.16 225.23,299.08 222.47,269.83 219.72,261.64 216.96,256.48 214.21,252.11 211.45,247.86 208.70,243.73 205.94,239.71 203.19,235.79 200.43,231.99 197.68,228.38 194.92,224.97 192.17,221.70 189.41,218.56 186.66,215.44 183.90,212.17 181.15,209.00 178.39,205.94 175.64,202.99 172.89,200.16 170.13,197.94 167.38,196.20 164.62,194.11 161.87,192.09 159.11,190.46 156.36,190.18 153.60,189.27 150.85,187.54 148.09,186.20 145.34,186.20 142.58,186.13 139.83,185.69 137.07,185.69 134.32,185.11 131.56,185.11 128.81,185.11 126.05,185.11 123.30,185.07 120.54,184.97 117.79,184.95 115.03,184.95 112.28,184.75 109.52,184.72 106.77,184.69 104.01,184.67 101.26,184.65 98.50,184.63 95.75,184.61 92.99,184.60 90.24,184.59 87.48,184.57 84.73,184.56 81.97,184.34 79.22,183.89 76.46,183.87 73.71,183.85 70.95,183.84 68.20,183.83 65.44,183.81" style="stroke-width: 0.00;stroke: none;stroke-linecap: butt;fill: #7CAE00;fill-opacity: 0.15;" />
<polyline points="65.44,119.05 68.20,119.05 70.95,119.05 73.71,119.05 76.46,119.05 79.22,119.05 81.97,119.05 84.73,119.05 87.48,119.05 90.24,119.05 92.99,119.05 95.75,119.05 98.50,119.05 101.26,119.05 104.01,119.05 106.77,119.05 109.52,119.05 112.28,119.05 115.03,119.05 117.79,119.05 120.54,119.05 123.30,119.05 126.05,119.05 128.81,119.05 131.56,119.05 134.32,119.05 137.07,119.05 139.83,119.05 142.58,119.05 145.34,119.05 148.09,119.05 150.85,119.06 153.60,119.10 156.36,119.13 159.11,119.17 161.87,119.21 164.62,119.26 167.38,119.31 170.13,119.31 172.89,119.31 175.64,119.31 178.39,119.31 181.15,119.31 183.90,119.31 186.66,119.31 189.41,119.31 192.17,119.31 194.92,119.34 197.68,119.52 200.43,119.76 203.19,119.91 205.94,119.91 208.70,119.91 211.45,119.91 214.21,119.94 216.96,120.09 219.72,120.33 222.47,121.69 225.23,123.18 227.98,126.89 230.74,132.78 233.49,139.03 236.25,146.54 239.00,159.35 241.76,178.80 244.51,204.88 247.27,234.96 250.02,269.30 252.78,300.61 255.53,319.59 258.29,329.58 261.04,336.29 263.80,340.02 266.55,343.87 269.31,349.96 272.06,355.67 274.82,360.49 277.57,365.07 280.33,370.05 283.08,374.64 285.83,379.16 288.59,383.42 291.34,387.91 294.10,392.53 296.85,397.05 299.61,401.42 302.36,405.64 305.12,409.76 307.87,413.77 310.63,417.66 313.38,421.45 316.14,425.12 318.89,428.68 321.65,432.13 324.40,435.46 327.16,438.68 329.91,441.78 332.67,444.78 335.42,447.66 338.18,450.44 340.93,453.11 343.69,455.68 346.44,458.14 349.20,460.50 351.95,462.77 354.71,464.94 357.46,467.02 360.22,469.00 362.97,470.90 365.73,472.72 368.48,474.44 371.24,476.08 373.99,477.65 376.75,479.15 379.50,480.57 382.26,481.93 385.01,483.23 387.77,484.47 390.52,485.64 393.28,486.76 396.03,487.83 398.78,488.84 401.54,489.81 404.29,490.72 407.05,491.59 409.80,492.42 412.56,493.21 415.31,493.95 418.07,494.66 420.82,495.33 423.58,495.97 426.33,496.58 429.09,497.15 431.84,497.70 434.60,498.21 437.35,498.70 440.11,499.17 442.86,499.61 445.62,500.03 448.37,500.42 451.13,500.80 453.88,501.15 456.64,501.49 459.39,501.81 462.15,502.11 464.90,502.40 467.66,502.67 470.41,502.93 473.17,503.17 475.92,503.40 478.68,503.62 481.43,503.82 484.19,504.02 486.94,504.20 489.70,504.38 492.45,504.54 495.21,504.70 497.96,504.85 500.72,504.99 503.47,505.12 506.22,505.25 508.98,505.37 511.73,505.48 514.49,505.58 517.24,505.68 520.00,505.78 522.75,505.87 525.51,505.96 528.26,506.04 531.02,506.11 533.77,506.18 536.53,506.25 539.28,506.32 542.04,506.38 544.79,506.44 547.55,506.49 550.30,506.54 553.06,506.59 555.81,506.64 558.57,506.68 561.32,506.72 564.08,506.76 566.83,506.80 569.59,506.83 572.34,506.87 575.10,506.90 577.85,506.93 580.61,506.96 583.36,506.98 586.12,507.01 588.87,507.03 591.63,507.05 594.38,507.07 597.14,507.09 599.89,507.11 602.65,507.13 605.40,507.15 608.16,507.16 610.91,507.18 613.67,507.19" style="stroke-width: 1.07;stroke: none;stroke-linecap: butt;"/>
<polyline points="613.67,507.44 610.91,507.44 608.16,507.44 605.40,507.44 602.65,507.44 599.89,507.44 597.14,507.44 594.38,507.44 591.63,507.44 588.87,507.44 586.12,507.44 583.36,507.44 580.61,507.44 577.85,507.44 575.10,507.44 572.34,507.44 569.59,507.44 566.83,507.44 564.08,507.44 561.32,507.44 558.57,507.44 555.81,507.44 553.06,507.44 550.30,507.44 547.55,507.44 544.79,507.44 542.04,507.44 539.28,507.44 536.53,507.44 533.77,507.44 531.02,507.44 528.26,507.44 525.51,507.44 522.75,507.44 520.00,507.44 517.24,507.44 514.49,507.44 511.73,507.44 508.98,507.44 506.22,507.44 503.47,507.44 500.72,507.44 497.96,507.44 495.21,507.44 492.45,507.44 489.70,507.44 486.94,507.44 484.19,507.44 481.43,507.44 478.68,507.44 475.92,507.44 473.17,507.44 470.41,507.44 467.66,507.44 464.90,507.44 462.15,507.44 459.39,507.44 456.64,507.44 453.88,507.44 451.13,507.44 448.37,507.44 445.62,507.44 442.86,507.44 440.11,507.44 437.35,507.44 434.60,507.44 431.84,507.44 429.09,507.44 426.33,507.44 423.58,507.44 420.82,507.44 418.07,507.44 415.31,507.44 412.56,507.44 409.80,507.44 407.05,507.44 404.29,507.44 401.54,507.44 398.78,507.44 396.03,507.44 393.28,507.44 390.52,507.44 387.77,507.44 385.01,507.44 382.26,507.44 379.50,507.44 376.75,507.44 373.99,507.44 371.24,507.44 368.48,507.44 365.73,507.44 362.97,507.44 360.22,507.44 357.46,507.44 354.71,507.44 351.95,507.44 349.20,507.44 346.44,507.44 343.69,507.44 340.93,507.44 338.18,507.44 335.42,507.44 332.67,507.44 329.91,507.44 327.16,507.44 324.40,507.44 321.65,507.44 318.89,507.44 316.14,507.44 313.38,507.44 310.63,507.44 307.87,507.44 305.12,507.44 302.36,507.44 299.61,507.44 296.85,507.44 294.10,507.44 291.34,507.44 288.59,507.44 285.83,507.44 283.08,507.44 280.33,507.44 277.57,507.44 274.82,507.44 272.06,507.44 269.31,507.44 266.55,507.44 263.80,507.44 261.04,507.44 258.29,507.44 255.53,507.44 252.78,507.44 250.02,507.44 247.27,507.44 244.51,507.44 241.76,507.43 239.00,507.35 236.25,506.82 233.49,503.31 230.74,481.67 227.98,387.16 225.23,299.08 222.47,269.83 219.72,261.64 216.96,256.48 214.21,252.11 211.45,247.86 208.70,243.73 205.94,239.71 203.19,235.79 200.43,231.99 197.68,228.38 194.92,224.97 192.17,221.70 189.41,218.56 186.66,215.44 183.90,212.17 181.15,209.00 178.39,205.94 175.64,202.99 172.89,200.16 170.13,197.94 167.38,196.20 164.62,194.11 161.87,192.09 159.11,190.46 156.36,190.18 153.60,189.27 150.85,187.54 148.09,186.20 145.34,186.20 142.58,186.13 139.83,185.69 137.07,185.69 134.32,185.11 131.56,185.11 128.81,185.11 126.05,185.11 123.30,185.07 120.54,184.97 117.79,184.95 115.03,184.95 112.28,184.75 109.52,184.72 106.77,184.69 104.01,184.67 101.26,184.65 98.50,184.63 95.75,184.61 92.99,184.60 90.24,184.59 87.48,184.57 84.73,184.56 81.97,184.34 79.22,183.89 76.46,183.87 73.71,183.85 70.95,183.84 68.20,183.83 65.44,183.81" style="stroke-width: 1.07;stroke: none;stroke-linecap: butt;"/>
<polygon points="65.44,46.24 68.20,46.24 70.95,46.24 73.71,46.24 76.46,46.24 79.22,46.24 81.97,46.24 84.73,46.24 87.48,46.24 90.24,46.24 92.99,46.24 95.75,46.24 98.50,46.24 101.26,46.24 104.01,46.24 106.77,46.24 109.52,46.24 112.28,46.24 115.03,46.24 117.79,46.24 120.54,46.24 123.30,46.24 126.05,46.24 128.81,46.24 131.56,46.24 134.32,46.24 137.07,46.24 139.83,46.24 142.58,46.24 145.34,46.24 148.09,46.24 150.85,46.24 153.60,46.24 156.36,46.24 159.11,46.24 161.87,46.24 164.62,46.24 167.38,46.25 170.13,46.25 172.89,46.26 175.64,46.27 178.39,46.28 181.15,46.29 183.90,46.32 186.66,46.35 189.41,46.39 192.17,46.45 194.92,46.54 197.68,46.66 200.43,46.83 203.19,47.07 205.94,47.40 208.70,47.87 211.45,48.52 214.21,49.44 216.96,50.71 219.72,52.49 222.47,54.97 225.23,58.40 227.98,63.12 230.74,69.59 233.49,78.34 236.25,90.06 239.00,105.47 241.76,125.30 244.51,150.06 247.27,179.18 250.02,208.18 252.78,234.67 255.53,261.41 258.29,288.62 261.04,315.53 263.80,341.36 266.55,365.55 269.31,387.64 272.06,407.38 274.82,424.65 277.57,439.50 280.33,452.08 283.08,462.59 285.83,471.29 288.59,478.41 291.34,484.21 294.10,488.90 296.85,492.68 299.61,495.70 302.36,498.12 305.12,500.05 307.87,501.59 310.63,502.81 313.38,503.77 316.14,504.54 318.89,505.15 321.65,505.63 324.40,506.01 327.16,506.31 329.91,506.55 332.67,506.74 335.42,506.89 338.18,507.00 340.93,507.10 343.69,507.17 346.44,507.23 349.20,507.27 351.95,507.31 354.71,507.34 357.46,507.36 360.22,507.38 362.97,507.39 365.73,507.40 368.48,507.41 371.24,507.42 373.99,507.42 376.75,507.43 379.50,507.43 382.26,507.43 385.01,507.44 387.77,507.44 390.52,507.44 393.28,507.44 396.03,507.44 398.78,507.44 401.54,507.44 404.29,507.44 407.05,507.44 409.80,507.44 412.56,507.44 415.31,507.44 418.07,507.44 420.82,507.44 423.58,507.44 426.33,507.44 429.09,507.44 431.84,507.44 434.60,507.44 437.35,507.44 440.11,507.44 442.86,507.44 445.62,507.44 448.37,507.44 451.13,507.44 453.88,507.44 456.64,507.44 459.39,507.44 462.15,507.44 464.90,507.44 467.66,507.44 470.41,507.44 473.17,507.44 475.92,507.44 478.68,507.44 481.43,507.44 484.19,507.44 486.94,507.44 489.70,507.44 492.45,507.44 495.21,507.44 497.96,507.44 500.72,507.44 503.47,507.44 506.22,507.44 508.98,507.44 511.73,507.44 514.49,507.44 517.24,507.44 520.00,507.44 522.75,507.44 525.51,507.44 528.26,507.44 531.02,507.44 533.77,507.44 536.53,507.44 539.28,507.44 542.04,507.44 544.79,507.44 547.55,507.44 550.30,507.44 553.06,507.44 555.81,507.44 558.57,507.44 561.32,507.44 564.08,507.44 566.83,507.44 569.59,507.44 572.34,507.44 575.10,507.44 577.85,507.44 580.61,507.44 583.36,507.44 586.12,507.44 588.87,507.44 591.63,507.44 594.38,507.44 597.14,507.44 599.89,507.44 602.65,507.44 605.40,507.44 608.16,507.44 610.91,507.44 613.67,507.44 613.67,507.44 610.91,507.44 608.16,507.44 605.40,507.44 602.65,507.44 599.89,507.44 597.14,507.44 594.38,507.44 591.63,507.44 588.87,507.44 586.12,507.44 583.36,507.44 580.61,507.44 577.85,507.44 575.10,507.44 572.34,507.44 569.59,507.44 566.83,507.44 564.08,507.44 561.32,507.44 558.57,507.44 555.81,507.44 553.06,507.44 550.30,507.44 547.55,507.44 544.79,507.44 542.04,507.44 539.28,507.44 536.53,507.44 533.77,507.44 531.02,507.44 528.26,507.44 525.51,507.44 522.75,507.44 520.00,507.44 517.24,507.44 514.49,507.44 511.73,507.44 508.98,507.44 506.22,507.44 503.47,507.44 500.72,507.44 497.96,507.44 495.21,507.44 492.45,507.44 489.70,507.44 486.94,507.44 484.19,507.44 481.43,507.44 478.68,507.44 475.92,507.44 473.17,507.44 470.41,507.44 467.66,507.44 464.90,507.44 462.15,507.44 459.39,507.44 456.64,507.44 453.88,507.44 451.13,507.44 448.37,507.44 445.62,507.44 442.86,507.44 440.11,507.44 437.35,507.44 434.60,507.44 431.84,507.44 429.09,507.44 426.33,507.44 423.58,507.44 420.82,507.44 418.07,507.44 415.31,507.44 412.56,507.44 409.80,507.44 407.05,507.44 404.29,507.44 401.54,507.44 398.78,507.44 396.03,507.44 393.28,507.44 390.52,507.44 387.77,507.44 385.01,507.44 382.26,507.44 379.50,507.44 376.75,507.44 373.99,507.44 371.24,507.44 368.48,507.44 365.73,507.44 362.97,507.44 360.22,507.44 357.46,507.44 354.71,507.44 351.95,507.44 349.20,507.44 346.44,507.44 343.69,507.44 340.93,507.43 338.18,507.43 335.42,507.42 332.67,507.41 329.91,507.40 327.16,507.38 324.40,507.36 321.65,507.32 318.89,507.27 316.14,507.21 313.38,507.11 310.63,506.98 307.87,506.79 305.12,506.52 302.36,506.16 299.61,505.64 296.85,504.91 294.10,503.90 291.34,502.49 288.59,500.52 285.83,497.79 283.08,494.01 280.33,488.81 277.57,481.71 274.82,472.13 272.06,459.37 269.31,442.71 266.55,421.48 263.80,395.25 261.04,364.09 258.29,328.70 255.53,290.53 252.78,251.60 250.02,214.06 247.27,185.10 244.51,163.30 241.76,143.89 239.00,126.92 236.25,112.37 233.49,100.10 230.74,89.85 227.98,81.37 225.23,74.43 222.47,68.79 219.72,64.23 216.96,60.57 214.21,57.63 211.45,55.28 208.70,53.41 205.94,51.92 203.19,50.73 200.43,49.79 197.68,49.05 194.92,48.46 192.17,48.00 189.41,47.63 186.66,47.34 183.90,47.11 181.15,46.92 178.39,46.78 175.64,46.67 172.89,46.58 170.13,46.50 167.38,46.45 164.62,46.40 161.87,46.37 159.11,46.34 156.36,46.32 153.60,46.30 150.85,46.29 148.09,46.28 145.34,46.27 142.58,46.26 139.83,46.26 137.07,46.25 134.32,46.25 131.56,46.25 128.81,46.25 126.05,46.24 123.30,46.24 120.54,46.24 117.79,46.24 115.03,46.24 112.28,46.24 109.52,46.24 106.77,46.24 104.01,46.24 101.26,46.24 98.50,46.24 95.75,46.24 92.99,46.24 90.24,46.24 87.48,46.24 84.73,46.24 81.97,46.24 79.22,46.24 76.46,46.24 73.71,46.24 70.95,46.24 68.20,46.24 65.44,46.24" style="stroke-width: 0.00;stroke: none;stroke-linecap: butt;fill: #00BFC4;fill-opacity: 0.15;" />
<polyline points="65.44,46.24 68.20,46.24 70.95,46.24 73.71,46.24 76.46,46.24 79.22,46.24 81.97,46.24 84.73,46.24 87.48,46.24 90.24,46.24 92.99,46.24 95.75,46.24 98.50,46.24 101.26,46.24 104.01,46.24 106.77,46.24 109.52,46.24 112.28,46.24 115.03,46.24 117.79,46.24 120.54,46.24 123.30,46.24 126.05,46.24 128.81,46.24 131.56,46.24 134.32,46.24 137.07,46.24 139.83,46.24 142.58,46.24 145.34,46.24 148.09,46.24 150.85,46.24 153.60,46.24 156.36,46.24 159.11,46.24 161.87,46.24 164.62,46.24 167.38,46.25 170.13,46.25 172.89,46.26 175.64,46.27 178.39,46.28 181.15,46.29 183.90,46.32 186.66,46.35 189.41,46.39 192.17,46.45 194.92,46.54 197.68,46.66 200.43,46.83 203.19,47.07 205.94,47.40 208.70,47.87 211.45,48.52 214.21,49.44 216.96,50.71 219.72,52.49 222.47,54.97 225.23,58.40 227.98,63.12 230.74,69.59 233.49,78.34 236.25,90.06 239.00,105.47 241.76,125.30 244.51,150.06 247.27,179.18 250.02,208.18 252.78,234.67 255.53,261.41 258.29,288.62 261.04,315.53 263.80,341.36 266.55,365.55 269.31,387.64 272.06,407.38 274.82,424.65 277.57,439.50 280.33,452.08 283.08,462.59 285.83,471.29 288.59,478.41 291.34,484.21 294.10,488.90 296.85,492.68 299.61,495.70 302.36,498.12 305.12,500.05 307.87,501.59 310.63,502.81 313.38,503.77 316.14,504.54 318.89,505.15 321.65,505.63 324.40,506.01 327.16,506.31 329.91,506.55 332.67,506.74 335.42,506.89 338.18,507.00 340.93,507.10 343.69,507.17 346.44,507.23 349.20,507.27 351.95,507.31 354.71,507.34 357.46,507.36 360.22,507.38 362.97,507.39 365.73,507.40 368.48,507.41 371.24,507.42 373.99,507.42 376.75,507.43 379.50,507.43 382.26,507.43 385.01,507.44 387.77,507.44 390.52,507.44 393.28,507.44 396.03,507.44 398.78,507.44 401.54,507.44 404.29,507.44 407.05,507.44 409.80,507.44 412.56,507.44 415.31,507.44 418.07,507.44 420.82,507.44 423.58,507.44 426.33,507.44 429.09,507.44 431.84,507.44 434.60,507.44 437.35,507.44 440.11,507.44 442.86,507.44 445.62,507.44 448.37,507.44 451.13,507.44 453.88,507.44 456.64,507.44 459.39,507.44 462.15,507.44 464.90,507.44 467.66,507.44 470.41,507.44 473.17,507.44 475.92,507.44 478.68,507.44 481.43,507.44 484.19,507.44 486.94,507.44 489.70,507.44 492.45,507.44 495.21,507.44 497.96,507.44 500.72,507.44 503.47,507.44 506.22,507.44 508.98,507.44 511.73,507.44 514.49,507.44 517.24,507.44 520.00,507.44 522.75,507.44 525.51,507.44 528.26,507.44 531.02,507.44 533.77,507.44 536.53,507.44 539.28,507.44 542.04,507.44 544.79,507.44 547.55,507.44 550.30,507.44 553.06,507.44 555.81,507.44 558.57,507.44 561.32,507.44 564.08,507.44 566.83,507.44 569.59,507.44 572.34,507.44 575.10,507.44 577.85,507.44 580.61,507.44 583.36,507.44 586.12,507.44 588.87,507.44 591.63,507.44 594.38,507.44 597.14,507.44 599.89,507.44 602.65,507.44 605.40,507.44 608.16,507.44 610.91,507.44 613.67,507.44" style="stroke-width: 1.07;stroke: none;stroke-linecap: butt;"/>
<polyline points="613.67,507.44 610.91,507.44 608.16,507.44 605.40,507.44 602.65,507.44 599.89,507.44 597.14,507.44 594.38,507.44 591.63,507.44 588.87,507.44 586.12,507.44 583.36,507.44 580.61,507.44 577.85,507.44 575.10,507.44 572.34,507.44 569.59,507.44 566.83,507.44 564.08,507.44 561.32,507.44 558.57,507.44 555.81,507.44 553.06,507.44 550.30,507.44 547.55,507.44 544.79,507.44 542.04,507.44 539.28,507.44 536.53,507.44 533.77,507.44 531.02,507.44 528.26,507.44 525.51,507.44 522.75,507.44 520.00,507.44 517.24,507.44 514.49,507.44 511.73,507.44 508.98,507.44 506.22,507.44 503.47,507.44 500.72,507.44 497.96,507.44 495.21,507.44 492.45,507.44 489.70,507.44 486.94,507.44 484.19,507.44 481.43,507.44 478.68,507.44 475.92,507.44 473.17,507.44 470.41,507.44 467.66,507.44 464.90,507.44 462.15,507.44 459.39,507.44 456.64,507.44 453.88,507.44 451.13,507.44 448.37,507.44 445.62,507.44 442.86,507.44 440.11,507.44 437.35,507.44 434.60,507.44 431.84,507.44 429.09,507.44 426.33,507.44 423.58,507.44 420.82,507.44 418.07,507.44 415.31,507.44 412.56,507.44 409.80,507.44 407.05,507.44 404.29,507.44 401.54,507.44 398.78,507.44 396.03,507.44 393.28,507.44 390.52,507.44 387.77,507.44 385.01,507.44 382.26,507.44 379.50,507.44 376.75,507.44 373.99,507.44 371.24,507.44 368.48,507.44 365.73,507.44 362.97,507.44 360.22,507.44 357.46,507.44 354.71,507.44 351.95,507.44 349.20,507.44 346.44,507.44 343.69,507.44 340.93,507.43 338.18,507.43 335.42,507.42 332.67,507.41 329.91,507.40 327.16,507.38 324.40,507.36 321.65,507.32 318.89,507.27 316.14,507.21 313.38,507.11 310.63,506.98 307.87,506.79 305.12,506.52 302.36,506.16 299.61,505.64 296.85,504.91 294.10,503.90 291.34,502.49 288.59,500.52 285.83,497.79 283.08,494.01 280.33,488.81 277.57,481.71 274.82,472.13 272.06,459.37 269.31,442.71 266.55,421.48 263.80,395.25 261.04,364.09 258.29,328.70 255.53,290.53 252.78,251.60 250.02,214.06 247.27,185.10 244.51,163.30 241.76,143.89 239.00,126.92 236.25,112.37 233.49,100.10 230.74,89.85 227.98,81.37 225.23,74.43 222.47,68.79 219.72,64.23 216.96,60.57 214.21,57.63 211.45,55.28 208.70,53.41 205.94,51.92 203.19,50.73 200.43,49.79 197.68,49.05 194.92,48.46 192.17,48.00 189.41,47.63 186.66,47.34 183.90,47.11 181.15,46.92 178.39,46.78 175.64,46.67 172.89,46.58 170.13,46.50 167.38,46.45 164.62,46.40 161.87,46.37 159.11,46.34 156.36,46.32 153.60,46.30 150.85,46.29 148.09,46.28 145.34,46.27 142.58,46.26 139.83,46.26 137.07,46.25 134.32,46.25 131.56,46.25 128.81,46.25 126.05,46.24 123.30,46.24 120.54,46.24 117.79,46.24 115.03,46.24 112.28,46.24 109.52,46.24 106.77,46.24 104.01,46.24 101.26,46.24 98.50,46.24 95.75,46.24 92.99,46.24 90.24,46.24 87.48,46.24 84.73,46.24 81.97,46.24 79.22,46.24 76.46,46.24 73.71,46.24 70.95,46.24 68.20,46.24 65.44,46.24" style="stroke-width: 1.07;stroke: none;stroke-linecap: butt;"/>
<polygon points="65.44,46.31 68.20,46.32 70.95,46.33 73.71,46.34 76.46,46.35 79.22,46.37 81.97,46.39 84.73,46.41 87.48,46.43 90.24,46.46 92.99,46.49 95.75,46.53 98.50,46.57 101.26,46.62 104.01,46.67 106.77,46.73 109.52,46.81 112.28,46.89 115.03,46.98 117.79,47.09 120.54,47.21 123.30,47.35 126.05,47.50 128.81,47.68 131.56,47.89 134.32,48.12 137.07,48.39 139.83,48.70 142.58,49.04 145.34,49.44 148.09,49.89 150.85,50.40 153.60,50.99 156.36,51.67 159.11,52.44 161.87,53.31 164.62,54.30 167.38,55.42 170.13,56.68 172.89,58.12 175.64,59.77 178.39,61.58 181.15,63.66 183.90,66.01 186.66,68.67 189.41,71.66 192.17,75.02 194.92,78.76 197.68,82.97 200.43,87.69 203.19,92.94 205.94,98.74 208.70,105.17 211.45,112.35 214.21,120.15 216.96,128.70 219.72,138.01 222.47,148.06 225.23,158.69 227.98,169.89 230.74,182.21 233.49,194.76 236.25,207.49 239.00,220.73 241.76,234.45 244.51,248.11 247.27,261.98 250.02,275.00 252.78,287.66 255.53,299.68 258.29,310.90 261.04,321.71 263.80,331.69 266.55,341.21 269.31,350.30 272.06,359.14 274.82,367.48 277.57,375.48 280.33,383.30 283.08,390.82 285.83,397.96 288.59,404.45 291.34,410.97 294.10,417.29 296.85,423.09 299.61,428.60 302.36,433.95 305.12,438.96 307.87,443.68 310.63,448.03 313.38,452.18 316.14,456.08 318.89,459.65 321.65,463.04 324.40,466.24 327.16,469.24 329.91,472.02 332.67,474.56 335.42,476.98 338.18,479.23 340.93,481.32 343.69,483.25 346.44,485.05 349.20,486.75 351.95,488.32 354.71,489.77 357.46,491.12 360.22,492.35 362.97,493.50 365.73,494.56 368.48,495.55 371.24,496.46 373.99,497.30 376.75,498.08 379.50,498.80 382.26,499.46 385.01,500.08 387.77,500.66 390.52,501.19 393.28,501.68 396.03,502.13 398.78,502.54 401.54,502.93 404.29,503.28 407.05,503.60 409.80,503.90 412.56,504.18 415.31,504.43 418.07,504.67 420.82,504.89 423.58,505.09 426.33,505.28 429.09,505.45 431.84,505.60 434.60,505.75 437.35,505.89 440.11,506.01 442.86,506.13 445.62,506.23 448.37,506.33 451.13,506.42 453.88,506.50 456.64,506.58 459.39,506.64 462.15,506.71 464.90,506.77 467.66,506.82 470.41,506.87 473.17,506.91 475.92,506.95 478.68,506.99 481.43,507.03 484.19,507.06 486.94,507.09 489.70,507.12 492.45,507.14 495.21,507.17 497.96,507.19 500.72,507.21 503.47,507.23 506.22,507.24 508.98,507.26 511.73,507.27 514.49,507.29 517.24,507.30 520.00,507.31 522.75,507.32 525.51,507.33 528.26,507.34 531.02,507.35 533.77,507.35 536.53,507.36 539.28,507.37 542.04,507.37 544.79,507.38 547.55,507.38 550.30,507.39 553.06,507.39 555.81,507.40 558.57,507.40 561.32,507.40 564.08,507.41 566.83,507.41 569.59,507.41 572.34,507.42 575.10,507.42 577.85,507.42 580.61,507.42 583.36,507.42 586.12,507.42 588.87,507.43 591.63,507.43 594.38,507.43 597.14,507.43 599.89,507.43 602.65,507.43 605.40,507.43 608.16,507.43 610.91,507.43 613.67,507.44 613.67,507.44 610.91,507.44 608.16,507.44 605.40,507.44 602.65,507.44 599.89,507.44 597.14,507.44 594.38,507.44 591.63,507.44 588.87,507.44 586.12,507.44 583.36,507.44 580.61,507.44 577.85,507.44 575.10,507.44 572.34,507.44 569.59,507.44 566.83,507.44 564.08,507.44 561.32,507.44 558.57,507.44 555.81,507.44 553.06,507.44 550.30,507.44 547.55,507.44 544.79,507.44 542.04,507.44 539.28,507.44 536.53,507.44 533.77,507.44 531.02,507.44 528.26,507.44 525.51,507.44 522.75,507.44 520.00,507.44 517.24,507.44 514.49,507.44 511.73,507.44 508.98,507.44 506.22,507.44 503.47,507.44 500.72,507.44 497.96,507.44 495.21,507.44 492.45,507.44 489.70,507.44 486.94,507.44 484.19,507.44 481.43,507.44 478.68,507.44 475.92,507.44 473.17,507.43 470.41,507.43 467.66,507.43 464.90,507.43 462.15,507.43 459.39,507.43 456.64,507.42 453.88,507.42 451.13,507.42 448.37,507.41 445.62,507.41 442.86,507.41 440.11,507.40 437.35,507.39 434.60,507.39 431.84,507.38 429.09,507.37 426.33,507.36 423.58,507.35 420.82,507.34 418.07,507.32 415.31,507.30 412.56,507.28 409.80,507.26 407.05,507.24 404.29,507.21 401.54,507.17 398.78,507.14 396.03,507.09 393.28,507.04 390.52,506.99 387.77,506.92 385.01,506.85 382.26,506.76 379.50,506.66 376.75,506.55 373.99,506.42 371.24,506.28 368.48,506.11 365.73,505.93 362.97,505.71 360.22,505.47 357.46,505.19 354.71,504.87 351.95,504.51 349.20,504.09 346.44,503.62 343.69,503.08 340.93,502.49 338.18,501.79 335.42,500.98 332.67,500.09 329.91,499.05 327.16,497.88 324.40,496.54 321.65,495.03 318.89,493.31 316.14,491.36 313.38,489.16 310.63,486.67 307.87,483.95 305.12,480.82 302.36,477.26 299.61,473.39 296.85,468.86 294.10,463.93 291.34,458.44 288.59,452.40 285.83,445.73 283.08,438.29 280.33,430.34 277.57,421.79 274.82,412.31 272.06,402.41 269.31,392.03 266.55,380.56 263.80,368.86 261.04,356.75 258.29,344.02 255.53,331.46 252.78,318.26 250.02,305.57 247.27,293.22 244.51,281.51 241.76,269.97 239.00,259.11 236.25,248.35 233.49,238.12 230.74,228.66 227.98,219.22 225.23,210.09 222.47,201.12 219.72,192.66 216.96,184.44 214.21,176.17 211.45,168.55 208.70,161.26 205.94,154.07 203.19,147.16 200.43,140.68 197.68,134.54 194.92,128.89 192.17,123.59 189.41,118.48 186.66,113.68 183.90,109.16 181.15,104.82 178.39,100.73 175.64,96.95 172.89,93.41 170.13,89.97 167.38,86.84 164.62,83.85 161.87,81.14 159.11,78.63 156.36,76.26 153.60,74.07 150.85,72.01 148.09,70.09 145.34,68.30 142.58,66.64 139.83,65.10 137.07,63.68 134.32,62.36 131.56,61.13 128.81,60.00 126.05,58.95 123.30,57.98 120.54,57.07 117.79,56.23 115.03,55.46 112.28,54.74 109.52,54.08 106.77,53.47 104.01,52.91 101.26,52.38 98.50,51.90 95.75,51.46 92.99,51.05 90.24,50.68 87.48,50.33 84.73,50.01 81.97,49.71 79.22,49.44 76.46,49.19 73.71,48.96 70.95,48.74 68.20,48.55 65.44,48.37" style="stroke-width: 0.00;stroke: none;stroke-linecap: butt;fill: #C77CFF;fill-opacity: 0.15;" />
<polyline points="65.44,46.31 68.20,46.32 70.95,46.33 73.71,46.34 76.46,46.35 79.22,46.37 81.97,46.39 84.73,46.41 87.48,46.43 90.24,46.46 92.99,46.49 95.75,46.53 98.50,46.57 101.26,46.62 104.01,46.67 106.77,46.73 109.52,46.81 112.28,46.89 115.03,46.98 117.79,47.09 120.54,47.21 123.30,47.35 126.05,47.50 128.81,47.68 131.56,47.89 134.32,48.12 137.07,48.39 139.83,48.70 142.58,49.04 145.34,49.44 148.09,49.89 150.85,50.40 153.60,50.99 156.36,51.67 159.11,52.44 161.87,53.31 164.62,54.30 167.38,55.42 170.13,56.68 172.89,58.12 175.64,59.77 178.39,61.58 181.15,63.66 183.90,66.01 186.66,68.67 189.41,71.66 192.17,75.02 194.92,78.76 197.68,82.97 200.43,87.69 203.19,92.94 205.94,98.74 208.70,105.17 211.45,112.35 214.21,120.15 216.96,128.70 219.72,138.01 222.47,148.06 225.23,158.69 227.98,169.89 230.74,182.21 233.49,194.76 236.25,207.49 239.00,220.73 241.76,234.45 244.51,248.11 247.27,261.98 250.02,275.00 252.78,287.66 255.53,299.68 258.29,310.90 261.04,321.71 263.80,331.69 266.55,341.21 269.31,350.30 272.06,359.14 274.82,367.48 277.57,375.48 280.33,383.30 283.08,390.82 285.83,397.96 288.59,404.45 291.34,410.97 294.10,417.29 296.85,423.09 299.61,428.60 302.36,433.95 305.12,438.96 307.87,443.68 310.63,448.03 313.38,452.18 316.14,456.08 318.89,459.65 321.65,463.04 324.40,466.24 327.16,469.24 329.91,472.02 332.67,474.56 335.42,476.98 338.18,479.23 340.93,481.32 343.69,483.25 346.44,485.05 349.20,486.75 351.95,488.32 354.71,489.77 357.46,491.12 360.22,492.35 362.97,493.50 365.73,494.56 368.48,495.55 371.24,496.46 373.99,497.30 376.75,498.08 379.50,498.80 382.26,499.46 385.01,500.08 387.77,500.66 390.52,501.19 393.28,501.68 396.03,502.13 398.78,502.54 401.54,502.93 404.29,503.28 407.05,503.60 409.80,503.90 412.56,504.18 415.31,504.43 418.07,504.67 420.82,504.89 423.58,505.09 426.33,505.28 429.09,505.45 431.84,505.60 434.60,505.75 437.35,505.89 440.11,506.01 442.86,506.13 445.62,506.23 448.37,506.33 451.13,506.42 453.88,506.50 456.64,506.58 459.39,506.64 462.15,506.71 464.90,506.77 467.66,506.82 470.41,506.87 473.17,506.91 475.92,506.95 478.68,506.99 481.43,507.03 484.19,507.06 486.94,507.09 489.70,507.12 492.45,507.14 495.21,507.17 497.96,507.19 500.72,507.21 503.47,507.23 506.22,507.24 508.98,507.26 511.73,507.27 514.49,507.29 517.24,507.30 520.00,507.31 522.75,507.32 525.51,507.33 528.26,507.34 531.02,507.35 533.77,507.35 536.53,507.36 539.28,507.37 542.04,507.37 544.79,507.38 547.55,507.38 550.30,507.39 553.06,507.39 555.81,507.40 558.57,507.40 561.32,507.40 564.08,507.41 566.83,507.41 569.59,507.41 572.34,507.42 575.10,507.42 577.85,507.42 580.61,507.42 583.36,507.42 586.12,507.42 588.87,507.43 591.63,507.43 594.38,507.43 597.14,507.43 599.89,507.43 602.65,507.43 605.40,507.43 608.16,507.43 610.91,507.43 613.67,507.44" style="stroke-width: 1.07;stroke: none;stroke-linecap: butt;"/>
<polyline points="613.67,507.44 610.91,507.44 608.16,507.44 605.40,507.44 602.65,507.44 599.89,507.44 597.14,507.44 594.38,507.44 591.63,507.44 588.87,507.44 586.12,507.44 583.36,507.44 580.61,507.44 577.85,507.44 575.10,507.44 572.34,507.44 569.59,507.44 566.83,507.44 564.08,507.44 561.32,507.44 558.57,507.44 555.81,507.44 553.06,507.44 550.30,507.44 547.55,507.44 544.79,507.44 542.04,507.44 539.28,507.44 536.53,507.44 533.77,507.44 531.02,507.44 528.26,507.44 525.51,507.44 522.75,507.44 520.00,507.44 517.24,507.44 514.49,507.44 511.73,507.44 508.98,507.44 506.22,507.44 503.47,507.44 500.72,507.44 497.96,507.44 495.21,507.44 492.45,507.44 489.70,507.44 486.94,507.44 484.19,507.44 481.43,507.44 478.68,507.44 475.92,507.44 473.17,507.43 470.41,507.43 467.66,507.43 464.90,507.43 462.15,507.43 459.39,507.43 456.64,507.42 453.88,507.42 451.13,507.42 448.37,507.41 445.62,507.41 442.86,507.41 440.11,507.40 437.35,507.39 434.60,507.39 431.84,507.38 429.09,507.37 426.33,507.36 423.58,507.35 420.82,507.34 418.07,507.32 415.31,507.30 412.56,507.28 409.80,507.26 407.05,507.24 404.29,507.21 401.54,507.17 398.78,507.14 396.03,507.09 393.28,507.04 390.52,506.99 387.77,506.92 385.01,506.85 382.26,506.76 379.50,506.66 376.75,506.55 373.99,506.42 371.24,506.28 368.48,506.11 365.73,505.93 362.97,505.71 360.22,505.47 357.46,505.19 354.71,504.87 351.95,504.51 349.20,504.09 346.44,503.62 343.69,503.08 340.93,502.49 338.18,501.79 335.42,500.98 332.67,500.09 329.91,499.05 327.16,497.88 324.40,496.54 321.65,495.03 318.89,493.31 316.14,491.36 313.38,489.16 310.63,486.67 307.87,483.95 305.12,480.82 302.36,477.26 299.61,473.39 296.85,468.86 294.10,463.93 291.34,458.44 288.59,452.40 285.83,445.73 283.08,438.29 280.33,430.34 277.57,421.79 274.82,412.31 272.06,402.41 269.31,392.03 266.55,380.56 263.80,368.86 261.04,356.75 258.29,344.02 255.53,331.46 252.78,318.26 250.02,305.57 247.27,293.22 244.51,281.51 241.76,269.97 239.00,259.11 236.25,248.35 233.49,238.12 230.74,228.66 227.98,219.22 225.23,210.09 222.47,201.12 219.72,192.66 216.96,184.44 214.21,176.17 211.45,168.55 208.70,161.26 205.94,154.07 203.19,147.16 200.43,140.68 197.68,134.54 194.92,128.89 192.17,123.59 189.41,118.48 186.66,113.68 183.90,109.16 181.15,104.82 178.39,100.73 175.64,96.95 172.89,93.41 170.13,89.97 167.38,86.84 164.62,83.85 161.87,81.14 159.11,78.63 156.36,76.26 153.60,74.07 150.85,72.01 148.09,70.09 145.34,68.30 142.58,66.64 139.83,65.10 137.07,63.68 134.32,62.36 131.56,61.13 128.81,60.00 126.05,58.95 123.30,57.98 120.54,57.07 117.79,56.23 115.03,55.46 112.28,54.74 109.52,54.08 106.77,53.47 104.01,52.91 101.26,52.38 98.50,51.90 95.75,51.46 92.99,51.05 90.24,50.68 87.48,50.33 84.73,50.01 81.97,49.71 79.22,49.44 76.46,49.19 73.71,48.96 70.95,48.74 68.20,48.55 65.44,48.37" style="stroke-width: 1.07;stroke: none;stroke-linecap: butt;"/>
<circle cx="65.44" cy="164.59" r="2.06" style="stroke-width: 0.71;stroke: #F8766D;stroke-opacity: 0.70;fill: #F8766D;fill-opacity: 0.70;"/>
<circle cx="65.44" cy="151.21" r="2.06" style="stroke-width: 0.71;stroke: #F8766D;stroke-opacity: 0.70;fill: #F8766D;fill-opacity: 0.70;"/>
<circle cx="65.44" cy="159.75" r="2.06" style="stroke-width: 0.71;stroke: #F8766D;stroke-opacity: 0.70;fill: #F8766D;fill-opacity: 0.70;"/>
<circle cx="157.08" cy="151.73" r="2.06" style="stroke-width: 0.71;stroke: #F8766D;stroke-opacity: 0.70;fill: #F8766D;fill-opacity: 0.70;"/>
<circle cx="157.08" cy="158.54" r="2.06" style="stroke-width: 0.71;stroke: #F8766D;stroke-opacity: 0.70;fill: #F8766D;fill-opacity: 0.70;"/>
<circle cx="157.08" cy="157.34" r="2.06" style="stroke-width: 0.71;stroke: #F8766D;stroke-opacity: 0.70;fill: #F8766D;fill-opacity: 0.70;"/>
<circle cx="248.71" cy="264.19" r="2.06" style="stroke-width: 0.71;stroke: #F8766D;stroke-opacity: 0.70;fill: #F8766D;fill-opacity: 0.70;"/>
<circle cx="248.71" cy="254.89" r="2.06" style="stroke-width: 0.71;stroke: #F8766D;stroke-opacity: 0.70;fill: #F8766D;fill-opacity: 0.70;"/>
<circle cx="248.71" cy="263.90" r="2.06" style="stroke-width: 0.71;stroke: #F8766D;stroke-opacity: 0.70;fill: #F8766D;fill-opacity: 0.70;"/>
<circle cx="338.77" cy="507.44" r="2.06" style="stroke-width: 0.71;stroke: #F8766D;stroke-opacity: 0.70;fill: #F8766D;fill-opacity: 0.70;"/>
<circle cx="338.77" cy="507.44" r="2.06" style="stroke-width: 0.71;stroke: #F8766D;stroke-opacity: 0.70;fill: #F8766D;fill-opacity: 0.70;"/>
<circle cx="338.77" cy="507.44" r="2.06" style="stroke-width: 0.71;stroke: #F8766D;stroke-opacity: 0.70;fill: #F8766D;fill-opacity: 0.70;"/>
<circle cx="430.40" cy="507.44" r="2.06" style="stroke-width: 0.71;stroke: #F8766D;stroke-opacity: 0.70;fill: #F8766D;fill-opacity: 0.70;"/>
<circle cx="430.40" cy="507.44" r="2.06" style="stroke-width: 0.71;stroke: #F8766D;stroke-opacity: 0.70;fill: #F8766D;fill-opacity: 0.70;"/>
<circle cx="430.40" cy="507.44" r="2.06" style="stroke-width: 0.71;stroke: #F8766D;stroke-opacity: 0.70;fill: #F8766D;fill-opacity: 0.70;"/>
<circle cx="522.03" cy="507.44" r="2.06" style="stroke-width: 0.71;stroke: #F8766D;stroke-opacity: 0.70;fill: #F8766D;fill-opacity: 0.70;"/>
<circle cx="522.03" cy="507.44" r="2.06" style="stroke-width: 0.71;stroke: #F8766D;stroke-opacity: 0.70;fill: #F8766D;fill-opacity: 0.70;"/>
<circle cx="522.03" cy="507.44" r="2.06" style="stroke-width: 0.71;stroke: #F8766D;stroke-opacity: 0.70;fill: #F8766D;fill-opacity: 0.70;"/>
<circle cx="613.67" cy="507.44" r="2.06" style="stroke-width: 0.71;stroke: #F8766D;stroke-opacity: 0.70;fill: #F8766D;fill-opacity: 0.70;"/>
<circle cx="613.67" cy="505.23" r="2.06" style="stroke-width: 0.71;stroke: #F8766D;stroke-opacity: 0.70;fill: #F8766D;fill-opacity: 0.70;"/>
<circle cx="613.67" cy="507.44" r="2.06" style="stroke-width: 0.71;stroke: #F8766D;stroke-opacity: 0.70;fill: #F8766D;fill-opacity: 0.70;"/>
<circle cx="65.44" cy="46.24" r="2.06" style="stroke-width: 0.71;stroke: #C77CFF;stroke-opacity: 0.70;fill: #C77CFF;fill-opacity: 0.70;"/>
<circle cx="65.44" cy="48.67" r="2.06" style="stroke-width: 0.71;stroke: #C77CFF;stroke-opacity: 0.70;fill: #C77CFF;fill-opacity: 0.70;"/>
<circle cx="65.44" cy="49.49" r="2.06" style="stroke-width: 0.71;stroke: #C77CFF;stroke-opacity: 0.70;fill: #C77CFF;fill-opacity: 0.70;"/>
<circle cx="157.08" cy="59.41" r="2.06" style="stroke-width: 0.71;stroke: #C77CFF;stroke-opacity: 0.70;fill: #C77CFF;fill-opacity: 0.70;"/>
<circle cx="157.08" cy="72.24" r="2.06" style="stroke-width: 0.71;stroke: #C77CFF;stroke-opacity: 0.70;fill: #C77CFF;fill-opacity: 0.70;"/>
<circle cx="157.08" cy="82.35" r="2.06" style="stroke-width: 0.71;stroke: #C77CFF;stroke-opacity: 0.70;fill: #C77CFF;fill-opacity: 0.70;"/>
<circle cx="248.71" cy="289.02" r="2.06" style="stroke-width: 0.71;stroke: #C77CFF;stroke-opacity: 0.70;fill: #C77CFF;fill-opacity: 0.70;"/>
<circle cx="248.71" cy="278.89" r="2.06" style="stroke-width: 0.71;stroke: #C77CFF;stroke-opacity: 0.70;fill: #C77CFF;fill-opacity: 0.70;"/>
<circle cx="248.71" cy="276.26" r="2.06" style="stroke-width: 0.71;stroke: #C77CFF;stroke-opacity: 0.70;fill: #C77CFF;fill-opacity: 0.70;"/>
<circle cx="338.77" cy="507.44" r="2.06" style="stroke-width: 0.71;stroke: #C77CFF;stroke-opacity: 0.70;fill: #C77CFF;fill-opacity: 0.70;"/>
<circle cx="338.77" cy="507.44" r="2.06" style="stroke-width: 0.71;stroke: #C77CFF;stroke-opacity: 0.70;fill: #C77CFF;fill-opacity: 0.70;"/>
<circle cx="338.77" cy="507.44" r="2.06" style="stroke-width: 0.71;stroke: #C77CFF;stroke-opacity: 0.70;fill: #C77CFF;fill-opacity: 0.70;"/>
<circle cx="430.40" cy="507.44" r="2.06" style="stroke-width: 0.71;stroke: #C77CFF;stroke-opacity: 0.70;fill: #C77CFF;fill-opacity: 0.70;"/>
<circle cx="430.40" cy="507.44" r="2.06" style="stroke-width: 0.71;stroke: #C77CFF;stroke-opacity: 0.70;fill: #C77CFF;fill-opacity: 0.70;"/>
<circle cx="430.40" cy="507.44" r="2.06" style="stroke-width: 0.71;stroke: #C77CFF;stroke-opacity: 0.70;fill: #C77CFF;fill-opacity: 0.70;"/>
<circle cx="522.03" cy="507.44" r="2.06" style="stroke-width: 0.71;stroke: #C77CFF;stroke-opacity: 0.70;fill: #C77CFF;fill-opacity: 0.70;"/>
<circle cx="522.03" cy="507.44" r="2.06" style="stroke-width: 0.71;stroke: #C77CFF;stroke-opacity: 0.70;fill: #C77CFF;fill-opacity: 0.70;"/>
<circle cx="522.03" cy="507.44" r="2.06" style="stroke-width: 0.71;stroke: #C77CFF;stroke-opacity: 0.70;fill: #C77CFF;fill-opacity: 0.70;"/>
<circle cx="613.67" cy="507.44" r="2.06" style="stroke-width: 0.71;stroke: #C77CFF;stroke-opacity: 0.70;fill: #C77CFF;fill-opacity: 0.70;"/>
<circle cx="613.67" cy="505.67" r="2.06" style="stroke-width: 0.71;stroke: #C77CFF;stroke-opacity: 0.70;fill: #C77CFF;fill-opacity: 0.70;"/>
<circle cx="613.67" cy="507.44" r="2.06" style="stroke-width: 0.71;stroke: #C77CFF;stroke-opacity: 0.70;fill: #C77CFF;fill-opacity: 0.70;"/>
<circle cx="65.44" cy="46.24" r="2.06" style="stroke-width: 0.71;stroke: #00BFC4;stroke-opacity: 0.70;fill: #00BFC4;fill-opacity: 0.70;"/>
<circle cx="65.44" cy="46.24" r="2.06" style="stroke-width: 0.71;stroke: #00BFC4;stroke-opacity: 0.70;fill: #00BFC4;fill-opacity: 0.70;"/>
<circle cx="65.44" cy="46.24" r="2.06" style="stroke-width: 0.71;stroke: #00BFC4;stroke-opacity: 0.70;fill: #00BFC4;fill-opacity: 0.70;"/>
<circle cx="157.08" cy="46.24" r="2.06" style="stroke-width: 0.71;stroke: #00BFC4;stroke-opacity: 0.70;fill: #00BFC4;fill-opacity: 0.70;"/>
<circle cx="157.08" cy="46.24" r="2.06" style="stroke-width: 0.71;stroke: #00BFC4;stroke-opacity: 0.70;fill: #00BFC4;fill-opacity: 0.70;"/>
<circle cx="157.08" cy="46.24" r="2.06" style="stroke-width: 0.71;stroke: #00BFC4;stroke-opacity: 0.70;fill: #00BFC4;fill-opacity: 0.70;"/>
<circle cx="248.71" cy="193.69" r="2.06" style="stroke-width: 0.71;stroke: #00BFC4;stroke-opacity: 0.70;fill: #00BFC4;fill-opacity: 0.70;"/>
<circle cx="248.71" cy="212.70" r="2.06" style="stroke-width: 0.71;stroke: #00BFC4;stroke-opacity: 0.70;fill: #00BFC4;fill-opacity: 0.70;"/>
<circle cx="248.71" cy="195.88" r="2.06" style="stroke-width: 0.71;stroke: #00BFC4;stroke-opacity: 0.70;fill: #00BFC4;fill-opacity: 0.70;"/>
<circle cx="338.77" cy="507.44" r="2.06" style="stroke-width: 0.71;stroke: #00BFC4;stroke-opacity: 0.70;fill: #00BFC4;fill-opacity: 0.70;"/>
<circle cx="338.77" cy="507.44" r="2.06" style="stroke-width: 0.71;stroke: #00BFC4;stroke-opacity: 0.70;fill: #00BFC4;fill-opacity: 0.70;"/>
<circle cx="338.77" cy="507.44" r="2.06" style="stroke-width: 0.71;stroke: #00BFC4;stroke-opacity: 0.70;fill: #00BFC4;fill-opacity: 0.70;"/>
<circle cx="430.40" cy="507.44" r="2.06" style="stroke-width: 0.71;stroke: #00BFC4;stroke-opacity: 0.70;fill: #00BFC4;fill-opacity: 0.70;"/>
<circle cx="430.40" cy="507.44" r="2.06" style="stroke-width: 0.71;stroke: #00BFC4;stroke-opacity: 0.70;fill: #00BFC4;fill-opacity: 0.70;"/>
<circle cx="430.40" cy="507.44" r="2.06" style="stroke-width: 0.71;stroke: #00BFC4;stroke-opacity: 0.70;fill: #00BFC4;fill-opacity: 0.70;"/>
<circle cx="522.03" cy="507.44" r="2.06" style="stroke-width: 0.71;stroke: #00BFC4;stroke-opacity: 0.70;fill: #00BFC4;fill-opacity: 0.70;"/>
<circle cx="522.03" cy="507.44" r="2.06" style="stroke-width: 0.71;stroke: #00BFC4;stroke-opacity: 0.70;fill: #00BFC4;fill-opacity: 0.70;"/>
<circle cx="522.03" cy="507.44" r="2.06" style="stroke-width: 0.71;stroke: #00BFC4;stroke-opacity: 0.70;fill: #00BFC4;fill-opacity: 0.70;"/>
<circle cx="613.67" cy="507.44" r="2.06" style="stroke-width: 0.71;stroke: #00BFC4;stroke-opacity: 0.70;fill: #00BFC4;fill-opacity: 0.70;"/>
<circle cx="613.67" cy="506.76" r="2.06" style="stroke-width: 0.71;stroke: #00BFC4;stroke-opacity: 0.70;fill: #00BFC4;fill-opacity: 0.70;"/>
<circle cx="613.67" cy="507.44" r="2.06" style="stroke-width: 0.71;stroke: #00BFC4;stroke-opacity: 0.70;fill: #00BFC4;fill-opacity: 0.70;"/>
<circle cx="65.44" cy="180.96" r="2.06" style="stroke-width: 0.71;stroke: #7CAE00;stroke-opacity: 0.70;fill: #7CAE00;fill-opacity: 0.70;"/>
<circle cx="65.44" cy="172.70" r="2.06" style="stroke-width: 0.71;stroke: #7CAE00;stroke-opacity: 0.70;fill: #7CAE00;fill-opacity: 0.70;"/>
<circle cx="65.44" cy="190.80" r="2.06" style="stroke-width: 0.71;stroke: #7CAE00;stroke-opacity: 0.70;fill: #7CAE00;fill-opacity: 0.70;"/>
<circle cx="157.08" cy="108.88" r="2.06" style="stroke-width: 0.71;stroke: #7CAE00;stroke-opacity: 0.70;fill: #7CAE00;fill-opacity: 0.70;"/>
<circle cx="157.08" cy="126.68" r="2.06" style="stroke-width: 0.71;stroke: #7CAE00;stroke-opacity: 0.70;fill: #7CAE00;fill-opacity: 0.70;"/>
<circle cx="157.08" cy="121.14" r="2.06" style="stroke-width: 0.71;stroke: #7CAE00;stroke-opacity: 0.70;fill: #7CAE00;fill-opacity: 0.70;"/>
<circle cx="248.71" cy="285.93" r="2.06" style="stroke-width: 0.71;stroke: #7CAE00;stroke-opacity: 0.70;fill: #7CAE00;fill-opacity: 0.70;"/>
<circle cx="248.71" cy="280.51" r="2.06" style="stroke-width: 0.71;stroke: #7CAE00;stroke-opacity: 0.70;fill: #7CAE00;fill-opacity: 0.70;"/>
<circle cx="248.71" cy="272.47" r="2.06" style="stroke-width: 0.71;stroke: #7CAE00;stroke-opacity: 0.70;fill: #7CAE00;fill-opacity: 0.70;"/>
<circle cx="338.77" cy="507.44" r="2.06" style="stroke-width: 0.71;stroke: #7CAE00;stroke-opacity: 0.70;fill: #7CAE00;fill-opacity: 0.70;"/>
<circle cx="338.77" cy="507.44" r="2.06" style="stroke-width: 0.71;stroke: #7CAE00;stroke-opacity: 0.70;fill: #7CAE00;fill-opacity: 0.70;"/>
<circle cx="338.77" cy="507.44" r="2.06" style="stroke-width: 0.71;stroke: #7CAE00;stroke-opacity: 0.70;fill: #7CAE00;fill-opacity: 0.70;"/>
<circle cx="430.40" cy="507.44" r="2.06" style="stroke-width: 0.71;stroke: #7CAE00;stroke-opacity: 0.70;fill: #7CAE00;fill-opacity: 0.70;"/>
<circle cx="430.40" cy="507.44" r="2.06" style="stroke-width: 0.71;stroke: #7CAE00;stroke-opacity: 0.70;fill: #7CAE00;fill-opacity: 0.70;"/>
<circle cx="430.40" cy="507.44" r="2.06" style="stroke-width: 0.71;stroke: #7CAE00;stroke-opacity: 0.70;fill: #7CAE00;fill-opacity: 0.70;"/>
<circle cx="522.03" cy="507.44" r="2.06" style="stroke-width: 0.71;stroke: #7CAE00;stroke-opacity: 0.70;fill: #7CAE00;fill-opacity: 0.70;"/>
<circle cx="522.03" cy="507.44" r="2.06" style="stroke-width: 0.71;stroke: #7CAE00;stroke-opacity: 0.70;fill: #7CAE00;fill-opacity: 0.70;"/>
<circle cx="522.03" cy="507.44" r="2.06" style="stroke-width: 0.71;stroke: #7CAE00;stroke-opacity: 0.70;fill: #7CAE00;fill-opacity: 0.70;"/>
<circle cx="613.67" cy="507.44" r="2.06" style="stroke-width: 0.71;stroke: #7CAE00;stroke-opacity: 0.70;fill: #7CAE00;fill-opacity: 0.70;"/>
<circle cx="613.67" cy="501.73" r="2.06" style="stroke-width: 0.71;stroke: #7CAE00;stroke-opacity: 0.70;fill: #7CAE00;fill-opacity: 0.70;"/>
<circle cx="613.67" cy="507.44" r="2.06" style="stroke-width: 0.71;stroke: #7CAE00;stroke-opacity: 0.70;fill: #7CAE00;fill-opacity: 0.70;"/>
<polyline points="65.44,158.82 68.20,158.83 70.95,158.84 73.71,158.85 76.46,158.86 79.22,158.88 81.97,158.89 84.73,158.91 87.48,158.92 90.24,158.94 92.99,158.96 95.75,158.97 98.50,158.99 101.26,159.01 104.01,159.03 106.77,159.06 109.52,159.08 112.28,159.11 115.03,159.13 117.79,159.16 120.54,159.19 123.30,159.23 126.05,159.26 128.81,159.30 131.56,159.34 134.32,159.38 137.07,159.43 139.83,159.48 142.58,159.53 145.34,159.59 148.09,159.65 150.85,159.72 153.60,159.80 156.36,159.88 159.11,159.97 161.87,160.07 164.62,160.18 167.38,160.30 170.13,160.43 172.89,160.58 175.64,160.75 178.39,160.93 181.15,161.15 183.90,161.39 186.66,161.66 189.41,161.97 192.17,162.33 194.92,162.75 197.68,163.24 200.43,163.81 203.19,164.48 205.94,165.28 208.70,166.24 211.45,167.39 214.21,168.80 216.96,170.51 219.72,172.62 222.47,175.25 225.23,178.53 227.98,182.65 230.74,187.85 233.49,194.45 236.25,202.80 239.00,213.34 241.76,226.49 244.51,242.56 247.27,261.64 250.02,283.35 252.78,306.89 255.53,331.14 258.29,354.89 261.04,377.16 263.80,397.27 266.55,414.90 269.31,430.03 272.06,442.78 274.82,453.41 277.57,462.21 280.33,469.46 283.08,475.41 285.83,480.31 288.59,484.34 291.34,487.67 294.10,490.42 296.85,492.70 299.61,494.61 302.36,496.21 305.12,497.56 307.87,498.70 310.63,499.67 313.38,500.49 316.14,501.20 318.89,501.82 321.65,502.35 324.40,502.81 327.16,503.22 329.91,503.57 332.67,503.89 335.42,504.16 338.18,504.41 340.93,504.63 343.69,504.83 346.44,505.00 349.20,505.16 351.95,505.31 354.71,505.44 357.46,505.56 360.22,505.66 362.97,505.76 365.73,505.85 368.48,505.93 371.24,506.01 373.99,506.08 376.75,506.14 379.50,506.20 382.26,506.26 385.01,506.31 387.77,506.36 390.52,506.40 393.28,506.44 396.03,506.48 398.78,506.52 401.54,506.55 404.29,506.58 407.05,506.61 409.80,506.64 412.56,506.67 415.31,506.69 418.07,506.72 420.82,506.74 423.58,506.76 426.33,506.78 429.09,506.80 431.84,506.82 434.60,506.83 437.35,506.85 440.11,506.87 442.86,506.88 445.62,506.90 448.37,506.91 451.13,506.92 453.88,506.93 456.64,506.95 459.39,506.96 462.15,506.97 464.90,506.98 467.66,506.99 470.41,507.00 473.17,507.01 475.92,507.02 478.68,507.03 481.43,507.03 484.19,507.04 486.94,507.05 489.70,507.06 492.45,507.06 495.21,507.07 497.96,507.08 500.72,507.08 503.47,507.09 506.22,507.10 508.98,507.10 511.73,507.11 514.49,507.11 517.24,507.12 520.00,507.13 522.75,507.13 525.51,507.14 528.26,507.14 531.02,507.15 533.77,507.15 536.53,507.15 539.28,507.16 542.04,507.16 544.79,507.17 547.55,507.17 550.30,507.18 553.06,507.18 555.81,507.18 558.57,507.19 561.32,507.19 564.08,507.19 566.83,507.20 569.59,507.20 572.34,507.20 575.10,507.21 577.85,507.21 580.61,507.21 583.36,507.22 586.12,507.22 588.87,507.22 591.63,507.23 594.38,507.23 597.14,507.23 599.89,507.23 602.65,507.24 605.40,507.24 608.16,507.24 610.91,507.24 613.67,507.25" style="stroke-width: 1.71;stroke: #F8766D;stroke-linecap: butt;"/>
<polyline points="65.44,150.32 68.20,150.35 70.95,150.37 73.71,150.40 76.46,150.43 79.22,150.45 81.97,150.48 84.73,150.51 87.48,150.54 90.24,150.58 92.99,150.61 95.75,150.65 98.50,150.68 101.26,150.72 104.01,150.76 106.77,150.80 109.52,150.84 112.28,150.89 115.03,150.93 117.79,150.98 120.54,151.03 123.30,151.08 126.05,151.14 128.81,151.19 131.56,151.25 134.32,151.32 137.07,151.38 139.83,151.45 142.58,151.52 145.34,151.60 148.09,151.68 150.85,151.76 153.60,151.85 156.36,151.94 159.11,152.04 161.87,152.15 164.62,152.26 167.38,152.37 170.13,152.50 172.89,152.63 175.64,152.77 178.39,152.92 181.15,153.08 183.90,153.25 186.66,153.44 189.41,153.64 192.17,153.86 194.92,154.09 197.68,154.35 200.43,154.64 203.19,154.95 205.94,155.31 208.70,155.71 211.45,156.16 214.21,156.71 216.96,157.45 219.72,158.78 222.47,161.58 225.23,167.65 227.98,179.82 230.74,199.52 233.49,226.91 236.25,259.96 239.00,294.65 241.76,329.59 244.51,363.68 247.27,394.43 250.02,420.05 252.78,440.09 255.53,455.09 258.29,466.09 261.04,474.12 263.80,480.05 266.55,484.47 269.31,487.83 272.06,490.42 274.82,492.47 277.57,494.10 280.33,495.43 283.08,496.53 285.83,497.46 288.59,498.25 291.34,498.92 294.10,499.51 296.85,500.03 299.61,500.49 302.36,500.90 305.12,501.27 307.87,501.61 310.63,501.91 313.38,502.19 316.14,502.44 318.89,502.68 321.65,502.89 324.40,503.10 327.16,503.28 329.91,503.46 332.67,503.62 335.42,503.77 338.18,503.92 340.93,504.05 343.69,504.18 346.44,504.30 349.20,504.41 351.95,504.52 354.71,504.62 357.46,504.71 360.22,504.80 362.97,504.89 365.73,504.97 368.48,505.05 371.24,505.12 373.99,505.19 376.75,505.26 379.50,505.33 382.26,505.39 385.01,505.45 387.77,505.50 390.52,505.56 393.28,505.61 396.03,505.66 398.78,505.70 401.54,505.75 404.29,505.79 407.05,505.83 409.80,505.87 412.56,505.91 415.31,505.95 418.07,505.99 420.82,506.02 423.58,506.05 426.33,506.09 429.09,506.12 431.84,506.15 434.60,506.17 437.35,506.20 440.11,506.23 442.86,506.25 445.62,506.28 448.37,506.30 451.13,506.33 453.88,506.35 456.64,506.37 459.39,506.39 462.15,506.41 464.90,506.43 467.66,506.45 470.41,506.47 473.17,506.49 475.92,506.51 478.68,506.52 481.43,506.54 484.19,506.56 486.94,506.57 489.70,506.59 492.45,506.60 495.21,506.62 497.96,506.63 500.72,506.65 503.47,506.66 506.22,506.67 508.98,506.69 511.73,506.70 514.49,506.71 517.24,506.72 520.00,506.73 522.75,506.75 525.51,506.76 528.26,506.77 531.02,506.78 533.77,506.79 536.53,506.80 539.28,506.81 542.04,506.82 544.79,506.83 547.55,506.84 550.30,506.85 553.06,506.86 555.81,506.86 558.57,506.87 561.32,506.88 564.08,506.89 566.83,506.90 569.59,506.90 572.34,506.91 575.10,506.92 577.85,506.93 580.61,506.93 583.36,506.94 586.12,506.95 588.87,506.96 591.63,506.96 594.38,506.97 597.14,506.98 599.89,506.98 602.65,506.99 605.40,506.99 608.16,507.00 610.91,507.01 613.67,507.01" style="stroke-width: 1.71;stroke: #7CAE00;stroke-linecap: butt;"/>
<polyline points="65.44,46.24 68.20,46.24 70.95,46.24 73.71,46.24 76.46,46.24 79.22,46.24 81.97,46.24 84.73,46.24 87.48,46.24 90.24,46.24 92.99,46.24 95.75,46.24 98.50,46.24 101.26,46.24 104.01,46.24 106.77,46.24 109.52,46.24 112.28,46.24 115.03,46.24 117.79,46.24 120.54,46.24 123.30,46.24 126.05,46.24 128.81,46.24 131.56,46.24 134.32,46.24 137.07,46.24 139.83,46.24 142.58,46.24 145.34,46.24 148.09,46.25 150.85,46.25 153.60,46.25 156.36,46.26 159.11,46.26 161.87,46.27 164.62,46.28 167.38,46.30 170.13,46.32 172.89,46.34 175.64,46.37 178.39,46.41 181.15,46.47 183.90,46.54 186.66,46.63 189.41,46.76 192.17,46.92 194.92,47.14 197.68,47.42 200.43,47.79 203.19,48.29 205.94,48.94 208.70,49.80 211.45,50.93 214.21,52.43 216.96,54.39 219.72,56.97 222.47,60.35 225.23,64.77 227.98,70.51 230.74,77.93 233.49,87.42 236.25,99.45 239.00,114.47 241.76,132.87 244.51,154.92 247.27,180.63 250.02,209.64 252.78,241.19 255.53,274.14 258.29,307.15 261.04,338.87 263.80,368.15 266.55,394.24 269.31,416.74 272.06,435.63 274.82,451.14 277.57,463.64 280.33,473.57 283.08,481.37 285.83,487.45 288.59,492.15 291.34,495.77 294.10,498.54 296.85,500.66 299.61,502.28 302.36,503.51 305.12,504.45 307.87,505.16 310.63,505.71 313.38,506.12 316.14,506.44 318.89,506.68 321.65,506.86 324.40,507.00 327.16,507.10 329.91,507.18 332.67,507.24 335.42,507.29 338.18,507.33 340.93,507.35 343.69,507.37 346.44,507.39 349.20,507.40 351.95,507.41 354.71,507.42 357.46,507.43 360.22,507.43 362.97,507.43 365.73,507.44 368.48,507.44 371.24,507.44 373.99,507.44 376.75,507.44 379.50,507.44 382.26,507.44 385.01,507.44 387.77,507.44 390.52,507.44 393.28,507.44 396.03,507.44 398.78,507.44 401.54,507.44 404.29,507.44 407.05,507.44 409.80,507.44 412.56,507.44 415.31,507.44 418.07,507.44 420.82,507.44 423.58,507.44 426.33,507.44 429.09,507.44 431.84,507.44 434.60,507.44 437.35,507.44 440.11,507.44 442.86,507.44 445.62,507.44 448.37,507.44 451.13,507.44 453.88,507.44 456.64,507.44 459.39,507.44 462.15,507.44 464.90,507.44 467.66,507.44 470.41,507.44 473.17,507.44 475.92,507.44 478.68,507.44 481.43,507.44 484.19,507.44 486.94,507.44 489.70,507.44 492.45,507.44 495.21,507.44 497.96,507.44 500.72,507.44 503.47,507.44 506.22,507.44 508.98,507.44 511.73,507.44 514.49,507.44 517.24,507.44 520.00,507.44 522.75,507.44 525.51,507.44 528.26,507.44 531.02,507.44 533.77,507.44 536.53,507.44 539.28,507.44 542.04,507.44 544.79,507.44 547.55,507.44 550.30,507.44 553.06,507.44 555.81,507.44 558.57,507.44 561.32,507.44 564.08,507.44 566.83,507.44 569.59,507.44 572.34,507.44 575.10,507.44 577.85,507.44 580.61,507.44 583.36,507.44 586.12,507.44 588.87,507.44 591.63,507.44 594.38,507.44 597.14,507.44 599.89,507.44 602.65,507.44 605.40,507.44 608.16,507.44 610.91,507.44 613.67,507.44" style="stroke-width: 1.71;stroke: #00BFC4;stroke-linecap: butt;"/>
<polyline points="65.44,46.80 68.20,46.86 70.95,46.92 73.71,46.99 76.46,47.06 79.22,47.15 81.97,47.24 84.73,47.34 87.48,47.46 90.24,47.58 92.99,47.72 95.75,47.87 98.50,48.04 101.26,48.23 104.01,48.43 106.77,48.66 109.52,48.91 112.28,49.18 115.03,49.49 117.79,49.82 120.54,50.20 123.30,50.61 126.05,51.06 128.81,51.56 131.56,52.11 134.32,52.72 137.07,53.40 139.83,54.14 142.58,54.96 145.34,55.86 148.09,56.86 150.85,57.97 153.60,59.18 156.36,60.52 159.11,61.99 161.87,63.62 164.62,65.41 167.38,67.37 170.13,69.53 172.89,71.90 175.64,74.51 178.39,77.36 181.15,80.49 183.90,83.91 186.66,87.64 189.41,91.71 192.17,96.14 194.92,100.96 197.68,106.19 200.43,111.84 203.19,117.95 205.94,124.53 208.70,131.59 211.45,139.15 214.21,147.22 216.96,155.80 219.72,164.88 222.47,174.47 225.23,184.53 227.98,195.05 230.74,205.98 233.49,217.30 236.25,228.95 239.00,240.88 241.76,253.01 244.51,265.29 247.27,277.64 250.02,289.99 252.78,302.26 255.53,314.38 258.29,326.29 261.04,337.92 263.80,349.22 266.55,360.13 269.31,370.61 272.06,380.64 274.82,390.18 277.57,399.22 280.33,407.75 283.08,415.77 285.83,423.28 288.59,430.29 291.34,436.82 294.10,442.87 296.85,448.48 299.61,453.65 302.36,458.41 305.12,462.80 307.87,466.82 310.63,470.50 313.38,473.87 316.14,476.95 318.89,479.77 321.65,482.33 324.40,484.66 327.16,486.79 329.91,488.72 332.67,490.47 335.42,492.07 338.18,493.51 340.93,494.82 343.69,496.01 346.44,497.09 349.20,498.07 351.95,498.96 354.71,499.76 357.46,500.48 360.22,501.14 362.97,501.74 365.73,502.28 368.48,502.76 371.24,503.21 373.99,503.60 376.75,503.97 379.50,504.29 382.26,504.59 385.01,504.86 387.77,505.10 390.52,505.32 393.28,505.52 396.03,505.70 398.78,505.86 401.54,506.01 404.29,506.14 407.05,506.27 409.80,506.38 412.56,506.47 415.31,506.56 418.07,506.65 420.82,506.72 423.58,506.79 426.33,506.85 429.09,506.90 431.84,506.95 434.60,507.00 437.35,507.04 440.11,507.08 442.86,507.11 445.62,507.14 448.37,507.17 451.13,507.19 453.88,507.22 456.64,507.24 459.39,507.25 462.15,507.27 464.90,507.29 467.66,507.30 470.41,507.31 473.17,507.33 475.92,507.34 478.68,507.35 481.43,507.35 484.19,507.36 486.94,507.37 489.70,507.38 492.45,507.38 495.21,507.39 497.96,507.39 500.72,507.40 503.47,507.40 506.22,507.41 508.98,507.41 511.73,507.41 514.49,507.41 517.24,507.42 520.00,507.42 522.75,507.42 525.51,507.42 528.26,507.43 531.02,507.43 533.77,507.43 536.53,507.43 539.28,507.43 542.04,507.43 544.79,507.43 547.55,507.43 550.30,507.43 553.06,507.44 555.81,507.44 558.57,507.44 561.32,507.44 564.08,507.44 566.83,507.44 569.59,507.44 572.34,507.44 575.10,507.44 577.85,507.44 580.61,507.44 583.36,507.44 586.12,507.44 588.87,507.44 591.63,507.44 594.38,507.44 597.14,507.44 599.89,507.44 602.65,507.44 605.40,507.44 608.16,507.44 610.91,507.44 613.67,507.44" style="stroke-width: 1.71;stroke: #C77CFF;stroke-linecap: butt;"/>
</g><g clip-path="url(#c2)">
<g><text x="33.10" y="510.59" text-anchor="end" style="font-family: Arial;font-size: 8.80px;fill: #4D4D4D;" textLength="4.90px" lengthAdjust="spacingAndGlyphs">0</text></g>
<g><text x="33.10" y="395.29" text-anchor="end" style="font-family: Arial;font-size: 8.80px;fill: #4D4D4D;" textLength="9.79px" lengthAdjust="spacingAndGlyphs">25</text></g>
<g><text x="33.10" y="279.99" text-anchor="end" style="font-family: Arial;font-size: 8.80px;fill: #4D4D4D;" textLength="9.79px" lengthAdjust="spacingAndGlyphs">50</text></g>
<g><text x="33.10" y="164.69" text-anchor="end" style="font-family: Arial;font-size: 8.80px;fill: #4D4D4D;" textLength="9.79px" lengthAdjust="spacingAndGlyphs">75</text></g>
<g><text x="33.10" y="49.39" text-anchor="end" style="font-family: Arial;font-size: 8.80px;fill: #4D4D4D;" textLength="14.69px" lengthAdjust="spacingAndGlyphs">100</text></g>
<g><text x="111.26" y="541.74" text-anchor="middle" style="font-family: Arial;font-size: 8.80px;fill: #4D4D4D;" textLength="24.72px" lengthAdjust="spacingAndGlyphs">1e+02</text></g>
<g><text x="263.46" y="541.74" text-anchor="middle" style="font-family: Arial;font-size: 8.80px;fill: #4D4D4D;" textLength="24.72px" lengthAdjust="spacingAndGlyphs">1e+03</text></g>
<g><text x="415.65" y="541.74" text-anchor="middle" style="font-family: Arial;font-size: 8.80px;fill: #4D4D4D;" textLength="24.72px" lengthAdjust="spacingAndGlyphs">1e+04</text></g>
<g><text x="567.85" y="541.74" text-anchor="middle" style="font-family: Arial;font-size: 8.80px;fill: #4D4D4D;" textLength="24.72px" lengthAdjust="spacingAndGlyphs">1e+05</text></g>
<g><text x="339.55" y="554.20" text-anchor="middle" style="font-family: Arial;font-size: 11.00px;" textLength="50.36px" lengthAdjust="spacingAndGlyphs">Dose [M]</text></g>
<g><text transform="translate(13.36,276.84) rotate(-90.00)" text-anchor="middle" style="font-family: Arial;font-size: 11.00px;" textLength="57.87px" lengthAdjust="spacingAndGlyphs">Viability (%)</text></g>
<g><text x="657.51" y="243.48" style="font-family: Arial;font-size: 11.00px;" textLength="53.83px" lengthAdjust="spacingAndGlyphs">Compound</text></g>
<circle cx="666.15" cy="258.76" r="2.06" style="stroke-width: 0.71;stroke: #F8766D;stroke-opacity: 0.70;fill: #F8766D;fill-opacity: 0.70;"/>
<line x1="659.24" y1="258.76" x2="673.07" y2="258.76" style="stroke-width: 1.71;stroke: #F8766D;stroke-linecap: butt;"/>
<circle cx="666.15" cy="276.04" r="2.06" style="stroke-width: 0.71;stroke: #7CAE00;stroke-opacity: 0.70;fill: #7CAE00;fill-opacity: 0.70;"/>
<line x1="659.24" y1="276.04" x2="673.07" y2="276.04" style="stroke-width: 1.71;stroke: #7CAE00;stroke-linecap: butt;"/>
<circle cx="666.15" cy="293.32" r="2.06" style="stroke-width: 0.71;stroke: #00BFC4;stroke-opacity: 0.70;fill: #00BFC4;fill-opacity: 0.70;"/>
<line x1="659.24" y1="293.32" x2="673.07" y2="293.32" style="stroke-width: 1.71;stroke: #00BFC4;stroke-linecap: butt;"/>
<circle cx="666.15" cy="310.60" r="2.06" style="stroke-width: 0.71;stroke: #C77CFF;stroke-opacity: 0.70;fill: #C77CFF;fill-opacity: 0.70;"/>
<line x1="659.24" y1="310.60" x2="673.07" y2="310.60" style="stroke-width: 1.71;stroke: #C77CFF;stroke-linecap: butt;"/>
<g><text x="680.27" y="261.91" style="font-family: Arial;font-size: 8.80px;" textLength="45.48px" lengthAdjust="spacingAndGlyphs">KBrO3 (A1)</text></g>
<g><text x="680.27" y="279.19" style="font-family: Arial;font-size: 8.80px;" textLength="77.77px" lengthAdjust="spacingAndGlyphs">KBrO3_Erastin (A4)</text></g>
<g><text x="680.27" y="296.47" style="font-family: Arial;font-size: 8.80px;" textLength="68.95px" lengthAdjust="spacingAndGlyphs">KBrO3_NAC (A3)</text></g>
<g><text x="680.27" y="313.75" style="font-family: Arial;font-size: 8.80px;" textLength="67.97px" lengthAdjust="spacingAndGlyphs">KBrO3_SFN (A2)</text></g>
<g><text x="38.03" y="14.93" style="font-family: Arial;font-size: 13.20px;" textLength="379.83px" lengthAdjust="spacingAndGlyphs">Patient ASC399  doseresponse across compounds (ASC399)</text></g>
</g>
</svg>