<svg xmlns="http://www.w3.org/2000/svg" xmlns:xlink="http://www.w3.org/1999/xlink" class="httpgd" width="769.00" height="562.00" viewBox="0 0 769.00 562.00">
<defs>
  <style type='text/css'><![CDATA[
    .httpgd line, .httpgd polyline, .httpgd polygon, .httpgd path, .httpgd rect, .httpgd circle {
      fill: none;
      stroke: #000000;
      stroke-linecap: round;
      stroke-linejoin: round;
      stroke-miterlimit: 10.00;
    }
  ]]></style>
<clipPath id="c0"><rect x="0.00" y="0.00" width="769.00" height="562.00"/></clipPath>
<clipPath id="c1"><rect x="38.03" y="23.18" width="599.12" height="507.33"/></clipPath>
<clipPath id="c2"><rect x="0.00" y="0.00" width="769.00" height="562.00"/></clipPath>
</defs>
<rect width="100%" height="100%" style="stroke: none;fill: #FFFFFF;"/>
<g clip-path="url(#c0)">
</g><g clip-path="url(#c1)">
<polyline points="38.03,507.44 637.15,507.44" style="stroke-width: 1.07;stroke: #EBEBEB;stroke-linecap: butt;"/>
<polyline points="38.03,392.14 637.15,392.14" style="stroke-width: 1.07;stroke: #EBEBEB;stroke-linecap: butt;"/>
<polyline points="38.03,276.84 637.15,276.84" style="stroke-width: 1.07;stroke: #EBEBEB;stroke-linecap: butt;"/>
<polyline points="38.03,161.54 637.15,161.54" style="stroke-width: 1.07;stroke: #EBEBEB;stroke-linecap: butt;"/>
<polyline points="38.03,46.24 637.15,46.24" style="stroke-width: 1.07;stroke: #EBEBEB;stroke-linecap: butt;"/>
<polyline points="110.78,530.50 110.78,23.18" style="stroke-width: 1.07;stroke: #EBEBEB;stroke-linecap: butt;"/>
<polyline points="261.99,530.50 261.99,23.18" style="stroke-width: 1.07;stroke: #EBEBEB;stroke-linecap: butt;"/>
<polyline points="413.20,530.50 413.20,23.18" style="stroke-width: 1.07;stroke: #EBEBEB;stroke-linecap: butt;"/>
<polyline points="564.40,530.50 564.40,23.18" style="stroke-width: 1.07;stroke: #EBEBEB;stroke-linecap: butt;"/>
<polygon points="65.27,46.24 68.00,46.24 70.74,46.24 73.48,46.24 76.21,46.24 78.95,46.24 81.69,46.25 84.43,46.25 87.16,46.25 89.90,46.25 92.64,46.25 95.37,46.26 98.11,46.26 100.85,46.26 103.58,46.27 106.32,46.27 109.06,46.28 111.79,46.29 114.53,46.30 117.27,46.31 120.01,46.32 122.74,46.34 125.48,46.35 128.22,46.38 130.95,46.40 133.69,46.43 136.43,46.47 139.16,46.51 141.90,46.56 144.64,46.62 147.38,46.69 150.11,46.78 152.85,46.88 155.59,47.00 158.32,47.14 161.06,47.31 163.80,47.51 166.53,47.74 169.27,48.02 172.01,48.35 174.74,48.74 177.48,49.21 180.22,49.75 182.96,50.40 185.69,51.17 188.43,52.07 191.17,53.14 193.90,54.41 196.64,55.89 199.38,57.64 202.11,59.70 204.85,62.11 207.59,64.93 210.32,68.24 213.06,72.11 215.80,76.61 218.54,81.84 221.27,87.88 224.01,94.82 226.75,102.77 229.48,111.74 232.22,121.94 234.96,133.36 237.69,146.04 240.43,159.96 243.17,175.12 245.91,191.26 248.64,208.03 251.38,225.26 254.12,242.82 256.85,260.76 259.59,278.81 262.33,296.81 265.06,314.54 267.80,331.83 270.54,348.49 273.27,364.33 276.01,379.31 278.75,393.29 281.49,406.16 284.22,417.95 286.96,428.68 289.70,438.35 292.43,447.06 295.17,454.78 297.91,461.64 300.64,467.69 303.38,473.01 306.12,477.67 308.86,481.73 311.59,485.26 314.33,488.33 317.07,490.99 319.80,493.29 322.54,495.28 325.28,497.00 328.01,498.48 330.75,499.75 333.49,500.84 336.22,501.79 338.96,502.59 341.70,503.29 344.44,503.88 347.17,504.39 349.91,504.83 352.65,505.21 355.38,505.53 358.12,505.81 360.86,506.04 363.59,506.24 366.33,506.42 369.07,506.56 371.80,506.69 374.54,506.80 377.28,506.89 380.02,506.97 382.75,507.04 385.49,507.10 388.23,507.15 390.96,507.19 393.70,507.23 396.44,507.26 399.17,507.29 401.91,507.31 404.65,507.33 407.39,507.34 410.12,507.36 412.86,507.37 415.60,507.38 418.33,507.39 421.07,507.40 423.81,507.40 426.54,507.41 429.28,507.42 432.02,507.42 434.75,507.42 437.49,507.43 440.23,507.43 442.97,507.43 445.70,507.43 448.44,507.43 451.18,507.44 453.91,507.44 456.65,507.44 459.39,507.44 462.12,507.44 464.86,507.44 467.60,507.44 470.34,507.44 473.07,507.44 475.81,507.44 478.55,507.44 481.28,507.44 484.02,507.44 486.76,507.44 489.49,507.44 492.23,507.44 494.97,507.44 497.70,507.44 500.44,507.44 503.18,507.44 505.92,507.44 508.65,507.44 511.39,507.44 514.13,507.44 516.86,507.44 519.60,507.44 522.34,507.44 525.07,507.44 527.81,507.44 530.55,507.44 533.28,507.44 536.02,507.44 538.76,507.44 541.50,507.44 544.23,507.44 546.97,507.44 549.71,507.44 552.44,507.44 555.18,507.44 557.92,507.44 560.65,507.44 563.39,507.44 566.13,507.44 568.87,507.44 571.60,507.44 574.34,507.44 577.08,507.44 579.81,507.44 582.55,507.44 585.29,507.44 588.02,507.44 590.76,507.44 593.50,507.44 596.23,507.44 598.97,507.44 601.71,507.44 604.45,507.44 607.18,507.44 609.92,507.44 609.92,507.44 607.18,507.44 604.45,507.44 601.71,507.44 598.97,507.44 596.23,507.44 593.50,507.44 590.76,507.44 588.02,507.44 585.29,507.44 582.55,507.44 579.81,507.44 577.08,507.44 574.34,507.44 571.60,507.44 568.87,507.44 566.13,507.44 563.39,507.44 560.65,507.44 557.92,507.44 555.18,507.44 552.44,507.44 549.71,507.44 546.97,507.44 544.23,507.44 541.50,507.44 538.76,507.44 536.02,507.44 533.28,507.44 530.55,507.44 527.81,507.44 525.07,507.44 522.34,507.44 519.60,507.44 516.86,507.44 514.13,507.44 511.39,507.44 508.65,507.44 505.92,507.44 503.18,507.44 500.44,507.44 497.70,507.44 494.97,507.44 492.23,507.44 489.49,507.44 486.76,507.44 484.02,507.44 481.28,507.44 478.55,507.44 475.81,507.44 473.07,507.44 470.34,507.44 467.60,507.44 464.86,507.44 462.12,507.44 459.39,507.44 456.65,507.44 453.91,507.44 451.18,507.44 448.44,507.44 445.70,507.44 442.97,507.44 440.23,507.44 437.49,507.44 434.75,507.44 432.02,507.43 429.28,507.43 426.54,507.43 423.81,507.43 421.07,507.43 418.33,507.42 415.60,507.42 412.86,507.41 410.12,507.41 407.39,507.40 404.65,507.39 401.91,507.38 399.17,507.37 396.44,507.36 393.70,507.34 390.96,507.33 388.23,507.30 385.49,507.28 382.75,507.25 380.02,507.21 377.28,507.17 374.54,507.12 371.80,507.06 369.07,506.98 366.33,506.90 363.59,506.80 360.86,506.68 358.12,506.53 355.38,506.37 352.65,506.17 349.91,505.93 347.17,505.65 344.44,505.31 341.70,504.92 338.96,504.45 336.22,503.90 333.49,503.25 330.75,502.48 328.01,501.57 325.28,500.49 322.54,499.21 319.80,497.71 317.07,495.94 314.33,493.87 311.59,491.44 308.86,488.58 306.12,485.24 303.38,481.34 300.64,476.80 297.91,471.53 295.17,465.46 292.43,458.46 289.70,450.47 286.96,441.40 284.22,431.13 281.49,419.65 278.75,406.87 276.01,392.82 273.27,377.49 270.54,361.00 267.80,343.43 265.06,324.96 262.33,305.84 259.59,286.35 256.85,266.70 254.12,247.21 251.38,228.25 248.64,210.22 245.91,193.49 243.17,178.02 240.43,163.76 237.69,150.61 234.96,138.50 232.22,127.51 229.48,117.57 226.75,108.61 224.01,100.66 221.27,93.60 218.54,87.38 215.80,81.90 213.06,77.09 210.32,72.88 207.59,69.23 204.85,66.06 202.11,63.30 199.38,60.92 196.64,58.85 193.90,57.07 191.17,55.54 188.43,54.21 185.69,53.08 182.96,52.10 180.22,51.26 177.48,50.54 174.74,49.93 172.01,49.40 169.27,48.94 166.53,48.55 163.80,48.22 161.06,47.94 158.32,47.69 155.59,47.48 152.85,47.30 150.11,47.15 147.38,47.02 144.64,46.90 141.90,46.81 139.16,46.73 136.43,46.66 133.69,46.60 130.95,46.54 128.22,46.50 125.48,46.46 122.74,46.43 120.01,46.40 117.27,46.38 114.53,46.36 111.79,46.34 109.06,46.33 106.32,46.31 103.58,46.30 100.85,46.29 98.11,46.28 95.37,46.28 92.64,46.27 89.90,46.27 87.16,46.26 84.43,46.26 81.69,46.26 78.95,46.25 76.21,46.25 73.48,46.25 70.74,46.25 68.00,46.25 65.27,46.24" style="stroke-width: 0.00;stroke: none;stroke-linecap: butt;fill: #F8766D;fill-opacity: 0.20;" />
<polyline points="65.27,46.24 68.00,46.24 70.74,46.24 73.48,46.24 76.21,46.24 78.95,46.24 81.69,46.25 84.43,46.25 87.16,46.25 89.90,46.25 92.64,46.25 95.37,46.26 98.11,46.26 100.85,46.26 103.58,46.27 106.32,46.27 109.06,46.28 111.79,46.29 114.53,46.30 117.27,46.31 120.01,46.32 122.74,46.34 125.48,46.35 128.22,46.38 130.95,46.40 133.69,46.43 136.43,46.47 139.16,46.51 141.90,46.56 144.64,46.62 147.38,46.69 150.11,46.78 152.85,46.88 155.59,47.00 158.32,47.14 161.06,47.31 163.80,47.51 166.53,47.74 169.27,48.02 172.01,48.35 174.74,48.74 177.48,49.21 180.22,49.75 182.96,50.40 185.69,51.17 188.43,52.07 191.17,53.14 193.90,54.41 196.64,55.89 199.38,57.64 202.11,59.70 204.85,62.11 207.59,64.93 210.32,68.24 213.06,72.11 215.80,76.61 218.54,81.84 221.27,87.88 224.01,94.82 226.75,102.77 229.48,111.74 232.22,121.94 234.96,133.36 237.69,146.04 240.43,159.96 243.17,175.12 245.91,191.26 248.64,208.03 251.38,225.26 254.12,242.82 256.85,260.76 259.59,278.81 262.33,296.81 265.06,314.54 267.80,331.83 270.54,348.49 273.27,364.33 276.01,379.31 278.75,393.29 281.49,406.16 284.22,417.95 286.96,428.68 289.70,438.35 292.43,447.06 295.17,454.78 297.91,461.64 300.64,467.69 303.38,473.01 306.12,477.67 308.86,481.73 311.59,485.26 314.33,488.33 317.07,490.99 319.80,493.29 322.54,495.28 325.28,497.00 328.01,498.48 330.75,499.75 333.49,500.84 336.22,501.79 338.96,502.59 341.70,503.29 344.44,503.88 347.17,504.39 349.91,504.83 352.65,505.21 355.38,505.53 358.12,505.81 360.86,506.04 363.59,506.24 366.33,506.42 369.07,506.56 371.80,506.69 374.54,506.80 377.28,506.89 380.02,506.97 382.75,507.04 385.49,507.10 388.23,507.15 390.96,507.19 393.70,507.23 396.44,507.26 399.17,507.29 401.91,507.31 404.65,507.33 407.39,507.34 410.12,507.36 412.86,507.37 415.60,507.38 418.33,507.39 421.07,507.40 423.81,507.40 426.54,507.41 429.28,507.42 432.02,507.42 434.75,507.42 437.49,507.43 440.23,507.43 442.97,507.43 445.70,507.43 448.44,507.43 451.18,507.44 453.91,507.44 456.65,507.44 459.39,507.44 462.12,507.44 464.86,507.44 467.60,507.44 470.34,507.44 473.07,507.44 475.81,507.44 478.55,507.44 481.28,507.44 484.02,507.44 486.76,507.44 489.49,507.44 492.23,507.44 494.97,507.44 497.70,507.44 500.44,507.44 503.18,507.44 505.92,507.44 508.65,507.44 511.39,507.44 514.13,507.44 516.86,507.44 519.60,507.44 522.34,507.44 525.07,507.44 527.81,507.44 530.55,507.44 533.28,507.44 536.02,507.44 538.76,507.44 541.50,507.44 544.23,507.44 546.97,507.44 549.71,507.44 552.44,507.44 555.18,507.44 557.92,507.44 560.65,507.44 563.39,507.44 566.13,507.44 568.87,507.44 571.60,507.44 574.34,507.44 577.08,507.44 579.81,507.44 582.55,507.44 585.29,507.44 588.02,507.44 590.76,507.44 593.50,507.44 596.23,507.44 598.97,507.44 601.71,507.44 604.45,507.44 607.18,507.44 609.92,507.44" style="stroke-width: 1.07;stroke: none;stroke-linecap: butt;"/>
<polyline points="609.92,507.44 607.18,507.44 604.45,507.44 601.71,507.44 598.97,507.44 596.23,507.44 593.50,507.44 590.76,507.44 588.02,507.44 585.29,507.44 582.55,507.44 579.81,507.44 577.08,507.44 574.34,507.44 571.60,507.44 568.87,507.44 566.13,507.44 563.39,507.44 560.65,507.44 557.92,507.44 555.18,507.44 552.44,507.44 549.71,507.44 546.97,507.44 544.23,507.44 541.50,507.44 538.76,507.44 536.02,507.44 533.28,507.44 530.55,507.44 527.81,507.44 525.07,507.44 522.34,507.44 519.60,507.44 516.86,507.44 514.13,507.44 511.39,507.44 508.65,507.44 505.92,507.44 503.18,507.44 500.44,507.44 497.70,507.44 494.97,507.44 492.23,507.44 489.49,507.44 486.76,507.44 484.02,507.44 481.28,507.44 478.55,507.44 475.81,507.44 473.07,507.44 470.34,507.44 467.60,507.44 464.86,507.44 462.12,507.44 459.39,507.44 456.65,507.44 453.91,507.44 451.18,507.44 448.44,507.44 445.70,507.44 442.97,507.44 440.23,507.44 437.49,507.44 434.75,507.44 432.02,507.43 429.28,507.43 426.54,507.43 423.81,507.43 421.07,507.43 418.33,507.42 415.60,507.42 412.86,507.41 410.12,507.41 407.39,507.40 404.65,507.39 401.91,507.38 399.17,507.37 396.44,507.36 393.70,507.34 390.96,507.33 388.23,507.30 385.49,507.28 382.75,507.25 380.02,507.21 377.28,507.17 374.54,507.12 371.80,507.06 369.07,506.98 366.33,506.90 363.59,506.80 360.86,506.68 358.12,506.53 355.38,506.37 352.65,506.17 349.91,505.93 347.17,505.65 344.44,505.31 341.70,504.92 338.96,504.45 336.22,503.90 333.49,503.25 330.75,502.48 328.01,501.57 325.28,500.49 322.54,499.21 319.80,497.71 317.07,495.94 314.33,493.87 311.59,491.44 308.86,488.58 306.12,485.24 303.38,481.34 300.64,476.80 297.91,471.53 295.17,465.46 292.43,458.46 289.70,450.47 286.96,441.40 284.22,431.13 281.49,419.65 278.75,406.87 276.01,392.82 273.27,377.49 270.54,361.00 267.80,343.43 265.06,324.96 262.33,305.84 259.59,286.35 256.85,266.70 254.12,247.21 251.38,228.25 248.64,210.22 245.91,193.49 243.17,178.02 240.43,163.76 237.69,150.61 234.96,138.50 232.22,127.51 229.48,117.57 226.75,108.61 224.01,100.66 221.27,93.60 218.54,87.38 215.80,81.90 213.06,77.09 210.32,72.88 207.59,69.23 204.85,66.06 202.11,63.30 199.38,60.92 196.64,58.85 193.90,57.07 191.17,55.54 188.43,54.21 185.69,53.08 182.96,52.10 180.22,51.26 177.48,50.54 174.74,49.93 172.01,49.40 169.27,48.94 166.53,48.55 163.80,48.22 161.06,47.94 158.32,47.69 155.59,47.48 152.85,47.30 150.11,47.15 147.38,47.02 144.64,46.90 141.90,46.81 139.16,46.73 136.43,46.66 133.69,46.60 130.95,46.54 128.22,46.50 125.48,46.46 122.74,46.43 120.01,46.40 117.27,46.38 114.53,46.36 111.79,46.34 109.06,46.33 106.32,46.31 103.58,46.30 100.85,46.29 98.11,46.28 95.37,46.28 92.64,46.27 89.90,46.27 87.16,46.26 84.43,46.26 81.69,46.26 78.95,46.25 76.21,46.25 73.48,46.25 70.74,46.25 68.00,46.25 65.27,46.24" style="stroke-width: 1.07;stroke: none;stroke-linecap: butt;"/>
<polygon points="65.27,46.24 68.00,46.24 70.74,46.24 73.48,46.24 76.21,46.24 78.95,46.24 81.69,46.24 84.43,46.24 87.16,46.24 89.90,46.24 92.64,46.24 95.37,46.24 98.11,46.24 100.85,46.24 103.58,46.24 106.32,46.24 109.06,46.24 111.79,46.24 114.53,46.24 117.27,46.24 120.01,46.24 122.74,46.24 125.48,46.24 128.22,46.24 130.95,46.24 133.69,46.24 136.43,46.24 139.16,46.24 141.90,46.24 144.64,46.24 147.38,46.24 150.11,46.24 152.85,46.24 155.59,46.24 158.32,46.24 161.06,46.24 163.80,46.24 166.53,46.24 169.27,46.24 172.01,46.24 174.74,46.24 177.48,46.25 180.22,46.25 182.96,46.25 185.69,46.26 188.43,46.27 191.17,46.29 193.90,46.32 196.64,46.35 199.38,46.41 202.11,46.49 204.85,46.61 207.59,46.79 210.32,47.05 213.06,47.44 215.80,48.01 218.54,48.85 221.27,50.09 224.01,51.90 226.75,54.55 229.48,58.43 232.22,64.02 234.96,72.11 237.69,83.20 240.43,97.58 243.17,115.17 245.91,135.51 248.64,157.73 251.38,180.78 254.12,203.35 256.85,224.46 259.59,243.56 262.33,263.22 265.06,283.21 267.80,303.03 270.54,322.47 273.27,341.25 276.01,359.20 278.75,376.09 281.49,391.73 284.22,406.04 286.96,419.03 289.70,430.72 292.43,441.13 295.17,450.35 297.91,458.44 300.64,465.51 303.38,471.65 306.12,476.95 308.86,481.52 311.59,485.44 314.33,488.79 317.07,491.65 319.80,494.08 322.54,496.15 325.28,497.91 328.01,499.40 330.75,500.65 333.49,501.72 336.22,502.62 338.96,503.38 341.70,504.02 344.44,504.56 347.17,505.02 349.91,505.40 352.65,505.72 355.38,506.00 358.12,506.22 360.86,506.42 363.59,506.58 366.33,506.72 369.07,506.83 371.80,506.93 374.54,507.01 377.28,507.08 380.02,507.14 382.75,507.19 385.49,507.23 388.23,507.26 390.96,507.29 393.70,507.31 396.44,507.33 399.17,507.35 401.91,507.37 404.65,507.38 407.39,507.39 410.12,507.40 412.86,507.41 415.60,507.41 418.33,507.42 421.07,507.42 423.81,507.42 426.54,507.43 429.28,507.43 432.02,507.43 434.75,507.43 437.49,507.44 440.23,507.44 442.97,507.44 445.70,507.44 448.44,507.44 451.18,507.44 453.91,507.44 456.65,507.44 459.39,507.44 462.12,507.44 464.86,507.44 467.60,507.44 470.34,507.44 473.07,507.44 475.81,507.44 478.55,507.44 481.28,507.44 484.02,507.44 486.76,507.44 489.49,507.44 492.23,507.44 494.97,507.44 497.70,507.44 500.44,507.44 503.18,507.44 505.92,507.44 508.65,507.44 511.39,507.44 514.13,507.44 516.86,507.44 519.60,507.44 522.34,507.44 525.07,507.44 527.81,507.44 530.55,507.44 533.28,507.44 536.02,507.44 538.76,507.44 541.50,507.44 544.23,507.44 546.97,507.44 549.71,507.44 552.44,507.44 555.18,507.44 557.92,507.44 560.65,507.44 563.39,507.44 566.13,507.44 568.87,507.44 571.60,507.44 574.34,507.44 577.08,507.44 579.81,507.44 582.55,507.44 585.29,507.44 588.02,507.44 590.76,507.44 593.50,507.44 596.23,507.44 598.97,507.44 601.71,507.44 604.45,507.44 607.18,507.44 609.92,507.44 609.92,507.44 607.18,507.44 604.45,507.44 601.71,507.44 598.97,507.44 596.23,507.44 593.50,507.44 590.76,507.44 588.02,507.44 585.29,507.44 582.55,507.44 579.81,507.44 577.08,507.44 574.34,507.44 571.60,507.44 568.87,507.44 566.13,507.44 563.39,507.44 560.65,507.44 557.92,507.44 555.18,507.44 552.44,507.44 549.71,507.44 546.97,507.44 544.23,507.44 541.50,507.44 538.76,507.44 536.02,507.44 533.28,507.44 530.55,507.44 527.81,507.44 525.07,507.44 522.34,507.44 519.60,507.44 516.86,507.44 514.13,507.44 511.39,507.44 508.65,507.44 505.92,507.44 503.18,507.44 500.44,507.44 497.70,507.44 494.97,507.44 492.23,507.44 489.49,507.44 486.76,507.44 484.02,507.44 481.28,507.44 478.55,507.44 475.81,507.44 473.07,507.44 470.34,507.44 467.60,507.44 464.86,507.44 462.12,507.44 459.39,507.44 456.65,507.44 453.91,507.44 451.18,507.44 448.44,507.44 445.70,507.44 442.97,507.44 440.23,507.44 437.49,507.44 434.75,507.44 432.02,507.44 429.28,507.44 426.54,507.44 423.81,507.44 421.07,507.44 418.33,507.44 415.60,507.44 412.86,507.44 410.12,507.44 407.39,507.44 404.65,507.44 401.91,507.44 399.17,507.44 396.44,507.44 393.70,507.44 390.96,507.44 388.23,507.44 385.49,507.44 382.75,507.44 380.02,507.44 377.28,507.44 374.54,507.44 371.80,507.44 369.07,507.44 366.33,507.44 363.59,507.44 360.86,507.44 358.12,507.44 355.38,507.44 352.65,507.44 349.91,507.44 347.17,507.44 344.44,507.44 341.70,507.44 338.96,507.44 336.22,507.44 333.49,507.44 330.75,507.43 328.01,507.43 325.28,507.42 322.54,507.41 319.80,507.40 317.07,507.38 314.33,507.35 311.59,507.30 308.86,507.24 306.12,507.14 303.38,506.99 300.64,506.78 297.91,506.46 295.17,505.99 292.43,505.30 289.70,504.29 286.96,502.79 284.22,500.61 281.49,497.41 278.75,492.78 276.01,486.10 273.27,476.59 270.54,463.28 267.80,445.10 265.06,420.97 262.33,390.06 259.59,352.70 256.85,310.39 254.12,265.62 251.38,221.69 248.64,183.59 245.91,158.30 243.17,142.63 240.43,130.08 237.69,118.84 234.96,108.88 232.22,100.09 229.48,92.39 226.75,85.69 224.01,79.88 221.27,74.87 218.54,70.56 215.80,66.87 213.06,63.71 210.32,61.03 207.59,58.74 204.85,56.80 202.11,55.16 199.38,53.76 196.64,52.58 193.90,51.59 191.17,50.75 188.43,50.04 185.69,49.44 182.96,48.93 180.22,48.51 177.48,48.15 174.74,47.84 172.01,47.59 169.27,47.38 166.53,47.20 163.80,47.04 161.06,46.92 158.32,46.81 155.59,46.72 152.85,46.64 150.11,46.58 147.38,46.52 144.64,46.48 141.90,46.44 139.16,46.41 136.43,46.38 133.69,46.36 130.95,46.34 128.22,46.32 125.48,46.31 122.74,46.30 120.01,46.29 117.27,46.28 114.53,46.27 111.79,46.27 109.06,46.26 106.32,46.26 103.58,46.26 100.85,46.25 98.11,46.25 95.37,46.25 92.64,46.25 89.90,46.25 87.16,46.24 84.43,46.24 81.69,46.24 78.95,46.24 76.21,46.24 73.48,46.24 70.74,46.24 68.00,46.24 65.27,46.24" style="stroke-width: 0.00;stroke: none;stroke-linecap: butt;fill: #7CAE00;fill-opacity: 0.20;" />
<polyline points="65.27,46.24 68.00,46.24 70.74,46.24 73.48,46.24 76.21,46.24 78.95,46.24 81.69,46.24 84.43,46.24 87.16,46.24 89.90,46.24 92.64,46.24 95.37,46.24 98.11,46.24 100.85,46.24 103.58,46.24 106.32,46.24 109.06,46.24 111.79,46.24 114.53,46.24 117.27,46.24 120.01,46.24 122.74,46.24 125.48,46.24 128.22,46.24 130.95,46.24 133.69,46.24 136.43,46.24 139.16,46.24 141.90,46.24 144.64,46.24 147.38,46.24 150.11,46.24 152.85,46.24 155.59,46.24 158.32,46.24 161.06,46.24 163.80,46.24 166.53,46.24 169.27,46.24 172.01,46.24 174.74,46.24 177.48,46.25 180.22,46.25 182.96,46.25 185.69,46.26 188.43,46.27 191.17,46.29 193.90,46.32 196.64,46.35 199.38,46.41 202.11,46.49 204.85,46.61 207.59,46.79 210.32,47.05 213.06,47.44 215.80,48.01 218.54,48.85 221.27,50.09 224.01,51.90 226.75,54.55 229.48,58.43 232.22,64.02 234.96,72.11 237.69,83.20 240.43,97.58 243.17,115.17 245.91,135.51 248.64,157.73 251.38,180.78 254.12,203.35 256.85,224.46 259.59,243.56 262.33,263.22 265.06,283.21 267.80,303.03 270.54,322.47 273.27,341.25 276.01,359.20 278.75,376.09 281.49,391.73 284.22,406.04 286.96,419.03 289.70,430.72 292.43,441.13 295.17,450.35 297.91,458.44 300.64,465.51 303.38,471.65 306.12,476.95 308.86,481.52 311.59,485.44 314.33,488.79 317.07,491.65 319.80,494.08 322.54,496.15 325.28,497.91 328.01,499.40 330.75,500.65 333.49,501.72 336.22,502.62 338.96,503.38 341.70,504.02 344.44,504.56 347.17,505.02 349.91,505.40 352.65,505.72 355.38,506.00 358.12,506.22 360.86,506.42 363.59,506.58 366.33,506.72 369.07,506.83 371.80,506.93 374.54,507.01 377.28,507.08 380.02,507.14 382.75,507.19 385.49,507.23 388.23,507.26 390.96,507.29 393.70,507.31 396.44,507.33 399.17,507.35 401.91,507.37 404.65,507.38 407.39,507.39 410.12,507.40 412.86,507.41 415.60,507.41 418.33,507.42 421.07,507.42 423.81,507.42 426.54,507.43 429.28,507.43 432.02,507.43 434.75,507.43 437.49,507.44 440.23,507.44 442.97,507.44 445.70,507.44 448.44,507.44 451.18,507.44 453.91,507.44 456.65,507.44 459.39,507.44 462.12,507.44 464.86,507.44 467.60,507.44 470.34,507.44 473.07,507.44 475.81,507.44 478.55,507.44 481.28,507.44 484.02,507.44 486.76,507.44 489.49,507.44 492.23,507.44 494.97,507.44 497.70,507.44 500.44,507.44 503.18,507.44 505.92,507.44 508.65,507.44 511.39,507.44 514.13,507.44 516.86,507.44 519.60,507.44 522.34,507.44 525.07,507.44 527.81,507.44 530.55,507.44 533.28,507.44 536.02,507.44 538.76,507.44 541.50,507.44 544.23,507.44 546.97,507.44 549.71,507.44 552.44,507.44 555.18,507.44 557.92,507.44 560.65,507.44 563.39,507.44 566.13,507.44 568.87,507.44 571.60,507.44 574.34,507.44 577.08,507.44 579.81,507.44 582.55,507.44 585.29,507.44 588.02,507.44 590.76,507.44 593.50,507.44 596.23,507.44 598.97,507.44 601.71,507.44 604.45,507.44 607.18,507.44 609.92,507.44" style="stroke-width: 1.07;stroke: none;stroke-linecap: butt;"/>
<polyline points="609.92,507.44 607.18,507.44 604.45,507.44 601.71,507.44 598.97,507.44 596.23,507.44 593.50,507.44 590.76,507.44 588.02,507.44 585.29,507.44 582.55,507.44 579.81,507.44 577.08,507.44 574.34,507.44 571.60,507.44 568.87,507.44 566.13,507.44 563.39,507.44 560.65,507.44 557.92,507.44 555.18,507.44 552.44,507.44 549.71,507.44 546.97,507.44 544.23,507.44 541.50,507.44 538.76,507.44 536.02,507.44 533.28,507.44 530.55,507.44 527.81,507.44 525.07,507.44 522.34,507.44 519.60,507.44 516.86,507.44 514.13,507.44 511.39,507.44 508.65,507.44 505.92,507.44 503.18,507.44 500.44,507.44 497.70,507.44 494.97,507.44 492.23,507.44 489.49,507.44 486.76,507.44 484.02,507.44 481.28,507.44 478.55,507.44 475.81,507.44 473.07,507.44 470.34,507.44 467.60,507.44 464.86,507.44 462.12,507.44 459.39,507.44 456.65,507.44 453.91,507.44 451.18,507.44 448.44,507.44 445.70,507.44 442.97,507.44 440.23,507.44 437.49,507.44 434.75,507.44 432.02,507.44 429.28,507.44 426.54,507.44 423.81,507.44 421.07,507.44 418.33,507.44 415.60,507.44 412.86,507.44 410.12,507.44 407.39,507.44 404.65,507.44 401.91,507.44 399.17,507.44 396.44,507.44 393.70,507.44 390.96,507.44 388.23,507.44 385.49,507.44 382.75,507.44 380.02,507.44 377.28,507.44 374.54,507.44 371.80,507.44 369.07,507.44 366.33,507.44 363.59,507.44 360.86,507.44 358.12,507.44 355.38,507.44 352.65,507.44 349.91,507.44 347.17,507.44 344.44,507.44 341.70,507.44 338.96,507.44 336.22,507.44 333.49,507.44 330.75,507.43 328.01,507.43 325.28,507.42 322.54,507.41 319.80,507.40 317.07,507.38 314.33,507.35 311.59,507.30 308.86,507.24 306.12,507.14 303.38,506.99 300.64,506.78 297.91,506.46 295.17,505.99 292.43,505.30 289.70,504.29 286.96,502.79 284.22,500.61 281.49,497.41 278.75,492.78 276.01,486.10 273.27,476.59 270.54,463.28 267.80,445.10 265.06,420.97 262.33,390.06 259.59,352.70 256.85,310.39 254.12,265.62 251.38,221.69 248.64,183.59 245.91,158.30 243.17,142.63 240.43,130.08 237.69,118.84 234.96,108.88 232.22,100.09 229.48,92.39 226.75,85.69 224.01,79.88 221.27,74.87 218.54,70.56 215.80,66.87 213.06,63.71 210.32,61.03 207.59,58.74 204.85,56.80 202.11,55.16 199.38,53.76 196.64,52.58 193.90,51.59 191.17,50.75 188.43,50.04 185.69,49.44 182.96,48.93 180.22,48.51 177.48,48.15 174.74,47.84 172.01,47.59 169.27,47.38 166.53,47.20 163.80,47.04 161.06,46.92 158.32,46.81 155.59,46.72 152.85,46.64 150.11,46.58 147.38,46.52 144.64,46.48 141.90,46.44 139.16,46.41 136.43,46.38 133.69,46.36 130.95,46.34 128.22,46.32 125.48,46.31 122.74,46.30 120.01,46.29 117.27,46.28 114.53,46.27 111.79,46.27 109.06,46.26 106.32,46.26 103.58,46.26 100.85,46.25 98.11,46.25 95.37,46.25 92.64,46.25 89.90,46.25 87.16,46.24 84.43,46.24 81.69,46.24 78.95,46.24 76.21,46.24 73.48,46.24 70.74,46.24 68.00,46.24 65.27,46.24" style="stroke-width: 1.07;stroke: none;stroke-linecap: butt;"/>
<polygon points="65.27,46.24 68.00,46.24 70.74,46.24 73.48,46.24 76.21,46.24 78.95,46.24 81.69,46.24 84.43,46.24 87.16,46.24 89.90,46.24 92.64,46.24 95.37,46.24 98.11,46.24 100.85,46.24 103.58,46.24 106.32,46.24 109.06,46.24 111.79,46.24 114.53,46.24 117.27,46.24 120.01,46.24 122.74,46.24 125.48,46.24 128.22,46.24 130.95,46.24 133.69,46.24 136.43,46.24 139.16,46.24 141.90,46.24 144.64,46.24 147.38,46.24 150.11,46.24 152.85,46.24 155.59,46.24 158.32,46.24 161.06,46.24 163.80,46.24 166.53,46.25 169.27,46.25 172.01,46.26 174.74,46.27 177.48,46.28 180.22,46.29 182.96,46.32 185.69,46.35 188.43,46.39 191.17,46.45 193.90,46.54 196.64,46.66 199.38,46.83 202.11,47.07 204.85,47.40 207.59,47.87 210.32,48.52 213.06,49.44 215.80,50.71 218.54,52.49 221.27,54.97 224.01,58.40 226.75,63.12 229.48,69.59 232.22,78.34 234.96,90.06 237.69,105.47 240.43,125.30 243.17,150.06 245.91,179.18 248.64,208.18 251.38,234.67 254.12,261.41 256.85,288.62 259.59,315.53 262.33,341.36 265.06,365.55 267.80,387.64 270.54,407.38 273.27,424.65 276.01,439.50 278.75,452.08 281.49,462.59 284.22,471.29 286.96,478.41 289.70,484.21 292.43,488.90 295.17,492.68 297.91,495.70 300.64,498.12 303.38,500.05 306.12,501.59 308.86,502.81 311.59,503.77 314.33,504.54 317.07,505.15 319.80,505.63 322.54,506.01 325.28,506.31 328.01,506.55 330.75,506.74 333.49,506.89 336.22,507.00 338.96,507.10 341.70,507.17 344.44,507.23 347.17,507.27 349.91,507.31 352.65,507.34 355.38,507.36 358.12,507.38 360.86,507.39 363.59,507.40 366.33,507.41 369.07,507.42 371.80,507.42 374.54,507.43 377.28,507.43 380.02,507.43 382.75,507.44 385.49,507.44 388.23,507.44 390.96,507.44 393.70,507.44 396.44,507.44 399.17,507.44 401.91,507.44 404.65,507.44 407.39,507.44 410.12,507.44 412.86,507.44 415.60,507.44 418.33,507.44 421.07,507.44 423.81,507.44 426.54,507.44 429.28,507.44 432.02,507.44 434.75,507.44 437.49,507.44 440.23,507.44 442.97,507.44 445.70,507.44 448.44,507.44 451.18,507.44 453.91,507.44 456.65,507.44 459.39,507.44 462.12,507.44 464.86,507.44 467.60,507.44 470.34,507.44 473.07,507.44 475.81,507.44 478.55,507.44 481.28,507.44 484.02,507.44 486.76,507.44 489.49,507.44 492.23,507.44 494.97,507.44 497.70,507.44 500.44,507.44 503.18,507.44 505.92,507.44 508.65,507.44 511.39,507.44 514.13,507.44 516.86,507.44 519.60,507.44 522.34,507.44 525.07,507.44 527.81,507.44 530.55,507.44 533.28,507.44 536.02,507.44 538.76,507.44 541.50,507.44 544.23,507.44 546.97,507.44 549.71,507.44 552.44,507.44 555.18,507.44 557.92,507.44 560.65,507.44 563.39,507.44 566.13,507.44 568.87,507.44 571.60,507.44 574.34,507.44 577.08,507.44 579.81,507.44 582.55,507.44 585.29,507.44 588.02,507.44 590.76,507.44 593.50,507.44 596.23,507.44 598.97,507.44 601.71,507.44 604.45,507.44 607.18,507.44 609.92,507.44 609.92,507.44 607.18,507.44 604.45,507.44 601.71,507.44 598.97,507.44 596.23,507.44 593.50,507.44 590.76,507.44 588.02,507.44 585.29,507.44 582.55,507.44 579.81,507.44 577.08,507.44 574.34,507.44 571.60,507.44 568.87,507.44 566.13,507.44 563.39,507.44 560.65,507.44 557.92,507.44 555.18,507.44 552.44,507.44 549.71,507.44 546.97,507.44 544.23,507.44 541.50,507.44 538.76,507.44 536.02,507.44 533.28,507.44 530.55,507.44 527.81,507.44 525.07,507.44 522.34,507.44 519.60,507.44 516.86,507.44 514.13,507.44 511.39,507.44 508.65,507.44 505.92,507.44 503.18,507.44 500.44,507.44 497.70,507.44 494.97,507.44 492.23,507.44 489.49,507.44 486.76,507.44 484.02,507.44 481.28,507.44 478.55,507.44 475.81,507.44 473.07,507.44 470.34,507.44 467.60,507.44 464.86,507.44 462.12,507.44 459.39,507.44 456.65,507.44 453.91,507.44 451.18,507.44 448.44,507.44 445.70,507.44 442.97,507.44 440.23,507.44 437.49,507.44 434.75,507.44 432.02,507.44 429.28,507.44 426.54,507.44 423.81,507.44 421.07,507.44 418.33,507.44 415.60,507.44 412.86,507.44 410.12,507.44 407.39,507.44 404.65,507.44 401.91,507.44 399.17,507.44 396.44,507.44 393.70,507.44 390.96,507.44 388.23,507.44 385.49,507.44 382.75,507.44 380.02,507.44 377.28,507.44 374.54,507.44 371.80,507.44 369.07,507.44 366.33,507.44 363.59,507.44 360.86,507.44 358.12,507.44 355.38,507.44 352.65,507.44 349.91,507.44 347.17,507.44 344.44,507.44 341.70,507.44 338.96,507.43 336.22,507.43 333.49,507.42 330.75,507.41 328.01,507.40 325.28,507.38 322.54,507.36 319.80,507.32 317.07,507.27 314.33,507.21 311.59,507.11 308.86,506.98 306.12,506.79 303.38,506.52 300.64,506.16 297.91,505.64 295.17,504.91 292.43,503.90 289.70,502.49 286.96,500.52 284.22,497.79 281.49,494.01 278.75,488.81 276.01,481.71 273.27,472.13 270.54,459.37 267.80,442.71 265.06,421.48 262.33,395.25 259.59,364.09 256.85,328.70 254.12,290.53 251.38,251.60 248.64,214.06 245.91,185.10 243.17,163.30 240.43,143.89 237.69,126.92 234.96,112.37 232.22,100.10 229.48,89.85 226.75,81.37 224.01,74.43 221.27,68.79 218.54,64.23 215.80,60.57 213.06,57.63 210.32,55.28 207.59,53.41 204.85,51.92 202.11,50.73 199.38,49.79 196.64,49.05 193.90,48.46 191.17,48.00 188.43,47.63 185.69,47.34 182.96,47.11 180.22,46.92 177.48,46.78 174.74,46.67 172.01,46.58 169.27,46.50 166.53,46.45 163.80,46.40 161.06,46.37 158.32,46.34 155.59,46.32 152.85,46.30 150.11,46.29 147.38,46.28 144.64,46.27 141.90,46.26 139.16,46.26 136.43,46.25 133.69,46.25 130.95,46.25 128.22,46.25 125.48,46.24 122.74,46.24 120.01,46.24 117.27,46.24 114.53,46.24 111.79,46.24 109.06,46.24 106.32,46.24 103.58,46.24 100.85,46.24 98.11,46.24 95.37,46.24 92.64,46.24 89.90,46.24 87.16,46.24 84.43,46.24 81.69,46.24 78.95,46.24 76.21,46.24 73.48,46.24 70.74,46.24 68.00,46.24 65.27,46.24" style="stroke-width: 0.00;stroke: none;stroke-linecap: butt;fill: #00BFC4;fill-opacity: 0.20;" />
<polyline points="65.27,46.24 68.00,46.24 70.74,46.24 73.48,46.24 76.21,46.24 78.95,46.24 81.69,46.24 84.43,46.24 87.16,46.24 89.90,46.24 92.64,46.24 95.37,46.24 98.11,46.24 100.85,46.24 103.58,46.24 106.32,46.24 109.06,46.24 111.79,46.24 114.53,46.24 117.27,46.24 120.01,46.24 122.74,46.24 125.48,46.24 128.22,46.24 130.95,46.24 133.69,46.24 136.43,46.24 139.16,46.24 141.90,46.24 144.64,46.24 147.38,46.24 150.11,46.24 152.85,46.24 155.59,46.24 158.32,46.24 161.06,46.24 163.80,46.24 166.53,46.25 169.27,46.25 172.01,46.26 174.74,46.27 177.48,46.28 180.22,46.29 182.96,46.32 185.69,46.35 188.43,46.39 191.17,46.45 193.90,46.54 196.64,46.66 199.38,46.83 202.11,47.07 204.85,47.40 207.59,47.87 210.32,48.52 213.06,49.44 215.80,50.71 218.54,52.49 221.27,54.97 224.01,58.40 226.75,63.12 229.48,69.59 232.22,78.34 234.96,90.06 237.69,105.47 240.43,125.30 243.17,150.06 245.91,179.18 248.64,208.18 251.38,234.67 254.12,261.41 256.85,288.62 259.59,315.53 262.33,341.36 265.06,365.55 267.80,387.64 270.54,407.38 273.27,424.65 276.01,439.50 278.75,452.08 281.49,462.59 284.22,471.29 286.96,478.41 289.70,484.21 292.43,488.90 295.17,492.68 297.91,495.70 300.64,498.12 303.38,500.05 306.12,501.59 308.86,502.81 311.59,503.77 314.33,504.54 317.07,505.15 319.80,505.63 322.54,506.01 325.28,506.31 328.01,506.55 330.75,506.74 333.49,506.89 336.22,507.00 338.96,507.10 341.70,507.17 344.44,507.23 347.17,507.27 349.91,507.31 352.65,507.34 355.38,507.36 358.12,507.38 360.86,507.39 363.59,507.40 366.33,507.41 369.07,507.42 371.80,507.42 374.54,507.43 377.28,507.43 380.02,507.43 382.75,507.44 385.49,507.44 388.23,507.44 390.96,507.44 393.70,507.44 396.44,507.44 399.17,507.44 401.91,507.44 404.65,507.44 407.39,507.44 410.12,507.44 412.86,507.44 415.60,507.44 418.33,507.44 421.07,507.44 423.81,507.44 426.54,507.44 429.28,507.44 432.02,507.44 434.75,507.44 437.49,507.44 440.23,507.44 442.97,507.44 445.70,507.44 448.44,507.44 451.18,507.44 453.91,507.44 456.65,507.44 459.39,507.44 462.12,507.44 464.86,507.44 467.60,507.44 470.34,507.44 473.07,507.44 475.81,507.44 478.55,507.44 481.28,507.44 484.02,507.44 486.76,507.44 489.49,507.44 492.23,507.44 494.97,507.44 497.70,507.44 500.44,507.44 503.18,507.44 505.92,507.44 508.65,507.44 511.39,507.44 514.13,507.44 516.86,507.44 519.60,507.44 522.34,507.44 525.07,507.44 527.81,507.44 530.55,507.44 533.28,507.44 536.02,507.44 538.76,507.44 541.50,507.44 544.23,507.44 546.97,507.44 549.71,507.44 552.44,507.44 555.18,507.44 557.92,507.44 560.65,507.44 563.39,507.44 566.13,507.44 568.87,507.44 571.60,507.44 574.34,507.44 577.08,507.44 579.81,507.44 582.55,507.44 585.29,507.44 588.02,507.44 590.76,507.44 593.50,507.44 596.23,507.44 598.97,507.44 601.71,507.44 604.45,507.44 607.18,507.44 609.92,507.44" style="stroke-width: 1.07;stroke: none;stroke-linecap: butt;"/>
<polyline points="609.92,507.44 607.18,507.44 604.45,507.44 601.71,507.44 598.97,507.44 596.23,507.44 593.50,507.44 590.76,507.44 588.02,507.44 585.29,507.44 582.55,507.44 579.81,507.44 577.08,507.44 574.34,507.44 571.60,507.44 568.87,507.44 566.13,507.44 563.39,507.44 560.65,507.44 557.92,507.44 555.18,507.44 552.44,507.44 549.71,507.44 546.97,507.44 544.23,507.44 541.50,507.44 538.76,507.44 536.02,507.44 533.28,507.44 530.55,507.44 527.81,507.44 525.07,507.44 522.34,507.44 519.60,507.44 516.86,507.44 514.13,507.44 511.39,507.44 508.65,507.44 505.92,507.44 503.18,507.44 500.44,507.44 497.70,507.44 494.97,507.44 492.23,507.44 489.49,507.44 486.76,507.44 484.02,507.44 481.28,507.44 478.55,507.44 475.81,507.44 473.07,507.44 470.34,507.44 467.60,507.44 464.86,507.44 462.12,507.44 459.39,507.44 456.65,507.44 453.91,507.44 451.18,507.44 448.44,507.44 445.70,507.44 442.97,507.44 440.23,507.44 437.49,507.44 434.75,507.44 432.02,507.44 429.28,507.44 426.54,507.44 423.81,507.44 421.07,507.44 418.33,507.44 415.60,507.44 412.86,507.44 410.12,507.44 407.39,507.44 404.65,507.44 401.91,507.44 399.17,507.44 396.44,507.44 393.70,507.44 390.96,507.44 388.23,507.44 385.49,507.44 382.75,507.44 380.02,507.44 377.28,507.44 374.54,507.44 371.80,507.44 369.07,507.44 366.33,507.44 363.59,507.44 360.86,507.44 358.12,507.44 355.38,507.44 352.65,507.44 349.91,507.44 347.17,507.44 344.44,507.44 341.70,507.44 338.96,507.43 336.22,507.43 333.49,507.42 330.75,507.41 328.01,507.40 325.28,507.38 322.54,507.36 319.80,507.32 317.07,507.27 314.33,507.21 311.59,507.11 308.86,506.98 306.12,506.79 303.38,506.52 300.64,506.16 297.91,505.64 295.17,504.91 292.43,503.90 289.70,502.49 286.96,500.52 284.22,497.79 281.49,494.01 278.75,488.81 276.01,481.71 273.27,472.13 270.54,459.37 267.80,442.71 265.06,421.48 262.33,395.25 259.59,364.09 256.85,328.70 254.12,290.53 251.38,251.60 248.64,214.06 245.91,185.10 243.17,163.30 240.43,143.89 237.69,126.92 234.96,112.37 232.22,100.10 229.48,89.85 226.75,81.37 224.01,74.43 221.27,68.79 218.54,64.23 215.80,60.57 213.06,57.63 210.32,55.28 207.59,53.41 204.85,51.92 202.11,50.73 199.38,49.79 196.64,49.05 193.90,48.46 191.17,48.00 188.43,47.63 185.69,47.34 182.96,47.11 180.22,46.92 177.48,46.78 174.74,46.67 172.01,46.58 169.27,46.50 166.53,46.45 163.80,46.40 161.06,46.37 158.32,46.34 155.59,46.32 152.85,46.30 150.11,46.29 147.38,46.28 144.64,46.27 141.90,46.26 139.16,46.26 136.43,46.25 133.69,46.25 130.95,46.25 128.22,46.25 125.48,46.24 122.74,46.24 120.01,46.24 117.27,46.24 114.53,46.24 111.79,46.24 109.06,46.24 106.32,46.24 103.58,46.24 100.85,46.24 98.11,46.24 95.37,46.24 92.64,46.24 89.90,46.24 87.16,46.24 84.43,46.24 81.69,46.24 78.95,46.24 76.21,46.24 73.48,46.24 70.74,46.24 68.00,46.24 65.27,46.24" style="stroke-width: 1.07;stroke: none;stroke-linecap: butt;"/>
<polygon points="65.27,46.24 68.00,46.24 70.74,46.24 73.48,46.24 76.21,46.24 78.95,46.24 81.69,46.24 84.43,46.24 87.16,46.24 89.90,46.24 92.64,46.24 95.37,46.24 98.11,46.24 100.85,46.24 103.58,46.24 106.32,46.24 109.06,46.24 111.79,46.24 114.53,46.24 117.27,46.24 120.01,46.24 122.74,46.24 125.48,46.24 128.22,46.24 130.95,46.24 133.69,46.24 136.43,46.24 139.16,46.24 141.90,46.24 144.64,46.24 147.38,46.24 150.11,46.24 152.85,46.24 155.59,46.24 158.32,46.24 161.06,46.24 163.80,46.24 166.53,46.24 169.27,46.24 172.01,46.24 174.74,46.24 177.48,46.25 180.22,46.25 182.96,46.26 185.69,46.27 188.43,46.29 191.17,46.31 193.90,46.35 196.64,46.40 199.38,46.48 202.11,46.60 204.85,46.78 207.59,47.04 210.32,47.43 213.06,48.00 215.80,48.84 218.54,50.08 221.27,51.91 224.01,54.59 226.75,58.51 229.48,64.19 232.22,72.32 234.96,83.89 237.69,99.93 240.43,121.54 243.17,149.13 245.91,179.22 248.64,208.58 251.38,234.59 254.12,256.45 256.85,278.42 259.59,300.29 262.33,321.75 265.06,342.37 267.80,361.91 270.54,380.13 273.27,396.87 276.01,412.08 278.75,425.67 281.49,437.70 284.22,448.24 286.96,457.38 289.70,465.27 292.43,472.01 295.17,477.75 297.91,482.62 300.64,486.73 303.38,490.18 306.12,493.06 308.86,495.47 311.59,497.48 314.33,499.16 317.07,500.55 319.80,501.71 322.54,502.68 325.28,503.47 328.01,504.12 330.75,504.65 333.49,505.08 336.22,505.46 338.96,505.77 341.70,506.03 344.44,506.25 347.17,506.42 349.91,506.56 352.65,506.67 355.38,506.75 358.12,506.81 360.86,506.88 363.59,506.92 366.33,506.94 369.07,506.95 371.80,506.96 374.54,506.97 377.28,506.98 380.02,506.98 382.75,506.98 385.49,506.99 388.23,506.99 390.96,506.99 393.70,506.99 396.44,507.00 399.17,507.00 401.91,507.00 404.65,507.00 407.39,507.00 410.12,507.00 412.86,507.00 415.60,507.01 418.33,507.01 421.07,507.01 423.81,507.01 426.54,507.01 429.28,507.01 432.02,507.01 434.75,507.01 437.49,507.01 440.23,507.01 442.97,507.01 445.70,507.01 448.44,507.01 451.18,507.01 453.91,507.01 456.65,507.01 459.39,507.01 462.12,507.01 464.86,507.01 467.60,507.01 470.34,507.01 473.07,507.01 475.81,507.01 478.55,507.01 481.28,507.01 484.02,507.01 486.76,507.01 489.49,507.01 492.23,507.01 494.97,507.01 497.70,507.01 500.44,507.01 503.18,507.01 505.92,507.01 508.65,507.01 511.39,507.01 514.13,507.01 516.86,507.01 519.60,507.01 522.34,507.01 525.07,507.01 527.81,507.01 530.55,507.01 533.28,507.01 536.02,507.01 538.76,507.01 541.50,507.01 544.23,507.01 546.97,507.01 549.71,507.01 552.44,507.01 555.18,507.01 557.92,507.01 560.65,507.01 563.39,507.01 566.13,507.01 568.87,507.01 571.60,507.01 574.34,507.01 577.08,507.01 579.81,507.01 582.55,507.01 585.29,507.01 588.02,507.01 590.76,507.01 593.50,507.01 596.23,507.01 598.97,507.01 601.71,507.01 604.45,507.01 607.18,507.01 609.92,507.01 609.92,507.42 607.18,507.42 604.45,507.42 601.71,507.42 598.97,507.42 596.23,507.42 593.50,507.42 590.76,507.42 588.02,507.42 585.29,507.42 582.55,507.42 579.81,507.42 577.08,507.42 574.34,507.42 571.60,507.42 568.87,507.42 566.13,507.42 563.39,507.42 560.65,507.42 557.92,507.42 555.18,507.42 552.44,507.42 549.71,507.42 546.97,507.42 544.23,507.42 541.50,507.42 538.76,507.42 536.02,507.42 533.28,507.42 530.55,507.42 527.81,507.42 525.07,507.42 522.34,507.42 519.60,507.42 516.86,507.42 514.13,507.42 511.39,507.42 508.65,507.42 505.92,507.42 503.18,507.42 500.44,507.42 497.70,507.42 494.97,507.42 492.23,507.42 489.49,507.42 486.76,507.42 484.02,507.42 481.28,507.42 478.55,507.42 475.81,507.42 473.07,507.42 470.34,507.42 467.60,507.42 464.86,507.42 462.12,507.42 459.39,507.42 456.65,507.42 453.91,507.42 451.18,507.42 448.44,507.42 445.70,507.42 442.97,507.42 440.23,507.42 437.49,507.42 434.75,507.42 432.02,507.42 429.28,507.42 426.54,507.42 423.81,507.42 421.07,507.42 418.33,507.42 415.60,507.42 412.86,507.42 410.12,507.42 407.39,507.42 404.65,507.42 401.91,507.42 399.17,507.42 396.44,507.42 393.70,507.42 390.96,507.42 388.23,507.42 385.49,507.42 382.75,507.41 380.02,507.41 377.28,507.41 374.54,507.41 371.80,507.41 369.07,507.41 366.33,507.40 363.59,507.40 360.86,507.40 358.12,507.39 355.38,507.39 352.65,507.38 349.91,507.38 347.17,507.37 344.44,507.37 341.70,507.36 338.96,507.35 336.22,507.35 333.49,507.34 330.75,507.33 328.01,507.32 325.28,507.30 322.54,507.28 319.80,507.26 317.07,507.23 314.33,507.20 311.59,507.16 308.86,507.11 306.12,507.03 303.38,506.94 300.64,506.80 297.91,506.60 295.17,506.31 292.43,505.88 289.70,505.25 286.96,504.25 284.22,502.85 281.49,500.79 278.75,497.76 276.01,493.37 273.27,487.02 270.54,477.93 267.80,465.14 265.06,447.52 262.33,423.97 259.59,393.78 256.85,357.00 254.12,314.89 251.38,269.97 248.64,225.50 245.91,194.44 243.17,175.79 240.43,158.82 237.69,143.42 234.96,129.62 232.22,117.39 229.48,106.66 226.75,97.34 224.01,89.30 221.27,82.42 218.54,76.56 215.80,71.59 213.06,67.40 210.32,63.87 207.59,60.91 204.85,58.43 202.11,56.36 199.38,54.64 196.64,53.21 193.90,52.01 191.17,51.02 188.43,50.20 185.69,49.52 182.96,48.95 180.22,48.48 177.48,48.10 174.74,47.77 172.01,47.51 169.27,47.29 166.53,47.11 163.80,46.96 161.06,46.83 158.32,46.73 155.59,46.64 152.85,46.57 150.11,46.52 147.38,46.47 144.64,46.43 141.90,46.39 139.16,46.37 136.43,46.34 133.69,46.33 130.95,46.31 128.22,46.30 125.48,46.29 122.74,46.28 120.01,46.27 117.27,46.27 114.53,46.26 111.79,46.26 109.06,46.25 106.32,46.25 103.58,46.25 100.85,46.25 98.11,46.25 95.37,46.24 92.64,46.24 89.90,46.24 87.16,46.24 84.43,46.24 81.69,46.24 78.95,46.24 76.21,46.24 73.48,46.24 70.74,46.24 68.00,46.24 65.27,46.24" style="stroke-width: 0.00;stroke: none;stroke-linecap: butt;fill: #C77CFF;fill-opacity: 0.20;" />
<polyline points="65.27,46.24 68.00,46.24 70.74,46.24 73.48,46.24 76.21,46.24 78.95,46.24 81.69,46.24 84.43,46.24 87.16,46.24 89.90,46.24 92.64,46.24 95.37,46.24 98.11,46.24 100.85,46.24 103.58,46.24 106.32,46.24 109.06,46.24 111.79,46.24 114.53,46.24 117.27,46.24 120.01,46.24 122.74,46.24 125.48,46.24 128.22,46.24 130.95,46.24 133.69,46.24 136.43,46.24 139.16,46.24 141.90,46.24 144.64,46.24 147.38,46.24 150.11,46.24 152.85,46.24 155.59,46.24 158.32,46.24 161.06,46.24 163.80,46.24 166.53,46.24 169.27,46.24 172.01,46.24 174.74,46.24 177.48,46.25 180.22,46.25 182.96,46.26 185.69,46.27 188.43,46.29 191.17,46.31 193.90,46.35 196.64,46.40 199.38,46.48 202.11,46.60 204.85,46.78 207.59,47.04 210.32,47.43 213.06,48.00 215.80,48.84 218.54,50.08 221.27,51.91 224.01,54.59 226.75,58.51 229.48,64.19 232.22,72.32 234.96,83.89 237.69,99.93 240.43,121.54 243.17,149.13 245.91,179.22 248.64,208.58 251.38,234.59 254.12,256.45 256.85,278.42 259.59,300.29 262.33,321.75 265.06,342.37 267.80,361.91 270.54,380.13 273.27,396.87 276.01,412.08 278.75,425.67 281.49,437.70 284.22,448.24 286.96,457.38 289.70,465.27 292.43,472.01 295.17,477.75 297.91,482.62 300.64,486.73 303.38,490.18 306.12,493.06 308.86,495.47 311.59,497.48 314.33,499.16 317.07,500.55 319.80,501.71 322.54,502.68 325.28,503.47 328.01,504.12 330.75,504.65 333.49,505.08 336.22,505.46 338.96,505.77 341.70,506.03 344.44,506.25 347.17,506.42 349.91,506.56 352.65,506.67 355.38,506.75 358.12,506.81 360.86,506.88 363.59,506.92 366.33,506.94 369.07,506.95 371.80,506.96 374.54,506.97 377.28,506.98 380.02,506.98 382.75,506.98 385.49,506.99 388.23,506.99 390.96,506.99 393.70,506.99 396.44,507.00 399.17,507.00 401.91,507.00 404.65,507.00 407.39,507.00 410.12,507.00 412.86,507.00 415.60,507.01 418.33,507.01 421.07,507.01 423.81,507.01 426.54,507.01 429.28,507.01 432.02,507.01 434.75,507.01 437.49,507.01 440.23,507.01 442.97,507.01 445.70,507.01 448.44,507.01 451.18,507.01 453.91,507.01 456.65,507.01 459.39,507.01 462.12,507.01 464.86,507.01 467.60,507.01 470.34,507.01 473.07,507.01 475.81,507.01 478.55,507.01 481.28,507.01 484.02,507.01 486.76,507.01 489.49,507.01 492.23,507.01 494.97,507.01 497.70,507.01 500.44,507.01 503.18,507.01 505.92,507.01 508.65,507.01 511.39,507.01 514.13,507.01 516.86,507.01 519.60,507.01 522.34,507.01 525.07,507.01 527.81,507.01 530.55,507.01 533.28,507.01 536.02,507.01 538.76,507.01 541.50,507.01 544.23,507.01 546.97,507.01 549.71,507.01 552.44,507.01 555.18,507.01 557.92,507.01 560.65,507.01 563.39,507.01 566.13,507.01 568.87,507.01 571.60,507.01 574.34,507.01 577.08,507.01 579.81,507.01 582.55,507.01 585.29,507.01 588.02,507.01 590.76,507.01 593.50,507.01 596.23,507.01 598.97,507.01 601.71,507.01 604.45,507.01 607.18,507.01 609.92,507.01" style="stroke-width: 1.07;stroke: none;stroke-linecap: butt;"/>
<polyline points="609.92,507.42 607.18,507.42 604.45,507.42 601.71,507.42 598.97,507.42 596.23,507.42 593.50,507.42 590.76,507.42 588.02,507.42 585.29,507.42 582.55,507.42 579.81,507.42 577.08,507.42 574.34,507.42 571.60,507.42 568.87,507.42 566.13,507.42 563.39,507.42 560.65,507.42 557.92,507.42 555.18,507.42 552.44,507.42 549.71,507.42 546.97,507.42 544.23,507.42 541.50,507.42 538.76,507.42 536.02,507.42 533.28,507.42 530.55,507.42 527.81,507.42 525.07,507.42 522.34,507.42 519.60,507.42 516.86,507.42 514.13,507.42 511.39,507.42 508.65,507.42 505.92,507.42 503.18,507.42 500.44,507.42 497.70,507.42 494.97,507.42 492.23,507.42 489.49,507.42 486.76,507.42 484.02,507.42 481.28,507.42 478.55,507.42 475.81,507.42 473.07,507.42 470.34,507.42 467.60,507.42 464.86,507.42 462.12,507.42 459.39,507.42 456.65,507.42 453.91,507.42 451.18,507.42 448.44,507.42 445.70,507.42 442.97,507.42 440.23,507.42 437.49,507.42 434.75,507.42 432.02,507.42 429.28,507.42 426.54,507.42 423.81,507.42 421.07,507.42 418.33,507.42 415.60,507.42 412.86,507.42 410.12,507.42 407.39,507.42 404.65,507.42 401.91,507.42 399.17,507.42 396.44,507.42 393.70,507.42 390.96,507.42 388.23,507.42 385.49,507.42 382.75,507.41 380.02,507.41 377.28,507.41 374.54,507.41 371.80,507.41 369.07,507.41 366.33,507.40 363.59,507.40 360.86,507.40 358.12,507.39 355.38,507.39 352.65,507.38 349.91,507.38 347.17,507.37 344.44,507.37 341.70,507.36 338.96,507.35 336.22,507.35 333.49,507.34 330.75,507.33 328.01,507.32 325.28,507.30 322.54,507.28 319.80,507.26 317.07,507.23 314.33,507.20 311.59,507.16 308.86,507.11 306.12,507.03 303.38,506.94 300.64,506.80 297.91,506.60 295.17,506.31 292.43,505.88 289.70,505.25 286.96,504.25 284.22,502.85 281.49,500.79 278.75,497.76 276.01,493.37 273.27,487.02 270.54,477.93 267.80,465.14 265.06,447.52 262.33,423.97 259.59,393.78 256.85,357.00 254.12,314.89 251.38,269.97 248.64,225.50 245.91,194.44 243.17,175.79 240.43,158.82 237.69,143.42 234.96,129.62 232.22,117.39 229.48,106.66 226.75,97.34 224.01,89.30 221.27,82.42 218.54,76.56 215.80,71.59 213.06,67.40 210.32,63.87 207.59,60.91 204.85,58.43 202.11,56.36 199.38,54.64 196.64,53.21 193.90,52.01 191.17,51.02 188.43,50.20 185.69,49.52 182.96,48.95 180.22,48.48 177.48,48.10 174.74,47.77 172.01,47.51 169.27,47.29 166.53,47.11 163.80,46.96 161.06,46.83 158.32,46.73 155.59,46.64 152.85,46.57 150.11,46.52 147.38,46.47 144.64,46.43 141.90,46.39 139.16,46.37 136.43,46.34 133.69,46.33 130.95,46.31 128.22,46.30 125.48,46.29 122.74,46.28 120.01,46.27 117.27,46.27 114.53,46.26 111.79,46.26 109.06,46.25 106.32,46.25 103.58,46.25 100.85,46.25 98.11,46.25 95.37,46.24 92.64,46.24 89.90,46.24 87.16,46.24 84.43,46.24 81.69,46.24 78.95,46.24 76.21,46.24 73.48,46.24 70.74,46.24 68.00,46.24 65.27,46.24" style="stroke-width: 1.07;stroke: none;stroke-linecap: butt;"/>
<circle cx="65.27" cy="46.24" r="2.06" style="stroke-width: 0.71;stroke: #F8766D;stroke-opacity: 0.70;fill: #F8766D;fill-opacity: 0.70;"/>
<circle cx="65.27" cy="46.24" r="2.06" style="stroke-width: 0.71;stroke: #F8766D;stroke-opacity: 0.70;fill: #F8766D;fill-opacity: 0.70;"/>
<circle cx="65.27" cy="46.24" r="2.06" style="stroke-width: 0.71;stroke: #F8766D;stroke-opacity: 0.70;fill: #F8766D;fill-opacity: 0.70;"/>
<circle cx="65.27" cy="46.24" r="2.06" style="stroke-width: 0.71;stroke: #7CAE00;stroke-opacity: 0.70;fill: #7CAE00;fill-opacity: 0.70;"/>
<circle cx="65.27" cy="46.24" r="2.06" style="stroke-width: 0.71;stroke: #7CAE00;stroke-opacity: 0.70;fill: #7CAE00;fill-opacity: 0.70;"/>
<circle cx="65.27" cy="46.24" r="2.06" style="stroke-width: 0.71;stroke: #7CAE00;stroke-opacity: 0.70;fill: #7CAE00;fill-opacity: 0.70;"/>
<circle cx="65.27" cy="46.24" r="2.06" style="stroke-width: 0.71;stroke: #00BFC4;stroke-opacity: 0.70;fill: #00BFC4;fill-opacity: 0.70;"/>
<circle cx="65.27" cy="46.24" r="2.06" style="stroke-width: 0.71;stroke: #00BFC4;stroke-opacity: 0.70;fill: #00BFC4;fill-opacity: 0.70;"/>
<circle cx="65.27" cy="46.24" r="2.06" style="stroke-width: 0.71;stroke: #00BFC4;stroke-opacity: 0.70;fill: #00BFC4;fill-opacity: 0.70;"/>
<circle cx="65.27" cy="46.24" r="2.06" style="stroke-width: 0.71;stroke: #C77CFF;stroke-opacity: 0.70;fill: #C77CFF;fill-opacity: 0.70;"/>
<circle cx="65.27" cy="46.24" r="2.06" style="stroke-width: 0.71;stroke: #C77CFF;stroke-opacity: 0.70;fill: #C77CFF;fill-opacity: 0.70;"/>
<circle cx="65.27" cy="46.24" r="2.06" style="stroke-width: 0.71;stroke: #C77CFF;stroke-opacity: 0.70;fill: #C77CFF;fill-opacity: 0.70;"/>
<circle cx="156.30" cy="46.24" r="2.06" style="stroke-width: 0.71;stroke: #F8766D;stroke-opacity: 0.70;fill: #F8766D;fill-opacity: 0.70;"/>
<circle cx="156.30" cy="46.24" r="2.06" style="stroke-width: 0.71;stroke: #F8766D;stroke-opacity: 0.70;fill: #F8766D;fill-opacity: 0.70;"/>
<circle cx="156.30" cy="46.24" r="2.06" style="stroke-width: 0.71;stroke: #F8766D;stroke-opacity: 0.70;fill: #F8766D;fill-opacity: 0.70;"/>
<circle cx="156.30" cy="46.24" r="2.06" style="stroke-width: 0.71;stroke: #7CAE00;stroke-opacity: 0.70;fill: #7CAE00;fill-opacity: 0.70;"/>
<circle cx="156.30" cy="46.24" r="2.06" style="stroke-width: 0.71;stroke: #7CAE00;stroke-opacity: 0.70;fill: #7CAE00;fill-opacity: 0.70;"/>
<circle cx="156.30" cy="46.24" r="2.06" style="stroke-width: 0.71;stroke: #7CAE00;stroke-opacity: 0.70;fill: #7CAE00;fill-opacity: 0.70;"/>
<circle cx="156.30" cy="46.24" r="2.06" style="stroke-width: 0.71;stroke: #00BFC4;stroke-opacity: 0.70;fill: #00BFC4;fill-opacity: 0.70;"/>
<circle cx="156.30" cy="46.24" r="2.06" style="stroke-width: 0.71;stroke: #00BFC4;stroke-opacity: 0.70;fill: #00BFC4;fill-opacity: 0.70;"/>
<circle cx="156.30" cy="46.24" r="2.06" style="stroke-width: 0.71;stroke: #00BFC4;stroke-opacity: 0.70;fill: #00BFC4;fill-opacity: 0.70;"/>
<circle cx="156.30" cy="46.24" r="2.06" style="stroke-width: 0.71;stroke: #C77CFF;stroke-opacity: 0.70;fill: #C77CFF;fill-opacity: 0.70;"/>
<circle cx="156.30" cy="46.24" r="2.06" style="stroke-width: 0.71;stroke: #C77CFF;stroke-opacity: 0.70;fill: #C77CFF;fill-opacity: 0.70;"/>
<circle cx="156.30" cy="46.24" r="2.06" style="stroke-width: 0.71;stroke: #C77CFF;stroke-opacity: 0.70;fill: #C77CFF;fill-opacity: 0.70;"/>
<circle cx="247.34" cy="237.31" r="2.06" style="stroke-width: 0.71;stroke: #F8766D;stroke-opacity: 0.70;fill: #F8766D;fill-opacity: 0.70;"/>
<circle cx="247.34" cy="211.85" r="2.06" style="stroke-width: 0.71;stroke: #F8766D;stroke-opacity: 0.70;fill: #F8766D;fill-opacity: 0.70;"/>
<circle cx="247.34" cy="153.72" r="2.06" style="stroke-width: 0.71;stroke: #F8766D;stroke-opacity: 0.70;fill: #F8766D;fill-opacity: 0.70;"/>
<circle cx="247.34" cy="149.60" r="2.06" style="stroke-width: 0.71;stroke: #7CAE00;stroke-opacity: 0.70;fill: #7CAE00;fill-opacity: 0.70;"/>
<circle cx="247.34" cy="162.03" r="2.06" style="stroke-width: 0.71;stroke: #7CAE00;stroke-opacity: 0.70;fill: #7CAE00;fill-opacity: 0.70;"/>
<circle cx="247.34" cy="130.64" r="2.06" style="stroke-width: 0.71;stroke: #7CAE00;stroke-opacity: 0.70;fill: #7CAE00;fill-opacity: 0.70;"/>
<circle cx="247.34" cy="193.69" r="2.06" style="stroke-width: 0.71;stroke: #00BFC4;stroke-opacity: 0.70;fill: #00BFC4;fill-opacity: 0.70;"/>
<circle cx="247.34" cy="212.70" r="2.06" style="stroke-width: 0.71;stroke: #00BFC4;stroke-opacity: 0.70;fill: #00BFC4;fill-opacity: 0.70;"/>
<circle cx="247.34" cy="195.88" r="2.06" style="stroke-width: 0.71;stroke: #00BFC4;stroke-opacity: 0.70;fill: #00BFC4;fill-opacity: 0.70;"/>
<circle cx="247.34" cy="90.09" r="2.06" style="stroke-width: 0.71;stroke: #C77CFF;stroke-opacity: 0.70;fill: #C77CFF;fill-opacity: 0.70;"/>
<circle cx="247.34" cy="184.90" r="2.06" style="stroke-width: 0.71;stroke: #C77CFF;stroke-opacity: 0.70;fill: #C77CFF;fill-opacity: 0.70;"/>
<circle cx="247.34" cy="205.40" r="2.06" style="stroke-width: 0.71;stroke: #C77CFF;stroke-opacity: 0.70;fill: #C77CFF;fill-opacity: 0.70;"/>
<circle cx="336.81" cy="501.67" r="2.06" style="stroke-width: 0.71;stroke: #F8766D;stroke-opacity: 0.70;fill: #F8766D;fill-opacity: 0.70;"/>
<circle cx="336.81" cy="507.44" r="2.06" style="stroke-width: 0.71;stroke: #F8766D;stroke-opacity: 0.70;fill: #F8766D;fill-opacity: 0.70;"/>
<circle cx="336.81" cy="499.56" r="2.06" style="stroke-width: 0.71;stroke: #F8766D;stroke-opacity: 0.70;fill: #F8766D;fill-opacity: 0.70;"/>
<circle cx="336.81" cy="507.44" r="2.06" style="stroke-width: 0.71;stroke: #7CAE00;stroke-opacity: 0.70;fill: #7CAE00;fill-opacity: 0.70;"/>
<circle cx="336.81" cy="507.44" r="2.06" style="stroke-width: 0.71;stroke: #7CAE00;stroke-opacity: 0.70;fill: #7CAE00;fill-opacity: 0.70;"/>
<circle cx="336.81" cy="507.44" r="2.06" style="stroke-width: 0.71;stroke: #7CAE00;stroke-opacity: 0.70;fill: #7CAE00;fill-opacity: 0.70;"/>
<circle cx="336.81" cy="507.44" r="2.06" style="stroke-width: 0.71;stroke: #00BFC4;stroke-opacity: 0.70;fill: #00BFC4;fill-opacity: 0.70;"/>
<circle cx="336.81" cy="507.44" r="2.06" style="stroke-width: 0.71;stroke: #00BFC4;stroke-opacity: 0.70;fill: #00BFC4;fill-opacity: 0.70;"/>
<circle cx="336.81" cy="507.44" r="2.06" style="stroke-width: 0.71;stroke: #00BFC4;stroke-opacity: 0.70;fill: #00BFC4;fill-opacity: 0.70;"/>
<circle cx="336.81" cy="507.44" r="2.06" style="stroke-width: 0.71;stroke: #C77CFF;stroke-opacity: 0.70;fill: #C77CFF;fill-opacity: 0.70;"/>
<circle cx="336.81" cy="507.38" r="2.06" style="stroke-width: 0.71;stroke: #C77CFF;stroke-opacity: 0.70;fill: #C77CFF;fill-opacity: 0.70;"/>
<circle cx="336.81" cy="498.28" r="2.06" style="stroke-width: 0.71;stroke: #C77CFF;stroke-opacity: 0.70;fill: #C77CFF;fill-opacity: 0.70;"/>
<circle cx="427.85" cy="507.44" r="2.06" style="stroke-width: 0.71;stroke: #F8766D;stroke-opacity: 0.70;fill: #F8766D;fill-opacity: 0.70;"/>
<circle cx="427.85" cy="507.44" r="2.06" style="stroke-width: 0.71;stroke: #F8766D;stroke-opacity: 0.70;fill: #F8766D;fill-opacity: 0.70;"/>
<circle cx="427.85" cy="507.44" r="2.06" style="stroke-width: 0.71;stroke: #F8766D;stroke-opacity: 0.70;fill: #F8766D;fill-opacity: 0.70;"/>
<circle cx="427.85" cy="507.44" r="2.06" style="stroke-width: 0.71;stroke: #7CAE00;stroke-opacity: 0.70;fill: #7CAE00;fill-opacity: 0.70;"/>
<circle cx="427.85" cy="507.44" r="2.06" style="stroke-width: 0.71;stroke: #7CAE00;stroke-opacity: 0.70;fill: #7CAE00;fill-opacity: 0.70;"/>
<circle cx="427.85" cy="507.44" r="2.06" style="stroke-width: 0.71;stroke: #7CAE00;stroke-opacity: 0.70;fill: #7CAE00;fill-opacity: 0.70;"/>
<circle cx="427.85" cy="507.44" r="2.06" style="stroke-width: 0.71;stroke: #00BFC4;stroke-opacity: 0.70;fill: #00BFC4;fill-opacity: 0.70;"/>
<circle cx="427.85" cy="507.44" r="2.06" style="stroke-width: 0.71;stroke: #00BFC4;stroke-opacity: 0.70;fill: #00BFC4;fill-opacity: 0.70;"/>
<circle cx="427.85" cy="507.44" r="2.06" style="stroke-width: 0.71;stroke: #00BFC4;stroke-opacity: 0.70;fill: #00BFC4;fill-opacity: 0.70;"/>
<circle cx="427.85" cy="507.44" r="2.06" style="stroke-width: 0.71;stroke: #C77CFF;stroke-opacity: 0.70;fill: #C77CFF;fill-opacity: 0.70;"/>
<circle cx="427.85" cy="507.44" r="2.06" style="stroke-width: 0.71;stroke: #C77CFF;stroke-opacity: 0.70;fill: #C77CFF;fill-opacity: 0.70;"/>
<circle cx="427.85" cy="507.44" r="2.06" style="stroke-width: 0.71;stroke: #C77CFF;stroke-opacity: 0.70;fill: #C77CFF;fill-opacity: 0.70;"/>
<circle cx="518.88" cy="507.44" r="2.06" style="stroke-width: 0.71;stroke: #F8766D;stroke-opacity: 0.70;fill: #F8766D;fill-opacity: 0.70;"/>
<circle cx="518.88" cy="507.44" r="2.06" style="stroke-width: 0.71;stroke: #F8766D;stroke-opacity: 0.70;fill: #F8766D;fill-opacity: 0.70;"/>
<circle cx="518.88" cy="507.44" r="2.06" style="stroke-width: 0.71;stroke: #F8766D;stroke-opacity: 0.70;fill: #F8766D;fill-opacity: 0.70;"/>
<circle cx="518.88" cy="507.44" r="2.06" style="stroke-width: 0.71;stroke: #7CAE00;stroke-opacity: 0.70;fill: #7CAE00;fill-opacity: 0.70;"/>
<circle cx="518.88" cy="507.44" r="2.06" style="stroke-width: 0.71;stroke: #7CAE00;stroke-opacity: 0.70;fill: #7CAE00;fill-opacity: 0.70;"/>
<circle cx="518.88" cy="507.44" r="2.06" style="stroke-width: 0.71;stroke: #7CAE00;stroke-opacity: 0.70;fill: #7CAE00;fill-opacity: 0.70;"/>
<circle cx="518.88" cy="507.44" r="2.06" style="stroke-width: 0.71;stroke: #00BFC4;stroke-opacity: 0.70;fill: #00BFC4;fill-opacity: 0.70;"/>
<circle cx="518.88" cy="507.44" r="2.06" style="stroke-width: 0.71;stroke: #00BFC4;stroke-opacity: 0.70;fill: #00BFC4;fill-opacity: 0.70;"/>
<circle cx="518.88" cy="507.44" r="2.06" style="stroke-width: 0.71;stroke: #00BFC4;stroke-opacity: 0.70;fill: #00BFC4;fill-opacity: 0.70;"/>
<circle cx="518.88" cy="507.44" r="2.06" style="stroke-width: 0.71;stroke: #C77CFF;stroke-opacity: 0.70;fill: #C77CFF;fill-opacity: 0.70;"/>
<circle cx="518.88" cy="507.44" r="2.06" style="stroke-width: 0.71;stroke: #C77CFF;stroke-opacity: 0.70;fill: #C77CFF;fill-opacity: 0.70;"/>
<circle cx="518.88" cy="506.50" r="2.06" style="stroke-width: 0.71;stroke: #C77CFF;stroke-opacity: 0.70;fill: #C77CFF;fill-opacity: 0.70;"/>
<circle cx="609.92" cy="507.44" r="2.06" style="stroke-width: 0.71;stroke: #F8766D;stroke-opacity: 0.70;fill: #F8766D;fill-opacity: 0.70;"/>
<circle cx="609.92" cy="505.71" r="2.06" style="stroke-width: 0.71;stroke: #F8766D;stroke-opacity: 0.70;fill: #F8766D;fill-opacity: 0.70;"/>
<circle cx="609.92" cy="507.44" r="2.06" style="stroke-width: 0.71;stroke: #F8766D;stroke-opacity: 0.70;fill: #F8766D;fill-opacity: 0.70;"/>
<circle cx="609.92" cy="507.44" r="2.06" style="stroke-width: 0.71;stroke: #7CAE00;stroke-opacity: 0.70;fill: #7CAE00;fill-opacity: 0.70;"/>
<circle cx="609.92" cy="507.44" r="2.06" style="stroke-width: 0.71;stroke: #7CAE00;stroke-opacity: 0.70;fill: #7CAE00;fill-opacity: 0.70;"/>
<circle cx="609.92" cy="504.49" r="2.06" style="stroke-width: 0.71;stroke: #7CAE00;stroke-opacity: 0.70;fill: #7CAE00;fill-opacity: 0.70;"/>
<circle cx="609.92" cy="507.44" r="2.06" style="stroke-width: 0.71;stroke: #00BFC4;stroke-opacity: 0.70;fill: #00BFC4;fill-opacity: 0.70;"/>
<circle cx="609.92" cy="506.76" r="2.06" style="stroke-width: 0.71;stroke: #00BFC4;stroke-opacity: 0.70;fill: #00BFC4;fill-opacity: 0.70;"/>
<circle cx="609.92" cy="507.44" r="2.06" style="stroke-width: 0.71;stroke: #00BFC4;stroke-opacity: 0.70;fill: #00BFC4;fill-opacity: 0.70;"/>
<circle cx="609.92" cy="507.44" r="2.06" style="stroke-width: 0.71;stroke: #C77CFF;stroke-opacity: 0.70;fill: #C77CFF;fill-opacity: 0.70;"/>
<circle cx="609.92" cy="507.44" r="2.06" style="stroke-width: 0.71;stroke: #C77CFF;stroke-opacity: 0.70;fill: #C77CFF;fill-opacity: 0.70;"/>
<circle cx="609.92" cy="505.98" r="2.06" style="stroke-width: 0.71;stroke: #C77CFF;stroke-opacity: 0.70;fill: #C77CFF;fill-opacity: 0.70;"/>
<polyline points="65.27,46.24 68.00,46.24 70.74,46.24 73.48,46.24 76.21,46.25 78.95,46.25 81.69,46.25 84.43,46.25 87.16,46.25 89.90,46.26 92.64,46.26 95.37,46.26 98.11,46.27 100.85,46.28 103.58,46.28 106.32,46.29 109.06,46.30 111.79,46.31 114.53,46.32 117.27,46.34 120.01,46.35 122.74,46.38 125.48,46.40 128.22,46.43 130.95,46.46 133.69,46.50 136.43,46.55 139.16,46.60 141.90,46.67 144.64,46.74 147.38,46.83 150.11,46.94 152.85,47.06 155.59,47.21 158.32,47.38 161.06,47.58 163.80,47.82 166.53,48.10 169.27,48.43 172.01,48.82 174.74,49.27 177.48,49.81 180.22,50.43 182.96,51.17 185.69,52.03 188.43,53.05 191.17,54.23 193.90,55.62 196.64,57.25 199.38,59.14 202.11,61.36 204.85,63.94 207.59,66.94 210.32,70.42 213.06,74.45 215.80,79.11 218.54,84.46 221.27,90.59 224.01,97.59 226.75,105.54 229.48,114.52 232.22,124.58 234.96,135.80 237.69,148.20 240.43,161.78 243.17,176.51 245.91,192.33 248.64,209.12 251.38,226.74 254.12,244.99 256.85,263.66 259.59,282.51 262.33,301.28 265.06,319.72 267.80,337.62 270.54,354.75 273.27,370.97 276.01,386.14 278.75,400.18 281.49,413.04 284.22,424.72 286.96,435.24 289.70,444.64 292.43,452.99 295.17,460.36 297.91,466.83 300.64,472.48 303.38,477.41 306.12,481.68 308.86,485.37 311.59,488.56 314.33,491.31 317.07,493.66 319.80,495.69 322.54,497.42 325.28,498.90 328.01,500.17 330.75,501.25 333.49,502.17 336.22,502.96 338.96,503.63 341.70,504.20 344.44,504.68 347.17,505.10 349.91,505.45 352.65,505.75 355.38,506.00 358.12,506.22 360.86,506.40 363.59,506.56 366.33,506.69 369.07,506.80 371.80,506.90 374.54,506.98 377.28,507.05 380.02,507.11 382.75,507.16 385.49,507.20 388.23,507.24 390.96,507.27 393.70,507.30 396.44,507.32 399.17,507.34 401.91,507.35 404.65,507.37 407.39,507.38 410.12,507.39 412.86,507.40 415.60,507.40 418.33,507.41 421.07,507.41 423.81,507.42 426.54,507.42 429.28,507.43 432.02,507.43 434.75,507.43 437.49,507.43 440.23,507.43 442.97,507.44 445.70,507.44 448.44,507.44 451.18,507.44 453.91,507.44 456.65,507.44 459.39,507.44 462.12,507.44 464.86,507.44 467.60,507.44 470.34,507.44 473.07,507.44 475.81,507.44 478.55,507.44 481.28,507.44 484.02,507.44 486.76,507.44 489.49,507.44 492.23,507.44 494.97,507.44 497.70,507.44 500.44,507.44 503.18,507.44 505.92,507.44 508.65,507.44 511.39,507.44 514.13,507.44 516.86,507.44 519.60,507.44 522.34,507.44 525.07,507.44 527.81,507.44 530.55,507.44 533.28,507.44 536.02,507.44 538.76,507.44 541.50,507.44 544.23,507.44 546.97,507.44 549.71,507.44 552.44,507.44 555.18,507.44 557.92,507.44 560.65,507.44 563.39,507.44 566.13,507.44 568.87,507.44 571.60,507.44 574.34,507.44 577.08,507.44 579.81,507.44 582.55,507.44 585.29,507.44 588.02,507.44 590.76,507.44 593.50,507.44 596.23,507.44 598.97,507.44 601.71,507.44 604.45,507.44 607.18,507.44 609.92,507.44" style="stroke-width: 1.71;stroke: #F8766D;stroke-linecap: butt;"/>
<polyline points="65.27,46.24 68.00,46.24 70.74,46.24 73.48,46.24 76.21,46.24 78.95,46.24 81.69,46.24 84.43,46.24 87.16,46.24 89.90,46.24 92.64,46.24 95.37,46.24 98.11,46.24 100.85,46.24 103.58,46.24 106.32,46.24 109.06,46.24 111.79,46.24 114.53,46.24 117.27,46.24 120.01,46.25 122.74,46.25 125.48,46.25 128.22,46.25 130.95,46.25 133.69,46.25 136.43,46.26 139.16,46.26 141.90,46.27 144.64,46.27 147.38,46.28 150.11,46.28 152.85,46.29 155.59,46.30 158.32,46.32 161.06,46.33 163.80,46.35 166.53,46.37 169.27,46.40 172.01,46.43 174.74,46.48 177.48,46.53 180.22,46.59 182.96,46.67 185.69,46.77 188.43,46.90 191.17,47.05 193.90,47.25 196.64,47.50 199.38,47.81 202.11,48.21 204.85,48.71 207.59,49.35 210.32,50.18 213.06,51.23 215.80,52.59 218.54,54.33 221.27,56.58 224.01,59.47 226.75,63.21 229.48,68.03 232.22,74.23 234.96,82.17 237.69,92.27 240.43,105.01 243.17,120.85 245.91,140.16 248.64,163.14 251.38,189.65 254.12,219.13 256.85,250.59 259.59,282.77 262.33,314.33 265.06,344.08 267.80,371.17 270.54,395.10 273.27,415.71 276.01,433.10 278.75,447.54 281.49,459.38 284.22,468.99 286.96,476.73 289.70,482.93 292.43,487.89 295.17,491.84 297.91,494.98 300.64,497.47 303.38,499.46 306.12,501.03 308.86,502.29 311.59,503.29 314.33,504.09 317.07,504.73 319.80,505.24 322.54,505.65 325.28,505.98 328.01,506.25 330.75,506.47 333.49,506.64 336.22,506.78 338.96,506.90 341.70,506.99 344.44,507.07 347.17,507.13 349.91,507.18 352.65,507.23 355.38,507.26 358.12,507.29 360.86,507.32 363.59,507.34 366.33,507.35 369.07,507.37 371.80,507.38 374.54,507.39 377.28,507.40 380.02,507.40 382.75,507.41 385.49,507.41 388.23,507.42 390.96,507.42 393.70,507.42 396.44,507.43 399.17,507.43 401.91,507.43 404.65,507.43 407.39,507.43 410.12,507.44 412.86,507.44 415.60,507.44 418.33,507.44 421.07,507.44 423.81,507.44 426.54,507.44 429.28,507.44 432.02,507.44 434.75,507.44 437.49,507.44 440.23,507.44 442.97,507.44 445.70,507.44 448.44,507.44 451.18,507.44 453.91,507.44 456.65,507.44 459.39,507.44 462.12,507.44 464.86,507.44 467.60,507.44 470.34,507.44 473.07,507.44 475.81,507.44 478.55,507.44 481.28,507.44 484.02,507.44 486.76,507.44 489.49,507.44 492.23,507.44 494.97,507.44 497.70,507.44 500.44,507.44 503.18,507.44 505.92,507.44 508.65,507.44 511.39,507.44 514.13,507.44 516.86,507.44 519.60,507.44 522.34,507.44 525.07,507.44 527.81,507.44 530.55,507.44 533.28,507.44 536.02,507.44 538.76,507.44 541.50,507.44 544.23,507.44 546.97,507.44 549.71,507.44 552.44,507.44 555.18,507.44 557.92,507.44 560.65,507.44 563.39,507.44 566.13,507.44 568.87,507.44 571.60,507.44 574.34,507.44 577.08,507.44 579.81,507.44 582.55,507.44 585.29,507.44 588.02,507.44 590.76,507.44 593.50,507.44 596.23,507.44 598.97,507.44 601.71,507.44 604.45,507.44 607.18,507.44 609.92,507.44" style="stroke-width: 1.71;stroke: #7CAE00;stroke-linecap: butt;"/>
<polyline points="65.27,46.24 68.00,46.24 70.74,46.24 73.48,46.24 76.21,46.24 78.95,46.24 81.69,46.24 84.43,46.24 87.16,46.24 89.90,46.24 92.64,46.24 95.37,46.24 98.11,46.24 100.85,46.24 103.58,46.24 106.32,46.24 109.06,46.24 111.79,46.24 114.53,46.24 117.27,46.24 120.01,46.24 122.74,46.24 125.48,46.24 128.22,46.24 130.95,46.24 133.69,46.24 136.43,46.24 139.16,46.24 141.90,46.24 144.64,46.24 147.38,46.25 150.11,46.25 152.85,46.25 155.59,46.26 158.32,46.26 161.06,46.27 163.80,46.28 166.53,46.30 169.27,46.32 172.01,46.34 174.74,46.37 177.48,46.41 180.22,46.47 182.96,46.54 185.69,46.63 188.43,46.76 191.17,46.92 193.90,47.14 196.64,47.42 199.38,47.79 202.11,48.29 204.85,48.94 207.59,49.80 210.32,50.93 213.06,52.43 215.80,54.39 218.54,56.97 221.27,60.35 224.01,64.77 226.75,70.51 229.48,77.93 232.22,87.42 234.96,99.45 237.69,114.47 240.43,132.87 243.17,154.92 245.91,180.63 248.64,209.64 251.38,241.19 254.12,274.14 256.85,307.15 259.59,338.87 262.33,368.15 265.06,394.24 267.80,416.74 270.54,435.63 273.27,451.14 276.01,463.64 278.75,473.57 281.49,481.37 284.22,487.45 286.96,492.15 289.70,495.77 292.43,498.54 295.17,500.66 297.91,502.28 300.64,503.51 303.38,504.45 306.12,505.16 308.86,505.71 311.59,506.12 314.33,506.44 317.07,506.68 319.80,506.86 322.54,507.00 325.28,507.10 328.01,507.18 330.75,507.24 333.49,507.29 336.22,507.33 338.96,507.35 341.70,507.37 344.44,507.39 347.17,507.40 349.91,507.41 352.65,507.42 355.38,507.43 358.12,507.43 360.86,507.43 363.59,507.44 366.33,507.44 369.07,507.44 371.80,507.44 374.54,507.44 377.28,507.44 380.02,507.44 382.75,507.44 385.49,507.44 388.23,507.44 390.96,507.44 393.70,507.44 396.44,507.44 399.17,507.44 401.91,507.44 404.65,507.44 407.39,507.44 410.12,507.44 412.86,507.44 415.60,507.44 418.33,507.44 421.07,507.44 423.81,507.44 426.54,507.44 429.28,507.44 432.02,507.44 434.75,507.44 437.49,507.44 440.23,507.44 442.97,507.44 445.70,507.44 448.44,507.44 451.18,507.44 453.91,507.44 456.65,507.44 459.39,507.44 462.12,507.44 464.86,507.44 467.60,507.44 470.34,507.44 473.07,507.44 475.81,507.44 478.55,507.44 481.28,507.44 484.02,507.44 486.76,507.44 489.49,507.44 492.23,507.44 494.97,507.44 497.70,507.44 500.44,507.44 503.18,507.44 505.92,507.44 508.65,507.44 511.39,507.44 514.13,507.44 516.86,507.44 519.60,507.44 522.34,507.44 525.07,507.44 527.81,507.44 530.55,507.44 533.28,507.44 536.02,507.44 538.76,507.44 541.50,507.44 544.23,507.44 546.97,507.44 549.71,507.44 552.44,507.44 555.18,507.44 557.92,507.44 560.65,507.44 563.39,507.44 566.13,507.44 568.87,507.44 571.60,507.44 574.34,507.44 577.08,507.44 579.81,507.44 582.55,507.44 585.29,507.44 588.02,507.44 590.76,507.44 593.50,507.44 596.23,507.44 598.97,507.44 601.71,507.44 604.45,507.44 607.18,507.44 609.92,507.44" style="stroke-width: 1.71;stroke: #00BFC4;stroke-linecap: butt;"/>
<polyline points="65.27,46.24 68.00,46.24 70.74,46.24 73.48,46.24 76.21,46.24 78.95,46.24 81.69,46.24 84.43,46.24 87.16,46.24 89.90,46.24 92.64,46.24 95.37,46.24 98.11,46.24 100.85,46.24 103.58,46.24 106.32,46.24 109.06,46.24 111.79,46.24 114.53,46.24 117.27,46.24 120.01,46.24 122.74,46.24 125.48,46.25 128.22,46.25 130.95,46.25 133.69,46.25 136.43,46.25 139.16,46.26 141.90,46.26 144.64,46.27 147.38,46.27 150.11,46.28 152.85,46.29 155.59,46.30 158.32,46.31 161.06,46.33 163.80,46.35 166.53,46.38 169.27,46.41 172.01,46.45 174.74,46.51 177.48,46.57 180.22,46.66 182.96,46.76 185.69,46.90 188.43,47.06 191.17,47.28 193.90,47.56 196.64,47.91 199.38,48.36 202.11,48.93 204.85,49.68 207.59,50.64 210.32,51.88 213.06,53.47 215.80,55.54 218.54,58.22 221.27,61.69 224.01,66.17 226.75,71.95 229.48,79.38 232.22,88.87 234.96,100.89 237.69,115.92 240.43,134.42 243.17,156.69 245.91,182.74 248.64,212.18 251.38,244.12 254.12,277.30 256.85,310.22 259.59,341.50 262.33,370.06 265.06,395.25 267.80,416.84 270.54,434.90 273.27,449.74 276.01,461.77 278.75,471.40 281.49,479.05 284.22,485.10 286.96,489.85 289.70,493.59 292.43,496.51 295.17,498.80 297.91,500.59 300.64,501.99 303.38,503.09 306.12,503.95 308.86,504.63 311.59,505.16 314.33,505.58 317.07,505.91 319.80,506.17 322.54,506.38 325.28,506.54 328.01,506.67 330.75,506.78 333.49,506.86 336.22,506.93 338.96,506.98 341.70,507.03 344.44,507.06 347.17,507.09 349.91,507.11 352.65,507.13 355.38,507.14 358.12,507.16 360.86,507.17 363.59,507.17 366.33,507.18 369.07,507.19 371.80,507.19 374.54,507.19 377.28,507.20 380.02,507.20 382.75,507.20 385.49,507.20 388.23,507.21 390.96,507.21 393.70,507.21 396.44,507.21 399.17,507.21 401.91,507.21 404.65,507.21 407.39,507.21 410.12,507.21 412.86,507.21 415.60,507.21 418.33,507.21 421.07,507.21 423.81,507.21 426.54,507.21 429.28,507.21 432.02,507.21 434.75,507.21 437.49,507.21 440.23,507.21 442.97,507.21 445.70,507.21 448.44,507.21 451.18,507.21 453.91,507.21 456.65,507.21 459.39,507.21 462.12,507.21 464.86,507.21 467.60,507.21 470.34,507.21 473.07,507.21 475.81,507.21 478.55,507.21 481.28,507.21 484.02,507.21 486.76,507.21 489.49,507.21 492.23,507.21 494.97,507.21 497.70,507.21 500.44,507.21 503.18,507.21 505.92,507.21 508.65,507.21 511.39,507.21 514.13,507.21 516.86,507.21 519.60,507.21 522.34,507.21 525.07,507.21 527.81,507.21 530.55,507.21 533.28,507.21 536.02,507.21 538.76,507.21 541.50,507.21 544.23,507.21 546.97,507.21 549.71,507.21 552.44,507.21 555.18,507.21 557.92,507.21 560.65,507.21 563.39,507.21 566.13,507.21 568.87,507.21 571.60,507.21 574.34,507.21 577.08,507.21 579.81,507.21 582.55,507.21 585.29,507.21 588.02,507.21 590.76,507.21 593.50,507.21 596.23,507.21 598.97,507.21 601.71,507.21 604.45,507.21 607.18,507.21 609.92,507.21" style="stroke-width: 1.71;stroke: #C77CFF;stroke-linecap: butt;"/>
</g><g clip-path="url(#c2)">
<g><text x="33.10" y="510.59" text-anchor="end" style="font-family: Arial;font-size: 8.80px;fill: #4D4D4D;" textLength="4.90px" lengthAdjust="spacingAndGlyphs">0</text></g>
<g><text x="33.10" y="395.29" text-anchor="end" style="font-family: Arial;font-size: 8.80px;fill: #4D4D4D;" textLength="9.79px" lengthAdjust="spacingAndGlyphs">25</text></g>
<g><text x="33.10" y="279.99" text-anchor="end" style="font-family: Arial;font-size: 8.80px;fill: #4D4D4D;" textLength="9.79px" lengthAdjust="spacingAndGlyphs">50</text></g>
<g><text x="33.10" y="164.69" text-anchor="end" style="font-family: Arial;font-size: 8.80px;fill: #4D4D4D;" textLength="9.79px" lengthAdjust="spacingAndGlyphs">75</text></g>
<g><text x="33.10" y="49.39" text-anchor="end" style="font-family: Arial;font-size: 8.80px;fill: #4D4D4D;" textLength="14.69px" lengthAdjust="spacingAndGlyphs">100</text></g>
<g><text x="110.78" y="541.74" text-anchor="middle" style="font-family: Arial;font-size: 8.80px;fill: #4D4D4D;" textLength="24.72px" lengthAdjust="spacingAndGlyphs">1e+02</text></g>
<g><text x="261.99" y="541.74" text-anchor="middle" style="font-family: Arial;font-size: 8.80px;fill: #4D4D4D;" textLength="24.72px" lengthAdjust="spacingAndGlyphs">1e+03</text></g>
<g><text x="413.20" y="541.74" text-anchor="middle" style="font-family: Arial;font-size: 8.80px;fill: #4D4D4D;" textLength="24.72px" lengthAdjust="spacingAndGlyphs">1e+04</text></g>
<g><text x="564.40" y="541.74" text-anchor="middle" style="font-family: Arial;font-size: 8.80px;fill: #4D4D4D;" textLength="24.72px" lengthAdjust="spacingAndGlyphs">1e+05</text></g>
<g><text x="337.59" y="554.20" text-anchor="middle" style="font-family: Arial;font-size: 11.00px;" textLength="50.36px" lengthAdjust="spacingAndGlyphs">Dose [M]</text></g>
<g><text transform="translate(13.36,276.84) rotate(-90.00)" text-anchor="middle" style="font-family: Arial;font-size: 11.00px;" textLength="57.87px" lengthAdjust="spacingAndGlyphs">Viability (%)</text></g>
<g><text x="653.59" y="243.48" style="font-family: Arial;font-size: 11.00px;" textLength="74.02px" lengthAdjust="spacingAndGlyphs">Patient / Group</text></g>
<circle cx="662.23" cy="258.76" r="2.06" style="stroke-width: 0.71;stroke: #F8766D;stroke-opacity: 0.70;fill: #F8766D;fill-opacity: 0.70;"/>
<line x1="655.32" y1="258.76" x2="669.14" y2="258.76" style="stroke-width: 1.71;stroke: #F8766D;stroke-linecap: butt;"/>
<circle cx="662.23" cy="276.04" r="2.06" style="stroke-width: 0.71;stroke: #7CAE00;stroke-opacity: 0.70;fill: #7CAE00;fill-opacity: 0.70;"/>
<line x1="655.32" y1="276.04" x2="669.14" y2="276.04" style="stroke-width: 1.71;stroke: #7CAE00;stroke-linecap: butt;"/>
<circle cx="662.23" cy="293.32" r="2.06" style="stroke-width: 0.71;stroke: #00BFC4;stroke-opacity: 0.70;fill: #00BFC4;fill-opacity: 0.70;"/>
<line x1="655.32" y1="293.32" x2="669.14" y2="293.32" style="stroke-width: 1.71;stroke: #00BFC4;stroke-linecap: butt;"/>
<circle cx="662.23" cy="310.60" r="2.06" style="stroke-width: 0.71;stroke: #C77CFF;stroke-opacity: 0.70;fill: #C77CFF;fill-opacity: 0.70;"/>
<line x1="655.32" y1="310.60" x2="669.14" y2="310.60" style="stroke-width: 1.71;stroke: #C77CFF;stroke-linecap: butt;"/>
<g><text x="676.35" y="261.91" style="font-family: Arial;font-size: 8.80px;" textLength="68.00px" lengthAdjust="spacingAndGlyphs">ASC397.ASC397</text></g>
<g><text x="676.35" y="279.19" style="font-family: Arial;font-size: 8.80px;" textLength="81.69px" lengthAdjust="spacingAndGlyphs">ASC397.ASC397cse</text></g>
<g><text x="676.35" y="296.47" style="font-family: Arial;font-size: 8.80px;" textLength="68.00px" lengthAdjust="spacingAndGlyphs">ASC399.ASC399</text></g>
<g><text x="676.35" y="313.75" style="font-family: Arial;font-size: 8.80px;" textLength="81.69px" lengthAdjust="spacingAndGlyphs">ASC399.ASC399cse</text></g>
<g><text x="38.03" y="14.93" style="font-family: Arial;font-size: 13.20px;" textLength="242.68px" lengthAdjust="spacingAndGlyphs">KBrO3_NAC across patients &amp; conditions</text></g>
</g>
</svg>