<svg xmlns="http://www.w3.org/2000/svg" xmlns:xlink="http://www.w3.org/1999/xlink" class="httpgd" width="769.00" height="562.00" viewBox="0 0 769.00 562.00">
<defs>
  <style type='text/css'><![CDATA[
    .httpgd line, .httpgd polyline, .httpgd polygon, .httpgd path, .httpgd rect, .httpgd circle {
      fill: none;
      stroke: #000000;
      stroke-linecap: round;
      stroke-linejoin: round;
      stroke-miterlimit: 10.00;
    }
  ]]></style>
<clipPath id="c0"><rect x="0.00" y="0.00" width="769.00" height="562.00"/></clipPath>
<clipPath id="c1"><rect x="38.03" y="23.18" width="599.12" height="507.33"/></clipPath>
<clipPath id="c2"><rect x="0.00" y="0.00" width="769.00" height="562.00"/></clipPath>
</defs>
<rect width="100%" height="100%" style="stroke: none;fill: #FFFFFF;"/>
<g clip-path="url(#c0)">
</g><g clip-path="url(#c1)">
<polyline points="38.03,507.44 637.15,507.44" style="stroke-width: 1.07;stroke: #EBEBEB;stroke-linecap: butt;"/>
<polyline points="38.03,392.14 637.15,392.14" style="stroke-width: 1.07;stroke: #EBEBEB;stroke-linecap: butt;"/>
<polyline points="38.03,276.84 637.15,276.84" style="stroke-width: 1.07;stroke: #EBEBEB;stroke-linecap: butt;"/>
<polyline points="38.03,161.54 637.15,161.54" style="stroke-width: 1.07;stroke: #EBEBEB;stroke-linecap: butt;"/>
<polyline points="38.03,46.24 637.15,46.24" style="stroke-width: 1.07;stroke: #EBEBEB;stroke-linecap: butt;"/>
<polyline points="110.78,530.50 110.78,23.18" style="stroke-width: 1.07;stroke: #EBEBEB;stroke-linecap: butt;"/>
<polyline points="261.99,530.50 261.99,23.18" style="stroke-width: 1.07;stroke: #EBEBEB;stroke-linecap: butt;"/>
<polyline points="413.20,530.50 413.20,23.18" style="stroke-width: 1.07;stroke: #EBEBEB;stroke-linecap: butt;"/>
<polyline points="564.40,530.50 564.40,23.18" style="stroke-width: 1.07;stroke: #EBEBEB;stroke-linecap: butt;"/>
<polygon points="65.27,81.76 68.00,81.76 70.74,81.76 73.48,81.76 76.21,81.76 78.95,81.76 81.69,81.76 84.43,81.76 87.16,81.76 89.90,81.76 92.64,81.76 95.37,81.76 98.11,81.76 100.85,81.77 103.58,81.78 106.32,81.79 109.06,81.81 111.79,81.82 114.53,81.85 117.27,81.87 120.01,81.89 122.74,81.89 125.48,81.89 128.22,81.89 130.95,81.89 133.69,81.89 136.43,81.89 139.16,81.89 141.90,81.89 144.64,81.94 147.38,81.94 150.11,81.94 152.85,81.94 155.59,82.00 158.32,82.04 161.06,82.04 163.80,82.09 166.53,82.19 169.27,82.19 172.01,82.19 174.74,82.19 177.48,82.19 180.22,82.24 182.96,82.27 185.69,82.31 188.43,82.31 191.17,82.31 193.90,82.37 196.64,82.41 199.38,82.48 202.11,82.56 204.85,82.68 207.59,82.88 210.32,83.14 213.06,83.41 215.80,83.75 218.54,84.47 221.27,85.18 224.01,86.85 226.75,89.36 229.48,93.43 232.22,99.97 234.96,110.10 237.69,126.40 240.43,147.36 243.17,174.54 245.91,203.34 248.64,231.25 251.38,257.76 254.12,278.93 256.85,293.66 259.59,300.85 262.33,305.99 265.06,311.06 267.80,315.94 270.54,320.99 273.27,326.43 276.01,331.79 278.75,337.12 281.49,342.31 284.22,347.39 286.96,352.40 289.70,357.36 292.43,362.25 295.17,367.05 297.91,371.77 300.64,376.40 303.38,380.95 306.12,385.41 308.86,389.78 311.59,394.05 314.33,398.22 317.07,402.29 319.80,406.27 322.54,410.14 325.28,413.90 328.01,417.56 330.75,421.12 333.49,424.57 336.22,427.92 338.96,431.17 341.70,434.31 344.44,437.35 347.17,440.28 349.91,443.12 352.65,445.86 355.38,448.50 358.12,451.05 360.86,453.50 363.59,455.86 366.33,458.14 369.07,460.32 371.80,462.42 374.54,464.44 377.28,466.38 380.02,468.24 382.75,470.02 385.49,471.73 388.23,473.37 390.96,474.94 393.70,476.45 396.44,477.89 399.17,479.27 401.91,480.59 404.65,481.85 407.39,483.05 410.12,484.20 412.86,485.30 415.60,486.36 418.33,487.36 421.07,488.32 423.81,489.23 426.54,490.11 429.28,490.94 432.02,491.73 434.75,492.49 437.49,493.21 440.23,493.90 442.97,494.56 445.70,495.18 448.44,495.78 451.18,496.35 453.91,496.89 456.65,497.41 459.39,497.90 462.12,498.36 464.86,498.81 467.60,499.23 470.34,499.63 473.07,500.02 475.81,500.38 478.55,500.73 481.28,501.06 484.02,501.38 486.76,501.68 489.49,501.96 492.23,502.23 494.97,502.49 497.70,502.73 500.44,502.97 503.18,503.19 505.92,503.40 508.65,503.60 511.39,503.79 514.13,503.97 516.86,504.14 519.60,504.31 522.34,504.46 525.07,504.61 527.81,504.75 530.55,504.89 533.28,505.01 536.02,505.14 538.76,505.25 541.50,505.36 544.23,505.46 546.97,505.56 549.71,505.66 552.44,505.74 555.18,505.83 557.92,505.91 560.65,505.99 563.39,506.06 566.13,506.13 568.87,506.19 571.60,506.26 574.34,506.32 577.08,506.37 579.81,506.43 582.55,506.48 585.29,506.52 588.02,506.57 590.76,506.61 593.50,506.66 596.23,506.69 598.97,506.73 601.71,506.77 604.45,506.80 607.18,506.83 609.92,506.86 609.92,507.44 607.18,507.44 604.45,507.44 601.71,507.44 598.97,507.44 596.23,507.44 593.50,507.44 590.76,507.44 588.02,507.44 585.29,507.44 582.55,507.44 579.81,507.44 577.08,507.44 574.34,507.44 571.60,507.44 568.87,507.44 566.13,507.44 563.39,507.44 560.65,507.44 557.92,507.44 555.18,507.44 552.44,507.44 549.71,507.44 546.97,507.44 544.23,507.44 541.50,507.44 538.76,507.44 536.02,507.44 533.28,507.44 530.55,507.44 527.81,507.44 525.07,507.44 522.34,507.44 519.60,507.44 516.86,507.44 514.13,507.44 511.39,507.44 508.65,507.44 505.92,507.44 503.18,507.44 500.44,507.44 497.70,507.44 494.97,507.44 492.23,507.44 489.49,507.44 486.76,507.44 484.02,507.44 481.28,507.44 478.55,507.44 475.81,507.44 473.07,507.44 470.34,507.44 467.60,507.44 464.86,507.44 462.12,507.44 459.39,507.44 456.65,507.44 453.91,507.44 451.18,507.44 448.44,507.44 445.70,507.44 442.97,507.44 440.23,507.44 437.49,507.44 434.75,507.44 432.02,507.44 429.28,507.44 426.54,507.44 423.81,507.44 421.07,507.44 418.33,507.44 415.60,507.44 412.86,507.44 410.12,507.44 407.39,507.44 404.65,507.44 401.91,507.44 399.17,507.44 396.44,507.44 393.70,507.44 390.96,507.44 388.23,507.44 385.49,507.44 382.75,507.44 380.02,507.44 377.28,507.44 374.54,507.44 371.80,507.44 369.07,507.44 366.33,507.44 363.59,507.44 360.86,507.44 358.12,507.44 355.38,507.44 352.65,507.44 349.91,507.44 347.17,507.44 344.44,507.44 341.70,507.44 338.96,507.44 336.22,507.44 333.49,507.44 330.75,507.44 328.01,507.44 325.28,507.44 322.54,507.44 319.80,507.44 317.07,507.44 314.33,507.44 311.59,507.44 308.86,507.44 306.12,507.44 303.38,507.44 300.64,507.44 297.91,507.44 295.17,507.44 292.43,507.44 289.70,507.44 286.96,507.44 284.22,507.44 281.49,507.44 278.75,507.44 276.01,507.44 273.27,507.44 270.54,507.44 267.80,507.44 265.06,507.44 262.33,507.44 259.59,507.44 256.85,507.44 254.12,507.44 251.38,507.44 248.64,507.44 245.91,507.44 243.17,507.44 240.43,507.44 237.69,507.44 234.96,507.44 232.22,507.44 229.48,507.44 226.75,507.44 224.01,507.43 221.27,507.37 218.54,506.93 215.80,503.95 213.06,484.36 210.32,387.16 207.59,281.59 204.85,247.87 202.11,211.27 199.38,197.04 196.64,190.91 193.90,187.14 191.17,183.47 188.43,179.91 185.69,176.45 182.96,173.10 180.22,169.85 177.48,166.72 174.74,163.70 172.01,160.77 169.27,157.95 166.53,155.23 163.80,152.60 161.06,150.07 158.32,147.64 155.59,145.29 152.85,143.04 150.11,140.87 147.38,138.79 144.64,136.80 141.90,134.88 139.16,133.04 136.43,131.28 133.69,129.59 130.95,127.97 128.22,126.42 125.48,124.94 122.74,123.52 120.01,122.16 117.27,120.86 114.53,119.62 111.79,118.44 109.06,117.31 106.32,116.23 103.58,115.20 100.85,114.21 98.11,113.36 95.37,112.71 92.64,112.42 89.90,112.42 87.16,112.42 84.43,111.97 81.69,111.93 78.95,111.90 76.21,111.48 73.48,111.16 70.74,111.11 68.00,110.94 65.27,110.84" style="stroke-width: 0.00;stroke: none;stroke-linecap: butt;fill: #F8766D;fill-opacity: 0.20;" />
<polyline points="65.27,81.76 68.00,81.76 70.74,81.76 73.48,81.76 76.21,81.76 78.95,81.76 81.69,81.76 84.43,81.76 87.16,81.76 89.90,81.76 92.64,81.76 95.37,81.76 98.11,81.76 100.85,81.77 103.58,81.78 106.32,81.79 109.06,81.81 111.79,81.82 114.53,81.85 117.27,81.87 120.01,81.89 122.74,81.89 125.48,81.89 128.22,81.89 130.95,81.89 133.69,81.89 136.43,81.89 139.16,81.89 141.90,81.89 144.64,81.94 147.38,81.94 150.11,81.94 152.85,81.94 155.59,82.00 158.32,82.04 161.06,82.04 163.80,82.09 166.53,82.19 169.27,82.19 172.01,82.19 174.74,82.19 177.48,82.19 180.22,82.24 182.96,82.27 185.69,82.31 188.43,82.31 191.17,82.31 193.90,82.37 196.64,82.41 199.38,82.48 202.11,82.56 204.85,82.68 207.59,82.88 210.32,83.14 213.06,83.41 215.80,83.75 218.54,84.47 221.27,85.18 224.01,86.85 226.75,89.36 229.48,93.43 232.22,99.97 234.96,110.10 237.69,126.40 240.43,147.36 243.17,174.54 245.91,203.34 248.64,231.25 251.38,257.76 254.12,278.93 256.85,293.66 259.59,300.85 262.33,305.99 265.06,311.06 267.80,315.94 270.54,320.99 273.27,326.43 276.01,331.79 278.75,337.12 281.49,342.31 284.22,347.39 286.96,352.40 289.70,357.36 292.43,362.25 295.17,367.05 297.91,371.77 300.64,376.40 303.38,380.95 306.12,385.41 308.86,389.78 311.59,394.05 314.33,398.22 317.07,402.29 319.80,406.27 322.54,410.14 325.28,413.90 328.01,417.56 330.75,421.12 333.49,424.57 336.22,427.92 338.96,431.17 341.70,434.31 344.44,437.35 347.17,440.28 349.91,443.12 352.65,445.86 355.38,448.50 358.12,451.05 360.86,453.50 363.59,455.86 366.33,458.14 369.07,460.32 371.80,462.42 374.54,464.44 377.28,466.38 380.02,468.24 382.75,470.02 385.49,471.73 388.23,473.37 390.96,474.94 393.70,476.45 396.44,477.89 399.17,479.27 401.91,480.59 404.65,481.85 407.39,483.05 410.12,484.20 412.86,485.30 415.60,486.36 418.33,487.36 421.07,488.32 423.81,489.23 426.54,490.11 429.28,490.94 432.02,491.73 434.75,492.49 437.49,493.21 440.23,493.90 442.97,494.56 445.70,495.18 448.44,495.78 451.18,496.35 453.91,496.89 456.65,497.41 459.39,497.90 462.12,498.36 464.86,498.81 467.60,499.23 470.34,499.63 473.07,500.02 475.81,500.38 478.55,500.73 481.28,501.06 484.02,501.38 486.76,501.68 489.49,501.96 492.23,502.23 494.97,502.49 497.70,502.73 500.44,502.97 503.18,503.19 505.92,503.40 508.65,503.60 511.39,503.79 514.13,503.97 516.86,504.14 519.60,504.31 522.34,504.46 525.07,504.61 527.81,504.75 530.55,504.89 533.28,505.01 536.02,505.14 538.76,505.25 541.50,505.36 544.23,505.46 546.97,505.56 549.71,505.66 552.44,505.74 555.18,505.83 557.92,505.91 560.65,505.99 563.39,506.06 566.13,506.13 568.87,506.19 571.60,506.26 574.34,506.32 577.08,506.37 579.81,506.43 582.55,506.48 585.29,506.52 588.02,506.57 590.76,506.61 593.50,506.66 596.23,506.69 598.97,506.73 601.71,506.77 604.45,506.80 607.18,506.83 609.92,506.86" style="stroke-width: 1.07;stroke: none;stroke-linecap: butt;"/>
<polyline points="609.92,507.44 607.18,507.44 604.45,507.44 601.71,507.44 598.97,507.44 596.23,507.44 593.50,507.44 590.76,507.44 588.02,507.44 585.29,507.44 582.55,507.44 579.81,507.44 577.08,507.44 574.34,507.44 571.60,507.44 568.87,507.44 566.13,507.44 563.39,507.44 560.65,507.44 557.92,507.44 555.18,507.44 552.44,507.44 549.71,507.44 546.97,507.44 544.23,507.44 541.50,507.44 538.76,507.44 536.02,507.44 533.28,507.44 530.55,507.44 527.81,507.44 525.07,507.44 522.34,507.44 519.60,507.44 516.86,507.44 514.13,507.44 511.39,507.44 508.65,507.44 505.92,507.44 503.18,507.44 500.44,507.44 497.70,507.44 494.97,507.44 492.23,507.44 489.49,507.44 486.76,507.44 484.02,507.44 481.28,507.44 478.55,507.44 475.81,507.44 473.07,507.44 470.34,507.44 467.60,507.44 464.86,507.44 462.12,507.44 459.39,507.44 456.65,507.44 453.91,507.44 451.18,507.44 448.44,507.44 445.70,507.44 442.97,507.44 440.23,507.44 437.49,507.44 434.75,507.44 432.02,507.44 429.28,507.44 426.54,507.44 423.81,507.44 421.07,507.44 418.33,507.44 415.60,507.44 412.86,507.44 410.12,507.44 407.39,507.44 404.65,507.44 401.91,507.44 399.17,507.44 396.44,507.44 393.70,507.44 390.96,507.44 388.23,507.44 385.49,507.44 382.75,507.44 380.02,507.44 377.28,507.44 374.54,507.44 371.80,507.44 369.07,507.44 366.33,507.44 363.59,507.44 360.86,507.44 358.12,507.44 355.38,507.44 352.65,507.44 349.91,507.44 347.17,507.44 344.44,507.44 341.70,507.44 338.96,507.44 336.22,507.44 333.49,507.44 330.75,507.44 328.01,507.44 325.28,507.44 322.54,507.44 319.80,507.44 317.07,507.44 314.33,507.44 311.59,507.44 308.86,507.44 306.12,507.44 303.38,507.44 300.64,507.44 297.91,507.44 295.17,507.44 292.43,507.44 289.70,507.44 286.96,507.44 284.22,507.44 281.49,507.44 278.75,507.44 276.01,507.44 273.27,507.44 270.54,507.44 267.80,507.44 265.06,507.44 262.33,507.44 259.59,507.44 256.85,507.44 254.12,507.44 251.38,507.44 248.64,507.44 245.91,507.44 243.17,507.44 240.43,507.44 237.69,507.44 234.96,507.44 232.22,507.44 229.48,507.44 226.75,507.44 224.01,507.43 221.27,507.37 218.54,506.93 215.80,503.95 213.06,484.36 210.32,387.16 207.59,281.59 204.85,247.87 202.11,211.27 199.38,197.04 196.64,190.91 193.90,187.14 191.17,183.47 188.43,179.91 185.69,176.45 182.96,173.10 180.22,169.85 177.48,166.72 174.74,163.70 172.01,160.77 169.27,157.95 166.53,155.23 163.80,152.60 161.06,150.07 158.32,147.64 155.59,145.29 152.85,143.04 150.11,140.87 147.38,138.79 144.64,136.80 141.90,134.88 139.16,133.04 136.43,131.28 133.69,129.59 130.95,127.97 128.22,126.42 125.48,124.94 122.74,123.52 120.01,122.16 117.27,120.86 114.53,119.62 111.79,118.44 109.06,117.31 106.32,116.23 103.58,115.20 100.85,114.21 98.11,113.36 95.37,112.71 92.64,112.42 89.90,112.42 87.16,112.42 84.43,111.97 81.69,111.93 78.95,111.90 76.21,111.48 73.48,111.16 70.74,111.11 68.00,110.94 65.27,110.84" style="stroke-width: 1.07;stroke: none;stroke-linecap: butt;"/>
<polygon points="65.27,70.63 68.00,70.63 70.74,70.69 73.48,70.78 76.21,70.78 78.95,70.78 81.69,70.78 84.43,70.78 87.16,70.78 89.90,70.78 92.64,70.83 95.37,70.92 98.11,70.92 100.85,70.92 103.58,70.92 106.32,70.92 109.06,70.92 111.79,70.96 114.53,71.02 117.27,71.08 120.01,71.08 122.74,71.08 125.48,71.08 128.22,71.08 130.95,71.08 133.69,71.08 136.43,71.08 139.16,71.08 141.90,71.08 144.64,71.10 147.38,71.24 150.11,71.35 152.85,71.35 155.59,71.35 158.32,71.35 161.06,71.35 163.80,71.51 166.53,71.51 169.27,71.51 172.01,71.51 174.74,71.59 177.48,71.59 180.22,71.63 182.96,71.63 185.69,71.63 188.43,71.63 191.17,71.73 193.90,71.84 196.64,71.93 199.38,72.35 202.11,72.40 204.85,72.82 207.59,73.19 210.32,74.01 213.06,74.86 215.80,75.70 218.54,77.22 221.27,79.64 224.01,83.24 226.75,88.32 229.48,95.20 232.22,103.83 234.96,114.66 237.69,130.19 240.43,148.78 243.17,171.51 245.91,195.43 248.64,221.85 251.38,245.22 254.12,264.23 256.85,280.51 259.59,291.98 262.33,298.99 265.06,304.21 267.80,307.71 270.54,311.15 273.27,314.99 276.01,317.62 278.75,320.52 281.49,323.54 284.22,325.98 286.96,328.99 289.70,331.91 292.43,334.82 295.17,337.72 297.91,340.61 300.64,343.70 303.38,346.87 306.12,350.15 308.86,353.25 311.59,356.05 314.33,358.87 317.07,361.94 319.80,364.92 322.54,367.73 325.28,370.26 328.01,372.76 330.75,375.24 333.49,377.76 336.22,380.36 338.96,382.94 341.70,385.38 344.44,387.82 347.17,390.26 349.91,392.68 352.65,395.08 355.38,397.53 358.12,399.95 360.86,402.33 363.59,404.68 366.33,406.99 369.07,409.27 371.80,411.51 374.54,413.71 377.28,415.88 380.02,418.01 382.75,420.12 385.49,422.19 388.23,424.22 390.96,426.22 393.70,428.18 396.44,430.10 399.17,431.99 401.91,433.84 404.65,435.66 407.39,437.44 410.12,439.18 412.86,440.89 415.60,442.56 418.33,444.20 421.07,445.81 423.81,447.38 426.54,448.92 429.28,450.42 432.02,451.90 434.75,453.34 437.49,454.74 440.23,456.12 442.97,457.47 445.70,458.78 448.44,460.06 451.18,461.32 453.91,462.55 456.65,463.74 459.39,464.91 462.12,466.05 464.86,467.17 467.60,468.25 470.34,469.31 473.07,470.35 475.81,471.36 478.55,472.34 481.28,473.30 484.02,474.24 486.76,475.15 489.49,476.04 492.23,476.90 494.97,477.75 497.70,478.57 500.44,479.37 503.18,480.15 505.92,480.92 508.65,481.66 511.39,482.38 514.13,483.08 516.86,483.76 519.60,484.43 522.34,485.08 525.07,485.71 527.81,486.32 530.55,486.92 533.28,487.50 536.02,488.07 538.76,488.62 541.50,489.16 544.23,489.68 546.97,490.18 549.71,490.68 552.44,491.16 555.18,491.62 557.92,492.08 560.65,492.52 563.39,492.95 566.13,493.36 568.87,493.77 571.60,494.16 574.34,494.55 577.08,494.92 579.81,495.28 582.55,495.63 585.29,495.98 588.02,496.31 590.76,496.63 593.50,496.94 596.23,497.25 598.97,497.55 601.71,497.83 604.45,498.11 607.18,498.38 609.92,498.65 609.92,507.44 607.18,507.44 604.45,507.44 601.71,507.44 598.97,507.44 596.23,507.44 593.50,507.44 590.76,507.44 588.02,507.44 585.29,507.44 582.55,507.44 579.81,507.44 577.08,507.44 574.34,507.44 571.60,507.44 568.87,507.44 566.13,507.44 563.39,507.44 560.65,507.44 557.92,507.44 555.18,507.44 552.44,507.44 549.71,507.44 546.97,507.44 544.23,507.44 541.50,507.44 538.76,507.44 536.02,507.44 533.28,507.44 530.55,507.44 527.81,507.44 525.07,507.44 522.34,507.44 519.60,507.44 516.86,507.44 514.13,507.44 511.39,507.44 508.65,507.44 505.92,507.44 503.18,507.44 500.44,507.44 497.70,507.44 494.97,507.44 492.23,507.44 489.49,507.44 486.76,507.44 484.02,507.44 481.28,507.44 478.55,507.44 475.81,507.44 473.07,507.44 470.34,507.44 467.60,507.44 464.86,507.44 462.12,507.44 459.39,507.44 456.65,507.44 453.91,507.44 451.18,507.44 448.44,507.44 445.70,507.44 442.97,507.44 440.23,507.44 437.49,507.44 434.75,507.44 432.02,507.44 429.28,507.44 426.54,507.44 423.81,507.44 421.07,507.44 418.33,507.44 415.60,507.44 412.86,507.44 410.12,507.44 407.39,507.44 404.65,507.44 401.91,507.44 399.17,507.44 396.44,507.44 393.70,507.44 390.96,507.44 388.23,507.44 385.49,507.44 382.75,507.44 380.02,507.44 377.28,507.44 374.54,507.44 371.80,507.44 369.07,507.44 366.33,507.44 363.59,507.44 360.86,507.44 358.12,507.44 355.38,507.44 352.65,507.44 349.91,507.44 347.17,507.44 344.44,507.44 341.70,507.44 338.96,507.44 336.22,507.44 333.49,507.44 330.75,507.44 328.01,507.44 325.28,507.44 322.54,507.44 319.80,507.44 317.07,507.44 314.33,507.44 311.59,507.44 308.86,507.44 306.12,507.44 303.38,507.44 300.64,507.44 297.91,507.44 295.17,507.44 292.43,507.44 289.70,507.44 286.96,507.44 284.22,507.44 281.49,507.44 278.75,507.44 276.01,507.44 273.27,507.44 270.54,507.44 267.80,507.44 265.06,507.44 262.33,507.44 259.59,507.44 256.85,507.44 254.12,507.44 251.38,507.44 248.64,507.44 245.91,507.44 243.17,507.44 240.43,507.44 237.69,507.44 234.96,507.44 232.22,507.44 229.48,507.44 226.75,507.44 224.01,507.44 221.27,507.44 218.54,507.44 215.80,507.42 213.06,507.34 210.32,506.94 207.59,505.02 204.85,495.96 202.11,463.77 199.38,370.83 196.64,284.35 193.90,269.57 191.17,261.22 188.43,254.83 185.69,252.27 182.96,246.60 180.22,231.52 177.48,226.92 174.74,221.42 172.01,219.12 169.27,212.28 166.53,207.74 163.80,205.45 161.06,203.20 158.32,200.34 155.59,198.14 152.85,195.96 150.11,193.82 147.38,190.32 144.64,184.18 141.90,177.72 139.16,174.16 136.43,172.09 133.69,170.06 130.95,167.93 128.22,165.95 125.48,164.01 122.74,162.13 120.01,160.31 117.27,158.72 114.53,157.02 111.79,155.33 109.06,153.65 106.32,152.01 103.58,150.40 100.85,148.82 98.11,147.28 95.37,145.77 92.64,144.29 89.90,142.97 87.16,141.88 84.43,140.77 81.69,139.65 78.95,138.82 76.21,138.49 73.48,137.99 70.74,137.07 68.00,136.12 65.27,135.12" style="stroke-width: 0.00;stroke: none;stroke-linecap: butt;fill: #7CAE00;fill-opacity: 0.20;" />
<polyline points="65.27,70.63 68.00,70.63 70.74,70.69 73.48,70.78 76.21,70.78 78.95,70.78 81.69,70.78 84.43,70.78 87.16,70.78 89.90,70.78 92.64,70.83 95.37,70.92 98.11,70.92 100.85,70.92 103.58,70.92 106.32,70.92 109.06,70.92 111.79,70.96 114.53,71.02 117.27,71.08 120.01,71.08 122.74,71.08 125.48,71.08 128.22,71.08 130.95,71.08 133.69,71.08 136.43,71.08 139.16,71.08 141.90,71.08 144.64,71.10 147.38,71.24 150.11,71.35 152.85,71.35 155.59,71.35 158.32,71.35 161.06,71.35 163.80,71.51 166.53,71.51 169.27,71.51 172.01,71.51 174.74,71.59 177.48,71.59 180.22,71.63 182.96,71.63 185.69,71.63 188.43,71.63 191.17,71.73 193.90,71.84 196.64,71.93 199.38,72.35 202.11,72.40 204.85,72.82 207.59,73.19 210.32,74.01 213.06,74.86 215.80,75.70 218.54,77.22 221.27,79.64 224.01,83.24 226.75,88.32 229.48,95.20 232.22,103.83 234.96,114.66 237.69,130.19 240.43,148.78 243.17,171.51 245.91,195.43 248.64,221.85 251.38,245.22 254.12,264.23 256.85,280.51 259.59,291.98 262.33,298.99 265.06,304.21 267.80,307.71 270.54,311.15 273.27,314.99 276.01,317.62 278.75,320.52 281.49,323.54 284.22,325.98 286.96,328.99 289.70,331.91 292.43,334.82 295.17,337.72 297.91,340.61 300.64,343.70 303.38,346.87 306.12,350.15 308.86,353.25 311.59,356.05 314.33,358.87 317.07,361.94 319.80,364.92 322.54,367.73 325.28,370.26 328.01,372.76 330.75,375.24 333.49,377.76 336.22,380.36 338.96,382.94 341.70,385.38 344.44,387.82 347.17,390.26 349.91,392.68 352.65,395.08 355.38,397.53 358.12,399.95 360.86,402.33 363.59,404.68 366.33,406.99 369.07,409.27 371.80,411.51 374.54,413.71 377.28,415.88 380.02,418.01 382.75,420.12 385.49,422.19 388.23,424.22 390.96,426.22 393.70,428.18 396.44,430.10 399.17,431.99 401.91,433.84 404.65,435.66 407.39,437.44 410.12,439.18 412.86,440.89 415.60,442.56 418.33,444.20 421.07,445.81 423.81,447.38 426.54,448.92 429.28,450.42 432.02,451.90 434.75,453.34 437.49,454.74 440.23,456.12 442.97,457.47 445.70,458.78 448.44,460.06 451.18,461.32 453.91,462.55 456.65,463.74 459.39,464.91 462.12,466.05 464.86,467.17 467.60,468.25 470.34,469.31 473.07,470.35 475.81,471.36 478.55,472.34 481.28,473.30 484.02,474.24 486.76,475.15 489.49,476.04 492.23,476.90 494.97,477.75 497.70,478.57 500.44,479.37 503.18,480.15 505.92,480.92 508.65,481.66 511.39,482.38 514.13,483.08 516.86,483.76 519.60,484.43 522.34,485.08 525.07,485.71 527.81,486.32 530.55,486.92 533.28,487.50 536.02,488.07 538.76,488.62 541.50,489.16 544.23,489.68 546.97,490.18 549.71,490.68 552.44,491.16 555.18,491.62 557.92,492.08 560.65,492.52 563.39,492.95 566.13,493.36 568.87,493.77 571.60,494.16 574.34,494.55 577.08,494.92 579.81,495.28 582.55,495.63 585.29,495.98 588.02,496.31 590.76,496.63 593.50,496.94 596.23,497.25 598.97,497.55 601.71,497.83 604.45,498.11 607.18,498.38 609.92,498.65" style="stroke-width: 1.07;stroke: none;stroke-linecap: butt;"/>
<polyline points="609.92,507.44 607.18,507.44 604.45,507.44 601.71,507.44 598.97,507.44 596.23,507.44 593.50,507.44 590.76,507.44 588.02,507.44 585.29,507.44 582.55,507.44 579.81,507.44 577.08,507.44 574.34,507.44 571.60,507.44 568.87,507.44 566.13,507.44 563.39,507.44 560.65,507.44 557.92,507.44 555.18,507.44 552.44,507.44 549.71,507.44 546.97,507.44 544.23,507.44 541.50,507.44 538.76,507.44 536.02,507.44 533.28,507.44 530.55,507.44 527.81,507.44 525.07,507.44 522.34,507.44 519.60,507.44 516.86,507.44 514.13,507.44 511.39,507.44 508.65,507.44 505.92,507.44 503.18,507.44 500.44,507.44 497.70,507.44 494.97,507.44 492.23,507.44 489.49,507.44 486.76,507.44 484.02,507.44 481.28,507.44 478.55,507.44 475.81,507.44 473.07,507.44 470.34,507.44 467.60,507.44 464.86,507.44 462.12,507.44 459.39,507.44 456.65,507.44 453.91,507.44 451.18,507.44 448.44,507.44 445.70,507.44 442.97,507.44 440.23,507.44 437.49,507.44 434.75,507.44 432.02,507.44 429.28,507.44 426.54,507.44 423.81,507.44 421.07,507.44 418.33,507.44 415.60,507.44 412.86,507.44 410.12,507.44 407.39,507.44 404.65,507.44 401.91,507.44 399.17,507.44 396.44,507.44 393.70,507.44 390.96,507.44 388.23,507.44 385.49,507.44 382.75,507.44 380.02,507.44 377.28,507.44 374.54,507.44 371.80,507.44 369.07,507.44 366.33,507.44 363.59,507.44 360.86,507.44 358.12,507.44 355.38,507.44 352.65,507.44 349.91,507.44 347.17,507.44 344.44,507.44 341.70,507.44 338.96,507.44 336.22,507.44 333.49,507.44 330.75,507.44 328.01,507.44 325.28,507.44 322.54,507.44 319.80,507.44 317.07,507.44 314.33,507.44 311.59,507.44 308.86,507.44 306.12,507.44 303.38,507.44 300.64,507.44 297.91,507.44 295.17,507.44 292.43,507.44 289.70,507.44 286.96,507.44 284.22,507.44 281.49,507.44 278.75,507.44 276.01,507.44 273.27,507.44 270.54,507.44 267.80,507.44 265.06,507.44 262.33,507.44 259.59,507.44 256.85,507.44 254.12,507.44 251.38,507.44 248.64,507.44 245.91,507.44 243.17,507.44 240.43,507.44 237.69,507.44 234.96,507.44 232.22,507.44 229.48,507.44 226.75,507.44 224.01,507.44 221.27,507.44 218.54,507.44 215.80,507.42 213.06,507.34 210.32,506.94 207.59,505.02 204.85,495.96 202.11,463.77 199.38,370.83 196.64,284.35 193.90,269.57 191.17,261.22 188.43,254.83 185.69,252.27 182.96,246.60 180.22,231.52 177.48,226.92 174.74,221.42 172.01,219.12 169.27,212.28 166.53,207.74 163.80,205.45 161.06,203.20 158.32,200.34 155.59,198.14 152.85,195.96 150.11,193.82 147.38,190.32 144.64,184.18 141.90,177.72 139.16,174.16 136.43,172.09 133.69,170.06 130.95,167.93 128.22,165.95 125.48,164.01 122.74,162.13 120.01,160.31 117.27,158.72 114.53,157.02 111.79,155.33 109.06,153.65 106.32,152.01 103.58,150.40 100.85,148.82 98.11,147.28 95.37,145.77 92.64,144.29 89.90,142.97 87.16,141.88 84.43,140.77 81.69,139.65 78.95,138.82 76.21,138.49 73.48,137.99 70.74,137.07 68.00,136.12 65.27,135.12" style="stroke-width: 1.07;stroke: none;stroke-linecap: butt;"/>
<polygon points="65.27,119.05 68.00,119.05 70.74,119.05 73.48,119.05 76.21,119.05 78.95,119.05 81.69,119.05 84.43,119.05 87.16,119.05 89.90,119.05 92.64,119.05 95.37,119.05 98.11,119.05 100.85,119.05 103.58,119.05 106.32,119.05 109.06,119.05 111.79,119.05 114.53,119.05 117.27,119.05 120.01,119.05 122.74,119.05 125.48,119.05 128.22,119.05 130.95,119.05 133.69,119.05 136.43,119.05 139.16,119.05 141.90,119.05 144.64,119.05 147.38,119.05 150.11,119.06 152.85,119.10 155.59,119.13 158.32,119.17 161.06,119.21 163.80,119.26 166.53,119.31 169.27,119.31 172.01,119.31 174.74,119.31 177.48,119.31 180.22,119.31 182.96,119.31 185.69,119.31 188.43,119.31 191.17,119.31 193.90,119.34 196.64,119.52 199.38,119.76 202.11,119.91 204.85,119.91 207.59,119.91 210.32,119.91 213.06,119.94 215.80,120.09 218.54,120.33 221.27,121.69 224.01,123.18 226.75,126.89 229.48,132.78 232.22,139.03 234.96,146.54 237.69,159.35 240.43,178.80 243.17,204.88 245.91,234.96 248.64,269.30 251.38,300.61 254.12,319.59 256.85,329.58 259.59,336.29 262.33,340.02 265.06,343.87 267.80,349.96 270.54,355.67 273.27,360.49 276.01,365.07 278.75,370.05 281.49,374.64 284.22,379.16 286.96,383.42 289.70,387.91 292.43,392.53 295.17,397.05 297.91,401.42 300.64,405.64 303.38,409.76 306.12,413.77 308.86,417.66 311.59,421.45 314.33,425.12 317.07,428.68 319.80,432.13 322.54,435.46 325.28,438.68 328.01,441.78 330.75,444.78 333.49,447.66 336.22,450.44 338.96,453.11 341.70,455.68 344.44,458.14 347.17,460.50 349.91,462.77 352.65,464.94 355.38,467.02 358.12,469.00 360.86,470.90 363.59,472.72 366.33,474.44 369.07,476.08 371.80,477.65 374.54,479.15 377.28,480.57 380.02,481.93 382.75,483.23 385.49,484.47 388.23,485.64 390.96,486.76 393.70,487.83 396.44,488.84 399.17,489.81 401.91,490.72 404.65,491.59 407.39,492.42 410.12,493.21 412.86,493.95 415.60,494.66 418.33,495.33 421.07,495.97 423.81,496.58 426.54,497.15 429.28,497.70 432.02,498.21 434.75,498.70 437.49,499.17 440.23,499.61 442.97,500.03 445.70,500.42 448.44,500.80 451.18,501.15 453.91,501.49 456.65,501.81 459.39,502.11 462.12,502.40 464.86,502.67 467.60,502.93 470.34,503.17 473.07,503.40 475.81,503.62 478.55,503.82 481.28,504.02 484.02,504.20 486.76,504.38 489.49,504.54 492.23,504.70 494.97,504.85 497.70,504.99 500.44,505.12 503.18,505.25 505.92,505.37 508.65,505.48 511.39,505.58 514.13,505.68 516.86,505.78 519.60,505.87 522.34,505.96 525.07,506.04 527.81,506.11 530.55,506.18 533.28,506.25 536.02,506.32 538.76,506.38 541.50,506.44 544.23,506.49 546.97,506.54 549.71,506.59 552.44,506.64 555.18,506.68 557.92,506.72 560.65,506.76 563.39,506.80 566.13,506.83 568.87,506.87 571.60,506.90 574.34,506.93 577.08,506.96 579.81,506.98 582.55,507.01 585.29,507.03 588.02,507.05 590.76,507.07 593.50,507.09 596.23,507.11 598.97,507.13 601.71,507.15 604.45,507.16 607.18,507.18 609.92,507.19 609.92,507.44 607.18,507.44 604.45,507.44 601.71,507.44 598.97,507.44 596.23,507.44 593.50,507.44 590.76,507.44 588.02,507.44 585.29,507.44 582.55,507.44 579.81,507.44 577.08,507.44 574.34,507.44 571.60,507.44 568.87,507.44 566.13,507.44 563.39,507.44 560.65,507.44 557.92,507.44 555.18,507.44 552.44,507.44 549.71,507.44 546.97,507.44 544.23,507.44 541.50,507.44 538.76,507.44 536.02,507.44 533.28,507.44 530.55,507.44 527.81,507.44 525.07,507.44 522.34,507.44 519.60,507.44 516.86,507.44 514.13,507.44 511.39,507.44 508.65,507.44 505.92,507.44 503.18,507.44 500.44,507.44 497.70,507.44 494.97,507.44 492.23,507.44 489.49,507.44 486.76,507.44 484.02,507.44 481.28,507.44 478.55,507.44 475.81,507.44 473.07,507.44 470.34,507.44 467.60,507.44 464.86,507.44 462.12,507.44 459.39,507.44 456.65,507.44 453.91,507.44 451.18,507.44 448.44,507.44 445.70,507.44 442.97,507.44 440.23,507.44 437.49,507.44 434.75,507.44 432.02,507.44 429.28,507.44 426.54,507.44 423.81,507.44 421.07,507.44 418.33,507.44 415.60,507.44 412.86,507.44 410.12,507.44 407.39,507.44 404.65,507.44 401.91,507.44 399.17,507.44 396.44,507.44 393.70,507.44 390.96,507.44 388.23,507.44 385.49,507.44 382.75,507.44 380.02,507.44 377.28,507.44 374.54,507.44 371.80,507.44 369.07,507.44 366.33,507.44 363.59,507.44 360.86,507.44 358.12,507.44 355.38,507.44 352.65,507.44 349.91,507.44 347.17,507.44 344.44,507.44 341.70,507.44 338.96,507.44 336.22,507.44 333.49,507.44 330.75,507.44 328.01,507.44 325.28,507.44 322.54,507.44 319.80,507.44 317.07,507.44 314.33,507.44 311.59,507.44 308.86,507.44 306.12,507.44 303.38,507.44 300.64,507.44 297.91,507.44 295.17,507.44 292.43,507.44 289.70,507.44 286.96,507.44 284.22,507.44 281.49,507.44 278.75,507.44 276.01,507.44 273.27,507.44 270.54,507.44 267.80,507.44 265.06,507.44 262.33,507.44 259.59,507.44 256.85,507.44 254.12,507.44 251.38,507.44 248.64,507.44 245.91,507.44 243.17,507.44 240.43,507.43 237.69,507.35 234.96,506.82 232.22,503.31 229.48,481.67 226.75,387.16 224.01,299.08 221.27,269.83 218.54,261.64 215.80,256.48 213.06,252.11 210.32,247.86 207.59,243.73 204.85,239.71 202.11,235.79 199.38,231.99 196.64,228.38 193.90,224.97 191.17,221.70 188.43,218.56 185.69,215.44 182.96,212.17 180.22,209.00 177.48,205.94 174.74,202.99 172.01,200.16 169.27,197.94 166.53,196.20 163.80,194.11 161.06,192.09 158.32,190.46 155.59,190.18 152.85,189.27 150.11,187.54 147.38,186.20 144.64,186.20 141.90,186.13 139.16,185.69 136.43,185.69 133.69,185.11 130.95,185.11 128.22,185.11 125.48,185.11 122.74,185.07 120.01,184.97 117.27,184.95 114.53,184.95 111.79,184.75 109.06,184.72 106.32,184.69 103.58,184.67 100.85,184.65 98.11,184.63 95.37,184.61 92.64,184.60 89.90,184.59 87.16,184.57 84.43,184.56 81.69,184.34 78.95,183.89 76.21,183.87 73.48,183.85 70.74,183.84 68.00,183.83 65.27,183.81" style="stroke-width: 0.00;stroke: none;stroke-linecap: butt;fill: #00BFC4;fill-opacity: 0.20;" />
<polyline points="65.27,119.05 68.00,119.05 70.74,119.05 73.48,119.05 76.21,119.05 78.95,119.05 81.69,119.05 84.43,119.05 87.16,119.05 89.90,119.05 92.64,119.05 95.37,119.05 98.11,119.05 100.85,119.05 103.58,119.05 106.32,119.05 109.06,119.05 111.79,119.05 114.53,119.05 117.27,119.05 120.01,119.05 122.74,119.05 125.48,119.05 128.22,119.05 130.95,119.05 133.69,119.05 136.43,119.05 139.16,119.05 141.90,119.05 144.64,119.05 147.38,119.05 150.11,119.06 152.85,119.10 155.59,119.13 158.32,119.17 161.06,119.21 163.80,119.26 166.53,119.31 169.27,119.31 172.01,119.31 174.74,119.31 177.48,119.31 180.22,119.31 182.96,119.31 185.69,119.31 188.43,119.31 191.17,119.31 193.90,119.34 196.64,119.52 199.38,119.76 202.11,119.91 204.85,119.91 207.59,119.91 210.32,119.91 213.06,119.94 215.80,120.09 218.54,120.33 221.27,121.69 224.01,123.18 226.75,126.89 229.48,132.78 232.22,139.03 234.96,146.54 237.69,159.35 240.43,178.80 243.17,204.88 245.91,234.96 248.64,269.30 251.38,300.61 254.12,319.59 256.85,329.58 259.59,336.29 262.33,340.02 265.06,343.87 267.80,349.96 270.54,355.67 273.27,360.49 276.01,365.07 278.75,370.05 281.49,374.64 284.22,379.16 286.96,383.42 289.70,387.91 292.43,392.53 295.17,397.05 297.91,401.42 300.64,405.64 303.38,409.76 306.12,413.77 308.86,417.66 311.59,421.45 314.33,425.12 317.07,428.68 319.80,432.13 322.54,435.46 325.28,438.68 328.01,441.78 330.75,444.78 333.49,447.66 336.22,450.44 338.96,453.11 341.70,455.68 344.44,458.14 347.17,460.50 349.91,462.77 352.65,464.94 355.38,467.02 358.12,469.00 360.86,470.90 363.59,472.72 366.33,474.44 369.07,476.08 371.80,477.65 374.54,479.15 377.28,480.57 380.02,481.93 382.75,483.23 385.49,484.47 388.23,485.64 390.96,486.76 393.70,487.83 396.44,488.84 399.17,489.81 401.91,490.72 404.65,491.59 407.39,492.42 410.12,493.21 412.86,493.95 415.60,494.66 418.33,495.33 421.07,495.97 423.81,496.58 426.54,497.15 429.28,497.70 432.02,498.21 434.75,498.70 437.49,499.17 440.23,499.61 442.97,500.03 445.70,500.42 448.44,500.80 451.18,501.15 453.91,501.49 456.65,501.81 459.39,502.11 462.12,502.40 464.86,502.67 467.60,502.93 470.34,503.17 473.07,503.40 475.81,503.62 478.55,503.82 481.28,504.02 484.02,504.20 486.76,504.38 489.49,504.54 492.23,504.70 494.97,504.85 497.70,504.99 500.44,505.12 503.18,505.25 505.92,505.37 508.65,505.48 511.39,505.58 514.13,505.68 516.86,505.78 519.60,505.87 522.34,505.96 525.07,506.04 527.81,506.11 530.55,506.18 533.28,506.25 536.02,506.32 538.76,506.38 541.50,506.44 544.23,506.49 546.97,506.54 549.71,506.59 552.44,506.64 555.18,506.68 557.92,506.72 560.65,506.76 563.39,506.80 566.13,506.83 568.87,506.87 571.60,506.90 574.34,506.93 577.08,506.96 579.81,506.98 582.55,507.01 585.29,507.03 588.02,507.05 590.76,507.07 593.50,507.09 596.23,507.11 598.97,507.13 601.71,507.15 604.45,507.16 607.18,507.18 609.92,507.19" style="stroke-width: 1.07;stroke: none;stroke-linecap: butt;"/>
<polyline points="609.92,507.44 607.18,507.44 604.45,507.44 601.71,507.44 598.97,507.44 596.23,507.44 593.50,507.44 590.76,507.44 588.02,507.44 585.29,507.44 582.55,507.44 579.81,507.44 577.08,507.44 574.34,507.44 571.60,507.44 568.87,507.44 566.13,507.44 563.39,507.44 560.65,507.44 557.92,507.44 555.18,507.44 552.44,507.44 549.71,507.44 546.97,507.44 544.23,507.44 541.50,507.44 538.76,507.44 536.02,507.44 533.28,507.44 530.55,507.44 527.81,507.44 525.07,507.44 522.34,507.44 519.60,507.44 516.86,507.44 514.13,507.44 511.39,507.44 508.65,507.44 505.92,507.44 503.18,507.44 500.44,507.44 497.70,507.44 494.97,507.44 492.23,507.44 489.49,507.44 486.76,507.44 484.02,507.44 481.28,507.44 478.55,507.44 475.81,507.44 473.07,507.44 470.34,507.44 467.60,507.44 464.86,507.44 462.12,507.44 459.39,507.44 456.65,507.44 453.91,507.44 451.18,507.44 448.44,507.44 445.70,507.44 442.97,507.44 440.23,507.44 437.49,507.44 434.75,507.44 432.02,507.44 429.28,507.44 426.54,507.44 423.81,507.44 421.07,507.44 418.33,507.44 415.60,507.44 412.86,507.44 410.12,507.44 407.39,507.44 404.65,507.44 401.91,507.44 399.17,507.44 396.44,507.44 393.70,507.44 390.96,507.44 388.23,507.44 385.49,507.44 382.75,507.44 380.02,507.44 377.28,507.44 374.54,507.44 371.80,507.44 369.07,507.44 366.33,507.44 363.59,507.44 360.86,507.44 358.12,507.44 355.38,507.44 352.65,507.44 349.91,507.44 347.17,507.44 344.44,507.44 341.70,507.44 338.96,507.44 336.22,507.44 333.49,507.44 330.75,507.44 328.01,507.44 325.28,507.44 322.54,507.44 319.80,507.44 317.07,507.44 314.33,507.44 311.59,507.44 308.86,507.44 306.12,507.44 303.38,507.44 300.64,507.44 297.91,507.44 295.17,507.44 292.43,507.44 289.70,507.44 286.96,507.44 284.22,507.44 281.49,507.44 278.75,507.44 276.01,507.44 273.27,507.44 270.54,507.44 267.80,507.44 265.06,507.44 262.33,507.44 259.59,507.44 256.85,507.44 254.12,507.44 251.38,507.44 248.64,507.44 245.91,507.44 243.17,507.44 240.43,507.43 237.69,507.35 234.96,506.82 232.22,503.31 229.48,481.67 226.75,387.16 224.01,299.08 221.27,269.83 218.54,261.64 215.80,256.48 213.06,252.11 210.32,247.86 207.59,243.73 204.85,239.71 202.11,235.79 199.38,231.99 196.64,228.38 193.90,224.97 191.17,221.70 188.43,218.56 185.69,215.44 182.96,212.17 180.22,209.00 177.48,205.94 174.74,202.99 172.01,200.16 169.27,197.94 166.53,196.20 163.80,194.11 161.06,192.09 158.32,190.46 155.59,190.18 152.85,189.27 150.11,187.54 147.38,186.20 144.64,186.20 141.90,186.13 139.16,185.69 136.43,185.69 133.69,185.11 130.95,185.11 128.22,185.11 125.48,185.11 122.74,185.07 120.01,184.97 117.27,184.95 114.53,184.95 111.79,184.75 109.06,184.72 106.32,184.69 103.58,184.67 100.85,184.65 98.11,184.63 95.37,184.61 92.64,184.60 89.90,184.59 87.16,184.57 84.43,184.56 81.69,184.34 78.95,183.89 76.21,183.87 73.48,183.85 70.74,183.84 68.00,183.83 65.27,183.81" style="stroke-width: 1.07;stroke: none;stroke-linecap: butt;"/>
<polygon points="65.27,139.59 68.00,139.59 70.74,139.59 73.48,139.59 76.21,139.59 78.95,139.59 81.69,139.59 84.43,139.59 87.16,139.59 89.90,139.59 92.64,139.59 95.37,139.59 98.11,139.59 100.85,139.59 103.58,139.59 106.32,139.59 109.06,139.59 111.79,139.59 114.53,139.59 117.27,139.59 120.01,139.59 122.74,139.59 125.48,139.59 128.22,139.68 130.95,139.72 133.69,139.72 136.43,139.72 139.16,139.72 141.90,139.72 144.64,139.72 147.38,139.72 150.11,139.72 152.85,139.72 155.59,139.72 158.32,139.72 161.06,139.72 163.80,139.72 166.53,139.72 169.27,139.80 172.01,140.01 174.74,140.13 177.48,140.13 180.22,140.31 182.96,140.67 185.69,140.67 188.43,140.83 191.17,140.96 193.90,141.24 196.64,141.36 199.38,141.45 202.11,141.56 204.85,141.65 207.59,141.78 210.32,143.58 213.06,145.25 215.80,145.83 218.54,146.28 221.27,147.76 224.01,150.53 226.75,153.19 229.48,157.10 232.22,162.21 234.96,170.15 237.69,183.68 240.43,194.42 243.17,212.32 245.91,235.01 248.64,258.08 251.38,279.08 254.12,302.13 256.85,320.24 259.59,332.87 262.33,340.58 265.06,345.79 267.80,350.84 270.54,355.16 273.27,359.09 276.01,362.75 278.75,366.55 281.49,371.61 284.22,375.29 286.96,378.95 289.70,383.04 292.43,387.57 295.17,392.02 297.91,396.36 300.64,400.35 303.38,404.13 306.12,407.83 308.86,411.45 311.59,414.99 314.33,418.40 317.07,421.81 319.80,425.18 322.54,428.31 325.28,431.38 328.01,434.45 330.75,437.44 333.49,440.30 336.22,443.07 338.96,445.75 341.70,448.33 344.44,450.82 347.17,453.22 349.91,455.55 352.65,457.78 355.38,459.94 358.12,462.02 360.86,464.03 363.59,465.96 366.33,467.81 369.07,469.59 371.80,471.30 374.54,472.95 377.28,474.52 380.02,476.04 382.75,477.49 385.49,478.88 388.23,480.21 390.96,481.48 393.70,482.70 396.44,483.87 399.17,484.98 401.91,486.05 404.65,487.06 407.39,488.03 410.12,488.95 412.86,489.83 415.60,490.68 418.33,491.48 421.07,492.25 423.81,492.98 426.54,493.68 429.28,494.34 432.02,494.98 434.75,495.58 437.49,496.16 440.23,496.71 442.97,497.23 445.70,497.73 448.44,498.21 451.18,498.66 453.91,499.09 456.65,499.50 459.39,499.89 462.12,500.27 464.86,500.62 467.60,500.96 470.34,501.28 473.07,501.58 475.81,501.87 478.55,502.15 481.28,502.41 484.02,502.66 486.76,502.90 489.49,503.13 492.23,503.34 494.97,503.54 497.70,503.74 500.44,503.92 503.18,504.10 505.92,504.27 508.65,504.42 511.39,504.57 514.13,504.72 516.86,504.85 519.60,504.98 522.34,505.11 525.07,505.22 527.81,505.33 530.55,505.44 533.28,505.54 536.02,505.64 538.76,505.73 541.50,505.81 544.23,505.89 546.97,505.97 549.71,506.05 552.44,506.12 555.18,506.18 557.92,506.25 560.65,506.31 563.39,506.36 566.13,506.42 568.87,506.47 571.60,506.52 574.34,506.56 577.08,506.61 579.81,506.65 582.55,506.69 585.29,506.73 588.02,506.76 590.76,506.80 593.50,506.83 596.23,506.86 598.97,506.89 601.71,506.92 604.45,506.94 607.18,506.97 609.92,506.99 609.92,507.44 607.18,507.44 604.45,507.44 601.71,507.44 598.97,507.44 596.23,507.44 593.50,507.44 590.76,507.44 588.02,507.44 585.29,507.44 582.55,507.44 579.81,507.44 577.08,507.44 574.34,507.44 571.60,507.44 568.87,507.44 566.13,507.44 563.39,507.44 560.65,507.44 557.92,507.44 555.18,507.44 552.44,507.44 549.71,507.44 546.97,507.44 544.23,507.44 541.50,507.44 538.76,507.44 536.02,507.44 533.28,507.44 530.55,507.44 527.81,507.44 525.07,507.44 522.34,507.44 519.60,507.44 516.86,507.44 514.13,507.44 511.39,507.44 508.65,507.44 505.92,507.44 503.18,507.44 500.44,507.44 497.70,507.44 494.97,507.44 492.23,507.44 489.49,507.44 486.76,507.44 484.02,507.44 481.28,507.44 478.55,507.44 475.81,507.44 473.07,507.44 470.34,507.44 467.60,507.44 464.86,507.44 462.12,507.44 459.39,507.44 456.65,507.44 453.91,507.44 451.18,507.44 448.44,507.44 445.70,507.44 442.97,507.44 440.23,507.44 437.49,507.44 434.75,507.44 432.02,507.44 429.28,507.44 426.54,507.44 423.81,507.44 421.07,507.44 418.33,507.44 415.60,507.44 412.86,507.44 410.12,507.44 407.39,507.44 404.65,507.44 401.91,507.44 399.17,507.44 396.44,507.44 393.70,507.44 390.96,507.44 388.23,507.44 385.49,507.44 382.75,507.44 380.02,507.44 377.28,507.44 374.54,507.44 371.80,507.44 369.07,507.44 366.33,507.44 363.59,507.44 360.86,507.44 358.12,507.44 355.38,507.44 352.65,507.44 349.91,507.44 347.17,507.44 344.44,507.44 341.70,507.44 338.96,507.44 336.22,507.44 333.49,507.44 330.75,507.44 328.01,507.44 325.28,507.44 322.54,507.44 319.80,507.44 317.07,507.44 314.33,507.44 311.59,507.44 308.86,507.44 306.12,507.44 303.38,507.44 300.64,507.44 297.91,507.44 295.17,507.44 292.43,507.44 289.70,507.44 286.96,507.44 284.22,507.44 281.49,507.44 278.75,507.44 276.01,507.44 273.27,507.44 270.54,507.44 267.80,507.44 265.06,507.44 262.33,507.44 259.59,507.44 256.85,507.44 254.12,507.44 251.38,507.44 248.64,507.44 245.91,507.44 243.17,507.44 240.43,507.44 237.69,507.44 234.96,507.44 232.22,507.44 229.48,507.44 226.75,507.44 224.01,507.44 221.27,507.44 218.54,507.44 215.80,507.44 213.06,507.44 210.32,507.40 207.59,507.12 204.85,505.25 202.11,493.07 199.38,429.84 196.64,330.71 193.90,286.85 191.17,261.14 188.43,253.51 185.69,247.19 182.96,239.42 180.22,236.88 177.48,234.42 174.74,232.05 172.01,229.75 169.27,227.54 166.53,225.53 163.80,224.04 161.06,223.19 158.32,221.49 155.59,220.71 152.85,220.39 150.11,218.95 147.38,218.52 144.64,218.52 141.90,217.85 139.16,216.86 136.43,216.68 133.69,215.64 130.95,214.70 128.22,213.81 125.48,212.76 122.74,211.38 120.01,210.85 117.27,210.43 114.53,209.93 111.79,209.72 109.06,209.42 106.32,208.68 103.58,208.39 100.85,207.98 98.11,207.36 95.37,207.16 92.64,207.16 89.90,207.16 87.16,207.16 84.43,207.16 81.69,207.16 78.95,207.16 76.21,207.16 73.48,207.01 70.74,207.01 68.00,207.01 65.27,207.01" style="stroke-width: 0.00;stroke: none;stroke-linecap: butt;fill: #C77CFF;fill-opacity: 0.20;" />
<polyline points="65.27,139.59 68.00,139.59 70.74,139.59 73.48,139.59 76.21,139.59 78.95,139.59 81.69,139.59 84.43,139.59 87.16,139.59 89.90,139.59 92.64,139.59 95.37,139.59 98.11,139.59 100.85,139.59 103.58,139.59 106.32,139.59 109.06,139.59 111.79,139.59 114.53,139.59 117.27,139.59 120.01,139.59 122.74,139.59 125.48,139.59 128.22,139.68 130.95,139.72 133.69,139.72 136.43,139.72 139.16,139.72 141.90,139.72 144.64,139.72 147.38,139.72 150.11,139.72 152.85,139.72 155.59,139.72 158.32,139.72 161.06,139.72 163.80,139.72 166.53,139.72 169.27,139.80 172.01,140.01 174.74,140.13 177.48,140.13 180.22,140.31 182.96,140.67 185.69,140.67 188.43,140.83 191.17,140.96 193.90,141.24 196.64,141.36 199.38,141.45 202.11,141.56 204.85,141.65 207.59,141.78 210.32,143.58 213.06,145.25 215.80,145.83 218.54,146.28 221.27,147.76 224.01,150.53 226.75,153.19 229.48,157.10 232.22,162.21 234.96,170.15 237.69,183.68 240.43,194.42 243.17,212.32 245.91,235.01 248.64,258.08 251.38,279.08 254.12,302.13 256.85,320.24 259.59,332.87 262.33,340.58 265.06,345.79 267.80,350.84 270.54,355.16 273.27,359.09 276.01,362.75 278.75,366.55 281.49,371.61 284.22,375.29 286.96,378.95 289.70,383.04 292.43,387.57 295.17,392.02 297.91,396.36 300.64,400.35 303.38,404.13 306.12,407.83 308.86,411.45 311.59,414.99 314.33,418.40 317.07,421.81 319.80,425.18 322.54,428.31 325.28,431.38 328.01,434.45 330.75,437.44 333.49,440.30 336.22,443.07 338.96,445.75 341.70,448.33 344.44,450.82 347.17,453.22 349.91,455.55 352.65,457.78 355.38,459.94 358.12,462.02 360.86,464.03 363.59,465.96 366.33,467.81 369.07,469.59 371.80,471.30 374.54,472.95 377.28,474.52 380.02,476.04 382.75,477.49 385.49,478.88 388.23,480.21 390.96,481.48 393.70,482.70 396.44,483.87 399.17,484.98 401.91,486.05 404.65,487.06 407.39,488.03 410.12,488.95 412.86,489.83 415.60,490.68 418.33,491.48 421.07,492.25 423.81,492.98 426.54,493.68 429.28,494.34 432.02,494.98 434.75,495.58 437.49,496.16 440.23,496.71 442.97,497.23 445.70,497.73 448.44,498.21 451.18,498.66 453.91,499.09 456.65,499.50 459.39,499.89 462.12,500.27 464.86,500.62 467.60,500.96 470.34,501.28 473.07,501.58 475.81,501.87 478.55,502.15 481.28,502.41 484.02,502.66 486.76,502.90 489.49,503.13 492.23,503.34 494.97,503.54 497.70,503.74 500.44,503.92 503.18,504.10 505.92,504.27 508.65,504.42 511.39,504.57 514.13,504.72 516.86,504.85 519.60,504.98 522.34,505.11 525.07,505.22 527.81,505.33 530.55,505.44 533.28,505.54 536.02,505.64 538.76,505.73 541.50,505.81 544.23,505.89 546.97,505.97 549.71,506.05 552.44,506.12 555.18,506.18 557.92,506.25 560.65,506.31 563.39,506.36 566.13,506.42 568.87,506.47 571.60,506.52 574.34,506.56 577.08,506.61 579.81,506.65 582.55,506.69 585.29,506.73 588.02,506.76 590.76,506.80 593.50,506.83 596.23,506.86 598.97,506.89 601.71,506.92 604.45,506.94 607.18,506.97 609.92,506.99" style="stroke-width: 1.07;stroke: none;stroke-linecap: butt;"/>
<polyline points="609.92,507.44 607.18,507.44 604.45,507.44 601.71,507.44 598.97,507.44 596.23,507.44 593.50,507.44 590.76,507.44 588.02,507.44 585.29,507.44 582.55,507.44 579.81,507.44 577.08,507.44 574.34,507.44 571.60,507.44 568.87,507.44 566.13,507.44 563.39,507.44 560.65,507.44 557.92,507.44 555.18,507.44 552.44,507.44 549.71,507.44 546.97,507.44 544.23,507.44 541.50,507.44 538.76,507.44 536.02,507.44 533.28,507.44 530.55,507.44 527.81,507.44 525.07,507.44 522.34,507.44 519.60,507.44 516.86,507.44 514.13,507.44 511.39,507.44 508.65,507.44 505.92,507.44 503.18,507.44 500.44,507.44 497.70,507.44 494.97,507.44 492.23,507.44 489.49,507.44 486.76,507.44 484.02,507.44 481.28,507.44 478.55,507.44 475.81,507.44 473.07,507.44 470.34,507.44 467.60,507.44 464.86,507.44 462.12,507.44 459.39,507.44 456.65,507.44 453.91,507.44 451.18,507.44 448.44,507.44 445.70,507.44 442.97,507.44 440.23,507.44 437.49,507.44 434.75,507.44 432.02,507.44 429.28,507.44 426.54,507.44 423.81,507.44 421.07,507.44 418.33,507.44 415.60,507.44 412.86,507.44 410.12,507.44 407.39,507.44 404.65,507.44 401.91,507.44 399.17,507.44 396.44,507.44 393.70,507.44 390.96,507.44 388.23,507.44 385.49,507.44 382.75,507.44 380.02,507.44 377.28,507.44 374.54,507.44 371.80,507.44 369.07,507.44 366.33,507.44 363.59,507.44 360.86,507.44 358.12,507.44 355.38,507.44 352.65,507.44 349.91,507.44 347.17,507.44 344.44,507.44 341.70,507.44 338.96,507.44 336.22,507.44 333.49,507.44 330.75,507.44 328.01,507.44 325.28,507.44 322.54,507.44 319.80,507.44 317.07,507.44 314.33,507.44 311.59,507.44 308.86,507.44 306.12,507.44 303.38,507.44 300.64,507.44 297.91,507.44 295.17,507.44 292.43,507.44 289.70,507.44 286.96,507.44 284.22,507.44 281.49,507.44 278.75,507.44 276.01,507.44 273.27,507.44 270.54,507.44 267.80,507.44 265.06,507.44 262.33,507.44 259.59,507.44 256.85,507.44 254.12,507.44 251.38,507.44 248.64,507.44 245.91,507.44 243.17,507.44 240.43,507.44 237.69,507.44 234.96,507.44 232.22,507.44 229.48,507.44 226.75,507.44 224.01,507.44 221.27,507.44 218.54,507.44 215.80,507.44 213.06,507.44 210.32,507.40 207.59,507.12 204.85,505.25 202.11,493.07 199.38,429.84 196.64,330.71 193.90,286.85 191.17,261.14 188.43,253.51 185.69,247.19 182.96,239.42 180.22,236.88 177.48,234.42 174.74,232.05 172.01,229.75 169.27,227.54 166.53,225.53 163.80,224.04 161.06,223.19 158.32,221.49 155.59,220.71 152.85,220.39 150.11,218.95 147.38,218.52 144.64,218.52 141.90,217.85 139.16,216.86 136.43,216.68 133.69,215.64 130.95,214.70 128.22,213.81 125.48,212.76 122.74,211.38 120.01,210.85 117.27,210.43 114.53,209.93 111.79,209.72 109.06,209.42 106.32,208.68 103.58,208.39 100.85,207.98 98.11,207.36 95.37,207.16 92.64,207.16 89.90,207.16 87.16,207.16 84.43,207.16 81.69,207.16 78.95,207.16 76.21,207.16 73.48,207.01 70.74,207.01 68.00,207.01 65.27,207.01" style="stroke-width: 1.07;stroke: none;stroke-linecap: butt;"/>
<circle cx="65.27" cy="65.37" r="2.06" style="stroke-width: 0.71;stroke: #F8766D;stroke-opacity: 0.70;fill: #F8766D;fill-opacity: 0.70;"/>
<circle cx="65.27" cy="101.58" r="2.06" style="stroke-width: 0.71;stroke: #F8766D;stroke-opacity: 0.70;fill: #F8766D;fill-opacity: 0.70;"/>
<circle cx="65.27" cy="146.94" r="2.06" style="stroke-width: 0.71;stroke: #F8766D;stroke-opacity: 0.70;fill: #F8766D;fill-opacity: 0.70;"/>
<circle cx="65.27" cy="127.80" r="2.06" style="stroke-width: 0.71;stroke: #7CAE00;stroke-opacity: 0.70;fill: #7CAE00;fill-opacity: 0.70;"/>
<circle cx="65.27" cy="112.63" r="2.06" style="stroke-width: 0.71;stroke: #7CAE00;stroke-opacity: 0.70;fill: #7CAE00;fill-opacity: 0.70;"/>
<circle cx="65.27" cy="118.29" r="2.06" style="stroke-width: 0.71;stroke: #7CAE00;stroke-opacity: 0.70;fill: #7CAE00;fill-opacity: 0.70;"/>
<circle cx="65.27" cy="180.96" r="2.06" style="stroke-width: 0.71;stroke: #00BFC4;stroke-opacity: 0.70;fill: #00BFC4;fill-opacity: 0.70;"/>
<circle cx="65.27" cy="172.70" r="2.06" style="stroke-width: 0.71;stroke: #00BFC4;stroke-opacity: 0.70;fill: #00BFC4;fill-opacity: 0.70;"/>
<circle cx="65.27" cy="190.80" r="2.06" style="stroke-width: 0.71;stroke: #00BFC4;stroke-opacity: 0.70;fill: #00BFC4;fill-opacity: 0.70;"/>
<circle cx="65.27" cy="227.76" r="2.06" style="stroke-width: 0.71;stroke: #C77CFF;stroke-opacity: 0.70;fill: #C77CFF;fill-opacity: 0.70;"/>
<circle cx="65.27" cy="214.08" r="2.06" style="stroke-width: 0.71;stroke: #C77CFF;stroke-opacity: 0.70;fill: #C77CFF;fill-opacity: 0.70;"/>
<circle cx="65.27" cy="97.50" r="2.06" style="stroke-width: 0.71;stroke: #C77CFF;stroke-opacity: 0.70;fill: #C77CFF;fill-opacity: 0.70;"/>
<circle cx="156.30" cy="57.90" r="2.06" style="stroke-width: 0.71;stroke: #F8766D;stroke-opacity: 0.70;fill: #F8766D;fill-opacity: 0.70;"/>
<circle cx="156.30" cy="75.34" r="2.06" style="stroke-width: 0.71;stroke: #F8766D;stroke-opacity: 0.70;fill: #F8766D;fill-opacity: 0.70;"/>
<circle cx="156.30" cy="110.45" r="2.06" style="stroke-width: 0.71;stroke: #F8766D;stroke-opacity: 0.70;fill: #F8766D;fill-opacity: 0.70;"/>
<circle cx="156.30" cy="74.64" r="2.06" style="stroke-width: 0.71;stroke: #7CAE00;stroke-opacity: 0.70;fill: #7CAE00;fill-opacity: 0.70;"/>
<circle cx="156.30" cy="85.48" r="2.06" style="stroke-width: 0.71;stroke: #7CAE00;stroke-opacity: 0.70;fill: #7CAE00;fill-opacity: 0.70;"/>
<circle cx="156.30" cy="47.81" r="2.06" style="stroke-width: 0.71;stroke: #7CAE00;stroke-opacity: 0.70;fill: #7CAE00;fill-opacity: 0.70;"/>
<circle cx="156.30" cy="108.88" r="2.06" style="stroke-width: 0.71;stroke: #00BFC4;stroke-opacity: 0.70;fill: #00BFC4;fill-opacity: 0.70;"/>
<circle cx="156.30" cy="126.68" r="2.06" style="stroke-width: 0.71;stroke: #00BFC4;stroke-opacity: 0.70;fill: #00BFC4;fill-opacity: 0.70;"/>
<circle cx="156.30" cy="121.14" r="2.06" style="stroke-width: 0.71;stroke: #00BFC4;stroke-opacity: 0.70;fill: #00BFC4;fill-opacity: 0.70;"/>
<circle cx="156.30" cy="183.87" r="2.06" style="stroke-width: 0.71;stroke: #C77CFF;stroke-opacity: 0.70;fill: #C77CFF;fill-opacity: 0.70;"/>
<circle cx="156.30" cy="145.43" r="2.06" style="stroke-width: 0.71;stroke: #C77CFF;stroke-opacity: 0.70;fill: #C77CFF;fill-opacity: 0.70;"/>
<circle cx="156.30" cy="118.53" r="2.06" style="stroke-width: 0.71;stroke: #C77CFF;stroke-opacity: 0.70;fill: #C77CFF;fill-opacity: 0.70;"/>
<circle cx="247.34" cy="256.09" r="2.06" style="stroke-width: 0.71;stroke: #F8766D;stroke-opacity: 0.70;fill: #F8766D;fill-opacity: 0.70;"/>
<circle cx="247.34" cy="184.43" r="2.06" style="stroke-width: 0.71;stroke: #F8766D;stroke-opacity: 0.70;fill: #F8766D;fill-opacity: 0.70;"/>
<circle cx="247.34" cy="227.87" r="2.06" style="stroke-width: 0.71;stroke: #F8766D;stroke-opacity: 0.70;fill: #F8766D;fill-opacity: 0.70;"/>
<circle cx="247.34" cy="204.96" r="2.06" style="stroke-width: 0.71;stroke: #7CAE00;stroke-opacity: 0.70;fill: #7CAE00;fill-opacity: 0.70;"/>
<circle cx="247.34" cy="218.53" r="2.06" style="stroke-width: 0.71;stroke: #7CAE00;stroke-opacity: 0.70;fill: #7CAE00;fill-opacity: 0.70;"/>
<circle cx="247.34" cy="253.78" r="2.06" style="stroke-width: 0.71;stroke: #7CAE00;stroke-opacity: 0.70;fill: #7CAE00;fill-opacity: 0.70;"/>
<circle cx="247.34" cy="285.93" r="2.06" style="stroke-width: 0.71;stroke: #00BFC4;stroke-opacity: 0.70;fill: #00BFC4;fill-opacity: 0.70;"/>
<circle cx="247.34" cy="280.51" r="2.06" style="stroke-width: 0.71;stroke: #00BFC4;stroke-opacity: 0.70;fill: #00BFC4;fill-opacity: 0.70;"/>
<circle cx="247.34" cy="272.47" r="2.06" style="stroke-width: 0.71;stroke: #00BFC4;stroke-opacity: 0.70;fill: #00BFC4;fill-opacity: 0.70;"/>
<circle cx="247.34" cy="315.58" r="2.06" style="stroke-width: 0.71;stroke: #C77CFF;stroke-opacity: 0.70;fill: #C77CFF;fill-opacity: 0.70;"/>
<circle cx="247.34" cy="274.19" r="2.06" style="stroke-width: 0.71;stroke: #C77CFF;stroke-opacity: 0.70;fill: #C77CFF;fill-opacity: 0.70;"/>
<circle cx="247.34" cy="208.22" r="2.06" style="stroke-width: 0.71;stroke: #C77CFF;stroke-opacity: 0.70;fill: #C77CFF;fill-opacity: 0.70;"/>
<circle cx="336.81" cy="507.44" r="2.06" style="stroke-width: 0.71;stroke: #F8766D;stroke-opacity: 0.70;fill: #F8766D;fill-opacity: 0.70;"/>
<circle cx="336.81" cy="507.44" r="2.06" style="stroke-width: 0.71;stroke: #F8766D;stroke-opacity: 0.70;fill: #F8766D;fill-opacity: 0.70;"/>
<circle cx="336.81" cy="507.44" r="2.06" style="stroke-width: 0.71;stroke: #F8766D;stroke-opacity: 0.70;fill: #F8766D;fill-opacity: 0.70;"/>
<circle cx="336.81" cy="507.44" r="2.06" style="stroke-width: 0.71;stroke: #7CAE00;stroke-opacity: 0.70;fill: #7CAE00;fill-opacity: 0.70;"/>
<circle cx="336.81" cy="507.44" r="2.06" style="stroke-width: 0.71;stroke: #7CAE00;stroke-opacity: 0.70;fill: #7CAE00;fill-opacity: 0.70;"/>
<circle cx="336.81" cy="507.44" r="2.06" style="stroke-width: 0.71;stroke: #7CAE00;stroke-opacity: 0.70;fill: #7CAE00;fill-opacity: 0.70;"/>
<circle cx="336.81" cy="507.44" r="2.06" style="stroke-width: 0.71;stroke: #00BFC4;stroke-opacity: 0.70;fill: #00BFC4;fill-opacity: 0.70;"/>
<circle cx="336.81" cy="507.44" r="2.06" style="stroke-width: 0.71;stroke: #00BFC4;stroke-opacity: 0.70;fill: #00BFC4;fill-opacity: 0.70;"/>
<circle cx="336.81" cy="507.44" r="2.06" style="stroke-width: 0.71;stroke: #00BFC4;stroke-opacity: 0.70;fill: #00BFC4;fill-opacity: 0.70;"/>
<circle cx="336.81" cy="507.44" r="2.06" style="stroke-width: 0.71;stroke: #C77CFF;stroke-opacity: 0.70;fill: #C77CFF;fill-opacity: 0.70;"/>
<circle cx="336.81" cy="507.44" r="2.06" style="stroke-width: 0.71;stroke: #C77CFF;stroke-opacity: 0.70;fill: #C77CFF;fill-opacity: 0.70;"/>
<circle cx="336.81" cy="507.44" r="2.06" style="stroke-width: 0.71;stroke: #C77CFF;stroke-opacity: 0.70;fill: #C77CFF;fill-opacity: 0.70;"/>
<circle cx="427.85" cy="507.44" r="2.06" style="stroke-width: 0.71;stroke: #F8766D;stroke-opacity: 0.70;fill: #F8766D;fill-opacity: 0.70;"/>
<circle cx="427.85" cy="507.44" r="2.06" style="stroke-width: 0.71;stroke: #F8766D;stroke-opacity: 0.70;fill: #F8766D;fill-opacity: 0.70;"/>
<circle cx="427.85" cy="507.44" r="2.06" style="stroke-width: 0.71;stroke: #F8766D;stroke-opacity: 0.70;fill: #F8766D;fill-opacity: 0.70;"/>
<circle cx="427.85" cy="507.44" r="2.06" style="stroke-width: 0.71;stroke: #7CAE00;stroke-opacity: 0.70;fill: #7CAE00;fill-opacity: 0.70;"/>
<circle cx="427.85" cy="507.44" r="2.06" style="stroke-width: 0.71;stroke: #7CAE00;stroke-opacity: 0.70;fill: #7CAE00;fill-opacity: 0.70;"/>
<circle cx="427.85" cy="507.44" r="2.06" style="stroke-width: 0.71;stroke: #7CAE00;stroke-opacity: 0.70;fill: #7CAE00;fill-opacity: 0.70;"/>
<circle cx="427.85" cy="507.44" r="2.06" style="stroke-width: 0.71;stroke: #00BFC4;stroke-opacity: 0.70;fill: #00BFC4;fill-opacity: 0.70;"/>
<circle cx="427.85" cy="507.44" r="2.06" style="stroke-width: 0.71;stroke: #00BFC4;stroke-opacity: 0.70;fill: #00BFC4;fill-opacity: 0.70;"/>
<circle cx="427.85" cy="507.44" r="2.06" style="stroke-width: 0.71;stroke: #00BFC4;stroke-opacity: 0.70;fill: #00BFC4;fill-opacity: 0.70;"/>
<circle cx="427.85" cy="507.44" r="2.06" style="stroke-width: 0.71;stroke: #C77CFF;stroke-opacity: 0.70;fill: #C77CFF;fill-opacity: 0.70;"/>
<circle cx="427.85" cy="507.44" r="2.06" style="stroke-width: 0.71;stroke: #C77CFF;stroke-opacity: 0.70;fill: #C77CFF;fill-opacity: 0.70;"/>
<circle cx="427.85" cy="507.44" r="2.06" style="stroke-width: 0.71;stroke: #C77CFF;stroke-opacity: 0.70;fill: #C77CFF;fill-opacity: 0.70;"/>
<circle cx="518.88" cy="507.44" r="2.06" style="stroke-width: 0.71;stroke: #F8766D;stroke-opacity: 0.70;fill: #F8766D;fill-opacity: 0.70;"/>
<circle cx="518.88" cy="507.44" r="2.06" style="stroke-width: 0.71;stroke: #F8766D;stroke-opacity: 0.70;fill: #F8766D;fill-opacity: 0.70;"/>
<circle cx="518.88" cy="507.44" r="2.06" style="stroke-width: 0.71;stroke: #F8766D;stroke-opacity: 0.70;fill: #F8766D;fill-opacity: 0.70;"/>
<circle cx="518.88" cy="507.44" r="2.06" style="stroke-width: 0.71;stroke: #7CAE00;stroke-opacity: 0.70;fill: #7CAE00;fill-opacity: 0.70;"/>
<circle cx="518.88" cy="507.44" r="2.06" style="stroke-width: 0.71;stroke: #7CAE00;stroke-opacity: 0.70;fill: #7CAE00;fill-opacity: 0.70;"/>
<circle cx="518.88" cy="507.44" r="2.06" style="stroke-width: 0.71;stroke: #7CAE00;stroke-opacity: 0.70;fill: #7CAE00;fill-opacity: 0.70;"/>
<circle cx="518.88" cy="507.44" r="2.06" style="stroke-width: 0.71;stroke: #00BFC4;stroke-opacity: 0.70;fill: #00BFC4;fill-opacity: 0.70;"/>
<circle cx="518.88" cy="507.44" r="2.06" style="stroke-width: 0.71;stroke: #00BFC4;stroke-opacity: 0.70;fill: #00BFC4;fill-opacity: 0.70;"/>
<circle cx="518.88" cy="507.44" r="2.06" style="stroke-width: 0.71;stroke: #00BFC4;stroke-opacity: 0.70;fill: #00BFC4;fill-opacity: 0.70;"/>
<circle cx="518.88" cy="507.44" r="2.06" style="stroke-width: 0.71;stroke: #C77CFF;stroke-opacity: 0.70;fill: #C77CFF;fill-opacity: 0.70;"/>
<circle cx="518.88" cy="507.44" r="2.06" style="stroke-width: 0.71;stroke: #C77CFF;stroke-opacity: 0.70;fill: #C77CFF;fill-opacity: 0.70;"/>
<circle cx="518.88" cy="507.44" r="2.06" style="stroke-width: 0.71;stroke: #C77CFF;stroke-opacity: 0.70;fill: #C77CFF;fill-opacity: 0.70;"/>
<circle cx="609.92" cy="507.44" r="2.06" style="stroke-width: 0.71;stroke: #F8766D;stroke-opacity: 0.70;fill: #F8766D;fill-opacity: 0.70;"/>
<circle cx="609.92" cy="507.17" r="2.06" style="stroke-width: 0.71;stroke: #F8766D;stroke-opacity: 0.70;fill: #F8766D;fill-opacity: 0.70;"/>
<circle cx="609.92" cy="507.44" r="2.06" style="stroke-width: 0.71;stroke: #F8766D;stroke-opacity: 0.70;fill: #F8766D;fill-opacity: 0.70;"/>
<circle cx="609.92" cy="507.40" r="2.06" style="stroke-width: 0.71;stroke: #7CAE00;stroke-opacity: 0.70;fill: #7CAE00;fill-opacity: 0.70;"/>
<circle cx="609.92" cy="507.44" r="2.06" style="stroke-width: 0.71;stroke: #7CAE00;stroke-opacity: 0.70;fill: #7CAE00;fill-opacity: 0.70;"/>
<circle cx="609.92" cy="507.44" r="2.06" style="stroke-width: 0.71;stroke: #7CAE00;stroke-opacity: 0.70;fill: #7CAE00;fill-opacity: 0.70;"/>
<circle cx="609.92" cy="507.44" r="2.06" style="stroke-width: 0.71;stroke: #00BFC4;stroke-opacity: 0.70;fill: #00BFC4;fill-opacity: 0.70;"/>
<circle cx="609.92" cy="501.73" r="2.06" style="stroke-width: 0.71;stroke: #00BFC4;stroke-opacity: 0.70;fill: #00BFC4;fill-opacity: 0.70;"/>
<circle cx="609.92" cy="507.44" r="2.06" style="stroke-width: 0.71;stroke: #00BFC4;stroke-opacity: 0.70;fill: #00BFC4;fill-opacity: 0.70;"/>
<circle cx="609.92" cy="507.44" r="2.06" style="stroke-width: 0.71;stroke: #C77CFF;stroke-opacity: 0.70;fill: #C77CFF;fill-opacity: 0.70;"/>
<circle cx="609.92" cy="507.44" r="2.06" style="stroke-width: 0.71;stroke: #C77CFF;stroke-opacity: 0.70;fill: #C77CFF;fill-opacity: 0.70;"/>
<circle cx="609.92" cy="496.61" r="2.06" style="stroke-width: 0.71;stroke: #C77CFF;stroke-opacity: 0.70;fill: #C77CFF;fill-opacity: 0.70;"/>
<polyline points="65.27,95.16 68.00,95.19 70.74,95.23 73.48,95.26 76.21,95.29 78.95,95.33 81.69,95.36 84.43,95.40 87.16,95.43 89.90,95.47 92.64,95.51 95.37,95.55 98.11,95.60 100.85,95.64 103.58,95.69 106.32,95.73 109.06,95.78 111.79,95.83 114.53,95.89 117.27,95.94 120.01,96.00 122.74,96.06 125.48,96.12 128.22,96.19 130.95,96.25 133.69,96.32 136.43,96.40 139.16,96.48 141.90,96.56 144.64,96.64 147.38,96.73 150.11,96.83 152.85,96.93 155.59,97.03 158.32,97.14 161.06,97.26 163.80,97.39 166.53,97.52 169.27,97.66 172.01,97.82 174.74,97.98 177.48,98.16 180.22,98.35 182.96,98.55 185.69,98.78 188.43,99.02 191.17,99.29 193.90,99.59 196.64,99.95 199.38,100.53 202.11,101.89 204.85,105.12 207.59,110.40 210.32,117.17 213.06,124.98 215.80,133.70 218.54,143.98 221.27,155.92 224.01,169.65 226.75,185.10 229.48,202.98 232.22,224.30 234.96,249.22 237.69,276.94 240.43,306.22 243.17,335.64 245.91,363.60 248.64,388.66 251.38,409.98 254.12,427.43 256.85,441.40 259.59,452.46 262.33,461.21 265.06,468.17 267.80,473.74 270.54,478.23 273.27,481.88 276.01,484.87 278.75,487.34 281.49,489.41 284.22,491.14 286.96,492.61 289.70,493.87 292.43,494.94 295.17,495.88 297.91,496.69 300.64,497.40 303.38,498.03 306.12,498.59 308.86,499.08 311.59,499.53 314.33,499.93 317.07,500.29 319.80,500.62 322.54,500.92 325.28,501.20 328.01,501.45 330.75,501.68 333.49,501.90 336.22,502.09 338.96,502.28 341.70,502.45 344.44,502.61 347.17,502.76 349.91,502.91 352.65,503.04 355.38,503.16 358.12,503.28 360.86,503.39 363.59,503.50 366.33,503.60 369.07,503.70 371.80,503.79 374.54,503.87 377.28,503.95 380.02,504.03 382.75,504.11 385.49,504.18 388.23,504.25 390.96,504.31 393.70,504.38 396.44,504.44 399.17,504.50 401.91,504.55 404.65,504.60 407.39,504.66 410.12,504.71 412.86,504.76 415.60,504.80 418.33,504.85 421.07,504.89 423.81,504.93 426.54,504.97 429.28,505.01 432.02,505.05 434.75,505.09 437.49,505.12 440.23,505.16 442.97,505.19 445.70,505.23 448.44,505.26 451.18,505.29 453.91,505.32 456.65,505.35 459.39,505.38 462.12,505.41 464.86,505.43 467.60,505.46 470.34,505.49 473.07,505.51 475.81,505.54 478.55,505.56 481.28,505.58 484.02,505.61 486.76,505.63 489.49,505.65 492.23,505.67 494.97,505.69 497.70,505.71 500.44,505.73 503.18,505.75 505.92,505.77 508.65,505.79 511.39,505.81 514.13,505.83 516.86,505.85 519.60,505.87 522.34,505.88 525.07,505.90 527.81,505.92 530.55,505.93 533.28,505.95 536.02,505.96 538.76,505.98 541.50,505.99 544.23,506.01 546.97,506.02 549.71,506.04 552.44,506.05 555.18,506.07 557.92,506.08 560.65,506.09 563.39,506.11 566.13,506.12 568.87,506.13 571.60,506.15 574.34,506.16 577.08,506.17 579.81,506.18 582.55,506.19 585.29,506.21 588.02,506.22 590.76,506.23 593.50,506.24 596.23,506.25 598.97,506.26 601.71,506.27 604.45,506.28 607.18,506.29 609.92,506.30" style="stroke-width: 1.71;stroke: #F8766D;stroke-linecap: butt;"/>
<polyline points="65.27,97.36 68.00,97.42 70.74,97.47 73.48,97.53 76.21,97.59 78.95,97.65 81.69,97.71 84.43,97.77 87.16,97.84 89.90,97.91 92.64,97.98 95.37,98.05 98.11,98.13 100.85,98.21 103.58,98.29 106.32,98.37 109.06,98.46 111.79,98.55 114.53,98.64 117.27,98.74 120.01,98.84 122.74,98.95 125.48,99.06 128.22,99.17 130.95,99.30 133.69,99.49 136.43,99.72 139.16,99.91 141.90,100.17 144.64,100.50 147.38,100.87 150.11,101.20 152.85,101.46 155.59,101.67 158.32,101.88 161.06,102.16 163.80,102.46 166.53,102.80 169.27,103.35 172.01,104.11 174.74,104.81 177.48,105.63 180.22,106.78 182.96,108.13 185.69,109.32 188.43,110.36 191.17,111.53 193.90,113.04 196.64,115.06 199.38,117.51 202.11,120.27 204.85,123.57 207.59,127.75 210.32,132.66 213.06,138.42 215.80,145.33 218.54,153.31 221.27,162.54 224.01,173.87 226.75,188.17 229.48,205.69 232.22,226.08 234.96,248.79 237.69,273.23 240.43,298.57 243.17,323.85 245.91,348.11 248.64,370.47 251.38,390.36 254.12,407.54 256.85,422.04 259.59,434.11 262.33,444.06 265.06,452.25 267.80,458.99 270.54,464.57 273.27,469.22 276.01,473.12 278.75,476.41 281.49,479.22 284.22,481.64 286.96,483.72 289.70,485.54 292.43,487.14 295.17,488.54 297.91,489.79 300.64,490.90 303.38,491.89 306.12,492.78 308.86,493.59 311.59,494.32 314.33,494.99 317.07,495.59 319.80,496.15 322.54,496.66 325.28,497.14 328.01,497.57 330.75,497.98 333.49,498.35 336.22,498.71 338.96,499.03 341.70,499.34 344.44,499.63 347.17,499.90 349.91,500.15 352.65,500.39 355.38,500.62 358.12,500.84 360.86,501.04 363.59,501.23 366.33,501.42 369.07,501.59 371.80,501.76 374.54,501.92 377.28,502.07 380.02,502.22 382.75,502.36 385.49,502.49 388.23,502.62 390.96,502.74 393.70,502.86 396.44,502.97 399.17,503.08 401.91,503.18 404.65,503.28 407.39,503.38 410.12,503.47 412.86,503.56 415.60,503.65 418.33,503.73 421.07,503.81 423.81,503.89 426.54,503.97 429.28,504.04 432.02,504.11 434.75,504.18 437.49,504.24 440.23,504.31 442.97,504.37 445.70,504.43 448.44,504.49 451.18,504.55 453.91,504.60 456.65,504.66 459.39,504.71 462.12,504.76 464.86,504.81 467.60,504.86 470.34,504.90 473.07,504.95 475.81,504.99 478.55,505.04 481.28,505.08 484.02,505.12 486.76,505.16 489.49,505.20 492.23,505.24 494.97,505.27 497.70,505.31 500.44,505.35 503.18,505.38 505.92,505.41 508.65,505.45 511.39,505.48 514.13,505.51 516.86,505.54 519.60,505.57 522.34,505.60 525.07,505.63 527.81,505.66 530.55,505.68 533.28,505.71 536.02,505.74 538.76,505.76 541.50,505.79 544.23,505.81 546.97,505.83 549.71,505.86 552.44,505.88 555.18,505.90 557.92,505.93 560.65,505.95 563.39,505.97 566.13,505.99 568.87,506.01 571.60,506.03 574.34,506.05 577.08,506.07 579.81,506.09 582.55,506.11 585.29,506.12 588.02,506.14 590.76,506.16 593.50,506.18 596.23,506.19 598.97,506.21 601.71,506.22 604.45,506.24 607.18,506.26 609.92,506.27" style="stroke-width: 1.71;stroke: #7CAE00;stroke-linecap: butt;"/>
<polyline points="65.27,150.32 68.00,150.35 70.74,150.37 73.48,150.40 76.21,150.43 78.95,150.45 81.69,150.48 84.43,150.51 87.16,150.54 89.90,150.58 92.64,150.61 95.37,150.65 98.11,150.68 100.85,150.72 103.58,150.76 106.32,150.80 109.06,150.84 111.79,150.89 114.53,150.93 117.27,150.98 120.01,151.03 122.74,151.08 125.48,151.14 128.22,151.19 130.95,151.25 133.69,151.32 136.43,151.38 139.16,151.45 141.90,151.52 144.64,151.60 147.38,151.68 150.11,151.76 152.85,151.85 155.59,151.94 158.32,152.04 161.06,152.15 163.80,152.26 166.53,152.37 169.27,152.50 172.01,152.63 174.74,152.77 177.48,152.92 180.22,153.08 182.96,153.25 185.69,153.44 188.43,153.64 191.17,153.86 193.90,154.09 196.64,154.35 199.38,154.64 202.11,154.95 204.85,155.31 207.59,155.71 210.32,156.16 213.06,156.71 215.80,157.45 218.54,158.78 221.27,161.58 224.01,167.65 226.75,179.82 229.48,199.52 232.22,226.91 234.96,259.96 237.69,294.65 240.43,329.59 243.17,363.68 245.91,394.43 248.64,420.05 251.38,440.09 254.12,455.09 256.85,466.09 259.59,474.12 262.33,480.05 265.06,484.47 267.80,487.83 270.54,490.42 273.27,492.47 276.01,494.10 278.75,495.43 281.49,496.53 284.22,497.46 286.96,498.25 289.70,498.92 292.43,499.51 295.17,500.03 297.91,500.49 300.64,500.90 303.38,501.27 306.12,501.61 308.86,501.91 311.59,502.19 314.33,502.44 317.07,502.68 319.80,502.89 322.54,503.10 325.28,503.28 328.01,503.46 330.75,503.62 333.49,503.77 336.22,503.92 338.96,504.05 341.70,504.18 344.44,504.30 347.17,504.41 349.91,504.52 352.65,504.62 355.38,504.71 358.12,504.80 360.86,504.89 363.59,504.97 366.33,505.05 369.07,505.12 371.80,505.19 374.54,505.26 377.28,505.33 380.02,505.39 382.75,505.45 385.49,505.50 388.23,505.56 390.96,505.61 393.70,505.66 396.44,505.70 399.17,505.75 401.91,505.79 404.65,505.83 407.39,505.87 410.12,505.91 412.86,505.95 415.60,505.99 418.33,506.02 421.07,506.05 423.81,506.09 426.54,506.12 429.28,506.15 432.02,506.17 434.75,506.20 437.49,506.23 440.23,506.25 442.97,506.28 445.70,506.30 448.44,506.33 451.18,506.35 453.91,506.37 456.65,506.39 459.39,506.41 462.12,506.43 464.86,506.45 467.60,506.47 470.34,506.49 473.07,506.51 475.81,506.52 478.55,506.54 481.28,506.56 484.02,506.57 486.76,506.59 489.49,506.60 492.23,506.62 494.97,506.63 497.70,506.65 500.44,506.66 503.18,506.67 505.92,506.69 508.65,506.70 511.39,506.71 514.13,506.72 516.86,506.73 519.60,506.75 522.34,506.76 525.07,506.77 527.81,506.78 530.55,506.79 533.28,506.80 536.02,506.81 538.76,506.82 541.50,506.83 544.23,506.84 546.97,506.85 549.71,506.86 552.44,506.86 555.18,506.87 557.92,506.88 560.65,506.89 563.39,506.90 566.13,506.90 568.87,506.91 571.60,506.92 574.34,506.93 577.08,506.93 579.81,506.94 582.55,506.95 585.29,506.96 588.02,506.96 590.76,506.97 593.50,506.98 596.23,506.98 598.97,506.99 601.71,506.99 604.45,507.00 607.18,507.01 609.92,507.01" style="stroke-width: 1.71;stroke: #00BFC4;stroke-linecap: butt;"/>
<polyline points="65.27,172.29 68.00,172.31 70.74,172.34 73.48,172.36 76.21,172.39 78.95,172.41 81.69,172.44 84.43,172.47 87.16,172.50 89.90,172.53 92.64,172.56 95.37,172.59 98.11,172.62 100.85,172.66 103.58,172.69 106.32,172.73 109.06,172.76 111.79,172.80 114.53,172.84 117.27,172.88 120.01,172.93 122.74,172.97 125.48,173.02 128.22,173.07 130.95,173.12 133.69,173.17 136.43,173.22 139.16,173.28 141.90,173.34 144.64,173.40 147.38,173.46 150.11,173.53 152.85,173.60 155.59,173.67 158.32,173.75 161.06,173.83 163.80,173.91 166.53,174.00 169.27,174.10 172.01,174.19 174.74,174.30 177.48,174.41 180.22,174.54 182.96,174.76 185.69,175.31 188.43,176.35 191.17,177.78 193.90,180.09 196.64,183.31 199.38,187.43 202.11,193.25 204.85,199.92 207.59,206.97 210.32,214.74 213.06,224.41 215.80,236.24 218.54,248.71 221.27,261.45 224.01,273.97 226.75,286.53 229.48,300.10 232.22,315.23 234.96,331.92 237.69,349.81 240.43,368.49 243.17,387.38 245.91,405.60 248.64,422.32 251.38,437.07 254.12,449.64 256.85,460.01 259.59,468.36 262.33,474.97 265.06,480.19 267.80,484.31 270.54,487.58 273.27,490.20 276.01,492.30 278.75,494.02 281.49,495.42 284.22,496.57 286.96,497.54 289.70,498.35 292.43,499.04 295.17,499.63 297.91,500.14 300.64,500.58 303.38,500.97 306.12,501.32 308.86,501.63 311.59,501.91 314.33,502.16 317.07,502.39 319.80,502.60 322.54,502.79 325.28,502.97 328.01,503.14 330.75,503.29 333.49,503.43 336.22,503.57 338.96,503.70 341.70,503.81 344.44,503.93 347.17,504.03 349.91,504.13 352.65,504.23 355.38,504.32 358.12,504.41 360.86,504.49 363.59,504.57 366.33,504.64 369.07,504.71 371.80,504.78 374.54,504.85 377.28,504.91 380.02,504.97 382.75,505.03 385.49,505.09 388.23,505.14 390.96,505.19 393.70,505.24 396.44,505.29 399.17,505.33 401.91,505.38 404.65,505.42 407.39,505.46 410.12,505.50 412.86,505.54 415.60,505.58 418.33,505.61 421.07,505.65 423.81,505.68 426.54,505.71 429.28,505.74 432.02,505.77 434.75,505.80 437.49,505.83 440.23,505.86 442.97,505.89 445.70,505.91 448.44,505.94 451.18,505.96 453.91,505.99 456.65,506.01 459.39,506.03 462.12,506.05 464.86,506.07 467.60,506.09 470.34,506.11 473.07,506.13 475.81,506.15 478.55,506.17 481.28,506.19 484.02,506.21 486.76,506.22 489.49,506.24 492.23,506.26 494.97,506.27 497.70,506.29 500.44,506.30 503.18,506.32 505.92,506.33 508.65,506.35 511.39,506.36 514.13,506.37 516.86,506.39 519.60,506.40 522.34,506.41 525.07,506.42 527.81,506.44 530.55,506.45 533.28,506.46 536.02,506.47 538.76,506.48 541.50,506.49 544.23,506.50 546.97,506.51 549.71,506.52 552.44,506.53 555.18,506.54 557.92,506.55 560.65,506.56 563.39,506.57 566.13,506.58 568.87,506.59 571.60,506.60 574.34,506.61 577.08,506.61 579.81,506.62 582.55,506.63 585.29,506.64 588.02,506.65 590.76,506.65 593.50,506.66 596.23,506.67 598.97,506.68 601.71,506.68 604.45,506.69 607.18,506.70 609.92,506.70" style="stroke-width: 1.71;stroke: #C77CFF;stroke-linecap: butt;"/>
</g><g clip-path="url(#c2)">
<g><text x="33.10" y="510.59" text-anchor="end" style="font-family: Arial;font-size: 8.80px;fill: #4D4D4D;" textLength="4.90px" lengthAdjust="spacingAndGlyphs">0</text></g>
<g><text x="33.10" y="395.29" text-anchor="end" style="font-family: Arial;font-size: 8.80px;fill: #4D4D4D;" textLength="9.79px" lengthAdjust="spacingAndGlyphs">25</text></g>
<g><text x="33.10" y="279.99" text-anchor="end" style="font-family: Arial;font-size: 8.80px;fill: #4D4D4D;" textLength="9.79px" lengthAdjust="spacingAndGlyphs">50</text></g>
<g><text x="33.10" y="164.69" text-anchor="end" style="font-family: Arial;font-size: 8.80px;fill: #4D4D4D;" textLength="9.79px" lengthAdjust="spacingAndGlyphs">75</text></g>
<g><text x="33.10" y="49.39" text-anchor="end" style="font-family: Arial;font-size: 8.80px;fill: #4D4D4D;" textLength="14.69px" lengthAdjust="spacingAndGlyphs">100</text></g>
<g><text x="110.78" y="541.74" text-anchor="middle" style="font-family: Arial;font-size: 8.80px;fill: #4D4D4D;" textLength="24.72px" lengthAdjust="spacingAndGlyphs">1e+02</text></g>
<g><text x="261.99" y="541.74" text-anchor="middle" style="font-family: Arial;font-size: 8.80px;fill: #4D4D4D;" textLength="24.72px" lengthAdjust="spacingAndGlyphs">1e+03</text></g>
<g><text x="413.20" y="541.74" text-anchor="middle" style="font-family: Arial;font-size: 8.80px;fill: #4D4D4D;" textLength="24.72px" lengthAdjust="spacingAndGlyphs">1e+04</text></g>
<g><text x="564.40" y="541.74" text-anchor="middle" style="font-family: Arial;font-size: 8.80px;fill: #4D4D4D;" textLength="24.72px" lengthAdjust="spacingAndGlyphs">1e+05</text></g>
<g><text x="337.59" y="554.20" text-anchor="middle" style="font-family: Arial;font-size: 11.00px;" textLength="50.36px" lengthAdjust="spacingAndGlyphs">Dose [M]</text></g>
<g><text transform="translate(13.36,276.84) rotate(-90.00)" text-anchor="middle" style="font-family: Arial;font-size: 11.00px;" textLength="57.87px" lengthAdjust="spacingAndGlyphs">Viability (%)</text></g>
<g><text x="653.59" y="243.48" style="font-family: Arial;font-size: 11.00px;" textLength="74.02px" lengthAdjust="spacingAndGlyphs">Patient / Group</text></g>
<circle cx="662.23" cy="258.76" r="2.06" style="stroke-width: 0.71;stroke: #F8766D;stroke-opacity: 0.70;fill: #F8766D;fill-opacity: 0.70;"/>
<line x1="655.32" y1="258.76" x2="669.14" y2="258.76" style="stroke-width: 1.71;stroke: #F8766D;stroke-linecap: butt;"/>
<circle cx="662.23" cy="276.04" r="2.06" style="stroke-width: 0.71;stroke: #7CAE00;stroke-opacity: 0.70;fill: #7CAE00;fill-opacity: 0.70;"/>
<line x1="655.32" y1="276.04" x2="669.14" y2="276.04" style="stroke-width: 1.71;stroke: #7CAE00;stroke-linecap: butt;"/>
<circle cx="662.23" cy="293.32" r="2.06" style="stroke-width: 0.71;stroke: #00BFC4;stroke-opacity: 0.70;fill: #00BFC4;fill-opacity: 0.70;"/>
<line x1="655.32" y1="293.32" x2="669.14" y2="293.32" style="stroke-width: 1.71;stroke: #00BFC4;stroke-linecap: butt;"/>
<circle cx="662.23" cy="310.60" r="2.06" style="stroke-width: 0.71;stroke: #C77CFF;stroke-opacity: 0.70;fill: #C77CFF;fill-opacity: 0.70;"/>
<line x1="655.32" y1="310.60" x2="669.14" y2="310.60" style="stroke-width: 1.71;stroke: #C77CFF;stroke-linecap: butt;"/>
<g><text x="676.35" y="261.91" style="font-family: Arial;font-size: 8.80px;" textLength="68.00px" lengthAdjust="spacingAndGlyphs">ASC397.ASC397</text></g>
<g><text x="676.35" y="279.19" style="font-family: Arial;font-size: 8.80px;" textLength="81.69px" lengthAdjust="spacingAndGlyphs">ASC397.ASC397cse</text></g>
<g><text x="676.35" y="296.47" style="font-family: Arial;font-size: 8.80px;" textLength="68.00px" lengthAdjust="spacingAndGlyphs">ASC399.ASC399</text></g>
<g><text x="676.35" y="313.75" style="font-family: Arial;font-size: 8.80px;" textLength="81.69px" lengthAdjust="spacingAndGlyphs">ASC399.ASC399cse</text></g>
<g><text x="38.03" y="14.93" style="font-family: Arial;font-size: 13.20px;" textLength="255.89px" lengthAdjust="spacingAndGlyphs">KBrO3_Erastin across patients &amp; conditions</text></g>
</g>
</svg>