<svg xmlns="http://www.w3.org/2000/svg" xmlns:xlink="http://www.w3.org/1999/xlink" class="httpgd" width="769.00" height="562.00" viewBox="0 0 769.00 562.00">
<defs>
  <style type='text/css'><![CDATA[
    .httpgd line, .httpgd polyline, .httpgd polygon, .httpgd path, .httpgd rect, .httpgd circle {
      fill: none;
      stroke: #000000;
      stroke-linecap: round;
      stroke-linejoin: round;
      stroke-miterlimit: 10.00;
    }
  ]]></style>
<clipPath id="c0"><rect x="0.00" y="0.00" width="769.00" height="562.00"/></clipPath>
<clipPath id="c1"><rect x="38.03" y="23.18" width="599.12" height="507.33"/></clipPath>
<clipPath id="c2"><rect x="0.00" y="0.00" width="769.00" height="562.00"/></clipPath>
</defs>
<rect width="100%" height="100%" style="stroke: none;fill: #FFFFFF;"/>
<g clip-path="url(#c0)">
</g><g clip-path="url(#c1)">
<polyline points="38.03,507.44 637.15,507.44" style="stroke-width: 1.07;stroke: #EBEBEB;stroke-linecap: butt;"/>
<polyline points="38.03,392.14 637.15,392.14" style="stroke-width: 1.07;stroke: #EBEBEB;stroke-linecap: butt;"/>
<polyline points="38.03,276.84 637.15,276.84" style="stroke-width: 1.07;stroke: #EBEBEB;stroke-linecap: butt;"/>
<polyline points="38.03,161.54 637.15,161.54" style="stroke-width: 1.07;stroke: #EBEBEB;stroke-linecap: butt;"/>
<polyline points="38.03,46.24 637.15,46.24" style="stroke-width: 1.07;stroke: #EBEBEB;stroke-linecap: butt;"/>
<polyline points="110.78,530.50 110.78,23.18" style="stroke-width: 1.07;stroke: #EBEBEB;stroke-linecap: butt;"/>
<polyline points="261.99,530.50 261.99,23.18" style="stroke-width: 1.07;stroke: #EBEBEB;stroke-linecap: butt;"/>
<polyline points="413.20,530.50 413.20,23.18" style="stroke-width: 1.07;stroke: #EBEBEB;stroke-linecap: butt;"/>
<polyline points="564.40,530.50 564.40,23.18" style="stroke-width: 1.07;stroke: #EBEBEB;stroke-linecap: butt;"/>
<polygon points="65.27,46.24 68.00,46.24 70.74,46.24 73.48,46.24 76.21,46.24 78.95,46.24 81.69,46.24 84.43,46.24 87.16,46.24 89.90,46.24 92.64,46.24 95.37,46.24 98.11,46.24 100.85,46.24 103.58,46.24 106.32,46.24 109.06,46.24 111.79,46.24 114.53,46.24 117.27,46.24 120.01,46.24 122.74,46.24 125.48,46.24 128.22,46.24 130.95,46.24 133.69,46.24 136.43,46.25 139.16,46.25 141.90,46.25 144.64,46.26 147.38,46.26 150.11,46.27 152.85,46.28 155.59,46.29 158.32,46.30 161.06,46.32 163.80,46.34 166.53,46.38 169.27,46.42 172.01,46.47 174.74,46.53 177.48,46.62 180.22,46.73 182.96,46.87 185.69,47.05 188.43,47.28 191.17,47.58 193.90,47.97 196.64,48.46 199.38,49.10 202.11,49.92 204.85,50.97 207.59,52.31 210.32,54.03 213.06,56.22 215.80,59.00 218.54,62.53 221.27,67.02 224.01,72.65 226.75,79.70 229.48,88.48 232.22,99.23 234.96,112.32 237.69,127.91 240.43,146.21 243.17,166.69 245.91,187.97 248.64,209.10 251.38,228.68 254.12,246.78 256.85,264.69 259.59,282.74 262.33,300.75 265.06,318.49 267.80,335.64 270.54,352.19 273.27,367.80 276.01,382.51 278.75,396.23 281.49,408.87 284.22,420.44 286.96,430.94 289.70,440.39 292.43,448.86 295.17,456.39 297.91,463.07 300.64,468.95 303.38,474.11 306.12,478.63 308.86,482.58 311.59,486.01 314.33,488.98 317.07,491.56 319.80,493.79 322.54,495.71 325.28,497.37 328.01,498.80 330.75,500.03 333.49,501.09 336.22,502.00 338.96,502.78 341.70,503.45 344.44,504.02 347.17,504.51 349.91,504.93 352.65,505.29 355.38,505.60 358.12,505.87 360.86,506.10 363.59,506.29 366.33,506.46 369.07,506.60 371.80,506.72 374.54,506.83 377.28,506.91 380.02,506.99 382.75,507.06 385.49,507.11 388.23,507.16 390.96,507.20 393.70,507.24 396.44,507.27 399.17,507.29 401.91,507.31 404.65,507.33 407.39,507.35 410.12,507.36 412.86,507.37 415.60,507.38 418.33,507.39 421.07,507.40 423.81,507.41 426.54,507.41 429.28,507.42 432.02,507.42 434.75,507.42 437.49,507.43 440.23,507.43 442.97,507.43 445.70,507.43 448.44,507.43 451.18,507.44 453.91,507.44 456.65,507.44 459.39,507.44 462.12,507.44 464.86,507.44 467.60,507.44 470.34,507.44 473.07,507.44 475.81,507.44 478.55,507.44 481.28,507.44 484.02,507.44 486.76,507.44 489.49,507.44 492.23,507.44 494.97,507.44 497.70,507.44 500.44,507.44 503.18,507.44 505.92,507.44 508.65,507.44 511.39,507.44 514.13,507.44 516.86,507.44 519.60,507.44 522.34,507.44 525.07,507.44 527.81,507.44 530.55,507.44 533.28,507.44 536.02,507.44 538.76,507.44 541.50,507.44 544.23,507.44 546.97,507.44 549.71,507.44 552.44,507.44 555.18,507.44 557.92,507.44 560.65,507.44 563.39,507.44 566.13,507.44 568.87,507.44 571.60,507.44 574.34,507.44 577.08,507.44 579.81,507.44 582.55,507.44 585.29,507.44 588.02,507.44 590.76,507.44 593.50,507.44 596.23,507.44 598.97,507.44 601.71,507.44 604.45,507.44 607.18,507.44 609.92,507.44 609.92,507.44 607.18,507.44 604.45,507.44 601.71,507.44 598.97,507.44 596.23,507.44 593.50,507.44 590.76,507.44 588.02,507.44 585.29,507.44 582.55,507.44 579.81,507.44 577.08,507.44 574.34,507.44 571.60,507.44 568.87,507.44 566.13,507.44 563.39,507.44 560.65,507.44 557.92,507.44 555.18,507.44 552.44,507.44 549.71,507.44 546.97,507.44 544.23,507.44 541.50,507.44 538.76,507.44 536.02,507.44 533.28,507.44 530.55,507.44 527.81,507.44 525.07,507.44 522.34,507.44 519.60,507.44 516.86,507.44 514.13,507.44 511.39,507.44 508.65,507.44 505.92,507.44 503.18,507.44 500.44,507.44 497.70,507.44 494.97,507.44 492.23,507.44 489.49,507.44 486.76,507.44 484.02,507.44 481.28,507.44 478.55,507.44 475.81,507.44 473.07,507.44 470.34,507.44 467.60,507.44 464.86,507.44 462.12,507.44 459.39,507.44 456.65,507.44 453.91,507.44 451.18,507.44 448.44,507.44 445.70,507.44 442.97,507.44 440.23,507.44 437.49,507.44 434.75,507.44 432.02,507.44 429.28,507.44 426.54,507.44 423.81,507.44 421.07,507.44 418.33,507.44 415.60,507.44 412.86,507.44 410.12,507.44 407.39,507.44 404.65,507.44 401.91,507.44 399.17,507.44 396.44,507.44 393.70,507.44 390.96,507.44 388.23,507.44 385.49,507.44 382.75,507.44 380.02,507.44 377.28,507.44 374.54,507.44 371.80,507.43 369.07,507.43 366.33,507.43 363.59,507.42 360.86,507.42 358.12,507.41 355.38,507.40 352.65,507.39 349.91,507.38 347.17,507.36 344.44,507.33 341.70,507.30 338.96,507.26 336.22,507.21 333.49,507.14 330.75,507.05 328.01,506.94 325.28,506.79 322.54,506.60 319.80,506.36 317.07,506.05 314.33,505.65 311.59,505.14 308.86,504.48 306.12,503.64 303.38,502.56 300.64,501.17 297.91,499.40 295.17,497.15 292.43,494.27 289.70,490.62 286.96,486.02 284.22,480.22 281.49,472.98 278.75,463.98 276.01,452.94 273.27,439.54 270.54,423.54 267.80,404.67 265.06,382.96 262.33,358.73 259.59,332.25 256.85,304.08 254.12,275.03 251.38,246.00 248.64,218.16 245.91,196.34 243.17,180.81 240.43,166.42 237.69,153.10 234.96,140.75 232.22,129.61 229.48,119.55 226.75,110.43 224.01,102.28 221.27,95.03 218.54,88.62 215.80,83.01 213.06,78.08 210.32,73.77 207.59,70.01 204.85,66.72 202.11,63.87 199.38,61.40 196.64,59.27 193.90,57.43 191.17,55.84 188.43,54.48 185.69,53.30 182.96,52.30 180.22,51.43 177.48,50.68 174.74,50.05 172.01,49.50 169.27,49.03 166.53,48.63 163.80,48.28 161.06,47.99 158.32,47.74 155.59,47.52 152.85,47.33 150.11,47.18 147.38,47.04 144.64,46.92 141.90,46.83 139.16,46.74 136.43,46.67 133.69,46.61 130.95,46.55 128.22,46.51 125.48,46.47 122.74,46.43 120.01,46.41 117.27,46.38 114.53,46.36 111.79,46.34 109.06,46.33 106.32,46.31 103.58,46.30 100.85,46.29 98.11,46.29 95.37,46.28 92.64,46.27 89.90,46.27 87.16,46.26 84.43,46.26 81.69,46.26 78.95,46.25 76.21,46.25 73.48,46.25 70.74,46.25 68.00,46.25 65.27,46.25" style="stroke-width: 0.00;stroke: none;stroke-linecap: butt;fill: #F8766D;fill-opacity: 0.20;" />
<polyline points="65.27,46.24 68.00,46.24 70.74,46.24 73.48,46.24 76.21,46.24 78.95,46.24 81.69,46.24 84.43,46.24 87.16,46.24 89.90,46.24 92.64,46.24 95.37,46.24 98.11,46.24 100.85,46.24 103.58,46.24 106.32,46.24 109.06,46.24 111.79,46.24 114.53,46.24 117.27,46.24 120.01,46.24 122.74,46.24 125.48,46.24 128.22,46.24 130.95,46.24 133.69,46.24 136.43,46.25 139.16,46.25 141.90,46.25 144.64,46.26 147.38,46.26 150.11,46.27 152.85,46.28 155.59,46.29 158.32,46.30 161.06,46.32 163.80,46.34 166.53,46.38 169.27,46.42 172.01,46.47 174.74,46.53 177.48,46.62 180.22,46.73 182.96,46.87 185.69,47.05 188.43,47.28 191.17,47.58 193.90,47.97 196.64,48.46 199.38,49.10 202.11,49.92 204.85,50.97 207.59,52.31 210.32,54.03 213.06,56.22 215.80,59.00 218.54,62.53 221.27,67.02 224.01,72.65 226.75,79.70 229.48,88.48 232.22,99.23 234.96,112.32 237.69,127.91 240.43,146.21 243.17,166.69 245.91,187.97 248.64,209.10 251.38,228.68 254.12,246.78 256.85,264.69 259.59,282.74 262.33,300.75 265.06,318.49 267.80,335.64 270.54,352.19 273.27,367.80 276.01,382.51 278.75,396.23 281.49,408.87 284.22,420.44 286.96,430.94 289.70,440.39 292.43,448.86 295.17,456.39 297.91,463.07 300.64,468.95 303.38,474.11 306.12,478.63 308.86,482.58 311.59,486.01 314.33,488.98 317.07,491.56 319.80,493.79 322.54,495.71 325.28,497.37 328.01,498.80 330.75,500.03 333.49,501.09 336.22,502.00 338.96,502.78 341.70,503.45 344.44,504.02 347.17,504.51 349.91,504.93 352.65,505.29 355.38,505.60 358.12,505.87 360.86,506.10 363.59,506.29 366.33,506.46 369.07,506.60 371.80,506.72 374.54,506.83 377.28,506.91 380.02,506.99 382.75,507.06 385.49,507.11 388.23,507.16 390.96,507.20 393.70,507.24 396.44,507.27 399.17,507.29 401.91,507.31 404.65,507.33 407.39,507.35 410.12,507.36 412.86,507.37 415.60,507.38 418.33,507.39 421.07,507.40 423.81,507.41 426.54,507.41 429.28,507.42 432.02,507.42 434.75,507.42 437.49,507.43 440.23,507.43 442.97,507.43 445.70,507.43 448.44,507.43 451.18,507.44 453.91,507.44 456.65,507.44 459.39,507.44 462.12,507.44 464.86,507.44 467.60,507.44 470.34,507.44 473.07,507.44 475.81,507.44 478.55,507.44 481.28,507.44 484.02,507.44 486.76,507.44 489.49,507.44 492.23,507.44 494.97,507.44 497.70,507.44 500.44,507.44 503.18,507.44 505.92,507.44 508.65,507.44 511.39,507.44 514.13,507.44 516.86,507.44 519.60,507.44 522.34,507.44 525.07,507.44 527.81,507.44 530.55,507.44 533.28,507.44 536.02,507.44 538.76,507.44 541.50,507.44 544.23,507.44 546.97,507.44 549.71,507.44 552.44,507.44 555.18,507.44 557.92,507.44 560.65,507.44 563.39,507.44 566.13,507.44 568.87,507.44 571.60,507.44 574.34,507.44 577.08,507.44 579.81,507.44 582.55,507.44 585.29,507.44 588.02,507.44 590.76,507.44 593.50,507.44 596.23,507.44 598.97,507.44 601.71,507.44 604.45,507.44 607.18,507.44 609.92,507.44" style="stroke-width: 1.07;stroke: none;stroke-linecap: butt;"/>
<polyline points="609.92,507.44 607.18,507.44 604.45,507.44 601.71,507.44 598.97,507.44 596.23,507.44 593.50,507.44 590.76,507.44 588.02,507.44 585.29,507.44 582.55,507.44 579.81,507.44 577.08,507.44 574.34,507.44 571.60,507.44 568.87,507.44 566.13,507.44 563.39,507.44 560.65,507.44 557.92,507.44 555.18,507.44 552.44,507.44 549.71,507.44 546.97,507.44 544.23,507.44 541.50,507.44 538.76,507.44 536.02,507.44 533.28,507.44 530.55,507.44 527.81,507.44 525.07,507.44 522.34,507.44 519.60,507.44 516.86,507.44 514.13,507.44 511.39,507.44 508.65,507.44 505.92,507.44 503.18,507.44 500.44,507.44 497.70,507.44 494.97,507.44 492.23,507.44 489.49,507.44 486.76,507.44 484.02,507.44 481.28,507.44 478.55,507.44 475.81,507.44 473.07,507.44 470.34,507.44 467.60,507.44 464.86,507.44 462.12,507.44 459.39,507.44 456.65,507.44 453.91,507.44 451.18,507.44 448.44,507.44 445.70,507.44 442.97,507.44 440.23,507.44 437.49,507.44 434.75,507.44 432.02,507.44 429.28,507.44 426.54,507.44 423.81,507.44 421.07,507.44 418.33,507.44 415.60,507.44 412.86,507.44 410.12,507.44 407.39,507.44 404.65,507.44 401.91,507.44 399.17,507.44 396.44,507.44 393.70,507.44 390.96,507.44 388.23,507.44 385.49,507.44 382.75,507.44 380.02,507.44 377.28,507.44 374.54,507.44 371.80,507.43 369.07,507.43 366.33,507.43 363.59,507.42 360.86,507.42 358.12,507.41 355.38,507.40 352.65,507.39 349.91,507.38 347.17,507.36 344.44,507.33 341.70,507.30 338.96,507.26 336.22,507.21 333.49,507.14 330.75,507.05 328.01,506.94 325.28,506.79 322.54,506.60 319.80,506.36 317.07,506.05 314.33,505.65 311.59,505.14 308.86,504.48 306.12,503.64 303.38,502.56 300.64,501.17 297.91,499.40 295.17,497.15 292.43,494.27 289.70,490.62 286.96,486.02 284.22,480.22 281.49,472.98 278.75,463.98 276.01,452.94 273.27,439.54 270.54,423.54 267.80,404.67 265.06,382.96 262.33,358.73 259.59,332.25 256.85,304.08 254.12,275.03 251.38,246.00 248.64,218.16 245.91,196.34 243.17,180.81 240.43,166.42 237.69,153.10 234.96,140.75 232.22,129.61 229.48,119.55 226.75,110.43 224.01,102.28 221.27,95.03 218.54,88.62 215.80,83.01 213.06,78.08 210.32,73.77 207.59,70.01 204.85,66.72 202.11,63.87 199.38,61.40 196.64,59.27 193.90,57.43 191.17,55.84 188.43,54.48 185.69,53.30 182.96,52.30 180.22,51.43 177.48,50.68 174.74,50.05 172.01,49.50 169.27,49.03 166.53,48.63 163.80,48.28 161.06,47.99 158.32,47.74 155.59,47.52 152.85,47.33 150.11,47.18 147.38,47.04 144.64,46.92 141.90,46.83 139.16,46.74 136.43,46.67 133.69,46.61 130.95,46.55 128.22,46.51 125.48,46.47 122.74,46.43 120.01,46.41 117.27,46.38 114.53,46.36 111.79,46.34 109.06,46.33 106.32,46.31 103.58,46.30 100.85,46.29 98.11,46.29 95.37,46.28 92.64,46.27 89.90,46.27 87.16,46.26 84.43,46.26 81.69,46.26 78.95,46.25 76.21,46.25 73.48,46.25 70.74,46.25 68.00,46.25 65.27,46.25" style="stroke-width: 1.07;stroke: none;stroke-linecap: butt;"/>
<polygon points="65.27,46.24 68.00,46.24 70.74,46.24 73.48,46.24 76.21,46.24 78.95,46.24 81.69,46.24 84.43,46.24 87.16,46.24 89.90,46.24 92.64,46.24 95.37,46.24 98.11,46.24 100.85,46.24 103.58,46.24 106.32,46.24 109.06,46.24 111.79,46.24 114.53,46.24 117.27,46.24 120.01,46.24 122.74,46.24 125.48,46.24 128.22,46.24 130.95,46.24 133.69,46.24 136.43,46.24 139.16,46.24 141.90,46.24 144.64,46.24 147.38,46.24 150.11,46.24 152.85,46.24 155.59,46.24 158.32,46.24 161.06,46.24 163.80,46.24 166.53,46.24 169.27,46.24 172.01,46.24 174.74,46.24 177.48,46.24 180.22,46.25 182.96,46.25 185.69,46.26 188.43,46.26 191.17,46.28 193.90,46.30 196.64,46.32 199.38,46.37 202.11,46.43 204.85,46.52 207.59,46.65 210.32,46.85 213.06,47.14 215.80,47.57 218.54,48.20 221.27,49.15 224.01,50.53 226.75,52.56 229.48,55.56 232.22,59.90 234.96,65.95 237.69,74.08 240.43,84.69 243.17,97.94 245.91,113.79 248.64,131.95 251.38,151.91 254.12,172.78 256.85,193.68 259.59,213.62 262.33,232.08 265.06,251.64 267.80,271.34 270.54,291.25 273.27,310.93 276.01,330.13 278.75,348.61 281.49,366.14 284.22,382.54 286.96,397.68 289.70,411.52 292.43,424.02 295.17,435.22 297.91,445.16 300.64,453.92 303.38,461.59 306.12,468.27 308.86,474.05 311.59,479.04 314.33,483.32 317.07,486.99 319.80,490.12 322.54,492.79 325.28,495.06 328.01,496.99 330.75,498.62 333.49,500.00 336.22,501.17 338.96,502.15 341.70,502.99 344.44,503.69 347.17,504.28 349.91,504.78 352.65,505.21 355.38,505.56 358.12,505.86 360.86,506.11 363.59,506.32 366.33,506.50 369.07,506.65 371.80,506.78 374.54,506.88 377.28,506.97 380.02,507.05 382.75,507.11 385.49,507.16 388.23,507.21 390.96,507.24 393.70,507.28 396.44,507.30 399.17,507.33 401.91,507.34 404.65,507.36 407.39,507.37 410.12,507.38 412.86,507.39 415.60,507.40 418.33,507.41 421.07,507.41 423.81,507.42 426.54,507.42 429.28,507.43 432.02,507.43 434.75,507.43 437.49,507.43 440.23,507.43 442.97,507.44 445.70,507.44 448.44,507.44 451.18,507.44 453.91,507.44 456.65,507.44 459.39,507.44 462.12,507.44 464.86,507.44 467.60,507.44 470.34,507.44 473.07,507.44 475.81,507.44 478.55,507.44 481.28,507.44 484.02,507.44 486.76,507.44 489.49,507.44 492.23,507.44 494.97,507.44 497.70,507.44 500.44,507.44 503.18,507.44 505.92,507.44 508.65,507.44 511.39,507.44 514.13,507.44 516.86,507.44 519.60,507.44 522.34,507.44 525.07,507.44 527.81,507.44 530.55,507.44 533.28,507.44 536.02,507.44 538.76,507.44 541.50,507.44 544.23,507.44 546.97,507.44 549.71,507.44 552.44,507.44 555.18,507.44 557.92,507.44 560.65,507.44 563.39,507.44 566.13,507.44 568.87,507.44 571.60,507.44 574.34,507.44 577.08,507.44 579.81,507.44 582.55,507.44 585.29,507.44 588.02,507.44 590.76,507.44 593.50,507.44 596.23,507.44 598.97,507.44 601.71,507.44 604.45,507.44 607.18,507.44 609.92,507.44 609.92,507.44 607.18,507.44 604.45,507.44 601.71,507.44 598.97,507.44 596.23,507.44 593.50,507.44 590.76,507.44 588.02,507.44 585.29,507.44 582.55,507.44 579.81,507.44 577.08,507.44 574.34,507.44 571.60,507.44 568.87,507.44 566.13,507.44 563.39,507.44 560.65,507.44 557.92,507.44 555.18,507.44 552.44,507.44 549.71,507.44 546.97,507.44 544.23,507.44 541.50,507.44 538.76,507.44 536.02,507.44 533.28,507.44 530.55,507.44 527.81,507.44 525.07,507.44 522.34,507.44 519.60,507.44 516.86,507.44 514.13,507.44 511.39,507.44 508.65,507.44 505.92,507.44 503.18,507.44 500.44,507.44 497.70,507.44 494.97,507.44 492.23,507.44 489.49,507.44 486.76,507.44 484.02,507.44 481.28,507.44 478.55,507.44 475.81,507.44 473.07,507.44 470.34,507.44 467.60,507.44 464.86,507.44 462.12,507.44 459.39,507.44 456.65,507.44 453.91,507.44 451.18,507.44 448.44,507.44 445.70,507.44 442.97,507.44 440.23,507.44 437.49,507.44 434.75,507.44 432.02,507.44 429.28,507.44 426.54,507.44 423.81,507.44 421.07,507.44 418.33,507.44 415.60,507.44 412.86,507.44 410.12,507.44 407.39,507.44 404.65,507.44 401.91,507.44 399.17,507.44 396.44,507.44 393.70,507.44 390.96,507.44 388.23,507.44 385.49,507.44 382.75,507.44 380.02,507.44 377.28,507.44 374.54,507.44 371.80,507.44 369.07,507.44 366.33,507.44 363.59,507.44 360.86,507.44 358.12,507.44 355.38,507.44 352.65,507.44 349.91,507.44 347.17,507.44 344.44,507.44 341.70,507.44 338.96,507.44 336.22,507.44 333.49,507.44 330.75,507.43 328.01,507.43 325.28,507.42 322.54,507.41 319.80,507.39 317.07,507.36 314.33,507.32 311.59,507.26 308.86,507.18 306.12,507.05 303.38,506.86 300.64,506.58 297.91,506.17 295.17,505.56 292.43,504.67 289.70,503.35 286.96,501.42 284.22,498.59 281.49,494.48 278.75,488.54 276.01,480.03 273.27,468.05 270.54,451.49 267.80,429.27 265.06,400.55 262.33,365.20 259.59,324.21 256.85,279.83 254.12,235.23 251.38,193.59 248.64,159.35 245.91,138.20 243.17,123.68 240.43,113.05 237.69,103.76 234.96,95.55 232.22,88.40 229.48,82.19 226.75,76.83 224.01,72.22 221.27,68.27 218.54,64.89 215.80,62.02 213.06,59.57 210.32,57.50 207.59,55.74 204.85,54.25 202.11,53.00 199.38,51.93 196.64,51.03 193.90,50.28 191.17,49.64 188.43,49.10 185.69,48.65 182.96,48.27 180.22,47.94 177.48,47.67 174.74,47.45 172.01,47.25 169.27,47.09 166.53,46.96 163.80,46.84 161.06,46.75 158.32,46.67 155.59,46.60 152.85,46.54 150.11,46.49 147.38,46.45 144.64,46.42 141.90,46.39 139.16,46.36 136.43,46.34 133.69,46.33 130.95,46.31 128.22,46.30 125.48,46.29 122.74,46.28 120.01,46.28 117.27,46.27 114.53,46.26 111.79,46.26 109.06,46.26 106.32,46.25 103.58,46.25 100.85,46.25 98.11,46.25 95.37,46.25 92.64,46.24 89.90,46.24 87.16,46.24 84.43,46.24 81.69,46.24 78.95,46.24 76.21,46.24 73.48,46.24 70.74,46.24 68.00,46.24 65.27,46.24" style="stroke-width: 0.00;stroke: none;stroke-linecap: butt;fill: #7CAE00;fill-opacity: 0.20;" />
<polyline points="65.27,46.24 68.00,46.24 70.74,46.24 73.48,46.24 76.21,46.24 78.95,46.24 81.69,46.24 84.43,46.24 87.16,46.24 89.90,46.24 92.64,46.24 95.37,46.24 98.11,46.24 100.85,46.24 103.58,46.24 106.32,46.24 109.06,46.24 111.79,46.24 114.53,46.24 117.27,46.24 120.01,46.24 122.74,46.24 125.48,46.24 128.22,46.24 130.95,46.24 133.69,46.24 136.43,46.24 139.16,46.24 141.90,46.24 144.64,46.24 147.38,46.24 150.11,46.24 152.85,46.24 155.59,46.24 158.32,46.24 161.06,46.24 163.80,46.24 166.53,46.24 169.27,46.24 172.01,46.24 174.74,46.24 177.48,46.24 180.22,46.25 182.96,46.25 185.69,46.26 188.43,46.26 191.17,46.28 193.90,46.30 196.64,46.32 199.38,46.37 202.11,46.43 204.85,46.52 207.59,46.65 210.32,46.85 213.06,47.14 215.80,47.57 218.54,48.20 221.27,49.15 224.01,50.53 226.75,52.56 229.48,55.56 232.22,59.90 234.96,65.95 237.69,74.08 240.43,84.69 243.17,97.94 245.91,113.79 248.64,131.95 251.38,151.91 254.12,172.78 256.85,193.68 259.59,213.62 262.33,232.08 265.06,251.64 267.80,271.34 270.54,291.25 273.27,310.93 276.01,330.13 278.75,348.61 281.49,366.14 284.22,382.54 286.96,397.68 289.70,411.52 292.43,424.02 295.17,435.22 297.91,445.16 300.64,453.92 303.38,461.59 306.12,468.27 308.86,474.05 311.59,479.04 314.33,483.32 317.07,486.99 319.80,490.12 322.54,492.79 325.28,495.06 328.01,496.99 330.75,498.62 333.49,500.00 336.22,501.17 338.96,502.15 341.70,502.99 344.44,503.69 347.17,504.28 349.91,504.78 352.65,505.21 355.38,505.56 358.12,505.86 360.86,506.11 363.59,506.32 366.33,506.50 369.07,506.65 371.80,506.78 374.54,506.88 377.28,506.97 380.02,507.05 382.75,507.11 385.49,507.16 388.23,507.21 390.96,507.24 393.70,507.28 396.44,507.30 399.17,507.33 401.91,507.34 404.65,507.36 407.39,507.37 410.12,507.38 412.86,507.39 415.60,507.40 418.33,507.41 421.07,507.41 423.81,507.42 426.54,507.42 429.28,507.43 432.02,507.43 434.75,507.43 437.49,507.43 440.23,507.43 442.97,507.44 445.70,507.44 448.44,507.44 451.18,507.44 453.91,507.44 456.65,507.44 459.39,507.44 462.12,507.44 464.86,507.44 467.60,507.44 470.34,507.44 473.07,507.44 475.81,507.44 478.55,507.44 481.28,507.44 484.02,507.44 486.76,507.44 489.49,507.44 492.23,507.44 494.97,507.44 497.70,507.44 500.44,507.44 503.18,507.44 505.92,507.44 508.65,507.44 511.39,507.44 514.13,507.44 516.86,507.44 519.60,507.44 522.34,507.44 525.07,507.44 527.81,507.44 530.55,507.44 533.28,507.44 536.02,507.44 538.76,507.44 541.50,507.44 544.23,507.44 546.97,507.44 549.71,507.44 552.44,507.44 555.18,507.44 557.92,507.44 560.65,507.44 563.39,507.44 566.13,507.44 568.87,507.44 571.60,507.44 574.34,507.44 577.08,507.44 579.81,507.44 582.55,507.44 585.29,507.44 588.02,507.44 590.76,507.44 593.50,507.44 596.23,507.44 598.97,507.44 601.71,507.44 604.45,507.44 607.18,507.44 609.92,507.44" style="stroke-width: 1.07;stroke: none;stroke-linecap: butt;"/>
<polyline points="609.92,507.44 607.18,507.44 604.45,507.44 601.71,507.44 598.97,507.44 596.23,507.44 593.50,507.44 590.76,507.44 588.02,507.44 585.29,507.44 582.55,507.44 579.81,507.44 577.08,507.44 574.34,507.44 571.60,507.44 568.87,507.44 566.13,507.44 563.39,507.44 560.65,507.44 557.92,507.44 555.18,507.44 552.44,507.44 549.71,507.44 546.97,507.44 544.23,507.44 541.50,507.44 538.76,507.44 536.02,507.44 533.28,507.44 530.55,507.44 527.81,507.44 525.07,507.44 522.34,507.44 519.60,507.44 516.86,507.44 514.13,507.44 511.39,507.44 508.65,507.44 505.92,507.44 503.18,507.44 500.44,507.44 497.70,507.44 494.97,507.44 492.23,507.44 489.49,507.44 486.76,507.44 484.02,507.44 481.28,507.44 478.55,507.44 475.81,507.44 473.07,507.44 470.34,507.44 467.60,507.44 464.86,507.44 462.12,507.44 459.39,507.44 456.65,507.44 453.91,507.44 451.18,507.44 448.44,507.44 445.70,507.44 442.97,507.44 440.23,507.44 437.49,507.44 434.75,507.44 432.02,507.44 429.28,507.44 426.54,507.44 423.81,507.44 421.07,507.44 418.33,507.44 415.60,507.44 412.86,507.44 410.12,507.44 407.39,507.44 404.65,507.44 401.91,507.44 399.17,507.44 396.44,507.44 393.70,507.44 390.96,507.44 388.23,507.44 385.49,507.44 382.75,507.44 380.02,507.44 377.28,507.44 374.54,507.44 371.80,507.44 369.07,507.44 366.33,507.44 363.59,507.44 360.86,507.44 358.12,507.44 355.38,507.44 352.65,507.44 349.91,507.44 347.17,507.44 344.44,507.44 341.70,507.44 338.96,507.44 336.22,507.44 333.49,507.44 330.75,507.43 328.01,507.43 325.28,507.42 322.54,507.41 319.80,507.39 317.07,507.36 314.33,507.32 311.59,507.26 308.86,507.18 306.12,507.05 303.38,506.86 300.64,506.58 297.91,506.17 295.17,505.56 292.43,504.67 289.70,503.35 286.96,501.42 284.22,498.59 281.49,494.48 278.75,488.54 276.01,480.03 273.27,468.05 270.54,451.49 267.80,429.27 265.06,400.55 262.33,365.20 259.59,324.21 256.85,279.83 254.12,235.23 251.38,193.59 248.64,159.35 245.91,138.20 243.17,123.68 240.43,113.05 237.69,103.76 234.96,95.55 232.22,88.40 229.48,82.19 226.75,76.83 224.01,72.22 221.27,68.27 218.54,64.89 215.80,62.02 213.06,59.57 210.32,57.50 207.59,55.74 204.85,54.25 202.11,53.00 199.38,51.93 196.64,51.03 193.90,50.28 191.17,49.64 188.43,49.10 185.69,48.65 182.96,48.27 180.22,47.94 177.48,47.67 174.74,47.45 172.01,47.25 169.27,47.09 166.53,46.96 163.80,46.84 161.06,46.75 158.32,46.67 155.59,46.60 152.85,46.54 150.11,46.49 147.38,46.45 144.64,46.42 141.90,46.39 139.16,46.36 136.43,46.34 133.69,46.33 130.95,46.31 128.22,46.30 125.48,46.29 122.74,46.28 120.01,46.28 117.27,46.27 114.53,46.26 111.79,46.26 109.06,46.26 106.32,46.25 103.58,46.25 100.85,46.25 98.11,46.25 95.37,46.25 92.64,46.24 89.90,46.24 87.16,46.24 84.43,46.24 81.69,46.24 78.95,46.24 76.21,46.24 73.48,46.24 70.74,46.24 68.00,46.24 65.27,46.24" style="stroke-width: 1.07;stroke: none;stroke-linecap: butt;"/>
<polygon points="65.27,157.68 68.00,157.68 70.74,157.68 73.48,157.68 76.21,157.68 78.95,157.68 81.69,157.68 84.43,157.68 87.16,157.68 89.90,157.68 92.64,157.68 95.37,157.68 98.11,157.68 100.85,157.68 103.58,157.69 106.32,157.69 109.06,157.69 111.79,157.69 114.53,157.69 117.27,157.69 120.01,157.70 122.74,157.70 125.48,157.70 128.22,157.70 130.95,157.71 133.69,157.71 136.43,157.71 139.16,157.71 141.90,157.71 144.64,157.71 147.38,157.72 150.11,157.72 152.85,157.72 155.59,157.73 158.32,157.74 161.06,157.75 163.80,157.75 166.53,157.76 169.27,157.77 172.01,157.78 174.74,157.79 177.48,157.80 180.22,157.81 182.96,157.82 185.69,157.83 188.43,157.85 191.17,157.89 193.90,157.93 196.64,157.97 199.38,158.05 202.11,158.10 204.85,158.19 207.59,158.32 210.32,158.49 213.06,158.74 215.80,159.11 218.54,159.71 221.27,160.60 224.01,162.02 226.75,164.38 229.48,168.09 232.22,174.06 234.96,183.08 237.69,195.67 240.43,211.92 243.17,231.29 245.91,252.32 248.64,273.46 251.38,292.84 254.12,309.29 256.85,321.77 259.59,330.14 262.33,336.93 265.06,344.09 267.80,351.25 270.54,358.40 273.27,365.47 276.01,372.42 278.75,379.25 281.49,385.92 284.22,392.43 286.96,398.75 289.70,404.88 292.43,410.80 295.17,416.51 297.91,421.99 300.64,427.24 303.38,432.27 306.12,437.06 308.86,441.61 311.59,445.94 314.33,450.04 317.07,453.92 319.80,457.58 322.54,461.03 325.28,464.28 328.01,467.33 330.75,470.19 333.49,472.86 336.22,475.37 338.96,477.71 341.70,479.90 344.44,481.93 347.17,483.83 349.91,485.60 352.65,487.24 355.38,488.76 358.12,490.18 360.86,491.49 363.59,492.71 366.33,493.84 369.07,494.89 371.80,495.86 374.54,496.75 377.28,497.58 380.02,498.35 382.75,499.06 385.49,499.71 388.23,500.31 390.96,500.87 393.70,501.39 396.44,501.86 399.17,502.30 401.91,502.71 404.65,503.08 407.39,503.42 410.12,503.74 412.86,504.03 415.60,504.30 418.33,504.55 421.07,504.78 423.81,504.99 426.54,505.19 429.28,505.36 432.02,505.53 434.75,505.68 437.49,505.82 440.23,505.95 442.97,506.07 445.70,506.18 448.44,506.28 451.18,506.37 453.91,506.46 456.65,506.54 459.39,506.61 462.12,506.67 464.86,506.74 467.60,506.79 470.34,506.84 473.07,506.89 475.81,506.94 478.55,506.98 481.28,507.01 484.02,507.05 486.76,507.08 489.49,507.11 492.23,507.13 494.97,507.16 497.70,507.18 500.44,507.20 503.18,507.22 505.92,507.24 508.65,507.26 511.39,507.27 514.13,507.28 516.86,507.30 519.60,507.31 522.34,507.32 525.07,507.33 527.81,507.34 530.55,507.35 533.28,507.35 536.02,507.36 538.76,507.37 541.50,507.37 544.23,507.38 546.97,507.38 549.71,507.39 552.44,507.39 555.18,507.40 557.92,507.40 560.65,507.40 563.39,507.41 566.13,507.41 568.87,507.41 571.60,507.42 574.34,507.42 577.08,507.42 579.81,507.42 582.55,507.42 585.29,507.43 588.02,507.43 590.76,507.43 593.50,507.43 596.23,507.43 598.97,507.43 601.71,507.43 604.45,507.43 607.18,507.43 609.92,507.43 609.92,507.44 607.18,507.44 604.45,507.44 601.71,507.44 598.97,507.44 596.23,507.44 593.50,507.44 590.76,507.44 588.02,507.44 585.29,507.44 582.55,507.44 579.81,507.44 577.08,507.44 574.34,507.44 571.60,507.44 568.87,507.44 566.13,507.44 563.39,507.44 560.65,507.44 557.92,507.44 555.18,507.44 552.44,507.44 549.71,507.44 546.97,507.44 544.23,507.44 541.50,507.44 538.76,507.44 536.02,507.44 533.28,507.44 530.55,507.44 527.81,507.44 525.07,507.44 522.34,507.44 519.60,507.44 516.86,507.44 514.13,507.44 511.39,507.44 508.65,507.44 505.92,507.44 503.18,507.44 500.44,507.44 497.70,507.44 494.97,507.44 492.23,507.44 489.49,507.44 486.76,507.44 484.02,507.44 481.28,507.44 478.55,507.44 475.81,507.44 473.07,507.44 470.34,507.44 467.60,507.44 464.86,507.44 462.12,507.44 459.39,507.44 456.65,507.44 453.91,507.44 451.18,507.44 448.44,507.44 445.70,507.44 442.97,507.44 440.23,507.44 437.49,507.44 434.75,507.44 432.02,507.44 429.28,507.44 426.54,507.44 423.81,507.44 421.07,507.44 418.33,507.44 415.60,507.44 412.86,507.44 410.12,507.44 407.39,507.44 404.65,507.44 401.91,507.44 399.17,507.44 396.44,507.44 393.70,507.44 390.96,507.44 388.23,507.44 385.49,507.44 382.75,507.44 380.02,507.44 377.28,507.44 374.54,507.44 371.80,507.44 369.07,507.44 366.33,507.44 363.59,507.44 360.86,507.44 358.12,507.44 355.38,507.44 352.65,507.44 349.91,507.44 347.17,507.44 344.44,507.44 341.70,507.44 338.96,507.44 336.22,507.44 333.49,507.44 330.75,507.44 328.01,507.44 325.28,507.44 322.54,507.44 319.80,507.44 317.07,507.44 314.33,507.44 311.59,507.44 308.86,507.43 306.12,507.43 303.38,507.42 300.64,507.40 297.91,507.38 295.17,507.34 292.43,507.27 289.70,507.17 286.96,507.00 284.22,506.72 281.49,506.28 278.75,505.55 276.01,504.37 273.27,502.48 270.54,499.45 267.80,494.62 265.06,487.01 262.33,475.38 259.59,458.19 256.85,433.92 254.12,401.90 251.38,363.23 248.64,322.40 245.91,298.90 243.17,287.68 240.43,280.79 237.69,274.24 234.96,267.88 232.22,261.71 229.48,255.74 226.75,249.99 224.01,244.47 221.27,239.18 218.54,234.12 215.80,229.29 213.06,224.70 210.32,220.33 207.59,216.20 204.85,212.29 202.11,208.61 199.38,205.13 196.64,201.86 193.90,198.79 191.17,195.92 188.43,193.22 185.69,190.70 182.96,188.34 180.22,186.15 177.48,184.10 174.74,182.19 172.01,180.42 169.27,178.77 166.53,177.24 163.80,175.81 161.06,174.50 158.32,173.27 155.59,172.14 152.85,171.09 150.11,170.12 147.38,169.20 144.64,168.35 141.90,167.55 139.16,166.82 136.43,166.14 133.69,165.52 130.95,164.94 128.22,164.41 125.48,163.91 122.74,163.45 120.01,163.02 117.27,162.63 114.53,162.26 111.79,161.92 109.06,161.61 106.32,161.33 103.58,161.09 100.85,160.86 98.11,160.66 95.37,160.48 92.64,160.31 89.90,160.16 87.16,160.02 84.43,159.90 81.69,159.78 78.95,159.69 76.21,159.60 73.48,159.53 70.74,159.45 68.00,159.39 65.27,159.33" style="stroke-width: 0.00;stroke: none;stroke-linecap: butt;fill: #00BFC4;fill-opacity: 0.20;" />
<polyline points="65.27,157.68 68.00,157.68 70.74,157.68 73.48,157.68 76.21,157.68 78.95,157.68 81.69,157.68 84.43,157.68 87.16,157.68 89.90,157.68 92.64,157.68 95.37,157.68 98.11,157.68 100.85,157.68 103.58,157.69 106.32,157.69 109.06,157.69 111.79,157.69 114.53,157.69 117.27,157.69 120.01,157.70 122.74,157.70 125.48,157.70 128.22,157.70 130.95,157.71 133.69,157.71 136.43,157.71 139.16,157.71 141.90,157.71 144.64,157.71 147.38,157.72 150.11,157.72 152.85,157.72 155.59,157.73 158.32,157.74 161.06,157.75 163.80,157.75 166.53,157.76 169.27,157.77 172.01,157.78 174.74,157.79 177.48,157.80 180.22,157.81 182.96,157.82 185.69,157.83 188.43,157.85 191.17,157.89 193.90,157.93 196.64,157.97 199.38,158.05 202.11,158.10 204.85,158.19 207.59,158.32 210.32,158.49 213.06,158.74 215.80,159.11 218.54,159.71 221.27,160.60 224.01,162.02 226.75,164.38 229.48,168.09 232.22,174.06 234.96,183.08 237.69,195.67 240.43,211.92 243.17,231.29 245.91,252.32 248.64,273.46 251.38,292.84 254.12,309.29 256.85,321.77 259.59,330.14 262.33,336.93 265.06,344.09 267.80,351.25 270.54,358.40 273.27,365.47 276.01,372.42 278.75,379.25 281.49,385.92 284.22,392.43 286.96,398.75 289.70,404.88 292.43,410.80 295.17,416.51 297.91,421.99 300.64,427.24 303.38,432.27 306.12,437.06 308.86,441.61 311.59,445.94 314.33,450.04 317.07,453.92 319.80,457.58 322.54,461.03 325.28,464.28 328.01,467.33 330.75,470.19 333.49,472.86 336.22,475.37 338.96,477.71 341.70,479.90 344.44,481.93 347.17,483.83 349.91,485.60 352.65,487.24 355.38,488.76 358.12,490.18 360.86,491.49 363.59,492.71 366.33,493.84 369.07,494.89 371.80,495.86 374.54,496.75 377.28,497.58 380.02,498.35 382.75,499.06 385.49,499.71 388.23,500.31 390.96,500.87 393.70,501.39 396.44,501.86 399.17,502.30 401.91,502.71 404.65,503.08 407.39,503.42 410.12,503.74 412.86,504.03 415.60,504.30 418.33,504.55 421.07,504.78 423.81,504.99 426.54,505.19 429.28,505.36 432.02,505.53 434.75,505.68 437.49,505.82 440.23,505.95 442.97,506.07 445.70,506.18 448.44,506.28 451.18,506.37 453.91,506.46 456.65,506.54 459.39,506.61 462.12,506.67 464.86,506.74 467.60,506.79 470.34,506.84 473.07,506.89 475.81,506.94 478.55,506.98 481.28,507.01 484.02,507.05 486.76,507.08 489.49,507.11 492.23,507.13 494.97,507.16 497.70,507.18 500.44,507.20 503.18,507.22 505.92,507.24 508.65,507.26 511.39,507.27 514.13,507.28 516.86,507.30 519.60,507.31 522.34,507.32 525.07,507.33 527.81,507.34 530.55,507.35 533.28,507.35 536.02,507.36 538.76,507.37 541.50,507.37 544.23,507.38 546.97,507.38 549.71,507.39 552.44,507.39 555.18,507.40 557.92,507.40 560.65,507.40 563.39,507.41 566.13,507.41 568.87,507.41 571.60,507.42 574.34,507.42 577.08,507.42 579.81,507.42 582.55,507.42 585.29,507.43 588.02,507.43 590.76,507.43 593.50,507.43 596.23,507.43 598.97,507.43 601.71,507.43 604.45,507.43 607.18,507.43 609.92,507.43" style="stroke-width: 1.07;stroke: none;stroke-linecap: butt;"/>
<polyline points="609.92,507.44 607.18,507.44 604.45,507.44 601.71,507.44 598.97,507.44 596.23,507.44 593.50,507.44 590.76,507.44 588.02,507.44 585.29,507.44 582.55,507.44 579.81,507.44 577.08,507.44 574.34,507.44 571.60,507.44 568.87,507.44 566.13,507.44 563.39,507.44 560.65,507.44 557.92,507.44 555.18,507.44 552.44,507.44 549.71,507.44 546.97,507.44 544.23,507.44 541.50,507.44 538.76,507.44 536.02,507.44 533.28,507.44 530.55,507.44 527.81,507.44 525.07,507.44 522.34,507.44 519.60,507.44 516.86,507.44 514.13,507.44 511.39,507.44 508.65,507.44 505.92,507.44 503.18,507.44 500.44,507.44 497.70,507.44 494.97,507.44 492.23,507.44 489.49,507.44 486.76,507.44 484.02,507.44 481.28,507.44 478.55,507.44 475.81,507.44 473.07,507.44 470.34,507.44 467.60,507.44 464.86,507.44 462.12,507.44 459.39,507.44 456.65,507.44 453.91,507.44 451.18,507.44 448.44,507.44 445.70,507.44 442.97,507.44 440.23,507.44 437.49,507.44 434.75,507.44 432.02,507.44 429.28,507.44 426.54,507.44 423.81,507.44 421.07,507.44 418.33,507.44 415.60,507.44 412.86,507.44 410.12,507.44 407.39,507.44 404.65,507.44 401.91,507.44 399.17,507.44 396.44,507.44 393.70,507.44 390.96,507.44 388.23,507.44 385.49,507.44 382.75,507.44 380.02,507.44 377.28,507.44 374.54,507.44 371.80,507.44 369.07,507.44 366.33,507.44 363.59,507.44 360.86,507.44 358.12,507.44 355.38,507.44 352.65,507.44 349.91,507.44 347.17,507.44 344.44,507.44 341.70,507.44 338.96,507.44 336.22,507.44 333.49,507.44 330.75,507.44 328.01,507.44 325.28,507.44 322.54,507.44 319.80,507.44 317.07,507.44 314.33,507.44 311.59,507.44 308.86,507.43 306.12,507.43 303.38,507.42 300.64,507.40 297.91,507.38 295.17,507.34 292.43,507.27 289.70,507.17 286.96,507.00 284.22,506.72 281.49,506.28 278.75,505.55 276.01,504.37 273.27,502.48 270.54,499.45 267.80,494.62 265.06,487.01 262.33,475.38 259.59,458.19 256.85,433.92 254.12,401.90 251.38,363.23 248.64,322.40 245.91,298.90 243.17,287.68 240.43,280.79 237.69,274.24 234.96,267.88 232.22,261.71 229.48,255.74 226.75,249.99 224.01,244.47 221.27,239.18 218.54,234.12 215.80,229.29 213.06,224.70 210.32,220.33 207.59,216.20 204.85,212.29 202.11,208.61 199.38,205.13 196.64,201.86 193.90,198.79 191.17,195.92 188.43,193.22 185.69,190.70 182.96,188.34 180.22,186.15 177.48,184.10 174.74,182.19 172.01,180.42 169.27,178.77 166.53,177.24 163.80,175.81 161.06,174.50 158.32,173.27 155.59,172.14 152.85,171.09 150.11,170.12 147.38,169.20 144.64,168.35 141.90,167.55 139.16,166.82 136.43,166.14 133.69,165.52 130.95,164.94 128.22,164.41 125.48,163.91 122.74,163.45 120.01,163.02 117.27,162.63 114.53,162.26 111.79,161.92 109.06,161.61 106.32,161.33 103.58,161.09 100.85,160.86 98.11,160.66 95.37,160.48 92.64,160.31 89.90,160.16 87.16,160.02 84.43,159.90 81.69,159.78 78.95,159.69 76.21,159.60 73.48,159.53 70.74,159.45 68.00,159.39 65.27,159.33" style="stroke-width: 1.07;stroke: none;stroke-linecap: butt;"/>
<polygon points="65.27,46.90 68.00,46.90 70.74,46.90 73.48,46.91 76.21,46.91 78.95,46.91 81.69,46.91 84.43,46.91 87.16,46.91 89.90,46.91 92.64,46.91 95.37,46.92 98.11,46.92 100.85,46.92 103.58,46.92 106.32,46.93 109.06,46.93 111.79,46.94 114.53,46.95 117.27,46.95 120.01,46.96 122.74,46.97 125.48,46.99 128.22,47.00 130.95,47.02 133.69,47.05 136.43,47.08 139.16,47.13 141.90,47.17 144.64,47.23 147.38,47.28 150.11,47.35 152.85,47.43 155.59,47.51 158.32,47.63 161.06,47.77 163.80,47.90 166.53,48.08 169.27,48.26 172.01,48.48 174.74,48.72 177.48,49.00 180.22,49.32 182.96,49.70 185.69,50.16 188.43,50.74 191.17,51.32 193.90,52.04 196.64,52.96 199.38,53.99 202.11,55.22 204.85,56.70 207.59,58.33 210.32,60.36 213.06,62.81 215.80,65.67 218.54,69.14 221.27,73.31 224.01,78.31 226.75,84.42 229.48,91.49 232.22,99.86 234.96,109.51 237.69,120.70 240.43,133.25 243.17,146.70 245.91,161.28 248.64,176.55 251.38,191.99 254.12,207.53 256.85,222.80 259.59,237.89 262.33,252.69 265.06,267.72 267.80,283.21 270.54,298.27 273.27,313.66 276.01,328.36 278.75,342.62 281.49,356.36 284.22,369.60 286.96,382.03 289.70,393.75 292.43,404.71 295.17,415.08 297.91,424.63 300.64,433.21 303.38,441.06 306.12,448.28 308.86,454.82 311.59,460.74 314.33,466.03 317.07,470.76 319.80,475.04 322.54,478.84 325.28,482.20 328.01,485.20 330.75,487.87 333.49,490.23 336.22,492.32 338.96,494.16 341.70,495.78 344.44,497.21 347.17,498.46 349.91,499.57 352.65,500.54 355.38,501.39 358.12,502.14 360.86,502.80 363.59,503.38 366.33,503.88 369.07,504.33 371.80,504.71 374.54,505.05 377.28,505.35 380.02,505.61 382.75,505.84 385.49,506.04 388.23,506.22 390.96,506.37 393.70,506.50 396.44,506.62 399.17,506.72 401.91,506.81 404.65,506.89 407.39,506.96 410.12,507.02 412.86,507.07 415.60,507.12 418.33,507.16 421.07,507.20 423.81,507.23 426.54,507.25 429.28,507.28 432.02,507.30 434.75,507.32 437.49,507.33 440.23,507.35 442.97,507.36 445.70,507.37 448.44,507.38 451.18,507.39 453.91,507.39 456.65,507.40 459.39,507.41 462.12,507.41 464.86,507.41 467.60,507.42 470.34,507.42 473.07,507.42 475.81,507.43 478.55,507.43 481.28,507.43 484.02,507.43 486.76,507.43 489.49,507.43 492.23,507.44 494.97,507.44 497.70,507.44 500.44,507.44 503.18,507.44 505.92,507.44 508.65,507.44 511.39,507.44 514.13,507.44 516.86,507.44 519.60,507.44 522.34,507.44 525.07,507.44 527.81,507.44 530.55,507.44 533.28,507.44 536.02,507.44 538.76,507.44 541.50,507.44 544.23,507.44 546.97,507.44 549.71,507.44 552.44,507.44 555.18,507.44 557.92,507.44 560.65,507.44 563.39,507.44 566.13,507.44 568.87,507.44 571.60,507.44 574.34,507.44 577.08,507.44 579.81,507.44 582.55,507.44 585.29,507.44 588.02,507.44 590.76,507.44 593.50,507.44 596.23,507.44 598.97,507.44 601.71,507.44 604.45,507.44 607.18,507.44 609.92,507.44 609.92,507.44 607.18,507.44 604.45,507.44 601.71,507.44 598.97,507.44 596.23,507.44 593.50,507.44 590.76,507.44 588.02,507.44 585.29,507.44 582.55,507.44 579.81,507.44 577.08,507.44 574.34,507.44 571.60,507.44 568.87,507.44 566.13,507.44 563.39,507.44 560.65,507.44 557.92,507.44 555.18,507.44 552.44,507.44 549.71,507.44 546.97,507.44 544.23,507.44 541.50,507.44 538.76,507.44 536.02,507.44 533.28,507.44 530.55,507.44 527.81,507.44 525.07,507.44 522.34,507.44 519.60,507.44 516.86,507.44 514.13,507.44 511.39,507.44 508.65,507.44 505.92,507.44 503.18,507.44 500.44,507.44 497.70,507.44 494.97,507.44 492.23,507.44 489.49,507.44 486.76,507.44 484.02,507.44 481.28,507.44 478.55,507.44 475.81,507.44 473.07,507.44 470.34,507.44 467.60,507.44 464.86,507.44 462.12,507.44 459.39,507.44 456.65,507.44 453.91,507.44 451.18,507.44 448.44,507.44 445.70,507.44 442.97,507.44 440.23,507.44 437.49,507.44 434.75,507.44 432.02,507.44 429.28,507.44 426.54,507.44 423.81,507.44 421.07,507.44 418.33,507.44 415.60,507.44 412.86,507.44 410.12,507.44 407.39,507.44 404.65,507.44 401.91,507.43 399.17,507.43 396.44,507.43 393.70,507.43 390.96,507.42 388.23,507.42 385.49,507.41 382.75,507.40 380.02,507.40 377.28,507.38 374.54,507.37 371.80,507.35 369.07,507.33 366.33,507.31 363.59,507.28 360.86,507.24 358.12,507.19 355.38,507.13 352.65,507.06 349.91,506.96 347.17,506.85 344.44,506.72 341.70,506.55 338.96,506.34 336.22,506.09 333.49,505.78 330.75,505.39 328.01,504.92 325.28,504.34 322.54,503.63 319.80,502.75 317.07,501.68 314.33,500.37 311.59,498.76 308.86,496.79 306.12,494.40 303.38,491.48 300.64,487.94 297.91,483.67 295.17,478.51 292.43,472.32 289.70,464.92 286.96,456.06 284.22,445.76 281.49,433.89 278.75,420.10 276.01,404.32 273.27,386.59 270.54,367.12 267.80,346.08 265.06,323.82 262.33,300.59 259.59,276.87 256.85,253.02 254.12,230.07 251.38,208.03 248.64,187.98 245.91,172.29 243.17,159.73 240.43,148.89 237.69,139.02 234.96,129.95 232.22,121.59 229.48,114.10 226.75,107.23 224.01,100.93 221.27,95.24 218.54,90.11 215.80,85.63 213.06,81.68 210.32,78.07 207.59,74.95 204.85,72.14 202.11,69.65 199.38,67.50 196.64,65.60 193.90,63.98 191.17,62.68 188.43,61.41 185.69,60.35 182.96,59.46 180.22,58.76 177.48,58.20 174.74,57.62 172.01,57.12 169.27,56.75 166.53,56.42 163.80,56.16 161.06,55.92 158.32,55.75 155.59,55.62 152.85,55.55 150.11,55.49 147.38,55.43 144.64,55.35 141.90,55.31 139.16,55.26 136.43,55.21 133.69,55.17 130.95,55.14 128.22,55.13 125.48,55.12 122.74,55.10 120.01,55.10 117.27,55.09 114.53,55.09 111.79,55.09 109.06,55.09 106.32,55.07 103.58,55.07 100.85,55.06 98.11,55.05 95.37,55.05 92.64,55.04 89.90,55.04 87.16,55.03 84.43,55.03 81.69,55.01 78.95,55.01 76.21,55.01 73.48,55.01 70.74,55.01 68.00,55.01 65.27,55.01" style="stroke-width: 0.00;stroke: none;stroke-linecap: butt;fill: #C77CFF;fill-opacity: 0.20;" />
<polyline points="65.27,46.90 68.00,46.90 70.74,46.90 73.48,46.91 76.21,46.91 78.95,46.91 81.69,46.91 84.43,46.91 87.16,46.91 89.90,46.91 92.64,46.91 95.37,46.92 98.11,46.92 100.85,46.92 103.58,46.92 106.32,46.93 109.06,46.93 111.79,46.94 114.53,46.95 117.27,46.95 120.01,46.96 122.74,46.97 125.48,46.99 128.22,47.00 130.95,47.02 133.69,47.05 136.43,47.08 139.16,47.13 141.90,47.17 144.64,47.23 147.38,47.28 150.11,47.35 152.85,47.43 155.59,47.51 158.32,47.63 161.06,47.77 163.80,47.90 166.53,48.08 169.27,48.26 172.01,48.48 174.74,48.72 177.48,49.00 180.22,49.32 182.96,49.70 185.69,50.16 188.43,50.74 191.17,51.32 193.90,52.04 196.64,52.96 199.38,53.99 202.11,55.22 204.85,56.70 207.59,58.33 210.32,60.36 213.06,62.81 215.80,65.67 218.54,69.14 221.27,73.31 224.01,78.31 226.75,84.42 229.48,91.49 232.22,99.86 234.96,109.51 237.69,120.70 240.43,133.25 243.17,146.70 245.91,161.28 248.64,176.55 251.38,191.99 254.12,207.53 256.85,222.80 259.59,237.89 262.33,252.69 265.06,267.72 267.80,283.21 270.54,298.27 273.27,313.66 276.01,328.36 278.75,342.62 281.49,356.36 284.22,369.60 286.96,382.03 289.70,393.75 292.43,404.71 295.17,415.08 297.91,424.63 300.64,433.21 303.38,441.06 306.12,448.28 308.86,454.82 311.59,460.74 314.33,466.03 317.07,470.76 319.80,475.04 322.54,478.84 325.28,482.20 328.01,485.20 330.75,487.87 333.49,490.23 336.22,492.32 338.96,494.16 341.70,495.78 344.44,497.21 347.17,498.46 349.91,499.57 352.65,500.54 355.38,501.39 358.12,502.14 360.86,502.80 363.59,503.38 366.33,503.88 369.07,504.33 371.80,504.71 374.54,505.05 377.28,505.35 380.02,505.61 382.75,505.84 385.49,506.04 388.23,506.22 390.96,506.37 393.70,506.50 396.44,506.62 399.17,506.72 401.91,506.81 404.65,506.89 407.39,506.96 410.12,507.02 412.86,507.07 415.60,507.12 418.33,507.16 421.07,507.20 423.81,507.23 426.54,507.25 429.28,507.28 432.02,507.30 434.75,507.32 437.49,507.33 440.23,507.35 442.97,507.36 445.70,507.37 448.44,507.38 451.18,507.39 453.91,507.39 456.65,507.40 459.39,507.41 462.12,507.41 464.86,507.41 467.60,507.42 470.34,507.42 473.07,507.42 475.81,507.43 478.55,507.43 481.28,507.43 484.02,507.43 486.76,507.43 489.49,507.43 492.23,507.44 494.97,507.44 497.70,507.44 500.44,507.44 503.18,507.44 505.92,507.44 508.65,507.44 511.39,507.44 514.13,507.44 516.86,507.44 519.60,507.44 522.34,507.44 525.07,507.44 527.81,507.44 530.55,507.44 533.28,507.44 536.02,507.44 538.76,507.44 541.50,507.44 544.23,507.44 546.97,507.44 549.71,507.44 552.44,507.44 555.18,507.44 557.92,507.44 560.65,507.44 563.39,507.44 566.13,507.44 568.87,507.44 571.60,507.44 574.34,507.44 577.08,507.44 579.81,507.44 582.55,507.44 585.29,507.44 588.02,507.44 590.76,507.44 593.50,507.44 596.23,507.44 598.97,507.44 601.71,507.44 604.45,507.44 607.18,507.44 609.92,507.44" style="stroke-width: 1.07;stroke: none;stroke-linecap: butt;"/>
<polyline points="609.92,507.44 607.18,507.44 604.45,507.44 601.71,507.44 598.97,507.44 596.23,507.44 593.50,507.44 590.76,507.44 588.02,507.44 585.29,507.44 582.55,507.44 579.81,507.44 577.08,507.44 574.34,507.44 571.60,507.44 568.87,507.44 566.13,507.44 563.39,507.44 560.65,507.44 557.92,507.44 555.18,507.44 552.44,507.44 549.71,507.44 546.97,507.44 544.23,507.44 541.50,507.44 538.76,507.44 536.02,507.44 533.28,507.44 530.55,507.44 527.81,507.44 525.07,507.44 522.34,507.44 519.60,507.44 516.86,507.44 514.13,507.44 511.39,507.44 508.65,507.44 505.92,507.44 503.18,507.44 500.44,507.44 497.70,507.44 494.97,507.44 492.23,507.44 489.49,507.44 486.76,507.44 484.02,507.44 481.28,507.44 478.55,507.44 475.81,507.44 473.07,507.44 470.34,507.44 467.60,507.44 464.86,507.44 462.12,507.44 459.39,507.44 456.65,507.44 453.91,507.44 451.18,507.44 448.44,507.44 445.70,507.44 442.97,507.44 440.23,507.44 437.49,507.44 434.75,507.44 432.02,507.44 429.28,507.44 426.54,507.44 423.81,507.44 421.07,507.44 418.33,507.44 415.60,507.44 412.86,507.44 410.12,507.44 407.39,507.44 404.65,507.44 401.91,507.43 399.17,507.43 396.44,507.43 393.70,507.43 390.96,507.42 388.23,507.42 385.49,507.41 382.75,507.40 380.02,507.40 377.28,507.38 374.54,507.37 371.80,507.35 369.07,507.33 366.33,507.31 363.59,507.28 360.86,507.24 358.12,507.19 355.38,507.13 352.65,507.06 349.91,506.96 347.17,506.85 344.44,506.72 341.70,506.55 338.96,506.34 336.22,506.09 333.49,505.78 330.75,505.39 328.01,504.92 325.28,504.34 322.54,503.63 319.80,502.75 317.07,501.68 314.33,500.37 311.59,498.76 308.86,496.79 306.12,494.40 303.38,491.48 300.64,487.94 297.91,483.67 295.17,478.51 292.43,472.32 289.70,464.92 286.96,456.06 284.22,445.76 281.49,433.89 278.75,420.10 276.01,404.32 273.27,386.59 270.54,367.12 267.80,346.08 265.06,323.82 262.33,300.59 259.59,276.87 256.85,253.02 254.12,230.07 251.38,208.03 248.64,187.98 245.91,172.29 243.17,159.73 240.43,148.89 237.69,139.02 234.96,129.95 232.22,121.59 229.48,114.10 226.75,107.23 224.01,100.93 221.27,95.24 218.54,90.11 215.80,85.63 213.06,81.68 210.32,78.07 207.59,74.95 204.85,72.14 202.11,69.65 199.38,67.50 196.64,65.60 193.90,63.98 191.17,62.68 188.43,61.41 185.69,60.35 182.96,59.46 180.22,58.76 177.48,58.20 174.74,57.62 172.01,57.12 169.27,56.75 166.53,56.42 163.80,56.16 161.06,55.92 158.32,55.75 155.59,55.62 152.85,55.55 150.11,55.49 147.38,55.43 144.64,55.35 141.90,55.31 139.16,55.26 136.43,55.21 133.69,55.17 130.95,55.14 128.22,55.13 125.48,55.12 122.74,55.10 120.01,55.10 117.27,55.09 114.53,55.09 111.79,55.09 109.06,55.09 106.32,55.07 103.58,55.07 100.85,55.06 98.11,55.05 95.37,55.05 92.64,55.04 89.90,55.04 87.16,55.03 84.43,55.03 81.69,55.01 78.95,55.01 76.21,55.01 73.48,55.01 70.74,55.01 68.00,55.01 65.27,55.01" style="stroke-width: 1.07;stroke: none;stroke-linecap: butt;"/>
<circle cx="65.27" cy="46.24" r="2.06" style="stroke-width: 0.71;stroke: #F8766D;stroke-opacity: 0.70;fill: #F8766D;fill-opacity: 0.70;"/>
<circle cx="65.27" cy="46.24" r="2.06" style="stroke-width: 0.71;stroke: #F8766D;stroke-opacity: 0.70;fill: #F8766D;fill-opacity: 0.70;"/>
<circle cx="65.27" cy="46.24" r="2.06" style="stroke-width: 0.71;stroke: #F8766D;stroke-opacity: 0.70;fill: #F8766D;fill-opacity: 0.70;"/>
<circle cx="65.27" cy="46.24" r="2.06" style="stroke-width: 0.71;stroke: #7CAE00;stroke-opacity: 0.70;fill: #7CAE00;fill-opacity: 0.70;"/>
<circle cx="65.27" cy="46.24" r="2.06" style="stroke-width: 0.71;stroke: #7CAE00;stroke-opacity: 0.70;fill: #7CAE00;fill-opacity: 0.70;"/>
<circle cx="65.27" cy="46.24" r="2.06" style="stroke-width: 0.71;stroke: #7CAE00;stroke-opacity: 0.70;fill: #7CAE00;fill-opacity: 0.70;"/>
<circle cx="65.27" cy="164.59" r="2.06" style="stroke-width: 0.71;stroke: #00BFC4;stroke-opacity: 0.70;fill: #00BFC4;fill-opacity: 0.70;"/>
<circle cx="65.27" cy="151.21" r="2.06" style="stroke-width: 0.71;stroke: #00BFC4;stroke-opacity: 0.70;fill: #00BFC4;fill-opacity: 0.70;"/>
<circle cx="65.27" cy="159.75" r="2.06" style="stroke-width: 0.71;stroke: #00BFC4;stroke-opacity: 0.70;fill: #00BFC4;fill-opacity: 0.70;"/>
<circle cx="65.27" cy="48.22" r="2.06" style="stroke-width: 0.71;stroke: #C77CFF;stroke-opacity: 0.70;fill: #C77CFF;fill-opacity: 0.70;"/>
<circle cx="65.27" cy="46.24" r="2.06" style="stroke-width: 0.71;stroke: #C77CFF;stroke-opacity: 0.70;fill: #C77CFF;fill-opacity: 0.70;"/>
<circle cx="65.27" cy="60.57" r="2.06" style="stroke-width: 0.71;stroke: #C77CFF;stroke-opacity: 0.70;fill: #C77CFF;fill-opacity: 0.70;"/>
<circle cx="156.30" cy="53.11" r="2.06" style="stroke-width: 0.71;stroke: #F8766D;stroke-opacity: 0.70;fill: #F8766D;fill-opacity: 0.70;"/>
<circle cx="156.30" cy="46.24" r="2.06" style="stroke-width: 0.71;stroke: #F8766D;stroke-opacity: 0.70;fill: #F8766D;fill-opacity: 0.70;"/>
<circle cx="156.30" cy="46.24" r="2.06" style="stroke-width: 0.71;stroke: #F8766D;stroke-opacity: 0.70;fill: #F8766D;fill-opacity: 0.70;"/>
<circle cx="156.30" cy="46.24" r="2.06" style="stroke-width: 0.71;stroke: #7CAE00;stroke-opacity: 0.70;fill: #7CAE00;fill-opacity: 0.70;"/>
<circle cx="156.30" cy="46.24" r="2.06" style="stroke-width: 0.71;stroke: #7CAE00;stroke-opacity: 0.70;fill: #7CAE00;fill-opacity: 0.70;"/>
<circle cx="156.30" cy="49.41" r="2.06" style="stroke-width: 0.71;stroke: #7CAE00;stroke-opacity: 0.70;fill: #7CAE00;fill-opacity: 0.70;"/>
<circle cx="156.30" cy="151.73" r="2.06" style="stroke-width: 0.71;stroke: #00BFC4;stroke-opacity: 0.70;fill: #00BFC4;fill-opacity: 0.70;"/>
<circle cx="156.30" cy="158.54" r="2.06" style="stroke-width: 0.71;stroke: #00BFC4;stroke-opacity: 0.70;fill: #00BFC4;fill-opacity: 0.70;"/>
<circle cx="156.30" cy="157.34" r="2.06" style="stroke-width: 0.71;stroke: #00BFC4;stroke-opacity: 0.70;fill: #00BFC4;fill-opacity: 0.70;"/>
<circle cx="156.30" cy="55.86" r="2.06" style="stroke-width: 0.71;stroke: #C77CFF;stroke-opacity: 0.70;fill: #C77CFF;fill-opacity: 0.70;"/>
<circle cx="156.30" cy="54.67" r="2.06" style="stroke-width: 0.71;stroke: #C77CFF;stroke-opacity: 0.70;fill: #C77CFF;fill-opacity: 0.70;"/>
<circle cx="156.30" cy="46.24" r="2.06" style="stroke-width: 0.71;stroke: #C77CFF;stroke-opacity: 0.70;fill: #C77CFF;fill-opacity: 0.70;"/>
<circle cx="247.34" cy="207.61" r="2.06" style="stroke-width: 0.71;stroke: #F8766D;stroke-opacity: 0.70;fill: #F8766D;fill-opacity: 0.70;"/>
<circle cx="247.34" cy="173.34" r="2.06" style="stroke-width: 0.71;stroke: #F8766D;stroke-opacity: 0.70;fill: #F8766D;fill-opacity: 0.70;"/>
<circle cx="247.34" cy="220.70" r="2.06" style="stroke-width: 0.71;stroke: #F8766D;stroke-opacity: 0.70;fill: #F8766D;fill-opacity: 0.70;"/>
<circle cx="247.34" cy="61.21" r="2.06" style="stroke-width: 0.71;stroke: #7CAE00;stroke-opacity: 0.70;fill: #7CAE00;fill-opacity: 0.70;"/>
<circle cx="247.34" cy="130.07" r="2.06" style="stroke-width: 0.71;stroke: #7CAE00;stroke-opacity: 0.70;fill: #7CAE00;fill-opacity: 0.70;"/>
<circle cx="247.34" cy="179.56" r="2.06" style="stroke-width: 0.71;stroke: #7CAE00;stroke-opacity: 0.70;fill: #7CAE00;fill-opacity: 0.70;"/>
<circle cx="247.34" cy="264.19" r="2.06" style="stroke-width: 0.71;stroke: #00BFC4;stroke-opacity: 0.70;fill: #00BFC4;fill-opacity: 0.70;"/>
<circle cx="247.34" cy="254.89" r="2.06" style="stroke-width: 0.71;stroke: #00BFC4;stroke-opacity: 0.70;fill: #00BFC4;fill-opacity: 0.70;"/>
<circle cx="247.34" cy="263.90" r="2.06" style="stroke-width: 0.71;stroke: #00BFC4;stroke-opacity: 0.70;fill: #00BFC4;fill-opacity: 0.70;"/>
<circle cx="247.34" cy="154.33" r="2.06" style="stroke-width: 0.71;stroke: #C77CFF;stroke-opacity: 0.70;fill: #C77CFF;fill-opacity: 0.70;"/>
<circle cx="247.34" cy="174.76" r="2.06" style="stroke-width: 0.71;stroke: #C77CFF;stroke-opacity: 0.70;fill: #C77CFF;fill-opacity: 0.70;"/>
<circle cx="247.34" cy="188.31" r="2.06" style="stroke-width: 0.71;stroke: #C77CFF;stroke-opacity: 0.70;fill: #C77CFF;fill-opacity: 0.70;"/>
<circle cx="336.81" cy="505.34" r="2.06" style="stroke-width: 0.71;stroke: #F8766D;stroke-opacity: 0.70;fill: #F8766D;fill-opacity: 0.70;"/>
<circle cx="336.81" cy="507.44" r="2.06" style="stroke-width: 0.71;stroke: #F8766D;stroke-opacity: 0.70;fill: #F8766D;fill-opacity: 0.70;"/>
<circle cx="336.81" cy="507.44" r="2.06" style="stroke-width: 0.71;stroke: #F8766D;stroke-opacity: 0.70;fill: #F8766D;fill-opacity: 0.70;"/>
<circle cx="336.81" cy="507.44" r="2.06" style="stroke-width: 0.71;stroke: #7CAE00;stroke-opacity: 0.70;fill: #7CAE00;fill-opacity: 0.70;"/>
<circle cx="336.81" cy="507.44" r="2.06" style="stroke-width: 0.71;stroke: #7CAE00;stroke-opacity: 0.70;fill: #7CAE00;fill-opacity: 0.70;"/>
<circle cx="336.81" cy="507.44" r="2.06" style="stroke-width: 0.71;stroke: #7CAE00;stroke-opacity: 0.70;fill: #7CAE00;fill-opacity: 0.70;"/>
<circle cx="336.81" cy="507.44" r="2.06" style="stroke-width: 0.71;stroke: #00BFC4;stroke-opacity: 0.70;fill: #00BFC4;fill-opacity: 0.70;"/>
<circle cx="336.81" cy="507.44" r="2.06" style="stroke-width: 0.71;stroke: #00BFC4;stroke-opacity: 0.70;fill: #00BFC4;fill-opacity: 0.70;"/>
<circle cx="336.81" cy="507.44" r="2.06" style="stroke-width: 0.71;stroke: #00BFC4;stroke-opacity: 0.70;fill: #00BFC4;fill-opacity: 0.70;"/>
<circle cx="336.81" cy="503.33" r="2.06" style="stroke-width: 0.71;stroke: #C77CFF;stroke-opacity: 0.70;fill: #C77CFF;fill-opacity: 0.70;"/>
<circle cx="336.81" cy="503.21" r="2.06" style="stroke-width: 0.71;stroke: #C77CFF;stroke-opacity: 0.70;fill: #C77CFF;fill-opacity: 0.70;"/>
<circle cx="336.81" cy="488.18" r="2.06" style="stroke-width: 0.71;stroke: #C77CFF;stroke-opacity: 0.70;fill: #C77CFF;fill-opacity: 0.70;"/>
<circle cx="427.85" cy="507.44" r="2.06" style="stroke-width: 0.71;stroke: #F8766D;stroke-opacity: 0.70;fill: #F8766D;fill-opacity: 0.70;"/>
<circle cx="427.85" cy="507.44" r="2.06" style="stroke-width: 0.71;stroke: #F8766D;stroke-opacity: 0.70;fill: #F8766D;fill-opacity: 0.70;"/>
<circle cx="427.85" cy="507.44" r="2.06" style="stroke-width: 0.71;stroke: #F8766D;stroke-opacity: 0.70;fill: #F8766D;fill-opacity: 0.70;"/>
<circle cx="427.85" cy="507.44" r="2.06" style="stroke-width: 0.71;stroke: #7CAE00;stroke-opacity: 0.70;fill: #7CAE00;fill-opacity: 0.70;"/>
<circle cx="427.85" cy="507.44" r="2.06" style="stroke-width: 0.71;stroke: #7CAE00;stroke-opacity: 0.70;fill: #7CAE00;fill-opacity: 0.70;"/>
<circle cx="427.85" cy="507.44" r="2.06" style="stroke-width: 0.71;stroke: #7CAE00;stroke-opacity: 0.70;fill: #7CAE00;fill-opacity: 0.70;"/>
<circle cx="427.85" cy="507.44" r="2.06" style="stroke-width: 0.71;stroke: #00BFC4;stroke-opacity: 0.70;fill: #00BFC4;fill-opacity: 0.70;"/>
<circle cx="427.85" cy="507.44" r="2.06" style="stroke-width: 0.71;stroke: #00BFC4;stroke-opacity: 0.70;fill: #00BFC4;fill-opacity: 0.70;"/>
<circle cx="427.85" cy="507.44" r="2.06" style="stroke-width: 0.71;stroke: #00BFC4;stroke-opacity: 0.70;fill: #00BFC4;fill-opacity: 0.70;"/>
<circle cx="427.85" cy="507.44" r="2.06" style="stroke-width: 0.71;stroke: #C77CFF;stroke-opacity: 0.70;fill: #C77CFF;fill-opacity: 0.70;"/>
<circle cx="427.85" cy="507.44" r="2.06" style="stroke-width: 0.71;stroke: #C77CFF;stroke-opacity: 0.70;fill: #C77CFF;fill-opacity: 0.70;"/>
<circle cx="427.85" cy="507.44" r="2.06" style="stroke-width: 0.71;stroke: #C77CFF;stroke-opacity: 0.70;fill: #C77CFF;fill-opacity: 0.70;"/>
<circle cx="518.88" cy="507.44" r="2.06" style="stroke-width: 0.71;stroke: #F8766D;stroke-opacity: 0.70;fill: #F8766D;fill-opacity: 0.70;"/>
<circle cx="518.88" cy="507.44" r="2.06" style="stroke-width: 0.71;stroke: #F8766D;stroke-opacity: 0.70;fill: #F8766D;fill-opacity: 0.70;"/>
<circle cx="518.88" cy="507.44" r="2.06" style="stroke-width: 0.71;stroke: #F8766D;stroke-opacity: 0.70;fill: #F8766D;fill-opacity: 0.70;"/>
<circle cx="518.88" cy="507.44" r="2.06" style="stroke-width: 0.71;stroke: #7CAE00;stroke-opacity: 0.70;fill: #7CAE00;fill-opacity: 0.70;"/>
<circle cx="518.88" cy="507.44" r="2.06" style="stroke-width: 0.71;stroke: #7CAE00;stroke-opacity: 0.70;fill: #7CAE00;fill-opacity: 0.70;"/>
<circle cx="518.88" cy="507.44" r="2.06" style="stroke-width: 0.71;stroke: #7CAE00;stroke-opacity: 0.70;fill: #7CAE00;fill-opacity: 0.70;"/>
<circle cx="518.88" cy="507.44" r="2.06" style="stroke-width: 0.71;stroke: #00BFC4;stroke-opacity: 0.70;fill: #00BFC4;fill-opacity: 0.70;"/>
<circle cx="518.88" cy="507.44" r="2.06" style="stroke-width: 0.71;stroke: #00BFC4;stroke-opacity: 0.70;fill: #00BFC4;fill-opacity: 0.70;"/>
<circle cx="518.88" cy="507.44" r="2.06" style="stroke-width: 0.71;stroke: #00BFC4;stroke-opacity: 0.70;fill: #00BFC4;fill-opacity: 0.70;"/>
<circle cx="518.88" cy="507.44" r="2.06" style="stroke-width: 0.71;stroke: #C77CFF;stroke-opacity: 0.70;fill: #C77CFF;fill-opacity: 0.70;"/>
<circle cx="518.88" cy="507.44" r="2.06" style="stroke-width: 0.71;stroke: #C77CFF;stroke-opacity: 0.70;fill: #C77CFF;fill-opacity: 0.70;"/>
<circle cx="518.88" cy="507.35" r="2.06" style="stroke-width: 0.71;stroke: #C77CFF;stroke-opacity: 0.70;fill: #C77CFF;fill-opacity: 0.70;"/>
<circle cx="609.92" cy="507.44" r="2.06" style="stroke-width: 0.71;stroke: #F8766D;stroke-opacity: 0.70;fill: #F8766D;fill-opacity: 0.70;"/>
<circle cx="609.92" cy="507.44" r="2.06" style="stroke-width: 0.71;stroke: #F8766D;stroke-opacity: 0.70;fill: #F8766D;fill-opacity: 0.70;"/>
<circle cx="609.92" cy="507.33" r="2.06" style="stroke-width: 0.71;stroke: #F8766D;stroke-opacity: 0.70;fill: #F8766D;fill-opacity: 0.70;"/>
<circle cx="609.92" cy="505.82" r="2.06" style="stroke-width: 0.71;stroke: #7CAE00;stroke-opacity: 0.70;fill: #7CAE00;fill-opacity: 0.70;"/>
<circle cx="609.92" cy="507.44" r="2.06" style="stroke-width: 0.71;stroke: #7CAE00;stroke-opacity: 0.70;fill: #7CAE00;fill-opacity: 0.70;"/>
<circle cx="609.92" cy="507.44" r="2.06" style="stroke-width: 0.71;stroke: #7CAE00;stroke-opacity: 0.70;fill: #7CAE00;fill-opacity: 0.70;"/>
<circle cx="609.92" cy="507.44" r="2.06" style="stroke-width: 0.71;stroke: #00BFC4;stroke-opacity: 0.70;fill: #00BFC4;fill-opacity: 0.70;"/>
<circle cx="609.92" cy="505.23" r="2.06" style="stroke-width: 0.71;stroke: #00BFC4;stroke-opacity: 0.70;fill: #00BFC4;fill-opacity: 0.70;"/>
<circle cx="609.92" cy="507.44" r="2.06" style="stroke-width: 0.71;stroke: #00BFC4;stroke-opacity: 0.70;fill: #00BFC4;fill-opacity: 0.70;"/>
<circle cx="609.92" cy="507.44" r="2.06" style="stroke-width: 0.71;stroke: #C77CFF;stroke-opacity: 0.70;fill: #C77CFF;fill-opacity: 0.70;"/>
<circle cx="609.92" cy="507.44" r="2.06" style="stroke-width: 0.71;stroke: #C77CFF;stroke-opacity: 0.70;fill: #C77CFF;fill-opacity: 0.70;"/>
<circle cx="609.92" cy="502.81" r="2.06" style="stroke-width: 0.71;stroke: #C77CFF;stroke-opacity: 0.70;fill: #C77CFF;fill-opacity: 0.70;"/>
<polyline points="65.27,46.24 68.00,46.24 70.74,46.24 73.48,46.24 76.21,46.24 78.95,46.24 81.69,46.24 84.43,46.24 87.16,46.24 89.90,46.24 92.64,46.24 95.37,46.24 98.11,46.25 100.85,46.25 103.58,46.25 106.32,46.25 109.06,46.25 111.79,46.26 114.53,46.26 117.27,46.27 120.01,46.27 122.74,46.28 125.48,46.29 128.22,46.30 130.95,46.31 133.69,46.32 136.43,46.34 139.16,46.36 141.90,46.38 144.64,46.41 147.38,46.44 150.11,46.48 152.85,46.53 155.59,46.59 158.32,46.67 161.06,46.75 163.80,46.86 166.53,46.98 169.27,47.13 172.01,47.32 174.74,47.54 177.48,47.81 180.22,48.13 182.96,48.52 185.69,49.00 188.43,49.57 191.17,50.26 193.90,51.10 196.64,52.12 199.38,53.35 202.11,54.84 204.85,56.63 207.59,58.80 210.32,61.42 213.06,64.57 215.80,68.36 218.54,72.90 221.27,78.32 224.01,84.78 226.75,92.42 229.48,101.41 232.22,111.92 234.96,124.09 237.69,138.04 240.43,153.84 243.17,171.48 245.91,190.88 248.64,211.83 251.38,234.02 254.12,257.06 256.85,280.47 259.59,303.76 262.33,326.44 265.06,348.09 267.80,368.35 270.54,386.99 273.27,403.86 276.01,418.93 278.75,432.21 281.49,443.79 284.22,453.80 286.96,462.39 289.70,469.70 292.43,475.90 295.17,481.12 297.91,485.51 300.64,489.19 303.38,492.27 306.12,494.83 308.86,496.97 311.59,498.74 314.33,500.22 317.07,501.45 319.80,502.46 322.54,503.31 325.28,504.01 328.01,504.59 330.75,505.07 333.49,505.47 336.22,505.80 338.96,506.08 341.70,506.31 344.44,506.50 347.17,506.65 349.91,506.79 352.65,506.89 355.38,506.99 358.12,507.06 360.86,507.12 363.59,507.18 366.33,507.22 369.07,507.26 371.80,507.29 374.54,507.31 377.28,507.33 380.02,507.35 382.75,507.37 385.49,507.38 388.23,507.39 390.96,507.40 393.70,507.40 396.44,507.41 399.17,507.42 401.91,507.42 404.65,507.42 407.39,507.43 410.12,507.43 412.86,507.43 415.60,507.43 418.33,507.44 421.07,507.44 423.81,507.44 426.54,507.44 429.28,507.44 432.02,507.44 434.75,507.44 437.49,507.44 440.23,507.44 442.97,507.44 445.70,507.44 448.44,507.44 451.18,507.44 453.91,507.44 456.65,507.44 459.39,507.44 462.12,507.44 464.86,507.44 467.60,507.44 470.34,507.44 473.07,507.44 475.81,507.44 478.55,507.44 481.28,507.44 484.02,507.44 486.76,507.44 489.49,507.44 492.23,507.44 494.97,507.44 497.70,507.44 500.44,507.44 503.18,507.44 505.92,507.44 508.65,507.44 511.39,507.44 514.13,507.44 516.86,507.44 519.60,507.44 522.34,507.44 525.07,507.44 527.81,507.44 530.55,507.44 533.28,507.44 536.02,507.44 538.76,507.44 541.50,507.44 544.23,507.44 546.97,507.44 549.71,507.44 552.44,507.44 555.18,507.44 557.92,507.44 560.65,507.44 563.39,507.44 566.13,507.44 568.87,507.44 571.60,507.44 574.34,507.44 577.08,507.44 579.81,507.44 582.55,507.44 585.29,507.44 588.02,507.44 590.76,507.44 593.50,507.44 596.23,507.44 598.97,507.44 601.71,507.44 604.45,507.44 607.18,507.44 609.92,507.44" style="stroke-width: 1.71;stroke: #F8766D;stroke-linecap: butt;"/>
<polyline points="65.27,46.24 68.00,46.24 70.74,46.24 73.48,46.24 76.21,46.24 78.95,46.24 81.69,46.24 84.43,46.24 87.16,46.24 89.90,46.24 92.64,46.24 95.37,46.24 98.11,46.24 100.85,46.24 103.58,46.24 106.32,46.24 109.06,46.24 111.79,46.24 114.53,46.24 117.27,46.24 120.01,46.24 122.74,46.24 125.48,46.25 128.22,46.25 130.95,46.25 133.69,46.25 136.43,46.25 139.16,46.25 141.90,46.26 144.64,46.26 147.38,46.27 150.11,46.27 152.85,46.28 155.59,46.28 158.32,46.29 161.06,46.31 163.80,46.32 166.53,46.34 169.27,46.36 172.01,46.38 174.74,46.41 177.48,46.45 180.22,46.50 182.96,46.56 185.69,46.63 188.43,46.72 191.17,46.84 193.90,46.98 196.64,47.16 199.38,47.39 202.11,47.68 204.85,48.06 207.59,48.53 210.32,49.13 213.06,49.91 215.80,50.90 218.54,52.19 221.27,53.85 224.01,55.99 226.75,58.77 229.48,62.36 232.22,67.01 234.96,73.03 237.69,80.76 240.43,90.66 243.17,103.17 245.91,118.79 248.64,137.90 251.38,160.67 254.12,186.96 256.85,216.20 259.59,247.42 262.33,279.40 265.06,310.82 267.80,340.53 270.54,367.68 273.27,391.76 276.01,412.60 278.75,430.28 281.49,445.02 284.22,457.17 286.96,467.07 289.70,475.09 292.43,481.54 295.17,486.71 297.91,490.85 300.64,494.15 303.38,496.79 306.12,498.89 308.86,500.57 311.59,501.91 314.33,502.98 317.07,503.84 319.80,504.52 322.54,505.07 325.28,505.52 328.01,505.87 330.75,506.16 333.49,506.39 336.22,506.58 338.96,506.74 341.70,506.86 344.44,506.96 347.17,507.05 349.91,507.11 352.65,507.17 355.38,507.22 358.12,507.25 360.86,507.28 363.59,507.31 366.33,507.33 369.07,507.35 371.80,507.36 374.54,507.38 377.28,507.39 380.02,507.40 382.75,507.40 385.49,507.41 388.23,507.41 390.96,507.42 393.70,507.42 396.44,507.43 399.17,507.43 401.91,507.43 404.65,507.43 407.39,507.43 410.12,507.43 412.86,507.44 415.60,507.44 418.33,507.44 421.07,507.44 423.81,507.44 426.54,507.44 429.28,507.44 432.02,507.44 434.75,507.44 437.49,507.44 440.23,507.44 442.97,507.44 445.70,507.44 448.44,507.44 451.18,507.44 453.91,507.44 456.65,507.44 459.39,507.44 462.12,507.44 464.86,507.44 467.60,507.44 470.34,507.44 473.07,507.44 475.81,507.44 478.55,507.44 481.28,507.44 484.02,507.44 486.76,507.44 489.49,507.44 492.23,507.44 494.97,507.44 497.70,507.44 500.44,507.44 503.18,507.44 505.92,507.44 508.65,507.44 511.39,507.44 514.13,507.44 516.86,507.44 519.60,507.44 522.34,507.44 525.07,507.44 527.81,507.44 530.55,507.44 533.28,507.44 536.02,507.44 538.76,507.44 541.50,507.44 544.23,507.44 546.97,507.44 549.71,507.44 552.44,507.44 555.18,507.44 557.92,507.44 560.65,507.44 563.39,507.44 566.13,507.44 568.87,507.44 571.60,507.44 574.34,507.44 577.08,507.44 579.81,507.44 582.55,507.44 585.29,507.44 588.02,507.44 590.76,507.44 593.50,507.44 596.23,507.44 598.97,507.44 601.71,507.44 604.45,507.44 607.18,507.44 609.92,507.44" style="stroke-width: 1.71;stroke: #7CAE00;stroke-linecap: butt;"/>
<polyline points="65.27,158.82 68.00,158.83 70.74,158.84 73.48,158.85 76.21,158.86 78.95,158.88 81.69,158.89 84.43,158.91 87.16,158.92 89.90,158.94 92.64,158.96 95.37,158.97 98.11,158.99 100.85,159.01 103.58,159.03 106.32,159.06 109.06,159.08 111.79,159.11 114.53,159.13 117.27,159.16 120.01,159.19 122.74,159.23 125.48,159.26 128.22,159.30 130.95,159.34 133.69,159.38 136.43,159.43 139.16,159.48 141.90,159.53 144.64,159.59 147.38,159.65 150.11,159.72 152.85,159.80 155.59,159.88 158.32,159.97 161.06,160.07 163.80,160.18 166.53,160.30 169.27,160.43 172.01,160.58 174.74,160.75 177.48,160.93 180.22,161.15 182.96,161.39 185.69,161.66 188.43,161.97 191.17,162.33 193.90,162.75 196.64,163.24 199.38,163.81 202.11,164.48 204.85,165.28 207.59,166.24 210.32,167.39 213.06,168.80 215.80,170.51 218.54,172.62 221.27,175.25 224.01,178.53 226.75,182.65 229.48,187.85 232.22,194.45 234.96,202.80 237.69,213.34 240.43,226.49 243.17,242.56 245.91,261.64 248.64,283.35 251.38,306.89 254.12,331.14 256.85,354.89 259.59,377.16 262.33,397.27 265.06,414.90 267.80,430.03 270.54,442.78 273.27,453.41 276.01,462.21 278.75,469.46 281.49,475.41 284.22,480.31 286.96,484.34 289.70,487.67 292.43,490.42 295.17,492.70 297.91,494.61 300.64,496.21 303.38,497.56 306.12,498.70 308.86,499.67 311.59,500.49 314.33,501.20 317.07,501.82 319.80,502.35 322.54,502.81 325.28,503.22 328.01,503.57 330.75,503.89 333.49,504.16 336.22,504.41 338.96,504.63 341.70,504.83 344.44,505.00 347.17,505.16 349.91,505.31 352.65,505.44 355.38,505.56 358.12,505.66 360.86,505.76 363.59,505.85 366.33,505.93 369.07,506.01 371.80,506.08 374.54,506.14 377.28,506.20 380.02,506.26 382.75,506.31 385.49,506.36 388.23,506.40 390.96,506.44 393.70,506.48 396.44,506.52 399.17,506.55 401.91,506.58 404.65,506.61 407.39,506.64 410.12,506.67 412.86,506.69 415.60,506.72 418.33,506.74 421.07,506.76 423.81,506.78 426.54,506.80 429.28,506.82 432.02,506.83 434.75,506.85 437.49,506.87 440.23,506.88 442.97,506.90 445.70,506.91 448.44,506.92 451.18,506.93 453.91,506.95 456.65,506.96 459.39,506.97 462.12,506.98 464.86,506.99 467.60,507.00 470.34,507.01 473.07,507.02 475.81,507.03 478.55,507.03 481.28,507.04 484.02,507.05 486.76,507.06 489.49,507.06 492.23,507.07 494.97,507.08 497.70,507.08 500.44,507.09 503.18,507.10 505.92,507.10 508.65,507.11 511.39,507.11 514.13,507.12 516.86,507.13 519.60,507.13 522.34,507.14 525.07,507.14 527.81,507.15 530.55,507.15 533.28,507.15 536.02,507.16 538.76,507.16 541.50,507.17 544.23,507.17 546.97,507.18 549.71,507.18 552.44,507.18 555.18,507.19 557.92,507.19 560.65,507.19 563.39,507.20 566.13,507.20 568.87,507.20 571.60,507.21 574.34,507.21 577.08,507.21 579.81,507.22 582.55,507.22 585.29,507.22 588.02,507.23 590.76,507.23 593.50,507.23 596.23,507.23 598.97,507.24 601.71,507.24 604.45,507.24 607.18,507.24 609.92,507.25" style="stroke-width: 1.71;stroke: #00BFC4;stroke-linecap: butt;"/>
<polyline points="65.27,50.94 68.00,50.95 70.74,50.95 73.48,50.95 76.21,50.95 78.95,50.95 81.69,50.95 84.43,50.95 87.16,50.95 89.90,50.96 92.64,50.96 95.37,50.96 98.11,50.97 100.85,50.97 103.58,50.98 106.32,50.98 109.06,50.99 111.79,51.00 114.53,51.01 117.27,51.02 120.01,51.03 122.74,51.04 125.48,51.06 128.22,51.08 130.95,51.10 133.69,51.13 136.43,51.16 139.16,51.20 141.90,51.25 144.64,51.30 147.38,51.36 150.11,51.43 152.85,51.51 155.59,51.61 158.32,51.73 161.06,51.86 163.80,52.02 166.53,52.21 169.27,52.43 172.01,52.68 174.74,52.99 177.48,53.34 180.22,53.76 182.96,54.25 185.69,54.83 188.43,55.51 191.17,56.31 193.90,57.25 196.64,58.35 199.38,59.64 202.11,61.17 204.85,62.95 207.59,65.04 210.32,67.49 213.06,70.35 215.80,73.70 218.54,77.59 221.27,82.11 224.01,87.35 226.75,93.40 229.48,100.35 232.22,108.31 234.96,117.36 237.69,127.59 240.43,139.06 243.17,151.82 245.91,165.88 248.64,181.20 251.38,197.69 254.12,215.23 256.85,233.62 259.59,252.63 262.33,272.00 265.06,291.43 267.80,310.65 270.54,329.36 273.27,347.35 276.01,364.39 278.75,380.35 281.49,395.12 284.22,408.64 286.96,420.91 289.70,431.94 292.43,441.78 295.17,450.51 297.91,458.21 300.64,464.96 303.38,470.85 306.12,475.97 308.86,480.42 311.59,484.26 314.33,487.57 317.07,490.43 319.80,492.88 322.54,494.99 325.28,496.79 328.01,498.34 330.75,499.66 333.49,500.79 336.22,501.76 338.96,502.58 341.70,503.29 344.44,503.89 347.17,504.41 349.91,504.85 352.65,505.22 355.38,505.54 358.12,505.82 360.86,506.05 363.59,506.25 366.33,506.42 369.07,506.57 371.80,506.69 374.54,506.80 377.28,506.89 380.02,506.97 382.75,507.04 385.49,507.10 388.23,507.15 390.96,507.19 393.70,507.22 396.44,507.25 399.17,507.28 401.91,507.30 404.65,507.32 407.39,507.34 410.12,507.35 412.86,507.37 415.60,507.38 418.33,507.39 421.07,507.39 423.81,507.40 426.54,507.41 429.28,507.41 432.02,507.42 434.75,507.42 437.49,507.42 440.23,507.43 442.97,507.43 445.70,507.43 448.44,507.43 451.18,507.43 453.91,507.43 456.65,507.44 459.39,507.44 462.12,507.44 464.86,507.44 467.60,507.44 470.34,507.44 473.07,507.44 475.81,507.44 478.55,507.44 481.28,507.44 484.02,507.44 486.76,507.44 489.49,507.44 492.23,507.44 494.97,507.44 497.70,507.44 500.44,507.44 503.18,507.44 505.92,507.44 508.65,507.44 511.39,507.44 514.13,507.44 516.86,507.44 519.60,507.44 522.34,507.44 525.07,507.44 527.81,507.44 530.55,507.44 533.28,507.44 536.02,507.44 538.76,507.44 541.50,507.44 544.23,507.44 546.97,507.44 549.71,507.44 552.44,507.44 555.18,507.44 557.92,507.44 560.65,507.44 563.39,507.44 566.13,507.44 568.87,507.44 571.60,507.44 574.34,507.44 577.08,507.44 579.81,507.44 582.55,507.44 585.29,507.44 588.02,507.44 590.76,507.44 593.50,507.44 596.23,507.44 598.97,507.44 601.71,507.44 604.45,507.44 607.18,507.44 609.92,507.44" style="stroke-width: 1.71;stroke: #C77CFF;stroke-linecap: butt;"/>
</g><g clip-path="url(#c2)">
<g><text x="33.10" y="510.59" text-anchor="end" style="font-family: Arial;font-size: 8.80px;fill: #4D4D4D;" textLength="4.90px" lengthAdjust="spacingAndGlyphs">0</text></g>
<g><text x="33.10" y="395.29" text-anchor="end" style="font-family: Arial;font-size: 8.80px;fill: #4D4D4D;" textLength="9.79px" lengthAdjust="spacingAndGlyphs">25</text></g>
<g><text x="33.10" y="279.99" text-anchor="end" style="font-family: Arial;font-size: 8.80px;fill: #4D4D4D;" textLength="9.79px" lengthAdjust="spacingAndGlyphs">50</text></g>
<g><text x="33.10" y="164.69" text-anchor="end" style="font-family: Arial;font-size: 8.80px;fill: #4D4D4D;" textLength="9.79px" lengthAdjust="spacingAndGlyphs">75</text></g>
<g><text x="33.10" y="49.39" text-anchor="end" style="font-family: Arial;font-size: 8.80px;fill: #4D4D4D;" textLength="14.69px" lengthAdjust="spacingAndGlyphs">100</text></g>
<g><text x="110.78" y="541.74" text-anchor="middle" style="font-family: Arial;font-size: 8.80px;fill: #4D4D4D;" textLength="24.72px" lengthAdjust="spacingAndGlyphs">1e+02</text></g>
<g><text x="261.99" y="541.74" text-anchor="middle" style="font-family: Arial;font-size: 8.80px;fill: #4D4D4D;" textLength="24.72px" lengthAdjust="spacingAndGlyphs">1e+03</text></g>
<g><text x="413.20" y="541.74" text-anchor="middle" style="font-family: Arial;font-size: 8.80px;fill: #4D4D4D;" textLength="24.72px" lengthAdjust="spacingAndGlyphs">1e+04</text></g>
<g><text x="564.40" y="541.74" text-anchor="middle" style="font-family: Arial;font-size: 8.80px;fill: #4D4D4D;" textLength="24.72px" lengthAdjust="spacingAndGlyphs">1e+05</text></g>
<g><text x="337.59" y="554.20" text-anchor="middle" style="font-family: Arial;font-size: 11.00px;" textLength="50.36px" lengthAdjust="spacingAndGlyphs">Dose [M]</text></g>
<g><text transform="translate(13.36,276.84) rotate(-90.00)" text-anchor="middle" style="font-family: Arial;font-size: 11.00px;" textLength="57.87px" lengthAdjust="spacingAndGlyphs">Viability (%)</text></g>
<g><text x="653.59" y="243.48" style="font-family: Arial;font-size: 11.00px;" textLength="74.02px" lengthAdjust="spacingAndGlyphs">Patient / Group</text></g>
<circle cx="662.23" cy="258.76" r="2.06" style="stroke-width: 0.71;stroke: #F8766D;stroke-opacity: 0.70;fill: #F8766D;fill-opacity: 0.70;"/>
<line x1="655.32" y1="258.76" x2="669.14" y2="258.76" style="stroke-width: 1.71;stroke: #F8766D;stroke-linecap: butt;"/>
<circle cx="662.23" cy="276.04" r="2.06" style="stroke-width: 0.71;stroke: #7CAE00;stroke-opacity: 0.70;fill: #7CAE00;fill-opacity: 0.70;"/>
<line x1="655.32" y1="276.04" x2="669.14" y2="276.04" style="stroke-width: 1.71;stroke: #7CAE00;stroke-linecap: butt;"/>
<circle cx="662.23" cy="293.32" r="2.06" style="stroke-width: 0.71;stroke: #00BFC4;stroke-opacity: 0.70;fill: #00BFC4;fill-opacity: 0.70;"/>
<line x1="655.32" y1="293.32" x2="669.14" y2="293.32" style="stroke-width: 1.71;stroke: #00BFC4;stroke-linecap: butt;"/>
<circle cx="662.23" cy="310.60" r="2.06" style="stroke-width: 0.71;stroke: #C77CFF;stroke-opacity: 0.70;fill: #C77CFF;fill-opacity: 0.70;"/>
<line x1="655.32" y1="310.60" x2="669.14" y2="310.60" style="stroke-width: 1.71;stroke: #C77CFF;stroke-linecap: butt;"/>
<g><text x="676.35" y="261.91" style="font-family: Arial;font-size: 8.80px;" textLength="68.00px" lengthAdjust="spacingAndGlyphs">ASC397.ASC397</text></g>
<g><text x="676.35" y="279.19" style="font-family: Arial;font-size: 8.80px;" textLength="81.69px" lengthAdjust="spacingAndGlyphs">ASC397.ASC397cse</text></g>
<g><text x="676.35" y="296.47" style="font-family: Arial;font-size: 8.80px;" textLength="68.00px" lengthAdjust="spacingAndGlyphs">ASC399.ASC399</text></g>
<g><text x="676.35" y="313.75" style="font-family: Arial;font-size: 8.80px;" textLength="81.69px" lengthAdjust="spacingAndGlyphs">ASC399.ASC399cse</text></g>
<g><text x="38.03" y="14.93" style="font-family: Arial;font-size: 13.20px;" textLength="207.50px" lengthAdjust="spacingAndGlyphs">KBrO3 across patients &amp; conditions</text></g>
</g>
</svg>