<svg xmlns="http://www.w3.org/2000/svg" xmlns:xlink="http://www.w3.org/1999/xlink" class="httpgd" width="769.00" height="562.00" viewBox="0 0 769.00 562.00">
<defs>
  <style type='text/css'><![CDATA[
    .httpgd line, .httpgd polyline, .httpgd polygon, .httpgd path, .httpgd rect, .httpgd circle {
      fill: none;
      stroke: #000000;
      stroke-linecap: round;
      stroke-linejoin: round;
      stroke-miterlimit: 10.00;
    }
  ]]></style>
<clipPath id="c0"><rect x="0.00" y="0.00" width="769.00" height="562.00"/></clipPath>
<clipPath id="c1"><rect x="38.03" y="23.18" width="599.12" height="507.33"/></clipPath>
<clipPath id="c2"><rect x="0.00" y="0.00" width="769.00" height="562.00"/></clipPath>
</defs>
<rect width="100%" height="100%" style="stroke: none;fill: #FFFFFF;"/>
<g clip-path="url(#c0)">
</g><g clip-path="url(#c1)">
<polyline points="38.03,507.44 637.15,507.44" style="stroke-width: 1.07;stroke: #EBEBEB;stroke-linecap: butt;"/>
<polyline points="38.03,392.14 637.15,392.14" style="stroke-width: 1.07;stroke: #EBEBEB;stroke-linecap: butt;"/>
<polyline points="38.03,276.84 637.15,276.84" style="stroke-width: 1.07;stroke: #EBEBEB;stroke-linecap: butt;"/>
<polyline points="38.03,161.54 637.15,161.54" style="stroke-width: 1.07;stroke: #EBEBEB;stroke-linecap: butt;"/>
<polyline points="38.03,46.24 637.15,46.24" style="stroke-width: 1.07;stroke: #EBEBEB;stroke-linecap: butt;"/>
<polyline points="110.78,530.50 110.78,23.18" style="stroke-width: 1.07;stroke: #EBEBEB;stroke-linecap: butt;"/>
<polyline points="261.99,530.50 261.99,23.18" style="stroke-width: 1.07;stroke: #EBEBEB;stroke-linecap: butt;"/>
<polyline points="413.20,530.50 413.20,23.18" style="stroke-width: 1.07;stroke: #EBEBEB;stroke-linecap: butt;"/>
<polyline points="564.40,530.50 564.40,23.18" style="stroke-width: 1.07;stroke: #EBEBEB;stroke-linecap: butt;"/>
<polygon points="65.27,46.26 68.00,46.26 70.74,46.27 73.48,46.27 76.21,46.28 78.95,46.29 81.69,46.29 84.43,46.30 87.16,46.31 89.90,46.33 92.64,46.34 95.37,46.36 98.11,46.38 100.85,46.40 103.58,46.42 106.32,46.45 109.06,46.49 111.79,46.53 114.53,46.58 117.27,46.63 120.01,46.70 122.74,46.77 125.48,46.86 128.22,46.96 130.95,47.08 133.69,47.21 136.43,47.37 139.16,47.55 141.90,47.76 144.64,48.01 147.38,48.30 150.11,48.63 152.85,49.02 155.59,49.48 158.32,49.99 161.06,50.59 163.80,51.29 166.53,52.10 169.27,53.03 172.01,54.11 174.74,55.35 177.48,56.79 180.22,58.45 182.96,60.36 185.69,62.56 188.43,65.08 191.17,67.98 193.90,71.30 196.64,75.10 199.38,79.42 202.11,84.34 204.85,89.99 207.59,96.27 210.32,103.33 213.06,111.22 215.80,119.99 218.54,129.62 221.27,140.37 224.01,152.05 226.75,164.77 229.48,178.38 232.22,192.87 234.96,207.99 237.69,223.80 240.43,239.83 243.17,256.03 245.91,272.23 248.64,287.58 251.38,302.05 254.12,315.36 256.85,327.64 259.59,339.71 262.33,351.06 265.06,362.05 267.80,372.50 270.54,382.47 273.27,391.93 276.01,400.95 278.75,409.60 281.49,417.62 284.22,425.09 286.96,432.03 289.70,438.51 292.43,444.62 295.17,450.16 297.91,455.27 300.64,459.97 303.38,464.29 306.12,468.30 308.86,471.96 311.59,475.30 314.33,478.34 317.07,481.10 319.80,483.62 322.54,485.90 325.28,487.98 328.01,489.87 330.75,491.60 333.49,493.16 336.22,494.57 338.96,495.83 341.70,496.98 344.44,498.02 347.17,498.95 349.91,499.80 352.65,500.56 355.38,501.24 358.12,501.86 360.86,502.42 363.59,502.92 366.33,503.38 369.07,503.78 371.80,504.15 374.54,504.48 377.28,504.78 380.02,505.05 382.75,505.29 385.49,505.50 388.23,505.70 390.96,505.87 393.70,506.03 396.44,506.17 399.17,506.30 401.91,506.42 404.65,506.52 407.39,506.61 410.12,506.70 412.86,506.77 415.60,506.84 418.33,506.90 421.07,506.96 423.81,507.00 426.54,507.05 429.28,507.09 432.02,507.12 434.75,507.16 437.49,507.19 440.23,507.21 442.97,507.23 445.70,507.26 448.44,507.27 451.18,507.29 453.91,507.31 456.65,507.32 459.39,507.33 462.12,507.34 464.86,507.35 467.60,507.36 470.34,507.37 473.07,507.38 475.81,507.38 478.55,507.39 481.28,507.40 484.02,507.40 486.76,507.41 489.49,507.41 492.23,507.41 494.97,507.42 497.70,507.42 500.44,507.42 503.18,507.42 505.92,507.43 508.65,507.43 511.39,507.43 514.13,507.43 516.86,507.43 519.60,507.43 522.34,507.43 525.07,507.43 527.81,507.44 530.55,507.44 533.28,507.44 536.02,507.44 538.76,507.44 541.50,507.44 544.23,507.44 546.97,507.44 549.71,507.44 552.44,507.44 555.18,507.44 557.92,507.44 560.65,507.44 563.39,507.44 566.13,507.44 568.87,507.44 571.60,507.44 574.34,507.44 577.08,507.44 579.81,507.44 582.55,507.44 585.29,507.44 588.02,507.44 590.76,507.44 593.50,507.44 596.23,507.44 598.97,507.44 601.71,507.44 604.45,507.44 607.18,507.44 609.92,507.44 609.92,507.44 607.18,507.44 604.45,507.44 601.71,507.44 598.97,507.44 596.23,507.44 593.50,507.44 590.76,507.44 588.02,507.44 585.29,507.44 582.55,507.44 579.81,507.44 577.08,507.44 574.34,507.44 571.60,507.44 568.87,507.44 566.13,507.44 563.39,507.44 560.65,507.44 557.92,507.44 555.18,507.44 552.44,507.44 549.71,507.44 546.97,507.44 544.23,507.44 541.50,507.44 538.76,507.44 536.02,507.44 533.28,507.44 530.55,507.44 527.81,507.44 525.07,507.44 522.34,507.44 519.60,507.44 516.86,507.44 514.13,507.44 511.39,507.44 508.65,507.44 505.92,507.44 503.18,507.44 500.44,507.44 497.70,507.44 494.97,507.44 492.23,507.44 489.49,507.44 486.76,507.44 484.02,507.44 481.28,507.44 478.55,507.44 475.81,507.44 473.07,507.44 470.34,507.44 467.60,507.44 464.86,507.44 462.12,507.44 459.39,507.44 456.65,507.44 453.91,507.44 451.18,507.44 448.44,507.44 445.70,507.44 442.97,507.43 440.23,507.43 437.49,507.43 434.75,507.43 432.02,507.43 429.28,507.42 426.54,507.42 423.81,507.42 421.07,507.41 418.33,507.41 415.60,507.40 412.86,507.40 410.12,507.39 407.39,507.38 404.65,507.37 401.91,507.36 399.17,507.34 396.44,507.33 393.70,507.31 390.96,507.28 388.23,507.26 385.49,507.23 382.75,507.19 380.02,507.15 377.28,507.11 374.54,507.05 371.80,506.99 369.07,506.91 366.33,506.83 363.59,506.73 360.86,506.61 358.12,506.48 355.38,506.32 352.65,506.14 349.91,505.93 347.17,505.69 344.44,505.40 341.70,505.07 338.96,504.70 336.22,504.25 333.49,503.74 330.75,503.15 328.01,502.46 325.28,501.67 322.54,500.75 319.80,499.70 317.07,498.48 314.33,497.05 311.59,495.40 308.86,493.49 306.12,491.31 303.38,488.83 300.64,485.99 297.91,482.74 295.17,479.01 292.43,474.74 289.70,469.77 286.96,464.23 284.22,458.15 281.49,451.07 278.75,443.28 276.01,434.48 273.27,424.86 270.54,414.27 267.80,402.70 265.06,390.10 262.33,376.62 259.59,362.46 256.85,347.44 254.12,332.25 251.38,316.73 248.64,301.29 245.91,286.45 243.17,272.62 240.43,259.07 237.69,246.62 234.96,234.61 232.22,222.59 229.48,210.94 226.75,199.74 224.01,188.99 221.27,178.56 218.54,168.64 215.80,159.33 213.06,150.46 210.32,142.26 207.59,134.44 204.85,127.15 202.11,120.44 199.38,113.99 196.64,107.97 193.90,102.54 191.17,97.41 188.43,92.73 185.69,88.48 182.96,84.58 180.22,81.00 177.48,77.74 174.74,74.74 172.01,72.03 169.27,69.58 166.53,67.34 163.80,65.30 161.06,63.45 158.32,61.77 155.59,60.25 152.85,58.88 150.11,57.64 147.38,56.51 144.64,55.48 141.90,54.56 139.16,53.73 136.43,52.99 133.69,52.33 130.95,51.73 128.22,51.18 125.48,50.69 122.74,50.24 120.01,49.84 117.27,49.48 114.53,49.16 111.79,48.87 109.06,48.60 106.32,48.37 103.58,48.15 100.85,47.96 98.11,47.79 95.37,47.63 92.64,47.49 89.90,47.36 87.16,47.25 84.43,47.15 81.69,47.06 78.95,46.98 76.21,46.90 73.48,46.83 70.74,46.77 68.00,46.72 65.27,46.67" style="stroke-width: 0.00;stroke: none;stroke-linecap: butt;fill: #F8766D;fill-opacity: 0.20;" />
<polyline points="65.27,46.26 68.00,46.26 70.74,46.27 73.48,46.27 76.21,46.28 78.95,46.29 81.69,46.29 84.43,46.30 87.16,46.31 89.90,46.33 92.64,46.34 95.37,46.36 98.11,46.38 100.85,46.40 103.58,46.42 106.32,46.45 109.06,46.49 111.79,46.53 114.53,46.58 117.27,46.63 120.01,46.70 122.74,46.77 125.48,46.86 128.22,46.96 130.95,47.08 133.69,47.21 136.43,47.37 139.16,47.55 141.90,47.76 144.64,48.01 147.38,48.30 150.11,48.63 152.85,49.02 155.59,49.48 158.32,49.99 161.06,50.59 163.80,51.29 166.53,52.10 169.27,53.03 172.01,54.11 174.74,55.35 177.48,56.79 180.22,58.45 182.96,60.36 185.69,62.56 188.43,65.08 191.17,67.98 193.90,71.30 196.64,75.10 199.38,79.42 202.11,84.34 204.85,89.99 207.59,96.27 210.32,103.33 213.06,111.22 215.80,119.99 218.54,129.62 221.27,140.37 224.01,152.05 226.75,164.77 229.48,178.38 232.22,192.87 234.96,207.99 237.69,223.80 240.43,239.83 243.17,256.03 245.91,272.23 248.64,287.58 251.38,302.05 254.12,315.36 256.85,327.64 259.59,339.71 262.33,351.06 265.06,362.05 267.80,372.50 270.54,382.47 273.27,391.93 276.01,400.95 278.75,409.60 281.49,417.62 284.22,425.09 286.96,432.03 289.70,438.51 292.43,444.62 295.17,450.16 297.91,455.27 300.64,459.97 303.38,464.29 306.12,468.30 308.86,471.96 311.59,475.30 314.33,478.34 317.07,481.10 319.80,483.62 322.54,485.90 325.28,487.98 328.01,489.87 330.75,491.60 333.49,493.16 336.22,494.57 338.96,495.83 341.70,496.98 344.44,498.02 347.17,498.95 349.91,499.80 352.65,500.56 355.38,501.24 358.12,501.86 360.86,502.42 363.59,502.92 366.33,503.38 369.07,503.78 371.80,504.15 374.54,504.48 377.28,504.78 380.02,505.05 382.75,505.29 385.49,505.50 388.23,505.70 390.96,505.87 393.70,506.03 396.44,506.17 399.17,506.30 401.91,506.42 404.65,506.52 407.39,506.61 410.12,506.70 412.86,506.77 415.60,506.84 418.33,506.90 421.07,506.96 423.81,507.00 426.54,507.05 429.28,507.09 432.02,507.12 434.75,507.16 437.49,507.19 440.23,507.21 442.97,507.23 445.70,507.26 448.44,507.27 451.18,507.29 453.91,507.31 456.65,507.32 459.39,507.33 462.12,507.34 464.86,507.35 467.60,507.36 470.34,507.37 473.07,507.38 475.81,507.38 478.55,507.39 481.28,507.40 484.02,507.40 486.76,507.41 489.49,507.41 492.23,507.41 494.97,507.42 497.70,507.42 500.44,507.42 503.18,507.42 505.92,507.43 508.65,507.43 511.39,507.43 514.13,507.43 516.86,507.43 519.60,507.43 522.34,507.43 525.07,507.43 527.81,507.44 530.55,507.44 533.28,507.44 536.02,507.44 538.76,507.44 541.50,507.44 544.23,507.44 546.97,507.44 549.71,507.44 552.44,507.44 555.18,507.44 557.92,507.44 560.65,507.44 563.39,507.44 566.13,507.44 568.87,507.44 571.60,507.44 574.34,507.44 577.08,507.44 579.81,507.44 582.55,507.44 585.29,507.44 588.02,507.44 590.76,507.44 593.50,507.44 596.23,507.44 598.97,507.44 601.71,507.44 604.45,507.44 607.18,507.44 609.92,507.44" style="stroke-width: 1.07;stroke: none;stroke-linecap: butt;"/>
<polyline points="609.92,507.44 607.18,507.44 604.45,507.44 601.71,507.44 598.97,507.44 596.23,507.44 593.50,507.44 590.76,507.44 588.02,507.44 585.29,507.44 582.55,507.44 579.81,507.44 577.08,507.44 574.34,507.44 571.60,507.44 568.87,507.44 566.13,507.44 563.39,507.44 560.65,507.44 557.92,507.44 555.18,507.44 552.44,507.44 549.71,507.44 546.97,507.44 544.23,507.44 541.50,507.44 538.76,507.44 536.02,507.44 533.28,507.44 530.55,507.44 527.81,507.44 525.07,507.44 522.34,507.44 519.60,507.44 516.86,507.44 514.13,507.44 511.39,507.44 508.65,507.44 505.92,507.44 503.18,507.44 500.44,507.44 497.70,507.44 494.97,507.44 492.23,507.44 489.49,507.44 486.76,507.44 484.02,507.44 481.28,507.44 478.55,507.44 475.81,507.44 473.07,507.44 470.34,507.44 467.60,507.44 464.86,507.44 462.12,507.44 459.39,507.44 456.65,507.44 453.91,507.44 451.18,507.44 448.44,507.44 445.70,507.44 442.97,507.43 440.23,507.43 437.49,507.43 434.75,507.43 432.02,507.43 429.28,507.42 426.54,507.42 423.81,507.42 421.07,507.41 418.33,507.41 415.60,507.40 412.86,507.40 410.12,507.39 407.39,507.38 404.65,507.37 401.91,507.36 399.17,507.34 396.44,507.33 393.70,507.31 390.96,507.28 388.23,507.26 385.49,507.23 382.75,507.19 380.02,507.15 377.28,507.11 374.54,507.05 371.80,506.99 369.07,506.91 366.33,506.83 363.59,506.73 360.86,506.61 358.12,506.48 355.38,506.32 352.65,506.14 349.91,505.93 347.17,505.69 344.44,505.40 341.70,505.07 338.96,504.70 336.22,504.25 333.49,503.74 330.75,503.15 328.01,502.46 325.28,501.67 322.54,500.75 319.80,499.70 317.07,498.48 314.33,497.05 311.59,495.40 308.86,493.49 306.12,491.31 303.38,488.83 300.64,485.99 297.91,482.74 295.17,479.01 292.43,474.74 289.70,469.77 286.96,464.23 284.22,458.15 281.49,451.07 278.75,443.28 276.01,434.48 273.27,424.86 270.54,414.27 267.80,402.70 265.06,390.10 262.33,376.62 259.59,362.46 256.85,347.44 254.12,332.25 251.38,316.73 248.64,301.29 245.91,286.45 243.17,272.62 240.43,259.07 237.69,246.62 234.96,234.61 232.22,222.59 229.48,210.94 226.75,199.74 224.01,188.99 221.27,178.56 218.54,168.64 215.80,159.33 213.06,150.46 210.32,142.26 207.59,134.44 204.85,127.15 202.11,120.44 199.38,113.99 196.64,107.97 193.90,102.54 191.17,97.41 188.43,92.73 185.69,88.48 182.96,84.58 180.22,81.00 177.48,77.74 174.74,74.74 172.01,72.03 169.27,69.58 166.53,67.34 163.80,65.30 161.06,63.45 158.32,61.77 155.59,60.25 152.85,58.88 150.11,57.64 147.38,56.51 144.64,55.48 141.90,54.56 139.16,53.73 136.43,52.99 133.69,52.33 130.95,51.73 128.22,51.18 125.48,50.69 122.74,50.24 120.01,49.84 117.27,49.48 114.53,49.16 111.79,48.87 109.06,48.60 106.32,48.37 103.58,48.15 100.85,47.96 98.11,47.79 95.37,47.63 92.64,47.49 89.90,47.36 87.16,47.25 84.43,47.15 81.69,47.06 78.95,46.98 76.21,46.90 73.48,46.83 70.74,46.77 68.00,46.72 65.27,46.67" style="stroke-width: 1.07;stroke: none;stroke-linecap: butt;"/>
<polygon points="65.27,46.24 68.00,46.24 70.74,46.24 73.48,46.24 76.21,46.24 78.95,46.24 81.69,46.24 84.43,46.24 87.16,46.24 89.90,46.24 92.64,46.24 95.37,46.24 98.11,46.24 100.85,46.24 103.58,46.24 106.32,46.24 109.06,46.24 111.79,46.24 114.53,46.24 117.27,46.24 120.01,46.24 122.74,46.24 125.48,46.24 128.22,46.24 130.95,46.24 133.69,46.24 136.43,46.24 139.16,46.24 141.90,46.24 144.64,46.24 147.38,46.24 150.11,46.24 152.85,46.24 155.59,46.24 158.32,46.24 161.06,46.24 163.80,46.24 166.53,46.24 169.27,46.24 172.01,46.24 174.74,46.24 177.48,46.24 180.22,46.24 182.96,46.25 185.69,46.25 188.43,46.26 191.17,46.27 193.90,46.30 196.64,46.33 199.38,46.38 202.11,46.46 204.85,46.60 207.59,46.80 210.32,47.13 213.06,47.65 215.80,48.47 218.54,49.75 221.27,51.77 224.01,54.92 226.75,59.82 229.48,67.34 232.22,78.73 234.96,95.58 237.69,119.66 240.43,152.47 243.17,194.42 245.91,243.68 248.64,279.23 251.38,296.36 254.12,313.22 256.85,329.70 259.59,345.62 262.33,360.85 265.06,375.28 267.80,388.84 270.54,401.45 273.27,413.10 276.01,423.76 278.75,433.47 281.49,442.24 284.22,450.12 286.96,457.18 289.70,463.46 292.43,469.03 295.17,473.95 297.91,478.28 300.64,482.09 303.38,485.42 306.12,488.34 308.86,490.88 311.59,493.10 314.33,495.02 317.07,496.70 319.80,498.15 322.54,499.41 325.28,500.51 328.01,501.45 330.75,502.27 333.49,502.98 336.22,503.59 338.96,504.12 341.70,504.57 344.44,504.97 347.17,505.31 349.91,505.60 352.65,505.86 355.38,506.07 358.12,506.26 360.86,506.43 363.59,506.57 366.33,506.69 369.07,506.79 371.80,506.88 374.54,506.96 377.28,507.03 380.02,507.08 382.75,507.13 385.49,507.18 388.23,507.21 390.96,507.24 393.70,507.27 396.44,507.30 399.17,507.32 401.91,507.33 404.65,507.35 407.39,507.36 410.12,507.37 412.86,507.38 415.60,507.39 418.33,507.40 421.07,507.40 423.81,507.41 426.54,507.41 429.28,507.42 432.02,507.42 434.75,507.42 437.49,507.43 440.23,507.43 442.97,507.43 445.70,507.43 448.44,507.43 451.18,507.44 453.91,507.44 456.65,507.44 459.39,507.44 462.12,507.44 464.86,507.44 467.60,507.44 470.34,507.44 473.07,507.44 475.81,507.44 478.55,507.44 481.28,507.44 484.02,507.44 486.76,507.44 489.49,507.44 492.23,507.44 494.97,507.44 497.70,507.44 500.44,507.44 503.18,507.44 505.92,507.44 508.65,507.44 511.39,507.44 514.13,507.44 516.86,507.44 519.60,507.44 522.34,507.44 525.07,507.44 527.81,507.44 530.55,507.44 533.28,507.44 536.02,507.44 538.76,507.44 541.50,507.44 544.23,507.44 546.97,507.44 549.71,507.44 552.44,507.44 555.18,507.44 557.92,507.44 560.65,507.44 563.39,507.44 566.13,507.44 568.87,507.44 571.60,507.44 574.34,507.44 577.08,507.44 579.81,507.44 582.55,507.44 585.29,507.44 588.02,507.44 590.76,507.44 593.50,507.44 596.23,507.44 598.97,507.44 601.71,507.44 604.45,507.44 607.18,507.44 609.92,507.44 609.92,507.44 607.18,507.44 604.45,507.44 601.71,507.44 598.97,507.44 596.23,507.44 593.50,507.44 590.76,507.44 588.02,507.44 585.29,507.44 582.55,507.44 579.81,507.44 577.08,507.44 574.34,507.44 571.60,507.44 568.87,507.44 566.13,507.44 563.39,507.44 560.65,507.44 557.92,507.44 555.18,507.44 552.44,507.44 549.71,507.44 546.97,507.44 544.23,507.44 541.50,507.44 538.76,507.44 536.02,507.44 533.28,507.44 530.55,507.44 527.81,507.44 525.07,507.44 522.34,507.44 519.60,507.44 516.86,507.44 514.13,507.44 511.39,507.44 508.65,507.44 505.92,507.44 503.18,507.44 500.44,507.44 497.70,507.44 494.97,507.44 492.23,507.44 489.49,507.44 486.76,507.44 484.02,507.44 481.28,507.44 478.55,507.44 475.81,507.44 473.07,507.44 470.34,507.44 467.60,507.44 464.86,507.44 462.12,507.44 459.39,507.44 456.65,507.44 453.91,507.44 451.18,507.44 448.44,507.44 445.70,507.44 442.97,507.44 440.23,507.44 437.49,507.44 434.75,507.44 432.02,507.44 429.28,507.44 426.54,507.44 423.81,507.44 421.07,507.44 418.33,507.44 415.60,507.44 412.86,507.44 410.12,507.44 407.39,507.44 404.65,507.44 401.91,507.44 399.17,507.44 396.44,507.44 393.70,507.44 390.96,507.44 388.23,507.44 385.49,507.44 382.75,507.44 380.02,507.44 377.28,507.44 374.54,507.44 371.80,507.44 369.07,507.44 366.33,507.44 363.59,507.44 360.86,507.44 358.12,507.44 355.38,507.44 352.65,507.44 349.91,507.44 347.17,507.44 344.44,507.44 341.70,507.44 338.96,507.44 336.22,507.44 333.49,507.44 330.75,507.44 328.01,507.44 325.28,507.44 322.54,507.44 319.80,507.44 317.07,507.44 314.33,507.44 311.59,507.43 308.86,507.43 306.12,507.42 303.38,507.40 300.64,507.38 297.91,507.34 295.17,507.28 292.43,507.19 289.70,507.04 286.96,506.80 284.22,506.43 281.49,505.84 278.75,504.92 276.01,503.47 273.27,501.19 270.54,497.64 267.80,492.13 265.06,483.70 262.33,471.00 259.59,452.37 256.85,426.07 254.12,390.86 251.38,346.85 248.64,296.30 245.91,262.19 243.17,245.24 240.43,228.61 237.69,212.49 234.96,197.03 232.22,182.34 229.48,168.51 226.75,155.62 224.01,143.70 221.27,132.76 218.54,122.79 215.80,113.77 213.06,105.64 210.32,98.37 207.59,91.88 204.85,86.12 202.11,81.03 199.38,76.54 196.64,72.59 193.90,69.14 191.17,66.11 188.43,63.47 185.69,61.17 182.96,59.16 180.22,57.42 177.48,55.91 174.74,54.60 172.01,53.46 169.27,52.48 166.53,51.62 163.80,50.89 161.06,50.25 158.32,49.70 155.59,49.23 152.85,48.82 150.11,48.46 147.38,48.16 144.64,47.89 141.90,47.66 139.16,47.47 136.43,47.30 133.69,47.15 130.95,47.03 128.22,46.92 125.48,46.82 122.74,46.74 120.01,46.67 117.27,46.61 114.53,46.56 111.79,46.52 109.06,46.48 106.32,46.44 103.58,46.42 100.85,46.39 98.11,46.37 95.37,46.35 92.64,46.34 89.90,46.32 87.16,46.31 84.43,46.30 81.69,46.29 78.95,46.28 76.21,46.28 73.48,46.27 70.74,46.27 68.00,46.26 65.27,46.26" style="stroke-width: 0.00;stroke: none;stroke-linecap: butt;fill: #7CAE00;fill-opacity: 0.20;" />
<polyline points="65.27,46.24 68.00,46.24 70.74,46.24 73.48,46.24 76.21,46.24 78.95,46.24 81.69,46.24 84.43,46.24 87.16,46.24 89.90,46.24 92.64,46.24 95.37,46.24 98.11,46.24 100.85,46.24 103.58,46.24 106.32,46.24 109.06,46.24 111.79,46.24 114.53,46.24 117.27,46.24 120.01,46.24 122.74,46.24 125.48,46.24 128.22,46.24 130.95,46.24 133.69,46.24 136.43,46.24 139.16,46.24 141.90,46.24 144.64,46.24 147.38,46.24 150.11,46.24 152.85,46.24 155.59,46.24 158.32,46.24 161.06,46.24 163.80,46.24 166.53,46.24 169.27,46.24 172.01,46.24 174.74,46.24 177.48,46.24 180.22,46.24 182.96,46.25 185.69,46.25 188.43,46.26 191.17,46.27 193.90,46.30 196.64,46.33 199.38,46.38 202.11,46.46 204.85,46.60 207.59,46.80 210.32,47.13 213.06,47.65 215.80,48.47 218.54,49.75 221.27,51.77 224.01,54.92 226.75,59.82 229.48,67.34 232.22,78.73 234.96,95.58 237.69,119.66 240.43,152.47 243.17,194.42 245.91,243.68 248.64,279.23 251.38,296.36 254.12,313.22 256.85,329.70 259.59,345.62 262.33,360.85 265.06,375.28 267.80,388.84 270.54,401.45 273.27,413.10 276.01,423.76 278.75,433.47 281.49,442.24 284.22,450.12 286.96,457.18 289.70,463.46 292.43,469.03 295.17,473.95 297.91,478.28 300.64,482.09 303.38,485.42 306.12,488.34 308.86,490.88 311.59,493.10 314.33,495.02 317.07,496.70 319.80,498.15 322.54,499.41 325.28,500.51 328.01,501.45 330.75,502.27 333.49,502.98 336.22,503.59 338.96,504.12 341.70,504.57 344.44,504.97 347.17,505.31 349.91,505.60 352.65,505.86 355.38,506.07 358.12,506.26 360.86,506.43 363.59,506.57 366.33,506.69 369.07,506.79 371.80,506.88 374.54,506.96 377.28,507.03 380.02,507.08 382.75,507.13 385.49,507.18 388.23,507.21 390.96,507.24 393.70,507.27 396.44,507.30 399.17,507.32 401.91,507.33 404.65,507.35 407.39,507.36 410.12,507.37 412.86,507.38 415.60,507.39 418.33,507.40 421.07,507.40 423.81,507.41 426.54,507.41 429.28,507.42 432.02,507.42 434.75,507.42 437.49,507.43 440.23,507.43 442.97,507.43 445.70,507.43 448.44,507.43 451.18,507.44 453.91,507.44 456.65,507.44 459.39,507.44 462.12,507.44 464.86,507.44 467.60,507.44 470.34,507.44 473.07,507.44 475.81,507.44 478.55,507.44 481.28,507.44 484.02,507.44 486.76,507.44 489.49,507.44 492.23,507.44 494.97,507.44 497.70,507.44 500.44,507.44 503.18,507.44 505.92,507.44 508.65,507.44 511.39,507.44 514.13,507.44 516.86,507.44 519.60,507.44 522.34,507.44 525.07,507.44 527.81,507.44 530.55,507.44 533.28,507.44 536.02,507.44 538.76,507.44 541.50,507.44 544.23,507.44 546.97,507.44 549.71,507.44 552.44,507.44 555.18,507.44 557.92,507.44 560.65,507.44 563.39,507.44 566.13,507.44 568.87,507.44 571.60,507.44 574.34,507.44 577.08,507.44 579.81,507.44 582.55,507.44 585.29,507.44 588.02,507.44 590.76,507.44 593.50,507.44 596.23,507.44 598.97,507.44 601.71,507.44 604.45,507.44 607.18,507.44 609.92,507.44" style="stroke-width: 1.07;stroke: none;stroke-linecap: butt;"/>
<polyline points="609.92,507.44 607.18,507.44 604.45,507.44 601.71,507.44 598.97,507.44 596.23,507.44 593.50,507.44 590.76,507.44 588.02,507.44 585.29,507.44 582.55,507.44 579.81,507.44 577.08,507.44 574.34,507.44 571.60,507.44 568.87,507.44 566.13,507.44 563.39,507.44 560.65,507.44 557.92,507.44 555.18,507.44 552.44,507.44 549.71,507.44 546.97,507.44 544.23,507.44 541.50,507.44 538.76,507.44 536.02,507.44 533.28,507.44 530.55,507.44 527.81,507.44 525.07,507.44 522.34,507.44 519.60,507.44 516.86,507.44 514.13,507.44 511.39,507.44 508.65,507.44 505.92,507.44 503.18,507.44 500.44,507.44 497.70,507.44 494.97,507.44 492.23,507.44 489.49,507.44 486.76,507.44 484.02,507.44 481.28,507.44 478.55,507.44 475.81,507.44 473.07,507.44 470.34,507.44 467.60,507.44 464.86,507.44 462.12,507.44 459.39,507.44 456.65,507.44 453.91,507.44 451.18,507.44 448.44,507.44 445.70,507.44 442.97,507.44 440.23,507.44 437.49,507.44 434.75,507.44 432.02,507.44 429.28,507.44 426.54,507.44 423.81,507.44 421.07,507.44 418.33,507.44 415.60,507.44 412.86,507.44 410.12,507.44 407.39,507.44 404.65,507.44 401.91,507.44 399.17,507.44 396.44,507.44 393.70,507.44 390.96,507.44 388.23,507.44 385.49,507.44 382.75,507.44 380.02,507.44 377.28,507.44 374.54,507.44 371.80,507.44 369.07,507.44 366.33,507.44 363.59,507.44 360.86,507.44 358.12,507.44 355.38,507.44 352.65,507.44 349.91,507.44 347.17,507.44 344.44,507.44 341.70,507.44 338.96,507.44 336.22,507.44 333.49,507.44 330.75,507.44 328.01,507.44 325.28,507.44 322.54,507.44 319.80,507.44 317.07,507.44 314.33,507.44 311.59,507.43 308.86,507.43 306.12,507.42 303.38,507.40 300.64,507.38 297.91,507.34 295.17,507.28 292.43,507.19 289.70,507.04 286.96,506.80 284.22,506.43 281.49,505.84 278.75,504.92 276.01,503.47 273.27,501.19 270.54,497.64 267.80,492.13 265.06,483.70 262.33,471.00 259.59,452.37 256.85,426.07 254.12,390.86 251.38,346.85 248.64,296.30 245.91,262.19 243.17,245.24 240.43,228.61 237.69,212.49 234.96,197.03 232.22,182.34 229.48,168.51 226.75,155.62 224.01,143.70 221.27,132.76 218.54,122.79 215.80,113.77 213.06,105.64 210.32,98.37 207.59,91.88 204.85,86.12 202.11,81.03 199.38,76.54 196.64,72.59 193.90,69.14 191.17,66.11 188.43,63.47 185.69,61.17 182.96,59.16 180.22,57.42 177.48,55.91 174.74,54.60 172.01,53.46 169.27,52.48 166.53,51.62 163.80,50.89 161.06,50.25 158.32,49.70 155.59,49.23 152.85,48.82 150.11,48.46 147.38,48.16 144.64,47.89 141.90,47.66 139.16,47.47 136.43,47.30 133.69,47.15 130.95,47.03 128.22,46.92 125.48,46.82 122.74,46.74 120.01,46.67 117.27,46.61 114.53,46.56 111.79,46.52 109.06,46.48 106.32,46.44 103.58,46.42 100.85,46.39 98.11,46.37 95.37,46.35 92.64,46.34 89.90,46.32 87.16,46.31 84.43,46.30 81.69,46.29 78.95,46.28 76.21,46.28 73.48,46.27 70.74,46.27 68.00,46.26 65.27,46.26" style="stroke-width: 1.07;stroke: none;stroke-linecap: butt;"/>
<polygon points="65.27,46.31 68.00,46.32 70.74,46.33 73.48,46.34 76.21,46.35 78.95,46.37 81.69,46.39 84.43,46.41 87.16,46.43 89.90,46.46 92.64,46.49 95.37,46.53 98.11,46.57 100.85,46.62 103.58,46.67 106.32,46.73 109.06,46.81 111.79,46.89 114.53,46.98 117.27,47.09 120.01,47.21 122.74,47.35 125.48,47.50 128.22,47.68 130.95,47.89 133.69,48.12 136.43,48.39 139.16,48.70 141.90,49.04 144.64,49.44 147.38,49.89 150.11,50.40 152.85,50.99 155.59,51.67 158.32,52.44 161.06,53.31 163.80,54.30 166.53,55.42 169.27,56.68 172.01,58.12 174.74,59.77 177.48,61.58 180.22,63.66 182.96,66.01 185.69,68.67 188.43,71.66 191.17,75.02 193.90,78.76 196.64,82.97 199.38,87.69 202.11,92.94 204.85,98.74 207.59,105.17 210.32,112.35 213.06,120.15 215.80,128.70 218.54,138.01 221.27,148.06 224.01,158.69 226.75,169.89 229.48,182.21 232.22,194.76 234.96,207.49 237.69,220.73 240.43,234.45 243.17,248.11 245.91,261.98 248.64,275.00 251.38,287.66 254.12,299.68 256.85,310.90 259.59,321.71 262.33,331.69 265.06,341.21 267.80,350.30 270.54,359.14 273.27,367.48 276.01,375.48 278.75,383.30 281.49,390.82 284.22,397.96 286.96,404.45 289.70,410.97 292.43,417.29 295.17,423.09 297.91,428.60 300.64,433.95 303.38,438.96 306.12,443.68 308.86,448.03 311.59,452.18 314.33,456.08 317.07,459.65 319.80,463.04 322.54,466.24 325.28,469.24 328.01,472.02 330.75,474.56 333.49,476.98 336.22,479.23 338.96,481.32 341.70,483.25 344.44,485.05 347.17,486.75 349.91,488.32 352.65,489.77 355.38,491.12 358.12,492.35 360.86,493.50 363.59,494.56 366.33,495.55 369.07,496.46 371.80,497.30 374.54,498.08 377.28,498.80 380.02,499.46 382.75,500.08 385.49,500.66 388.23,501.19 390.96,501.68 393.70,502.13 396.44,502.54 399.17,502.93 401.91,503.28 404.65,503.60 407.39,503.90 410.12,504.18 412.86,504.43 415.60,504.67 418.33,504.89 421.07,505.09 423.81,505.28 426.54,505.45 429.28,505.60 432.02,505.75 434.75,505.89 437.49,506.01 440.23,506.13 442.97,506.23 445.70,506.33 448.44,506.42 451.18,506.50 453.91,506.58 456.65,506.64 459.39,506.71 462.12,506.77 464.86,506.82 467.60,506.87 470.34,506.91 473.07,506.95 475.81,506.99 478.55,507.03 481.28,507.06 484.02,507.09 486.76,507.12 489.49,507.14 492.23,507.17 494.97,507.19 497.70,507.21 500.44,507.23 503.18,507.24 505.92,507.26 508.65,507.27 511.39,507.29 514.13,507.30 516.86,507.31 519.60,507.32 522.34,507.33 525.07,507.34 527.81,507.35 530.55,507.35 533.28,507.36 536.02,507.37 538.76,507.37 541.50,507.38 544.23,507.38 546.97,507.39 549.71,507.39 552.44,507.40 555.18,507.40 557.92,507.40 560.65,507.41 563.39,507.41 566.13,507.41 568.87,507.42 571.60,507.42 574.34,507.42 577.08,507.42 579.81,507.42 582.55,507.42 585.29,507.43 588.02,507.43 590.76,507.43 593.50,507.43 596.23,507.43 598.97,507.43 601.71,507.43 604.45,507.43 607.18,507.43 609.92,507.44 609.92,507.44 607.18,507.44 604.45,507.44 601.71,507.44 598.97,507.44 596.23,507.44 593.50,507.44 590.76,507.44 588.02,507.44 585.29,507.44 582.55,507.44 579.81,507.44 577.08,507.44 574.34,507.44 571.60,507.44 568.87,507.44 566.13,507.44 563.39,507.44 560.65,507.44 557.92,507.44 555.18,507.44 552.44,507.44 549.71,507.44 546.97,507.44 544.23,507.44 541.50,507.44 538.76,507.44 536.02,507.44 533.28,507.44 530.55,507.44 527.81,507.44 525.07,507.44 522.34,507.44 519.60,507.44 516.86,507.44 514.13,507.44 511.39,507.44 508.65,507.44 505.92,507.44 503.18,507.44 500.44,507.44 497.70,507.44 494.97,507.44 492.23,507.44 489.49,507.44 486.76,507.44 484.02,507.44 481.28,507.44 478.55,507.44 475.81,507.44 473.07,507.44 470.34,507.43 467.60,507.43 464.86,507.43 462.12,507.43 459.39,507.43 456.65,507.43 453.91,507.42 451.18,507.42 448.44,507.42 445.70,507.41 442.97,507.41 440.23,507.41 437.49,507.40 434.75,507.39 432.02,507.39 429.28,507.38 426.54,507.37 423.81,507.36 421.07,507.35 418.33,507.34 415.60,507.32 412.86,507.30 410.12,507.28 407.39,507.26 404.65,507.24 401.91,507.21 399.17,507.17 396.44,507.14 393.70,507.09 390.96,507.04 388.23,506.99 385.49,506.92 382.75,506.85 380.02,506.76 377.28,506.66 374.54,506.55 371.80,506.42 369.07,506.28 366.33,506.11 363.59,505.93 360.86,505.71 358.12,505.47 355.38,505.19 352.65,504.87 349.91,504.51 347.17,504.09 344.44,503.62 341.70,503.08 338.96,502.49 336.22,501.79 333.49,500.98 330.75,500.09 328.01,499.05 325.28,497.88 322.54,496.54 319.80,495.03 317.07,493.31 314.33,491.36 311.59,489.16 308.86,486.67 306.12,483.95 303.38,480.82 300.64,477.26 297.91,473.39 295.17,468.86 292.43,463.93 289.70,458.44 286.96,452.40 284.22,445.73 281.49,438.29 278.75,430.34 276.01,421.79 273.27,412.31 270.54,402.41 267.80,392.03 265.06,380.56 262.33,368.86 259.59,356.75 256.85,344.02 254.12,331.46 251.38,318.26 248.64,305.57 245.91,293.22 243.17,281.51 240.43,269.97 237.69,259.11 234.96,248.35 232.22,238.12 229.48,228.66 226.75,219.22 224.01,210.09 221.27,201.12 218.54,192.66 215.80,184.44 213.06,176.17 210.32,168.55 207.59,161.26 204.85,154.07 202.11,147.16 199.38,140.68 196.64,134.54 193.90,128.89 191.17,123.59 188.43,118.48 185.69,113.68 182.96,109.16 180.22,104.82 177.48,100.73 174.74,96.95 172.01,93.41 169.27,89.97 166.53,86.84 163.80,83.85 161.06,81.14 158.32,78.63 155.59,76.26 152.85,74.07 150.11,72.01 147.38,70.09 144.64,68.30 141.90,66.64 139.16,65.10 136.43,63.68 133.69,62.36 130.95,61.13 128.22,60.00 125.48,58.95 122.74,57.98 120.01,57.07 117.27,56.23 114.53,55.46 111.79,54.74 109.06,54.08 106.32,53.47 103.58,52.91 100.85,52.38 98.11,51.90 95.37,51.46 92.64,51.05 89.90,50.68 87.16,50.33 84.43,50.01 81.69,49.71 78.95,49.44 76.21,49.19 73.48,48.96 70.74,48.74 68.00,48.55 65.27,48.37" style="stroke-width: 0.00;stroke: none;stroke-linecap: butt;fill: #00BFC4;fill-opacity: 0.20;" />
<polyline points="65.27,46.31 68.00,46.32 70.74,46.33 73.48,46.34 76.21,46.35 78.95,46.37 81.69,46.39 84.43,46.41 87.16,46.43 89.90,46.46 92.64,46.49 95.37,46.53 98.11,46.57 100.85,46.62 103.58,46.67 106.32,46.73 109.06,46.81 111.79,46.89 114.53,46.98 117.27,47.09 120.01,47.21 122.74,47.35 125.48,47.50 128.22,47.68 130.95,47.89 133.69,48.12 136.43,48.39 139.16,48.70 141.90,49.04 144.64,49.44 147.38,49.89 150.11,50.40 152.85,50.99 155.59,51.67 158.32,52.44 161.06,53.31 163.80,54.30 166.53,55.42 169.27,56.68 172.01,58.12 174.74,59.77 177.48,61.58 180.22,63.66 182.96,66.01 185.69,68.67 188.43,71.66 191.17,75.02 193.90,78.76 196.64,82.97 199.38,87.69 202.11,92.94 204.85,98.74 207.59,105.17 210.32,112.35 213.06,120.15 215.80,128.70 218.54,138.01 221.27,148.06 224.01,158.69 226.75,169.89 229.48,182.21 232.22,194.76 234.96,207.49 237.69,220.73 240.43,234.45 243.17,248.11 245.91,261.98 248.64,275.00 251.38,287.66 254.12,299.68 256.85,310.90 259.59,321.71 262.33,331.69 265.06,341.21 267.80,350.30 270.54,359.14 273.27,367.48 276.01,375.48 278.75,383.30 281.49,390.82 284.22,397.96 286.96,404.45 289.70,410.97 292.43,417.29 295.17,423.09 297.91,428.60 300.64,433.95 303.38,438.96 306.12,443.68 308.86,448.03 311.59,452.18 314.33,456.08 317.07,459.65 319.80,463.04 322.54,466.24 325.28,469.24 328.01,472.02 330.75,474.56 333.49,476.98 336.22,479.23 338.96,481.32 341.70,483.25 344.44,485.05 347.17,486.75 349.91,488.32 352.65,489.77 355.38,491.12 358.12,492.35 360.86,493.50 363.59,494.56 366.33,495.55 369.07,496.46 371.80,497.30 374.54,498.08 377.28,498.80 380.02,499.46 382.75,500.08 385.49,500.66 388.23,501.19 390.96,501.68 393.70,502.13 396.44,502.54 399.17,502.93 401.91,503.28 404.65,503.60 407.39,503.90 410.12,504.18 412.86,504.43 415.60,504.67 418.33,504.89 421.07,505.09 423.81,505.28 426.54,505.45 429.28,505.60 432.02,505.75 434.75,505.89 437.49,506.01 440.23,506.13 442.97,506.23 445.70,506.33 448.44,506.42 451.18,506.50 453.91,506.58 456.65,506.64 459.39,506.71 462.12,506.77 464.86,506.82 467.60,506.87 470.34,506.91 473.07,506.95 475.81,506.99 478.55,507.03 481.28,507.06 484.02,507.09 486.76,507.12 489.49,507.14 492.23,507.17 494.97,507.19 497.70,507.21 500.44,507.23 503.18,507.24 505.92,507.26 508.65,507.27 511.39,507.29 514.13,507.30 516.86,507.31 519.60,507.32 522.34,507.33 525.07,507.34 527.81,507.35 530.55,507.35 533.28,507.36 536.02,507.37 538.76,507.37 541.50,507.38 544.23,507.38 546.97,507.39 549.71,507.39 552.44,507.40 555.18,507.40 557.92,507.40 560.65,507.41 563.39,507.41 566.13,507.41 568.87,507.42 571.60,507.42 574.34,507.42 577.08,507.42 579.81,507.42 582.55,507.42 585.29,507.43 588.02,507.43 590.76,507.43 593.50,507.43 596.23,507.43 598.97,507.43 601.71,507.43 604.45,507.43 607.18,507.43 609.92,507.44" style="stroke-width: 1.07;stroke: none;stroke-linecap: butt;"/>
<polyline points="609.92,507.44 607.18,507.44 604.45,507.44 601.71,507.44 598.97,507.44 596.23,507.44 593.50,507.44 590.76,507.44 588.02,507.44 585.29,507.44 582.55,507.44 579.81,507.44 577.08,507.44 574.34,507.44 571.60,507.44 568.87,507.44 566.13,507.44 563.39,507.44 560.65,507.44 557.92,507.44 555.18,507.44 552.44,507.44 549.71,507.44 546.97,507.44 544.23,507.44 541.50,507.44 538.76,507.44 536.02,507.44 533.28,507.44 530.55,507.44 527.81,507.44 525.07,507.44 522.34,507.44 519.60,507.44 516.86,507.44 514.13,507.44 511.39,507.44 508.65,507.44 505.92,507.44 503.18,507.44 500.44,507.44 497.70,507.44 494.97,507.44 492.23,507.44 489.49,507.44 486.76,507.44 484.02,507.44 481.28,507.44 478.55,507.44 475.81,507.44 473.07,507.44 470.34,507.43 467.60,507.43 464.86,507.43 462.12,507.43 459.39,507.43 456.65,507.43 453.91,507.42 451.18,507.42 448.44,507.42 445.70,507.41 442.97,507.41 440.23,507.41 437.49,507.40 434.75,507.39 432.02,507.39 429.28,507.38 426.54,507.37 423.81,507.36 421.07,507.35 418.33,507.34 415.60,507.32 412.86,507.30 410.12,507.28 407.39,507.26 404.65,507.24 401.91,507.21 399.17,507.17 396.44,507.14 393.70,507.09 390.96,507.04 388.23,506.99 385.49,506.92 382.75,506.85 380.02,506.76 377.28,506.66 374.54,506.55 371.80,506.42 369.07,506.28 366.33,506.11 363.59,505.93 360.86,505.71 358.12,505.47 355.38,505.19 352.65,504.87 349.91,504.51 347.17,504.09 344.44,503.62 341.70,503.08 338.96,502.49 336.22,501.79 333.49,500.98 330.75,500.09 328.01,499.05 325.28,497.88 322.54,496.54 319.80,495.03 317.07,493.31 314.33,491.36 311.59,489.16 308.86,486.67 306.12,483.95 303.38,480.82 300.64,477.26 297.91,473.39 295.17,468.86 292.43,463.93 289.70,458.44 286.96,452.40 284.22,445.73 281.49,438.29 278.75,430.34 276.01,421.79 273.27,412.31 270.54,402.41 267.80,392.03 265.06,380.56 262.33,368.86 259.59,356.75 256.85,344.02 254.12,331.46 251.38,318.26 248.64,305.57 245.91,293.22 243.17,281.51 240.43,269.97 237.69,259.11 234.96,248.35 232.22,238.12 229.48,228.66 226.75,219.22 224.01,210.09 221.27,201.12 218.54,192.66 215.80,184.44 213.06,176.17 210.32,168.55 207.59,161.26 204.85,154.07 202.11,147.16 199.38,140.68 196.64,134.54 193.90,128.89 191.17,123.59 188.43,118.48 185.69,113.68 182.96,109.16 180.22,104.82 177.48,100.73 174.74,96.95 172.01,93.41 169.27,89.97 166.53,86.84 163.80,83.85 161.06,81.14 158.32,78.63 155.59,76.26 152.85,74.07 150.11,72.01 147.38,70.09 144.64,68.30 141.90,66.64 139.16,65.10 136.43,63.68 133.69,62.36 130.95,61.13 128.22,60.00 125.48,58.95 122.74,57.98 120.01,57.07 117.27,56.23 114.53,55.46 111.79,54.74 109.06,54.08 106.32,53.47 103.58,52.91 100.85,52.38 98.11,51.90 95.37,51.46 92.64,51.05 89.90,50.68 87.16,50.33 84.43,50.01 81.69,49.71 78.95,49.44 76.21,49.19 73.48,48.96 70.74,48.74 68.00,48.55 65.27,48.37" style="stroke-width: 1.07;stroke: none;stroke-linecap: butt;"/>
<polygon points="65.27,46.26 68.00,46.26 70.74,46.26 73.48,46.27 76.21,46.27 78.95,46.28 81.69,46.29 84.43,46.29 87.16,46.30 89.90,46.31 92.64,46.32 95.37,46.34 98.11,46.35 100.85,46.37 103.58,46.40 106.32,46.42 109.06,46.45 111.79,46.48 114.53,46.52 117.27,46.57 120.01,46.62 122.74,46.68 125.48,46.76 128.22,46.84 130.95,46.94 133.69,47.05 136.43,47.18 139.16,47.33 141.90,47.50 144.64,47.70 147.38,47.94 150.11,48.21 152.85,48.54 155.59,48.90 158.32,49.32 161.06,49.81 163.80,50.36 166.53,50.99 169.27,51.73 172.01,52.62 174.74,53.58 177.48,54.67 180.22,55.97 182.96,57.53 185.69,59.23 188.43,61.30 191.17,63.57 193.90,66.17 196.64,69.10 199.38,72.40 202.11,76.13 204.85,80.40 207.59,85.24 210.32,90.58 213.06,96.58 215.80,103.50 218.54,111.47 221.27,119.52 224.01,129.43 226.75,139.77 229.48,151.07 232.22,163.07 234.96,175.55 237.69,189.02 240.43,203.10 243.17,217.82 245.91,232.33 248.64,246.46 251.38,260.10 254.12,272.61 256.85,284.14 259.59,293.85 262.33,302.88 265.06,311.23 267.80,318.80 270.54,325.95 273.27,333.67 276.01,340.71 278.75,347.24 281.49,353.75 284.22,360.23 286.96,366.11 289.70,371.91 292.43,378.07 295.17,384.00 297.91,389.35 300.64,394.94 303.38,399.87 306.12,404.98 308.86,409.79 311.59,414.35 314.33,419.04 317.07,423.64 319.80,427.88 322.54,431.94 325.28,435.84 328.01,439.55 330.75,443.03 333.49,446.52 336.22,449.78 338.96,452.88 341.70,455.84 344.44,458.56 347.17,461.11 349.91,463.55 352.65,465.86 355.38,468.12 358.12,470.33 360.86,472.42 363.59,474.40 366.33,476.28 369.07,478.05 371.80,479.72 374.54,481.32 377.28,482.83 380.02,484.25 382.75,485.60 385.49,486.87 388.23,488.07 390.96,489.21 393.70,490.28 396.44,491.29 399.17,492.24 401.91,493.14 404.65,493.99 407.39,494.79 410.12,495.54 412.86,496.25 415.60,496.91 418.33,497.54 421.07,498.13 423.81,498.69 426.54,499.21 429.28,499.70 432.02,500.16 434.75,500.60 437.49,501.01 440.23,501.40 442.97,501.76 445.70,502.10 448.44,502.43 451.18,502.73 453.91,503.01 456.65,503.27 459.39,503.52 462.12,503.75 464.86,503.97 467.60,504.17 470.34,504.36 473.07,504.55 475.81,504.72 478.55,504.89 481.28,505.04 484.02,505.19 486.76,505.32 489.49,505.45 492.23,505.57 494.97,505.68 497.70,505.79 500.44,505.89 503.18,505.98 505.92,506.07 508.65,506.15 511.39,506.23 514.13,506.31 516.86,506.37 519.60,506.44 522.34,506.50 525.07,506.56 527.81,506.61 530.55,506.66 533.28,506.71 536.02,506.75 538.76,506.80 541.50,506.83 544.23,506.87 546.97,506.91 549.71,506.94 552.44,506.97 555.18,507.00 557.92,507.03 560.65,507.05 563.39,507.07 566.13,507.10 568.87,507.12 571.60,507.14 574.34,507.16 577.08,507.17 579.81,507.19 582.55,507.21 585.29,507.22 588.02,507.23 590.76,507.25 593.50,507.26 596.23,507.27 598.97,507.28 601.71,507.29 604.45,507.30 607.18,507.31 609.92,507.32 609.92,507.44 607.18,507.44 604.45,507.44 601.71,507.44 598.97,507.44 596.23,507.44 593.50,507.44 590.76,507.44 588.02,507.44 585.29,507.44 582.55,507.44 579.81,507.44 577.08,507.44 574.34,507.44 571.60,507.44 568.87,507.44 566.13,507.44 563.39,507.44 560.65,507.44 557.92,507.44 555.18,507.44 552.44,507.44 549.71,507.44 546.97,507.44 544.23,507.44 541.50,507.44 538.76,507.44 536.02,507.44 533.28,507.44 530.55,507.44 527.81,507.44 525.07,507.44 522.34,507.44 519.60,507.44 516.86,507.44 514.13,507.44 511.39,507.44 508.65,507.44 505.92,507.44 503.18,507.44 500.44,507.44 497.70,507.44 494.97,507.44 492.23,507.44 489.49,507.44 486.76,507.44 484.02,507.44 481.28,507.44 478.55,507.44 475.81,507.44 473.07,507.44 470.34,507.44 467.60,507.44 464.86,507.44 462.12,507.44 459.39,507.44 456.65,507.44 453.91,507.44 451.18,507.43 448.44,507.43 445.70,507.43 442.97,507.43 440.23,507.43 437.49,507.42 434.75,507.42 432.02,507.42 429.28,507.41 426.54,507.41 423.81,507.40 421.07,507.40 418.33,507.39 415.60,507.38 412.86,507.37 410.12,507.36 407.39,507.35 404.65,507.33 401.91,507.31 399.17,507.29 396.44,507.27 393.70,507.24 390.96,507.21 388.23,507.17 385.49,507.13 382.75,507.08 380.02,507.02 377.28,506.96 374.54,506.88 371.80,506.79 369.07,506.69 366.33,506.57 363.59,506.43 360.86,506.27 358.12,506.09 355.38,505.88 352.65,505.63 349.91,505.33 347.17,504.99 344.44,504.62 341.70,504.17 338.96,503.64 336.22,503.05 333.49,502.36 330.75,501.58 328.01,500.69 325.28,499.66 322.54,498.45 319.80,497.09 317.07,495.48 314.33,493.72 311.59,491.71 308.86,489.34 306.12,486.62 303.38,483.52 300.64,480.04 297.91,475.86 295.17,471.43 292.43,466.11 289.70,460.62 286.96,453.86 284.22,446.57 281.49,438.83 278.75,430.16 276.01,420.36 273.27,409.67 270.54,399.02 267.80,386.98 265.06,374.56 262.33,361.60 259.59,348.22 256.85,334.88 254.12,321.60 251.38,308.44 248.64,295.62 245.91,283.59 243.17,271.29 240.43,261.26 237.69,253.14 234.96,244.57 232.22,236.67 229.48,228.87 226.75,221.27 224.01,214.31 221.27,207.70 218.54,201.24 215.80,194.89 213.06,188.72 210.32,183.02 207.59,177.30 204.85,171.66 202.11,165.73 199.38,160.32 196.64,154.80 193.90,149.72 191.17,144.81 188.43,140.08 185.69,135.51 182.96,131.12 180.22,126.91 177.48,122.84 174.74,118.82 172.01,115.06 169.27,111.61 166.53,108.24 163.80,104.98 161.06,101.87 158.32,98.87 155.59,95.99 152.85,93.24 150.11,90.58 147.38,88.08 144.64,85.80 141.90,83.51 139.16,81.34 136.43,79.32 133.69,77.41 130.95,75.60 128.22,73.89 125.48,72.28 122.74,70.75 120.01,69.31 117.27,68.02 114.53,66.80 111.79,65.62 109.06,64.48 106.32,63.39 103.58,62.37 100.85,61.42 98.11,60.55 95.37,59.72 92.64,58.95 89.90,58.21 87.16,57.52 84.43,56.87 81.69,56.25 78.95,55.65 76.21,55.08 73.48,54.55 70.74,54.05 68.00,53.58 65.27,53.14" style="stroke-width: 0.00;stroke: none;stroke-linecap: butt;fill: #C77CFF;fill-opacity: 0.20;" />
<polyline points="65.27,46.26 68.00,46.26 70.74,46.26 73.48,46.27 76.21,46.27 78.95,46.28 81.69,46.29 84.43,46.29 87.16,46.30 89.90,46.31 92.64,46.32 95.37,46.34 98.11,46.35 100.85,46.37 103.58,46.40 106.32,46.42 109.06,46.45 111.79,46.48 114.53,46.52 117.27,46.57 120.01,46.62 122.74,46.68 125.48,46.76 128.22,46.84 130.95,46.94 133.69,47.05 136.43,47.18 139.16,47.33 141.90,47.50 144.64,47.70 147.38,47.94 150.11,48.21 152.85,48.54 155.59,48.90 158.32,49.32 161.06,49.81 163.80,50.36 166.53,50.99 169.27,51.73 172.01,52.62 174.74,53.58 177.48,54.67 180.22,55.97 182.96,57.53 185.69,59.23 188.43,61.30 191.17,63.57 193.90,66.17 196.64,69.10 199.38,72.40 202.11,76.13 204.85,80.40 207.59,85.24 210.32,90.58 213.06,96.58 215.80,103.50 218.54,111.47 221.27,119.52 224.01,129.43 226.75,139.77 229.48,151.07 232.22,163.07 234.96,175.55 237.69,189.02 240.43,203.10 243.17,217.82 245.91,232.33 248.64,246.46 251.38,260.10 254.12,272.61 256.85,284.14 259.59,293.85 262.33,302.88 265.06,311.23 267.80,318.80 270.54,325.95 273.27,333.67 276.01,340.71 278.75,347.24 281.49,353.75 284.22,360.23 286.96,366.11 289.70,371.91 292.43,378.07 295.17,384.00 297.91,389.35 300.64,394.94 303.38,399.87 306.12,404.98 308.86,409.79 311.59,414.35 314.33,419.04 317.07,423.64 319.80,427.88 322.54,431.94 325.28,435.84 328.01,439.55 330.75,443.03 333.49,446.52 336.22,449.78 338.96,452.88 341.70,455.84 344.44,458.56 347.17,461.11 349.91,463.55 352.65,465.86 355.38,468.12 358.12,470.33 360.86,472.42 363.59,474.40 366.33,476.28 369.07,478.05 371.80,479.72 374.54,481.32 377.28,482.83 380.02,484.25 382.75,485.60 385.49,486.87 388.23,488.07 390.96,489.21 393.70,490.28 396.44,491.29 399.17,492.24 401.91,493.14 404.65,493.99 407.39,494.79 410.12,495.54 412.86,496.25 415.60,496.91 418.33,497.54 421.07,498.13 423.81,498.69 426.54,499.21 429.28,499.70 432.02,500.16 434.75,500.60 437.49,501.01 440.23,501.40 442.97,501.76 445.70,502.10 448.44,502.43 451.18,502.73 453.91,503.01 456.65,503.27 459.39,503.52 462.12,503.75 464.86,503.97 467.60,504.17 470.34,504.36 473.07,504.55 475.81,504.72 478.55,504.89 481.28,505.04 484.02,505.19 486.76,505.32 489.49,505.45 492.23,505.57 494.97,505.68 497.70,505.79 500.44,505.89 503.18,505.98 505.92,506.07 508.65,506.15 511.39,506.23 514.13,506.31 516.86,506.37 519.60,506.44 522.34,506.50 525.07,506.56 527.81,506.61 530.55,506.66 533.28,506.71 536.02,506.75 538.76,506.80 541.50,506.83 544.23,506.87 546.97,506.91 549.71,506.94 552.44,506.97 555.18,507.00 557.92,507.03 560.65,507.05 563.39,507.07 566.13,507.10 568.87,507.12 571.60,507.14 574.34,507.16 577.08,507.17 579.81,507.19 582.55,507.21 585.29,507.22 588.02,507.23 590.76,507.25 593.50,507.26 596.23,507.27 598.97,507.28 601.71,507.29 604.45,507.30 607.18,507.31 609.92,507.32" style="stroke-width: 1.07;stroke: none;stroke-linecap: butt;"/>
<polyline points="609.92,507.44 607.18,507.44 604.45,507.44 601.71,507.44 598.97,507.44 596.23,507.44 593.50,507.44 590.76,507.44 588.02,507.44 585.29,507.44 582.55,507.44 579.81,507.44 577.08,507.44 574.34,507.44 571.60,507.44 568.87,507.44 566.13,507.44 563.39,507.44 560.65,507.44 557.92,507.44 555.18,507.44 552.44,507.44 549.71,507.44 546.97,507.44 544.23,507.44 541.50,507.44 538.76,507.44 536.02,507.44 533.28,507.44 530.55,507.44 527.81,507.44 525.07,507.44 522.34,507.44 519.60,507.44 516.86,507.44 514.13,507.44 511.39,507.44 508.65,507.44 505.92,507.44 503.18,507.44 500.44,507.44 497.70,507.44 494.97,507.44 492.23,507.44 489.49,507.44 486.76,507.44 484.02,507.44 481.28,507.44 478.55,507.44 475.81,507.44 473.07,507.44 470.34,507.44 467.60,507.44 464.86,507.44 462.12,507.44 459.39,507.44 456.65,507.44 453.91,507.44 451.18,507.43 448.44,507.43 445.70,507.43 442.97,507.43 440.23,507.43 437.49,507.42 434.75,507.42 432.02,507.42 429.28,507.41 426.54,507.41 423.81,507.40 421.07,507.40 418.33,507.39 415.60,507.38 412.86,507.37 410.12,507.36 407.39,507.35 404.65,507.33 401.91,507.31 399.17,507.29 396.44,507.27 393.70,507.24 390.96,507.21 388.23,507.17 385.49,507.13 382.75,507.08 380.02,507.02 377.28,506.96 374.54,506.88 371.80,506.79 369.07,506.69 366.33,506.57 363.59,506.43 360.86,506.27 358.12,506.09 355.38,505.88 352.65,505.63 349.91,505.33 347.17,504.99 344.44,504.62 341.70,504.17 338.96,503.64 336.22,503.05 333.49,502.36 330.75,501.58 328.01,500.69 325.28,499.66 322.54,498.45 319.80,497.09 317.07,495.48 314.33,493.72 311.59,491.71 308.86,489.34 306.12,486.62 303.38,483.52 300.64,480.04 297.91,475.86 295.17,471.43 292.43,466.11 289.70,460.62 286.96,453.86 284.22,446.57 281.49,438.83 278.75,430.16 276.01,420.36 273.27,409.67 270.54,399.02 267.80,386.98 265.06,374.56 262.33,361.60 259.59,348.22 256.85,334.88 254.12,321.60 251.38,308.44 248.64,295.62 245.91,283.59 243.17,271.29 240.43,261.26 237.69,253.14 234.96,244.57 232.22,236.67 229.48,228.87 226.75,221.27 224.01,214.31 221.27,207.70 218.54,201.24 215.80,194.89 213.06,188.72 210.32,183.02 207.59,177.30 204.85,171.66 202.11,165.73 199.38,160.32 196.64,154.80 193.90,149.72 191.17,144.81 188.43,140.08 185.69,135.51 182.96,131.12 180.22,126.91 177.48,122.84 174.74,118.82 172.01,115.06 169.27,111.61 166.53,108.24 163.80,104.98 161.06,101.87 158.32,98.87 155.59,95.99 152.85,93.24 150.11,90.58 147.38,88.08 144.64,85.80 141.90,83.51 139.16,81.34 136.43,79.32 133.69,77.41 130.95,75.60 128.22,73.89 125.48,72.28 122.74,70.75 120.01,69.31 117.27,68.02 114.53,66.80 111.79,65.62 109.06,64.48 106.32,63.39 103.58,62.37 100.85,61.42 98.11,60.55 95.37,59.72 92.64,58.95 89.90,58.21 87.16,57.52 84.43,56.87 81.69,56.25 78.95,55.65 76.21,55.08 73.48,54.55 70.74,54.05 68.00,53.58 65.27,53.14" style="stroke-width: 1.07;stroke: none;stroke-linecap: butt;"/>
<circle cx="65.27" cy="46.24" r="2.06" style="stroke-width: 0.71;stroke: #F8766D;stroke-opacity: 0.70;fill: #F8766D;fill-opacity: 0.70;"/>
<circle cx="65.27" cy="46.24" r="2.06" style="stroke-width: 0.71;stroke: #F8766D;stroke-opacity: 0.70;fill: #F8766D;fill-opacity: 0.70;"/>
<circle cx="65.27" cy="46.24" r="2.06" style="stroke-width: 0.71;stroke: #F8766D;stroke-opacity: 0.70;fill: #F8766D;fill-opacity: 0.70;"/>
<circle cx="65.27" cy="46.24" r="2.06" style="stroke-width: 0.71;stroke: #7CAE00;stroke-opacity: 0.70;fill: #7CAE00;fill-opacity: 0.70;"/>
<circle cx="65.27" cy="46.24" r="2.06" style="stroke-width: 0.71;stroke: #7CAE00;stroke-opacity: 0.70;fill: #7CAE00;fill-opacity: 0.70;"/>
<circle cx="65.27" cy="46.24" r="2.06" style="stroke-width: 0.71;stroke: #7CAE00;stroke-opacity: 0.70;fill: #7CAE00;fill-opacity: 0.70;"/>
<circle cx="65.27" cy="46.24" r="2.06" style="stroke-width: 0.71;stroke: #00BFC4;stroke-opacity: 0.70;fill: #00BFC4;fill-opacity: 0.70;"/>
<circle cx="65.27" cy="48.67" r="2.06" style="stroke-width: 0.71;stroke: #00BFC4;stroke-opacity: 0.70;fill: #00BFC4;fill-opacity: 0.70;"/>
<circle cx="65.27" cy="49.49" r="2.06" style="stroke-width: 0.71;stroke: #00BFC4;stroke-opacity: 0.70;fill: #00BFC4;fill-opacity: 0.70;"/>
<circle cx="65.27" cy="50.23" r="2.06" style="stroke-width: 0.71;stroke: #C77CFF;stroke-opacity: 0.70;fill: #C77CFF;fill-opacity: 0.70;"/>
<circle cx="65.27" cy="90.91" r="2.06" style="stroke-width: 0.71;stroke: #C77CFF;stroke-opacity: 0.70;fill: #C77CFF;fill-opacity: 0.70;"/>
<circle cx="65.27" cy="46.24" r="2.06" style="stroke-width: 0.71;stroke: #C77CFF;stroke-opacity: 0.70;fill: #C77CFF;fill-opacity: 0.70;"/>
<circle cx="156.30" cy="46.24" r="2.06" style="stroke-width: 0.71;stroke: #F8766D;stroke-opacity: 0.70;fill: #F8766D;fill-opacity: 0.70;"/>
<circle cx="156.30" cy="46.24" r="2.06" style="stroke-width: 0.71;stroke: #F8766D;stroke-opacity: 0.70;fill: #F8766D;fill-opacity: 0.70;"/>
<circle cx="156.30" cy="82.24" r="2.06" style="stroke-width: 0.71;stroke: #F8766D;stroke-opacity: 0.70;fill: #F8766D;fill-opacity: 0.70;"/>
<circle cx="156.30" cy="46.24" r="2.06" style="stroke-width: 0.71;stroke: #7CAE00;stroke-opacity: 0.70;fill: #7CAE00;fill-opacity: 0.70;"/>
<circle cx="156.30" cy="46.24" r="2.06" style="stroke-width: 0.71;stroke: #7CAE00;stroke-opacity: 0.70;fill: #7CAE00;fill-opacity: 0.70;"/>
<circle cx="156.30" cy="46.24" r="2.06" style="stroke-width: 0.71;stroke: #7CAE00;stroke-opacity: 0.70;fill: #7CAE00;fill-opacity: 0.70;"/>
<circle cx="156.30" cy="59.41" r="2.06" style="stroke-width: 0.71;stroke: #00BFC4;stroke-opacity: 0.70;fill: #00BFC4;fill-opacity: 0.70;"/>
<circle cx="156.30" cy="72.24" r="2.06" style="stroke-width: 0.71;stroke: #00BFC4;stroke-opacity: 0.70;fill: #00BFC4;fill-opacity: 0.70;"/>
<circle cx="156.30" cy="82.35" r="2.06" style="stroke-width: 0.71;stroke: #00BFC4;stroke-opacity: 0.70;fill: #00BFC4;fill-opacity: 0.70;"/>
<circle cx="156.30" cy="94.54" r="2.06" style="stroke-width: 0.71;stroke: #C77CFF;stroke-opacity: 0.70;fill: #C77CFF;fill-opacity: 0.70;"/>
<circle cx="156.30" cy="93.33" r="2.06" style="stroke-width: 0.71;stroke: #C77CFF;stroke-opacity: 0.70;fill: #C77CFF;fill-opacity: 0.70;"/>
<circle cx="156.30" cy="75.04" r="2.06" style="stroke-width: 0.71;stroke: #C77CFF;stroke-opacity: 0.70;fill: #C77CFF;fill-opacity: 0.70;"/>
<circle cx="247.34" cy="284.89" r="2.06" style="stroke-width: 0.71;stroke: #F8766D;stroke-opacity: 0.70;fill: #F8766D;fill-opacity: 0.70;"/>
<circle cx="247.34" cy="276.39" r="2.06" style="stroke-width: 0.71;stroke: #F8766D;stroke-opacity: 0.70;fill: #F8766D;fill-opacity: 0.70;"/>
<circle cx="247.34" cy="298.83" r="2.06" style="stroke-width: 0.71;stroke: #F8766D;stroke-opacity: 0.70;fill: #F8766D;fill-opacity: 0.70;"/>
<circle cx="247.34" cy="268.91" r="2.06" style="stroke-width: 0.71;stroke: #7CAE00;stroke-opacity: 0.70;fill: #7CAE00;fill-opacity: 0.70;"/>
<circle cx="247.34" cy="273.77" r="2.06" style="stroke-width: 0.71;stroke: #7CAE00;stroke-opacity: 0.70;fill: #7CAE00;fill-opacity: 0.70;"/>
<circle cx="247.34" cy="264.58" r="2.06" style="stroke-width: 0.71;stroke: #7CAE00;stroke-opacity: 0.70;fill: #7CAE00;fill-opacity: 0.70;"/>
<circle cx="247.34" cy="289.02" r="2.06" style="stroke-width: 0.71;stroke: #00BFC4;stroke-opacity: 0.70;fill: #00BFC4;fill-opacity: 0.70;"/>
<circle cx="247.34" cy="278.89" r="2.06" style="stroke-width: 0.71;stroke: #00BFC4;stroke-opacity: 0.70;fill: #00BFC4;fill-opacity: 0.70;"/>
<circle cx="247.34" cy="276.26" r="2.06" style="stroke-width: 0.71;stroke: #00BFC4;stroke-opacity: 0.70;fill: #00BFC4;fill-opacity: 0.70;"/>
<circle cx="247.34" cy="261.14" r="2.06" style="stroke-width: 0.71;stroke: #C77CFF;stroke-opacity: 0.70;fill: #C77CFF;fill-opacity: 0.70;"/>
<circle cx="247.34" cy="278.60" r="2.06" style="stroke-width: 0.71;stroke: #C77CFF;stroke-opacity: 0.70;fill: #C77CFF;fill-opacity: 0.70;"/>
<circle cx="247.34" cy="245.22" r="2.06" style="stroke-width: 0.71;stroke: #C77CFF;stroke-opacity: 0.70;fill: #C77CFF;fill-opacity: 0.70;"/>
<circle cx="336.81" cy="507.44" r="2.06" style="stroke-width: 0.71;stroke: #F8766D;stroke-opacity: 0.70;fill: #F8766D;fill-opacity: 0.70;"/>
<circle cx="336.81" cy="507.44" r="2.06" style="stroke-width: 0.71;stroke: #F8766D;stroke-opacity: 0.70;fill: #F8766D;fill-opacity: 0.70;"/>
<circle cx="336.81" cy="506.22" r="2.06" style="stroke-width: 0.71;stroke: #F8766D;stroke-opacity: 0.70;fill: #F8766D;fill-opacity: 0.70;"/>
<circle cx="336.81" cy="507.44" r="2.06" style="stroke-width: 0.71;stroke: #7CAE00;stroke-opacity: 0.70;fill: #7CAE00;fill-opacity: 0.70;"/>
<circle cx="336.81" cy="507.44" r="2.06" style="stroke-width: 0.71;stroke: #7CAE00;stroke-opacity: 0.70;fill: #7CAE00;fill-opacity: 0.70;"/>
<circle cx="336.81" cy="507.44" r="2.06" style="stroke-width: 0.71;stroke: #7CAE00;stroke-opacity: 0.70;fill: #7CAE00;fill-opacity: 0.70;"/>
<circle cx="336.81" cy="507.44" r="2.06" style="stroke-width: 0.71;stroke: #00BFC4;stroke-opacity: 0.70;fill: #00BFC4;fill-opacity: 0.70;"/>
<circle cx="336.81" cy="507.44" r="2.06" style="stroke-width: 0.71;stroke: #00BFC4;stroke-opacity: 0.70;fill: #00BFC4;fill-opacity: 0.70;"/>
<circle cx="336.81" cy="507.44" r="2.06" style="stroke-width: 0.71;stroke: #00BFC4;stroke-opacity: 0.70;fill: #00BFC4;fill-opacity: 0.70;"/>
<circle cx="336.81" cy="507.44" r="2.06" style="stroke-width: 0.71;stroke: #C77CFF;stroke-opacity: 0.70;fill: #C77CFF;fill-opacity: 0.70;"/>
<circle cx="336.81" cy="507.44" r="2.06" style="stroke-width: 0.71;stroke: #C77CFF;stroke-opacity: 0.70;fill: #C77CFF;fill-opacity: 0.70;"/>
<circle cx="336.81" cy="496.34" r="2.06" style="stroke-width: 0.71;stroke: #C77CFF;stroke-opacity: 0.70;fill: #C77CFF;fill-opacity: 0.70;"/>
<circle cx="427.85" cy="507.44" r="2.06" style="stroke-width: 0.71;stroke: #F8766D;stroke-opacity: 0.70;fill: #F8766D;fill-opacity: 0.70;"/>
<circle cx="427.85" cy="507.44" r="2.06" style="stroke-width: 0.71;stroke: #F8766D;stroke-opacity: 0.70;fill: #F8766D;fill-opacity: 0.70;"/>
<circle cx="427.85" cy="507.44" r="2.06" style="stroke-width: 0.71;stroke: #F8766D;stroke-opacity: 0.70;fill: #F8766D;fill-opacity: 0.70;"/>
<circle cx="427.85" cy="507.44" r="2.06" style="stroke-width: 0.71;stroke: #7CAE00;stroke-opacity: 0.70;fill: #7CAE00;fill-opacity: 0.70;"/>
<circle cx="427.85" cy="507.44" r="2.06" style="stroke-width: 0.71;stroke: #7CAE00;stroke-opacity: 0.70;fill: #7CAE00;fill-opacity: 0.70;"/>
<circle cx="427.85" cy="507.44" r="2.06" style="stroke-width: 0.71;stroke: #7CAE00;stroke-opacity: 0.70;fill: #7CAE00;fill-opacity: 0.70;"/>
<circle cx="427.85" cy="507.44" r="2.06" style="stroke-width: 0.71;stroke: #00BFC4;stroke-opacity: 0.70;fill: #00BFC4;fill-opacity: 0.70;"/>
<circle cx="427.85" cy="507.44" r="2.06" style="stroke-width: 0.71;stroke: #00BFC4;stroke-opacity: 0.70;fill: #00BFC4;fill-opacity: 0.70;"/>
<circle cx="427.85" cy="507.44" r="2.06" style="stroke-width: 0.71;stroke: #00BFC4;stroke-opacity: 0.70;fill: #00BFC4;fill-opacity: 0.70;"/>
<circle cx="427.85" cy="507.44" r="2.06" style="stroke-width: 0.71;stroke: #C77CFF;stroke-opacity: 0.70;fill: #C77CFF;fill-opacity: 0.70;"/>
<circle cx="427.85" cy="507.44" r="2.06" style="stroke-width: 0.71;stroke: #C77CFF;stroke-opacity: 0.70;fill: #C77CFF;fill-opacity: 0.70;"/>
<circle cx="427.85" cy="507.44" r="2.06" style="stroke-width: 0.71;stroke: #C77CFF;stroke-opacity: 0.70;fill: #C77CFF;fill-opacity: 0.70;"/>
<circle cx="518.88" cy="507.44" r="2.06" style="stroke-width: 0.71;stroke: #F8766D;stroke-opacity: 0.70;fill: #F8766D;fill-opacity: 0.70;"/>
<circle cx="518.88" cy="507.44" r="2.06" style="stroke-width: 0.71;stroke: #F8766D;stroke-opacity: 0.70;fill: #F8766D;fill-opacity: 0.70;"/>
<circle cx="518.88" cy="507.44" r="2.06" style="stroke-width: 0.71;stroke: #F8766D;stroke-opacity: 0.70;fill: #F8766D;fill-opacity: 0.70;"/>
<circle cx="518.88" cy="507.44" r="2.06" style="stroke-width: 0.71;stroke: #7CAE00;stroke-opacity: 0.70;fill: #7CAE00;fill-opacity: 0.70;"/>
<circle cx="518.88" cy="507.44" r="2.06" style="stroke-width: 0.71;stroke: #7CAE00;stroke-opacity: 0.70;fill: #7CAE00;fill-opacity: 0.70;"/>
<circle cx="518.88" cy="507.44" r="2.06" style="stroke-width: 0.71;stroke: #7CAE00;stroke-opacity: 0.70;fill: #7CAE00;fill-opacity: 0.70;"/>
<circle cx="518.88" cy="507.44" r="2.06" style="stroke-width: 0.71;stroke: #00BFC4;stroke-opacity: 0.70;fill: #00BFC4;fill-opacity: 0.70;"/>
<circle cx="518.88" cy="507.44" r="2.06" style="stroke-width: 0.71;stroke: #00BFC4;stroke-opacity: 0.70;fill: #00BFC4;fill-opacity: 0.70;"/>
<circle cx="518.88" cy="507.44" r="2.06" style="stroke-width: 0.71;stroke: #00BFC4;stroke-opacity: 0.70;fill: #00BFC4;fill-opacity: 0.70;"/>
<circle cx="518.88" cy="507.44" r="2.06" style="stroke-width: 0.71;stroke: #C77CFF;stroke-opacity: 0.70;fill: #C77CFF;fill-opacity: 0.70;"/>
<circle cx="518.88" cy="507.44" r="2.06" style="stroke-width: 0.71;stroke: #C77CFF;stroke-opacity: 0.70;fill: #C77CFF;fill-opacity: 0.70;"/>
<circle cx="518.88" cy="503.52" r="2.06" style="stroke-width: 0.71;stroke: #C77CFF;stroke-opacity: 0.70;fill: #C77CFF;fill-opacity: 0.70;"/>
<circle cx="609.92" cy="507.44" r="2.06" style="stroke-width: 0.71;stroke: #F8766D;stroke-opacity: 0.70;fill: #F8766D;fill-opacity: 0.70;"/>
<circle cx="609.92" cy="506.99" r="2.06" style="stroke-width: 0.71;stroke: #F8766D;stroke-opacity: 0.70;fill: #F8766D;fill-opacity: 0.70;"/>
<circle cx="609.92" cy="507.44" r="2.06" style="stroke-width: 0.71;stroke: #F8766D;stroke-opacity: 0.70;fill: #F8766D;fill-opacity: 0.70;"/>
<circle cx="609.92" cy="507.44" r="2.06" style="stroke-width: 0.71;stroke: #7CAE00;stroke-opacity: 0.70;fill: #7CAE00;fill-opacity: 0.70;"/>
<circle cx="609.92" cy="506.62" r="2.06" style="stroke-width: 0.71;stroke: #7CAE00;stroke-opacity: 0.70;fill: #7CAE00;fill-opacity: 0.70;"/>
<circle cx="609.92" cy="507.44" r="2.06" style="stroke-width: 0.71;stroke: #7CAE00;stroke-opacity: 0.70;fill: #7CAE00;fill-opacity: 0.70;"/>
<circle cx="609.92" cy="507.44" r="2.06" style="stroke-width: 0.71;stroke: #00BFC4;stroke-opacity: 0.70;fill: #00BFC4;fill-opacity: 0.70;"/>
<circle cx="609.92" cy="505.67" r="2.06" style="stroke-width: 0.71;stroke: #00BFC4;stroke-opacity: 0.70;fill: #00BFC4;fill-opacity: 0.70;"/>
<circle cx="609.92" cy="507.44" r="2.06" style="stroke-width: 0.71;stroke: #00BFC4;stroke-opacity: 0.70;fill: #00BFC4;fill-opacity: 0.70;"/>
<circle cx="609.92" cy="507.44" r="2.06" style="stroke-width: 0.71;stroke: #C77CFF;stroke-opacity: 0.70;fill: #C77CFF;fill-opacity: 0.70;"/>
<circle cx="609.92" cy="506.90" r="2.06" style="stroke-width: 0.71;stroke: #C77CFF;stroke-opacity: 0.70;fill: #C77CFF;fill-opacity: 0.70;"/>
<circle cx="609.92" cy="507.44" r="2.06" style="stroke-width: 0.71;stroke: #C77CFF;stroke-opacity: 0.70;fill: #C77CFF;fill-opacity: 0.70;"/>
<polyline points="65.27,46.37 68.00,46.38 70.74,46.40 73.48,46.42 76.21,46.45 78.95,46.47 81.69,46.50 84.43,46.54 87.16,46.58 89.90,46.62 92.64,46.67 95.37,46.72 98.11,46.79 100.85,46.86 103.58,46.94 106.32,47.03 109.06,47.13 111.79,47.25 114.53,47.38 117.27,47.52 120.01,47.69 122.74,47.88 125.48,48.09 128.22,48.33 130.95,48.61 133.69,48.92 136.43,49.27 139.16,49.66 141.90,50.11 144.64,50.61 147.38,51.18 150.11,51.83 152.85,52.55 155.59,53.37 158.32,54.30 161.06,55.35 163.80,56.53 166.53,57.86 169.27,59.36 172.01,61.05 174.74,62.96 177.48,65.09 180.22,67.50 182.96,70.19 185.69,73.21 188.43,76.58 191.17,80.35 193.90,84.55 196.64,89.23 199.38,94.41 202.11,100.15 204.85,106.48 207.59,113.44 210.32,121.06 213.06,129.38 215.80,138.42 218.54,148.18 221.27,158.68 224.01,169.91 226.75,181.83 229.48,194.42 232.22,207.60 234.96,221.32 237.69,235.48 240.43,249.97 243.17,264.70 245.91,279.52 248.64,294.33 251.38,308.99 254.12,323.39 256.85,337.41 259.59,350.96 262.33,363.95 265.06,376.31 267.80,388.00 270.54,398.98 273.27,409.22 276.01,418.73 278.75,427.52 281.49,435.59 284.22,442.97 286.96,449.70 289.70,455.81 292.43,461.34 295.17,466.33 297.91,470.83 300.64,474.86 303.38,478.48 306.12,481.72 308.86,484.61 311.59,487.19 314.33,489.48 317.07,491.53 319.80,493.34 322.54,494.96 325.28,496.39 328.01,497.66 330.75,498.78 333.49,499.78 336.22,500.67 338.96,501.45 341.70,502.14 344.44,502.75 347.17,503.29 349.91,503.77 352.65,504.20 355.38,504.57 358.12,504.90 360.86,505.20 363.59,505.46 366.33,505.69 369.07,505.89 371.80,506.07 374.54,506.23 377.28,506.37 380.02,506.49 382.75,506.60 385.49,506.70 388.23,506.78 390.96,506.86 393.70,506.93 396.44,506.98 399.17,507.04 401.91,507.08 404.65,507.12 407.39,507.16 410.12,507.19 412.86,507.22 415.60,507.25 418.33,507.27 421.07,507.29 423.81,507.31 426.54,507.32 429.28,507.34 432.02,507.35 434.75,507.36 437.49,507.37 440.23,507.38 442.97,507.38 445.70,507.39 448.44,507.40 451.18,507.40 453.91,507.41 456.65,507.41 459.39,507.41 462.12,507.42 464.86,507.42 467.60,507.42 470.34,507.43 473.07,507.43 475.81,507.43 478.55,507.43 481.28,507.43 484.02,507.43 486.76,507.43 489.49,507.44 492.23,507.44 494.97,507.44 497.70,507.44 500.44,507.44 503.18,507.44 505.92,507.44 508.65,507.44 511.39,507.44 514.13,507.44 516.86,507.44 519.60,507.44 522.34,507.44 525.07,507.44 527.81,507.44 530.55,507.44 533.28,507.44 536.02,507.44 538.76,507.44 541.50,507.44 544.23,507.44 546.97,507.44 549.71,507.44 552.44,507.44 555.18,507.44 557.92,507.44 560.65,507.44 563.39,507.44 566.13,507.44 568.87,507.44 571.60,507.44 574.34,507.44 577.08,507.44 579.81,507.44 582.55,507.44 585.29,507.44 588.02,507.44 590.76,507.44 593.50,507.44 596.23,507.44 598.97,507.44 601.71,507.44 604.45,507.44 607.18,507.44 609.92,507.44" style="stroke-width: 1.71;stroke: #F8766D;stroke-linecap: butt;"/>
<polyline points="65.27,46.28 68.00,46.28 70.74,46.28 73.48,46.28 76.21,46.28 78.95,46.29 81.69,46.29 84.43,46.29 87.16,46.29 89.90,46.30 92.64,46.30 95.37,46.30 98.11,46.31 100.85,46.31 103.58,46.32 106.32,46.32 109.06,46.33 111.79,46.34 114.53,46.34 117.27,46.35 120.01,46.36 122.74,46.37 125.48,46.38 128.22,46.39 130.95,46.41 133.69,46.43 136.43,46.44 139.16,46.47 141.90,46.49 144.64,46.52 147.38,46.55 150.11,46.59 152.85,46.63 155.59,46.68 158.32,46.74 161.06,46.81 163.80,46.88 166.53,46.98 169.27,47.09 172.01,47.22 174.74,47.38 177.48,47.56 180.22,47.79 182.96,48.06 185.69,48.38 188.43,48.78 191.17,49.27 193.90,49.87 196.64,50.61 199.38,51.52 202.11,52.66 204.85,54.08 207.59,55.87 210.32,58.12 213.06,60.96 215.80,64.58 218.54,69.17 221.27,75.01 224.01,82.46 226.75,91.92 229.48,103.89 232.22,118.91 234.96,137.54 237.69,160.21 240.43,187.06 243.17,217.79 245.91,251.40 248.64,286.34 251.38,320.72 254.12,352.79 256.85,381.34 259.59,405.81 262.33,426.17 265.06,442.75 267.80,456.06 270.54,466.63 273.27,474.99 276.01,481.57 278.75,486.75 281.49,490.83 284.22,494.05 286.96,496.60 289.70,498.62 292.43,500.23 295.17,501.51 297.91,502.55 300.64,503.38 303.38,504.06 306.12,504.61 308.86,505.05 311.59,505.42 314.33,505.73 317.07,505.98 319.80,506.19 322.54,506.36 325.28,506.51 328.01,506.63 330.75,506.73 333.49,506.82 336.22,506.90 338.96,506.96 341.70,507.02 344.44,507.06 347.17,507.10 349.91,507.14 352.65,507.17 355.38,507.20 358.12,507.22 360.86,507.24 363.59,507.26 366.33,507.28 369.07,507.29 371.80,507.30 374.54,507.31 377.28,507.32 380.02,507.33 382.75,507.34 385.49,507.35 388.23,507.35 390.96,507.36 393.70,507.36 396.44,507.37 399.17,507.37 401.91,507.38 404.65,507.38 407.39,507.38 410.12,507.39 412.86,507.39 415.60,507.39 418.33,507.40 421.07,507.40 423.81,507.40 426.54,507.40 429.28,507.40 432.02,507.40 434.75,507.41 437.49,507.41 440.23,507.41 442.97,507.41 445.70,507.41 448.44,507.41 451.18,507.41 453.91,507.41 456.65,507.42 459.39,507.42 462.12,507.42 464.86,507.42 467.60,507.42 470.34,507.42 473.07,507.42 475.81,507.42 478.55,507.42 481.28,507.42 484.02,507.42 486.76,507.42 489.49,507.42 492.23,507.42 494.97,507.42 497.70,507.42 500.44,507.43 503.18,507.43 505.92,507.43 508.65,507.43 511.39,507.43 514.13,507.43 516.86,507.43 519.60,507.43 522.34,507.43 525.07,507.43 527.81,507.43 530.55,507.43 533.28,507.43 536.02,507.43 538.76,507.43 541.50,507.43 544.23,507.43 546.97,507.43 549.71,507.43 552.44,507.43 555.18,507.43 557.92,507.43 560.65,507.43 563.39,507.43 566.13,507.43 568.87,507.43 571.60,507.43 574.34,507.43 577.08,507.43 579.81,507.43 582.55,507.43 585.29,507.43 588.02,507.43 590.76,507.44 593.50,507.44 596.23,507.44 598.97,507.44 601.71,507.44 604.45,507.44 607.18,507.44 609.92,507.44" style="stroke-width: 1.71;stroke: #7CAE00;stroke-linecap: butt;"/>
<polyline points="65.27,46.80 68.00,46.86 70.74,46.92 73.48,46.99 76.21,47.06 78.95,47.15 81.69,47.24 84.43,47.34 87.16,47.46 89.90,47.58 92.64,47.72 95.37,47.87 98.11,48.04 100.85,48.23 103.58,48.43 106.32,48.66 109.06,48.91 111.79,49.18 114.53,49.49 117.27,49.82 120.01,50.20 122.74,50.61 125.48,51.06 128.22,51.56 130.95,52.11 133.69,52.72 136.43,53.40 139.16,54.14 141.90,54.96 144.64,55.86 147.38,56.86 150.11,57.97 152.85,59.18 155.59,60.52 158.32,61.99 161.06,63.62 163.80,65.41 166.53,67.37 169.27,69.53 172.01,71.90 174.74,74.51 177.48,77.36 180.22,80.49 182.96,83.91 185.69,87.64 188.43,91.71 191.17,96.14 193.90,100.96 196.64,106.19 199.38,111.84 202.11,117.95 204.85,124.53 207.59,131.59 210.32,139.15 213.06,147.22 215.80,155.80 218.54,164.88 221.27,174.47 224.01,184.53 226.75,195.05 229.48,205.98 232.22,217.30 234.96,228.95 237.69,240.88 240.43,253.01 243.17,265.29 245.91,277.64 248.64,289.99 251.38,302.26 254.12,314.38 256.85,326.29 259.59,337.92 262.33,349.22 265.06,360.13 267.80,370.61 270.54,380.64 273.27,390.18 276.01,399.22 278.75,407.75 281.49,415.77 284.22,423.28 286.96,430.29 289.70,436.82 292.43,442.87 295.17,448.48 297.91,453.65 300.64,458.41 303.38,462.80 306.12,466.82 308.86,470.50 311.59,473.87 314.33,476.95 317.07,479.77 319.80,482.33 322.54,484.66 325.28,486.79 328.01,488.72 330.75,490.47 333.49,492.07 336.22,493.51 338.96,494.82 341.70,496.01 344.44,497.09 347.17,498.07 349.91,498.96 352.65,499.76 355.38,500.48 358.12,501.14 360.86,501.74 363.59,502.28 366.33,502.76 369.07,503.21 371.80,503.60 374.54,503.97 377.28,504.29 380.02,504.59 382.75,504.86 385.49,505.10 388.23,505.32 390.96,505.52 393.70,505.70 396.44,505.86 399.17,506.01 401.91,506.14 404.65,506.27 407.39,506.38 410.12,506.47 412.86,506.56 415.60,506.65 418.33,506.72 421.07,506.79 423.81,506.85 426.54,506.90 429.28,506.95 432.02,507.00 434.75,507.04 437.49,507.08 440.23,507.11 442.97,507.14 445.70,507.17 448.44,507.19 451.18,507.22 453.91,507.24 456.65,507.25 459.39,507.27 462.12,507.29 464.86,507.30 467.60,507.31 470.34,507.33 473.07,507.34 475.81,507.35 478.55,507.35 481.28,507.36 484.02,507.37 486.76,507.38 489.49,507.38 492.23,507.39 494.97,507.39 497.70,507.40 500.44,507.40 503.18,507.41 505.92,507.41 508.65,507.41 511.39,507.41 514.13,507.42 516.86,507.42 519.60,507.42 522.34,507.42 525.07,507.43 527.81,507.43 530.55,507.43 533.28,507.43 536.02,507.43 538.76,507.43 541.50,507.43 544.23,507.43 546.97,507.43 549.71,507.44 552.44,507.44 555.18,507.44 557.92,507.44 560.65,507.44 563.39,507.44 566.13,507.44 568.87,507.44 571.60,507.44 574.34,507.44 577.08,507.44 579.81,507.44 582.55,507.44 585.29,507.44 588.02,507.44 590.76,507.44 593.50,507.44 596.23,507.44 598.97,507.44 601.71,507.44 604.45,507.44 607.18,507.44 609.92,507.44" style="stroke-width: 1.71;stroke: #00BFC4;stroke-linecap: butt;"/>
<polyline points="65.27,47.38 68.00,47.47 70.74,47.56 73.48,47.66 76.21,47.77 78.95,47.89 81.69,48.02 84.43,48.16 87.16,48.31 89.90,48.47 92.64,48.65 95.37,48.84 98.11,49.05 100.85,49.28 103.58,49.52 106.32,49.79 109.06,50.09 111.79,50.40 114.53,50.75 117.27,51.13 120.01,51.54 122.74,51.99 125.48,52.47 128.22,53.01 130.95,53.59 133.69,54.22 136.43,54.91 139.16,55.66 141.90,56.48 144.64,57.38 147.38,58.36 150.11,59.42 152.85,60.59 155.59,61.86 158.32,63.25 161.06,64.77 163.80,66.42 166.53,68.23 169.27,70.20 172.01,72.35 174.74,74.70 177.48,77.25 180.22,80.03 182.96,83.06 185.69,86.36 188.43,89.94 191.17,93.82 193.90,98.04 196.64,102.61 199.38,107.55 202.11,112.88 204.85,118.63 207.59,124.81 210.32,131.45 213.06,138.55 215.80,146.13 218.54,154.20 221.27,162.76 224.01,171.81 226.75,181.33 229.48,191.31 232.22,201.72 234.96,212.53 237.69,223.69 240.43,235.16 243.17,246.87 245.91,258.77 248.64,270.77 251.38,282.82 254.12,294.83 256.85,306.74 259.59,318.47 262.33,329.95 265.06,341.14 267.80,351.97 270.54,362.40 273.27,372.41 276.01,381.95 278.75,391.01 281.49,399.59 284.22,407.68 286.96,415.27 289.70,422.39 292.43,429.03 295.17,435.22 297.91,440.97 300.64,446.31 303.38,451.25 306.12,455.82 308.86,460.03 311.59,463.91 314.33,467.49 317.07,470.78 319.80,473.80 322.54,476.58 325.28,479.13 328.01,481.47 330.75,483.61 333.49,485.57 336.22,487.37 338.96,489.02 341.70,490.53 344.44,491.92 347.17,493.19 349.91,494.35 352.65,495.41 355.38,496.38 358.12,497.27 360.86,498.09 363.59,498.84 366.33,499.53 369.07,500.15 371.80,500.73 374.54,501.26 377.28,501.74 380.02,502.19 382.75,502.60 385.49,502.97 388.23,503.32 390.96,503.63 393.70,503.92 396.44,504.19 399.17,504.44 401.91,504.66 404.65,504.87 407.39,505.06 410.12,505.24 412.86,505.40 415.60,505.55 418.33,505.69 421.07,505.81 423.81,505.93 426.54,506.04 429.28,506.14 432.02,506.23 434.75,506.32 437.49,506.40 440.23,506.47 442.97,506.54 445.70,506.60 448.44,506.66 451.18,506.71 453.91,506.76 456.65,506.81 459.39,506.85 462.12,506.89 464.86,506.92 467.60,506.96 470.34,506.99 473.07,507.02 475.81,507.05 478.55,507.07 481.28,507.10 484.02,507.12 486.76,507.14 489.49,507.16 492.23,507.18 494.97,507.19 497.70,507.21 500.44,507.22 503.18,507.24 505.92,507.25 508.65,507.26 511.39,507.27 514.13,507.28 516.86,507.29 519.60,507.30 522.34,507.31 525.07,507.32 527.81,507.32 530.55,507.33 533.28,507.34 536.02,507.34 538.76,507.35 541.50,507.35 544.23,507.36 546.97,507.36 549.71,507.37 552.44,507.37 555.18,507.38 557.92,507.38 560.65,507.38 563.39,507.39 566.13,507.39 568.87,507.39 571.60,507.39 574.34,507.40 577.08,507.40 579.81,507.40 582.55,507.40 585.29,507.41 588.02,507.41 590.76,507.41 593.50,507.41 596.23,507.41 598.97,507.41 601.71,507.42 604.45,507.42 607.18,507.42 609.92,507.42" style="stroke-width: 1.71;stroke: #C77CFF;stroke-linecap: butt;"/>
</g><g clip-path="url(#c2)">
<g><text x="33.10" y="510.59" text-anchor="end" style="font-family: Arial;font-size: 8.80px;fill: #4D4D4D;" textLength="4.90px" lengthAdjust="spacingAndGlyphs">0</text></g>
<g><text x="33.10" y="395.29" text-anchor="end" style="font-family: Arial;font-size: 8.80px;fill: #4D4D4D;" textLength="9.79px" lengthAdjust="spacingAndGlyphs">25</text></g>
<g><text x="33.10" y="279.99" text-anchor="end" style="font-family: Arial;font-size: 8.80px;fill: #4D4D4D;" textLength="9.79px" lengthAdjust="spacingAndGlyphs">50</text></g>
<g><text x="33.10" y="164.69" text-anchor="end" style="font-family: Arial;font-size: 8.80px;fill: #4D4D4D;" textLength="9.79px" lengthAdjust="spacingAndGlyphs">75</text></g>
<g><text x="33.10" y="49.39" text-anchor="end" style="font-family: Arial;font-size: 8.80px;fill: #4D4D4D;" textLength="14.69px" lengthAdjust="spacingAndGlyphs">100</text></g>
<g><text x="110.78" y="541.74" text-anchor="middle" style="font-family: Arial;font-size: 8.80px;fill: #4D4D4D;" textLength="24.72px" lengthAdjust="spacingAndGlyphs">1e+02</text></g>
<g><text x="261.99" y="541.74" text-anchor="middle" style="font-family: Arial;font-size: 8.80px;fill: #4D4D4D;" textLength="24.72px" lengthAdjust="spacingAndGlyphs">1e+03</text></g>
<g><text x="413.20" y="541.74" text-anchor="middle" style="font-family: Arial;font-size: 8.80px;fill: #4D4D4D;" textLength="24.72px" lengthAdjust="spacingAndGlyphs">1e+04</text></g>
<g><text x="564.40" y="541.74" text-anchor="middle" style="font-family: Arial;font-size: 8.80px;fill: #4D4D4D;" textLength="24.72px" lengthAdjust="spacingAndGlyphs">1e+05</text></g>
<g><text x="337.59" y="554.20" text-anchor="middle" style="font-family: Arial;font-size: 11.00px;" textLength="50.36px" lengthAdjust="spacingAndGlyphs">Dose [M]</text></g>
<g><text transform="translate(13.36,276.84) rotate(-90.00)" text-anchor="middle" style="font-family: Arial;font-size: 11.00px;" textLength="57.87px" lengthAdjust="spacingAndGlyphs">Viability (%)</text></g>
<g><text x="653.59" y="243.48" style="font-family: Arial;font-size: 11.00px;" textLength="74.02px" lengthAdjust="spacingAndGlyphs">Patient / Group</text></g>
<circle cx="662.23" cy="258.76" r="2.06" style="stroke-width: 0.71;stroke: #F8766D;stroke-opacity: 0.70;fill: #F8766D;fill-opacity: 0.70;"/>
<line x1="655.32" y1="258.76" x2="669.14" y2="258.76" style="stroke-width: 1.71;stroke: #F8766D;stroke-linecap: butt;"/>
<circle cx="662.23" cy="276.04" r="2.06" style="stroke-width: 0.71;stroke: #7CAE00;stroke-opacity: 0.70;fill: #7CAE00;fill-opacity: 0.70;"/>
<line x1="655.32" y1="276.04" x2="669.14" y2="276.04" style="stroke-width: 1.71;stroke: #7CAE00;stroke-linecap: butt;"/>
<circle cx="662.23" cy="293.32" r="2.06" style="stroke-width: 0.71;stroke: #00BFC4;stroke-opacity: 0.70;fill: #00BFC4;fill-opacity: 0.70;"/>
<line x1="655.32" y1="293.32" x2="669.14" y2="293.32" style="stroke-width: 1.71;stroke: #00BFC4;stroke-linecap: butt;"/>
<circle cx="662.23" cy="310.60" r="2.06" style="stroke-width: 0.71;stroke: #C77CFF;stroke-opacity: 0.70;fill: #C77CFF;fill-opacity: 0.70;"/>
<line x1="655.32" y1="310.60" x2="669.14" y2="310.60" style="stroke-width: 1.71;stroke: #C77CFF;stroke-linecap: butt;"/>
<g><text x="676.35" y="261.91" style="font-family: Arial;font-size: 8.80px;" textLength="68.00px" lengthAdjust="spacingAndGlyphs">ASC397.ASC397</text></g>
<g><text x="676.35" y="279.19" style="font-family: Arial;font-size: 8.80px;" textLength="81.69px" lengthAdjust="spacingAndGlyphs">ASC397.ASC397cse</text></g>
<g><text x="676.35" y="296.47" style="font-family: Arial;font-size: 8.80px;" textLength="68.00px" lengthAdjust="spacingAndGlyphs">ASC399.ASC399</text></g>
<g><text x="676.35" y="313.75" style="font-family: Arial;font-size: 8.80px;" textLength="81.69px" lengthAdjust="spacingAndGlyphs">ASC399.ASC399cse</text></g>
<g><text x="38.03" y="14.93" style="font-family: Arial;font-size: 13.20px;" textLength="241.21px" lengthAdjust="spacingAndGlyphs">KBrO3_SFN across patients &amp; conditions</text></g>
</g>
</svg>