<svg xmlns="http://www.w3.org/2000/svg" xmlns:xlink="http://www.w3.org/1999/xlink" class="httpgd" width="769.00" height="562.00" viewBox="0 0 769.00 562.00">
<defs>
  <style type='text/css'><![CDATA[
    .httpgd line, .httpgd polyline, .httpgd polygon, .httpgd path, .httpgd rect, .httpgd circle {
      fill: none;
      stroke: #000000;
      stroke-linecap: round;
      stroke-linejoin: round;
      stroke-miterlimit: 10.00;
    }
  ]]></style>
<clipPath id="c0"><rect x="0.00" y="0.00" width="769.00" height="562.00"/></clipPath>
<clipPath id="c1"><rect x="38.03" y="23.18" width="599.12" height="507.33"/></clipPath>
<clipPath id="c2"><rect x="0.00" y="0.00" width="769.00" height="562.00"/></clipPath>
</defs>
<rect width="100%" height="100%" style="stroke: none;fill: #FFFFFF;"/>
<g clip-path="url(#c0)">
</g><g clip-path="url(#c1)">
<polyline points="38.03,507.44 637.15,507.44" style="stroke-width: 1.07;stroke: #EBEBEB;stroke-linecap: butt;"/>
<polyline points="38.03,392.14 637.15,392.14" style="stroke-width: 1.07;stroke: #EBEBEB;stroke-linecap: butt;"/>
<polyline points="38.03,276.84 637.15,276.84" style="stroke-width: 1.07;stroke: #EBEBEB;stroke-linecap: butt;"/>
<polyline points="38.03,161.54 637.15,161.54" style="stroke-width: 1.07;stroke: #EBEBEB;stroke-linecap: butt;"/>
<polyline points="38.03,46.24 637.15,46.24" style="stroke-width: 1.07;stroke: #EBEBEB;stroke-linecap: butt;"/>
<polyline points="59.92,530.50 59.92,23.18" style="stroke-width: 1.07;stroke: #EBEBEB;stroke-linecap: butt;"/>
<polyline points="217.59,530.50 217.59,23.18" style="stroke-width: 1.07;stroke: #EBEBEB;stroke-linecap: butt;"/>
<polyline points="361.47,530.50 361.47,23.18" style="stroke-width: 1.07;stroke: #EBEBEB;stroke-linecap: butt;"/>
<polyline points="519.14,530.50 519.14,23.18" style="stroke-width: 1.07;stroke: #EBEBEB;stroke-linecap: butt;"/>
<polygon points="65.27,51.62 68.00,51.62 70.74,51.62 73.48,51.62 76.21,51.62 78.95,51.62 81.69,51.62 84.43,51.62 87.16,51.62 89.90,51.62 92.64,51.62 95.37,51.62 98.11,51.62 100.85,51.62 103.58,51.62 106.32,51.62 109.06,51.62 111.79,51.62 114.53,51.62 117.27,51.62 120.01,51.62 122.74,51.62 125.48,51.62 128.22,51.63 130.95,51.64 133.69,51.65 136.43,51.66 139.16,51.67 141.90,51.68 144.64,51.68 147.38,51.68 150.11,51.68 152.85,51.68 155.59,51.68 158.32,51.68 161.06,51.68 163.80,51.68 166.53,51.68 169.27,51.68 172.01,51.68 174.74,51.68 177.48,51.68 180.22,51.68 182.96,51.70 185.69,51.76 188.43,51.76 191.17,51.76 193.90,51.76 196.64,51.76 199.38,51.76 202.11,51.76 204.85,51.76 207.59,51.76 210.32,51.76 213.06,51.76 215.80,51.76 218.54,51.76 221.27,51.76 224.01,51.84 226.75,51.84 229.48,51.84 232.22,51.84 234.96,51.84 237.69,51.84 240.43,51.84 243.17,51.84 245.91,51.84 248.64,51.84 251.38,51.84 254.12,51.84 256.85,51.84 259.59,51.84 262.33,51.84 265.06,51.84 267.80,51.84 270.54,51.84 273.27,51.84 276.01,51.84 278.75,51.84 281.49,51.84 284.22,51.84 286.96,51.84 289.70,51.84 292.43,51.84 295.17,51.84 297.91,51.84 300.64,51.84 303.38,51.84 306.12,51.84 308.86,51.84 311.59,51.84 314.33,51.85 317.07,51.87 319.80,51.89 322.54,51.89 325.28,51.89 328.01,51.90 330.75,51.90 333.49,51.92 336.22,51.93 338.96,51.95 341.70,51.97 344.44,51.99 347.17,52.00 349.91,52.01 352.65,52.05 355.38,52.07 358.12,52.07 360.86,52.07 363.59,52.07 366.33,52.07 369.07,52.07 371.80,52.07 374.54,52.08 377.28,52.08 380.02,52.08 382.75,52.08 385.49,52.09 388.23,52.09 390.96,52.10 393.70,52.11 396.44,52.11 399.17,52.16 401.91,52.17 404.65,52.17 407.39,52.18 410.12,52.21 412.86,52.26 415.60,52.37 418.33,52.44 421.07,52.45 423.81,52.46 426.54,52.47 429.28,52.51 432.02,52.63 434.75,52.72 437.49,52.72 440.23,52.74 442.97,52.77 445.70,52.79 448.44,52.94 451.18,53.12 453.91,53.25 456.65,53.46 459.39,53.82 462.12,54.25 464.86,54.67 467.60,54.99 470.34,55.35 473.07,55.75 475.81,56.12 478.55,56.84 481.28,57.89 484.02,58.74 486.76,59.77 489.49,60.98 492.23,62.19 494.97,63.67 497.70,65.88 500.44,67.90 503.18,70.21 505.92,72.94 508.65,75.97 511.39,79.37 514.13,83.48 516.86,87.28 519.60,91.75 522.34,98.20 525.07,105.62 527.81,113.10 530.55,122.20 533.28,132.00 536.02,141.79 538.76,154.94 541.50,167.32 544.23,181.65 546.97,197.49 549.71,211.50 552.44,226.36 555.18,238.26 557.92,249.94 560.65,260.76 563.39,268.56 566.13,276.09 568.87,282.35 571.60,287.20 574.34,290.75 577.08,293.81 579.81,296.90 582.55,299.87 585.29,302.05 588.02,305.11 590.76,307.99 593.50,310.93 596.23,313.33 598.97,316.19 601.71,318.59 604.45,320.44 607.18,322.41 609.92,324.94 609.92,507.44 607.18,507.44 604.45,507.44 601.71,507.44 598.97,507.44 596.23,507.44 593.50,507.44 590.76,507.44 588.02,507.44 585.29,507.44 582.55,507.44 579.81,507.44 577.08,507.44 574.34,507.44 571.60,507.44 568.87,507.44 566.13,507.44 563.39,507.44 560.65,507.44 557.92,507.44 555.18,507.44 552.44,507.44 549.71,507.44 546.97,507.44 544.23,507.44 541.50,507.44 538.76,507.44 536.02,507.44 533.28,507.44 530.55,507.44 527.81,507.44 525.07,507.44 522.34,507.44 519.60,507.44 516.86,507.44 514.13,507.44 511.39,507.43 508.65,507.42 505.92,507.41 503.18,507.37 500.44,507.30 497.70,507.16 494.97,506.89 492.23,506.34 489.49,505.23 486.76,503.01 484.02,498.61 481.28,490.00 478.55,473.34 475.81,444.57 473.07,402.73 470.34,353.19 467.60,297.00 464.86,275.30 462.12,269.70 459.39,256.37 456.65,241.67 453.91,238.59 451.18,232.12 448.44,226.45 445.70,221.16 442.97,217.11 440.23,215.57 437.49,208.76 434.75,206.31 432.02,203.83 429.28,202.29 426.54,191.15 423.81,188.57 421.07,186.86 418.33,183.81 415.60,182.14 412.86,178.39 410.12,175.41 407.39,172.99 404.65,171.43 401.91,169.89 399.17,168.37 396.44,166.58 393.70,164.30 390.96,162.83 388.23,161.37 385.49,158.69 382.75,157.24 380.02,155.81 377.28,154.39 374.54,152.99 371.80,151.60 369.07,150.23 366.33,148.88 363.59,147.54 360.86,146.22 358.12,144.91 355.38,143.62 352.65,142.35 349.91,141.09 347.17,139.85 344.44,138.63 341.70,137.42 338.96,136.23 336.22,135.07 333.49,133.95 330.75,132.86 328.01,130.51 325.28,129.38 322.54,128.25 319.80,127.15 317.07,126.06 314.33,125.00 311.59,124.22 308.86,123.45 306.12,122.58 303.38,121.74 300.64,120.91 297.91,118.83 295.17,117.86 292.43,116.90 289.70,115.95 286.96,115.02 284.22,114.10 281.49,113.19 278.75,112.54 276.01,112.28 273.27,112.02 270.54,111.51 267.80,110.99 265.06,110.47 262.33,109.79 259.59,109.51 256.85,109.24 254.12,108.79 251.38,108.24 248.64,107.50 245.91,106.76 243.17,106.54 240.43,106.33 237.69,105.92 234.96,105.68 232.22,105.68 229.48,105.52 226.75,105.06 224.01,104.57 221.27,104.35 218.54,104.16 215.80,103.85 213.06,103.30 210.32,102.77 207.59,102.25 204.85,101.73 202.11,101.33 199.38,101.18 196.64,100.78 193.90,100.68 191.17,100.68 188.43,100.68 185.69,100.68 182.96,100.68 180.22,100.67 177.48,100.56 174.74,100.56 172.01,100.56 169.27,100.56 166.53,100.53 163.80,100.32 161.06,100.10 158.32,100.07 155.59,100.07 152.85,100.07 150.11,100.07 147.38,100.07 144.64,100.07 141.90,100.07 139.16,99.96 136.43,99.83 133.69,99.83 130.95,99.67 128.22,99.64 125.48,99.64 122.74,99.64 120.01,99.64 117.27,99.64 114.53,99.64 111.79,99.64 109.06,99.64 106.32,99.64 103.58,99.64 100.85,99.64 98.11,99.61 95.37,99.53 92.64,99.53 89.90,99.53 87.16,99.53 84.43,99.53 81.69,99.53 78.95,99.53 76.21,99.53 73.48,99.53 70.74,99.47 68.00,99.38 65.27,99.34" style="stroke-width: 0.00;stroke: none;stroke-linecap: butt;fill: #F8766D;fill-opacity: 0.20;" />
<polyline points="65.27,51.62 68.00,51.62 70.74,51.62 73.48,51.62 76.21,51.62 78.95,51.62 81.69,51.62 84.43,51.62 87.16,51.62 89.90,51.62 92.64,51.62 95.37,51.62 98.11,51.62 100.85,51.62 103.58,51.62 106.32,51.62 109.06,51.62 111.79,51.62 114.53,51.62 117.27,51.62 120.01,51.62 122.74,51.62 125.48,51.62 128.22,51.63 130.95,51.64 133.69,51.65 136.43,51.66 139.16,51.67 141.90,51.68 144.64,51.68 147.38,51.68 150.11,51.68 152.85,51.68 155.59,51.68 158.32,51.68 161.06,51.68 163.80,51.68 166.53,51.68 169.27,51.68 172.01,51.68 174.74,51.68 177.48,51.68 180.22,51.68 182.96,51.70 185.69,51.76 188.43,51.76 191.17,51.76 193.90,51.76 196.64,51.76 199.38,51.76 202.11,51.76 204.85,51.76 207.59,51.76 210.32,51.76 213.06,51.76 215.80,51.76 218.54,51.76 221.27,51.76 224.01,51.84 226.75,51.84 229.48,51.84 232.22,51.84 234.96,51.84 237.69,51.84 240.43,51.84 243.17,51.84 245.91,51.84 248.64,51.84 251.38,51.84 254.12,51.84 256.85,51.84 259.59,51.84 262.33,51.84 265.06,51.84 267.80,51.84 270.54,51.84 273.27,51.84 276.01,51.84 278.75,51.84 281.49,51.84 284.22,51.84 286.96,51.84 289.70,51.84 292.43,51.84 295.17,51.84 297.91,51.84 300.64,51.84 303.38,51.84 306.12,51.84 308.86,51.84 311.59,51.84 314.33,51.85 317.07,51.87 319.80,51.89 322.54,51.89 325.28,51.89 328.01,51.90 330.75,51.90 333.49,51.92 336.22,51.93 338.96,51.95 341.70,51.97 344.44,51.99 347.17,52.00 349.91,52.01 352.65,52.05 355.38,52.07 358.12,52.07 360.86,52.07 363.59,52.07 366.33,52.07 369.07,52.07 371.80,52.07 374.54,52.08 377.28,52.08 380.02,52.08 382.75,52.08 385.49,52.09 388.23,52.09 390.96,52.10 393.70,52.11 396.44,52.11 399.17,52.16 401.91,52.17 404.65,52.17 407.39,52.18 410.12,52.21 412.86,52.26 415.60,52.37 418.33,52.44 421.07,52.45 423.81,52.46 426.54,52.47 429.28,52.51 432.02,52.63 434.75,52.72 437.49,52.72 440.23,52.74 442.97,52.77 445.70,52.79 448.44,52.94 451.18,53.12 453.91,53.25 456.65,53.46 459.39,53.82 462.12,54.25 464.86,54.67 467.60,54.99 470.34,55.35 473.07,55.75 475.81,56.12 478.55,56.84 481.28,57.89 484.02,58.74 486.76,59.77 489.49,60.98 492.23,62.19 494.97,63.67 497.70,65.88 500.44,67.90 503.18,70.21 505.92,72.94 508.65,75.97 511.39,79.37 514.13,83.48 516.86,87.28 519.60,91.75 522.34,98.20 525.07,105.62 527.81,113.10 530.55,122.20 533.28,132.00 536.02,141.79 538.76,154.94 541.50,167.32 544.23,181.65 546.97,197.49 549.71,211.50 552.44,226.36 555.18,238.26 557.92,249.94 560.65,260.76 563.39,268.56 566.13,276.09 568.87,282.35 571.60,287.20 574.34,290.75 577.08,293.81 579.81,296.90 582.55,299.87 585.29,302.05 588.02,305.11 590.76,307.99 593.50,310.93 596.23,313.33 598.97,316.19 601.71,318.59 604.45,320.44 607.18,322.41 609.92,324.94" style="stroke-width: 1.07;stroke: none;stroke-linecap: butt;"/>
<polyline points="609.92,507.44 607.18,507.44 604.45,507.44 601.71,507.44 598.97,507.44 596.23,507.44 593.50,507.44 590.76,507.44 588.02,507.44 585.29,507.44 582.55,507.44 579.81,507.44 577.08,507.44 574.34,507.44 571.60,507.44 568.87,507.44 566.13,507.44 563.39,507.44 560.65,507.44 557.92,507.44 555.18,507.44 552.44,507.44 549.71,507.44 546.97,507.44 544.23,507.44 541.50,507.44 538.76,507.44 536.02,507.44 533.28,507.44 530.55,507.44 527.81,507.44 525.07,507.44 522.34,507.44 519.60,507.44 516.86,507.44 514.13,507.44 511.39,507.43 508.65,507.42 505.92,507.41 503.18,507.37 500.44,507.30 497.70,507.16 494.97,506.89 492.23,506.34 489.49,505.23 486.76,503.01 484.02,498.61 481.28,490.00 478.55,473.34 475.81,444.57 473.07,402.73 470.34,353.19 467.60,297.00 464.86,275.30 462.12,269.70 459.39,256.37 456.65,241.67 453.91,238.59 451.18,232.12 448.44,226.45 445.70,221.16 442.97,217.11 440.23,215.57 437.49,208.76 434.75,206.31 432.02,203.83 429.28,202.29 426.54,191.15 423.81,188.57 421.07,186.86 418.33,183.81 415.60,182.14 412.86,178.39 410.12,175.41 407.39,172.99 404.65,171.43 401.91,169.89 399.17,168.37 396.44,166.58 393.70,164.30 390.96,162.83 388.23,161.37 385.49,158.69 382.75,157.24 380.02,155.81 377.28,154.39 374.54,152.99 371.80,151.60 369.07,150.23 366.33,148.88 363.59,147.54 360.86,146.22 358.12,144.91 355.38,143.62 352.65,142.35 349.91,141.09 347.17,139.85 344.44,138.63 341.70,137.42 338.96,136.23 336.22,135.07 333.49,133.95 330.75,132.86 328.01,130.51 325.28,129.38 322.54,128.25 319.80,127.15 317.07,126.06 314.33,125.00 311.59,124.22 308.86,123.45 306.12,122.58 303.38,121.74 300.64,120.91 297.91,118.83 295.17,117.86 292.43,116.90 289.70,115.95 286.96,115.02 284.22,114.10 281.49,113.19 278.75,112.54 276.01,112.28 273.27,112.02 270.54,111.51 267.80,110.99 265.06,110.47 262.33,109.79 259.59,109.51 256.85,109.24 254.12,108.79 251.38,108.24 248.64,107.50 245.91,106.76 243.17,106.54 240.43,106.33 237.69,105.92 234.96,105.68 232.22,105.68 229.48,105.52 226.75,105.06 224.01,104.57 221.27,104.35 218.54,104.16 215.80,103.85 213.06,103.30 210.32,102.77 207.59,102.25 204.85,101.73 202.11,101.33 199.38,101.18 196.64,100.78 193.90,100.68 191.17,100.68 188.43,100.68 185.69,100.68 182.96,100.68 180.22,100.67 177.48,100.56 174.74,100.56 172.01,100.56 169.27,100.56 166.53,100.53 163.80,100.32 161.06,100.10 158.32,100.07 155.59,100.07 152.85,100.07 150.11,100.07 147.38,100.07 144.64,100.07 141.90,100.07 139.16,99.96 136.43,99.83 133.69,99.83 130.95,99.67 128.22,99.64 125.48,99.64 122.74,99.64 120.01,99.64 117.27,99.64 114.53,99.64 111.79,99.64 109.06,99.64 106.32,99.64 103.58,99.64 100.85,99.64 98.11,99.61 95.37,99.53 92.64,99.53 89.90,99.53 87.16,99.53 84.43,99.53 81.69,99.53 78.95,99.53 76.21,99.53 73.48,99.53 70.74,99.47 68.00,99.38 65.27,99.34" style="stroke-width: 1.07;stroke: none;stroke-linecap: butt;"/>
<polygon points="65.27,46.24 68.00,46.24 70.74,46.24 73.48,46.24 76.21,46.24 78.95,46.24 81.69,46.24 84.43,46.24 87.16,46.24 89.90,46.24 92.64,46.24 95.37,46.24 98.11,46.24 100.85,46.24 103.58,46.24 106.32,46.24 109.06,46.24 111.79,46.24 114.53,46.24 117.27,46.24 120.01,46.24 122.74,46.24 125.48,46.24 128.22,46.24 130.95,46.24 133.69,46.24 136.43,46.24 139.16,46.24 141.90,46.24 144.64,46.24 147.38,46.24 150.11,46.24 152.85,46.24 155.59,46.24 158.32,46.24 161.06,46.24 163.80,46.24 166.53,46.24 169.27,46.24 172.01,46.24 174.74,46.24 177.48,46.24 180.22,46.24 182.96,46.24 185.69,46.24 188.43,46.24 191.17,46.24 193.90,46.24 196.64,46.24 199.38,46.24 202.11,46.24 204.85,46.24 207.59,46.24 210.32,46.24 213.06,46.24 215.80,46.24 218.54,46.24 221.27,46.24 224.01,46.24 226.75,46.24 229.48,46.24 232.22,46.24 234.96,46.24 237.69,46.24 240.43,46.24 243.17,46.24 245.91,46.24 248.64,46.24 251.38,46.24 254.12,46.24 256.85,46.24 259.59,46.24 262.33,46.24 265.06,46.24 267.80,46.24 270.54,46.24 273.27,46.24 276.01,46.24 278.75,46.24 281.49,46.24 284.22,46.24 286.96,46.24 289.70,46.24 292.43,46.24 295.17,46.24 297.91,46.24 300.64,46.24 303.38,46.24 306.12,46.24 308.86,46.24 311.59,46.24 314.33,46.24 317.07,46.24 319.80,46.24 322.54,46.24 325.28,46.24 328.01,46.24 330.75,46.24 333.49,46.24 336.22,46.24 338.96,46.24 341.70,46.24 344.44,46.24 347.17,46.24 349.91,46.24 352.65,46.24 355.38,46.24 358.12,46.24 360.86,46.24 363.59,46.24 366.33,46.24 369.07,46.24 371.80,46.24 374.54,46.24 377.28,46.24 380.02,46.24 382.75,46.24 385.49,46.24 388.23,46.24 390.96,46.24 393.70,46.24 396.44,46.24 399.17,46.24 401.91,46.24 404.65,46.24 407.39,46.24 410.12,46.24 412.86,46.24 415.60,46.24 418.33,46.24 421.07,46.24 423.81,46.24 426.54,46.24 429.28,46.25 432.02,46.25 434.75,46.25 437.49,46.25 440.23,46.26 442.97,46.26 445.70,46.27 448.44,46.28 451.18,46.29 453.91,46.30 456.65,46.31 459.39,46.33 462.12,46.36 464.86,46.39 467.60,46.42 470.34,46.47 473.07,46.53 475.81,46.60 478.55,46.69 481.28,46.81 484.02,46.95 486.76,47.13 489.49,47.35 492.23,47.64 494.97,47.99 497.70,48.43 500.44,48.99 503.18,49.67 505.92,50.52 508.65,51.60 511.39,52.90 514.13,54.54 516.86,56.58 519.60,59.10 522.34,62.16 525.07,65.90 527.81,70.50 530.55,76.05 533.28,82.74 536.02,90.75 538.76,100.30 541.50,111.47 544.23,124.58 546.97,139.55 549.71,156.67 552.44,176.04 555.18,197.14 557.92,219.46 560.65,242.94 563.39,267.36 566.13,291.71 568.87,315.52 571.60,338.57 574.34,359.92 577.08,380.17 579.81,398.27 582.55,414.38 585.29,428.82 588.02,441.40 590.76,452.26 593.50,461.42 596.23,469.33 598.97,475.90 601.71,481.35 604.45,485.93 607.18,489.75 609.92,492.96 609.92,500.23 607.18,498.43 604.45,496.20 601.71,493.44 598.97,490.03 596.23,485.81 593.50,480.67 590.76,474.47 588.02,466.93 585.29,457.85 582.55,447.05 579.81,434.27 577.08,419.33 574.34,402.51 571.60,383.45 568.87,362.50 566.13,339.67 563.39,315.46 560.65,290.48 557.92,265.31 555.18,240.43 552.44,216.50 549.71,193.81 546.97,172.80 544.23,154.18 541.50,137.51 538.76,123.04 536.02,110.24 533.28,99.55 530.55,90.40 527.81,82.84 525.07,76.43 522.34,71.08 519.60,66.63 516.86,62.95 514.13,59.89 511.39,57.42 508.65,55.38 505.92,53.71 503.18,52.35 500.44,51.22 497.70,50.30 494.97,49.56 492.23,48.94 489.49,48.45 486.76,48.04 484.02,47.71 481.28,47.44 478.55,47.22 475.81,47.04 473.07,46.89 470.34,46.77 467.60,46.67 464.86,46.59 462.12,46.53 459.39,46.47 456.65,46.43 453.91,46.39 451.18,46.37 448.44,46.34 445.70,46.32 442.97,46.31 440.23,46.29 437.49,46.28 434.75,46.28 432.02,46.27 429.28,46.26 426.54,46.26 423.81,46.25 421.07,46.25 418.33,46.25 415.60,46.25 412.86,46.25 410.12,46.24 407.39,46.24 404.65,46.24 401.91,46.24 399.17,46.24 396.44,46.24 393.70,46.24 390.96,46.24 388.23,46.24 385.49,46.24 382.75,46.24 380.02,46.24 377.28,46.24 374.54,46.24 371.80,46.24 369.07,46.24 366.33,46.24 363.59,46.24 360.86,46.24 358.12,46.24 355.38,46.24 352.65,46.24 349.91,46.24 347.17,46.24 344.44,46.24 341.70,46.24 338.96,46.24 336.22,46.24 333.49,46.24 330.75,46.24 328.01,46.24 325.28,46.24 322.54,46.24 319.80,46.24 317.07,46.24 314.33,46.24 311.59,46.24 308.86,46.24 306.12,46.24 303.38,46.24 300.64,46.24 297.91,46.24 295.17,46.24 292.43,46.24 289.70,46.24 286.96,46.24 284.22,46.24 281.49,46.24 278.75,46.24 276.01,46.24 273.27,46.24 270.54,46.24 267.80,46.24 265.06,46.24 262.33,46.24 259.59,46.24 256.85,46.24 254.12,46.24 251.38,46.24 248.64,46.24 245.91,46.24 243.17,46.24 240.43,46.24 237.69,46.24 234.96,46.24 232.22,46.24 229.48,46.24 226.75,46.24 224.01,46.24 221.27,46.24 218.54,46.24 215.80,46.24 213.06,46.24 210.32,46.24 207.59,46.24 204.85,46.24 202.11,46.24 199.38,46.24 196.64,46.24 193.90,46.24 191.17,46.24 188.43,46.24 185.69,46.24 182.96,46.24 180.22,46.24 177.48,46.24 174.74,46.24 172.01,46.24 169.27,46.24 166.53,46.24 163.80,46.24 161.06,46.24 158.32,46.24 155.59,46.24 152.85,46.24 150.11,46.24 147.38,46.24 144.64,46.24 141.90,46.24 139.16,46.24 136.43,46.24 133.69,46.24 130.95,46.24 128.22,46.24 125.48,46.24 122.74,46.24 120.01,46.24 117.27,46.24 114.53,46.24 111.79,46.24 109.06,46.24 106.32,46.24 103.58,46.24 100.85,46.24 98.11,46.24 95.37,46.24 92.64,46.24 89.90,46.24 87.16,46.24 84.43,46.24 81.69,46.24 78.95,46.24 76.21,46.24 73.48,46.24 70.74,46.24 68.00,46.24 65.27,46.24" style="stroke-width: 0.00;stroke: none;stroke-linecap: butt;fill: #7CAE00;fill-opacity: 0.20;" />
<polyline points="65.27,46.24 68.00,46.24 70.74,46.24 73.48,46.24 76.21,46.24 78.95,46.24 81.69,46.24 84.43,46.24 87.16,46.24 89.90,46.24 92.64,46.24 95.37,46.24 98.11,46.24 100.85,46.24 103.58,46.24 106.32,46.24 109.06,46.24 111.79,46.24 114.53,46.24 117.27,46.24 120.01,46.24 122.74,46.24 125.48,46.24 128.22,46.24 130.95,46.24 133.69,46.24 136.43,46.24 139.16,46.24 141.90,46.24 144.64,46.24 147.38,46.24 150.11,46.24 152.85,46.24 155.59,46.24 158.32,46.24 161.06,46.24 163.80,46.24 166.53,46.24 169.27,46.24 172.01,46.24 174.74,46.24 177.48,46.24 180.22,46.24 182.96,46.24 185.69,46.24 188.43,46.24 191.17,46.24 193.90,46.24 196.64,46.24 199.38,46.24 202.11,46.24 204.85,46.24 207.59,46.24 210.32,46.24 213.06,46.24 215.80,46.24 218.54,46.24 221.27,46.24 224.01,46.24 226.75,46.24 229.48,46.24 232.22,46.24 234.96,46.24 237.69,46.24 240.43,46.24 243.17,46.24 245.91,46.24 248.64,46.24 251.38,46.24 254.12,46.24 256.85,46.24 259.59,46.24 262.33,46.24 265.06,46.24 267.80,46.24 270.54,46.24 273.27,46.24 276.01,46.24 278.75,46.24 281.49,46.24 284.22,46.24 286.96,46.24 289.70,46.24 292.43,46.24 295.17,46.24 297.91,46.24 300.64,46.24 303.38,46.24 306.12,46.24 308.86,46.24 311.59,46.24 314.33,46.24 317.07,46.24 319.80,46.24 322.54,46.24 325.28,46.24 328.01,46.24 330.75,46.24 333.49,46.24 336.22,46.24 338.96,46.24 341.70,46.24 344.44,46.24 347.17,46.24 349.91,46.24 352.65,46.24 355.38,46.24 358.12,46.24 360.86,46.24 363.59,46.24 366.33,46.24 369.07,46.24 371.80,46.24 374.54,46.24 377.28,46.24 380.02,46.24 382.75,46.24 385.49,46.24 388.23,46.24 390.96,46.24 393.70,46.24 396.44,46.24 399.17,46.24 401.91,46.24 404.65,46.24 407.39,46.24 410.12,46.24 412.86,46.24 415.60,46.24 418.33,46.24 421.07,46.24 423.81,46.24 426.54,46.24 429.28,46.25 432.02,46.25 434.75,46.25 437.49,46.25 440.23,46.26 442.97,46.26 445.70,46.27 448.44,46.28 451.18,46.29 453.91,46.30 456.65,46.31 459.39,46.33 462.12,46.36 464.86,46.39 467.60,46.42 470.34,46.47 473.07,46.53 475.81,46.60 478.55,46.69 481.28,46.81 484.02,46.95 486.76,47.13 489.49,47.35 492.23,47.64 494.97,47.99 497.70,48.43 500.44,48.99 503.18,49.67 505.92,50.52 508.65,51.60 511.39,52.90 514.13,54.54 516.86,56.58 519.60,59.10 522.34,62.16 525.07,65.90 527.81,70.50 530.55,76.05 533.28,82.74 536.02,90.75 538.76,100.30 541.50,111.47 544.23,124.58 546.97,139.55 549.71,156.67 552.44,176.04 555.18,197.14 557.92,219.46 560.65,242.94 563.39,267.36 566.13,291.71 568.87,315.52 571.60,338.57 574.34,359.92 577.08,380.17 579.81,398.27 582.55,414.38 585.29,428.82 588.02,441.40 590.76,452.26 593.50,461.42 596.23,469.33 598.97,475.90 601.71,481.35 604.45,485.93 607.18,489.75 609.92,492.96" style="stroke-width: 1.07;stroke: none;stroke-linecap: butt;"/>
<polyline points="609.92,500.23 607.18,498.43 604.45,496.20 601.71,493.44 598.97,490.03 596.23,485.81 593.50,480.67 590.76,474.47 588.02,466.93 585.29,457.85 582.55,447.05 579.81,434.27 577.08,419.33 574.34,402.51 571.60,383.45 568.87,362.50 566.13,339.67 563.39,315.46 560.65,290.48 557.92,265.31 555.18,240.43 552.44,216.50 549.71,193.81 546.97,172.80 544.23,154.18 541.50,137.51 538.76,123.04 536.02,110.24 533.28,99.55 530.55,90.40 527.81,82.84 525.07,76.43 522.34,71.08 519.60,66.63 516.86,62.95 514.13,59.89 511.39,57.42 508.65,55.38 505.92,53.71 503.18,52.35 500.44,51.22 497.70,50.30 494.97,49.56 492.23,48.94 489.49,48.45 486.76,48.04 484.02,47.71 481.28,47.44 478.55,47.22 475.81,47.04 473.07,46.89 470.34,46.77 467.60,46.67 464.86,46.59 462.12,46.53 459.39,46.47 456.65,46.43 453.91,46.39 451.18,46.37 448.44,46.34 445.70,46.32 442.97,46.31 440.23,46.29 437.49,46.28 434.75,46.28 432.02,46.27 429.28,46.26 426.54,46.26 423.81,46.25 421.07,46.25 418.33,46.25 415.60,46.25 412.86,46.25 410.12,46.24 407.39,46.24 404.65,46.24 401.91,46.24 399.17,46.24 396.44,46.24 393.70,46.24 390.96,46.24 388.23,46.24 385.49,46.24 382.75,46.24 380.02,46.24 377.28,46.24 374.54,46.24 371.80,46.24 369.07,46.24 366.33,46.24 363.59,46.24 360.86,46.24 358.12,46.24 355.38,46.24 352.65,46.24 349.91,46.24 347.17,46.24 344.44,46.24 341.70,46.24 338.96,46.24 336.22,46.24 333.49,46.24 330.75,46.24 328.01,46.24 325.28,46.24 322.54,46.24 319.80,46.24 317.07,46.24 314.33,46.24 311.59,46.24 308.86,46.24 306.12,46.24 303.38,46.24 300.64,46.24 297.91,46.24 295.17,46.24 292.43,46.24 289.70,46.24 286.96,46.24 284.22,46.24 281.49,46.24 278.75,46.24 276.01,46.24 273.27,46.24 270.54,46.24 267.80,46.24 265.06,46.24 262.33,46.24 259.59,46.24 256.85,46.24 254.12,46.24 251.38,46.24 248.64,46.24 245.91,46.24 243.17,46.24 240.43,46.24 237.69,46.24 234.96,46.24 232.22,46.24 229.48,46.24 226.75,46.24 224.01,46.24 221.27,46.24 218.54,46.24 215.80,46.24 213.06,46.24 210.32,46.24 207.59,46.24 204.85,46.24 202.11,46.24 199.38,46.24 196.64,46.24 193.90,46.24 191.17,46.24 188.43,46.24 185.69,46.24 182.96,46.24 180.22,46.24 177.48,46.24 174.74,46.24 172.01,46.24 169.27,46.24 166.53,46.24 163.80,46.24 161.06,46.24 158.32,46.24 155.59,46.24 152.85,46.24 150.11,46.24 147.38,46.24 144.64,46.24 141.90,46.24 139.16,46.24 136.43,46.24 133.69,46.24 130.95,46.24 128.22,46.24 125.48,46.24 122.74,46.24 120.01,46.24 117.27,46.24 114.53,46.24 111.79,46.24 109.06,46.24 106.32,46.24 103.58,46.24 100.85,46.24 98.11,46.24 95.37,46.24 92.64,46.24 89.90,46.24 87.16,46.24 84.43,46.24 81.69,46.24 78.95,46.24 76.21,46.24 73.48,46.24 70.74,46.24 68.00,46.24 65.27,46.24" style="stroke-width: 1.07;stroke: none;stroke-linecap: butt;"/>
<polygon points="65.27,46.55 68.00,46.55 70.74,46.55 73.48,46.55 76.21,46.55 78.95,46.55 81.69,46.55 84.43,46.55 87.16,46.55 89.90,46.55 92.64,46.55 95.37,46.55 98.11,46.55 100.85,46.55 103.58,46.55 106.32,46.55 109.06,46.55 111.79,46.55 114.53,46.55 117.27,46.55 120.01,46.55 122.74,46.55 125.48,46.55 128.22,46.55 130.95,46.55 133.69,46.55 136.43,46.55 139.16,46.55 141.90,46.55 144.64,46.55 147.38,46.55 150.11,46.55 152.85,46.55 155.59,46.55 158.32,46.55 161.06,46.55 163.80,46.55 166.53,46.55 169.27,46.55 172.01,46.55 174.74,46.55 177.48,46.55 180.22,46.55 182.96,46.55 185.69,46.55 188.43,46.55 191.17,46.55 193.90,46.55 196.64,46.55 199.38,46.55 202.11,46.55 204.85,46.55 207.59,46.55 210.32,46.55 213.06,46.55 215.80,46.55 218.54,46.55 221.27,46.55 224.01,46.55 226.75,46.55 229.48,46.55 232.22,46.55 234.96,46.55 237.69,46.55 240.43,46.55 243.17,46.55 245.91,46.55 248.64,46.55 251.38,46.55 254.12,46.55 256.85,46.55 259.59,46.55 262.33,46.55 265.06,46.55 267.80,46.55 270.54,46.55 273.27,46.55 276.01,46.55 278.75,46.55 281.49,46.55 284.22,46.55 286.96,46.55 289.70,46.55 292.43,46.55 295.17,46.55 297.91,46.55 300.64,46.55 303.38,46.55 306.12,46.55 308.86,46.55 311.59,46.55 314.33,46.55 317.07,46.55 319.80,46.55 322.54,46.55 325.28,46.55 328.01,46.55 330.75,46.55 333.49,46.55 336.22,46.55 338.96,46.55 341.70,46.55 344.44,46.55 347.17,46.55 349.91,46.55 352.65,46.55 355.38,46.55 358.12,46.55 360.86,46.56 363.59,46.56 366.33,46.56 369.07,46.56 371.80,46.56 374.54,46.56 377.28,46.56 380.02,46.56 382.75,46.56 385.49,46.56 388.23,46.56 390.96,46.56 393.70,46.56 396.44,46.57 399.17,46.57 401.91,46.57 404.65,46.58 407.39,46.58 410.12,46.59 412.86,46.59 415.60,46.60 418.33,46.61 421.07,46.62 423.81,46.64 426.54,46.64 429.28,46.64 432.02,46.64 434.75,46.65 437.49,46.65 440.23,46.66 442.97,46.67 445.70,46.68 448.44,46.69 451.18,46.69 453.91,46.75 456.65,46.78 459.39,46.82 462.12,46.86 464.86,46.91 467.60,46.95 470.34,47.04 473.07,47.15 475.81,47.24 478.55,47.37 481.28,47.56 484.02,47.75 486.76,48.03 489.49,48.40 492.23,48.83 494.97,49.43 497.70,50.27 500.44,51.18 503.18,52.26 505.92,53.65 508.65,55.44 511.39,57.55 514.13,60.10 516.86,63.29 519.60,67.23 522.34,72.27 525.07,78.22 527.81,85.33 530.55,93.43 533.28,103.25 536.02,114.61 538.76,126.91 541.50,140.32 544.23,154.73 546.97,169.75 549.71,185.78 552.44,201.15 555.18,217.92 557.92,233.37 560.65,248.22 563.39,263.03 566.13,278.54 568.87,293.51 571.60,308.31 574.34,323.17 577.08,337.45 579.81,350.88 582.55,364.09 585.29,376.68 588.02,388.68 590.76,399.72 593.50,410.10 596.23,419.38 598.97,428.16 601.71,436.33 604.45,443.76 607.18,450.29 609.92,456.18 609.92,507.44 607.18,507.43 604.45,507.43 601.71,507.42 598.97,507.41 596.23,507.39 593.50,507.36 590.76,507.33 588.02,507.27 585.29,507.19 582.55,507.07 579.81,506.88 577.08,506.62 574.34,506.24 571.60,505.67 568.87,504.83 566.13,503.60 563.39,501.79 560.65,499.14 557.92,495.27 555.18,489.69 552.44,481.69 549.71,470.65 546.97,455.37 544.23,435.48 541.50,407.85 538.76,372.36 536.02,332.58 533.28,291.33 530.55,248.01 527.81,205.36 525.07,171.57 522.34,145.00 519.60,122.29 516.86,107.05 514.13,95.42 511.39,87.51 508.65,82.92 505.92,78.20 503.18,74.35 500.44,71.28 497.70,69.11 494.97,66.91 492.23,64.95 489.49,63.13 486.76,61.56 484.02,60.46 481.28,59.49 478.55,58.65 475.81,57.90 473.07,57.22 470.34,56.74 467.60,56.40 464.86,56.07 462.12,55.81 459.39,55.56 456.65,55.39 453.91,55.29 451.18,55.23 448.44,55.17 445.70,55.08 442.97,55.06 440.23,55.02 437.49,54.94 434.75,54.92 432.02,54.92 429.28,54.92 426.54,54.91 423.81,54.85 421.07,54.85 418.33,54.81 415.60,54.77 412.86,54.77 410.12,54.77 407.39,54.75 404.65,54.74 401.91,54.73 399.17,54.72 396.44,54.72 393.70,54.72 390.96,54.70 388.23,54.69 385.49,54.69 382.75,54.66 380.02,54.66 377.28,54.66 374.54,54.66 371.80,54.66 369.07,54.66 366.33,54.66 363.59,54.63 360.86,54.63 358.12,54.63 355.38,54.63 352.65,54.63 349.91,54.63 347.17,54.63 344.44,54.63 341.70,54.63 338.96,54.63 336.22,54.63 333.49,54.63 330.75,54.63 328.01,54.63 325.28,54.63 322.54,54.63 319.80,54.63 317.07,54.63 314.33,54.60 311.59,54.60 308.86,54.60 306.12,54.60 303.38,54.60 300.64,54.60 297.91,54.60 295.17,54.60 292.43,54.60 289.70,54.60 286.96,54.60 284.22,54.60 281.49,54.60 278.75,54.60 276.01,54.60 273.27,54.60 270.54,54.60 267.80,54.60 265.06,54.60 262.33,54.60 259.59,54.60 256.85,54.60 254.12,54.60 251.38,54.60 248.64,54.60 245.91,54.60 243.17,54.60 240.43,54.60 237.69,54.60 234.96,54.60 232.22,54.60 229.48,54.60 226.75,54.60 224.01,54.60 221.27,54.60 218.54,54.60 215.80,54.60 213.06,54.60 210.32,54.60 207.59,54.60 204.85,54.60 202.11,54.60 199.38,54.60 196.64,54.60 193.90,54.60 191.17,54.60 188.43,54.60 185.69,54.60 182.96,54.60 180.22,54.60 177.48,54.60 174.74,54.60 172.01,54.60 169.27,54.60 166.53,54.60 163.80,54.60 161.06,54.60 158.32,54.60 155.59,54.60 152.85,54.60 150.11,54.60 147.38,54.60 144.64,54.60 141.90,54.60 139.16,54.60 136.43,54.60 133.69,54.60 130.95,54.60 128.22,54.60 125.48,54.60 122.74,54.60 120.01,54.60 117.27,54.60 114.53,54.60 111.79,54.60 109.06,54.60 106.32,54.60 103.58,54.60 100.85,54.60 98.11,54.60 95.37,54.60 92.64,54.60 89.90,54.60 87.16,54.60 84.43,54.60 81.69,54.60 78.95,54.60 76.21,54.60 73.48,54.60 70.74,54.60 68.00,54.60 65.27,54.60" style="stroke-width: 0.00;stroke: none;stroke-linecap: butt;fill: #00BFC4;fill-opacity: 0.20;" />
<polyline points="65.27,46.55 68.00,46.55 70.74,46.55 73.48,46.55 76.21,46.55 78.95,46.55 81.69,46.55 84.43,46.55 87.16,46.55 89.90,46.55 92.64,46.55 95.37,46.55 98.11,46.55 100.85,46.55 103.58,46.55 106.32,46.55 109.06,46.55 111.79,46.55 114.53,46.55 117.27,46.55 120.01,46.55 122.74,46.55 125.48,46.55 128.22,46.55 130.95,46.55 133.69,46.55 136.43,46.55 139.16,46.55 141.90,46.55 144.64,46.55 147.38,46.55 150.11,46.55 152.85,46.55 155.59,46.55 158.32,46.55 161.06,46.55 163.80,46.55 166.53,46.55 169.27,46.55 172.01,46.55 174.74,46.55 177.48,46.55 180.22,46.55 182.96,46.55 185.69,46.55 188.43,46.55 191.17,46.55 193.90,46.55 196.64,46.55 199.38,46.55 202.11,46.55 204.85,46.55 207.59,46.55 210.32,46.55 213.06,46.55 215.80,46.55 218.54,46.55 221.27,46.55 224.01,46.55 226.75,46.55 229.48,46.55 232.22,46.55 234.96,46.55 237.69,46.55 240.43,46.55 243.17,46.55 245.91,46.55 248.64,46.55 251.38,46.55 254.12,46.55 256.85,46.55 259.59,46.55 262.33,46.55 265.06,46.55 267.80,46.55 270.54,46.55 273.27,46.55 276.01,46.55 278.75,46.55 281.49,46.55 284.22,46.55 286.96,46.55 289.70,46.55 292.43,46.55 295.17,46.55 297.91,46.55 300.64,46.55 303.38,46.55 306.12,46.55 308.86,46.55 311.59,46.55 314.33,46.55 317.07,46.55 319.80,46.55 322.54,46.55 325.28,46.55 328.01,46.55 330.75,46.55 333.49,46.55 336.22,46.55 338.96,46.55 341.70,46.55 344.44,46.55 347.17,46.55 349.91,46.55 352.65,46.55 355.38,46.55 358.12,46.55 360.86,46.56 363.59,46.56 366.33,46.56 369.07,46.56 371.80,46.56 374.54,46.56 377.28,46.56 380.02,46.56 382.75,46.56 385.49,46.56 388.23,46.56 390.96,46.56 393.70,46.56 396.44,46.57 399.17,46.57 401.91,46.57 404.65,46.58 407.39,46.58 410.12,46.59 412.86,46.59 415.60,46.60 418.33,46.61 421.07,46.62 423.81,46.64 426.54,46.64 429.28,46.64 432.02,46.64 434.75,46.65 437.49,46.65 440.23,46.66 442.97,46.67 445.70,46.68 448.44,46.69 451.18,46.69 453.91,46.75 456.65,46.78 459.39,46.82 462.12,46.86 464.86,46.91 467.60,46.95 470.34,47.04 473.07,47.15 475.81,47.24 478.55,47.37 481.28,47.56 484.02,47.75 486.76,48.03 489.49,48.40 492.23,48.83 494.97,49.43 497.70,50.27 500.44,51.18 503.18,52.26 505.92,53.65 508.65,55.44 511.39,57.55 514.13,60.10 516.86,63.29 519.60,67.23 522.34,72.27 525.07,78.22 527.81,85.33 530.55,93.43 533.28,103.25 536.02,114.61 538.76,126.91 541.50,140.32 544.23,154.73 546.97,169.75 549.71,185.78 552.44,201.15 555.18,217.92 557.92,233.37 560.65,248.22 563.39,263.03 566.13,278.54 568.87,293.51 571.60,308.31 574.34,323.17 577.08,337.45 579.81,350.88 582.55,364.09 585.29,376.68 588.02,388.68 590.76,399.72 593.50,410.10 596.23,419.38 598.97,428.16 601.71,436.33 604.45,443.76 607.18,450.29 609.92,456.18" style="stroke-width: 1.07;stroke: none;stroke-linecap: butt;"/>
<polyline points="609.92,507.44 607.18,507.43 604.45,507.43 601.71,507.42 598.97,507.41 596.23,507.39 593.50,507.36 590.76,507.33 588.02,507.27 585.29,507.19 582.55,507.07 579.81,506.88 577.08,506.62 574.34,506.24 571.60,505.67 568.87,504.83 566.13,503.60 563.39,501.79 560.65,499.14 557.92,495.27 555.18,489.69 552.44,481.69 549.71,470.65 546.97,455.37 544.23,435.48 541.50,407.85 538.76,372.36 536.02,332.58 533.28,291.33 530.55,248.01 527.81,205.36 525.07,171.57 522.34,145.00 519.60,122.29 516.86,107.05 514.13,95.42 511.39,87.51 508.65,82.92 505.92,78.20 503.18,74.35 500.44,71.28 497.70,69.11 494.97,66.91 492.23,64.95 489.49,63.13 486.76,61.56 484.02,60.46 481.28,59.49 478.55,58.65 475.81,57.90 473.07,57.22 470.34,56.74 467.60,56.40 464.86,56.07 462.12,55.81 459.39,55.56 456.65,55.39 453.91,55.29 451.18,55.23 448.44,55.17 445.70,55.08 442.97,55.06 440.23,55.02 437.49,54.94 434.75,54.92 432.02,54.92 429.28,54.92 426.54,54.91 423.81,54.85 421.07,54.85 418.33,54.81 415.60,54.77 412.86,54.77 410.12,54.77 407.39,54.75 404.65,54.74 401.91,54.73 399.17,54.72 396.44,54.72 393.70,54.72 390.96,54.70 388.23,54.69 385.49,54.69 382.75,54.66 380.02,54.66 377.28,54.66 374.54,54.66 371.80,54.66 369.07,54.66 366.33,54.66 363.59,54.63 360.86,54.63 358.12,54.63 355.38,54.63 352.65,54.63 349.91,54.63 347.17,54.63 344.44,54.63 341.70,54.63 338.96,54.63 336.22,54.63 333.49,54.63 330.75,54.63 328.01,54.63 325.28,54.63 322.54,54.63 319.80,54.63 317.07,54.63 314.33,54.60 311.59,54.60 308.86,54.60 306.12,54.60 303.38,54.60 300.64,54.60 297.91,54.60 295.17,54.60 292.43,54.60 289.70,54.60 286.96,54.60 284.22,54.60 281.49,54.60 278.75,54.60 276.01,54.60 273.27,54.60 270.54,54.60 267.80,54.60 265.06,54.60 262.33,54.60 259.59,54.60 256.85,54.60 254.12,54.60 251.38,54.60 248.64,54.60 245.91,54.60 243.17,54.60 240.43,54.60 237.69,54.60 234.96,54.60 232.22,54.60 229.48,54.60 226.75,54.60 224.01,54.60 221.27,54.60 218.54,54.60 215.80,54.60 213.06,54.60 210.32,54.60 207.59,54.60 204.85,54.60 202.11,54.60 199.38,54.60 196.64,54.60 193.90,54.60 191.17,54.60 188.43,54.60 185.69,54.60 182.96,54.60 180.22,54.60 177.48,54.60 174.74,54.60 172.01,54.60 169.27,54.60 166.53,54.60 163.80,54.60 161.06,54.60 158.32,54.60 155.59,54.60 152.85,54.60 150.11,54.60 147.38,54.60 144.64,54.60 141.90,54.60 139.16,54.60 136.43,54.60 133.69,54.60 130.95,54.60 128.22,54.60 125.48,54.60 122.74,54.60 120.01,54.60 117.27,54.60 114.53,54.60 111.79,54.60 109.06,54.60 106.32,54.60 103.58,54.60 100.85,54.60 98.11,54.60 95.37,54.60 92.64,54.60 89.90,54.60 87.16,54.60 84.43,54.60 81.69,54.60 78.95,54.60 76.21,54.60 73.48,54.60 70.74,54.60 68.00,54.60 65.27,54.60" style="stroke-width: 1.07;stroke: none;stroke-linecap: butt;"/>
<polygon points="65.27,46.24 68.00,46.24 70.74,46.24 73.48,46.24 76.21,46.24 78.95,46.24 81.69,46.24 84.43,46.24 87.16,46.24 89.90,46.24 92.64,46.24 95.37,46.24 98.11,46.24 100.85,46.24 103.58,46.24 106.32,46.24 109.06,46.24 111.79,46.24 114.53,46.24 117.27,46.24 120.01,46.24 122.74,46.24 125.48,46.24 128.22,46.24 130.95,46.24 133.69,46.24 136.43,46.24 139.16,46.24 141.90,46.24 144.64,46.24 147.38,46.24 150.11,46.24 152.85,46.24 155.59,46.24 158.32,46.24 161.06,46.24 163.80,46.24 166.53,46.24 169.27,46.24 172.01,46.24 174.74,46.24 177.48,46.24 180.22,46.24 182.96,46.24 185.69,46.24 188.43,46.24 191.17,46.24 193.90,46.24 196.64,46.24 199.38,46.24 202.11,46.24 204.85,46.24 207.59,46.24 210.32,46.24 213.06,46.24 215.80,46.24 218.54,46.24 221.27,46.24 224.01,46.24 226.75,46.24 229.48,46.24 232.22,46.24 234.96,46.24 237.69,46.24 240.43,46.24 243.17,46.24 245.91,46.24 248.64,46.24 251.38,46.24 254.12,46.24 256.85,46.24 259.59,46.24 262.33,46.24 265.06,46.24 267.80,46.24 270.54,46.24 273.27,46.24 276.01,46.24 278.75,46.24 281.49,46.24 284.22,46.24 286.96,46.24 289.70,46.24 292.43,46.24 295.17,46.24 297.91,46.24 300.64,46.24 303.38,46.24 306.12,46.24 308.86,46.24 311.59,46.24 314.33,46.24 317.07,46.24 319.80,46.24 322.54,46.24 325.28,46.24 328.01,46.24 330.75,46.24 333.49,46.24 336.22,46.24 338.96,46.24 341.70,46.24 344.44,46.24 347.17,46.24 349.91,46.24 352.65,46.24 355.38,46.24 358.12,46.24 360.86,46.24 363.59,46.24 366.33,46.24 369.07,46.24 371.80,46.24 374.54,46.24 377.28,46.24 380.02,46.24 382.75,46.24 385.49,46.24 388.23,46.24 390.96,46.24 393.70,46.24 396.44,46.24 399.17,46.24 401.91,46.24 404.65,46.24 407.39,46.24 410.12,46.24 412.86,46.24 415.60,46.24 418.33,46.24 421.07,46.24 423.81,46.24 426.54,46.24 429.28,46.24 432.02,46.24 434.75,46.24 437.49,46.24 440.23,46.24 442.97,46.24 445.70,46.24 448.44,46.24 451.18,46.24 453.91,46.24 456.65,46.24 459.39,46.24 462.12,46.24 464.86,46.25 467.60,46.25 470.34,46.25 473.07,46.26 475.81,46.27 478.55,46.28 481.28,46.29 484.02,46.31 486.76,46.33 489.49,46.36 492.23,46.40 494.97,46.46 497.70,46.53 500.44,46.62 503.18,46.74 505.92,46.91 508.65,47.13 511.39,47.40 514.13,47.77 516.86,48.24 519.60,48.86 522.34,49.65 525.07,50.66 527.81,51.98 530.55,53.69 533.28,55.82 536.02,58.59 538.76,62.12 541.50,66.51 544.23,72.53 546.97,79.51 549.71,87.94 552.44,98.43 555.18,109.96 557.92,125.73 560.65,143.43 563.39,163.63 566.13,185.91 568.87,210.07 571.60,234.19 574.34,259.80 577.08,283.68 579.81,308.71 582.55,330.29 585.29,351.39 588.02,371.69 590.76,388.31 593.50,402.93 596.23,417.67 598.97,428.54 601.71,439.23 604.45,447.62 607.18,455.43 609.92,462.48 609.92,505.98 607.18,505.53 604.45,504.97 601.71,504.17 598.97,503.18 596.23,501.92 593.50,500.25 590.76,498.05 588.02,495.26 585.29,492.05 582.55,487.77 579.81,482.34 577.08,476.10 574.34,468.12 571.60,458.35 568.87,446.56 566.13,433.84 563.39,418.86 560.65,401.01 557.92,381.01 555.18,358.87 552.44,336.07 549.71,314.68 546.97,290.49 544.23,266.30 541.50,247.36 538.76,227.44 536.02,206.58 533.28,188.53 530.55,170.90 527.81,155.14 525.07,141.47 522.34,128.81 519.60,118.40 516.86,109.17 514.13,100.11 511.39,92.69 508.65,86.64 505.92,81.37 503.18,76.47 500.44,72.33 497.70,68.92 494.97,65.70 492.23,63.33 489.49,60.90 486.76,58.94 484.02,57.15 481.28,55.55 478.55,54.14 475.81,53.05 473.07,52.17 470.34,51.42 467.60,50.68 464.86,50.06 462.12,49.52 459.39,49.12 456.65,48.76 453.91,48.43 451.18,48.15 448.44,47.92 445.70,47.69 442.97,47.49 440.23,47.32 437.49,47.17 434.75,47.04 432.02,46.94 429.28,46.85 426.54,46.78 423.81,46.70 421.07,46.64 418.33,46.58 415.60,46.54 412.86,46.49 410.12,46.46 407.39,46.43 404.65,46.40 401.91,46.38 399.17,46.36 396.44,46.35 393.70,46.33 390.96,46.32 388.23,46.31 385.49,46.30 382.75,46.29 380.02,46.28 377.28,46.28 374.54,46.27 371.80,46.27 369.07,46.26 366.33,46.26 363.59,46.26 360.86,46.25 358.12,46.25 355.38,46.25 352.65,46.25 349.91,46.25 347.17,46.25 344.44,46.25 341.70,46.24 338.96,46.24 336.22,46.24 333.49,46.24 330.75,46.24 328.01,46.24 325.28,46.24 322.54,46.24 319.80,46.24 317.07,46.24 314.33,46.24 311.59,46.24 308.86,46.24 306.12,46.24 303.38,46.24 300.64,46.24 297.91,46.24 295.17,46.24 292.43,46.24 289.70,46.24 286.96,46.24 284.22,46.24 281.49,46.24 278.75,46.24 276.01,46.24 273.27,46.24 270.54,46.24 267.80,46.24 265.06,46.24 262.33,46.24 259.59,46.24 256.85,46.24 254.12,46.24 251.38,46.24 248.64,46.24 245.91,46.24 243.17,46.24 240.43,46.24 237.69,46.24 234.96,46.24 232.22,46.24 229.48,46.24 226.75,46.24 224.01,46.24 221.27,46.24 218.54,46.24 215.80,46.24 213.06,46.24 210.32,46.24 207.59,46.24 204.85,46.24 202.11,46.24 199.38,46.24 196.64,46.24 193.90,46.24 191.17,46.24 188.43,46.24 185.69,46.24 182.96,46.24 180.22,46.24 177.48,46.24 174.74,46.24 172.01,46.24 169.27,46.24 166.53,46.24 163.80,46.24 161.06,46.24 158.32,46.24 155.59,46.24 152.85,46.24 150.11,46.24 147.38,46.24 144.64,46.24 141.90,46.24 139.16,46.24 136.43,46.24 133.69,46.24 130.95,46.24 128.22,46.24 125.48,46.24 122.74,46.24 120.01,46.24 117.27,46.24 114.53,46.24 111.79,46.24 109.06,46.24 106.32,46.24 103.58,46.24 100.85,46.24 98.11,46.24 95.37,46.24 92.64,46.24 89.90,46.24 87.16,46.24 84.43,46.24 81.69,46.24 78.95,46.24 76.21,46.24 73.48,46.24 70.74,46.24 68.00,46.24 65.27,46.24" style="stroke-width: 0.00;stroke: none;stroke-linecap: butt;fill: #C77CFF;fill-opacity: 0.20;" />
<polyline points="65.27,46.24 68.00,46.24 70.74,46.24 73.48,46.24 76.21,46.24 78.95,46.24 81.69,46.24 84.43,46.24 87.16,46.24 89.90,46.24 92.64,46.24 95.37,46.24 98.11,46.24 100.85,46.24 103.58,46.24 106.32,46.24 109.06,46.24 111.79,46.24 114.53,46.24 117.27,46.24 120.01,46.24 122.74,46.24 125.48,46.24 128.22,46.24 130.95,46.24 133.69,46.24 136.43,46.24 139.16,46.24 141.90,46.24 144.64,46.24 147.38,46.24 150.11,46.24 152.85,46.24 155.59,46.24 158.32,46.24 161.06,46.24 163.80,46.24 166.53,46.24 169.27,46.24 172.01,46.24 174.74,46.24 177.48,46.24 180.22,46.24 182.96,46.24 185.69,46.24 188.43,46.24 191.17,46.24 193.90,46.24 196.64,46.24 199.38,46.24 202.11,46.24 204.85,46.24 207.59,46.24 210.32,46.24 213.06,46.24 215.80,46.24 218.54,46.24 221.27,46.24 224.01,46.24 226.75,46.24 229.48,46.24 232.22,46.24 234.96,46.24 237.69,46.24 240.43,46.24 243.17,46.24 245.91,46.24 248.64,46.24 251.38,46.24 254.12,46.24 256.85,46.24 259.59,46.24 262.33,46.24 265.06,46.24 267.80,46.24 270.54,46.24 273.27,46.24 276.01,46.24 278.75,46.24 281.49,46.24 284.22,46.24 286.96,46.24 289.70,46.24 292.43,46.24 295.17,46.24 297.91,46.24 300.64,46.24 303.38,46.24 306.12,46.24 308.86,46.24 311.59,46.24 314.33,46.24 317.07,46.24 319.80,46.24 322.54,46.24 325.28,46.24 328.01,46.24 330.75,46.24 333.49,46.24 336.22,46.24 338.96,46.24 341.70,46.24 344.44,46.24 347.17,46.24 349.91,46.24 352.65,46.24 355.38,46.24 358.12,46.24 360.86,46.24 363.59,46.24 366.33,46.24 369.07,46.24 371.80,46.24 374.54,46.24 377.28,46.24 380.02,46.24 382.75,46.24 385.49,46.24 388.23,46.24 390.96,46.24 393.70,46.24 396.44,46.24 399.17,46.24 401.91,46.24 404.65,46.24 407.39,46.24 410.12,46.24 412.86,46.24 415.60,46.24 418.33,46.24 421.07,46.24 423.81,46.24 426.54,46.24 429.28,46.24 432.02,46.24 434.75,46.24 437.49,46.24 440.23,46.24 442.97,46.24 445.70,46.24 448.44,46.24 451.18,46.24 453.91,46.24 456.65,46.24 459.39,46.24 462.12,46.24 464.86,46.25 467.60,46.25 470.34,46.25 473.07,46.26 475.81,46.27 478.55,46.28 481.28,46.29 484.02,46.31 486.76,46.33 489.49,46.36 492.23,46.40 494.97,46.46 497.70,46.53 500.44,46.62 503.18,46.74 505.92,46.91 508.65,47.13 511.39,47.40 514.13,47.77 516.86,48.24 519.60,48.86 522.34,49.65 525.07,50.66 527.81,51.98 530.55,53.69 533.28,55.82 536.02,58.59 538.76,62.12 541.50,66.51 544.23,72.53 546.97,79.51 549.71,87.94 552.44,98.43 555.18,109.96 557.92,125.73 560.65,143.43 563.39,163.63 566.13,185.91 568.87,210.07 571.60,234.19 574.34,259.80 577.08,283.68 579.81,308.71 582.55,330.29 585.29,351.39 588.02,371.69 590.76,388.31 593.50,402.93 596.23,417.67 598.97,428.54 601.71,439.23 604.45,447.62 607.18,455.43 609.92,462.48" style="stroke-width: 1.07;stroke: none;stroke-linecap: butt;"/>
<polyline points="609.92,505.98 607.18,505.53 604.45,504.97 601.71,504.17 598.97,503.18 596.23,501.92 593.50,500.25 590.76,498.05 588.02,495.26 585.29,492.05 582.55,487.77 579.81,482.34 577.08,476.10 574.34,468.12 571.60,458.35 568.87,446.56 566.13,433.84 563.39,418.86 560.65,401.01 557.92,381.01 555.18,358.87 552.44,336.07 549.71,314.68 546.97,290.49 544.23,266.30 541.50,247.36 538.76,227.44 536.02,206.58 533.28,188.53 530.55,170.90 527.81,155.14 525.07,141.47 522.34,128.81 519.60,118.40 516.86,109.17 514.13,100.11 511.39,92.69 508.65,86.64 505.92,81.37 503.18,76.47 500.44,72.33 497.70,68.92 494.97,65.70 492.23,63.33 489.49,60.90 486.76,58.94 484.02,57.15 481.28,55.55 478.55,54.14 475.81,53.05 473.07,52.17 470.34,51.42 467.60,50.68 464.86,50.06 462.12,49.52 459.39,49.12 456.65,48.76 453.91,48.43 451.18,48.15 448.44,47.92 445.70,47.69 442.97,47.49 440.23,47.32 437.49,47.17 434.75,47.04 432.02,46.94 429.28,46.85 426.54,46.78 423.81,46.70 421.07,46.64 418.33,46.58 415.60,46.54 412.86,46.49 410.12,46.46 407.39,46.43 404.65,46.40 401.91,46.38 399.17,46.36 396.44,46.35 393.70,46.33 390.96,46.32 388.23,46.31 385.49,46.30 382.75,46.29 380.02,46.28 377.28,46.28 374.54,46.27 371.80,46.27 369.07,46.26 366.33,46.26 363.59,46.26 360.86,46.25 358.12,46.25 355.38,46.25 352.65,46.25 349.91,46.25 347.17,46.25 344.44,46.25 341.70,46.24 338.96,46.24 336.22,46.24 333.49,46.24 330.75,46.24 328.01,46.24 325.28,46.24 322.54,46.24 319.80,46.24 317.07,46.24 314.33,46.24 311.59,46.24 308.86,46.24 306.12,46.24 303.38,46.24 300.64,46.24 297.91,46.24 295.17,46.24 292.43,46.24 289.70,46.24 286.96,46.24 284.22,46.24 281.49,46.24 278.75,46.24 276.01,46.24 273.27,46.24 270.54,46.24 267.80,46.24 265.06,46.24 262.33,46.24 259.59,46.24 256.85,46.24 254.12,46.24 251.38,46.24 248.64,46.24 245.91,46.24 243.17,46.24 240.43,46.24 237.69,46.24 234.96,46.24 232.22,46.24 229.48,46.24 226.75,46.24 224.01,46.24 221.27,46.24 218.54,46.24 215.80,46.24 213.06,46.24 210.32,46.24 207.59,46.24 204.85,46.24 202.11,46.24 199.38,46.24 196.64,46.24 193.90,46.24 191.17,46.24 188.43,46.24 185.69,46.24 182.96,46.24 180.22,46.24 177.48,46.24 174.74,46.24 172.01,46.24 169.27,46.24 166.53,46.24 163.80,46.24 161.06,46.24 158.32,46.24 155.59,46.24 152.85,46.24 150.11,46.24 147.38,46.24 144.64,46.24 141.90,46.24 139.16,46.24 136.43,46.24 133.69,46.24 130.95,46.24 128.22,46.24 125.48,46.24 122.74,46.24 120.01,46.24 117.27,46.24 114.53,46.24 111.79,46.24 109.06,46.24 106.32,46.24 103.58,46.24 100.85,46.24 98.11,46.24 95.37,46.24 92.64,46.24 89.90,46.24 87.16,46.24 84.43,46.24 81.69,46.24 78.95,46.24 76.21,46.24 73.48,46.24 70.74,46.24 68.00,46.24 65.27,46.24" style="stroke-width: 1.07;stroke: none;stroke-linecap: butt;"/>
<circle cx="65.27" cy="46.24" r="2.06" style="stroke-width: 0.71;stroke: #F8766D;stroke-opacity: 0.70;fill: #F8766D;fill-opacity: 0.70;"/>
<circle cx="65.27" cy="46.24" r="2.06" style="stroke-width: 0.71;stroke: #F8766D;stroke-opacity: 0.70;fill: #F8766D;fill-opacity: 0.70;"/>
<circle cx="65.27" cy="46.24" r="2.06" style="stroke-width: 0.71;stroke: #F8766D;stroke-opacity: 0.70;fill: #F8766D;fill-opacity: 0.70;"/>
<circle cx="65.27" cy="46.24" r="2.06" style="stroke-width: 0.71;stroke: #7CAE00;stroke-opacity: 0.70;fill: #7CAE00;fill-opacity: 0.70;"/>
<circle cx="65.27" cy="46.24" r="2.06" style="stroke-width: 0.71;stroke: #7CAE00;stroke-opacity: 0.70;fill: #7CAE00;fill-opacity: 0.70;"/>
<circle cx="65.27" cy="46.24" r="2.06" style="stroke-width: 0.71;stroke: #7CAE00;stroke-opacity: 0.70;fill: #7CAE00;fill-opacity: 0.70;"/>
<circle cx="65.27" cy="46.24" r="2.06" style="stroke-width: 0.71;stroke: #00BFC4;stroke-opacity: 0.70;fill: #00BFC4;fill-opacity: 0.70;"/>
<circle cx="65.27" cy="46.24" r="2.06" style="stroke-width: 0.71;stroke: #00BFC4;stroke-opacity: 0.70;fill: #00BFC4;fill-opacity: 0.70;"/>
<circle cx="65.27" cy="46.24" r="2.06" style="stroke-width: 0.71;stroke: #00BFC4;stroke-opacity: 0.70;fill: #00BFC4;fill-opacity: 0.70;"/>
<circle cx="65.27" cy="46.24" r="2.06" style="stroke-width: 0.71;stroke: #C77CFF;stroke-opacity: 0.70;fill: #C77CFF;fill-opacity: 0.70;"/>
<circle cx="65.27" cy="46.24" r="2.06" style="stroke-width: 0.71;stroke: #C77CFF;stroke-opacity: 0.70;fill: #C77CFF;fill-opacity: 0.70;"/>
<circle cx="65.27" cy="46.24" r="2.06" style="stroke-width: 0.71;stroke: #C77CFF;stroke-opacity: 0.70;fill: #C77CFF;fill-opacity: 0.70;"/>
<circle cx="156.04" cy="80.45" r="2.06" style="stroke-width: 0.71;stroke: #F8766D;stroke-opacity: 0.70;fill: #F8766D;fill-opacity: 0.70;"/>
<circle cx="156.04" cy="46.24" r="2.06" style="stroke-width: 0.71;stroke: #F8766D;stroke-opacity: 0.70;fill: #F8766D;fill-opacity: 0.70;"/>
<circle cx="156.04" cy="46.24" r="2.06" style="stroke-width: 0.71;stroke: #F8766D;stroke-opacity: 0.70;fill: #F8766D;fill-opacity: 0.70;"/>
<circle cx="156.04" cy="46.24" r="2.06" style="stroke-width: 0.71;stroke: #7CAE00;stroke-opacity: 0.70;fill: #7CAE00;fill-opacity: 0.70;"/>
<circle cx="156.04" cy="46.24" r="2.06" style="stroke-width: 0.71;stroke: #7CAE00;stroke-opacity: 0.70;fill: #7CAE00;fill-opacity: 0.70;"/>
<circle cx="156.04" cy="50.92" r="2.06" style="stroke-width: 0.71;stroke: #7CAE00;stroke-opacity: 0.70;fill: #7CAE00;fill-opacity: 0.70;"/>
<circle cx="156.04" cy="49.77" r="2.06" style="stroke-width: 0.71;stroke: #00BFC4;stroke-opacity: 0.70;fill: #00BFC4;fill-opacity: 0.70;"/>
<circle cx="156.04" cy="72.69" r="2.06" style="stroke-width: 0.71;stroke: #00BFC4;stroke-opacity: 0.70;fill: #00BFC4;fill-opacity: 0.70;"/>
<circle cx="156.04" cy="46.24" r="2.06" style="stroke-width: 0.71;stroke: #00BFC4;stroke-opacity: 0.70;fill: #00BFC4;fill-opacity: 0.70;"/>
<circle cx="156.04" cy="46.24" r="2.06" style="stroke-width: 0.71;stroke: #C77CFF;stroke-opacity: 0.70;fill: #C77CFF;fill-opacity: 0.70;"/>
<circle cx="156.04" cy="46.24" r="2.06" style="stroke-width: 0.71;stroke: #C77CFF;stroke-opacity: 0.70;fill: #C77CFF;fill-opacity: 0.70;"/>
<circle cx="156.04" cy="46.24" r="2.06" style="stroke-width: 0.71;stroke: #C77CFF;stroke-opacity: 0.70;fill: #C77CFF;fill-opacity: 0.70;"/>
<circle cx="246.82" cy="100.89" r="2.06" style="stroke-width: 0.71;stroke: #F8766D;stroke-opacity: 0.70;fill: #F8766D;fill-opacity: 0.70;"/>
<circle cx="246.82" cy="162.97" r="2.06" style="stroke-width: 0.71;stroke: #F8766D;stroke-opacity: 0.70;fill: #F8766D;fill-opacity: 0.70;"/>
<circle cx="246.82" cy="52.53" r="2.06" style="stroke-width: 0.71;stroke: #F8766D;stroke-opacity: 0.70;fill: #F8766D;fill-opacity: 0.70;"/>
<circle cx="246.82" cy="46.24" r="2.06" style="stroke-width: 0.71;stroke: #7CAE00;stroke-opacity: 0.70;fill: #7CAE00;fill-opacity: 0.70;"/>
<circle cx="246.82" cy="46.24" r="2.06" style="stroke-width: 0.71;stroke: #7CAE00;stroke-opacity: 0.70;fill: #7CAE00;fill-opacity: 0.70;"/>
<circle cx="246.82" cy="46.24" r="2.06" style="stroke-width: 0.71;stroke: #7CAE00;stroke-opacity: 0.70;fill: #7CAE00;fill-opacity: 0.70;"/>
<circle cx="246.82" cy="53.47" r="2.06" style="stroke-width: 0.71;stroke: #00BFC4;stroke-opacity: 0.70;fill: #00BFC4;fill-opacity: 0.70;"/>
<circle cx="246.82" cy="59.02" r="2.06" style="stroke-width: 0.71;stroke: #00BFC4;stroke-opacity: 0.70;fill: #00BFC4;fill-opacity: 0.70;"/>
<circle cx="246.82" cy="60.55" r="2.06" style="stroke-width: 0.71;stroke: #00BFC4;stroke-opacity: 0.70;fill: #00BFC4;fill-opacity: 0.70;"/>
<circle cx="246.82" cy="46.24" r="2.06" style="stroke-width: 0.71;stroke: #C77CFF;stroke-opacity: 0.70;fill: #C77CFF;fill-opacity: 0.70;"/>
<circle cx="246.82" cy="47.05" r="2.06" style="stroke-width: 0.71;stroke: #C77CFF;stroke-opacity: 0.70;fill: #C77CFF;fill-opacity: 0.70;"/>
<circle cx="246.82" cy="55.26" r="2.06" style="stroke-width: 0.71;stroke: #C77CFF;stroke-opacity: 0.70;fill: #C77CFF;fill-opacity: 0.70;"/>
<circle cx="337.59" cy="83.10" r="2.06" style="stroke-width: 0.71;stroke: #F8766D;stroke-opacity: 0.70;fill: #F8766D;fill-opacity: 0.70;"/>
<circle cx="337.59" cy="65.79" r="2.06" style="stroke-width: 0.71;stroke: #F8766D;stroke-opacity: 0.70;fill: #F8766D;fill-opacity: 0.70;"/>
<circle cx="337.59" cy="46.24" r="2.06" style="stroke-width: 0.71;stroke: #F8766D;stroke-opacity: 0.70;fill: #F8766D;fill-opacity: 0.70;"/>
<circle cx="337.59" cy="46.24" r="2.06" style="stroke-width: 0.71;stroke: #7CAE00;stroke-opacity: 0.70;fill: #7CAE00;fill-opacity: 0.70;"/>
<circle cx="337.59" cy="46.24" r="2.06" style="stroke-width: 0.71;stroke: #7CAE00;stroke-opacity: 0.70;fill: #7CAE00;fill-opacity: 0.70;"/>
<circle cx="337.59" cy="46.24" r="2.06" style="stroke-width: 0.71;stroke: #7CAE00;stroke-opacity: 0.70;fill: #7CAE00;fill-opacity: 0.70;"/>
<circle cx="337.59" cy="46.24" r="2.06" style="stroke-width: 0.71;stroke: #00BFC4;stroke-opacity: 0.70;fill: #00BFC4;fill-opacity: 0.70;"/>
<circle cx="337.59" cy="57.13" r="2.06" style="stroke-width: 0.71;stroke: #00BFC4;stroke-opacity: 0.70;fill: #00BFC4;fill-opacity: 0.70;"/>
<circle cx="337.59" cy="46.24" r="2.06" style="stroke-width: 0.71;stroke: #00BFC4;stroke-opacity: 0.70;fill: #00BFC4;fill-opacity: 0.70;"/>
<circle cx="337.59" cy="46.24" r="2.06" style="stroke-width: 0.71;stroke: #C77CFF;stroke-opacity: 0.70;fill: #C77CFF;fill-opacity: 0.70;"/>
<circle cx="337.59" cy="46.24" r="2.06" style="stroke-width: 0.71;stroke: #C77CFF;stroke-opacity: 0.70;fill: #C77CFF;fill-opacity: 0.70;"/>
<circle cx="337.59" cy="48.60" r="2.06" style="stroke-width: 0.71;stroke: #C77CFF;stroke-opacity: 0.70;fill: #C77CFF;fill-opacity: 0.70;"/>
<circle cx="428.37" cy="121.08" r="2.06" style="stroke-width: 0.71;stroke: #F8766D;stroke-opacity: 0.70;fill: #F8766D;fill-opacity: 0.70;"/>
<circle cx="428.37" cy="93.37" r="2.06" style="stroke-width: 0.71;stroke: #F8766D;stroke-opacity: 0.70;fill: #F8766D;fill-opacity: 0.70;"/>
<circle cx="428.37" cy="46.24" r="2.06" style="stroke-width: 0.71;stroke: #F8766D;stroke-opacity: 0.70;fill: #F8766D;fill-opacity: 0.70;"/>
<circle cx="428.37" cy="46.24" r="2.06" style="stroke-width: 0.71;stroke: #7CAE00;stroke-opacity: 0.70;fill: #7CAE00;fill-opacity: 0.70;"/>
<circle cx="428.37" cy="46.24" r="2.06" style="stroke-width: 0.71;stroke: #7CAE00;stroke-opacity: 0.70;fill: #7CAE00;fill-opacity: 0.70;"/>
<circle cx="428.37" cy="58.00" r="2.06" style="stroke-width: 0.71;stroke: #7CAE00;stroke-opacity: 0.70;fill: #7CAE00;fill-opacity: 0.70;"/>
<circle cx="428.37" cy="54.81" r="2.06" style="stroke-width: 0.71;stroke: #00BFC4;stroke-opacity: 0.70;fill: #00BFC4;fill-opacity: 0.70;"/>
<circle cx="428.37" cy="46.24" r="2.06" style="stroke-width: 0.71;stroke: #00BFC4;stroke-opacity: 0.70;fill: #00BFC4;fill-opacity: 0.70;"/>
<circle cx="428.37" cy="48.14" r="2.06" style="stroke-width: 0.71;stroke: #00BFC4;stroke-opacity: 0.70;fill: #00BFC4;fill-opacity: 0.70;"/>
<circle cx="428.37" cy="57.18" r="2.06" style="stroke-width: 0.71;stroke: #C77CFF;stroke-opacity: 0.70;fill: #C77CFF;fill-opacity: 0.70;"/>
<circle cx="428.37" cy="46.24" r="2.06" style="stroke-width: 0.71;stroke: #C77CFF;stroke-opacity: 0.70;fill: #C77CFF;fill-opacity: 0.70;"/>
<circle cx="428.37" cy="92.98" r="2.06" style="stroke-width: 0.71;stroke: #C77CFF;stroke-opacity: 0.70;fill: #C77CFF;fill-opacity: 0.70;"/>
<circle cx="519.14" cy="124.74" r="2.06" style="stroke-width: 0.71;stroke: #F8766D;stroke-opacity: 0.70;fill: #F8766D;fill-opacity: 0.70;"/>
<circle cx="519.14" cy="115.10" r="2.06" style="stroke-width: 0.71;stroke: #F8766D;stroke-opacity: 0.70;fill: #F8766D;fill-opacity: 0.70;"/>
<circle cx="519.14" cy="111.57" r="2.06" style="stroke-width: 0.71;stroke: #F8766D;stroke-opacity: 0.70;fill: #F8766D;fill-opacity: 0.70;"/>
<circle cx="519.14" cy="73.70" r="2.06" style="stroke-width: 0.71;stroke: #7CAE00;stroke-opacity: 0.70;fill: #7CAE00;fill-opacity: 0.70;"/>
<circle cx="519.14" cy="65.48" r="2.06" style="stroke-width: 0.71;stroke: #7CAE00;stroke-opacity: 0.70;fill: #7CAE00;fill-opacity: 0.70;"/>
<circle cx="519.14" cy="46.24" r="2.06" style="stroke-width: 0.71;stroke: #7CAE00;stroke-opacity: 0.70;fill: #7CAE00;fill-opacity: 0.70;"/>
<circle cx="519.14" cy="73.80" r="2.06" style="stroke-width: 0.71;stroke: #00BFC4;stroke-opacity: 0.70;fill: #00BFC4;fill-opacity: 0.70;"/>
<circle cx="519.14" cy="76.88" r="2.06" style="stroke-width: 0.71;stroke: #00BFC4;stroke-opacity: 0.70;fill: #00BFC4;fill-opacity: 0.70;"/>
<circle cx="519.14" cy="66.77" r="2.06" style="stroke-width: 0.71;stroke: #00BFC4;stroke-opacity: 0.70;fill: #00BFC4;fill-opacity: 0.70;"/>
<circle cx="519.14" cy="61.37" r="2.06" style="stroke-width: 0.71;stroke: #C77CFF;stroke-opacity: 0.70;fill: #C77CFF;fill-opacity: 0.70;"/>
<circle cx="519.14" cy="61.63" r="2.06" style="stroke-width: 0.71;stroke: #C77CFF;stroke-opacity: 0.70;fill: #C77CFF;fill-opacity: 0.70;"/>
<circle cx="519.14" cy="84.50" r="2.06" style="stroke-width: 0.71;stroke: #C77CFF;stroke-opacity: 0.70;fill: #C77CFF;fill-opacity: 0.70;"/>
<circle cx="609.92" cy="507.44" r="2.06" style="stroke-width: 0.71;stroke: #F8766D;stroke-opacity: 0.70;fill: #F8766D;fill-opacity: 0.70;"/>
<circle cx="609.92" cy="507.44" r="2.06" style="stroke-width: 0.71;stroke: #F8766D;stroke-opacity: 0.70;fill: #F8766D;fill-opacity: 0.70;"/>
<circle cx="609.92" cy="497.95" r="2.06" style="stroke-width: 0.71;stroke: #F8766D;stroke-opacity: 0.70;fill: #F8766D;fill-opacity: 0.70;"/>
<circle cx="609.92" cy="507.44" r="2.06" style="stroke-width: 0.71;stroke: #7CAE00;stroke-opacity: 0.70;fill: #7CAE00;fill-opacity: 0.70;"/>
<circle cx="609.92" cy="476.39" r="2.06" style="stroke-width: 0.71;stroke: #7CAE00;stroke-opacity: 0.70;fill: #7CAE00;fill-opacity: 0.70;"/>
<circle cx="609.92" cy="507.44" r="2.06" style="stroke-width: 0.71;stroke: #7CAE00;stroke-opacity: 0.70;fill: #7CAE00;fill-opacity: 0.70;"/>
<circle cx="609.92" cy="501.47" r="2.06" style="stroke-width: 0.71;stroke: #00BFC4;stroke-opacity: 0.70;fill: #00BFC4;fill-opacity: 0.70;"/>
<circle cx="609.92" cy="507.44" r="2.06" style="stroke-width: 0.71;stroke: #00BFC4;stroke-opacity: 0.70;fill: #00BFC4;fill-opacity: 0.70;"/>
<circle cx="609.92" cy="507.44" r="2.06" style="stroke-width: 0.71;stroke: #00BFC4;stroke-opacity: 0.70;fill: #00BFC4;fill-opacity: 0.70;"/>
<circle cx="609.92" cy="477.03" r="2.06" style="stroke-width: 0.71;stroke: #C77CFF;stroke-opacity: 0.70;fill: #C77CFF;fill-opacity: 0.70;"/>
<circle cx="609.92" cy="507.44" r="2.06" style="stroke-width: 0.71;stroke: #C77CFF;stroke-opacity: 0.70;fill: #C77CFF;fill-opacity: 0.70;"/>
<circle cx="609.92" cy="507.44" r="2.06" style="stroke-width: 0.71;stroke: #C77CFF;stroke-opacity: 0.70;fill: #C77CFF;fill-opacity: 0.70;"/>
<polyline points="65.27,73.72 68.00,73.73 70.74,73.74 73.48,73.76 76.21,73.77 78.95,73.78 81.69,73.79 84.43,73.80 87.16,73.82 89.90,73.83 92.64,73.84 95.37,73.85 98.11,73.87 100.85,73.88 103.58,73.89 106.32,73.91 109.06,73.92 111.79,73.93 114.53,73.95 117.27,73.96 120.01,73.97 122.74,73.99 125.48,74.00 128.22,74.02 130.95,74.03 133.69,74.05 136.43,74.06 139.16,74.08 141.90,74.10 144.64,74.11 147.38,74.13 150.11,74.14 152.85,74.16 155.59,74.18 158.32,74.19 161.06,74.21 163.80,74.23 166.53,74.25 169.27,74.27 172.01,74.28 174.74,74.30 177.48,74.32 180.22,74.34 182.96,74.36 185.69,74.38 188.43,74.40 191.17,74.42 193.90,74.44 196.64,74.46 199.38,74.48 202.11,74.51 204.85,74.53 207.59,74.55 210.32,74.57 213.06,74.60 215.80,74.62 218.54,74.65 221.27,74.67 224.01,74.69 226.75,74.72 229.48,74.75 232.22,74.77 234.96,74.80 237.69,74.83 240.43,74.85 243.17,74.88 245.91,74.91 248.64,74.94 251.38,74.97 254.12,75.00 256.85,75.03 259.59,75.06 262.33,75.09 265.06,75.13 267.80,75.16 270.54,75.19 273.27,75.23 276.01,75.26 278.75,75.30 281.49,75.34 284.22,75.37 286.96,75.41 289.70,75.45 292.43,75.49 295.17,75.54 297.91,75.58 300.64,75.63 303.38,75.70 306.12,75.78 308.86,75.87 311.59,75.95 314.33,76.01 317.07,76.06 319.80,76.12 322.54,76.17 325.28,76.23 328.01,76.30 330.75,76.37 333.49,76.47 336.22,76.57 338.96,76.66 341.70,76.74 344.44,76.81 347.17,76.88 349.91,76.95 352.65,77.02 355.38,77.09 358.12,77.17 360.86,77.24 363.59,77.32 366.33,77.40 369.07,77.49 371.80,77.57 374.54,77.66 377.28,77.76 380.02,77.85 382.75,77.96 385.49,78.07 388.23,78.20 390.96,78.36 393.70,78.52 396.44,78.69 399.17,78.87 401.91,79.05 404.65,79.23 407.39,79.42 410.12,79.63 412.86,79.87 415.60,80.13 418.33,80.41 421.07,80.71 423.81,81.04 426.54,81.40 429.28,81.81 432.02,82.27 434.75,82.76 437.49,83.27 440.23,83.82 442.97,84.46 445.70,85.22 448.44,86.12 451.18,87.17 453.91,88.37 456.65,89.74 459.39,91.30 462.12,93.07 464.86,95.05 467.60,97.26 470.34,99.71 473.07,102.44 475.81,105.48 478.55,108.87 481.28,112.66 484.02,116.92 486.76,121.67 489.49,126.95 492.23,132.78 494.97,139.22 497.70,146.35 500.44,154.24 503.18,162.93 505.92,172.43 508.65,182.71 511.39,193.75 514.13,205.49 516.86,217.90 519.60,230.88 522.34,244.34 525.07,258.14 527.81,272.14 530.55,286.20 533.28,300.18 536.02,313.94 538.76,327.36 541.50,340.34 544.23,352.79 546.97,364.63 549.71,375.82 552.44,386.31 555.18,396.09 557.92,405.15 560.65,413.49 563.39,421.14 566.13,428.12 568.87,434.47 571.60,440.23 574.34,445.45 577.08,450.17 579.81,454.44 582.55,458.29 585.29,461.77 588.02,464.92 590.76,467.77 593.50,470.35 596.23,472.70 598.97,474.83 601.71,476.77 604.45,478.53 607.18,480.15 609.92,481.62" style="stroke-width: 1.71;stroke: #F8766D;stroke-linecap: butt;"/>
<polyline points="65.27,46.24 68.00,46.24 70.74,46.24 73.48,46.24 76.21,46.24 78.95,46.24 81.69,46.24 84.43,46.24 87.16,46.24 89.90,46.24 92.64,46.24 95.37,46.24 98.11,46.24 100.85,46.24 103.58,46.24 106.32,46.24 109.06,46.24 111.79,46.24 114.53,46.24 117.27,46.24 120.01,46.24 122.74,46.24 125.48,46.24 128.22,46.24 130.95,46.24 133.69,46.24 136.43,46.24 139.16,46.24 141.90,46.24 144.64,46.24 147.38,46.24 150.11,46.24 152.85,46.24 155.59,46.24 158.32,46.24 161.06,46.24 163.80,46.24 166.53,46.24 169.27,46.24 172.01,46.24 174.74,46.24 177.48,46.24 180.22,46.24 182.96,46.24 185.69,46.24 188.43,46.24 191.17,46.24 193.90,46.24 196.64,46.24 199.38,46.24 202.11,46.24 204.85,46.24 207.59,46.24 210.32,46.24 213.06,46.24 215.80,46.24 218.54,46.24 221.27,46.24 224.01,46.24 226.75,46.24 229.48,46.24 232.22,46.24 234.96,46.24 237.69,46.24 240.43,46.24 243.17,46.24 245.91,46.24 248.64,46.24 251.38,46.24 254.12,46.24 256.85,46.24 259.59,46.24 262.33,46.24 265.06,46.24 267.80,46.24 270.54,46.24 273.27,46.24 276.01,46.24 278.75,46.24 281.49,46.24 284.22,46.24 286.96,46.24 289.70,46.24 292.43,46.24 295.17,46.24 297.91,46.24 300.64,46.24 303.38,46.24 306.12,46.24 308.86,46.24 311.59,46.24 314.33,46.24 317.07,46.24 319.80,46.24 322.54,46.24 325.28,46.24 328.01,46.24 330.75,46.24 333.49,46.24 336.22,46.24 338.96,46.24 341.70,46.24 344.44,46.24 347.17,46.24 349.91,46.24 352.65,46.24 355.38,46.24 358.12,46.24 360.86,46.24 363.59,46.24 366.33,46.24 369.07,46.24 371.80,46.24 374.54,46.24 377.28,46.24 380.02,46.24 382.75,46.24 385.49,46.24 388.23,46.24 390.96,46.24 393.70,46.24 396.44,46.24 399.17,46.24 401.91,46.24 404.65,46.24 407.39,46.24 410.12,46.24 412.86,46.24 415.60,46.24 418.33,46.24 421.07,46.25 423.81,46.25 426.54,46.25 429.28,46.25 432.02,46.26 434.75,46.26 437.49,46.27 440.23,46.27 442.97,46.28 445.70,46.29 448.44,46.30 451.18,46.32 453.91,46.34 456.65,46.36 459.39,46.39 462.12,46.42 464.86,46.47 467.60,46.52 470.34,46.59 473.07,46.68 475.81,46.78 478.55,46.91 481.28,47.07 484.02,47.27 486.76,47.52 489.49,47.82 492.23,48.20 494.97,48.67 497.70,49.24 500.44,49.96 503.18,50.84 505.92,51.92 508.65,53.26 511.39,54.91 514.13,56.94 516.86,59.42 519.60,62.47 522.34,66.18 525.07,70.70 527.81,76.18 530.55,82.78 533.28,90.68 536.02,100.08 538.76,111.16 541.50,124.09 544.23,138.98 546.97,155.91 549.71,174.85 552.44,195.66 555.18,218.10 557.92,241.78 560.65,266.25 563.39,290.95 566.13,315.33 568.87,338.85 571.60,361.05 574.34,381.58 577.08,400.21 579.81,416.83 582.55,431.42 585.29,444.06 588.02,454.89 590.76,464.07 593.50,471.78 596.23,478.22 598.97,483.56 601.71,487.97 604.45,491.59 607.18,494.56 609.92,496.99" style="stroke-width: 1.71;stroke: #7CAE00;stroke-linecap: butt;"/>
<polyline points="65.27,50.64 68.00,50.64 70.74,50.64 73.48,50.64 76.21,50.64 78.95,50.64 81.69,50.64 84.43,50.64 87.16,50.64 89.90,50.64 92.64,50.64 95.37,50.64 98.11,50.64 100.85,50.64 103.58,50.64 106.32,50.65 109.06,50.65 111.79,50.65 114.53,50.65 117.27,50.65 120.01,50.65 122.74,50.65 125.48,50.65 128.22,50.65 130.95,50.65 133.69,50.65 136.43,50.65 139.16,50.65 141.90,50.65 144.64,50.65 147.38,50.65 150.11,50.65 152.85,50.65 155.59,50.65 158.32,50.65 161.06,50.65 163.80,50.65 166.53,50.65 169.27,50.65 172.01,50.65 174.74,50.65 177.48,50.65 180.22,50.65 182.96,50.65 185.69,50.65 188.43,50.65 191.17,50.65 193.90,50.65 196.64,50.65 199.38,50.65 202.11,50.65 204.85,50.65 207.59,50.65 210.32,50.65 213.06,50.65 215.80,50.65 218.54,50.65 221.27,50.65 224.01,50.66 226.75,50.66 229.48,50.66 232.22,50.66 234.96,50.66 237.69,50.66 240.43,50.66 243.17,50.66 245.91,50.66 248.64,50.66 251.38,50.66 254.12,50.66 256.85,50.66 259.59,50.66 262.33,50.66 265.06,50.66 267.80,50.66 270.54,50.66 273.27,50.66 276.01,50.66 278.75,50.66 281.49,50.66 284.22,50.66 286.96,50.66 289.70,50.66 292.43,50.67 295.17,50.67 297.91,50.67 300.64,50.67 303.38,50.67 306.12,50.67 308.86,50.67 311.59,50.67 314.33,50.67 317.07,50.67 319.80,50.67 322.54,50.67 325.28,50.67 328.01,50.67 330.75,50.68 333.49,50.68 336.22,50.68 338.96,50.68 341.70,50.68 344.44,50.68 347.17,50.68 349.91,50.68 352.65,50.68 355.38,50.69 358.12,50.69 360.86,50.69 363.59,50.69 366.33,50.69 369.07,50.69 371.80,50.70 374.54,50.70 377.28,50.70 380.02,50.70 382.75,50.71 385.49,50.71 388.23,50.71 390.96,50.71 393.70,50.72 396.44,50.72 399.17,50.73 401.91,50.73 404.65,50.74 407.39,50.74 410.12,50.75 412.86,50.75 415.60,50.76 418.33,50.77 421.07,50.78 423.81,50.79 426.54,50.80 429.28,50.81 432.02,50.83 434.75,50.84 437.49,50.86 440.23,50.88 442.97,50.91 445.70,50.94 448.44,50.97 451.18,51.01 453.91,51.05 456.65,51.10 459.39,51.16 462.12,51.23 464.86,51.31 467.60,51.41 470.34,51.52 473.07,51.66 475.81,51.83 478.55,52.03 481.28,52.28 484.02,52.58 486.76,52.96 489.49,53.42 492.23,54.00 494.97,54.72 497.70,55.62 500.44,56.77 503.18,58.24 505.92,60.11 508.65,62.50 511.39,65.58 514.13,69.53 516.86,74.59 519.60,81.02 522.34,89.10 525.07,99.13 527.81,111.36 530.55,125.99 533.28,143.10 536.02,162.62 538.76,184.32 541.50,207.80 544.23,232.53 546.97,257.88 549.71,283.22 552.44,307.93 555.18,331.50 557.92,353.53 560.65,373.75 563.39,392.01 566.13,408.29 568.87,422.61 571.60,435.10 574.34,445.91 577.08,455.19 579.81,463.12 582.55,469.86 585.29,475.58 588.02,480.42 590.76,484.51 593.50,487.96 596.23,490.87 598.97,493.32 601.71,495.39 604.45,497.14 607.18,498.61 609.92,499.86" style="stroke-width: 1.71;stroke: #00BFC4;stroke-linecap: butt;"/>
<polyline points="65.27,46.24 68.00,46.24 70.74,46.24 73.48,46.24 76.21,46.24 78.95,46.24 81.69,46.24 84.43,46.24 87.16,46.24 89.90,46.24 92.64,46.24 95.37,46.24 98.11,46.24 100.85,46.24 103.58,46.24 106.32,46.24 109.06,46.24 111.79,46.24 114.53,46.24 117.27,46.24 120.01,46.24 122.74,46.24 125.48,46.24 128.22,46.24 130.95,46.24 133.69,46.24 136.43,46.24 139.16,46.24 141.90,46.24 144.64,46.24 147.38,46.24 150.11,46.24 152.85,46.24 155.59,46.24 158.32,46.24 161.06,46.24 163.80,46.24 166.53,46.24 169.27,46.24 172.01,46.24 174.74,46.24 177.48,46.24 180.22,46.24 182.96,46.24 185.69,46.24 188.43,46.24 191.17,46.24 193.90,46.24 196.64,46.24 199.38,46.24 202.11,46.24 204.85,46.24 207.59,46.24 210.32,46.24 213.06,46.24 215.80,46.24 218.54,46.24 221.27,46.24 224.01,46.24 226.75,46.24 229.48,46.24 232.22,46.24 234.96,46.24 237.69,46.24 240.43,46.24 243.17,46.24 245.91,46.24 248.64,46.24 251.38,46.24 254.12,46.24 256.85,46.24 259.59,46.24 262.33,46.24 265.06,46.24 267.80,46.24 270.54,46.24 273.27,46.24 276.01,46.24 278.75,46.24 281.49,46.24 284.22,46.24 286.96,46.24 289.70,46.24 292.43,46.24 295.17,46.24 297.91,46.24 300.64,46.24 303.38,46.24 306.12,46.24 308.86,46.24 311.59,46.24 314.33,46.24 317.07,46.24 319.80,46.24 322.54,46.24 325.28,46.24 328.01,46.24 330.75,46.24 333.49,46.24 336.22,46.24 338.96,46.24 341.70,46.24 344.44,46.24 347.17,46.24 349.91,46.24 352.65,46.24 355.38,46.24 358.12,46.24 360.86,46.24 363.59,46.24 366.33,46.24 369.07,46.24 371.80,46.24 374.54,46.24 377.28,46.24 380.02,46.24 382.75,46.25 385.49,46.25 388.23,46.25 390.96,46.25 393.70,46.25 396.44,46.25 399.17,46.25 401.91,46.26 404.65,46.26 407.39,46.26 410.12,46.27 412.86,46.27 415.60,46.28 418.33,46.28 421.07,46.29 423.81,46.30 426.54,46.31 429.28,46.32 432.02,46.33 434.75,46.35 437.49,46.37 440.23,46.39 442.97,46.42 445.70,46.45 448.44,46.48 451.18,46.52 453.91,46.57 456.65,46.63 459.39,46.70 462.12,46.79 464.86,46.88 467.60,47.00 470.34,47.14 473.07,47.31 475.81,47.51 478.55,47.74 481.28,48.03 484.02,48.37 486.76,48.77 489.49,49.26 492.23,49.85 494.97,50.55 497.70,51.39 500.44,52.41 503.18,53.63 505.92,55.09 508.65,56.86 511.39,58.97 514.13,61.52 516.86,64.56 519.60,68.21 522.34,72.55 525.07,77.73 527.81,83.85 530.55,91.08 533.28,99.54 536.02,109.39 538.76,120.76 541.50,133.75 544.23,148.45 546.97,164.85 549.71,182.92 552.44,202.52 555.18,223.44 557.92,245.36 560.65,267.93 563.39,290.72 566.13,313.28 568.87,335.21 571.60,356.10 574.34,375.66 577.08,393.64 579.81,409.90 582.55,424.40 585.29,437.15 588.02,448.23 590.76,457.77 593.50,465.91 596.23,472.79 598.97,478.60 601.71,483.46 604.45,487.52 607.18,490.90 609.92,493.70" style="stroke-width: 1.71;stroke: #C77CFF;stroke-linecap: butt;"/>
</g><g clip-path="url(#c2)">
<g><text x="33.10" y="510.59" text-anchor="end" style="font-family: Arial;font-size: 8.80px;fill: #4D4D4D;" textLength="4.90px" lengthAdjust="spacingAndGlyphs">0</text></g>
<g><text x="33.10" y="395.29" text-anchor="end" style="font-family: Arial;font-size: 8.80px;fill: #4D4D4D;" textLength="9.79px" lengthAdjust="spacingAndGlyphs">25</text></g>
<g><text x="33.10" y="279.99" text-anchor="end" style="font-family: Arial;font-size: 8.80px;fill: #4D4D4D;" textLength="9.79px" lengthAdjust="spacingAndGlyphs">50</text></g>
<g><text x="33.10" y="164.69" text-anchor="end" style="font-family: Arial;font-size: 8.80px;fill: #4D4D4D;" textLength="9.79px" lengthAdjust="spacingAndGlyphs">75</text></g>
<g><text x="33.10" y="49.39" text-anchor="end" style="font-family: Arial;font-size: 8.80px;fill: #4D4D4D;" textLength="14.69px" lengthAdjust="spacingAndGlyphs">100</text></g>
<g><text x="59.92" y="541.74" text-anchor="middle" style="font-family: Arial;font-size: 8.80px;fill: #4D4D4D;" textLength="9.79px" lengthAdjust="spacingAndGlyphs">30</text></g>
<g><text x="217.59" y="541.74" text-anchor="middle" style="font-family: Arial;font-size: 8.80px;fill: #4D4D4D;" textLength="14.69px" lengthAdjust="spacingAndGlyphs">100</text></g>
<g><text x="361.47" y="541.74" text-anchor="middle" style="font-family: Arial;font-size: 8.80px;fill: #4D4D4D;" textLength="14.69px" lengthAdjust="spacingAndGlyphs">300</text></g>
<g><text x="519.14" y="541.74" text-anchor="middle" style="font-family: Arial;font-size: 8.80px;fill: #4D4D4D;" textLength="19.58px" lengthAdjust="spacingAndGlyphs">1000</text></g>
<g><text x="337.59" y="554.20" text-anchor="middle" style="font-family: Arial;font-size: 11.00px;" textLength="50.36px" lengthAdjust="spacingAndGlyphs">Dose [M]</text></g>
<g><text transform="translate(13.36,276.84) rotate(-90.00)" text-anchor="middle" style="font-family: Arial;font-size: 11.00px;" textLength="57.87px" lengthAdjust="spacingAndGlyphs">Viability (%)</text></g>
<g><text x="653.59" y="243.48" style="font-family: Arial;font-size: 11.00px;" textLength="74.02px" lengthAdjust="spacingAndGlyphs">Patient / Group</text></g>
<circle cx="662.23" cy="258.76" r="2.06" style="stroke-width: 0.71;stroke: #F8766D;stroke-opacity: 0.70;fill: #F8766D;fill-opacity: 0.70;"/>
<line x1="655.32" y1="258.76" x2="669.14" y2="258.76" style="stroke-width: 1.71;stroke: #F8766D;stroke-linecap: butt;"/>
<circle cx="662.23" cy="276.04" r="2.06" style="stroke-width: 0.71;stroke: #7CAE00;stroke-opacity: 0.70;fill: #7CAE00;fill-opacity: 0.70;"/>
<line x1="655.32" y1="276.04" x2="669.14" y2="276.04" style="stroke-width: 1.71;stroke: #7CAE00;stroke-linecap: butt;"/>
<circle cx="662.23" cy="293.32" r="2.06" style="stroke-width: 0.71;stroke: #00BFC4;stroke-opacity: 0.70;fill: #00BFC4;fill-opacity: 0.70;"/>
<line x1="655.32" y1="293.32" x2="669.14" y2="293.32" style="stroke-width: 1.71;stroke: #00BFC4;stroke-linecap: butt;"/>
<circle cx="662.23" cy="310.60" r="2.06" style="stroke-width: 0.71;stroke: #C77CFF;stroke-opacity: 0.70;fill: #C77CFF;fill-opacity: 0.70;"/>
<line x1="655.32" y1="310.60" x2="669.14" y2="310.60" style="stroke-width: 1.71;stroke: #C77CFF;stroke-linecap: butt;"/>
<g><text x="676.35" y="261.91" style="font-family: Arial;font-size: 8.80px;" textLength="68.00px" lengthAdjust="spacingAndGlyphs">ASC397.ASC397</text></g>
<g><text x="676.35" y="279.19" style="font-family: Arial;font-size: 8.80px;" textLength="81.69px" lengthAdjust="spacingAndGlyphs">ASC397.ASC397cse</text></g>
<g><text x="676.35" y="296.47" style="font-family: Arial;font-size: 8.80px;" textLength="68.00px" lengthAdjust="spacingAndGlyphs">ASC399.ASC399</text></g>
<g><text x="676.35" y="313.75" style="font-family: Arial;font-size: 8.80px;" textLength="81.69px" lengthAdjust="spacingAndGlyphs">ASC399.ASC399cse</text></g>
<g><text x="38.03" y="14.93" style="font-family: Arial;font-size: 13.20px;" textLength="202.37px" lengthAdjust="spacingAndGlyphs">H2O2 across patients &amp; conditions</text></g>
</g>
</svg>