<svg xmlns="http://www.w3.org/2000/svg" xmlns:xlink="http://www.w3.org/1999/xlink" class="httpgd" width="769.00" height="562.00" viewBox="0 0 769.00 562.00">
<defs>
  <style type='text/css'><![CDATA[
    .httpgd line, .httpgd polyline, .httpgd polygon, .httpgd path, .httpgd rect, .httpgd circle {
      fill: none;
      stroke: #000000;
      stroke-linecap: round;
      stroke-linejoin: round;
      stroke-miterlimit: 10.00;
    }
  ]]></style>
<clipPath id="c0"><rect x="0.00" y="0.00" width="769.00" height="562.00"/></clipPath>
<clipPath id="c1"><rect x="38.03" y="23.18" width="599.12" height="507.33"/></clipPath>
<clipPath id="c2"><rect x="0.00" y="0.00" width="769.00" height="562.00"/></clipPath>
</defs>
<rect width="100%" height="100%" style="stroke: none;fill: #FFFFFF;"/>
<g clip-path="url(#c0)">
</g><g clip-path="url(#c1)">
<polyline points="38.03,507.44 637.15,507.44" style="stroke-width: 1.07;stroke: #EBEBEB;stroke-linecap: butt;"/>
<polyline points="38.03,392.14 637.15,392.14" style="stroke-width: 1.07;stroke: #EBEBEB;stroke-linecap: butt;"/>
<polyline points="38.03,276.84 637.15,276.84" style="stroke-width: 1.07;stroke: #EBEBEB;stroke-linecap: butt;"/>
<polyline points="38.03,161.54 637.15,161.54" style="stroke-width: 1.07;stroke: #EBEBEB;stroke-linecap: butt;"/>
<polyline points="38.03,46.24 637.15,46.24" style="stroke-width: 1.07;stroke: #EBEBEB;stroke-linecap: butt;"/>
<polyline points="59.92,530.50 59.92,23.18" style="stroke-width: 1.07;stroke: #EBEBEB;stroke-linecap: butt;"/>
<polyline points="217.59,530.50 217.59,23.18" style="stroke-width: 1.07;stroke: #EBEBEB;stroke-linecap: butt;"/>
<polyline points="361.47,530.50 361.47,23.18" style="stroke-width: 1.07;stroke: #EBEBEB;stroke-linecap: butt;"/>
<polyline points="519.14,530.50 519.14,23.18" style="stroke-width: 1.07;stroke: #EBEBEB;stroke-linecap: butt;"/>
<polygon points="65.27,61.65 68.00,61.65 70.74,61.65 73.48,61.65 76.21,61.65 78.95,61.65 81.69,61.65 84.43,61.65 87.16,61.65 89.90,61.65 92.64,61.65 95.37,61.65 98.11,61.76 100.85,61.83 103.58,61.83 106.32,61.83 109.06,61.83 111.79,61.83 114.53,61.83 117.27,61.83 120.01,61.83 122.74,61.83 125.48,61.83 128.22,61.83 130.95,61.83 133.69,61.83 136.43,61.83 139.16,61.83 141.90,61.83 144.64,61.83 147.38,61.83 150.11,61.83 152.85,61.83 155.59,61.83 158.32,61.83 161.06,61.83 163.80,61.83 166.53,61.83 169.27,61.83 172.01,61.83 174.74,61.83 177.48,61.83 180.22,61.83 182.96,61.83 185.69,61.83 188.43,61.83 191.17,61.83 193.90,61.83 196.64,61.83 199.38,61.83 202.11,61.83 204.85,61.83 207.59,61.83 210.32,61.84 213.06,61.86 215.80,61.87 218.54,61.88 221.27,61.90 224.01,61.91 226.75,61.92 229.48,61.92 232.22,61.92 234.96,61.92 237.69,61.92 240.43,61.92 243.17,61.92 245.91,61.92 248.64,61.92 251.38,61.92 254.12,61.92 256.85,61.92 259.59,61.92 262.33,61.92 265.06,61.95 267.80,61.95 270.54,61.95 273.27,61.95 276.01,61.95 278.75,61.95 281.49,61.95 284.22,61.95 286.96,61.95 289.70,61.95 292.43,61.95 295.17,61.95 297.91,61.99 300.64,61.99 303.38,61.99 306.12,61.99 308.86,62.01 311.59,62.13 314.33,62.13 317.07,62.13 319.80,62.13 322.54,62.37 325.28,62.37 328.01,62.37 330.75,62.38 333.49,62.38 336.22,62.57 338.96,62.78 341.70,63.22 344.44,63.22 347.17,63.35 349.91,63.37 352.65,63.47 355.38,63.50 358.12,63.81 360.86,63.89 363.59,64.28 366.33,64.65 369.07,64.68 371.80,64.88 374.54,65.34 377.28,65.67 380.02,66.28 382.75,66.77 385.49,67.15 388.23,68.25 390.96,68.92 393.70,70.36 396.44,72.11 399.17,73.76 401.91,75.14 404.65,76.89 407.39,78.78 410.12,81.69 412.86,85.27 415.60,88.47 418.33,93.07 421.07,98.46 423.81,104.28 426.54,110.78 429.28,118.29 432.02,126.64 434.75,136.05 437.49,146.31 440.23,157.33 442.97,169.52 445.70,185.66 448.44,203.08 451.18,218.86 453.91,232.48 456.65,247.57 459.39,262.88 462.12,273.88 464.86,284.09 467.60,292.31 470.34,296.11 473.07,299.91 475.81,303.59 478.55,305.90 481.28,310.20 484.02,312.92 486.76,315.94 489.49,319.26 492.23,322.21 494.97,325.81 497.70,329.27 500.44,332.71 503.18,335.87 505.92,338.52 508.65,341.16 511.39,343.89 514.13,347.02 516.86,350.09 519.60,353.15 522.34,356.17 525.07,359.17 527.81,361.90 530.55,364.59 533.28,367.25 536.02,369.89 538.76,372.48 541.50,375.02 544.23,377.54 546.97,380.03 549.71,382.49 552.44,384.92 555.18,387.23 557.92,389.51 560.65,391.76 563.39,393.99 566.13,396.20 568.87,398.37 571.60,400.55 574.34,402.79 577.08,405.00 579.81,407.17 582.55,409.32 585.29,411.43 588.02,413.50 590.76,415.54 593.50,417.52 596.23,419.48 598.97,421.40 601.71,423.29 604.45,425.12 607.18,426.84 609.92,428.53 609.92,507.44 607.18,507.44 604.45,507.44 601.71,507.44 598.97,507.44 596.23,507.44 593.50,507.44 590.76,507.44 588.02,507.44 585.29,507.44 582.55,507.44 579.81,507.44 577.08,507.44 574.34,507.44 571.60,507.44 568.87,507.44 566.13,507.44 563.39,507.44 560.65,507.44 557.92,507.44 555.18,507.44 552.44,507.44 549.71,507.44 546.97,507.44 544.23,507.44 541.50,507.44 538.76,507.44 536.02,507.44 533.28,507.44 530.55,507.44 527.81,507.44 525.07,507.44 522.34,507.44 519.60,507.44 516.86,507.44 514.13,507.44 511.39,507.44 508.65,507.44 505.92,507.44 503.18,507.44 500.44,507.44 497.70,507.44 494.97,507.44 492.23,507.44 489.49,507.44 486.76,507.44 484.02,507.44 481.28,507.44 478.55,507.44 475.81,507.44 473.07,507.44 470.34,507.44 467.60,507.44 464.86,507.44 462.12,507.44 459.39,507.44 456.65,507.44 453.91,507.44 451.18,507.44 448.44,507.44 445.70,507.44 442.97,507.44 440.23,507.44 437.49,507.44 434.75,507.44 432.02,507.44 429.28,507.44 426.54,507.44 423.81,507.44 421.07,507.44 418.33,507.44 415.60,507.44 412.86,507.44 410.12,507.44 407.39,507.44 404.65,507.44 401.91,507.44 399.17,507.44 396.44,507.44 393.70,507.44 390.96,507.44 388.23,507.44 385.49,507.44 382.75,507.44 380.02,507.44 377.28,507.44 374.54,507.44 371.80,507.43 369.07,507.42 366.33,507.38 363.59,507.27 360.86,506.98 358.12,506.15 355.38,504.02 352.65,498.52 349.91,485.85 347.17,457.59 344.44,401.81 341.70,314.86 338.96,283.56 336.22,261.26 333.49,258.59 330.75,248.26 328.01,235.75 325.28,224.88 322.54,206.58 319.80,201.72 317.07,190.61 314.33,184.52 311.59,178.03 308.86,172.97 306.12,167.62 303.38,163.61 300.64,158.95 297.91,157.40 295.17,155.87 292.43,154.37 289.70,152.90 286.96,151.45 284.22,150.03 281.49,148.63 278.75,145.86 276.01,144.01 273.27,142.68 270.54,141.37 267.80,140.09 265.06,138.83 262.33,137.61 259.59,136.41 256.85,135.23 254.12,133.10 251.38,132.49 248.64,131.87 245.91,130.81 243.17,129.77 240.43,128.77 237.69,127.78 234.96,126.82 232.22,125.88 229.48,124.96 226.75,124.42 224.01,124.24 221.27,124.24 218.54,124.24 215.80,124.02 213.06,123.34 210.32,122.59 207.59,122.21 204.85,121.84 202.11,121.64 199.38,121.64 196.64,121.54 193.90,121.05 191.17,120.58 188.43,120.33 185.69,120.33 182.96,120.33 180.22,120.33 177.48,120.33 174.74,120.15 172.01,119.97 169.27,119.64 166.53,119.44 163.80,119.39 161.06,119.27 158.32,119.16 155.59,118.88 152.85,118.55 150.11,118.50 147.38,118.29 144.64,118.29 141.90,118.29 139.16,118.29 136.43,118.29 133.69,118.29 130.95,118.29 128.22,118.16 125.48,118.16 122.74,118.16 120.01,118.12 117.27,118.02 114.53,118.02 111.79,118.02 109.06,118.02 106.32,118.02 103.58,118.02 100.85,118.00 98.11,117.77 95.37,117.71 92.64,117.49 89.90,117.49 87.16,117.42 84.43,117.18 81.69,116.97 78.95,116.70 76.21,116.42 73.48,116.21 70.74,116.03 68.00,115.88 65.27,115.75" style="stroke-width: 0.00;stroke: none;stroke-linecap: butt;fill: #F8766D;fill-opacity: 0.20;" />
<polyline points="65.27,61.65 68.00,61.65 70.74,61.65 73.48,61.65 76.21,61.65 78.95,61.65 81.69,61.65 84.43,61.65 87.16,61.65 89.90,61.65 92.64,61.65 95.37,61.65 98.11,61.76 100.85,61.83 103.58,61.83 106.32,61.83 109.06,61.83 111.79,61.83 114.53,61.83 117.27,61.83 120.01,61.83 122.74,61.83 125.48,61.83 128.22,61.83 130.95,61.83 133.69,61.83 136.43,61.83 139.16,61.83 141.90,61.83 144.64,61.83 147.38,61.83 150.11,61.83 152.85,61.83 155.59,61.83 158.32,61.83 161.06,61.83 163.80,61.83 166.53,61.83 169.27,61.83 172.01,61.83 174.74,61.83 177.48,61.83 180.22,61.83 182.96,61.83 185.69,61.83 188.43,61.83 191.17,61.83 193.90,61.83 196.64,61.83 199.38,61.83 202.11,61.83 204.85,61.83 207.59,61.83 210.32,61.84 213.06,61.86 215.80,61.87 218.54,61.88 221.27,61.90 224.01,61.91 226.75,61.92 229.48,61.92 232.22,61.92 234.96,61.92 237.69,61.92 240.43,61.92 243.17,61.92 245.91,61.92 248.64,61.92 251.38,61.92 254.12,61.92 256.85,61.92 259.59,61.92 262.33,61.92 265.06,61.95 267.80,61.95 270.54,61.95 273.27,61.95 276.01,61.95 278.75,61.95 281.49,61.95 284.22,61.95 286.96,61.95 289.70,61.95 292.43,61.95 295.17,61.95 297.91,61.99 300.64,61.99 303.38,61.99 306.12,61.99 308.86,62.01 311.59,62.13 314.33,62.13 317.07,62.13 319.80,62.13 322.54,62.37 325.28,62.37 328.01,62.37 330.75,62.38 333.49,62.38 336.22,62.57 338.96,62.78 341.70,63.22 344.44,63.22 347.17,63.35 349.91,63.37 352.65,63.47 355.38,63.50 358.12,63.81 360.86,63.89 363.59,64.28 366.33,64.65 369.07,64.68 371.80,64.88 374.54,65.34 377.28,65.67 380.02,66.28 382.75,66.77 385.49,67.15 388.23,68.25 390.96,68.92 393.70,70.36 396.44,72.11 399.17,73.76 401.91,75.14 404.65,76.89 407.39,78.78 410.12,81.69 412.86,85.27 415.60,88.47 418.33,93.07 421.07,98.46 423.81,104.28 426.54,110.78 429.28,118.29 432.02,126.64 434.75,136.05 437.49,146.31 440.23,157.33 442.97,169.52 445.70,185.66 448.44,203.08 451.18,218.86 453.91,232.48 456.65,247.57 459.39,262.88 462.12,273.88 464.86,284.09 467.60,292.31 470.34,296.11 473.07,299.91 475.81,303.59 478.55,305.90 481.28,310.20 484.02,312.92 486.76,315.94 489.49,319.26 492.23,322.21 494.97,325.81 497.70,329.27 500.44,332.71 503.18,335.87 505.92,338.52 508.65,341.16 511.39,343.89 514.13,347.02 516.86,350.09 519.60,353.15 522.34,356.17 525.07,359.17 527.81,361.90 530.55,364.59 533.28,367.25 536.02,369.89 538.76,372.48 541.50,375.02 544.23,377.54 546.97,380.03 549.71,382.49 552.44,384.92 555.18,387.23 557.92,389.51 560.65,391.76 563.39,393.99 566.13,396.20 568.87,398.37 571.60,400.55 574.34,402.79 577.08,405.00 579.81,407.17 582.55,409.32 585.29,411.43 588.02,413.50 590.76,415.54 593.50,417.52 596.23,419.48 598.97,421.40 601.71,423.29 604.45,425.12 607.18,426.84 609.92,428.53" style="stroke-width: 1.07;stroke: none;stroke-linecap: butt;"/>
<polyline points="609.92,507.44 607.18,507.44 604.45,507.44 601.71,507.44 598.97,507.44 596.23,507.44 593.50,507.44 590.76,507.44 588.02,507.44 585.29,507.44 582.55,507.44 579.81,507.44 577.08,507.44 574.34,507.44 571.60,507.44 568.87,507.44 566.13,507.44 563.39,507.44 560.65,507.44 557.92,507.44 555.18,507.44 552.44,507.44 549.71,507.44 546.97,507.44 544.23,507.44 541.50,507.44 538.76,507.44 536.02,507.44 533.28,507.44 530.55,507.44 527.81,507.44 525.07,507.44 522.34,507.44 519.60,507.44 516.86,507.44 514.13,507.44 511.39,507.44 508.65,507.44 505.92,507.44 503.18,507.44 500.44,507.44 497.70,507.44 494.97,507.44 492.23,507.44 489.49,507.44 486.76,507.44 484.02,507.44 481.28,507.44 478.55,507.44 475.81,507.44 473.07,507.44 470.34,507.44 467.60,507.44 464.86,507.44 462.12,507.44 459.39,507.44 456.65,507.44 453.91,507.44 451.18,507.44 448.44,507.44 445.70,507.44 442.97,507.44 440.23,507.44 437.49,507.44 434.75,507.44 432.02,507.44 429.28,507.44 426.54,507.44 423.81,507.44 421.07,507.44 418.33,507.44 415.60,507.44 412.86,507.44 410.12,507.44 407.39,507.44 404.65,507.44 401.91,507.44 399.17,507.44 396.44,507.44 393.70,507.44 390.96,507.44 388.23,507.44 385.49,507.44 382.75,507.44 380.02,507.44 377.28,507.44 374.54,507.44 371.80,507.43 369.07,507.42 366.33,507.38 363.59,507.27 360.86,506.98 358.12,506.15 355.38,504.02 352.65,498.52 349.91,485.85 347.17,457.59 344.44,401.81 341.70,314.86 338.96,283.56 336.22,261.26 333.49,258.59 330.75,248.26 328.01,235.75 325.28,224.88 322.54,206.58 319.80,201.72 317.07,190.61 314.33,184.52 311.59,178.03 308.86,172.97 306.12,167.62 303.38,163.61 300.64,158.95 297.91,157.40 295.17,155.87 292.43,154.37 289.70,152.90 286.96,151.45 284.22,150.03 281.49,148.63 278.75,145.86 276.01,144.01 273.27,142.68 270.54,141.37 267.80,140.09 265.06,138.83 262.33,137.61 259.59,136.41 256.85,135.23 254.12,133.10 251.38,132.49 248.64,131.87 245.91,130.81 243.17,129.77 240.43,128.77 237.69,127.78 234.96,126.82 232.22,125.88 229.48,124.96 226.75,124.42 224.01,124.24 221.27,124.24 218.54,124.24 215.80,124.02 213.06,123.34 210.32,122.59 207.59,122.21 204.85,121.84 202.11,121.64 199.38,121.64 196.64,121.54 193.90,121.05 191.17,120.58 188.43,120.33 185.69,120.33 182.96,120.33 180.22,120.33 177.48,120.33 174.74,120.15 172.01,119.97 169.27,119.64 166.53,119.44 163.80,119.39 161.06,119.27 158.32,119.16 155.59,118.88 152.85,118.55 150.11,118.50 147.38,118.29 144.64,118.29 141.90,118.29 139.16,118.29 136.43,118.29 133.69,118.29 130.95,118.29 128.22,118.16 125.48,118.16 122.74,118.16 120.01,118.12 117.27,118.02 114.53,118.02 111.79,118.02 109.06,118.02 106.32,118.02 103.58,118.02 100.85,118.00 98.11,117.77 95.37,117.71 92.64,117.49 89.90,117.49 87.16,117.42 84.43,117.18 81.69,116.97 78.95,116.70 76.21,116.42 73.48,116.21 70.74,116.03 68.00,115.88 65.27,115.75" style="stroke-width: 1.07;stroke: none;stroke-linecap: butt;"/>
<polygon points="65.27,60.69 68.00,60.69 70.74,60.69 73.48,60.69 76.21,60.69 78.95,60.69 81.69,60.69 84.43,60.69 87.16,60.69 89.90,60.69 92.64,60.69 95.37,60.69 98.11,60.69 100.85,60.69 103.58,60.69 106.32,60.69 109.06,60.69 111.79,60.69 114.53,60.69 117.27,60.69 120.01,60.69 122.74,60.69 125.48,60.69 128.22,60.69 130.95,60.69 133.69,60.69 136.43,60.69 139.16,60.69 141.90,60.69 144.64,60.69 147.38,60.69 150.11,60.69 152.85,60.69 155.59,60.69 158.32,60.69 161.06,60.69 163.80,60.69 166.53,60.69 169.27,60.69 172.01,60.69 174.74,60.69 177.48,60.69 180.22,60.69 182.96,60.69 185.69,60.70 188.43,60.70 191.17,60.70 193.90,60.70 196.64,60.72 199.38,60.75 202.11,60.77 204.85,60.77 207.59,60.77 210.32,60.77 213.06,60.77 215.80,60.77 218.54,60.77 221.27,60.77 224.01,60.78 226.75,60.78 229.48,60.78 232.22,60.79 234.96,60.81 237.69,60.83 240.43,60.85 243.17,60.87 245.91,60.89 248.64,60.89 251.38,60.89 254.12,60.89 256.85,60.89 259.59,60.89 262.33,60.89 265.06,60.90 267.80,60.90 270.54,60.90 273.27,60.90 276.01,60.90 278.75,60.90 281.49,60.91 284.22,60.91 286.96,60.92 289.70,60.92 292.43,60.93 295.17,60.93 297.91,60.94 300.64,60.94 303.38,60.94 306.12,60.94 308.86,60.94 311.59,60.94 314.33,60.94 317.07,60.94 319.80,60.94 322.54,60.94 325.28,60.94 328.01,60.94 330.75,60.94 333.49,60.94 336.22,60.94 338.96,60.94 341.70,60.94 344.44,60.94 347.17,60.94 349.91,60.94 352.65,60.94 355.38,60.94 358.12,60.96 360.86,61.02 363.59,61.02 366.33,61.02 369.07,61.04 371.80,61.16 374.54,61.22 377.28,61.22 380.02,61.22 382.75,61.25 385.49,61.33 388.23,61.56 390.96,61.73 393.70,61.85 396.44,61.92 399.17,62.16 401.91,62.55 404.65,63.40 407.39,64.65 410.12,67.47 412.86,73.17 415.60,82.69 418.33,97.87 421.07,120.76 423.81,151.40 426.54,185.20 429.28,219.73 432.02,249.25 434.75,270.91 437.49,283.66 440.23,288.17 442.97,290.25 445.70,292.90 448.44,295.65 451.18,298.38 453.91,301.10 456.65,303.81 459.39,306.52 462.12,309.23 464.86,311.95 467.60,314.68 470.34,317.40 473.07,320.12 475.81,322.82 478.55,325.51 481.28,328.19 484.02,330.86 486.76,333.51 489.49,336.15 492.23,338.77 494.97,341.38 497.70,343.98 500.44,346.55 503.18,349.11 505.92,351.65 508.65,354.17 511.39,356.67 514.13,359.15 516.86,361.65 519.60,364.12 522.34,366.56 525.07,368.99 527.81,371.39 530.55,373.77 533.28,376.13 536.02,378.46 538.76,380.77 541.50,383.05 544.23,385.31 546.97,387.54 549.71,389.74 552.44,391.92 555.18,394.07 557.92,396.20 560.65,398.30 563.39,400.37 566.13,402.42 568.87,404.43 571.60,406.43 574.34,408.39 577.08,410.33 579.81,412.23 582.55,414.12 585.29,415.97 588.02,417.80 590.76,419.60 593.50,421.37 596.23,423.11 598.97,424.83 601.71,426.52 604.45,428.18 607.18,429.82 609.92,431.43 609.92,507.44 607.18,507.44 604.45,507.44 601.71,507.44 598.97,507.44 596.23,507.44 593.50,507.44 590.76,507.44 588.02,507.44 585.29,507.44 582.55,507.44 579.81,507.44 577.08,507.44 574.34,507.44 571.60,507.44 568.87,507.44 566.13,507.44 563.39,507.44 560.65,507.44 557.92,507.44 555.18,507.44 552.44,507.44 549.71,507.44 546.97,507.44 544.23,507.44 541.50,507.44 538.76,507.44 536.02,507.44 533.28,507.44 530.55,507.44 527.81,507.44 525.07,507.44 522.34,507.44 519.60,507.44 516.86,507.44 514.13,507.44 511.39,507.44 508.65,507.44 505.92,507.44 503.18,507.44 500.44,507.44 497.70,507.44 494.97,507.44 492.23,507.44 489.49,507.44 486.76,507.44 484.02,507.44 481.28,507.44 478.55,507.44 475.81,507.44 473.07,507.44 470.34,507.44 467.60,507.44 464.86,507.44 462.12,507.44 459.39,507.44 456.65,507.44 453.91,507.44 451.18,507.43 448.44,507.42 445.70,507.38 442.97,507.27 440.23,506.96 437.49,506.11 434.75,503.78 432.02,497.48 429.28,481.15 426.54,441.67 423.81,363.89 421.07,275.58 418.33,263.77 415.60,260.90 412.86,258.08 410.12,255.39 407.39,252.68 404.65,249.99 401.91,247.30 399.17,244.63 396.44,241.96 393.70,239.31 390.96,236.67 388.23,234.05 385.49,231.44 382.75,228.85 380.02,226.27 377.28,223.71 374.54,221.16 371.80,218.64 369.07,216.13 366.33,213.64 363.59,211.17 360.86,208.72 358.12,206.29 355.38,203.88 352.65,201.50 349.91,199.13 347.17,196.79 344.44,194.47 341.70,192.17 338.96,189.90 336.22,187.65 333.49,185.42 330.75,183.22 328.01,181.05 325.28,178.89 322.54,176.77 319.80,174.67 317.07,172.59 314.33,170.54 311.59,168.51 308.86,166.51 306.12,164.54 303.38,162.59 300.64,160.67 297.91,158.78 295.17,156.91 292.43,155.07 289.70,153.25 286.96,151.46 284.22,149.70 281.49,147.96 278.75,146.25 276.01,144.57 273.27,142.91 270.54,141.27 267.80,139.66 265.06,138.08 262.33,136.53 259.59,134.99 256.85,133.49 254.12,132.01 251.38,130.55 248.64,129.12 245.91,127.71 243.17,126.33 240.43,124.97 237.69,123.64 234.96,122.32 232.22,121.04 229.48,119.77 226.75,118.53 224.01,117.31 221.27,116.11 218.54,114.94 215.80,113.78 213.06,112.65 210.32,111.54 207.59,110.45 204.85,109.39 202.11,108.34 199.38,107.31 196.64,106.30 193.90,105.32 191.17,104.35 188.43,103.40 185.69,102.47 182.96,101.56 180.22,100.66 177.48,99.79 174.74,98.93 172.01,98.09 169.27,97.27 166.53,96.46 163.80,95.67 161.06,94.90 158.32,94.14 155.59,93.40 152.85,92.68 150.11,91.96 147.38,91.27 144.64,90.59 141.90,89.92 139.16,89.27 136.43,88.64 133.69,88.04 130.95,87.46 128.22,86.88 125.48,86.33 122.74,85.78 120.01,85.25 117.27,84.72 114.53,84.21 111.79,83.72 109.06,83.23 106.32,82.75 103.58,82.28 100.85,81.82 98.11,81.40 95.37,80.99 92.64,80.60 89.90,80.22 87.16,79.84 84.43,79.47 81.69,79.12 78.95,78.77 76.21,78.43 73.48,78.09 70.74,77.77 68.00,77.45 65.27,77.15" style="stroke-width: 0.00;stroke: none;stroke-linecap: butt;fill: #7CAE00;fill-opacity: 0.20;" />
<polyline points="65.27,60.69 68.00,60.69 70.74,60.69 73.48,60.69 76.21,60.69 78.95,60.69 81.69,60.69 84.43,60.69 87.16,60.69 89.90,60.69 92.64,60.69 95.37,60.69 98.11,60.69 100.85,60.69 103.58,60.69 106.32,60.69 109.06,60.69 111.79,60.69 114.53,60.69 117.27,60.69 120.01,60.69 122.74,60.69 125.48,60.69 128.22,60.69 130.95,60.69 133.69,60.69 136.43,60.69 139.16,60.69 141.90,60.69 144.64,60.69 147.38,60.69 150.11,60.69 152.85,60.69 155.59,60.69 158.32,60.69 161.06,60.69 163.80,60.69 166.53,60.69 169.27,60.69 172.01,60.69 174.74,60.69 177.48,60.69 180.22,60.69 182.96,60.69 185.69,60.70 188.43,60.70 191.17,60.70 193.90,60.70 196.64,60.72 199.38,60.75 202.11,60.77 204.85,60.77 207.59,60.77 210.32,60.77 213.06,60.77 215.80,60.77 218.54,60.77 221.27,60.77 224.01,60.78 226.75,60.78 229.48,60.78 232.22,60.79 234.96,60.81 237.69,60.83 240.43,60.85 243.17,60.87 245.91,60.89 248.64,60.89 251.38,60.89 254.12,60.89 256.85,60.89 259.59,60.89 262.33,60.89 265.06,60.90 267.80,60.90 270.54,60.90 273.27,60.90 276.01,60.90 278.75,60.90 281.49,60.91 284.22,60.91 286.96,60.92 289.70,60.92 292.43,60.93 295.17,60.93 297.91,60.94 300.64,60.94 303.38,60.94 306.12,60.94 308.86,60.94 311.59,60.94 314.33,60.94 317.07,60.94 319.80,60.94 322.54,60.94 325.28,60.94 328.01,60.94 330.75,60.94 333.49,60.94 336.22,60.94 338.96,60.94 341.70,60.94 344.44,60.94 347.17,60.94 349.91,60.94 352.65,60.94 355.38,60.94 358.12,60.96 360.86,61.02 363.59,61.02 366.33,61.02 369.07,61.04 371.80,61.16 374.54,61.22 377.28,61.22 380.02,61.22 382.75,61.25 385.49,61.33 388.23,61.56 390.96,61.73 393.70,61.85 396.44,61.92 399.17,62.16 401.91,62.55 404.65,63.40 407.39,64.65 410.12,67.47 412.86,73.17 415.60,82.69 418.33,97.87 421.07,120.76 423.81,151.40 426.54,185.20 429.28,219.73 432.02,249.25 434.75,270.91 437.49,283.66 440.23,288.17 442.97,290.25 445.70,292.90 448.44,295.65 451.18,298.38 453.91,301.10 456.65,303.81 459.39,306.52 462.12,309.23 464.86,311.95 467.60,314.68 470.34,317.40 473.07,320.12 475.81,322.82 478.55,325.51 481.28,328.19 484.02,330.86 486.76,333.51 489.49,336.15 492.23,338.77 494.97,341.38 497.70,343.98 500.44,346.55 503.18,349.11 505.92,351.65 508.65,354.17 511.39,356.67 514.13,359.15 516.86,361.65 519.60,364.12 522.34,366.56 525.07,368.99 527.81,371.39 530.55,373.77 533.28,376.13 536.02,378.46 538.76,380.77 541.50,383.05 544.23,385.31 546.97,387.54 549.71,389.74 552.44,391.92 555.18,394.07 557.92,396.20 560.65,398.30 563.39,400.37 566.13,402.42 568.87,404.43 571.60,406.43 574.34,408.39 577.08,410.33 579.81,412.23 582.55,414.12 585.29,415.97 588.02,417.80 590.76,419.60 593.50,421.37 596.23,423.11 598.97,424.83 601.71,426.52 604.45,428.18 607.18,429.82 609.92,431.43" style="stroke-width: 1.07;stroke: none;stroke-linecap: butt;"/>
<polyline points="609.92,507.44 607.18,507.44 604.45,507.44 601.71,507.44 598.97,507.44 596.23,507.44 593.50,507.44 590.76,507.44 588.02,507.44 585.29,507.44 582.55,507.44 579.81,507.44 577.08,507.44 574.34,507.44 571.60,507.44 568.87,507.44 566.13,507.44 563.39,507.44 560.65,507.44 557.92,507.44 555.18,507.44 552.44,507.44 549.71,507.44 546.97,507.44 544.23,507.44 541.50,507.44 538.76,507.44 536.02,507.44 533.28,507.44 530.55,507.44 527.81,507.44 525.07,507.44 522.34,507.44 519.60,507.44 516.86,507.44 514.13,507.44 511.39,507.44 508.65,507.44 505.92,507.44 503.18,507.44 500.44,507.44 497.70,507.44 494.97,507.44 492.23,507.44 489.49,507.44 486.76,507.44 484.02,507.44 481.28,507.44 478.55,507.44 475.81,507.44 473.07,507.44 470.34,507.44 467.60,507.44 464.86,507.44 462.12,507.44 459.39,507.44 456.65,507.44 453.91,507.44 451.18,507.43 448.44,507.42 445.70,507.38 442.97,507.27 440.23,506.96 437.49,506.11 434.75,503.78 432.02,497.48 429.28,481.15 426.54,441.67 423.81,363.89 421.07,275.58 418.33,263.77 415.60,260.90 412.86,258.08 410.12,255.39 407.39,252.68 404.65,249.99 401.91,247.30 399.17,244.63 396.44,241.96 393.70,239.31 390.96,236.67 388.23,234.05 385.49,231.44 382.75,228.85 380.02,226.27 377.28,223.71 374.54,221.16 371.80,218.64 369.07,216.13 366.33,213.64 363.59,211.17 360.86,208.72 358.12,206.29 355.38,203.88 352.65,201.50 349.91,199.13 347.17,196.79 344.44,194.47 341.70,192.17 338.96,189.90 336.22,187.65 333.49,185.42 330.75,183.22 328.01,181.05 325.28,178.89 322.54,176.77 319.80,174.67 317.07,172.59 314.33,170.54 311.59,168.51 308.86,166.51 306.12,164.54 303.38,162.59 300.64,160.67 297.91,158.78 295.17,156.91 292.43,155.07 289.70,153.25 286.96,151.46 284.22,149.70 281.49,147.96 278.75,146.25 276.01,144.57 273.27,142.91 270.54,141.27 267.80,139.66 265.06,138.08 262.33,136.53 259.59,134.99 256.85,133.49 254.12,132.01 251.38,130.55 248.64,129.12 245.91,127.71 243.17,126.33 240.43,124.97 237.69,123.64 234.96,122.32 232.22,121.04 229.48,119.77 226.75,118.53 224.01,117.31 221.27,116.11 218.54,114.94 215.80,113.78 213.06,112.65 210.32,111.54 207.59,110.45 204.85,109.39 202.11,108.34 199.38,107.31 196.64,106.30 193.90,105.32 191.17,104.35 188.43,103.40 185.69,102.47 182.96,101.56 180.22,100.66 177.48,99.79 174.74,98.93 172.01,98.09 169.27,97.27 166.53,96.46 163.80,95.67 161.06,94.90 158.32,94.14 155.59,93.40 152.85,92.68 150.11,91.96 147.38,91.27 144.64,90.59 141.90,89.92 139.16,89.27 136.43,88.64 133.69,88.04 130.95,87.46 128.22,86.88 125.48,86.33 122.74,85.78 120.01,85.25 117.27,84.72 114.53,84.21 111.79,83.72 109.06,83.23 106.32,82.75 103.58,82.28 100.85,81.82 98.11,81.40 95.37,80.99 92.64,80.60 89.90,80.22 87.16,79.84 84.43,79.47 81.69,79.12 78.95,78.77 76.21,78.43 73.48,78.09 70.74,77.77 68.00,77.45 65.27,77.15" style="stroke-width: 1.07;stroke: none;stroke-linecap: butt;"/>
<polygon points="65.27,65.35 68.00,65.36 70.74,65.38 73.48,65.39 76.21,65.41 78.95,65.42 81.69,65.44 84.43,65.46 87.16,65.48 89.90,65.50 92.64,65.52 95.37,65.52 98.11,65.52 100.85,65.52 103.58,65.52 106.32,65.52 109.06,65.52 111.79,65.52 114.53,65.52 117.27,65.52 120.01,65.52 122.74,65.52 125.48,65.52 128.22,65.52 130.95,65.52 133.69,65.52 136.43,65.52 139.16,65.52 141.90,65.52 144.64,65.52 147.38,65.52 150.11,65.52 152.85,65.52 155.59,65.52 158.32,65.52 161.06,65.52 163.80,65.52 166.53,65.52 169.27,65.52 172.01,65.52 174.74,65.52 177.48,65.53 180.22,65.54 182.96,65.54 185.69,65.54 188.43,65.54 191.17,65.54 193.90,65.57 196.64,65.63 199.38,65.63 202.11,65.63 204.85,65.63 207.59,65.65 210.32,65.65 213.06,65.65 215.80,65.65 218.54,65.65 221.27,65.65 224.01,65.65 226.75,65.67 229.48,65.73 232.22,65.89 234.96,66.05 237.69,66.05 240.43,66.06 243.17,66.15 245.91,66.17 248.64,66.17 251.38,66.18 254.12,66.18 256.85,66.18 259.59,66.18 262.33,66.19 265.06,66.19 267.80,66.21 270.54,66.45 273.27,66.57 276.01,66.57 278.75,66.57 281.49,66.57 284.22,66.58 286.96,66.66 289.70,66.66 292.43,66.66 295.17,66.88 297.91,66.90 300.64,66.91 303.38,66.93 306.12,66.96 308.86,67.15 311.59,67.23 314.33,67.32 317.07,67.44 319.80,67.56 322.54,67.70 325.28,67.85 328.01,68.03 330.75,68.06 333.49,68.35 336.22,68.73 338.96,68.91 341.70,69.06 344.44,69.46 347.17,69.85 349.91,70.29 352.65,70.61 355.38,71.21 358.12,71.36 360.86,71.80 363.59,72.61 366.33,73.18 369.07,73.88 371.80,74.68 374.54,75.96 377.28,77.48 380.02,78.69 382.75,80.06 385.49,81.81 388.23,83.91 390.96,86.12 393.70,88.69 396.44,91.76 399.17,95.15 401.91,99.47 404.65,104.38 407.39,109.79 410.12,116.05 412.86,122.25 415.60,130.34 418.33,138.94 421.07,148.78 423.81,159.59 426.54,171.80 429.28,185.09 432.02,197.62 434.75,211.62 437.49,224.72 440.23,238.66 442.97,251.77 445.70,264.10 448.44,275.57 451.18,284.04 453.91,289.76 456.65,294.20 459.39,297.76 462.12,300.31 464.86,302.47 467.60,304.92 470.34,306.44 473.07,308.43 475.81,309.66 478.55,311.23 481.28,312.76 484.02,314.08 486.76,315.52 489.49,317.28 492.23,319.15 494.97,320.97 497.70,322.69 500.44,323.72 503.18,324.67 505.92,326.30 508.65,327.68 511.39,328.86 514.13,330.34 516.86,332.08 519.60,333.37 522.34,334.89 525.07,336.42 527.81,337.98 530.55,339.49 533.28,340.99 536.02,342.51 538.76,344.02 541.50,345.52 544.23,346.80 546.97,347.95 549.71,349.38 552.44,350.80 555.18,352.21 557.92,353.64 560.65,355.10 563.39,356.55 566.13,358.00 568.87,359.44 571.60,360.87 574.34,362.30 577.08,363.72 579.81,365.13 582.55,366.53 585.29,367.93 588.02,369.19 590.76,370.40 593.50,371.59 596.23,372.79 598.97,373.97 601.71,375.16 604.45,376.33 607.18,377.50 609.92,378.83 609.92,507.44 607.18,507.44 604.45,507.44 601.71,507.44 598.97,507.44 596.23,507.44 593.50,507.44 590.76,507.44 588.02,507.44 585.29,507.44 582.55,507.44 579.81,507.44 577.08,507.44 574.34,507.44 571.60,507.44 568.87,507.44 566.13,507.44 563.39,507.44 560.65,507.44 557.92,507.44 555.18,507.44 552.44,507.44 549.71,507.44 546.97,507.44 544.23,507.44 541.50,507.44 538.76,507.44 536.02,507.44 533.28,507.44 530.55,507.44 527.81,507.44 525.07,507.44 522.34,507.44 519.60,507.44 516.86,507.44 514.13,507.44 511.39,507.44 508.65,507.44 505.92,507.43 503.18,507.43 500.44,507.43 497.70,507.42 494.97,507.41 492.23,507.39 489.49,507.37 486.76,507.34 484.02,507.30 481.28,507.24 478.55,507.16 475.81,507.05 473.07,506.90 470.34,506.69 467.60,506.40 464.86,506.00 462.12,505.44 459.39,504.60 456.65,503.53 453.91,502.02 451.18,499.86 448.44,496.85 445.70,492.90 442.97,487.47 440.23,480.39 437.49,470.76 434.75,458.11 432.02,442.35 429.28,422.59 426.54,398.83 423.81,370.36 421.07,334.52 418.33,305.49 415.60,291.67 412.86,286.22 410.12,281.89 407.39,278.37 404.65,275.18 401.91,271.85 399.17,269.01 396.44,267.56 393.70,266.24 390.96,264.89 388.23,262.88 385.49,261.39 382.75,259.52 380.02,258.17 377.28,256.13 374.54,254.34 371.80,252.83 369.07,251.32 366.33,249.82 363.59,248.33 360.86,246.84 358.12,245.35 355.38,243.90 352.65,242.47 349.91,241.04 347.17,239.67 344.44,238.45 341.70,237.24 338.96,236.03 336.22,234.82 333.49,233.62 330.75,232.42 328.01,231.12 325.28,229.59 322.54,228.06 319.80,226.52 317.07,224.99 314.33,223.57 311.59,222.25 308.86,221.02 306.12,219.80 303.38,218.59 300.64,217.37 297.91,216.12 295.17,214.88 292.43,213.65 289.70,212.42 286.96,211.20 284.22,209.98 281.49,208.77 278.75,207.56 276.01,206.35 273.27,205.15 270.54,203.96 267.80,202.77 265.06,201.59 262.33,200.42 259.59,199.26 256.85,198.10 254.12,196.95 251.38,195.79 248.64,194.62 245.91,193.47 243.17,192.33 240.43,191.21 237.69,190.14 234.96,189.04 232.22,187.96 229.48,186.89 226.75,185.81 224.01,184.74 221.27,183.67 218.54,182.64 215.80,181.62 213.06,180.62 210.32,179.58 207.59,178.54 204.85,177.54 202.11,176.55 199.38,175.57 196.64,174.60 193.90,173.63 191.17,172.68 188.43,171.73 185.69,170.77 182.96,169.83 180.22,168.90 177.48,167.97 174.74,167.05 172.01,166.14 169.27,165.23 166.53,164.33 163.80,163.44 161.06,162.56 158.32,161.68 155.59,160.82 152.85,159.96 150.11,159.10 147.38,158.26 144.64,157.41 141.90,156.57 139.16,155.74 136.43,154.92 133.69,154.10 130.95,153.29 128.22,152.48 125.48,151.69 122.74,150.90 120.01,150.11 117.27,149.34 114.53,148.57 111.79,147.81 109.06,147.02 106.32,146.23 103.58,145.44 100.85,144.65 98.11,143.92 95.37,143.20 92.64,142.70 89.90,142.07 87.16,141.77 84.43,141.74 81.69,141.68 78.95,141.27 76.21,140.90 73.48,140.77 70.74,140.77 68.00,140.77 65.27,140.77" style="stroke-width: 0.00;stroke: none;stroke-linecap: butt;fill: #00BFC4;fill-opacity: 0.20;" />
<polyline points="65.27,65.35 68.00,65.36 70.74,65.38 73.48,65.39 76.21,65.41 78.95,65.42 81.69,65.44 84.43,65.46 87.16,65.48 89.90,65.50 92.64,65.52 95.37,65.52 98.11,65.52 100.85,65.52 103.58,65.52 106.32,65.52 109.06,65.52 111.79,65.52 114.53,65.52 117.27,65.52 120.01,65.52 122.74,65.52 125.48,65.52 128.22,65.52 130.95,65.52 133.69,65.52 136.43,65.52 139.16,65.52 141.90,65.52 144.64,65.52 147.38,65.52 150.11,65.52 152.85,65.52 155.59,65.52 158.32,65.52 161.06,65.52 163.80,65.52 166.53,65.52 169.27,65.52 172.01,65.52 174.74,65.52 177.48,65.53 180.22,65.54 182.96,65.54 185.69,65.54 188.43,65.54 191.17,65.54 193.90,65.57 196.64,65.63 199.38,65.63 202.11,65.63 204.85,65.63 207.59,65.65 210.32,65.65 213.06,65.65 215.80,65.65 218.54,65.65 221.27,65.65 224.01,65.65 226.75,65.67 229.48,65.73 232.22,65.89 234.96,66.05 237.69,66.05 240.43,66.06 243.17,66.15 245.91,66.17 248.64,66.17 251.38,66.18 254.12,66.18 256.85,66.18 259.59,66.18 262.33,66.19 265.06,66.19 267.80,66.21 270.54,66.45 273.27,66.57 276.01,66.57 278.75,66.57 281.49,66.57 284.22,66.58 286.96,66.66 289.70,66.66 292.43,66.66 295.17,66.88 297.91,66.90 300.64,66.91 303.38,66.93 306.12,66.96 308.86,67.15 311.59,67.23 314.33,67.32 317.07,67.44 319.80,67.56 322.54,67.70 325.28,67.85 328.01,68.03 330.75,68.06 333.49,68.35 336.22,68.73 338.96,68.91 341.70,69.06 344.44,69.46 347.17,69.85 349.91,70.29 352.65,70.61 355.38,71.21 358.12,71.36 360.86,71.80 363.59,72.61 366.33,73.18 369.07,73.88 371.80,74.68 374.54,75.96 377.28,77.48 380.02,78.69 382.75,80.06 385.49,81.81 388.23,83.91 390.96,86.12 393.70,88.69 396.44,91.76 399.17,95.15 401.91,99.47 404.65,104.38 407.39,109.79 410.12,116.05 412.86,122.25 415.60,130.34 418.33,138.94 421.07,148.78 423.81,159.59 426.54,171.80 429.28,185.09 432.02,197.62 434.75,211.62 437.49,224.72 440.23,238.66 442.97,251.77 445.70,264.10 448.44,275.57 451.18,284.04 453.91,289.76 456.65,294.20 459.39,297.76 462.12,300.31 464.86,302.47 467.60,304.92 470.34,306.44 473.07,308.43 475.81,309.66 478.55,311.23 481.28,312.76 484.02,314.08 486.76,315.52 489.49,317.28 492.23,319.15 494.97,320.97 497.70,322.69 500.44,323.72 503.18,324.67 505.92,326.30 508.65,327.68 511.39,328.86 514.13,330.34 516.86,332.08 519.60,333.37 522.34,334.89 525.07,336.42 527.81,337.98 530.55,339.49 533.28,340.99 536.02,342.51 538.76,344.02 541.50,345.52 544.23,346.80 546.97,347.95 549.71,349.38 552.44,350.80 555.18,352.21 557.92,353.64 560.65,355.10 563.39,356.55 566.13,358.00 568.87,359.44 571.60,360.87 574.34,362.30 577.08,363.72 579.81,365.13 582.55,366.53 585.29,367.93 588.02,369.19 590.76,370.40 593.50,371.59 596.23,372.79 598.97,373.97 601.71,375.16 604.45,376.33 607.18,377.50 609.92,378.83" style="stroke-width: 1.07;stroke: none;stroke-linecap: butt;"/>
<polyline points="609.92,507.44 607.18,507.44 604.45,507.44 601.71,507.44 598.97,507.44 596.23,507.44 593.50,507.44 590.76,507.44 588.02,507.44 585.29,507.44 582.55,507.44 579.81,507.44 577.08,507.44 574.34,507.44 571.60,507.44 568.87,507.44 566.13,507.44 563.39,507.44 560.65,507.44 557.92,507.44 555.18,507.44 552.44,507.44 549.71,507.44 546.97,507.44 544.23,507.44 541.50,507.44 538.76,507.44 536.02,507.44 533.28,507.44 530.55,507.44 527.81,507.44 525.07,507.44 522.34,507.44 519.60,507.44 516.86,507.44 514.13,507.44 511.39,507.44 508.65,507.44 505.92,507.43 503.18,507.43 500.44,507.43 497.70,507.42 494.97,507.41 492.23,507.39 489.49,507.37 486.76,507.34 484.02,507.30 481.28,507.24 478.55,507.16 475.81,507.05 473.07,506.90 470.34,506.69 467.60,506.40 464.86,506.00 462.12,505.44 459.39,504.60 456.65,503.53 453.91,502.02 451.18,499.86 448.44,496.85 445.70,492.90 442.97,487.47 440.23,480.39 437.49,470.76 434.75,458.11 432.02,442.35 429.28,422.59 426.54,398.83 423.81,370.36 421.07,334.52 418.33,305.49 415.60,291.67 412.86,286.22 410.12,281.89 407.39,278.37 404.65,275.18 401.91,271.85 399.17,269.01 396.44,267.56 393.70,266.24 390.96,264.89 388.23,262.88 385.49,261.39 382.75,259.52 380.02,258.17 377.28,256.13 374.54,254.34 371.80,252.83 369.07,251.32 366.33,249.82 363.59,248.33 360.86,246.84 358.12,245.35 355.38,243.90 352.65,242.47 349.91,241.04 347.17,239.67 344.44,238.45 341.70,237.24 338.96,236.03 336.22,234.82 333.49,233.62 330.75,232.42 328.01,231.12 325.28,229.59 322.54,228.06 319.80,226.52 317.07,224.99 314.33,223.57 311.59,222.25 308.86,221.02 306.12,219.80 303.38,218.59 300.64,217.37 297.91,216.12 295.17,214.88 292.43,213.65 289.70,212.42 286.96,211.20 284.22,209.98 281.49,208.77 278.75,207.56 276.01,206.35 273.27,205.15 270.54,203.96 267.80,202.77 265.06,201.59 262.33,200.42 259.59,199.26 256.85,198.10 254.12,196.95 251.38,195.79 248.64,194.62 245.91,193.47 243.17,192.33 240.43,191.21 237.69,190.14 234.96,189.04 232.22,187.96 229.48,186.89 226.75,185.81 224.01,184.74 221.27,183.67 218.54,182.64 215.80,181.62 213.06,180.62 210.32,179.58 207.59,178.54 204.85,177.54 202.11,176.55 199.38,175.57 196.64,174.60 193.90,173.63 191.17,172.68 188.43,171.73 185.69,170.77 182.96,169.83 180.22,168.90 177.48,167.97 174.74,167.05 172.01,166.14 169.27,165.23 166.53,164.33 163.80,163.44 161.06,162.56 158.32,161.68 155.59,160.82 152.85,159.96 150.11,159.10 147.38,158.26 144.64,157.41 141.90,156.57 139.16,155.74 136.43,154.92 133.69,154.10 130.95,153.29 128.22,152.48 125.48,151.69 122.74,150.90 120.01,150.11 117.27,149.34 114.53,148.57 111.79,147.81 109.06,147.02 106.32,146.23 103.58,145.44 100.85,144.65 98.11,143.92 95.37,143.20 92.64,142.70 89.90,142.07 87.16,141.77 84.43,141.74 81.69,141.68 78.95,141.27 76.21,140.90 73.48,140.77 70.74,140.77 68.00,140.77 65.27,140.77" style="stroke-width: 1.07;stroke: none;stroke-linecap: butt;"/>
<polygon points="65.27,46.24 68.00,46.24 70.74,46.24 73.48,46.24 76.21,46.24 78.95,46.24 81.69,46.24 84.43,46.24 87.16,46.24 89.90,46.24 92.64,46.24 95.37,46.24 98.11,46.24 100.85,46.24 103.58,46.24 106.32,46.24 109.06,46.24 111.79,46.24 114.53,46.24 117.27,46.24 120.01,46.24 122.74,46.24 125.48,46.24 128.22,46.24 130.95,46.24 133.69,46.24 136.43,46.24 139.16,46.24 141.90,46.24 144.64,46.24 147.38,46.24 150.11,46.24 152.85,46.24 155.59,46.24 158.32,46.24 161.06,46.24 163.80,46.24 166.53,46.24 169.27,46.24 172.01,46.24 174.74,46.24 177.48,46.24 180.22,46.24 182.96,46.24 185.69,46.24 188.43,46.24 191.17,46.24 193.90,46.24 196.64,46.24 199.38,46.24 202.11,46.24 204.85,46.24 207.59,46.24 210.32,46.24 213.06,46.24 215.80,46.24 218.54,46.24 221.27,46.24 224.01,46.24 226.75,46.24 229.48,46.24 232.22,46.24 234.96,46.24 237.69,46.24 240.43,46.24 243.17,46.24 245.91,46.24 248.64,46.24 251.38,46.24 254.12,46.24 256.85,46.24 259.59,46.24 262.33,46.24 265.06,46.24 267.80,46.24 270.54,46.24 273.27,46.24 276.01,46.24 278.75,46.24 281.49,46.24 284.22,46.24 286.96,46.24 289.70,46.24 292.43,46.24 295.17,46.24 297.91,46.24 300.64,46.24 303.38,46.24 306.12,46.24 308.86,46.24 311.59,46.24 314.33,46.24 317.07,46.24 319.80,46.24 322.54,46.24 325.28,46.24 328.01,46.24 330.75,46.24 333.49,46.24 336.22,46.24 338.96,46.24 341.70,46.24 344.44,46.24 347.17,46.24 349.91,46.24 352.65,46.24 355.38,46.24 358.12,46.24 360.86,46.24 363.59,46.24 366.33,46.24 369.07,46.24 371.80,46.24 374.54,46.24 377.28,46.24 380.02,46.24 382.75,46.24 385.49,46.25 388.23,46.26 390.96,46.29 393.70,46.37 396.44,46.56 399.17,46.98 401.91,47.84 404.65,49.56 407.39,52.80 410.12,58.68 412.86,68.40 415.60,82.77 418.33,103.09 421.07,128.49 423.81,158.04 426.54,188.52 429.28,216.87 432.02,241.47 434.75,259.71 437.49,271.65 440.23,276.92 442.97,279.71 445.70,282.36 448.44,285.00 451.18,287.64 453.91,290.28 456.65,292.92 459.39,295.55 462.12,298.18 464.86,300.80 467.60,303.41 470.34,306.05 473.07,308.70 475.81,311.32 478.55,313.91 481.28,316.50 484.02,319.07 486.76,321.64 489.49,324.19 492.23,326.73 494.97,329.26 497.70,331.78 500.44,334.28 503.18,336.77 505.92,339.24 508.65,341.70 511.39,344.14 514.13,346.56 516.86,348.97 519.60,351.36 522.34,353.74 525.07,356.09 527.81,358.43 530.55,360.74 533.28,363.04 536.02,365.32 538.76,367.58 541.50,369.82 544.23,372.03 546.97,374.23 549.71,376.40 552.44,378.56 555.18,380.69 557.92,382.80 560.65,384.88 563.39,386.95 566.13,388.99 568.87,391.01 571.60,393.01 574.34,394.98 577.08,396.93 579.81,398.86 582.55,400.76 585.29,402.64 588.02,404.50 590.76,406.33 593.50,408.14 596.23,409.92 598.97,411.69 601.71,413.42 604.45,415.14 607.18,416.83 609.92,418.50 609.92,507.44 607.18,507.44 604.45,507.44 601.71,507.44 598.97,507.44 596.23,507.44 593.50,507.44 590.76,507.44 588.02,507.44 585.29,507.44 582.55,507.44 579.81,507.44 577.08,507.44 574.34,507.44 571.60,507.44 568.87,507.44 566.13,507.44 563.39,507.44 560.65,507.44 557.92,507.44 555.18,507.44 552.44,507.44 549.71,507.44 546.97,507.44 544.23,507.44 541.50,507.44 538.76,507.44 536.02,507.44 533.28,507.44 530.55,507.44 527.81,507.44 525.07,507.44 522.34,507.44 519.60,507.44 516.86,507.44 514.13,507.44 511.39,507.44 508.65,507.44 505.92,507.44 503.18,507.44 500.44,507.44 497.70,507.44 494.97,507.44 492.23,507.44 489.49,507.44 486.76,507.44 484.02,507.44 481.28,507.44 478.55,507.44 475.81,507.44 473.07,507.44 470.34,507.44 467.60,507.44 464.86,507.44 462.12,507.44 459.39,507.44 456.65,507.44 453.91,507.44 451.18,507.44 448.44,507.44 445.70,507.43 442.97,507.40 440.23,507.34 437.49,507.17 434.75,506.72 432.02,505.54 429.28,502.44 426.54,494.46 423.81,474.71 421.07,430.07 418.33,347.33 415.60,264.52 412.86,250.25 410.12,247.64 407.39,245.03 404.65,242.43 401.91,239.85 399.17,237.27 396.44,234.71 393.70,232.15 390.96,229.61 388.23,227.08 385.49,224.56 382.75,222.05 380.02,219.56 377.28,217.08 374.54,214.62 371.80,212.17 369.07,209.74 366.33,207.32 363.59,204.92 360.86,202.54 358.12,200.17 355.38,197.82 352.65,195.50 349.91,193.19 347.17,190.90 344.44,188.62 341.70,186.37 338.96,184.13 336.22,181.91 333.49,179.71 330.75,177.54 328.01,175.38 325.28,173.25 322.54,171.13 319.80,169.04 317.07,166.98 314.33,164.93 311.59,162.91 308.86,160.91 306.12,158.94 303.38,156.98 300.64,155.05 297.91,153.15 295.17,151.26 292.43,149.41 289.70,147.57 286.96,145.76 284.22,143.97 281.49,142.20 278.75,140.46 276.01,138.75 273.27,137.05 270.54,135.38 267.80,133.73 265.06,132.11 262.33,130.51 259.59,128.93 256.85,127.38 254.12,125.85 251.38,124.34 248.64,122.85 245.91,121.39 243.17,119.95 240.43,118.54 237.69,117.14 234.96,115.77 232.22,114.42 229.48,113.09 226.75,111.78 224.01,110.49 221.27,109.23 218.54,107.98 215.80,106.76 213.06,105.56 210.32,104.38 207.59,103.21 204.85,102.07 202.11,100.95 199.38,99.85 196.64,98.76 193.90,97.70 191.17,96.65 188.43,95.63 185.69,94.62 182.96,93.63 180.22,92.66 177.48,91.70 174.74,90.77 172.01,89.85 169.27,88.95 166.53,88.06 163.80,87.19 161.06,86.34 158.32,85.50 155.59,84.68 152.85,83.88 150.11,83.09 147.38,82.31 144.64,81.55 141.90,80.81 139.16,80.08 136.43,79.36 133.69,78.66 130.95,77.97 128.22,77.30 125.48,76.63 122.74,75.99 120.01,75.35 117.27,74.73 114.53,74.12 111.79,73.52 109.06,72.93 106.32,72.36 103.58,71.80 100.85,71.25 98.11,70.71 95.37,70.18 92.64,69.66 89.90,69.15 87.16,68.65 84.43,68.17 81.69,67.69 78.95,67.22 76.21,66.77 73.48,66.32 70.74,65.88 68.00,65.45 65.27,65.03" style="stroke-width: 0.00;stroke: none;stroke-linecap: butt;fill: #C77CFF;fill-opacity: 0.20;" />
<polyline points="65.27,46.24 68.00,46.24 70.74,46.24 73.48,46.24 76.21,46.24 78.95,46.24 81.69,46.24 84.43,46.24 87.16,46.24 89.90,46.24 92.64,46.24 95.37,46.24 98.11,46.24 100.85,46.24 103.58,46.24 106.32,46.24 109.06,46.24 111.79,46.24 114.53,46.24 117.27,46.24 120.01,46.24 122.74,46.24 125.48,46.24 128.22,46.24 130.95,46.24 133.69,46.24 136.43,46.24 139.16,46.24 141.90,46.24 144.64,46.24 147.38,46.24 150.11,46.24 152.85,46.24 155.59,46.24 158.32,46.24 161.06,46.24 163.80,46.24 166.53,46.24 169.27,46.24 172.01,46.24 174.74,46.24 177.48,46.24 180.22,46.24 182.96,46.24 185.69,46.24 188.43,46.24 191.17,46.24 193.90,46.24 196.64,46.24 199.38,46.24 202.11,46.24 204.85,46.24 207.59,46.24 210.32,46.24 213.06,46.24 215.80,46.24 218.54,46.24 221.27,46.24 224.01,46.24 226.75,46.24 229.48,46.24 232.22,46.24 234.96,46.24 237.69,46.24 240.43,46.24 243.17,46.24 245.91,46.24 248.64,46.24 251.38,46.24 254.12,46.24 256.85,46.24 259.59,46.24 262.33,46.24 265.06,46.24 267.80,46.24 270.54,46.24 273.27,46.24 276.01,46.24 278.75,46.24 281.49,46.24 284.22,46.24 286.96,46.24 289.70,46.24 292.43,46.24 295.17,46.24 297.91,46.24 300.64,46.24 303.38,46.24 306.12,46.24 308.86,46.24 311.59,46.24 314.33,46.24 317.07,46.24 319.80,46.24 322.54,46.24 325.28,46.24 328.01,46.24 330.75,46.24 333.49,46.24 336.22,46.24 338.96,46.24 341.70,46.24 344.44,46.24 347.17,46.24 349.91,46.24 352.65,46.24 355.38,46.24 358.12,46.24 360.86,46.24 363.59,46.24 366.33,46.24 369.07,46.24 371.80,46.24 374.54,46.24 377.28,46.24 380.02,46.24 382.75,46.24 385.49,46.25 388.23,46.26 390.96,46.29 393.70,46.37 396.44,46.56 399.17,46.98 401.91,47.84 404.65,49.56 407.39,52.80 410.12,58.68 412.86,68.40 415.60,82.77 418.33,103.09 421.07,128.49 423.81,158.04 426.54,188.52 429.28,216.87 432.02,241.47 434.75,259.71 437.49,271.65 440.23,276.92 442.97,279.71 445.70,282.36 448.44,285.00 451.18,287.64 453.91,290.28 456.65,292.92 459.39,295.55 462.12,298.18 464.86,300.80 467.60,303.41 470.34,306.05 473.07,308.70 475.81,311.32 478.55,313.91 481.28,316.50 484.02,319.07 486.76,321.64 489.49,324.19 492.23,326.73 494.97,329.26 497.70,331.78 500.44,334.28 503.18,336.77 505.92,339.24 508.65,341.70 511.39,344.14 514.13,346.56 516.86,348.97 519.60,351.36 522.34,353.74 525.07,356.09 527.81,358.43 530.55,360.74 533.28,363.04 536.02,365.32 538.76,367.58 541.50,369.82 544.23,372.03 546.97,374.23 549.71,376.40 552.44,378.56 555.18,380.69 557.92,382.80 560.65,384.88 563.39,386.95 566.13,388.99 568.87,391.01 571.60,393.01 574.34,394.98 577.08,396.93 579.81,398.86 582.55,400.76 585.29,402.64 588.02,404.50 590.76,406.33 593.50,408.14 596.23,409.92 598.97,411.69 601.71,413.42 604.45,415.14 607.18,416.83 609.92,418.50" style="stroke-width: 1.07;stroke: none;stroke-linecap: butt;"/>
<polyline points="609.92,507.44 607.18,507.44 604.45,507.44 601.71,507.44 598.97,507.44 596.23,507.44 593.50,507.44 590.76,507.44 588.02,507.44 585.29,507.44 582.55,507.44 579.81,507.44 577.08,507.44 574.34,507.44 571.60,507.44 568.87,507.44 566.13,507.44 563.39,507.44 560.65,507.44 557.92,507.44 555.18,507.44 552.44,507.44 549.71,507.44 546.97,507.44 544.23,507.44 541.50,507.44 538.76,507.44 536.02,507.44 533.28,507.44 530.55,507.44 527.81,507.44 525.07,507.44 522.34,507.44 519.60,507.44 516.86,507.44 514.13,507.44 511.39,507.44 508.65,507.44 505.92,507.44 503.18,507.44 500.44,507.44 497.70,507.44 494.97,507.44 492.23,507.44 489.49,507.44 486.76,507.44 484.02,507.44 481.28,507.44 478.55,507.44 475.81,507.44 473.07,507.44 470.34,507.44 467.60,507.44 464.86,507.44 462.12,507.44 459.39,507.44 456.65,507.44 453.91,507.44 451.18,507.44 448.44,507.44 445.70,507.43 442.97,507.40 440.23,507.34 437.49,507.17 434.75,506.72 432.02,505.54 429.28,502.44 426.54,494.46 423.81,474.71 421.07,430.07 418.33,347.33 415.60,264.52 412.86,250.25 410.12,247.64 407.39,245.03 404.65,242.43 401.91,239.85 399.17,237.27 396.44,234.71 393.70,232.15 390.96,229.61 388.23,227.08 385.49,224.56 382.75,222.05 380.02,219.56 377.28,217.08 374.54,214.62 371.80,212.17 369.07,209.74 366.33,207.32 363.59,204.92 360.86,202.54 358.12,200.17 355.38,197.82 352.65,195.50 349.91,193.19 347.17,190.90 344.44,188.62 341.70,186.37 338.96,184.13 336.22,181.91 333.49,179.71 330.75,177.54 328.01,175.38 325.28,173.25 322.54,171.13 319.80,169.04 317.07,166.98 314.33,164.93 311.59,162.91 308.86,160.91 306.12,158.94 303.38,156.98 300.64,155.05 297.91,153.15 295.17,151.26 292.43,149.41 289.70,147.57 286.96,145.76 284.22,143.97 281.49,142.20 278.75,140.46 276.01,138.75 273.27,137.05 270.54,135.38 267.80,133.73 265.06,132.11 262.33,130.51 259.59,128.93 256.85,127.38 254.12,125.85 251.38,124.34 248.64,122.85 245.91,121.39 243.17,119.95 240.43,118.54 237.69,117.14 234.96,115.77 232.22,114.42 229.48,113.09 226.75,111.78 224.01,110.49 221.27,109.23 218.54,107.98 215.80,106.76 213.06,105.56 210.32,104.38 207.59,103.21 204.85,102.07 202.11,100.95 199.38,99.85 196.64,98.76 193.90,97.70 191.17,96.65 188.43,95.63 185.69,94.62 182.96,93.63 180.22,92.66 177.48,91.70 174.74,90.77 172.01,89.85 169.27,88.95 166.53,88.06 163.80,87.19 161.06,86.34 158.32,85.50 155.59,84.68 152.85,83.88 150.11,83.09 147.38,82.31 144.64,81.55 141.90,80.81 139.16,80.08 136.43,79.36 133.69,78.66 130.95,77.97 128.22,77.30 125.48,76.63 122.74,75.99 120.01,75.35 117.27,74.73 114.53,74.12 111.79,73.52 109.06,72.93 106.32,72.36 103.58,71.80 100.85,71.25 98.11,70.71 95.37,70.18 92.64,69.66 89.90,69.15 87.16,68.65 84.43,68.17 81.69,67.69 78.95,67.22 76.21,66.77 73.48,66.32 70.74,65.88 68.00,65.45 65.27,65.03" style="stroke-width: 1.07;stroke: none;stroke-linecap: butt;"/>
<circle cx="65.27" cy="97.48" r="2.06" style="stroke-width: 0.71;stroke: #F8766D;stroke-opacity: 0.70;fill: #F8766D;fill-opacity: 0.70;"/>
<circle cx="65.27" cy="58.86" r="2.06" style="stroke-width: 0.71;stroke: #F8766D;stroke-opacity: 0.70;fill: #F8766D;fill-opacity: 0.70;"/>
<circle cx="65.27" cy="46.24" r="2.06" style="stroke-width: 0.71;stroke: #F8766D;stroke-opacity: 0.70;fill: #F8766D;fill-opacity: 0.70;"/>
<circle cx="65.27" cy="46.24" r="2.06" style="stroke-width: 0.71;stroke: #7CAE00;stroke-opacity: 0.70;fill: #7CAE00;fill-opacity: 0.70;"/>
<circle cx="65.27" cy="59.88" r="2.06" style="stroke-width: 0.71;stroke: #7CAE00;stroke-opacity: 0.70;fill: #7CAE00;fill-opacity: 0.70;"/>
<circle cx="65.27" cy="98.28" r="2.06" style="stroke-width: 0.71;stroke: #7CAE00;stroke-opacity: 0.70;fill: #7CAE00;fill-opacity: 0.70;"/>
<circle cx="65.27" cy="82.62" r="2.06" style="stroke-width: 0.71;stroke: #00BFC4;stroke-opacity: 0.70;fill: #00BFC4;fill-opacity: 0.70;"/>
<circle cx="65.27" cy="66.20" r="2.06" style="stroke-width: 0.71;stroke: #00BFC4;stroke-opacity: 0.70;fill: #00BFC4;fill-opacity: 0.70;"/>
<circle cx="65.27" cy="72.04" r="2.06" style="stroke-width: 0.71;stroke: #00BFC4;stroke-opacity: 0.70;fill: #00BFC4;fill-opacity: 0.70;"/>
<circle cx="65.27" cy="70.11" r="2.06" style="stroke-width: 0.71;stroke: #C77CFF;stroke-opacity: 0.70;fill: #C77CFF;fill-opacity: 0.70;"/>
<circle cx="65.27" cy="56.58" r="2.06" style="stroke-width: 0.71;stroke: #C77CFF;stroke-opacity: 0.70;fill: #C77CFF;fill-opacity: 0.70;"/>
<circle cx="65.27" cy="53.79" r="2.06" style="stroke-width: 0.71;stroke: #C77CFF;stroke-opacity: 0.70;fill: #C77CFF;fill-opacity: 0.70;"/>
<circle cx="156.04" cy="78.38" r="2.06" style="stroke-width: 0.71;stroke: #F8766D;stroke-opacity: 0.70;fill: #F8766D;fill-opacity: 0.70;"/>
<circle cx="156.04" cy="62.94" r="2.06" style="stroke-width: 0.71;stroke: #F8766D;stroke-opacity: 0.70;fill: #F8766D;fill-opacity: 0.70;"/>
<circle cx="156.04" cy="54.16" r="2.06" style="stroke-width: 0.71;stroke: #F8766D;stroke-opacity: 0.70;fill: #F8766D;fill-opacity: 0.70;"/>
<circle cx="156.04" cy="76.42" r="2.06" style="stroke-width: 0.71;stroke: #7CAE00;stroke-opacity: 0.70;fill: #7CAE00;fill-opacity: 0.70;"/>
<circle cx="156.04" cy="46.24" r="2.06" style="stroke-width: 0.71;stroke: #7CAE00;stroke-opacity: 0.70;fill: #7CAE00;fill-opacity: 0.70;"/>
<circle cx="156.04" cy="70.28" r="2.06" style="stroke-width: 0.71;stroke: #7CAE00;stroke-opacity: 0.70;fill: #7CAE00;fill-opacity: 0.70;"/>
<circle cx="156.04" cy="104.33" r="2.06" style="stroke-width: 0.71;stroke: #00BFC4;stroke-opacity: 0.70;fill: #00BFC4;fill-opacity: 0.70;"/>
<circle cx="156.04" cy="74.43" r="2.06" style="stroke-width: 0.71;stroke: #00BFC4;stroke-opacity: 0.70;fill: #00BFC4;fill-opacity: 0.70;"/>
<circle cx="156.04" cy="89.45" r="2.06" style="stroke-width: 0.71;stroke: #00BFC4;stroke-opacity: 0.70;fill: #00BFC4;fill-opacity: 0.70;"/>
<circle cx="156.04" cy="46.24" r="2.06" style="stroke-width: 0.71;stroke: #C77CFF;stroke-opacity: 0.70;fill: #C77CFF;fill-opacity: 0.70;"/>
<circle cx="156.04" cy="46.24" r="2.06" style="stroke-width: 0.71;stroke: #C77CFF;stroke-opacity: 0.70;fill: #C77CFF;fill-opacity: 0.70;"/>
<circle cx="156.04" cy="46.24" r="2.06" style="stroke-width: 0.71;stroke: #C77CFF;stroke-opacity: 0.70;fill: #C77CFF;fill-opacity: 0.70;"/>
<circle cx="246.82" cy="82.79" r="2.06" style="stroke-width: 0.71;stroke: #F8766D;stroke-opacity: 0.70;fill: #F8766D;fill-opacity: 0.70;"/>
<circle cx="246.82" cy="75.64" r="2.06" style="stroke-width: 0.71;stroke: #F8766D;stroke-opacity: 0.70;fill: #F8766D;fill-opacity: 0.70;"/>
<circle cx="246.82" cy="92.22" r="2.06" style="stroke-width: 0.71;stroke: #F8766D;stroke-opacity: 0.70;fill: #F8766D;fill-opacity: 0.70;"/>
<circle cx="246.82" cy="84.18" r="2.06" style="stroke-width: 0.71;stroke: #7CAE00;stroke-opacity: 0.70;fill: #7CAE00;fill-opacity: 0.70;"/>
<circle cx="246.82" cy="63.72" r="2.06" style="stroke-width: 0.71;stroke: #7CAE00;stroke-opacity: 0.70;fill: #7CAE00;fill-opacity: 0.70;"/>
<circle cx="246.82" cy="69.47" r="2.06" style="stroke-width: 0.71;stroke: #7CAE00;stroke-opacity: 0.70;fill: #7CAE00;fill-opacity: 0.70;"/>
<circle cx="246.82" cy="86.19" r="2.06" style="stroke-width: 0.71;stroke: #00BFC4;stroke-opacity: 0.70;fill: #00BFC4;fill-opacity: 0.70;"/>
<circle cx="246.82" cy="84.96" r="2.06" style="stroke-width: 0.71;stroke: #00BFC4;stroke-opacity: 0.70;fill: #00BFC4;fill-opacity: 0.70;"/>
<circle cx="246.82" cy="89.62" r="2.06" style="stroke-width: 0.71;stroke: #00BFC4;stroke-opacity: 0.70;fill: #00BFC4;fill-opacity: 0.70;"/>
<circle cx="246.82" cy="46.24" r="2.06" style="stroke-width: 0.71;stroke: #C77CFF;stroke-opacity: 0.70;fill: #C77CFF;fill-opacity: 0.70;"/>
<circle cx="246.82" cy="46.24" r="2.06" style="stroke-width: 0.71;stroke: #C77CFF;stroke-opacity: 0.70;fill: #C77CFF;fill-opacity: 0.70;"/>
<circle cx="246.82" cy="46.24" r="2.06" style="stroke-width: 0.71;stroke: #C77CFF;stroke-opacity: 0.70;fill: #C77CFF;fill-opacity: 0.70;"/>
<circle cx="337.59" cy="138.42" r="2.06" style="stroke-width: 0.71;stroke: #F8766D;stroke-opacity: 0.70;fill: #F8766D;fill-opacity: 0.70;"/>
<circle cx="337.59" cy="126.50" r="2.06" style="stroke-width: 0.71;stroke: #F8766D;stroke-opacity: 0.70;fill: #F8766D;fill-opacity: 0.70;"/>
<circle cx="337.59" cy="115.75" r="2.06" style="stroke-width: 0.71;stroke: #F8766D;stroke-opacity: 0.70;fill: #F8766D;fill-opacity: 0.70;"/>
<circle cx="337.59" cy="46.24" r="2.06" style="stroke-width: 0.71;stroke: #7CAE00;stroke-opacity: 0.70;fill: #7CAE00;fill-opacity: 0.70;"/>
<circle cx="337.59" cy="61.54" r="2.06" style="stroke-width: 0.71;stroke: #7CAE00;stroke-opacity: 0.70;fill: #7CAE00;fill-opacity: 0.70;"/>
<circle cx="337.59" cy="154.23" r="2.06" style="stroke-width: 0.71;stroke: #7CAE00;stroke-opacity: 0.70;fill: #7CAE00;fill-opacity: 0.70;"/>
<circle cx="337.59" cy="72.67" r="2.06" style="stroke-width: 0.71;stroke: #00BFC4;stroke-opacity: 0.70;fill: #00BFC4;fill-opacity: 0.70;"/>
<circle cx="337.59" cy="171.69" r="2.06" style="stroke-width: 0.71;stroke: #00BFC4;stroke-opacity: 0.70;fill: #00BFC4;fill-opacity: 0.70;"/>
<circle cx="337.59" cy="175.96" r="2.06" style="stroke-width: 0.71;stroke: #00BFC4;stroke-opacity: 0.70;fill: #00BFC4;fill-opacity: 0.70;"/>
<circle cx="337.59" cy="46.24" r="2.06" style="stroke-width: 0.71;stroke: #C77CFF;stroke-opacity: 0.70;fill: #C77CFF;fill-opacity: 0.70;"/>
<circle cx="337.59" cy="46.24" r="2.06" style="stroke-width: 0.71;stroke: #C77CFF;stroke-opacity: 0.70;fill: #C77CFF;fill-opacity: 0.70;"/>
<circle cx="337.59" cy="46.24" r="2.06" style="stroke-width: 0.71;stroke: #C77CFF;stroke-opacity: 0.70;fill: #C77CFF;fill-opacity: 0.70;"/>
<circle cx="428.37" cy="257.36" r="2.06" style="stroke-width: 0.71;stroke: #F8766D;stroke-opacity: 0.70;fill: #F8766D;fill-opacity: 0.70;"/>
<circle cx="428.37" cy="155.23" r="2.06" style="stroke-width: 0.71;stroke: #F8766D;stroke-opacity: 0.70;fill: #F8766D;fill-opacity: 0.70;"/>
<circle cx="428.37" cy="145.10" r="2.06" style="stroke-width: 0.71;stroke: #F8766D;stroke-opacity: 0.70;fill: #F8766D;fill-opacity: 0.70;"/>
<circle cx="428.37" cy="202.61" r="2.06" style="stroke-width: 0.71;stroke: #7CAE00;stroke-opacity: 0.70;fill: #7CAE00;fill-opacity: 0.70;"/>
<circle cx="428.37" cy="216.80" r="2.06" style="stroke-width: 0.71;stroke: #7CAE00;stroke-opacity: 0.70;fill: #7CAE00;fill-opacity: 0.70;"/>
<circle cx="428.37" cy="220.72" r="2.06" style="stroke-width: 0.71;stroke: #7CAE00;stroke-opacity: 0.70;fill: #7CAE00;fill-opacity: 0.70;"/>
<circle cx="428.37" cy="222.64" r="2.06" style="stroke-width: 0.71;stroke: #00BFC4;stroke-opacity: 0.70;fill: #00BFC4;fill-opacity: 0.70;"/>
<circle cx="428.37" cy="234.03" r="2.06" style="stroke-width: 0.71;stroke: #00BFC4;stroke-opacity: 0.70;fill: #00BFC4;fill-opacity: 0.70;"/>
<circle cx="428.37" cy="231.61" r="2.06" style="stroke-width: 0.71;stroke: #00BFC4;stroke-opacity: 0.70;fill: #00BFC4;fill-opacity: 0.70;"/>
<circle cx="428.37" cy="231.36" r="2.06" style="stroke-width: 0.71;stroke: #C77CFF;stroke-opacity: 0.70;fill: #C77CFF;fill-opacity: 0.70;"/>
<circle cx="428.37" cy="217.75" r="2.06" style="stroke-width: 0.71;stroke: #C77CFF;stroke-opacity: 0.70;fill: #C77CFF;fill-opacity: 0.70;"/>
<circle cx="428.37" cy="181.05" r="2.06" style="stroke-width: 0.71;stroke: #C77CFF;stroke-opacity: 0.70;fill: #C77CFF;fill-opacity: 0.70;"/>
<circle cx="519.14" cy="507.44" r="2.06" style="stroke-width: 0.71;stroke: #F8766D;stroke-opacity: 0.70;fill: #F8766D;fill-opacity: 0.70;"/>
<circle cx="519.14" cy="507.44" r="2.06" style="stroke-width: 0.71;stroke: #F8766D;stroke-opacity: 0.70;fill: #F8766D;fill-opacity: 0.70;"/>
<circle cx="519.14" cy="507.44" r="2.06" style="stroke-width: 0.71;stroke: #F8766D;stroke-opacity: 0.70;fill: #F8766D;fill-opacity: 0.70;"/>
<circle cx="519.14" cy="507.44" r="2.06" style="stroke-width: 0.71;stroke: #7CAE00;stroke-opacity: 0.70;fill: #7CAE00;fill-opacity: 0.70;"/>
<circle cx="519.14" cy="507.44" r="2.06" style="stroke-width: 0.71;stroke: #7CAE00;stroke-opacity: 0.70;fill: #7CAE00;fill-opacity: 0.70;"/>
<circle cx="519.14" cy="507.44" r="2.06" style="stroke-width: 0.71;stroke: #7CAE00;stroke-opacity: 0.70;fill: #7CAE00;fill-opacity: 0.70;"/>
<circle cx="519.14" cy="507.44" r="2.06" style="stroke-width: 0.71;stroke: #00BFC4;stroke-opacity: 0.70;fill: #00BFC4;fill-opacity: 0.70;"/>
<circle cx="519.14" cy="507.44" r="2.06" style="stroke-width: 0.71;stroke: #00BFC4;stroke-opacity: 0.70;fill: #00BFC4;fill-opacity: 0.70;"/>
<circle cx="519.14" cy="507.44" r="2.06" style="stroke-width: 0.71;stroke: #00BFC4;stroke-opacity: 0.70;fill: #00BFC4;fill-opacity: 0.70;"/>
<circle cx="519.14" cy="507.44" r="2.06" style="stroke-width: 0.71;stroke: #C77CFF;stroke-opacity: 0.70;fill: #C77CFF;fill-opacity: 0.70;"/>
<circle cx="519.14" cy="507.44" r="2.06" style="stroke-width: 0.71;stroke: #C77CFF;stroke-opacity: 0.70;fill: #C77CFF;fill-opacity: 0.70;"/>
<circle cx="519.14" cy="507.44" r="2.06" style="stroke-width: 0.71;stroke: #C77CFF;stroke-opacity: 0.70;fill: #C77CFF;fill-opacity: 0.70;"/>
<circle cx="609.92" cy="502.89" r="2.06" style="stroke-width: 0.71;stroke: #F8766D;stroke-opacity: 0.70;fill: #F8766D;fill-opacity: 0.70;"/>
<circle cx="609.92" cy="507.44" r="2.06" style="stroke-width: 0.71;stroke: #F8766D;stroke-opacity: 0.70;fill: #F8766D;fill-opacity: 0.70;"/>
<circle cx="609.92" cy="507.44" r="2.06" style="stroke-width: 0.71;stroke: #F8766D;stroke-opacity: 0.70;fill: #F8766D;fill-opacity: 0.70;"/>
<circle cx="609.92" cy="507.44" r="2.06" style="stroke-width: 0.71;stroke: #7CAE00;stroke-opacity: 0.70;fill: #7CAE00;fill-opacity: 0.70;"/>
<circle cx="609.92" cy="507.44" r="2.06" style="stroke-width: 0.71;stroke: #7CAE00;stroke-opacity: 0.70;fill: #7CAE00;fill-opacity: 0.70;"/>
<circle cx="609.92" cy="506.44" r="2.06" style="stroke-width: 0.71;stroke: #7CAE00;stroke-opacity: 0.70;fill: #7CAE00;fill-opacity: 0.70;"/>
<circle cx="609.92" cy="507.44" r="2.06" style="stroke-width: 0.71;stroke: #00BFC4;stroke-opacity: 0.70;fill: #00BFC4;fill-opacity: 0.70;"/>
<circle cx="609.92" cy="506.60" r="2.06" style="stroke-width: 0.71;stroke: #00BFC4;stroke-opacity: 0.70;fill: #00BFC4;fill-opacity: 0.70;"/>
<circle cx="609.92" cy="507.44" r="2.06" style="stroke-width: 0.71;stroke: #00BFC4;stroke-opacity: 0.70;fill: #00BFC4;fill-opacity: 0.70;"/>
<circle cx="609.92" cy="507.44" r="2.06" style="stroke-width: 0.71;stroke: #C77CFF;stroke-opacity: 0.70;fill: #C77CFF;fill-opacity: 0.70;"/>
<circle cx="609.92" cy="507.44" r="2.06" style="stroke-width: 0.71;stroke: #C77CFF;stroke-opacity: 0.70;fill: #C77CFF;fill-opacity: 0.70;"/>
<circle cx="609.92" cy="495.35" r="2.06" style="stroke-width: 0.71;stroke: #C77CFF;stroke-opacity: 0.70;fill: #C77CFF;fill-opacity: 0.70;"/>
<polyline points="65.27,87.73 68.00,87.75 70.74,87.76 73.48,87.78 76.21,87.79 78.95,87.81 81.69,87.82 84.43,87.84 87.16,87.85 89.90,87.87 92.64,87.89 95.37,87.90 98.11,87.92 100.85,87.94 103.58,87.95 106.32,87.97 109.06,87.99 111.79,88.01 114.53,88.02 117.27,88.04 120.01,88.06 122.74,88.08 125.48,88.10 128.22,88.12 130.95,88.14 133.69,88.16 136.43,88.18 139.16,88.21 141.90,88.23 144.64,88.25 147.38,88.27 150.11,88.30 152.85,88.32 155.59,88.35 158.32,88.37 161.06,88.40 163.80,88.42 166.53,88.45 169.27,88.47 172.01,88.50 174.74,88.53 177.48,88.56 180.22,88.59 182.96,88.62 185.69,88.65 188.43,88.68 191.17,88.71 193.90,88.74 196.64,88.78 199.38,88.81 202.11,88.85 204.85,88.88 207.59,88.92 210.32,88.96 213.06,88.99 215.80,89.03 218.54,89.07 221.27,89.12 224.01,89.16 226.75,89.20 229.48,89.25 232.22,89.29 234.96,89.34 237.69,89.39 240.43,89.44 243.17,89.49 245.91,89.54 248.64,89.60 251.38,89.66 254.12,89.73 256.85,89.81 259.59,89.92 262.33,90.04 265.06,90.15 267.80,90.24 270.54,90.32 273.27,90.40 276.01,90.48 278.75,90.57 281.49,90.69 284.22,90.83 286.96,90.97 289.70,91.09 292.43,91.19 295.17,91.30 297.91,91.42 300.64,91.57 303.38,91.79 306.12,92.11 308.86,92.55 311.59,93.05 314.33,93.60 317.07,94.23 319.80,94.99 322.54,95.89 325.28,96.91 328.01,98.03 330.75,99.22 333.49,100.44 336.22,101.72 338.96,103.16 341.70,104.81 344.44,106.70 347.17,108.83 349.91,111.28 352.65,114.06 355.38,117.08 358.12,120.26 360.86,123.62 363.59,127.24 366.33,131.22 369.07,135.71 371.80,140.72 374.54,146.09 377.28,151.66 380.02,157.38 382.75,163.31 385.49,169.59 388.23,176.37 390.96,183.68 393.70,191.48 396.44,199.73 399.17,208.46 401.91,217.69 404.65,227.44 407.39,237.66 410.12,248.26 412.86,259.17 415.60,270.37 418.33,281.87 421.07,293.67 423.81,305.68 426.54,317.78 429.28,329.83 432.02,341.70 434.75,353.32 437.49,364.61 440.23,375.51 442.97,385.94 445.70,395.84 448.44,405.16 451.18,413.83 453.91,421.84 456.65,429.19 459.39,435.90 462.12,441.98 464.86,447.49 467.60,452.45 470.34,456.91 473.07,460.91 475.81,464.51 478.55,467.73 481.28,470.62 484.02,473.22 486.76,475.56 489.49,477.66 492.23,479.57 494.97,481.29 497.70,482.85 500.44,484.27 503.18,485.57 505.92,486.75 508.65,487.84 511.39,488.83 514.13,489.75 516.86,490.59 519.60,491.37 522.34,492.09 525.07,492.76 527.81,493.38 530.55,493.96 533.28,494.50 536.02,495.00 538.76,495.48 541.50,495.92 544.23,496.33 546.97,496.72 549.71,497.09 552.44,497.43 555.18,497.76 557.92,498.07 560.65,498.36 563.39,498.64 566.13,498.90 568.87,499.15 571.60,499.38 574.34,499.61 577.08,499.82 579.81,500.02 582.55,500.22 585.29,500.40 588.02,500.58 590.76,500.75 593.50,500.91 596.23,501.07 598.97,501.22 601.71,501.36 604.45,501.50 607.18,501.63 609.92,501.76" style="stroke-width: 1.71;stroke: #F8766D;stroke-linecap: butt;"/>
<polyline points="65.27,68.71 68.00,68.72 70.74,68.74 73.48,68.76 76.21,68.77 78.95,68.79 81.69,68.81 84.43,68.83 87.16,68.84 89.90,68.86 92.64,68.88 95.37,68.90 98.11,68.92 100.85,68.94 103.58,68.96 106.32,68.98 109.06,69.00 111.79,69.02 114.53,69.04 117.27,69.06 120.01,69.08 122.74,69.10 125.48,69.12 128.22,69.14 130.95,69.17 133.69,69.19 136.43,69.21 139.16,69.24 141.90,69.26 144.64,69.29 147.38,69.31 150.11,69.34 152.85,69.36 155.59,69.39 158.32,69.42 161.06,69.45 163.80,69.47 166.53,69.50 169.27,69.53 172.01,69.56 174.74,69.59 177.48,69.62 180.22,69.65 182.96,69.69 185.69,69.72 188.43,69.75 191.17,69.79 193.90,69.82 196.64,69.86 199.38,69.90 202.11,69.93 204.85,69.97 207.59,70.01 210.32,70.05 213.06,70.09 215.80,70.13 218.54,70.18 221.27,70.22 224.01,70.27 226.75,70.31 229.48,70.36 232.22,70.41 234.96,70.46 237.69,70.51 240.43,70.56 243.17,70.62 245.91,70.67 248.64,70.73 251.38,70.79 254.12,70.85 256.85,70.91 259.59,70.98 262.33,71.05 265.06,71.11 267.80,71.18 270.54,71.26 273.27,71.33 276.01,71.41 278.75,71.49 281.49,71.57 284.22,71.66 286.96,71.75 289.70,71.84 292.43,71.94 295.17,72.04 297.91,72.14 300.64,72.25 303.38,72.36 306.12,72.47 308.86,72.60 311.59,72.72 314.33,72.85 317.07,72.99 319.80,73.13 322.54,73.28 325.28,73.44 328.01,73.61 330.75,73.78 333.49,73.96 336.22,74.16 338.96,74.36 341.70,74.57 344.44,74.80 347.17,75.04 349.91,75.30 352.65,75.57 355.38,75.86 358.12,76.17 360.86,76.51 363.59,76.87 366.33,77.26 369.07,77.69 371.80,78.15 374.54,78.66 377.28,79.21 380.02,79.83 382.75,80.52 385.49,81.29 388.23,82.17 390.96,83.16 393.70,84.32 396.44,85.67 399.17,87.29 401.91,89.26 404.65,91.76 407.39,95.05 410.12,99.66 412.86,106.63 415.60,117.97 418.33,137.14 421.07,167.92 423.81,210.21 426.54,257.80 429.28,303.32 432.02,342.48 434.75,374.10 437.49,398.82 440.23,417.90 442.97,432.62 445.70,444.06 448.44,453.04 451.18,460.18 453.91,465.92 456.65,470.58 459.39,474.42 462.12,477.60 464.86,480.27 467.60,482.53 470.34,484.46 473.07,486.13 475.81,487.57 478.55,488.83 481.28,489.94 484.02,490.93 486.76,491.80 489.49,492.59 492.23,493.30 494.97,493.94 497.70,494.53 500.44,495.06 503.18,495.55 505.92,496.00 508.65,496.42 511.39,496.81 514.13,497.17 516.86,497.50 519.60,497.82 522.34,498.11 525.07,498.38 527.81,498.64 530.55,498.89 533.28,499.12 536.02,499.34 538.76,499.54 541.50,499.74 544.23,499.93 546.97,500.11 549.71,500.27 552.44,500.44 555.18,500.59 557.92,500.74 560.65,500.88 563.39,501.01 566.13,501.14 568.87,501.27 571.60,501.39 574.34,501.50 577.08,501.61 579.81,501.72 582.55,501.82 585.29,501.92 588.02,502.01 590.76,502.10 593.50,502.19 596.23,502.28 598.97,502.36 601.71,502.44 604.45,502.52 607.18,502.59 609.92,502.67" style="stroke-width: 1.71;stroke: #7CAE00;stroke-linecap: butt;"/>
<polyline points="65.27,97.79 68.00,97.83 70.74,97.86 73.48,97.90 76.21,97.93 78.95,97.97 81.69,98.01 84.43,98.04 87.16,98.08 89.90,98.12 92.64,98.16 95.37,98.20 98.11,98.24 100.85,98.28 103.58,98.32 106.32,98.37 109.06,98.41 111.79,98.45 114.53,98.50 117.27,98.54 120.01,98.59 122.74,98.64 125.48,98.69 128.22,98.74 130.95,98.79 133.69,98.84 136.43,98.89 139.16,98.94 141.90,99.00 144.64,99.05 147.38,99.11 150.11,99.17 152.85,99.23 155.59,99.29 158.32,99.35 161.06,99.41 163.80,99.48 166.53,99.54 169.27,99.61 172.01,99.68 174.74,99.75 177.48,99.82 180.22,99.89 182.96,99.96 185.69,100.04 188.43,100.12 191.17,100.20 193.90,100.28 196.64,100.36 199.38,100.45 202.11,100.54 204.85,100.63 207.59,100.72 210.32,100.81 213.06,100.91 215.80,101.01 218.54,101.11 221.27,101.22 224.01,101.32 226.75,101.43 229.48,101.55 232.22,101.66 234.96,101.78 237.69,101.91 240.43,102.04 243.17,102.17 245.91,102.30 248.64,102.44 251.38,102.58 254.12,102.73 256.85,102.88 259.59,103.04 262.33,103.21 265.06,103.37 267.80,103.55 270.54,103.73 273.27,103.92 276.01,104.11 278.75,104.31 281.49,104.52 284.22,104.74 286.96,104.96 289.70,105.19 292.43,105.44 295.17,105.69 297.91,105.96 300.64,106.23 303.38,106.52 306.12,106.82 308.86,107.14 311.59,107.47 314.33,107.82 317.07,108.18 319.80,108.57 322.54,108.97 325.28,109.40 328.01,109.85 330.75,110.33 333.49,110.84 336.22,111.38 338.96,111.95 341.70,112.56 344.44,113.22 347.17,113.92 349.91,114.67 352.65,115.47 355.38,116.35 358.12,117.29 360.86,118.32 363.59,119.43 366.33,120.65 369.07,121.99 371.80,123.46 374.54,125.09 377.28,126.89 380.02,128.91 382.75,131.17 385.49,133.71 388.23,136.58 390.96,139.85 393.70,143.56 396.44,147.80 399.17,152.64 401.91,158.16 404.65,164.45 407.39,171.58 410.12,179.63 412.86,188.63 415.60,198.62 418.33,209.57 421.07,221.42 423.81,234.08 426.54,247.40 429.28,261.23 432.02,275.37 434.75,289.61 437.49,303.76 440.23,317.63 442.97,331.04 445.70,343.88 448.44,356.02 451.18,367.42 453.91,378.02 456.65,387.83 459.39,396.86 462.12,405.14 464.86,412.70 467.60,419.59 470.34,425.87 473.07,431.57 475.81,436.76 478.55,441.48 481.28,445.77 484.02,449.68 486.76,453.24 489.49,456.49 492.23,459.45 494.97,462.17 497.70,464.65 500.44,466.93 503.18,469.03 505.92,470.96 508.65,472.74 511.39,474.38 514.13,475.91 516.86,477.32 519.60,478.63 522.34,479.84 525.07,480.98 527.81,482.04 530.55,483.03 533.28,483.95 536.02,484.82 538.76,485.63 541.50,486.40 544.23,487.12 546.97,487.79 549.71,488.44 552.44,489.04 555.18,489.61 557.92,490.15 560.65,490.67 563.39,491.16 566.13,491.62 568.87,492.06 571.60,492.48 574.34,492.88 577.08,493.26 579.81,493.63 582.55,493.98 585.29,494.31 588.02,494.63 590.76,494.94 593.50,495.23 596.23,495.51 598.97,495.78 601.71,496.04 604.45,496.30 607.18,496.54 609.92,496.77" style="stroke-width: 1.71;stroke: #00BFC4;stroke-linecap: butt;"/>
<polyline points="65.27,48.06 68.00,48.08 70.74,48.10 73.48,48.12 76.21,48.14 78.95,48.16 81.69,48.19 84.43,48.21 87.16,48.23 89.90,48.26 92.64,48.28 95.37,48.31 98.11,48.33 100.85,48.36 103.58,48.38 106.32,48.41 109.06,48.44 111.79,48.47 114.53,48.49 117.27,48.52 120.01,48.55 122.74,48.58 125.48,48.61 128.22,48.64 130.95,48.67 133.69,48.71 136.43,48.74 139.16,48.77 141.90,48.81 144.64,48.84 147.38,48.88 150.11,48.91 152.85,48.95 155.59,48.99 158.32,49.03 161.06,49.06 163.80,49.10 166.53,49.14 169.27,49.19 172.01,49.23 174.74,49.27 177.48,49.32 180.22,49.36 182.96,49.41 185.69,49.46 188.43,49.50 191.17,49.55 193.90,49.60 196.64,49.66 199.38,49.71 202.11,49.76 204.85,49.82 207.59,49.88 210.32,49.93 213.06,49.99 215.80,50.05 218.54,50.12 221.27,50.18 224.01,50.25 226.75,50.32 229.48,50.39 232.22,50.46 234.96,50.53 237.69,50.61 240.43,50.68 243.17,50.76 245.91,50.85 248.64,50.93 251.38,51.02 254.12,51.11 256.85,51.20 259.59,51.30 262.33,51.39 265.06,51.50 267.80,51.60 270.54,51.71 273.27,51.82 276.01,51.94 278.75,52.06 281.49,52.18 284.22,52.31 286.96,52.44 289.70,52.58 292.43,52.72 295.17,52.87 297.91,53.02 300.64,53.18 303.38,53.35 306.12,53.52 308.86,53.70 311.59,53.89 314.33,54.09 317.07,54.30 319.80,54.51 322.54,54.74 325.28,54.97 328.01,55.22 330.75,55.49 333.49,55.76 336.22,56.05 338.96,56.36 341.70,56.68 344.44,57.03 347.17,57.39 349.91,57.78 352.65,58.20 355.38,58.64 358.12,59.12 360.86,59.63 363.59,60.18 366.33,60.78 369.07,61.43 371.80,62.13 374.54,62.90 377.28,63.75 380.02,64.69 382.75,65.74 385.49,66.91 388.23,68.24 390.96,69.76 393.70,71.52 396.44,73.59 399.17,76.10 401.91,79.23 404.65,83.34 407.39,89.06 410.12,97.63 412.86,110.97 415.60,131.11 418.33,158.45 421.07,191.42 423.81,227.43 426.54,263.73 429.28,297.98 432.02,328.70 434.75,355.26 437.49,377.65 440.23,396.23 442.97,411.53 445.70,424.10 448.44,434.43 451.18,442.96 453.91,450.05 456.65,455.97 459.39,460.96 462.12,465.19 464.86,468.81 467.60,471.93 470.34,474.63 473.07,477.00 475.81,479.07 478.55,480.91 481.28,482.55 484.02,484.01 486.76,485.32 489.49,486.51 492.23,487.59 494.97,488.57 497.70,489.46 500.44,490.29 503.18,491.04 505.92,491.74 508.65,492.39 511.39,492.99 514.13,493.54 516.86,494.06 519.60,494.55 522.34,495.01 525.07,495.43 527.81,495.84 530.55,496.22 533.28,496.57 536.02,496.91 538.76,497.23 541.50,497.53 544.23,497.82 546.97,498.10 549.71,498.36 552.44,498.60 555.18,498.84 557.92,499.07 560.65,499.28 563.39,499.49 566.13,499.69 568.87,499.88 571.60,500.06 574.34,500.23 577.08,500.40 579.81,500.56 582.55,500.72 585.29,500.87 588.02,501.01 590.76,501.15 593.50,501.29 596.23,501.42 598.97,501.54 601.71,501.66 604.45,501.78 607.18,501.89 609.92,502.00" style="stroke-width: 1.71;stroke: #C77CFF;stroke-linecap: butt;"/>
</g><g clip-path="url(#c2)">
<g><text x="33.10" y="510.59" text-anchor="end" style="font-family: Arial;font-size: 8.80px;fill: #4D4D4D;" textLength="4.90px" lengthAdjust="spacingAndGlyphs">0</text></g>
<g><text x="33.10" y="395.29" text-anchor="end" style="font-family: Arial;font-size: 8.80px;fill: #4D4D4D;" textLength="9.79px" lengthAdjust="spacingAndGlyphs">25</text></g>
<g><text x="33.10" y="279.99" text-anchor="end" style="font-family: Arial;font-size: 8.80px;fill: #4D4D4D;" textLength="9.79px" lengthAdjust="spacingAndGlyphs">50</text></g>
<g><text x="33.10" y="164.69" text-anchor="end" style="font-family: Arial;font-size: 8.80px;fill: #4D4D4D;" textLength="9.79px" lengthAdjust="spacingAndGlyphs">75</text></g>
<g><text x="33.10" y="49.39" text-anchor="end" style="font-family: Arial;font-size: 8.80px;fill: #4D4D4D;" textLength="14.69px" lengthAdjust="spacingAndGlyphs">100</text></g>
<g><text x="59.92" y="541.74" text-anchor="middle" style="font-family: Arial;font-size: 8.80px;fill: #4D4D4D;" textLength="9.79px" lengthAdjust="spacingAndGlyphs">30</text></g>
<g><text x="217.59" y="541.74" text-anchor="middle" style="font-family: Arial;font-size: 8.80px;fill: #4D4D4D;" textLength="14.69px" lengthAdjust="spacingAndGlyphs">100</text></g>
<g><text x="361.47" y="541.74" text-anchor="middle" style="font-family: Arial;font-size: 8.80px;fill: #4D4D4D;" textLength="14.69px" lengthAdjust="spacingAndGlyphs">300</text></g>
<g><text x="519.14" y="541.74" text-anchor="middle" style="font-family: Arial;font-size: 8.80px;fill: #4D4D4D;" textLength="19.58px" lengthAdjust="spacingAndGlyphs">1000</text></g>
<g><text x="337.59" y="554.20" text-anchor="middle" style="font-family: Arial;font-size: 11.00px;" textLength="50.36px" lengthAdjust="spacingAndGlyphs">Dose [M]</text></g>
<g><text transform="translate(13.36,276.84) rotate(-90.00)" text-anchor="middle" style="font-family: Arial;font-size: 11.00px;" textLength="57.87px" lengthAdjust="spacingAndGlyphs">Viability (%)</text></g>
<g><text x="653.59" y="243.48" style="font-family: Arial;font-size: 11.00px;" textLength="74.02px" lengthAdjust="spacingAndGlyphs">Patient / Group</text></g>
<circle cx="662.23" cy="258.76" r="2.06" style="stroke-width: 0.71;stroke: #F8766D;stroke-opacity: 0.70;fill: #F8766D;fill-opacity: 0.70;"/>
<line x1="655.32" y1="258.76" x2="669.14" y2="258.76" style="stroke-width: 1.71;stroke: #F8766D;stroke-linecap: butt;"/>
<circle cx="662.23" cy="276.04" r="2.06" style="stroke-width: 0.71;stroke: #7CAE00;stroke-opacity: 0.70;fill: #7CAE00;fill-opacity: 0.70;"/>
<line x1="655.32" y1="276.04" x2="669.14" y2="276.04" style="stroke-width: 1.71;stroke: #7CAE00;stroke-linecap: butt;"/>
<circle cx="662.23" cy="293.32" r="2.06" style="stroke-width: 0.71;stroke: #00BFC4;stroke-opacity: 0.70;fill: #00BFC4;fill-opacity: 0.70;"/>
<line x1="655.32" y1="293.32" x2="669.14" y2="293.32" style="stroke-width: 1.71;stroke: #00BFC4;stroke-linecap: butt;"/>
<circle cx="662.23" cy="310.60" r="2.06" style="stroke-width: 0.71;stroke: #C77CFF;stroke-opacity: 0.70;fill: #C77CFF;fill-opacity: 0.70;"/>
<line x1="655.32" y1="310.60" x2="669.14" y2="310.60" style="stroke-width: 1.71;stroke: #C77CFF;stroke-linecap: butt;"/>
<g><text x="676.35" y="261.91" style="font-family: Arial;font-size: 8.80px;" textLength="68.00px" lengthAdjust="spacingAndGlyphs">ASC397.ASC397</text></g>
<g><text x="676.35" y="279.19" style="font-family: Arial;font-size: 8.80px;" textLength="81.69px" lengthAdjust="spacingAndGlyphs">ASC397.ASC397cse</text></g>
<g><text x="676.35" y="296.47" style="font-family: Arial;font-size: 8.80px;" textLength="68.00px" lengthAdjust="spacingAndGlyphs">ASC399.ASC399</text></g>
<g><text x="676.35" y="313.75" style="font-family: Arial;font-size: 8.80px;" textLength="81.69px" lengthAdjust="spacingAndGlyphs">ASC399.ASC399cse</text></g>
<g><text x="38.03" y="14.93" style="font-family: Arial;font-size: 13.20px;" textLength="202.37px" lengthAdjust="spacingAndGlyphs">H2O2 across patients &amp; conditions</text></g>
</g>
</svg>