<svg xmlns="http://www.w3.org/2000/svg" xmlns:xlink="http://www.w3.org/1999/xlink" class="httpgd" width="769.00" height="562.00" viewBox="0 0 769.00 562.00">
<defs>
  <style type='text/css'><![CDATA[
    .httpgd line, .httpgd polyline, .httpgd polygon, .httpgd path, .httpgd rect, .httpgd circle {
      fill: none;
      stroke: #000000;
      stroke-linecap: round;
      stroke-linejoin: round;
      stroke-miterlimit: 10.00;
    }
  ]]></style>
<clipPath id="c0"><rect x="0.00" y="0.00" width="769.00" height="562.00"/></clipPath>
<clipPath id="c1"><rect x="38.03" y="23.18" width="599.12" height="507.33"/></clipPath>
<clipPath id="c2"><rect x="0.00" y="0.00" width="769.00" height="562.00"/></clipPath>
</defs>
<rect width="100%" height="100%" style="stroke: none;fill: #FFFFFF;"/>
<g clip-path="url(#c0)">
</g><g clip-path="url(#c1)">
<polyline points="38.03,507.44 637.15,507.44" style="stroke-width: 1.07;stroke: #EBEBEB;stroke-linecap: butt;"/>
<polyline points="38.03,392.14 637.15,392.14" style="stroke-width: 1.07;stroke: #EBEBEB;stroke-linecap: butt;"/>
<polyline points="38.03,276.84 637.15,276.84" style="stroke-width: 1.07;stroke: #EBEBEB;stroke-linecap: butt;"/>
<polyline points="38.03,161.54 637.15,161.54" style="stroke-width: 1.07;stroke: #EBEBEB;stroke-linecap: butt;"/>
<polyline points="38.03,46.24 637.15,46.24" style="stroke-width: 1.07;stroke: #EBEBEB;stroke-linecap: butt;"/>
<polyline points="65.27,530.50 65.27,23.18" style="stroke-width: 1.07;stroke: #EBEBEB;stroke-linecap: butt;"/>
<polyline points="246.82,530.50 246.82,23.18" style="stroke-width: 1.07;stroke: #EBEBEB;stroke-linecap: butt;"/>
<polyline points="428.37,530.50 428.37,23.18" style="stroke-width: 1.07;stroke: #EBEBEB;stroke-linecap: butt;"/>
<polyline points="609.92,530.50 609.92,23.18" style="stroke-width: 1.07;stroke: #EBEBEB;stroke-linecap: butt;"/>
<polygon points="65.27,137.61 68.00,137.61 70.74,137.61 73.48,137.61 76.21,137.61 78.95,137.61 81.69,137.62 84.43,137.62 87.16,137.62 89.90,137.62 92.64,137.62 95.37,137.62 98.11,137.62 100.85,137.62 103.58,137.62 106.32,137.62 109.06,137.63 111.79,137.63 114.53,137.63 117.27,137.63 120.01,137.63 122.74,137.63 125.48,137.64 128.22,137.64 130.95,137.64 133.69,137.64 136.43,137.65 139.16,137.65 141.90,137.65 144.64,137.66 147.38,137.66 150.11,137.66 152.85,137.67 155.59,137.67 158.32,137.68 161.06,137.68 163.80,137.69 166.53,137.69 169.27,137.70 172.01,137.70 174.74,137.71 177.48,137.72 180.22,137.73 182.96,137.73 185.69,137.74 188.43,137.75 191.17,137.76 193.90,137.77 196.64,137.79 199.38,137.80 202.11,137.81 204.85,137.83 207.59,137.84 210.32,137.86 213.06,137.87 215.80,137.89 218.54,137.91 221.27,137.93 224.01,137.95 226.75,137.98 229.48,138.00 232.22,138.03 234.96,138.06 237.69,138.09 240.43,138.12 243.17,138.16 245.91,138.20 248.64,138.24 251.38,138.28 254.12,138.33 256.85,138.38 259.59,138.43 262.33,138.48 265.06,138.54 267.80,138.61 270.54,138.68 273.27,138.75 276.01,138.83 278.75,138.91 281.49,139.00 284.22,139.09 286.96,139.18 289.70,139.18 292.43,139.18 295.17,139.18 297.91,139.18 300.64,139.18 303.38,139.18 306.12,139.18 308.86,139.18 311.59,139.18 314.33,139.18 317.07,139.18 319.80,139.18 322.54,139.18 325.28,139.18 328.01,139.18 330.75,139.18 333.49,139.18 336.22,139.18 338.96,139.18 341.70,139.18 344.44,139.18 347.17,139.18 349.91,139.18 352.65,139.18 355.38,139.18 358.12,139.18 360.86,139.18 363.59,139.18 366.33,139.18 369.07,139.18 371.80,139.18 374.54,139.18 377.28,139.18 380.02,139.18 382.75,139.18 385.49,139.18 388.23,139.18 390.96,139.18 393.70,139.18 396.44,139.18 399.17,139.18 401.91,139.18 404.65,139.18 407.39,139.18 410.12,139.18 412.86,139.18 415.60,139.18 418.33,139.18 421.07,139.18 423.81,139.18 426.54,139.18 429.28,139.18 432.02,139.18 434.75,139.18 437.49,139.18 440.23,139.18 442.97,139.18 445.70,139.25 448.44,139.68 451.18,140.82 453.91,140.82 456.65,140.82 459.39,140.82 462.12,140.82 464.86,140.83 467.60,140.83 470.34,140.84 473.07,140.86 475.81,140.89 478.55,140.91 481.28,140.91 484.02,140.92 486.76,140.93 489.49,140.95 492.23,141.01 494.97,141.15 497.70,143.03 500.44,143.40 503.18,145.76 505.92,146.37 508.65,146.84 511.39,147.34 514.13,148.28 516.86,149.70 519.60,151.45 522.34,152.41 525.07,156.68 527.81,161.92 530.55,172.31 533.28,179.94 536.02,185.00 538.76,207.39 541.50,254.65 544.23,346.63 546.97,373.29 549.71,386.34 552.44,398.10 555.18,402.76 557.92,405.24 560.65,407.68 563.39,410.10 566.13,412.50 568.87,414.86 571.60,417.18 574.34,419.48 577.08,421.74 579.81,423.97 582.55,426.17 585.29,428.33 588.02,430.45 590.76,432.54 593.50,434.58 596.23,436.60 598.97,438.57 601.71,440.50 604.45,442.40 607.18,444.26 609.92,446.08 609.92,507.44 607.18,507.44 604.45,507.44 601.71,507.44 598.97,507.44 596.23,507.44 593.50,507.44 590.76,507.44 588.02,507.44 585.29,507.44 582.55,507.44 579.81,507.44 577.08,507.44 574.34,507.44 571.60,507.44 568.87,507.44 566.13,507.44 563.39,507.44 560.65,507.44 557.92,507.44 555.18,507.44 552.44,507.44 549.71,507.44 546.97,507.42 544.23,507.37 541.50,507.23 538.76,506.92 536.02,506.19 533.28,504.58 530.55,501.36 527.81,497.52 525.07,490.00 522.34,476.76 519.60,458.58 516.86,438.03 514.13,408.56 511.39,386.02 508.65,368.64 505.92,356.64 503.18,353.17 500.44,346.11 497.70,339.77 494.97,336.19 492.23,333.20 489.49,327.43 486.76,324.16 484.02,320.16 481.28,315.88 478.55,312.66 475.81,309.49 473.07,306.76 470.34,304.37 467.60,301.95 464.86,299.38 462.12,296.84 459.39,294.32 456.65,291.82 453.91,289.34 451.18,286.69 448.44,284.56 445.70,282.44 442.97,280.34 440.23,278.25 437.49,276.11 434.75,274.00 432.02,271.90 429.28,269.82 426.54,267.76 423.81,265.73 421.07,263.71 418.33,261.72 415.60,260.49 412.86,259.14 410.12,257.33 407.39,256.25 404.65,254.75 401.91,253.87 399.17,253.87 396.44,253.67 393.70,253.31 390.96,252.44 388.23,251.24 385.49,250.07 382.75,250.07 380.02,250.07 377.28,250.07 374.54,250.07 371.80,250.07 369.07,249.99 366.33,249.69 363.59,249.40 360.86,248.98 358.12,248.78 355.38,248.78 352.65,248.39 349.91,247.69 347.17,247.06 344.44,247.06 341.70,247.06 338.96,247.06 336.22,247.06 333.49,247.06 330.75,247.06 328.01,247.06 325.28,247.06 322.54,247.06 319.80,247.06 317.07,247.06 314.33,247.05 311.59,246.87 308.86,246.69 306.12,246.30 303.38,245.77 300.64,245.77 297.91,245.77 295.17,245.77 292.43,245.77 289.70,245.77 286.96,245.77 284.22,245.77 281.49,245.77 278.75,245.77 276.01,245.77 273.27,245.77 270.54,245.77 267.80,245.77 265.06,245.77 262.33,245.77 259.59,245.77 256.85,245.77 254.12,245.77 251.38,245.77 248.64,245.77 245.91,245.77 243.17,245.66 240.43,245.41 237.69,244.84 234.96,244.29 232.22,243.73 229.48,243.18 226.75,242.64 224.01,242.10 221.27,242.01 218.54,242.01 215.80,242.01 213.06,242.01 210.32,242.01 207.59,242.01 204.85,242.01 202.11,242.01 199.38,242.01 196.64,242.01 193.90,242.01 191.17,242.01 188.43,242.01 185.69,242.01 182.96,241.98 180.22,241.88 177.48,241.78 174.74,241.69 172.01,241.59 169.27,241.50 166.53,241.41 163.80,241.32 161.06,241.24 158.32,241.15 155.59,241.06 152.85,240.98 150.11,240.70 147.38,240.42 144.64,240.15 141.90,239.89 139.16,239.62 136.43,239.37 133.69,239.14 130.95,239.14 128.22,239.14 125.48,239.14 122.74,239.14 120.01,239.14 117.27,239.14 114.53,239.14 111.79,239.14 109.06,239.14 106.32,239.14 103.58,239.14 100.85,239.14 98.11,239.14 95.37,239.14 92.64,239.14 89.90,239.14 87.16,239.14 84.43,239.14 81.69,239.14 78.95,239.14 76.21,239.14 73.48,239.14 70.74,239.14 68.00,239.14 65.27,239.14" style="stroke-width: 0.00;stroke: none;stroke-linecap: butt;fill: #F8766D;fill-opacity: 0.20;" />
<polyline points="65.27,137.61 68.00,137.61 70.74,137.61 73.48,137.61 76.21,137.61 78.95,137.61 81.69,137.62 84.43,137.62 87.16,137.62 89.90,137.62 92.64,137.62 95.37,137.62 98.11,137.62 100.85,137.62 103.58,137.62 106.32,137.62 109.06,137.63 111.79,137.63 114.53,137.63 117.27,137.63 120.01,137.63 122.74,137.63 125.48,137.64 128.22,137.64 130.95,137.64 133.69,137.64 136.43,137.65 139.16,137.65 141.90,137.65 144.64,137.66 147.38,137.66 150.11,137.66 152.85,137.67 155.59,137.67 158.32,137.68 161.06,137.68 163.80,137.69 166.53,137.69 169.27,137.70 172.01,137.70 174.74,137.71 177.48,137.72 180.22,137.73 182.96,137.73 185.69,137.74 188.43,137.75 191.17,137.76 193.90,137.77 196.64,137.79 199.38,137.80 202.11,137.81 204.85,137.83 207.59,137.84 210.32,137.86 213.06,137.87 215.80,137.89 218.54,137.91 221.27,137.93 224.01,137.95 226.75,137.98 229.48,138.00 232.22,138.03 234.96,138.06 237.69,138.09 240.43,138.12 243.17,138.16 245.91,138.20 248.64,138.24 251.38,138.28 254.12,138.33 256.85,138.38 259.59,138.43 262.33,138.48 265.06,138.54 267.80,138.61 270.54,138.68 273.27,138.75 276.01,138.83 278.75,138.91 281.49,139.00 284.22,139.09 286.96,139.18 289.70,139.18 292.43,139.18 295.17,139.18 297.91,139.18 300.64,139.18 303.38,139.18 306.12,139.18 308.86,139.18 311.59,139.18 314.33,139.18 317.07,139.18 319.80,139.18 322.54,139.18 325.28,139.18 328.01,139.18 330.75,139.18 333.49,139.18 336.22,139.18 338.96,139.18 341.70,139.18 344.44,139.18 347.17,139.18 349.91,139.18 352.65,139.18 355.38,139.18 358.12,139.18 360.86,139.18 363.59,139.18 366.33,139.18 369.07,139.18 371.80,139.18 374.54,139.18 377.28,139.18 380.02,139.18 382.75,139.18 385.49,139.18 388.23,139.18 390.96,139.18 393.70,139.18 396.44,139.18 399.17,139.18 401.91,139.18 404.65,139.18 407.39,139.18 410.12,139.18 412.86,139.18 415.60,139.18 418.33,139.18 421.07,139.18 423.81,139.18 426.54,139.18 429.28,139.18 432.02,139.18 434.75,139.18 437.49,139.18 440.23,139.18 442.97,139.18 445.70,139.25 448.44,139.68 451.18,140.82 453.91,140.82 456.65,140.82 459.39,140.82 462.12,140.82 464.86,140.83 467.60,140.83 470.34,140.84 473.07,140.86 475.81,140.89 478.55,140.91 481.28,140.91 484.02,140.92 486.76,140.93 489.49,140.95 492.23,141.01 494.97,141.15 497.70,143.03 500.44,143.40 503.18,145.76 505.92,146.37 508.65,146.84 511.39,147.34 514.13,148.28 516.86,149.70 519.60,151.45 522.34,152.41 525.07,156.68 527.81,161.92 530.55,172.31 533.28,179.94 536.02,185.00 538.76,207.39 541.50,254.65 544.23,346.63 546.97,373.29 549.71,386.34 552.44,398.10 555.18,402.76 557.92,405.24 560.65,407.68 563.39,410.10 566.13,412.50 568.87,414.86 571.60,417.18 574.34,419.48 577.08,421.74 579.81,423.97 582.55,426.17 585.29,428.33 588.02,430.45 590.76,432.54 593.50,434.58 596.23,436.60 598.97,438.57 601.71,440.50 604.45,442.40 607.18,444.26 609.92,446.08" style="stroke-width: 1.07;stroke: none;stroke-linecap: butt;"/>
<polyline points="609.92,507.44 607.18,507.44 604.45,507.44 601.71,507.44 598.97,507.44 596.23,507.44 593.50,507.44 590.76,507.44 588.02,507.44 585.29,507.44 582.55,507.44 579.81,507.44 577.08,507.44 574.34,507.44 571.60,507.44 568.87,507.44 566.13,507.44 563.39,507.44 560.65,507.44 557.92,507.44 555.18,507.44 552.44,507.44 549.71,507.44 546.97,507.42 544.23,507.37 541.50,507.23 538.76,506.92 536.02,506.19 533.28,504.58 530.55,501.36 527.81,497.52 525.07,490.00 522.34,476.76 519.60,458.58 516.86,438.03 514.13,408.56 511.39,386.02 508.65,368.64 505.92,356.64 503.18,353.17 500.44,346.11 497.70,339.77 494.97,336.19 492.23,333.20 489.49,327.43 486.76,324.16 484.02,320.16 481.28,315.88 478.55,312.66 475.81,309.49 473.07,306.76 470.34,304.37 467.60,301.95 464.86,299.38 462.12,296.84 459.39,294.32 456.65,291.82 453.91,289.34 451.18,286.69 448.44,284.56 445.70,282.44 442.97,280.34 440.23,278.25 437.49,276.11 434.75,274.00 432.02,271.90 429.28,269.82 426.54,267.76 423.81,265.73 421.07,263.71 418.33,261.72 415.60,260.49 412.86,259.14 410.12,257.33 407.39,256.25 404.65,254.75 401.91,253.87 399.17,253.87 396.44,253.67 393.70,253.31 390.96,252.44 388.23,251.24 385.49,250.07 382.75,250.07 380.02,250.07 377.28,250.07 374.54,250.07 371.80,250.07 369.07,249.99 366.33,249.69 363.59,249.40 360.86,248.98 358.12,248.78 355.38,248.78 352.65,248.39 349.91,247.69 347.17,247.06 344.44,247.06 341.70,247.06 338.96,247.06 336.22,247.06 333.49,247.06 330.75,247.06 328.01,247.06 325.28,247.06 322.54,247.06 319.80,247.06 317.07,247.06 314.33,247.05 311.59,246.87 308.86,246.69 306.12,246.30 303.38,245.77 300.64,245.77 297.91,245.77 295.17,245.77 292.43,245.77 289.70,245.77 286.96,245.77 284.22,245.77 281.49,245.77 278.75,245.77 276.01,245.77 273.27,245.77 270.54,245.77 267.80,245.77 265.06,245.77 262.33,245.77 259.59,245.77 256.85,245.77 254.12,245.77 251.38,245.77 248.64,245.77 245.91,245.77 243.17,245.66 240.43,245.41 237.69,244.84 234.96,244.29 232.22,243.73 229.48,243.18 226.75,242.64 224.01,242.10 221.27,242.01 218.54,242.01 215.80,242.01 213.06,242.01 210.32,242.01 207.59,242.01 204.85,242.01 202.11,242.01 199.38,242.01 196.64,242.01 193.90,242.01 191.17,242.01 188.43,242.01 185.69,242.01 182.96,241.98 180.22,241.88 177.48,241.78 174.74,241.69 172.01,241.59 169.27,241.50 166.53,241.41 163.80,241.32 161.06,241.24 158.32,241.15 155.59,241.06 152.85,240.98 150.11,240.70 147.38,240.42 144.64,240.15 141.90,239.89 139.16,239.62 136.43,239.37 133.69,239.14 130.95,239.14 128.22,239.14 125.48,239.14 122.74,239.14 120.01,239.14 117.27,239.14 114.53,239.14 111.79,239.14 109.06,239.14 106.32,239.14 103.58,239.14 100.85,239.14 98.11,239.14 95.37,239.14 92.64,239.14 89.90,239.14 87.16,239.14 84.43,239.14 81.69,239.14 78.95,239.14 76.21,239.14 73.48,239.14 70.74,239.14 68.00,239.14 65.27,239.14" style="stroke-width: 1.07;stroke: none;stroke-linecap: butt;"/>
<polygon points="65.27,220.81 68.00,220.81 70.74,220.81 73.48,220.81 76.21,220.81 78.95,220.81 81.69,220.81 84.43,220.81 87.16,220.81 89.90,220.81 92.64,220.81 95.37,220.81 98.11,220.81 100.85,220.81 103.58,220.81 106.32,220.81 109.06,220.81 111.79,220.81 114.53,220.81 117.27,220.81 120.01,220.81 122.74,220.81 125.48,220.81 128.22,220.81 130.95,220.81 133.69,220.81 136.43,220.81 139.16,220.81 141.90,220.81 144.64,220.81 147.38,220.81 150.11,220.81 152.85,220.81 155.59,220.81 158.32,220.81 161.06,220.81 163.80,220.81 166.53,220.81 169.27,220.81 172.01,220.81 174.74,220.81 177.48,220.81 180.22,220.81 182.96,220.81 185.69,220.81 188.43,220.81 191.17,220.81 193.90,220.81 196.64,220.81 199.38,220.81 202.11,220.81 204.85,220.81 207.59,220.81 210.32,220.81 213.06,220.81 215.80,220.81 218.54,220.81 221.27,220.81 224.01,220.81 226.75,220.81 229.48,220.81 232.22,220.81 234.96,220.81 237.69,220.81 240.43,220.81 243.17,220.81 245.91,220.81 248.64,220.81 251.38,220.81 254.12,220.81 256.85,220.81 259.59,220.81 262.33,220.81 265.06,220.81 267.80,220.81 270.54,220.81 273.27,220.81 276.01,220.81 278.75,220.81 281.49,220.81 284.22,220.81 286.96,220.81 289.70,220.81 292.43,220.81 295.17,220.81 297.91,220.81 300.64,220.81 303.38,220.81 306.12,220.81 308.86,220.81 311.59,220.81 314.33,220.81 317.07,220.81 319.80,220.81 322.54,220.81 325.28,220.81 328.01,220.81 330.75,220.81 333.49,220.81 336.22,220.81 338.96,220.81 341.70,220.81 344.44,220.81 347.17,220.81 349.91,220.81 352.65,220.81 355.38,220.81 358.12,220.81 360.86,220.81 363.59,220.81 366.33,220.81 369.07,220.81 371.80,220.81 374.54,220.81 377.28,220.81 380.02,220.81 382.75,220.81 385.49,220.81 388.23,221.15 390.96,221.15 393.70,221.15 396.44,221.15 399.17,221.15 401.91,221.15 404.65,221.15 407.39,221.15 410.12,221.15 412.86,221.15 415.60,221.15 418.33,221.15 421.07,221.15 423.81,221.15 426.54,221.24 429.28,221.37 432.02,221.37 434.75,221.37 437.49,221.37 440.23,221.37 442.97,221.37 445.70,221.37 448.44,221.39 451.18,221.73 453.91,221.73 456.65,221.73 459.39,221.73 462.12,221.73 464.86,221.73 467.60,221.73 470.34,221.73 473.07,221.73 475.81,221.73 478.55,222.16 481.28,222.38 484.02,222.38 486.76,222.57 489.49,222.93 492.23,223.19 494.97,223.27 497.70,223.43 500.44,223.43 503.18,223.43 505.92,223.86 508.65,225.11 511.39,226.61 514.13,227.55 516.86,229.02 519.60,230.77 522.34,231.12 525.07,231.44 527.81,233.48 530.55,237.26 533.28,240.86 536.02,247.66 538.76,259.36 541.50,300.48 544.23,385.05 546.97,413.96 549.71,424.46 552.44,430.58 555.18,437.02 557.92,439.72 560.65,442.27 563.39,444.75 566.13,447.17 568.87,449.53 571.60,451.81 574.34,454.03 577.08,456.19 579.81,458.28 582.55,460.30 585.29,462.26 588.02,464.15 590.76,465.97 593.50,467.74 596.23,469.44 598.97,471.08 601.71,472.66 604.45,474.19 607.18,475.65 609.92,477.06 609.92,507.44 607.18,507.44 604.45,507.44 601.71,507.44 598.97,507.44 596.23,507.44 593.50,507.44 590.76,507.44 588.02,507.44 585.29,507.44 582.55,507.44 579.81,507.44 577.08,507.44 574.34,507.44 571.60,507.44 568.87,507.44 566.13,507.44 563.39,507.44 560.65,507.44 557.92,507.44 555.18,507.44 552.44,507.44 549.71,507.43 546.97,507.42 544.23,507.36 541.50,507.22 538.76,506.92 536.02,506.26 533.28,505.13 530.55,502.88 527.81,499.24 525.07,494.19 522.34,485.35 519.60,473.83 516.86,458.21 514.13,443.86 511.39,430.09 508.65,415.57 505.92,402.22 503.18,386.93 500.44,379.21 497.70,375.20 494.97,369.40 492.23,366.13 489.49,361.14 486.76,357.31 484.02,353.04 481.28,348.71 478.55,345.13 475.81,341.83 473.07,338.73 470.34,336.02 467.60,333.40 464.86,330.81 462.12,328.24 459.39,325.71 456.65,322.94 453.91,320.17 451.18,317.63 448.44,315.13 445.70,312.67 442.97,310.19 440.23,307.69 437.49,305.23 434.75,302.82 432.02,300.46 429.28,298.15 426.54,295.89 423.81,293.69 421.07,291.53 418.33,289.50 415.60,288.19 412.86,286.90 410.12,285.65 407.39,284.65 404.65,284.65 401.91,283.93 399.17,282.49 396.44,281.36 393.70,281.24 390.96,281.24 388.23,281.24 385.49,281.24 382.75,281.24 380.02,281.24 377.28,281.12 374.54,280.72 371.80,280.72 369.07,280.72 366.33,280.72 363.59,280.72 360.86,280.72 358.12,280.72 355.38,280.72 352.65,280.72 349.91,280.72 347.17,280.48 344.44,280.21 341.70,280.13 338.96,279.57 336.22,279.10 333.49,279.10 330.75,279.10 328.01,279.10 325.28,279.10 322.54,279.10 319.80,279.10 317.07,279.10 314.33,279.10 311.59,279.10 308.86,278.83 306.12,278.79 303.38,278.79 300.64,278.79 297.91,278.65 295.17,278.60 292.43,278.60 289.70,278.60 286.96,278.60 284.22,278.60 281.49,278.60 278.75,278.60 276.01,278.60 273.27,278.50 270.54,278.50 267.80,278.50 265.06,278.32 262.33,278.32 259.59,278.32 256.85,278.32 254.12,278.09 251.38,277.95 248.64,277.95 245.91,277.95 243.17,277.95 240.43,277.95 237.69,277.95 234.96,277.95 232.22,277.95 229.48,277.95 226.75,277.95 224.01,277.95 221.27,277.95 218.54,277.95 215.80,277.66 213.06,277.46 210.32,277.24 207.59,277.22 204.85,277.22 202.11,277.22 199.38,277.22 196.64,277.22 193.90,277.22 191.17,277.22 188.43,277.22 185.69,277.22 182.96,277.01 180.22,276.97 177.48,276.97 174.74,276.97 172.01,276.97 169.27,276.97 166.53,276.97 163.80,276.97 161.06,276.97 158.32,276.97 155.59,276.97 152.85,276.97 150.11,276.97 147.38,276.97 144.64,276.97 141.90,276.97 139.16,276.97 136.43,276.97 133.69,276.97 130.95,276.97 128.22,276.97 125.48,276.97 122.74,276.97 120.01,276.97 117.27,276.97 114.53,276.97 111.79,276.97 109.06,276.97 106.32,276.97 103.58,276.97 100.85,276.97 98.11,276.97 95.37,276.97 92.64,276.97 89.90,276.97 87.16,276.97 84.43,276.97 81.69,276.97 78.95,276.97 76.21,276.97 73.48,276.97 70.74,276.97 68.00,276.97 65.27,276.97" style="stroke-width: 0.00;stroke: none;stroke-linecap: butt;fill: #7CAE00;fill-opacity: 0.20;" />
<polyline points="65.27,220.81 68.00,220.81 70.74,220.81 73.48,220.81 76.21,220.81 78.95,220.81 81.69,220.81 84.43,220.81 87.16,220.81 89.90,220.81 92.64,220.81 95.37,220.81 98.11,220.81 100.85,220.81 103.58,220.81 106.32,220.81 109.06,220.81 111.79,220.81 114.53,220.81 117.27,220.81 120.01,220.81 122.74,220.81 125.48,220.81 128.22,220.81 130.95,220.81 133.69,220.81 136.43,220.81 139.16,220.81 141.90,220.81 144.64,220.81 147.38,220.81 150.11,220.81 152.85,220.81 155.59,220.81 158.32,220.81 161.06,220.81 163.80,220.81 166.53,220.81 169.27,220.81 172.01,220.81 174.74,220.81 177.48,220.81 180.22,220.81 182.96,220.81 185.69,220.81 188.43,220.81 191.17,220.81 193.90,220.81 196.64,220.81 199.38,220.81 202.11,220.81 204.85,220.81 207.59,220.81 210.32,220.81 213.06,220.81 215.80,220.81 218.54,220.81 221.27,220.81 224.01,220.81 226.75,220.81 229.48,220.81 232.22,220.81 234.96,220.81 237.69,220.81 240.43,220.81 243.17,220.81 245.91,220.81 248.64,220.81 251.38,220.81 254.12,220.81 256.85,220.81 259.59,220.81 262.33,220.81 265.06,220.81 267.80,220.81 270.54,220.81 273.27,220.81 276.01,220.81 278.75,220.81 281.49,220.81 284.22,220.81 286.96,220.81 289.70,220.81 292.43,220.81 295.17,220.81 297.91,220.81 300.64,220.81 303.38,220.81 306.12,220.81 308.86,220.81 311.59,220.81 314.33,220.81 317.07,220.81 319.80,220.81 322.54,220.81 325.28,220.81 328.01,220.81 330.75,220.81 333.49,220.81 336.22,220.81 338.96,220.81 341.70,220.81 344.44,220.81 347.17,220.81 349.91,220.81 352.65,220.81 355.38,220.81 358.12,220.81 360.86,220.81 363.59,220.81 366.33,220.81 369.07,220.81 371.80,220.81 374.54,220.81 377.28,220.81 380.02,220.81 382.75,220.81 385.49,220.81 388.23,221.15 390.96,221.15 393.70,221.15 396.44,221.15 399.17,221.15 401.91,221.15 404.65,221.15 407.39,221.15 410.12,221.15 412.86,221.15 415.60,221.15 418.33,221.15 421.07,221.15 423.81,221.15 426.54,221.24 429.28,221.37 432.02,221.37 434.75,221.37 437.49,221.37 440.23,221.37 442.97,221.37 445.70,221.37 448.44,221.39 451.18,221.73 453.91,221.73 456.65,221.73 459.39,221.73 462.12,221.73 464.86,221.73 467.60,221.73 470.34,221.73 473.07,221.73 475.81,221.73 478.55,222.16 481.28,222.38 484.02,222.38 486.76,222.57 489.49,222.93 492.23,223.19 494.97,223.27 497.70,223.43 500.44,223.43 503.18,223.43 505.92,223.86 508.65,225.11 511.39,226.61 514.13,227.55 516.86,229.02 519.60,230.77 522.34,231.12 525.07,231.44 527.81,233.48 530.55,237.26 533.28,240.86 536.02,247.66 538.76,259.36 541.50,300.48 544.23,385.05 546.97,413.96 549.71,424.46 552.44,430.58 555.18,437.02 557.92,439.72 560.65,442.27 563.39,444.75 566.13,447.17 568.87,449.53 571.60,451.81 574.34,454.03 577.08,456.19 579.81,458.28 582.55,460.30 585.29,462.26 588.02,464.15 590.76,465.97 593.50,467.74 596.23,469.44 598.97,471.08 601.71,472.66 604.45,474.19 607.18,475.65 609.92,477.06" style="stroke-width: 1.07;stroke: none;stroke-linecap: butt;"/>
<polyline points="609.92,507.44 607.18,507.44 604.45,507.44 601.71,507.44 598.97,507.44 596.23,507.44 593.50,507.44 590.76,507.44 588.02,507.44 585.29,507.44 582.55,507.44 579.81,507.44 577.08,507.44 574.34,507.44 571.60,507.44 568.87,507.44 566.13,507.44 563.39,507.44 560.65,507.44 557.92,507.44 555.18,507.44 552.44,507.44 549.71,507.43 546.97,507.42 544.23,507.36 541.50,507.22 538.76,506.92 536.02,506.26 533.28,505.13 530.55,502.88 527.81,499.24 525.07,494.19 522.34,485.35 519.60,473.83 516.86,458.21 514.13,443.86 511.39,430.09 508.65,415.57 505.92,402.22 503.18,386.93 500.44,379.21 497.70,375.20 494.97,369.40 492.23,366.13 489.49,361.14 486.76,357.31 484.02,353.04 481.28,348.71 478.55,345.13 475.81,341.83 473.07,338.73 470.34,336.02 467.60,333.40 464.86,330.81 462.12,328.24 459.39,325.71 456.65,322.94 453.91,320.17 451.18,317.63 448.44,315.13 445.70,312.67 442.97,310.19 440.23,307.69 437.49,305.23 434.75,302.82 432.02,300.46 429.28,298.15 426.54,295.89 423.81,293.69 421.07,291.53 418.33,289.50 415.60,288.19 412.86,286.90 410.12,285.65 407.39,284.65 404.65,284.65 401.91,283.93 399.17,282.49 396.44,281.36 393.70,281.24 390.96,281.24 388.23,281.24 385.49,281.24 382.75,281.24 380.02,281.24 377.28,281.12 374.54,280.72 371.80,280.72 369.07,280.72 366.33,280.72 363.59,280.72 360.86,280.72 358.12,280.72 355.38,280.72 352.65,280.72 349.91,280.72 347.17,280.48 344.44,280.21 341.70,280.13 338.96,279.57 336.22,279.10 333.49,279.10 330.75,279.10 328.01,279.10 325.28,279.10 322.54,279.10 319.80,279.10 317.07,279.10 314.33,279.10 311.59,279.10 308.86,278.83 306.12,278.79 303.38,278.79 300.64,278.79 297.91,278.65 295.17,278.60 292.43,278.60 289.70,278.60 286.96,278.60 284.22,278.60 281.49,278.60 278.75,278.60 276.01,278.60 273.27,278.50 270.54,278.50 267.80,278.50 265.06,278.32 262.33,278.32 259.59,278.32 256.85,278.32 254.12,278.09 251.38,277.95 248.64,277.95 245.91,277.95 243.17,277.95 240.43,277.95 237.69,277.95 234.96,277.95 232.22,277.95 229.48,277.95 226.75,277.95 224.01,277.95 221.27,277.95 218.54,277.95 215.80,277.66 213.06,277.46 210.32,277.24 207.59,277.22 204.85,277.22 202.11,277.22 199.38,277.22 196.64,277.22 193.90,277.22 191.17,277.22 188.43,277.22 185.69,277.22 182.96,277.01 180.22,276.97 177.48,276.97 174.74,276.97 172.01,276.97 169.27,276.97 166.53,276.97 163.80,276.97 161.06,276.97 158.32,276.97 155.59,276.97 152.85,276.97 150.11,276.97 147.38,276.97 144.64,276.97 141.90,276.97 139.16,276.97 136.43,276.97 133.69,276.97 130.95,276.97 128.22,276.97 125.48,276.97 122.74,276.97 120.01,276.97 117.27,276.97 114.53,276.97 111.79,276.97 109.06,276.97 106.32,276.97 103.58,276.97 100.85,276.97 98.11,276.97 95.37,276.97 92.64,276.97 89.90,276.97 87.16,276.97 84.43,276.97 81.69,276.97 78.95,276.97 76.21,276.97 73.48,276.97 70.74,276.97 68.00,276.97 65.27,276.97" style="stroke-width: 1.07;stroke: none;stroke-linecap: butt;"/>
<polygon points="65.27,228.41 68.00,228.41 70.74,228.41 73.48,228.41 76.21,228.41 78.95,228.41 81.69,228.41 84.43,228.41 87.16,228.42 89.90,228.42 92.64,228.42 95.37,228.42 98.11,228.42 100.85,228.42 103.58,228.42 106.32,228.42 109.06,228.42 111.79,228.42 114.53,228.42 117.27,228.42 120.01,228.42 122.74,228.42 125.48,228.42 128.22,228.42 130.95,228.42 133.69,228.45 136.43,228.45 139.16,228.45 141.90,228.45 144.64,228.45 147.38,228.45 150.11,228.45 152.85,228.47 155.59,228.49 158.32,228.50 161.06,228.50 163.80,228.50 166.53,228.50 169.27,228.51 172.01,228.55 174.74,228.58 177.48,228.59 180.22,228.63 182.96,228.64 185.69,228.65 188.43,228.65 191.17,228.65 193.90,228.65 196.64,228.66 199.38,228.66 202.11,228.66 204.85,228.71 207.59,228.74 210.32,228.74 213.06,228.74 215.80,228.74 218.54,228.74 221.27,228.74 224.01,228.74 226.75,228.74 229.48,228.74 232.22,228.75 234.96,228.76 237.69,228.77 240.43,228.78 243.17,228.80 245.91,228.83 248.64,228.84 251.38,228.86 254.12,228.87 256.85,228.88 259.59,228.89 262.33,228.89 265.06,228.89 267.80,228.89 270.54,228.89 273.27,228.97 276.01,228.98 278.75,228.99 281.49,229.02 284.22,229.06 286.96,229.09 289.70,229.13 292.43,229.18 295.17,229.23 297.91,229.26 300.64,229.29 303.38,229.33 306.12,229.38 308.86,229.46 311.59,229.58 314.33,229.75 317.07,229.82 319.80,229.87 322.54,230.11 325.28,230.28 328.01,230.47 330.75,230.65 333.49,230.69 336.22,230.90 338.96,230.99 341.70,231.19 344.44,231.35 347.17,231.47 349.91,231.70 352.65,231.88 355.38,232.11 358.12,232.43 360.86,232.73 363.59,232.99 366.33,233.17 369.07,233.35 371.80,233.62 374.54,233.76 377.28,234.20 380.02,234.50 382.75,234.89 385.49,235.27 388.23,235.82 390.96,236.15 393.70,236.80 396.44,237.32 399.17,237.92 401.91,238.58 404.65,239.30 407.39,240.08 410.12,240.85 412.86,241.84 415.60,242.52 418.33,243.43 421.07,244.11 423.81,245.01 426.54,246.37 429.28,247.33 432.02,248.58 434.75,250.01 437.49,251.29 440.23,252.54 442.97,254.60 445.70,256.57 448.44,258.48 451.18,260.67 453.91,262.67 456.65,265.40 459.39,268.15 462.12,271.29 464.86,275.39 467.60,278.77 470.34,282.86 473.07,286.74 475.81,291.18 478.55,296.41 481.28,301.86 484.02,307.81 486.76,314.43 489.49,321.18 492.23,328.46 494.97,335.64 497.70,343.25 500.44,350.68 503.18,358.30 505.92,365.13 508.65,372.16 511.39,377.46 514.13,381.52 516.86,385.41 519.60,389.10 522.34,393.47 525.07,396.76 527.81,400.20 530.55,403.25 533.28,406.23 536.02,409.05 538.76,412.30 541.50,415.04 544.23,418.17 546.97,420.62 549.71,422.90 552.44,425.04 555.18,427.42 557.92,429.45 560.65,431.39 563.39,433.56 566.13,435.52 568.87,437.39 571.60,439.03 574.34,440.61 577.08,442.31 579.81,443.92 582.55,445.62 585.29,447.73 588.02,449.75 590.76,451.59 593.50,453.08 596.23,454.43 598.97,455.72 601.71,457.29 604.45,458.49 607.18,459.67 609.92,461.01 609.92,507.44 607.18,507.44 604.45,507.44 601.71,507.44 598.97,507.44 596.23,507.44 593.50,507.44 590.76,507.44 588.02,507.44 585.29,507.44 582.55,507.44 579.81,507.44 577.08,507.43 574.34,507.43 571.60,507.43 568.87,507.43 566.13,507.42 563.39,507.42 560.65,507.41 557.92,507.40 555.18,507.39 552.44,507.38 549.71,507.37 546.97,507.34 544.23,507.32 541.50,507.28 538.76,507.24 536.02,507.19 533.28,507.12 530.55,507.05 527.81,506.95 525.07,506.84 522.34,506.69 519.60,506.54 516.86,506.35 514.13,506.10 511.39,505.85 508.65,505.54 505.92,505.17 503.18,504.64 500.44,504.02 497.70,503.14 494.97,502.16 492.23,501.02 489.49,499.59 486.76,498.04 484.02,496.04 481.28,493.69 478.55,491.34 475.81,488.49 473.07,484.73 470.34,480.58 467.60,475.76 464.86,469.30 462.12,462.97 459.39,455.14 456.65,446.28 453.91,439.75 451.18,433.49 448.44,426.50 445.70,416.76 442.97,409.16 440.23,398.99 437.49,388.05 434.75,377.66 432.02,371.14 429.28,366.35 426.54,361.08 423.81,356.26 421.07,351.93 418.33,347.24 415.60,344.34 412.86,341.53 410.12,338.91 407.39,334.98 404.65,331.77 401.91,327.71 399.17,324.46 396.44,321.92 393.70,320.19 390.96,317.05 388.23,315.13 385.49,313.20 382.75,311.29 380.02,309.11 377.28,306.68 374.54,304.80 371.80,302.90 369.07,300.95 366.33,299.16 363.59,297.64 360.86,296.37 358.12,294.50 355.38,293.51 352.65,293.04 349.91,292.01 347.17,291.03 344.44,289.86 341.70,289.20 338.96,288.05 336.22,287.37 333.49,286.38 330.75,286.02 328.01,285.24 325.28,284.86 322.54,284.37 319.80,283.71 317.07,283.37 314.33,282.61 311.59,282.22 308.86,282.16 306.12,281.38 303.38,281.10 300.64,280.97 297.91,280.90 295.17,280.43 292.43,280.43 289.70,280.14 286.96,279.91 284.22,279.91 281.49,279.71 278.75,279.57 276.01,279.36 273.27,279.18 270.54,279.18 267.80,279.06 265.06,278.98 262.33,278.89 259.59,278.89 256.85,278.89 254.12,278.83 251.38,278.78 248.64,278.63 245.91,278.61 243.17,278.58 240.43,278.58 237.69,278.52 234.96,278.52 232.22,278.39 229.48,278.28 226.75,278.12 224.01,278.12 221.27,278.07 218.54,277.95 215.80,277.95 213.06,277.94 210.32,277.94 207.59,277.93 204.85,277.84 202.11,277.72 199.38,277.72 196.64,277.72 193.90,277.72 191.17,277.72 188.43,277.72 185.69,277.72 182.96,277.72 180.22,277.72 177.48,277.62 174.74,277.62 172.01,277.62 169.27,277.62 166.53,277.62 163.80,277.62 161.06,277.62 158.32,277.59 155.59,277.59 152.85,277.59 150.11,277.53 147.38,277.51 144.64,277.51 141.90,277.51 139.16,277.51 136.43,277.51 133.69,277.51 130.95,277.51 128.22,277.51 125.48,277.51 122.74,277.51 120.01,277.51 117.27,277.51 114.53,277.51 111.79,277.51 109.06,277.51 106.32,277.51 103.58,277.51 100.85,277.51 98.11,277.51 95.37,277.43 92.64,277.43 89.90,277.43 87.16,277.43 84.43,277.43 81.69,277.43 78.95,277.43 76.21,277.43 73.48,277.43 70.74,277.43 68.00,277.36 65.27,277.32" style="stroke-width: 0.00;stroke: none;stroke-linecap: butt;fill: #00BFC4;fill-opacity: 0.20;" />
<polyline points="65.27,228.41 68.00,228.41 70.74,228.41 73.48,228.41 76.21,228.41 78.95,228.41 81.69,228.41 84.43,228.41 87.16,228.42 89.90,228.42 92.64,228.42 95.37,228.42 98.11,228.42 100.85,228.42 103.58,228.42 106.32,228.42 109.06,228.42 111.79,228.42 114.53,228.42 117.27,228.42 120.01,228.42 122.74,228.42 125.48,228.42 128.22,228.42 130.95,228.42 133.69,228.45 136.43,228.45 139.16,228.45 141.90,228.45 144.64,228.45 147.38,228.45 150.11,228.45 152.85,228.47 155.59,228.49 158.32,228.50 161.06,228.50 163.80,228.50 166.53,228.50 169.27,228.51 172.01,228.55 174.74,228.58 177.48,228.59 180.22,228.63 182.96,228.64 185.69,228.65 188.43,228.65 191.17,228.65 193.90,228.65 196.64,228.66 199.38,228.66 202.11,228.66 204.85,228.71 207.59,228.74 210.32,228.74 213.06,228.74 215.80,228.74 218.54,228.74 221.27,228.74 224.01,228.74 226.75,228.74 229.48,228.74 232.22,228.75 234.96,228.76 237.69,228.77 240.43,228.78 243.17,228.80 245.91,228.83 248.64,228.84 251.38,228.86 254.12,228.87 256.85,228.88 259.59,228.89 262.33,228.89 265.06,228.89 267.80,228.89 270.54,228.89 273.27,228.97 276.01,228.98 278.75,228.99 281.49,229.02 284.22,229.06 286.96,229.09 289.70,229.13 292.43,229.18 295.17,229.23 297.91,229.26 300.64,229.29 303.38,229.33 306.12,229.38 308.86,229.46 311.59,229.58 314.33,229.75 317.07,229.82 319.80,229.87 322.54,230.11 325.28,230.28 328.01,230.47 330.75,230.65 333.49,230.69 336.22,230.90 338.96,230.99 341.70,231.19 344.44,231.35 347.17,231.47 349.91,231.70 352.65,231.88 355.38,232.11 358.12,232.43 360.86,232.73 363.59,232.99 366.33,233.17 369.07,233.35 371.80,233.62 374.54,233.76 377.28,234.20 380.02,234.50 382.75,234.89 385.49,235.27 388.23,235.82 390.96,236.15 393.70,236.80 396.44,237.32 399.17,237.92 401.91,238.58 404.65,239.30 407.39,240.08 410.12,240.85 412.86,241.84 415.60,242.52 418.33,243.43 421.07,244.11 423.81,245.01 426.54,246.37 429.28,247.33 432.02,248.58 434.75,250.01 437.49,251.29 440.23,252.54 442.97,254.60 445.70,256.57 448.44,258.48 451.18,260.67 453.91,262.67 456.65,265.40 459.39,268.15 462.12,271.29 464.86,275.39 467.60,278.77 470.34,282.86 473.07,286.74 475.81,291.18 478.55,296.41 481.28,301.86 484.02,307.81 486.76,314.43 489.49,321.18 492.23,328.46 494.97,335.64 497.70,343.25 500.44,350.68 503.18,358.30 505.92,365.13 508.65,372.16 511.39,377.46 514.13,381.52 516.86,385.41 519.60,389.10 522.34,393.47 525.07,396.76 527.81,400.20 530.55,403.25 533.28,406.23 536.02,409.05 538.76,412.30 541.50,415.04 544.23,418.17 546.97,420.62 549.71,422.90 552.44,425.04 555.18,427.42 557.92,429.45 560.65,431.39 563.39,433.56 566.13,435.52 568.87,437.39 571.60,439.03 574.34,440.61 577.08,442.31 579.81,443.92 582.55,445.62 585.29,447.73 588.02,449.75 590.76,451.59 593.50,453.08 596.23,454.43 598.97,455.72 601.71,457.29 604.45,458.49 607.18,459.67 609.92,461.01" style="stroke-width: 1.07;stroke: none;stroke-linecap: butt;"/>
<polyline points="609.92,507.44 607.18,507.44 604.45,507.44 601.71,507.44 598.97,507.44 596.23,507.44 593.50,507.44 590.76,507.44 588.02,507.44 585.29,507.44 582.55,507.44 579.81,507.44 577.08,507.43 574.34,507.43 571.60,507.43 568.87,507.43 566.13,507.42 563.39,507.42 560.65,507.41 557.92,507.40 555.18,507.39 552.44,507.38 549.71,507.37 546.97,507.34 544.23,507.32 541.50,507.28 538.76,507.24 536.02,507.19 533.28,507.12 530.55,507.05 527.81,506.95 525.07,506.84 522.34,506.69 519.60,506.54 516.86,506.35 514.13,506.10 511.39,505.85 508.65,505.54 505.92,505.17 503.18,504.64 500.44,504.02 497.70,503.14 494.97,502.16 492.23,501.02 489.49,499.59 486.76,498.04 484.02,496.04 481.28,493.69 478.55,491.34 475.81,488.49 473.07,484.73 470.34,480.58 467.60,475.76 464.86,469.30 462.12,462.97 459.39,455.14 456.65,446.28 453.91,439.75 451.18,433.49 448.44,426.50 445.70,416.76 442.97,409.16 440.23,398.99 437.49,388.05 434.75,377.66 432.02,371.14 429.28,366.35 426.54,361.08 423.81,356.26 421.07,351.93 418.33,347.24 415.60,344.34 412.86,341.53 410.12,338.91 407.39,334.98 404.65,331.77 401.91,327.71 399.17,324.46 396.44,321.92 393.70,320.19 390.96,317.05 388.23,315.13 385.49,313.20 382.75,311.29 380.02,309.11 377.28,306.68 374.54,304.80 371.80,302.90 369.07,300.95 366.33,299.16 363.59,297.64 360.86,296.37 358.12,294.50 355.38,293.51 352.65,293.04 349.91,292.01 347.17,291.03 344.44,289.86 341.70,289.20 338.96,288.05 336.22,287.37 333.49,286.38 330.75,286.02 328.01,285.24 325.28,284.86 322.54,284.37 319.80,283.71 317.07,283.37 314.33,282.61 311.59,282.22 308.86,282.16 306.12,281.38 303.38,281.10 300.64,280.97 297.91,280.90 295.17,280.43 292.43,280.43 289.70,280.14 286.96,279.91 284.22,279.91 281.49,279.71 278.75,279.57 276.01,279.36 273.27,279.18 270.54,279.18 267.80,279.06 265.06,278.98 262.33,278.89 259.59,278.89 256.85,278.89 254.12,278.83 251.38,278.78 248.64,278.63 245.91,278.61 243.17,278.58 240.43,278.58 237.69,278.52 234.96,278.52 232.22,278.39 229.48,278.28 226.75,278.12 224.01,278.12 221.27,278.07 218.54,277.95 215.80,277.95 213.06,277.94 210.32,277.94 207.59,277.93 204.85,277.84 202.11,277.72 199.38,277.72 196.64,277.72 193.90,277.72 191.17,277.72 188.43,277.72 185.69,277.72 182.96,277.72 180.22,277.72 177.48,277.62 174.74,277.62 172.01,277.62 169.27,277.62 166.53,277.62 163.80,277.62 161.06,277.62 158.32,277.59 155.59,277.59 152.85,277.59 150.11,277.53 147.38,277.51 144.64,277.51 141.90,277.51 139.16,277.51 136.43,277.51 133.69,277.51 130.95,277.51 128.22,277.51 125.48,277.51 122.74,277.51 120.01,277.51 117.27,277.51 114.53,277.51 111.79,277.51 109.06,277.51 106.32,277.51 103.58,277.51 100.85,277.51 98.11,277.51 95.37,277.43 92.64,277.43 89.90,277.43 87.16,277.43 84.43,277.43 81.69,277.43 78.95,277.43 76.21,277.43 73.48,277.43 70.74,277.43 68.00,277.36 65.27,277.32" style="stroke-width: 1.07;stroke: none;stroke-linecap: butt;"/>
<polygon points="65.27,216.35 68.00,216.37 70.74,216.39 73.48,216.39 76.21,216.39 78.95,216.39 81.69,216.39 84.43,216.39 87.16,216.39 89.90,216.39 92.64,216.44 95.37,216.45 98.11,216.45 100.85,216.45 103.58,216.45 106.32,216.45 109.06,216.45 111.79,216.45 114.53,216.45 117.27,216.45 120.01,216.45 122.74,216.45 125.48,216.45 128.22,216.46 130.95,216.46 133.69,216.46 136.43,216.46 139.16,216.46 141.90,216.46 144.64,216.46 147.38,216.46 150.11,216.46 152.85,216.46 155.59,216.46 158.32,216.46 161.06,216.48 163.80,216.51 166.53,216.53 169.27,216.61 172.01,216.77 174.74,216.83 177.48,216.83 180.22,216.91 182.96,216.95 185.69,216.95 188.43,216.95 191.17,216.95 193.90,216.95 196.64,217.05 199.38,217.17 202.11,217.23 204.85,217.25 207.59,217.26 210.32,217.29 213.06,217.30 215.80,217.31 218.54,217.36 221.27,217.39 224.01,217.50 226.75,217.50 229.48,217.50 232.22,217.52 234.96,217.55 237.69,217.60 240.43,217.61 243.17,217.61 245.91,217.61 248.64,217.63 251.38,217.63 254.12,217.63 256.85,217.63 259.59,217.63 262.33,217.69 265.06,217.69 267.80,217.69 270.54,217.69 273.27,217.79 276.01,217.79 278.75,217.79 281.49,217.79 284.22,217.82 286.96,217.89 289.70,217.94 292.43,217.96 295.17,217.97 297.91,218.02 300.64,218.05 303.38,218.08 306.12,218.11 308.86,218.13 311.59,218.21 314.33,218.23 317.07,218.29 319.80,218.30 322.54,218.48 325.28,218.59 328.01,218.66 330.75,218.74 333.49,218.83 336.22,218.97 338.96,219.09 341.70,219.16 344.44,219.34 347.17,219.48 349.91,219.57 352.65,219.65 355.38,219.69 358.12,219.83 360.86,219.98 363.59,220.04 366.33,220.05 369.07,220.10 371.80,220.17 374.54,220.32 377.28,220.58 380.02,220.70 382.75,220.89 385.49,220.98 388.23,221.09 390.96,221.21 393.70,221.29 396.44,221.52 399.17,221.69 401.91,221.84 404.65,222.19 407.39,222.28 410.12,222.37 412.86,222.66 415.60,222.73 418.33,222.94 421.07,223.27 423.81,223.71 426.54,224.10 429.28,224.41 432.02,224.94 434.75,225.23 437.49,225.95 440.23,226.34 442.97,226.68 445.70,227.21 448.44,227.90 451.18,228.68 453.91,229.52 456.65,230.18 459.39,231.15 462.12,232.06 464.86,233.11 467.60,234.36 470.34,235.43 473.07,236.82 475.81,238.19 478.55,239.58 481.28,241.45 484.02,242.96 486.76,244.91 489.49,246.84 492.23,249.64 494.97,253.32 497.70,256.89 500.44,261.67 503.18,267.18 505.92,275.29 508.65,284.76 511.39,296.31 514.13,311.80 516.86,328.87 519.60,345.37 522.34,364.37 525.07,379.05 527.81,386.74 530.55,394.39 533.28,398.33 536.02,401.10 538.76,403.41 541.50,405.92 544.23,407.71 546.97,409.35 549.71,410.69 552.44,412.43 555.18,414.16 557.92,415.87 560.65,417.57 563.39,419.09 566.13,420.76 568.87,422.43 571.60,424.08 574.34,425.63 577.08,426.96 579.81,428.28 582.55,429.58 585.29,430.88 588.02,432.00 590.76,432.97 593.50,433.93 596.23,434.88 598.97,435.93 601.71,437.51 604.45,439.12 607.18,440.70 609.92,441.89 609.92,507.44 607.18,507.44 604.45,507.44 601.71,507.43 598.97,507.43 596.23,507.42 593.50,507.42 590.76,507.41 588.02,507.39 585.29,507.37 582.55,507.35 579.81,507.31 577.08,507.26 574.34,507.20 571.60,507.11 568.87,507.00 566.13,506.86 563.39,506.67 560.65,506.41 557.92,506.07 555.18,505.68 552.44,505.12 549.71,504.43 546.97,503.56 544.23,502.57 541.50,501.28 538.76,499.78 536.02,497.87 533.28,495.61 530.55,492.88 527.81,489.82 525.07,486.70 522.34,482.74 519.60,478.16 516.86,473.91 514.13,468.79 511.39,463.00 508.65,456.95 505.92,450.07 503.18,442.76 500.44,436.66 497.70,429.81 494.97,422.26 492.23,416.25 489.49,409.85 486.76,403.60 484.02,397.74 481.28,391.86 478.55,387.67 475.81,382.01 473.07,377.86 470.34,373.67 467.60,370.68 464.86,368.69 462.12,366.51 459.39,364.38 456.65,363.05 453.91,360.98 451.18,358.61 448.44,356.72 445.70,354.60 442.97,353.14 440.23,351.40 437.49,349.42 434.75,347.77 432.02,346.29 429.28,344.20 426.54,342.71 423.81,340.99 421.07,339.26 418.33,337.07 415.60,335.32 412.86,333.58 410.12,331.97 407.39,330.45 404.65,328.94 401.91,327.45 399.17,325.96 396.44,324.53 393.70,323.03 390.96,321.58 388.23,320.14 385.49,318.72 382.75,317.31 380.02,315.91 377.28,314.53 374.54,313.16 371.80,311.56 369.07,310.30 366.33,309.10 363.59,307.81 360.86,306.51 358.12,305.28 355.38,304.11 352.65,302.79 349.91,301.46 347.17,300.24 344.44,299.03 341.70,297.81 338.96,296.63 336.22,295.49 333.49,294.37 330.75,293.32 328.01,292.26 325.28,291.19 322.54,290.14 319.80,289.09 317.07,288.06 314.33,287.03 311.59,286.02 308.86,285.02 306.12,284.03 303.38,283.05 300.64,282.08 297.91,281.12 295.17,280.39 292.43,279.64 289.70,278.74 286.96,277.84 284.22,276.96 281.49,276.07 278.75,275.18 276.01,274.25 273.27,273.37 270.54,272.50 267.80,271.64 265.06,270.79 262.33,269.95 259.59,269.11 256.85,268.29 254.12,267.53 251.38,266.82 248.64,266.29 245.91,265.53 243.17,265.06 240.43,265.06 237.69,264.35 234.96,264.14 232.22,264.04 229.48,263.88 226.75,263.45 224.01,263.20 221.27,263.20 218.54,263.20 215.80,263.05 213.06,262.89 210.32,262.48 207.59,262.03 204.85,261.87 202.11,261.59 199.38,261.36 196.64,261.36 193.90,261.36 191.17,261.36 188.43,260.90 185.69,260.84 182.96,260.82 180.22,260.60 177.48,260.54 174.74,260.45 172.01,260.21 169.27,259.90 166.53,259.75 163.80,259.59 161.06,259.59 158.32,259.59 155.59,259.39 152.85,259.39 150.11,259.35 147.38,259.29 144.64,259.29 141.90,259.29 139.16,259.27 136.43,259.27 133.69,259.27 130.95,259.21 128.22,259.21 125.48,259.03 122.74,259.03 120.01,259.03 117.27,259.03 114.53,259.03 111.79,259.03 109.06,258.92 106.32,258.92 103.58,258.92 100.85,258.90 98.11,258.84 95.37,258.84 92.64,258.81 89.90,258.79 87.16,258.79 84.43,258.79 81.69,258.79 78.95,258.79 76.21,258.79 73.48,258.71 70.74,258.71 68.00,258.64 65.27,258.64" style="stroke-width: 0.00;stroke: none;stroke-linecap: butt;fill: #C77CFF;fill-opacity: 0.20;" />
<polyline points="65.27,216.35 68.00,216.37 70.74,216.39 73.48,216.39 76.21,216.39 78.95,216.39 81.69,216.39 84.43,216.39 87.16,216.39 89.90,216.39 92.64,216.44 95.37,216.45 98.11,216.45 100.85,216.45 103.58,216.45 106.32,216.45 109.06,216.45 111.79,216.45 114.53,216.45 117.27,216.45 120.01,216.45 122.74,216.45 125.48,216.45 128.22,216.46 130.95,216.46 133.69,216.46 136.43,216.46 139.16,216.46 141.90,216.46 144.64,216.46 147.38,216.46 150.11,216.46 152.85,216.46 155.59,216.46 158.32,216.46 161.06,216.48 163.80,216.51 166.53,216.53 169.27,216.61 172.01,216.77 174.74,216.83 177.48,216.83 180.22,216.91 182.96,216.95 185.69,216.95 188.43,216.95 191.17,216.95 193.90,216.95 196.64,217.05 199.38,217.17 202.11,217.23 204.85,217.25 207.59,217.26 210.32,217.29 213.06,217.30 215.80,217.31 218.54,217.36 221.27,217.39 224.01,217.50 226.75,217.50 229.48,217.50 232.22,217.52 234.96,217.55 237.69,217.60 240.43,217.61 243.17,217.61 245.91,217.61 248.64,217.63 251.38,217.63 254.12,217.63 256.85,217.63 259.59,217.63 262.33,217.69 265.06,217.69 267.80,217.69 270.54,217.69 273.27,217.79 276.01,217.79 278.75,217.79 281.49,217.79 284.22,217.82 286.96,217.89 289.70,217.94 292.43,217.96 295.17,217.97 297.91,218.02 300.64,218.05 303.38,218.08 306.12,218.11 308.86,218.13 311.59,218.21 314.33,218.23 317.07,218.29 319.80,218.30 322.54,218.48 325.28,218.59 328.01,218.66 330.75,218.74 333.49,218.83 336.22,218.97 338.96,219.09 341.70,219.16 344.44,219.34 347.17,219.48 349.91,219.57 352.65,219.65 355.38,219.69 358.12,219.83 360.86,219.98 363.59,220.04 366.33,220.05 369.07,220.10 371.80,220.17 374.54,220.32 377.28,220.58 380.02,220.70 382.75,220.89 385.49,220.98 388.23,221.09 390.96,221.21 393.70,221.29 396.44,221.52 399.17,221.69 401.91,221.84 404.65,222.19 407.39,222.28 410.12,222.37 412.86,222.66 415.60,222.73 418.33,222.94 421.07,223.27 423.81,223.71 426.54,224.10 429.28,224.41 432.02,224.94 434.75,225.23 437.49,225.95 440.23,226.34 442.97,226.68 445.70,227.21 448.44,227.90 451.18,228.68 453.91,229.52 456.65,230.18 459.39,231.15 462.12,232.06 464.86,233.11 467.60,234.36 470.34,235.43 473.07,236.82 475.81,238.19 478.55,239.58 481.28,241.45 484.02,242.96 486.76,244.91 489.49,246.84 492.23,249.64 494.97,253.32 497.70,256.89 500.44,261.67 503.18,267.18 505.92,275.29 508.65,284.76 511.39,296.31 514.13,311.80 516.86,328.87 519.60,345.37 522.34,364.37 525.07,379.05 527.81,386.74 530.55,394.39 533.28,398.33 536.02,401.10 538.76,403.41 541.50,405.92 544.23,407.71 546.97,409.35 549.71,410.69 552.44,412.43 555.18,414.16 557.92,415.87 560.65,417.57 563.39,419.09 566.13,420.76 568.87,422.43 571.60,424.08 574.34,425.63 577.08,426.96 579.81,428.28 582.55,429.58 585.29,430.88 588.02,432.00 590.76,432.97 593.50,433.93 596.23,434.88 598.97,435.93 601.71,437.51 604.45,439.12 607.18,440.70 609.92,441.89" style="stroke-width: 1.07;stroke: none;stroke-linecap: butt;"/>
<polyline points="609.92,507.44 607.18,507.44 604.45,507.44 601.71,507.43 598.97,507.43 596.23,507.42 593.50,507.42 590.76,507.41 588.02,507.39 585.29,507.37 582.55,507.35 579.81,507.31 577.08,507.26 574.34,507.20 571.60,507.11 568.87,507.00 566.13,506.86 563.39,506.67 560.65,506.41 557.92,506.07 555.18,505.68 552.44,505.12 549.71,504.43 546.97,503.56 544.23,502.57 541.50,501.28 538.76,499.78 536.02,497.87 533.28,495.61 530.55,492.88 527.81,489.82 525.07,486.70 522.34,482.74 519.60,478.16 516.86,473.91 514.13,468.79 511.39,463.00 508.65,456.95 505.92,450.07 503.18,442.76 500.44,436.66 497.70,429.81 494.97,422.26 492.23,416.25 489.49,409.85 486.76,403.60 484.02,397.74 481.28,391.86 478.55,387.67 475.81,382.01 473.07,377.86 470.34,373.67 467.60,370.68 464.86,368.69 462.12,366.51 459.39,364.38 456.65,363.05 453.91,360.98 451.18,358.61 448.44,356.72 445.70,354.60 442.97,353.14 440.23,351.40 437.49,349.42 434.75,347.77 432.02,346.29 429.28,344.20 426.54,342.71 423.81,340.99 421.07,339.26 418.33,337.07 415.60,335.32 412.86,333.58 410.12,331.97 407.39,330.45 404.65,328.94 401.91,327.45 399.17,325.96 396.44,324.53 393.70,323.03 390.96,321.58 388.23,320.14 385.49,318.72 382.75,317.31 380.02,315.91 377.28,314.53 374.54,313.16 371.80,311.56 369.07,310.30 366.33,309.10 363.59,307.81 360.86,306.51 358.12,305.28 355.38,304.11 352.65,302.79 349.91,301.46 347.17,300.24 344.44,299.03 341.70,297.81 338.96,296.63 336.22,295.49 333.49,294.37 330.75,293.32 328.01,292.26 325.28,291.19 322.54,290.14 319.80,289.09 317.07,288.06 314.33,287.03 311.59,286.02 308.86,285.02 306.12,284.03 303.38,283.05 300.64,282.08 297.91,281.12 295.17,280.39 292.43,279.64 289.70,278.74 286.96,277.84 284.22,276.96 281.49,276.07 278.75,275.18 276.01,274.25 273.27,273.37 270.54,272.50 267.80,271.64 265.06,270.79 262.33,269.95 259.59,269.11 256.85,268.29 254.12,267.53 251.38,266.82 248.64,266.29 245.91,265.53 243.17,265.06 240.43,265.06 237.69,264.35 234.96,264.14 232.22,264.04 229.48,263.88 226.75,263.45 224.01,263.20 221.27,263.20 218.54,263.20 215.80,263.05 213.06,262.89 210.32,262.48 207.59,262.03 204.85,261.87 202.11,261.59 199.38,261.36 196.64,261.36 193.90,261.36 191.17,261.36 188.43,260.90 185.69,260.84 182.96,260.82 180.22,260.60 177.48,260.54 174.74,260.45 172.01,260.21 169.27,259.90 166.53,259.75 163.80,259.59 161.06,259.59 158.32,259.59 155.59,259.39 152.85,259.39 150.11,259.35 147.38,259.29 144.64,259.29 141.90,259.29 139.16,259.27 136.43,259.27 133.69,259.27 130.95,259.21 128.22,259.21 125.48,259.03 122.74,259.03 120.01,259.03 117.27,259.03 114.53,259.03 111.79,259.03 109.06,258.92 106.32,258.92 103.58,258.92 100.85,258.90 98.11,258.84 95.37,258.84 92.64,258.81 89.90,258.79 87.16,258.79 84.43,258.79 81.69,258.79 78.95,258.79 76.21,258.79 73.48,258.71 70.74,258.71 68.00,258.64 65.27,258.64" style="stroke-width: 1.07;stroke: none;stroke-linecap: butt;"/>
<circle cx="65.27" cy="262.72" r="2.06" style="stroke-width: 0.71;stroke: #F8766D;stroke-opacity: 0.70;fill: #F8766D;fill-opacity: 0.70;"/>
<circle cx="65.27" cy="260.69" r="2.06" style="stroke-width: 0.71;stroke: #F8766D;stroke-opacity: 0.70;fill: #F8766D;fill-opacity: 0.70;"/>
<circle cx="65.27" cy="213.83" r="2.06" style="stroke-width: 0.71;stroke: #F8766D;stroke-opacity: 0.70;fill: #F8766D;fill-opacity: 0.70;"/>
<circle cx="65.27" cy="226.14" r="2.06" style="stroke-width: 0.71;stroke: #7CAE00;stroke-opacity: 0.70;fill: #7CAE00;fill-opacity: 0.70;"/>
<circle cx="65.27" cy="227.10" r="2.06" style="stroke-width: 0.71;stroke: #7CAE00;stroke-opacity: 0.70;fill: #7CAE00;fill-opacity: 0.70;"/>
<circle cx="65.27" cy="198.38" r="2.06" style="stroke-width: 0.71;stroke: #7CAE00;stroke-opacity: 0.70;fill: #7CAE00;fill-opacity: 0.70;"/>
<circle cx="65.27" cy="214.93" r="2.06" style="stroke-width: 0.71;stroke: #00BFC4;stroke-opacity: 0.70;fill: #00BFC4;fill-opacity: 0.70;"/>
<circle cx="65.27" cy="234.34" r="2.06" style="stroke-width: 0.71;stroke: #00BFC4;stroke-opacity: 0.70;fill: #00BFC4;fill-opacity: 0.70;"/>
<circle cx="65.27" cy="230.63" r="2.06" style="stroke-width: 0.71;stroke: #00BFC4;stroke-opacity: 0.70;fill: #00BFC4;fill-opacity: 0.70;"/>
<circle cx="65.27" cy="213.04" r="2.06" style="stroke-width: 0.71;stroke: #C77CFF;stroke-opacity: 0.70;fill: #C77CFF;fill-opacity: 0.70;"/>
<circle cx="65.27" cy="252.22" r="2.06" style="stroke-width: 0.71;stroke: #C77CFF;stroke-opacity: 0.70;fill: #C77CFF;fill-opacity: 0.70;"/>
<circle cx="65.27" cy="243.51" r="2.06" style="stroke-width: 0.71;stroke: #C77CFF;stroke-opacity: 0.70;fill: #C77CFF;fill-opacity: 0.70;"/>
<circle cx="174.57" cy="282.71" r="2.06" style="stroke-width: 0.71;stroke: #F8766D;stroke-opacity: 0.70;fill: #F8766D;fill-opacity: 0.70;"/>
<circle cx="174.57" cy="201.00" r="2.06" style="stroke-width: 0.71;stroke: #F8766D;stroke-opacity: 0.70;fill: #F8766D;fill-opacity: 0.70;"/>
<circle cx="174.57" cy="201.04" r="2.06" style="stroke-width: 0.71;stroke: #F8766D;stroke-opacity: 0.70;fill: #F8766D;fill-opacity: 0.70;"/>
<circle cx="174.57" cy="273.33" r="2.06" style="stroke-width: 0.71;stroke: #7CAE00;stroke-opacity: 0.70;fill: #7CAE00;fill-opacity: 0.70;"/>
<circle cx="174.57" cy="278.68" r="2.06" style="stroke-width: 0.71;stroke: #7CAE00;stroke-opacity: 0.70;fill: #7CAE00;fill-opacity: 0.70;"/>
<circle cx="174.57" cy="275.14" r="2.06" style="stroke-width: 0.71;stroke: #7CAE00;stroke-opacity: 0.70;fill: #7CAE00;fill-opacity: 0.70;"/>
<circle cx="174.57" cy="278.04" r="2.06" style="stroke-width: 0.71;stroke: #00BFC4;stroke-opacity: 0.70;fill: #00BFC4;fill-opacity: 0.70;"/>
<circle cx="174.57" cy="290.91" r="2.06" style="stroke-width: 0.71;stroke: #00BFC4;stroke-opacity: 0.70;fill: #00BFC4;fill-opacity: 0.70;"/>
<circle cx="174.57" cy="295.57" r="2.06" style="stroke-width: 0.71;stroke: #00BFC4;stroke-opacity: 0.70;fill: #00BFC4;fill-opacity: 0.70;"/>
<circle cx="174.57" cy="290.44" r="2.06" style="stroke-width: 0.71;stroke: #C77CFF;stroke-opacity: 0.70;fill: #C77CFF;fill-opacity: 0.70;"/>
<circle cx="174.57" cy="260.32" r="2.06" style="stroke-width: 0.71;stroke: #C77CFF;stroke-opacity: 0.70;fill: #C77CFF;fill-opacity: 0.70;"/>
<circle cx="174.57" cy="244.02" r="2.06" style="stroke-width: 0.71;stroke: #C77CFF;stroke-opacity: 0.70;fill: #C77CFF;fill-opacity: 0.70;"/>
<circle cx="261.19" cy="263.62" r="2.06" style="stroke-width: 0.71;stroke: #F8766D;stroke-opacity: 0.70;fill: #F8766D;fill-opacity: 0.70;"/>
<circle cx="261.19" cy="229.83" r="2.06" style="stroke-width: 0.71;stroke: #F8766D;stroke-opacity: 0.70;fill: #F8766D;fill-opacity: 0.70;"/>
<circle cx="261.19" cy="187.19" r="2.06" style="stroke-width: 0.71;stroke: #F8766D;stroke-opacity: 0.70;fill: #F8766D;fill-opacity: 0.70;"/>
<circle cx="261.19" cy="270.56" r="2.06" style="stroke-width: 0.71;stroke: #7CAE00;stroke-opacity: 0.70;fill: #7CAE00;fill-opacity: 0.70;"/>
<circle cx="261.19" cy="265.63" r="2.06" style="stroke-width: 0.71;stroke: #7CAE00;stroke-opacity: 0.70;fill: #7CAE00;fill-opacity: 0.70;"/>
<circle cx="261.19" cy="274.29" r="2.06" style="stroke-width: 0.71;stroke: #7CAE00;stroke-opacity: 0.70;fill: #7CAE00;fill-opacity: 0.70;"/>
<circle cx="261.19" cy="259.38" r="2.06" style="stroke-width: 0.71;stroke: #00BFC4;stroke-opacity: 0.70;fill: #00BFC4;fill-opacity: 0.70;"/>
<circle cx="261.19" cy="237.70" r="2.06" style="stroke-width: 0.71;stroke: #00BFC4;stroke-opacity: 0.70;fill: #00BFC4;fill-opacity: 0.70;"/>
<circle cx="261.19" cy="275.05" r="2.06" style="stroke-width: 0.71;stroke: #00BFC4;stroke-opacity: 0.70;fill: #00BFC4;fill-opacity: 0.70;"/>
<circle cx="261.19" cy="273.39" r="2.06" style="stroke-width: 0.71;stroke: #C77CFF;stroke-opacity: 0.70;fill: #C77CFF;fill-opacity: 0.70;"/>
<circle cx="261.19" cy="216.21" r="2.06" style="stroke-width: 0.71;stroke: #C77CFF;stroke-opacity: 0.70;fill: #C77CFF;fill-opacity: 0.70;"/>
<circle cx="261.19" cy="209.95" r="2.06" style="stroke-width: 0.71;stroke: #C77CFF;stroke-opacity: 0.70;fill: #C77CFF;fill-opacity: 0.70;"/>
<circle cx="349.98" cy="133.97" r="2.06" style="stroke-width: 0.71;stroke: #F8766D;stroke-opacity: 0.70;fill: #F8766D;fill-opacity: 0.70;"/>
<circle cx="349.98" cy="106.65" r="2.06" style="stroke-width: 0.71;stroke: #F8766D;stroke-opacity: 0.70;fill: #F8766D;fill-opacity: 0.70;"/>
<circle cx="349.98" cy="116.12" r="2.06" style="stroke-width: 0.71;stroke: #F8766D;stroke-opacity: 0.70;fill: #F8766D;fill-opacity: 0.70;"/>
<circle cx="349.98" cy="200.59" r="2.06" style="stroke-width: 0.71;stroke: #7CAE00;stroke-opacity: 0.70;fill: #7CAE00;fill-opacity: 0.70;"/>
<circle cx="349.98" cy="203.95" r="2.06" style="stroke-width: 0.71;stroke: #7CAE00;stroke-opacity: 0.70;fill: #7CAE00;fill-opacity: 0.70;"/>
<circle cx="349.98" cy="223.86" r="2.06" style="stroke-width: 0.71;stroke: #7CAE00;stroke-opacity: 0.70;fill: #7CAE00;fill-opacity: 0.70;"/>
<circle cx="349.98" cy="233.76" r="2.06" style="stroke-width: 0.71;stroke: #00BFC4;stroke-opacity: 0.70;fill: #00BFC4;fill-opacity: 0.70;"/>
<circle cx="349.98" cy="243.87" r="2.06" style="stroke-width: 0.71;stroke: #00BFC4;stroke-opacity: 0.70;fill: #00BFC4;fill-opacity: 0.70;"/>
<circle cx="349.98" cy="225.32" r="2.06" style="stroke-width: 0.71;stroke: #00BFC4;stroke-opacity: 0.70;fill: #00BFC4;fill-opacity: 0.70;"/>
<circle cx="349.98" cy="233.47" r="2.06" style="stroke-width: 0.71;stroke: #C77CFF;stroke-opacity: 0.70;fill: #C77CFF;fill-opacity: 0.70;"/>
<circle cx="349.98" cy="199.87" r="2.06" style="stroke-width: 0.71;stroke: #C77CFF;stroke-opacity: 0.70;fill: #C77CFF;fill-opacity: 0.70;"/>
<circle cx="349.98" cy="211.79" r="2.06" style="stroke-width: 0.71;stroke: #C77CFF;stroke-opacity: 0.70;fill: #C77CFF;fill-opacity: 0.70;"/>
<circle cx="436.60" cy="248.29" r="2.06" style="stroke-width: 0.71;stroke: #F8766D;stroke-opacity: 0.70;fill: #F8766D;fill-opacity: 0.70;"/>
<circle cx="436.60" cy="151.43" r="2.06" style="stroke-width: 0.71;stroke: #F8766D;stroke-opacity: 0.70;fill: #F8766D;fill-opacity: 0.70;"/>
<circle cx="436.60" cy="114.28" r="2.06" style="stroke-width: 0.71;stroke: #F8766D;stroke-opacity: 0.70;fill: #F8766D;fill-opacity: 0.70;"/>
<circle cx="436.60" cy="213.21" r="2.06" style="stroke-width: 0.71;stroke: #7CAE00;stroke-opacity: 0.70;fill: #7CAE00;fill-opacity: 0.70;"/>
<circle cx="436.60" cy="198.07" r="2.06" style="stroke-width: 0.71;stroke: #7CAE00;stroke-opacity: 0.70;fill: #7CAE00;fill-opacity: 0.70;"/>
<circle cx="436.60" cy="216.17" r="2.06" style="stroke-width: 0.71;stroke: #7CAE00;stroke-opacity: 0.70;fill: #7CAE00;fill-opacity: 0.70;"/>
<circle cx="436.60" cy="254.05" r="2.06" style="stroke-width: 0.71;stroke: #00BFC4;stroke-opacity: 0.70;fill: #00BFC4;fill-opacity: 0.70;"/>
<circle cx="436.60" cy="276.85" r="2.06" style="stroke-width: 0.71;stroke: #00BFC4;stroke-opacity: 0.70;fill: #00BFC4;fill-opacity: 0.70;"/>
<circle cx="436.60" cy="302.35" r="2.06" style="stroke-width: 0.71;stroke: #00BFC4;stroke-opacity: 0.70;fill: #00BFC4;fill-opacity: 0.70;"/>
<circle cx="436.60" cy="253.25" r="2.06" style="stroke-width: 0.71;stroke: #C77CFF;stroke-opacity: 0.70;fill: #C77CFF;fill-opacity: 0.70;"/>
<circle cx="436.60" cy="234.83" r="2.06" style="stroke-width: 0.71;stroke: #C77CFF;stroke-opacity: 0.70;fill: #C77CFF;fill-opacity: 0.70;"/>
<circle cx="436.60" cy="241.96" r="2.06" style="stroke-width: 0.71;stroke: #C77CFF;stroke-opacity: 0.70;fill: #C77CFF;fill-opacity: 0.70;"/>
<circle cx="523.22" cy="456.21" r="2.06" style="stroke-width: 0.71;stroke: #F8766D;stroke-opacity: 0.70;fill: #F8766D;fill-opacity: 0.70;"/>
<circle cx="523.22" cy="395.52" r="2.06" style="stroke-width: 0.71;stroke: #F8766D;stroke-opacity: 0.70;fill: #F8766D;fill-opacity: 0.70;"/>
<circle cx="523.22" cy="426.56" r="2.06" style="stroke-width: 0.71;stroke: #F8766D;stroke-opacity: 0.70;fill: #F8766D;fill-opacity: 0.70;"/>
<circle cx="523.22" cy="459.20" r="2.06" style="stroke-width: 0.71;stroke: #7CAE00;stroke-opacity: 0.70;fill: #7CAE00;fill-opacity: 0.70;"/>
<circle cx="523.22" cy="453.00" r="2.06" style="stroke-width: 0.71;stroke: #7CAE00;stroke-opacity: 0.70;fill: #7CAE00;fill-opacity: 0.70;"/>
<circle cx="523.22" cy="462.36" r="2.06" style="stroke-width: 0.71;stroke: #7CAE00;stroke-opacity: 0.70;fill: #7CAE00;fill-opacity: 0.70;"/>
<circle cx="523.22" cy="467.25" r="2.06" style="stroke-width: 0.71;stroke: #00BFC4;stroke-opacity: 0.70;fill: #00BFC4;fill-opacity: 0.70;"/>
<circle cx="523.22" cy="477.37" r="2.06" style="stroke-width: 0.71;stroke: #00BFC4;stroke-opacity: 0.70;fill: #00BFC4;fill-opacity: 0.70;"/>
<circle cx="523.22" cy="477.71" r="2.06" style="stroke-width: 0.71;stroke: #00BFC4;stroke-opacity: 0.70;fill: #00BFC4;fill-opacity: 0.70;"/>
<circle cx="523.22" cy="463.28" r="2.06" style="stroke-width: 0.71;stroke: #C77CFF;stroke-opacity: 0.70;fill: #C77CFF;fill-opacity: 0.70;"/>
<circle cx="523.22" cy="458.84" r="2.06" style="stroke-width: 0.71;stroke: #C77CFF;stroke-opacity: 0.70;fill: #C77CFF;fill-opacity: 0.70;"/>
<circle cx="523.22" cy="448.66" r="2.06" style="stroke-width: 0.71;stroke: #C77CFF;stroke-opacity: 0.70;fill: #C77CFF;fill-opacity: 0.70;"/>
<circle cx="609.92" cy="507.44" r="2.06" style="stroke-width: 0.71;stroke: #F8766D;stroke-opacity: 0.70;fill: #F8766D;fill-opacity: 0.70;"/>
<circle cx="609.92" cy="507.44" r="2.06" style="stroke-width: 0.71;stroke: #F8766D;stroke-opacity: 0.70;fill: #F8766D;fill-opacity: 0.70;"/>
<circle cx="609.92" cy="506.30" r="2.06" style="stroke-width: 0.71;stroke: #F8766D;stroke-opacity: 0.70;fill: #F8766D;fill-opacity: 0.70;"/>
<circle cx="609.92" cy="507.44" r="2.06" style="stroke-width: 0.71;stroke: #7CAE00;stroke-opacity: 0.70;fill: #7CAE00;fill-opacity: 0.70;"/>
<circle cx="609.92" cy="505.19" r="2.06" style="stroke-width: 0.71;stroke: #7CAE00;stroke-opacity: 0.70;fill: #7CAE00;fill-opacity: 0.70;"/>
<circle cx="609.92" cy="507.44" r="2.06" style="stroke-width: 0.71;stroke: #7CAE00;stroke-opacity: 0.70;fill: #7CAE00;fill-opacity: 0.70;"/>
<circle cx="609.92" cy="507.44" r="2.06" style="stroke-width: 0.71;stroke: #00BFC4;stroke-opacity: 0.70;fill: #00BFC4;fill-opacity: 0.70;"/>
<circle cx="609.92" cy="506.51" r="2.06" style="stroke-width: 0.71;stroke: #00BFC4;stroke-opacity: 0.70;fill: #00BFC4;fill-opacity: 0.70;"/>
<circle cx="609.92" cy="507.44" r="2.06" style="stroke-width: 0.71;stroke: #00BFC4;stroke-opacity: 0.70;fill: #00BFC4;fill-opacity: 0.70;"/>
<circle cx="609.92" cy="507.44" r="2.06" style="stroke-width: 0.71;stroke: #C77CFF;stroke-opacity: 0.70;fill: #C77CFF;fill-opacity: 0.70;"/>
<circle cx="609.92" cy="507.44" r="2.06" style="stroke-width: 0.71;stroke: #C77CFF;stroke-opacity: 0.70;fill: #C77CFF;fill-opacity: 0.70;"/>
<circle cx="609.92" cy="496.19" r="2.06" style="stroke-width: 0.71;stroke: #C77CFF;stroke-opacity: 0.70;fill: #C77CFF;fill-opacity: 0.70;"/>
<polyline points="65.27,186.52 68.00,186.53 70.74,186.53 73.48,186.54 76.21,186.54 78.95,186.55 81.69,186.55 84.43,186.56 87.16,186.57 89.90,186.57 92.64,186.58 95.37,186.59 98.11,186.59 100.85,186.60 103.58,186.61 106.32,186.61 109.06,186.62 111.79,186.63 114.53,186.63 117.27,186.64 120.01,186.65 122.74,186.65 125.48,186.66 128.22,186.67 130.95,186.68 133.69,186.68 136.43,186.69 139.16,186.70 141.90,186.71 144.64,186.71 147.38,186.72 150.11,186.73 152.85,186.74 155.59,186.75 158.32,186.76 161.06,186.76 163.80,186.77 166.53,186.78 169.27,186.79 172.01,186.80 174.74,186.81 177.48,186.82 180.22,186.83 182.96,186.84 185.69,186.85 188.43,186.86 191.17,186.87 193.90,186.88 196.64,186.89 199.38,186.90 202.11,186.91 204.85,186.92 207.59,186.93 210.32,186.95 213.06,186.96 215.80,186.97 218.54,186.98 221.27,186.99 224.01,187.01 226.75,187.02 229.48,187.03 232.22,187.05 234.96,187.06 237.69,187.07 240.43,187.09 243.17,187.10 245.91,187.12 248.64,187.13 251.38,187.15 254.12,187.16 256.85,187.18 259.59,187.20 262.33,187.21 265.06,187.23 267.80,187.25 270.54,187.27 273.27,187.29 276.01,187.30 278.75,187.32 281.49,187.34 284.22,187.36 286.96,187.39 289.70,187.41 292.43,187.43 295.17,187.45 297.91,187.47 300.64,187.50 303.38,187.52 306.12,187.55 308.86,187.57 311.59,187.60 314.33,187.63 317.07,187.66 319.80,187.69 322.54,187.72 325.28,187.75 328.01,187.78 330.75,187.81 333.49,187.85 336.22,187.88 338.96,187.92 341.70,187.95 344.44,187.99 347.17,188.03 349.91,188.07 352.65,188.12 355.38,188.16 358.12,188.21 360.86,188.26 363.59,188.31 366.33,188.36 369.07,188.41 371.80,188.47 374.54,188.53 377.28,188.59 380.02,188.65 382.75,188.72 385.49,188.79 388.23,188.86 390.96,188.94 393.70,189.02 396.44,189.11 399.17,189.20 401.91,189.29 404.65,189.39 407.39,189.49 410.12,189.60 412.86,189.72 415.60,189.84 418.33,189.97 421.07,190.11 423.81,190.26 426.54,190.41 429.28,190.58 432.02,190.76 434.75,190.95 437.49,191.16 440.23,191.38 442.97,191.62 445.70,191.87 448.44,192.15 451.18,192.46 453.91,192.79 456.65,193.15 459.39,193.55 462.12,193.98 464.86,194.47 467.60,195.00 470.34,195.60 473.07,196.27 475.81,197.02 478.55,197.88 481.28,198.86 484.02,199.99 486.76,201.31 489.49,202.86 492.23,204.69 494.97,206.89 497.70,209.56 500.44,212.84 503.18,216.92 505.92,222.01 508.65,228.36 511.39,236.28 514.13,246.16 516.86,258.50 519.60,273.67 522.34,291.67 525.07,312.31 527.81,335.66 530.55,361.88 533.28,390.68 536.02,420.09 538.76,446.24 541.50,466.90 544.23,481.65 546.97,490.41 549.71,494.91 552.44,497.22 555.18,498.44 557.92,499.15 560.65,499.67 563.39,500.11 566.13,500.49 568.87,500.83 571.60,501.13 574.34,501.41 577.08,501.66 579.81,501.89 582.55,502.11 585.29,502.30 588.02,502.49 590.76,502.66 593.50,502.81 596.23,502.96 598.97,503.10 601.71,503.23 604.45,503.35 607.18,503.47 609.92,503.58" style="stroke-width: 1.71;stroke: #F8766D;stroke-linecap: butt;"/>
<polyline points="65.27,249.20 68.00,249.21 70.74,249.21 73.48,249.22 76.21,249.22 78.95,249.22 81.69,249.23 84.43,249.23 87.16,249.24 89.90,249.24 92.64,249.25 95.37,249.25 98.11,249.26 100.85,249.26 103.58,249.26 106.32,249.27 109.06,249.27 111.79,249.28 114.53,249.28 117.27,249.29 120.01,249.29 122.74,249.30 125.48,249.31 128.22,249.31 130.95,249.32 133.69,249.32 136.43,249.33 139.16,249.33 141.90,249.34 144.64,249.34 147.38,249.35 150.11,249.36 152.85,249.36 155.59,249.37 158.32,249.38 161.06,249.38 163.80,249.39 166.53,249.40 169.27,249.40 172.01,249.41 174.74,249.42 177.48,249.42 180.22,249.43 182.96,249.44 185.69,249.45 188.43,249.45 191.17,249.46 193.90,249.47 196.64,249.48 199.38,249.48 202.11,249.49 204.85,249.50 207.59,249.51 210.32,249.52 213.06,249.53 215.80,249.54 218.54,249.55 221.27,249.56 224.01,249.57 226.75,249.58 229.48,249.58 232.22,249.60 234.96,249.61 237.69,249.62 240.43,249.63 243.17,249.64 245.91,249.65 248.64,249.66 251.38,249.67 254.12,249.68 256.85,249.70 259.59,249.71 262.33,249.72 265.06,249.73 267.80,249.75 270.54,249.76 273.27,249.77 276.01,249.79 278.75,249.80 281.49,249.82 284.22,249.83 286.96,249.85 289.70,249.86 292.43,249.88 295.17,249.90 297.91,249.91 300.64,249.93 303.38,249.95 306.12,249.97 308.86,249.98 311.59,250.00 314.33,250.02 317.07,250.04 319.80,250.06 322.54,250.09 325.28,250.11 328.01,250.13 330.75,250.15 333.49,250.18 336.22,250.20 338.96,250.23 341.70,250.25 344.44,250.28 347.17,250.31 349.91,250.34 352.65,250.37 355.38,250.40 358.12,250.43 360.86,250.46 363.59,250.50 366.33,250.53 369.07,250.57 371.80,250.61 374.54,250.65 377.28,250.69 380.02,250.73 382.75,250.77 385.49,250.82 388.23,250.87 390.96,250.92 393.70,250.97 396.44,251.03 399.17,251.08 401.91,251.14 404.65,251.21 407.39,251.27 410.12,251.34 412.86,251.42 415.60,251.49 418.33,251.58 421.07,251.67 423.81,251.76 426.54,251.86 429.28,251.97 432.02,252.08 434.75,252.21 437.49,252.34 440.23,252.48 442.97,252.64 445.70,252.82 448.44,253.01 451.18,253.22 453.91,253.45 456.65,253.72 459.39,254.01 462.12,254.34 464.86,254.72 467.60,255.15 470.34,255.65 473.07,256.22 475.81,256.88 478.55,257.66 481.28,258.57 484.02,259.65 486.76,260.93 489.49,262.47 492.23,264.33 494.97,266.59 497.70,269.35 500.44,272.76 503.18,276.98 505.92,282.19 508.65,288.62 511.39,296.47 514.13,306.00 516.86,317.46 519.60,330.99 522.34,346.51 525.07,363.82 527.81,382.73 530.55,402.71 533.28,423.29 536.02,444.24 538.76,463.60 541.50,479.22 544.23,490.68 546.97,497.33 549.71,500.37 552.44,501.73 555.18,502.38 557.92,502.76 560.65,503.05 563.39,503.29 566.13,503.49 568.87,503.68 571.60,503.84 574.34,503.99 577.08,504.12 579.81,504.25 582.55,504.36 585.29,504.46 588.02,504.56 590.76,504.65 593.50,504.73 596.23,504.81 598.97,504.89 601.71,504.96 604.45,505.02 607.18,505.08 609.92,505.14" style="stroke-width: 1.71;stroke: #7CAE00;stroke-linecap: butt;"/>
<polyline points="65.27,251.92 68.00,251.93 70.74,251.93 73.48,251.94 76.21,251.94 78.95,251.95 81.69,251.95 84.43,251.96 87.16,251.96 89.90,251.97 92.64,251.98 95.37,251.98 98.11,251.99 100.85,251.99 103.58,252.00 106.32,252.01 109.06,252.01 111.79,252.02 114.53,252.03 117.27,252.03 120.01,252.04 122.74,252.05 125.48,252.06 128.22,252.07 130.95,252.07 133.69,252.08 136.43,252.09 139.16,252.10 141.90,252.11 144.64,252.12 147.38,252.13 150.11,252.14 152.85,252.15 155.59,252.16 158.32,252.17 161.06,252.18 163.80,252.19 166.53,252.20 169.27,252.21 172.01,252.22 174.74,252.24 177.48,252.25 180.22,252.26 182.96,252.27 185.69,252.29 188.43,252.30 191.17,252.32 193.90,252.33 196.64,252.35 199.38,252.36 202.11,252.38 204.85,252.40 207.59,252.41 210.32,252.43 213.06,252.45 215.80,252.47 218.54,252.49 221.27,252.51 224.01,252.53 226.75,252.56 229.48,252.58 232.22,252.60 234.96,252.63 237.69,252.65 240.43,252.68 243.17,252.71 245.91,252.74 248.64,252.77 251.38,252.80 254.12,252.83 256.85,252.87 259.59,252.90 262.33,252.94 265.06,252.98 267.80,253.02 270.54,253.06 273.27,253.11 276.01,253.15 278.75,253.20 281.49,253.26 284.22,253.31 286.96,253.37 289.70,253.43 292.43,253.49 295.17,253.56 297.91,253.63 300.64,253.70 303.38,253.78 306.12,253.86 308.86,253.95 311.59,254.05 314.33,254.14 317.07,254.25 319.80,254.36 322.54,254.48 325.28,254.61 328.01,254.75 330.75,254.89 333.49,255.05 336.22,255.21 338.96,255.39 341.70,255.58 344.44,255.78 347.17,255.99 349.91,256.23 352.65,256.48 355.38,256.74 358.12,257.03 360.86,257.34 363.59,257.68 366.33,258.05 369.07,258.44 371.80,258.87 374.54,259.34 377.28,259.84 380.02,260.39 382.75,260.99 385.49,261.65 388.23,262.37 390.96,263.15 393.70,264.00 396.44,264.94 399.17,265.96 401.91,267.08 404.65,268.31 407.39,269.66 410.12,271.14 412.86,272.75 415.60,274.52 418.33,276.46 421.07,278.58 423.81,280.89 426.54,283.41 429.28,286.15 432.02,289.14 434.75,292.37 437.49,295.87 440.23,299.65 442.97,303.71 445.70,308.05 448.44,312.70 451.18,317.63 453.91,322.85 456.65,328.35 459.39,334.11 462.12,340.12 464.86,346.35 467.60,352.77 470.34,359.36 473.07,366.06 475.81,372.86 478.55,379.69 481.28,386.52 484.02,393.31 486.76,400.02 489.49,406.59 492.23,413.01 494.97,419.22 497.70,425.20 500.44,430.94 503.18,436.40 505.92,441.57 508.65,446.45 511.39,451.03 514.13,455.31 516.86,459.29 519.60,462.99 522.34,466.40 525.07,469.56 527.81,472.46 530.55,475.13 533.28,477.58 536.02,479.83 538.76,481.88 541.50,483.76 544.23,485.48 546.97,487.06 549.71,488.50 552.44,489.83 555.18,491.04 557.92,492.14 560.65,493.16 563.39,494.10 566.13,494.95 568.87,495.74 571.60,496.47 574.34,497.14 577.08,497.75 579.81,498.32 582.55,498.85 585.29,499.33 588.02,499.78 590.76,500.20 593.50,500.59 596.23,500.95 598.97,501.28 601.71,501.59 604.45,501.88 607.18,502.15 609.92,502.40" style="stroke-width: 1.71;stroke: #00BFC4;stroke-linecap: butt;"/>
<polyline points="65.27,237.08 68.00,237.09 70.74,237.10 73.48,237.12 76.21,237.13 78.95,237.14 81.69,237.15 84.43,237.16 87.16,237.18 89.90,237.19 92.64,237.20 95.37,237.22 98.11,237.23 100.85,237.24 103.58,237.26 106.32,237.27 109.06,237.29 111.79,237.30 114.53,237.32 117.27,237.33 120.01,237.35 122.74,237.36 125.48,237.38 128.22,237.40 130.95,237.41 133.69,237.43 136.43,237.45 139.16,237.47 141.90,237.48 144.64,237.50 147.38,237.52 150.11,237.54 152.85,237.56 155.59,237.58 158.32,237.60 161.06,237.62 163.80,237.64 166.53,237.67 169.27,237.69 172.01,237.71 174.74,237.73 177.48,237.76 180.22,237.78 182.96,237.81 185.69,237.83 188.43,237.86 191.17,237.89 193.90,237.91 196.64,237.94 199.38,237.97 202.11,238.00 204.85,238.03 207.59,238.06 210.32,238.09 213.06,238.12 215.80,238.16 218.54,238.19 221.27,238.23 224.01,238.26 226.75,238.30 229.48,238.34 232.22,238.38 234.96,238.42 237.69,238.46 240.43,238.50 243.17,238.54 245.91,238.59 248.64,238.63 251.38,238.68 254.12,238.73 256.85,238.78 259.59,238.83 262.33,238.88 265.06,238.94 267.80,238.99 270.54,239.05 273.27,239.11 276.01,239.18 278.75,239.24 281.49,239.31 284.22,239.38 286.96,239.45 289.70,239.52 292.43,239.60 295.17,239.68 297.91,239.76 300.64,239.84 303.38,239.93 306.12,240.02 308.86,240.12 311.59,240.22 314.33,240.32 317.07,240.43 319.80,240.54 322.54,240.66 325.28,240.78 328.01,240.91 330.75,241.04 333.49,241.18 336.22,241.32 338.96,241.47 341.70,241.63 344.44,241.80 347.17,241.97 349.91,242.15 352.65,242.35 355.38,242.55 358.12,242.76 360.86,242.98 363.59,243.22 366.33,243.47 369.07,243.73 371.80,244.01 374.54,244.30 377.28,244.61 380.02,244.94 382.75,245.29 385.49,245.66 388.23,246.05 390.96,246.47 393.70,246.92 396.44,247.40 399.17,247.90 401.91,248.45 404.65,249.03 407.39,249.65 410.12,250.32 412.86,251.04 415.60,251.81 418.33,252.64 421.07,253.54 423.81,254.50 426.54,255.54 429.28,256.67 432.02,257.90 434.75,259.22 437.49,260.66 440.23,262.22 442.97,263.92 445.70,265.77 448.44,267.78 451.18,269.98 453.91,272.37 456.65,274.99 459.39,277.85 462.12,280.97 464.86,284.37 467.60,288.09 470.34,292.14 473.07,296.56 475.81,301.37 478.55,306.59 481.28,312.24 484.02,318.36 486.76,324.94 489.49,331.99 492.23,339.52 494.97,347.51 497.70,355.92 500.44,364.72 503.18,373.84 505.92,383.19 508.65,392.66 511.39,402.15 514.13,411.51 516.86,420.62 519.60,429.34 522.34,437.55 525.07,445.16 527.81,452.10 530.55,458.34 533.28,463.88 536.02,468.75 538.76,472.98 541.50,476.64 544.23,479.79 546.97,482.50 549.71,484.83 552.44,486.85 555.18,488.59 557.92,490.11 560.65,491.44 563.39,492.60 566.13,493.63 568.87,494.54 571.60,495.35 574.34,496.08 577.08,496.73 579.81,497.32 582.55,497.85 585.29,498.34 588.02,498.78 590.76,499.19 593.50,499.56 596.23,499.91 598.97,500.22 601.71,500.52 604.45,500.79 607.18,501.05 609.92,501.29" style="stroke-width: 1.71;stroke: #C77CFF;stroke-linecap: butt;"/>
</g><g clip-path="url(#c2)">
<g><text x="33.10" y="510.59" text-anchor="end" style="font-family: Arial;font-size: 8.80px;fill: #4D4D4D;" textLength="4.90px" lengthAdjust="spacingAndGlyphs">0</text></g>
<g><text x="33.10" y="395.29" text-anchor="end" style="font-family: Arial;font-size: 8.80px;fill: #4D4D4D;" textLength="9.79px" lengthAdjust="spacingAndGlyphs">25</text></g>
<g><text x="33.10" y="279.99" text-anchor="end" style="font-family: Arial;font-size: 8.80px;fill: #4D4D4D;" textLength="9.79px" lengthAdjust="spacingAndGlyphs">50</text></g>
<g><text x="33.10" y="164.69" text-anchor="end" style="font-family: Arial;font-size: 8.80px;fill: #4D4D4D;" textLength="9.79px" lengthAdjust="spacingAndGlyphs">75</text></g>
<g><text x="33.10" y="49.39" text-anchor="end" style="font-family: Arial;font-size: 8.80px;fill: #4D4D4D;" textLength="14.69px" lengthAdjust="spacingAndGlyphs">100</text></g>
<g><text x="65.27" y="541.74" text-anchor="middle" style="font-family: Arial;font-size: 8.80px;fill: #4D4D4D;" textLength="4.90px" lengthAdjust="spacingAndGlyphs">1</text></g>
<g><text x="246.82" y="541.74" text-anchor="middle" style="font-family: Arial;font-size: 8.80px;fill: #4D4D4D;" textLength="9.79px" lengthAdjust="spacingAndGlyphs">10</text></g>
<g><text x="428.37" y="541.74" text-anchor="middle" style="font-family: Arial;font-size: 8.80px;fill: #4D4D4D;" textLength="14.69px" lengthAdjust="spacingAndGlyphs">100</text></g>
<g><text x="609.92" y="541.74" text-anchor="middle" style="font-family: Arial;font-size: 8.80px;fill: #4D4D4D;" textLength="19.58px" lengthAdjust="spacingAndGlyphs">1000</text></g>
<g><text x="337.59" y="554.20" text-anchor="middle" style="font-family: Arial;font-size: 11.00px;" textLength="50.36px" lengthAdjust="spacingAndGlyphs">Dose [M]</text></g>
<g><text transform="translate(13.36,276.84) rotate(-90.00)" text-anchor="middle" style="font-family: Arial;font-size: 11.00px;" textLength="57.87px" lengthAdjust="spacingAndGlyphs">Viability (%)</text></g>
<g><text x="653.59" y="243.48" style="font-family: Arial;font-size: 11.00px;" textLength="74.02px" lengthAdjust="spacingAndGlyphs">Patient / Group</text></g>
<circle cx="662.23" cy="258.76" r="2.06" style="stroke-width: 0.71;stroke: #F8766D;stroke-opacity: 0.70;fill: #F8766D;fill-opacity: 0.70;"/>
<line x1="655.32" y1="258.76" x2="669.14" y2="258.76" style="stroke-width: 1.71;stroke: #F8766D;stroke-linecap: butt;"/>
<circle cx="662.23" cy="276.04" r="2.06" style="stroke-width: 0.71;stroke: #7CAE00;stroke-opacity: 0.70;fill: #7CAE00;fill-opacity: 0.70;"/>
<line x1="655.32" y1="276.04" x2="669.14" y2="276.04" style="stroke-width: 1.71;stroke: #7CAE00;stroke-linecap: butt;"/>
<circle cx="662.23" cy="293.32" r="2.06" style="stroke-width: 0.71;stroke: #00BFC4;stroke-opacity: 0.70;fill: #00BFC4;fill-opacity: 0.70;"/>
<line x1="655.32" y1="293.32" x2="669.14" y2="293.32" style="stroke-width: 1.71;stroke: #00BFC4;stroke-linecap: butt;"/>
<circle cx="662.23" cy="310.60" r="2.06" style="stroke-width: 0.71;stroke: #C77CFF;stroke-opacity: 0.70;fill: #C77CFF;fill-opacity: 0.70;"/>
<line x1="655.32" y1="310.60" x2="669.14" y2="310.60" style="stroke-width: 1.71;stroke: #C77CFF;stroke-linecap: butt;"/>
<g><text x="676.35" y="261.91" style="font-family: Arial;font-size: 8.80px;" textLength="68.00px" lengthAdjust="spacingAndGlyphs">ASC397.ASC397</text></g>
<g><text x="676.35" y="279.19" style="font-family: Arial;font-size: 8.80px;" textLength="81.69px" lengthAdjust="spacingAndGlyphs">ASC397.ASC397cse</text></g>
<g><text x="676.35" y="296.47" style="font-family: Arial;font-size: 8.80px;" textLength="68.00px" lengthAdjust="spacingAndGlyphs">ASC399.ASC399</text></g>
<g><text x="676.35" y="313.75" style="font-family: Arial;font-size: 8.80px;" textLength="81.69px" lengthAdjust="spacingAndGlyphs">ASC399.ASC399cse</text></g>
<g><text x="38.03" y="14.93" style="font-family: Arial;font-size: 13.20px;" textLength="225.12px" lengthAdjust="spacingAndGlyphs">Rotenone across patients &amp; conditions</text></g>
</g>
</svg>