<svg xmlns="http://www.w3.org/2000/svg" xmlns:xlink="http://www.w3.org/1999/xlink" class="httpgd" width="769.00" height="547.00" viewBox="0 0 769.00 547.00">
<defs>
  <style type='text/css'><![CDATA[
    .httpgd line, .httpgd polyline, .httpgd polygon, .httpgd path, .httpgd rect, .httpgd circle {
      fill: none;
      stroke: #000000;
      stroke-linecap: round;
      stroke-linejoin: round;
      stroke-miterlimit: 10.00;
    }
  ]]></style>
<clipPath id="c0"><rect x="0.00" y="0.00" width="769.00" height="547.00"/></clipPath>
<clipPath id="c1"><rect x="38.03" y="23.18" width="611.37" height="492.33"/></clipPath>
<clipPath id="c2"><rect x="0.00" y="0.00" width="769.00" height="547.00"/></clipPath>
</defs>
<rect width="100%" height="100%" style="stroke: none;fill: #FFFFFF;"/>
<g clip-path="url(#c0)">
</g><g clip-path="url(#c1)">
<polyline points="38.03,493.13 649.40,493.13" style="stroke-width: 1.07;stroke: #EBEBEB;stroke-linecap: butt;"/>
<polyline points="38.03,381.23 649.40,381.23" style="stroke-width: 1.07;stroke: #EBEBEB;stroke-linecap: butt;"/>
<polyline points="38.03,269.34 649.40,269.34" style="stroke-width: 1.07;stroke: #EBEBEB;stroke-linecap: butt;"/>
<polyline points="38.03,157.45 649.40,157.45" style="stroke-width: 1.07;stroke: #EBEBEB;stroke-linecap: butt;"/>
<polyline points="38.03,45.56 649.40,45.56" style="stroke-width: 1.07;stroke: #EBEBEB;stroke-linecap: butt;"/>
<polyline points="95.81,515.50 95.81,23.18" style="stroke-width: 1.07;stroke: #EBEBEB;stroke-linecap: butt;"/>
<polyline points="243.47,515.50 243.47,23.18" style="stroke-width: 1.07;stroke: #EBEBEB;stroke-linecap: butt;"/>
<polyline points="405.29,515.50 405.29,23.18" style="stroke-width: 1.07;stroke: #EBEBEB;stroke-linecap: butt;"/>
<polyline points="552.95,515.50 552.95,23.18" style="stroke-width: 1.07;stroke: #EBEBEB;stroke-linecap: butt;"/>
<polygon points="65.82,71.96 68.62,72.18 71.41,72.42 74.20,72.73 76.99,73.03 79.79,73.38 82.58,73.76 85.37,74.17 88.17,74.63 90.96,75.15 93.75,75.69 96.55,76.32 99.34,76.97 102.13,77.72 104.92,78.55 107.72,79.41 110.51,80.36 113.30,81.44 116.10,82.60 118.89,83.87 121.68,85.28 124.47,86.81 127.27,88.53 130.06,90.39 132.85,92.42 135.65,94.58 138.44,96.93 141.23,99.53 144.02,102.34 146.82,105.41 149.61,108.75 152.40,112.37 155.20,116.30 157.99,120.51 160.78,125.07 163.57,130.00 166.37,135.31 169.16,140.97 171.95,147.11 174.75,153.70 177.54,160.64 180.33,167.98 183.12,175.86 185.92,184.13 188.71,192.78 191.50,201.90 194.30,211.33 197.09,221.12 199.88,231.09 202.68,241.44 205.47,251.99 208.26,262.65 211.05,273.43 213.85,284.20 216.64,294.94 219.43,305.66 222.23,316.13 225.02,326.50 227.81,336.54 230.60,346.37 233.40,356.02 236.19,365.20 238.98,374.03 241.78,382.54 244.57,390.52 247.36,398.10 250.15,405.30 252.95,412.06 255.74,418.47 258.53,424.43 261.33,429.92 264.12,435.09 266.91,439.90 269.70,444.37 272.50,448.46 275.29,452.29 278.08,455.82 280.88,459.05 283.67,462.07 286.46,464.82 289.26,467.32 292.05,469.61 294.84,471.72 297.63,473.64 300.43,475.40 303.22,477.01 306.01,478.49 308.81,479.83 311.60,481.04 314.39,482.15 317.18,483.15 319.98,484.07 322.77,484.91 325.56,485.67 328.36,486.36 331.15,486.99 333.94,487.56 336.73,488.08 339.53,488.55 342.32,488.97 345.11,489.36 347.91,489.72 350.70,490.03 353.49,490.32 356.28,490.58 359.08,490.82 361.87,491.04 364.66,491.24 367.46,491.41 370.25,491.57 373.04,491.72 375.83,491.85 378.63,491.97 381.42,492.08 384.21,492.18 387.01,492.27 389.80,492.35 392.59,492.42 395.39,492.49 398.18,492.55 400.97,492.60 403.76,492.65 406.56,492.70 409.35,492.74 412.14,492.77 414.94,492.81 417.73,492.84 420.52,492.86 423.31,492.89 426.11,492.91 428.90,492.93 431.69,492.95 434.49,492.97 437.28,492.98 440.07,492.99 442.86,493.01 445.66,493.02 448.45,493.03 451.24,493.04 454.04,493.05 456.83,493.05 459.62,493.06 462.41,493.07 465.21,493.07 468.00,493.08 470.79,493.08 473.59,493.09 476.38,493.09 479.17,493.09 481.97,493.10 484.76,493.10 487.55,493.10 490.34,493.10 493.14,493.11 495.93,493.11 498.72,493.11 501.52,493.11 504.31,493.11 507.10,493.11 509.89,493.11 512.69,493.12 515.48,493.12 518.27,493.12 521.07,493.12 523.86,493.12 526.65,493.12 529.44,493.12 532.24,493.12 535.03,493.12 537.82,493.12 540.62,493.12 543.41,493.12 546.20,493.12 548.99,493.12 551.79,493.12 554.58,493.12 557.37,493.12 560.17,493.12 562.96,493.12 565.75,493.12 568.54,493.12 571.34,493.12 574.13,493.12 576.92,493.12 579.72,493.12 582.51,493.12 585.30,493.12 588.10,493.12 590.89,493.12 593.68,493.12 596.47,493.12 599.27,493.12 602.06,493.12 604.85,493.12 607.65,493.12 610.44,493.12 613.23,493.12 616.02,493.12 618.82,493.13 621.61,493.13 621.61,493.13 618.82,493.13 616.02,493.13 613.23,493.13 610.44,493.13 607.65,493.13 604.85,493.13 602.06,493.13 599.27,493.13 596.47,493.13 593.68,493.13 590.89,493.13 588.10,493.13 585.30,493.12 582.51,493.12 579.72,493.12 576.92,493.12 574.13,493.12 571.34,493.12 568.54,493.12 565.75,493.12 562.96,493.12 560.17,493.12 557.37,493.12 554.58,493.12 551.79,493.12 548.99,493.12 546.20,493.12 543.41,493.12 540.62,493.12 537.82,493.12 535.03,493.12 532.24,493.12 529.44,493.12 526.65,493.12 523.86,493.12 521.07,493.12 518.27,493.12 515.48,493.12 512.69,493.12 509.89,493.12 507.10,493.12 504.31,493.12 501.52,493.12 498.72,493.12 495.93,493.12 493.14,493.12 490.34,493.12 487.55,493.11 484.76,493.11 481.97,493.11 479.17,493.11 476.38,493.11 473.59,493.11 470.79,493.10 468.00,493.10 465.21,493.10 462.41,493.10 459.62,493.09 456.83,493.09 454.04,493.09 451.24,493.08 448.45,493.08 445.66,493.07 442.86,493.07 440.07,493.06 437.28,493.05 434.49,493.04 431.69,493.03 428.90,493.02 426.11,493.01 423.31,493.00 420.52,492.98 417.73,492.97 414.94,492.95 412.14,492.93 409.35,492.91 406.56,492.88 403.76,492.86 400.97,492.83 398.18,492.79 395.39,492.76 392.59,492.72 389.80,492.67 387.01,492.62 384.21,492.56 381.42,492.50 378.63,492.43 375.83,492.35 373.04,492.26 370.25,492.16 367.46,492.05 364.66,491.93 361.87,491.80 359.08,491.65 356.28,491.48 353.49,491.30 350.70,491.09 347.91,490.86 345.11,490.60 342.32,490.32 339.53,490.01 336.73,489.66 333.94,489.27 331.15,488.84 328.36,488.36 325.56,487.83 322.77,487.23 319.98,486.57 317.18,485.85 314.39,485.06 311.60,484.17 308.81,483.19 306.01,482.10 303.22,480.90 300.43,479.58 297.63,478.10 294.84,476.47 292.05,474.69 289.26,472.71 286.46,470.53 283.67,468.13 280.88,465.49 278.08,462.63 275.29,459.49 272.50,456.04 269.70,452.30 266.91,448.23 264.12,443.80 261.33,439.00 258.53,433.78 255.74,428.19 252.95,422.14 250.15,415.74 247.36,408.85 244.57,401.60 241.78,393.79 238.98,385.58 236.19,377.05 233.40,368.05 230.60,358.62 227.81,348.97 225.02,338.87 222.23,328.62 219.43,318.14 216.64,307.44 213.85,296.69 211.05,285.89 208.26,275.12 205.47,264.33 202.68,253.74 199.88,243.37 197.09,233.09 194.30,223.09 191.50,213.45 188.71,204.10 185.92,195.18 183.12,186.54 180.33,178.29 177.54,170.51 174.75,163.12 171.95,156.15 169.16,149.63 166.37,143.47 163.57,137.83 160.78,132.53 157.99,127.57 155.20,123.01 152.40,118.85 149.61,114.97 146.82,111.43 144.02,108.15 141.23,105.11 138.44,102.41 135.65,99.92 132.85,97.67 130.06,95.60 127.27,93.78 124.47,92.13 121.68,90.64 118.89,89.29 116.10,88.08 113.30,86.94 110.51,86.02 107.72,85.16 104.92,84.38 102.13,83.67 99.34,83.04 96.55,82.47 93.75,81.94 90.96,81.46 88.17,81.04 85.37,80.69 82.58,80.33 79.79,80.05 76.99,79.76 74.20,79.51 71.41,79.28 68.62,79.07 65.82,78.88" style="stroke-width: 0.00;stroke: none;stroke-linecap: butt;fill: #F8766D;fill-opacity: 0.15;" />
<polyline points="65.82,71.96 68.62,72.18 71.41,72.42 74.20,72.73 76.99,73.03 79.79,73.38 82.58,73.76 85.37,74.17 88.17,74.63 90.96,75.15 93.75,75.69 96.55,76.32 99.34,76.97 102.13,77.72 104.92,78.55 107.72,79.41 110.51,80.36 113.30,81.44 116.10,82.60 118.89,83.87 121.68,85.28 124.47,86.81 127.27,88.53 130.06,90.39 132.85,92.42 135.65,94.58 138.44,96.93 141.23,99.53 144.02,102.34 146.82,105.41 149.61,108.75 152.40,112.37 155.20,116.30 157.99,120.51 160.78,125.07 163.57,130.00 166.37,135.31 169.16,140.97 171.95,147.11 174.75,153.70 177.54,160.64 180.33,167.98 183.12,175.86 185.92,184.13 188.71,192.78 191.50,201.90 194.30,211.33 197.09,221.12 199.88,231.09 202.68,241.44 205.47,251.99 208.26,262.65 211.05,273.43 213.85,284.20 216.64,294.94 219.43,305.66 222.23,316.13 225.02,326.50 227.81,336.54 230.60,346.37 233.40,356.02 236.19,365.20 238.98,374.03 241.78,382.54 244.57,390.52 247.36,398.10 250.15,405.30 252.95,412.06 255.74,418.47 258.53,424.43 261.33,429.92 264.12,435.09 266.91,439.90 269.70,444.37 272.50,448.46 275.29,452.29 278.08,455.82 280.88,459.05 283.67,462.07 286.46,464.82 289.26,467.32 292.05,469.61 294.84,471.72 297.63,473.64 300.43,475.40 303.22,477.01 306.01,478.49 308.81,479.83 311.60,481.04 314.39,482.15 317.18,483.15 319.98,484.07 322.77,484.91 325.56,485.67 328.36,486.36 331.15,486.99 333.94,487.56 336.73,488.08 339.53,488.55 342.32,488.97 345.11,489.36 347.91,489.72 350.70,490.03 353.49,490.32 356.28,490.58 359.08,490.82 361.87,491.04 364.66,491.24 367.46,491.41 370.25,491.57 373.04,491.72 375.83,491.85 378.63,491.97 381.42,492.08 384.21,492.18 387.01,492.27 389.80,492.35 392.59,492.42 395.39,492.49 398.18,492.55 400.97,492.60 403.76,492.65 406.56,492.70 409.35,492.74 412.14,492.77 414.94,492.81 417.73,492.84 420.52,492.86 423.31,492.89 426.11,492.91 428.90,492.93 431.69,492.95 434.49,492.97 437.28,492.98 440.07,492.99 442.86,493.01 445.66,493.02 448.45,493.03 451.24,493.04 454.04,493.05 456.83,493.05 459.62,493.06 462.41,493.07 465.21,493.07 468.00,493.08 470.79,493.08 473.59,493.09 476.38,493.09 479.17,493.09 481.97,493.10 484.76,493.10 487.55,493.10 490.34,493.10 493.14,493.11 495.93,493.11 498.72,493.11 501.52,493.11 504.31,493.11 507.10,493.11 509.89,493.11 512.69,493.12 515.48,493.12 518.27,493.12 521.07,493.12 523.86,493.12 526.65,493.12 529.44,493.12 532.24,493.12 535.03,493.12 537.82,493.12 540.62,493.12 543.41,493.12 546.20,493.12 548.99,493.12 551.79,493.12 554.58,493.12 557.37,493.12 560.17,493.12 562.96,493.12 565.75,493.12 568.54,493.12 571.34,493.12 574.13,493.12 576.92,493.12 579.72,493.12 582.51,493.12 585.30,493.12 588.10,493.12 590.89,493.12 593.68,493.12 596.47,493.12 599.27,493.12 602.06,493.12 604.85,493.12 607.65,493.12 610.44,493.12 613.23,493.12 616.02,493.12 618.82,493.13 621.61,493.13" style="stroke-width: 1.07;stroke: none;stroke-linecap: butt;"/>
<polyline points="621.61,493.13 618.82,493.13 616.02,493.13 613.23,493.13 610.44,493.13 607.65,493.13 604.85,493.13 602.06,493.13 599.27,493.13 596.47,493.13 593.68,493.13 590.89,493.13 588.10,493.13 585.30,493.12 582.51,493.12 579.72,493.12 576.92,493.12 574.13,493.12 571.34,493.12 568.54,493.12 565.75,493.12 562.96,493.12 560.17,493.12 557.37,493.12 554.58,493.12 551.79,493.12 548.99,493.12 546.20,493.12 543.41,493.12 540.62,493.12 537.82,493.12 535.03,493.12 532.24,493.12 529.44,493.12 526.65,493.12 523.86,493.12 521.07,493.12 518.27,493.12 515.48,493.12 512.69,493.12 509.89,493.12 507.10,493.12 504.31,493.12 501.52,493.12 498.72,493.12 495.93,493.12 493.14,493.12 490.34,493.12 487.55,493.11 484.76,493.11 481.97,493.11 479.17,493.11 476.38,493.11 473.59,493.11 470.79,493.10 468.00,493.10 465.21,493.10 462.41,493.10 459.62,493.09 456.83,493.09 454.04,493.09 451.24,493.08 448.45,493.08 445.66,493.07 442.86,493.07 440.07,493.06 437.28,493.05 434.49,493.04 431.69,493.03 428.90,493.02 426.11,493.01 423.31,493.00 420.52,492.98 417.73,492.97 414.94,492.95 412.14,492.93 409.35,492.91 406.56,492.88 403.76,492.86 400.97,492.83 398.18,492.79 395.39,492.76 392.59,492.72 389.80,492.67 387.01,492.62 384.21,492.56 381.42,492.50 378.63,492.43 375.83,492.35 373.04,492.26 370.25,492.16 367.46,492.05 364.66,491.93 361.87,491.80 359.08,491.65 356.28,491.48 353.49,491.30 350.70,491.09 347.91,490.86 345.11,490.60 342.32,490.32 339.53,490.01 336.73,489.66 333.94,489.27 331.15,488.84 328.36,488.36 325.56,487.83 322.77,487.23 319.98,486.57 317.18,485.85 314.39,485.06 311.60,484.17 308.81,483.19 306.01,482.10 303.22,480.90 300.43,479.58 297.63,478.10 294.84,476.47 292.05,474.69 289.26,472.71 286.46,470.53 283.67,468.13 280.88,465.49 278.08,462.63 275.29,459.49 272.50,456.04 269.70,452.30 266.91,448.23 264.12,443.80 261.33,439.00 258.53,433.78 255.74,428.19 252.95,422.14 250.15,415.74 247.36,408.85 244.57,401.60 241.78,393.79 238.98,385.58 236.19,377.05 233.40,368.05 230.60,358.62 227.81,348.97 225.02,338.87 222.23,328.62 219.43,318.14 216.64,307.44 213.85,296.69 211.05,285.89 208.26,275.12 205.47,264.33 202.68,253.74 199.88,243.37 197.09,233.09 194.30,223.09 191.50,213.45 188.71,204.10 185.92,195.18 183.12,186.54 180.33,178.29 177.54,170.51 174.75,163.12 171.95,156.15 169.16,149.63 166.37,143.47 163.57,137.83 160.78,132.53 157.99,127.57 155.20,123.01 152.40,118.85 149.61,114.97 146.82,111.43 144.02,108.15 141.23,105.11 138.44,102.41 135.65,99.92 132.85,97.67 130.06,95.60 127.27,93.78 124.47,92.13 121.68,90.64 118.89,89.29 116.10,88.08 113.30,86.94 110.51,86.02 107.72,85.16 104.92,84.38 102.13,83.67 99.34,83.04 96.55,82.47 93.75,81.94 90.96,81.46 88.17,81.04 85.37,80.69 82.58,80.33 79.79,80.05 76.99,79.76 74.20,79.51 71.41,79.28 68.62,79.07 65.82,78.88" style="stroke-width: 1.07;stroke: none;stroke-linecap: butt;"/>
<polygon points="65.82,492.39 68.62,492.38 71.41,492.37 74.20,492.37 76.99,492.36 79.79,492.35 82.58,492.35 85.37,492.34 88.17,492.33 90.96,492.32 93.75,492.32 96.55,492.31 99.34,492.30 102.13,492.30 104.92,492.29 107.72,492.28 110.51,492.27 113.30,492.27 116.10,492.26 118.89,492.25 121.68,492.24 124.47,492.23 127.27,492.23 130.06,492.22 132.85,492.21 135.65,492.20 138.44,492.19 141.23,492.19 144.02,492.18 146.82,492.17 149.61,492.16 152.40,492.15 155.20,492.14 157.99,492.13 160.78,492.12 163.57,492.12 166.37,492.11 169.16,492.10 171.95,492.09 174.75,492.08 177.54,492.07 180.33,492.06 183.12,492.05 185.92,492.04 188.71,492.03 191.50,492.02 194.30,492.01 197.09,492.00 199.88,491.99 202.68,491.98 205.47,491.97 208.26,491.96 211.05,491.95 213.85,491.94 216.64,491.93 219.43,491.92 222.23,491.91 225.02,491.90 227.81,491.88 230.60,491.87 233.40,491.86 236.19,491.85 238.98,491.84 241.78,491.83 244.57,491.82 247.36,491.80 250.15,491.79 252.95,491.78 255.74,491.77 258.53,491.76 261.33,491.74 264.12,491.73 266.91,491.72 269.70,491.71 272.50,491.69 275.29,491.68 278.08,491.67 280.88,491.66 283.67,491.64 286.46,491.63 289.26,491.62 292.05,491.60 294.84,491.59 297.63,491.57 300.43,491.56 303.22,491.55 306.01,491.53 308.81,491.52 311.60,491.50 314.39,491.49 317.18,491.47 319.98,491.46 322.77,491.44 325.56,491.43 328.36,491.41 331.15,491.40 333.94,491.38 336.73,491.37 339.53,491.35 342.32,491.34 345.11,491.32 347.91,491.30 350.70,491.29 353.49,491.27 356.28,491.25 359.08,491.24 361.87,491.22 364.66,491.20 367.46,491.19 370.25,491.17 373.04,491.15 375.83,491.13 378.63,491.12 381.42,491.10 384.21,491.08 387.01,491.06 389.80,491.04 392.59,491.02 395.39,491.01 398.18,490.99 400.97,490.97 403.76,490.95 406.56,490.93 409.35,490.91 412.14,490.89 414.94,490.87 417.73,490.85 420.52,490.83 423.31,490.81 426.11,490.79 428.90,490.77 431.69,490.75 434.49,490.72 437.28,490.70 440.07,490.68 442.86,490.66 445.66,490.64 448.45,490.61 451.24,490.59 454.04,490.57 456.83,490.55 459.62,490.52 462.41,490.50 465.21,490.46 468.00,490.41 470.79,490.37 473.59,490.32 476.38,490.27 479.17,490.22 481.97,490.17 484.76,490.12 487.55,490.07 490.34,490.01 493.14,489.96 495.93,489.90 498.72,489.85 501.52,489.79 504.31,489.73 507.10,489.67 509.89,489.61 512.69,489.55 515.48,489.49 518.27,489.43 521.07,489.36 523.86,489.30 526.65,489.23 529.44,489.16 532.24,489.10 535.03,489.03 537.82,488.95 540.62,488.88 543.41,488.81 546.20,488.73 548.99,488.66 551.79,488.58 554.58,488.50 557.37,488.42 560.17,488.34 562.96,488.26 565.75,488.17 568.54,488.09 571.34,488.00 574.13,487.91 576.92,487.82 579.72,487.73 582.51,487.64 585.30,487.54 588.10,487.45 590.89,487.35 593.68,487.25 596.47,487.15 599.27,487.04 602.06,486.94 604.85,486.83 607.65,486.72 610.44,486.61 613.23,486.50 616.02,486.39 618.82,486.27 621.61,486.15 621.61,488.77 618.82,488.81 616.02,488.84 613.23,488.88 610.44,488.92 607.65,488.96 604.85,488.99 602.06,489.03 599.27,489.07 596.47,489.10 593.68,489.14 590.89,489.17 588.10,489.21 585.30,489.24 582.51,489.28 579.72,489.31 576.92,489.34 574.13,489.38 571.34,489.41 568.54,489.44 565.75,489.48 562.96,489.51 560.17,489.54 557.37,489.57 554.58,489.60 551.79,489.64 548.99,489.67 546.20,489.70 543.41,489.73 540.62,489.76 537.82,489.79 535.03,489.82 532.24,489.85 529.44,489.87 526.65,489.90 523.86,489.93 521.07,489.96 518.27,489.99 515.48,490.02 512.69,490.04 509.89,490.07 507.10,490.10 504.31,490.13 501.52,490.15 498.72,490.18 495.93,490.20 493.14,490.23 490.34,490.26 487.55,490.28 484.76,490.31 481.97,490.33 479.17,490.36 476.38,490.38 473.59,490.40 470.79,490.43 468.00,490.45 465.21,490.48 462.41,490.50 459.62,490.55 456.83,490.59 454.04,490.64 451.24,490.68 448.45,490.72 445.66,490.76 442.86,490.80 440.07,490.84 437.28,490.88 434.49,490.92 431.69,490.96 428.90,490.99 426.11,491.03 423.31,491.07 420.52,491.10 417.73,491.14 414.94,491.17 412.14,491.20 409.35,491.24 406.56,491.27 403.76,491.30 400.97,491.33 398.18,491.36 395.39,491.39 392.59,491.42 389.80,491.45 387.01,491.48 384.21,491.51 381.42,491.54 378.63,491.56 375.83,491.59 373.04,491.62 370.25,491.64 367.46,491.67 364.66,491.69 361.87,491.72 359.08,491.74 356.28,491.77 353.49,491.79 350.70,491.81 347.91,491.83 345.11,491.86 342.32,491.88 339.53,491.90 336.73,491.92 333.94,491.94 331.15,491.96 328.36,491.98 325.56,492.00 322.77,492.02 319.98,492.04 317.18,492.06 314.39,492.08 311.60,492.09 308.81,492.11 306.01,492.13 303.22,492.15 300.43,492.16 297.63,492.18 294.84,492.20 292.05,492.21 289.26,492.23 286.46,492.24 283.67,492.26 280.88,492.27 278.08,492.29 275.29,492.30 272.50,492.32 269.70,492.33 266.91,492.34 264.12,492.36 261.33,492.37 258.53,492.38 255.74,492.40 252.95,492.41 250.15,492.42 247.36,492.43 244.57,492.45 241.78,492.46 238.98,492.47 236.19,492.48 233.40,492.49 230.60,492.50 227.81,492.51 225.02,492.52 222.23,492.53 219.43,492.54 216.64,492.55 213.85,492.56 211.05,492.57 208.26,492.58 205.47,492.59 202.68,492.60 199.88,492.61 197.09,492.62 194.30,492.63 191.50,492.64 188.71,492.64 185.92,492.65 183.12,492.66 180.33,492.67 177.54,492.68 174.75,492.68 171.95,492.69 169.16,492.70 166.37,492.71 163.57,492.71 160.78,492.72 157.99,492.73 155.20,492.73 152.40,492.74 149.61,492.75 146.82,492.75 144.02,492.76 141.23,492.77 138.44,492.77 135.65,492.78 132.85,492.79 130.06,492.79 127.27,492.80 124.47,492.80 121.68,492.81 118.89,492.81 116.10,492.82 113.30,492.82 110.51,492.83 107.72,492.83 104.92,492.84 102.13,492.84 99.34,492.85 96.55,492.85 93.75,492.86 90.96,492.86 88.17,492.87 85.37,492.87 82.58,492.88 79.79,492.88 76.99,492.88 74.20,492.89 71.41,492.89 68.62,492.90 65.82,492.90" style="stroke-width: 0.00;stroke: none;stroke-linecap: butt;fill: #7CAE00;fill-opacity: 0.15;" />
<polyline points="65.82,492.39 68.62,492.38 71.41,492.37 74.20,492.37 76.99,492.36 79.79,492.35 82.58,492.35 85.37,492.34 88.17,492.33 90.96,492.32 93.75,492.32 96.55,492.31 99.34,492.30 102.13,492.30 104.92,492.29 107.72,492.28 110.51,492.27 113.30,492.27 116.10,492.26 118.89,492.25 121.68,492.24 124.47,492.23 127.27,492.23 130.06,492.22 132.85,492.21 135.65,492.20 138.44,492.19 141.23,492.19 144.02,492.18 146.82,492.17 149.61,492.16 152.40,492.15 155.20,492.14 157.99,492.13 160.78,492.12 163.57,492.12 166.37,492.11 169.16,492.10 171.95,492.09 174.75,492.08 177.54,492.07 180.33,492.06 183.12,492.05 185.92,492.04 188.71,492.03 191.50,492.02 194.30,492.01 197.09,492.00 199.88,491.99 202.68,491.98 205.47,491.97 208.26,491.96 211.05,491.95 213.85,491.94 216.64,491.93 219.43,491.92 222.23,491.91 225.02,491.90 227.81,491.88 230.60,491.87 233.40,491.86 236.19,491.85 238.98,491.84 241.78,491.83 244.57,491.82 247.36,491.80 250.15,491.79 252.95,491.78 255.74,491.77 258.53,491.76 261.33,491.74 264.12,491.73 266.91,491.72 269.70,491.71 272.50,491.69 275.29,491.68 278.08,491.67 280.88,491.66 283.67,491.64 286.46,491.63 289.26,491.62 292.05,491.60 294.84,491.59 297.63,491.57 300.43,491.56 303.22,491.55 306.01,491.53 308.81,491.52 311.60,491.50 314.39,491.49 317.18,491.47 319.98,491.46 322.77,491.44 325.56,491.43 328.36,491.41 331.15,491.40 333.94,491.38 336.73,491.37 339.53,491.35 342.32,491.34 345.11,491.32 347.91,491.30 350.70,491.29 353.49,491.27 356.28,491.25 359.08,491.24 361.87,491.22 364.66,491.20 367.46,491.19 370.25,491.17 373.04,491.15 375.83,491.13 378.63,491.12 381.42,491.10 384.21,491.08 387.01,491.06 389.80,491.04 392.59,491.02 395.39,491.01 398.18,490.99 400.97,490.97 403.76,490.95 406.56,490.93 409.35,490.91 412.14,490.89 414.94,490.87 417.73,490.85 420.52,490.83 423.31,490.81 426.11,490.79 428.90,490.77 431.69,490.75 434.49,490.72 437.28,490.70 440.07,490.68 442.86,490.66 445.66,490.64 448.45,490.61 451.24,490.59 454.04,490.57 456.83,490.55 459.62,490.52 462.41,490.50 465.21,490.46 468.00,490.41 470.79,490.37 473.59,490.32 476.38,490.27 479.17,490.22 481.97,490.17 484.76,490.12 487.55,490.07 490.34,490.01 493.14,489.96 495.93,489.90 498.72,489.85 501.52,489.79 504.31,489.73 507.10,489.67 509.89,489.61 512.69,489.55 515.48,489.49 518.27,489.43 521.07,489.36 523.86,489.30 526.65,489.23 529.44,489.16 532.24,489.10 535.03,489.03 537.82,488.95 540.62,488.88 543.41,488.81 546.20,488.73 548.99,488.66 551.79,488.58 554.58,488.50 557.37,488.42 560.17,488.34 562.96,488.26 565.75,488.17 568.54,488.09 571.34,488.00 574.13,487.91 576.92,487.82 579.72,487.73 582.51,487.64 585.30,487.54 588.10,487.45 590.89,487.35 593.68,487.25 596.47,487.15 599.27,487.04 602.06,486.94 604.85,486.83 607.65,486.72 610.44,486.61 613.23,486.50 616.02,486.39 618.82,486.27 621.61,486.15" style="stroke-width: 1.07;stroke: none;stroke-linecap: butt;"/>
<polyline points="621.61,488.77 618.82,488.81 616.02,488.84 613.23,488.88 610.44,488.92 607.65,488.96 604.85,488.99 602.06,489.03 599.27,489.07 596.47,489.10 593.68,489.14 590.89,489.17 588.10,489.21 585.30,489.24 582.51,489.28 579.72,489.31 576.92,489.34 574.13,489.38 571.34,489.41 568.54,489.44 565.75,489.48 562.96,489.51 560.17,489.54 557.37,489.57 554.58,489.60 551.79,489.64 548.99,489.67 546.20,489.70 543.41,489.73 540.62,489.76 537.82,489.79 535.03,489.82 532.24,489.85 529.44,489.87 526.65,489.90 523.86,489.93 521.07,489.96 518.27,489.99 515.48,490.02 512.69,490.04 509.89,490.07 507.10,490.10 504.31,490.13 501.52,490.15 498.72,490.18 495.93,490.20 493.14,490.23 490.34,490.26 487.55,490.28 484.76,490.31 481.97,490.33 479.17,490.36 476.38,490.38 473.59,490.40 470.79,490.43 468.00,490.45 465.21,490.48 462.41,490.50 459.62,490.55 456.83,490.59 454.04,490.64 451.24,490.68 448.45,490.72 445.66,490.76 442.86,490.80 440.07,490.84 437.28,490.88 434.49,490.92 431.69,490.96 428.90,490.99 426.11,491.03 423.31,491.07 420.52,491.10 417.73,491.14 414.94,491.17 412.14,491.20 409.35,491.24 406.56,491.27 403.76,491.30 400.97,491.33 398.18,491.36 395.39,491.39 392.59,491.42 389.80,491.45 387.01,491.48 384.21,491.51 381.42,491.54 378.63,491.56 375.83,491.59 373.04,491.62 370.25,491.64 367.46,491.67 364.66,491.69 361.87,491.72 359.08,491.74 356.28,491.77 353.49,491.79 350.70,491.81 347.91,491.83 345.11,491.86 342.32,491.88 339.53,491.90 336.73,491.92 333.94,491.94 331.15,491.96 328.36,491.98 325.56,492.00 322.77,492.02 319.98,492.04 317.18,492.06 314.39,492.08 311.60,492.09 308.81,492.11 306.01,492.13 303.22,492.15 300.43,492.16 297.63,492.18 294.84,492.20 292.05,492.21 289.26,492.23 286.46,492.24 283.67,492.26 280.88,492.27 278.08,492.29 275.29,492.30 272.50,492.32 269.70,492.33 266.91,492.34 264.12,492.36 261.33,492.37 258.53,492.38 255.74,492.40 252.95,492.41 250.15,492.42 247.36,492.43 244.57,492.45 241.78,492.46 238.98,492.47 236.19,492.48 233.40,492.49 230.60,492.50 227.81,492.51 225.02,492.52 222.23,492.53 219.43,492.54 216.64,492.55 213.85,492.56 211.05,492.57 208.26,492.58 205.47,492.59 202.68,492.60 199.88,492.61 197.09,492.62 194.30,492.63 191.50,492.64 188.71,492.64 185.92,492.65 183.12,492.66 180.33,492.67 177.54,492.68 174.75,492.68 171.95,492.69 169.16,492.70 166.37,492.71 163.57,492.71 160.78,492.72 157.99,492.73 155.20,492.73 152.40,492.74 149.61,492.75 146.82,492.75 144.02,492.76 141.23,492.77 138.44,492.77 135.65,492.78 132.85,492.79 130.06,492.79 127.27,492.80 124.47,492.80 121.68,492.81 118.89,492.81 116.10,492.82 113.30,492.82 110.51,492.83 107.72,492.83 104.92,492.84 102.13,492.84 99.34,492.85 96.55,492.85 93.75,492.86 90.96,492.86 88.17,492.87 85.37,492.87 82.58,492.88 79.79,492.88 76.99,492.88 74.20,492.89 71.41,492.89 68.62,492.90 65.82,492.90" style="stroke-width: 1.07;stroke: none;stroke-linecap: butt;"/>
<polygon points="65.82,45.56 68.62,45.56 71.41,45.56 74.20,45.56 76.99,45.56 79.79,45.56 82.58,45.56 85.37,45.56 88.17,45.56 90.96,45.56 93.75,45.56 96.55,45.56 99.34,45.56 102.13,45.56 104.92,45.56 107.72,45.56 110.51,45.56 113.30,45.56 116.10,45.56 118.89,45.56 121.68,45.56 124.47,45.56 127.27,45.56 130.06,45.56 132.85,45.56 135.65,45.56 138.44,45.56 141.23,45.56 144.02,45.56 146.82,45.56 149.61,45.56 152.40,45.56 155.20,45.56 157.99,45.56 160.78,45.56 163.57,45.56 166.37,45.56 169.16,45.56 171.95,45.56 174.75,45.56 177.54,45.56 180.33,45.56 183.12,45.56 185.92,45.56 188.71,45.57 191.50,45.57 194.30,45.58 197.09,45.59 199.88,45.61 202.68,45.64 205.47,45.68 208.26,45.74 211.05,45.84 213.85,45.98 216.64,46.19 219.43,46.51 222.23,46.98 225.02,47.69 227.81,48.75 230.60,50.34 233.40,52.70 236.19,56.20 238.98,61.33 241.78,68.83 244.57,79.18 247.36,92.58 250.15,109.05 252.95,128.30 255.74,150.07 258.53,175.48 261.33,204.24 264.12,235.48 266.91,268.18 269.70,300.94 272.50,332.36 275.29,361.30 278.08,386.96 280.88,408.95 283.67,427.27 286.46,442.16 289.26,454.01 292.05,463.32 294.84,470.53 297.63,476.07 300.43,480.30 303.22,483.50 306.01,485.91 308.81,487.73 311.60,489.09 314.39,490.12 317.18,490.88 319.98,491.45 322.77,491.88 325.56,492.19 328.36,492.43 331.15,492.61 333.94,492.74 336.73,492.84 339.53,492.91 342.32,492.97 345.11,493.01 347.91,493.04 350.70,493.06 353.49,493.08 356.28,493.09 359.08,493.10 361.87,493.10 364.66,493.11 367.46,493.11 370.25,493.12 373.04,493.12 375.83,493.12 378.63,493.12 381.42,493.12 384.21,493.12 387.01,493.12 389.80,493.12 392.59,493.12 395.39,493.12 398.18,493.12 400.97,493.12 403.76,493.12 406.56,493.13 409.35,493.13 412.14,493.13 414.94,493.13 417.73,493.13 420.52,493.13 423.31,493.13 426.11,493.13 428.90,493.13 431.69,493.13 434.49,493.13 437.28,493.13 440.07,493.13 442.86,493.13 445.66,493.13 448.45,493.13 451.24,493.13 454.04,493.13 456.83,493.13 459.62,493.13 462.41,493.13 465.21,493.13 468.00,493.13 470.79,493.13 473.59,493.13 476.38,493.13 479.17,493.13 481.97,493.13 484.76,493.13 487.55,493.13 490.34,493.13 493.14,493.13 495.93,493.13 498.72,493.13 501.52,493.13 504.31,493.13 507.10,493.13 509.89,493.13 512.69,493.13 515.48,493.13 518.27,493.13 521.07,493.13 523.86,493.13 526.65,493.13 529.44,493.13 532.24,493.13 535.03,493.13 537.82,493.13 540.62,493.13 543.41,493.13 546.20,493.13 548.99,493.13 551.79,493.13 554.58,493.13 557.37,493.13 560.17,493.13 562.96,493.13 565.75,493.13 568.54,493.13 571.34,493.13 574.13,493.13 576.92,493.13 579.72,493.13 582.51,493.13 585.30,493.13 588.10,493.13 590.89,493.13 593.68,493.13 596.47,493.13 599.27,493.13 602.06,493.13 604.85,493.13 607.65,493.13 610.44,493.13 613.23,493.13 616.02,493.13 618.82,493.13 621.61,493.13 621.61,493.13 618.82,493.13 616.02,493.13 613.23,493.13 610.44,493.13 607.65,493.13 604.85,493.13 602.06,493.13 599.27,493.13 596.47,493.13 593.68,493.13 590.89,493.13 588.10,493.13 585.30,493.13 582.51,493.13 579.72,493.13 576.92,493.13 574.13,493.13 571.34,493.13 568.54,493.13 565.75,493.13 562.96,493.13 560.17,493.13 557.37,493.13 554.58,493.13 551.79,493.13 548.99,493.13 546.20,493.13 543.41,493.13 540.62,493.13 537.82,493.13 535.03,493.13 532.24,493.13 529.44,493.13 526.65,493.13 523.86,493.13 521.07,493.13 518.27,493.13 515.48,493.13 512.69,493.13 509.89,493.13 507.10,493.13 504.31,493.13 501.52,493.13 498.72,493.13 495.93,493.13 493.14,493.13 490.34,493.13 487.55,493.13 484.76,493.13 481.97,493.13 479.17,493.13 476.38,493.13 473.59,493.13 470.79,493.13 468.00,493.13 465.21,493.13 462.41,493.13 459.62,493.13 456.83,493.13 454.04,493.13 451.24,493.13 448.45,493.13 445.66,493.13 442.86,493.13 440.07,493.13 437.28,493.13 434.49,493.13 431.69,493.13 428.90,493.13 426.11,493.13 423.31,493.13 420.52,493.13 417.73,493.13 414.94,493.13 412.14,493.13 409.35,493.13 406.56,493.13 403.76,493.13 400.97,493.13 398.18,493.13 395.39,493.13 392.59,493.13 389.80,493.13 387.01,493.13 384.21,493.13 381.42,493.13 378.63,493.13 375.83,493.13 373.04,493.13 370.25,493.13 367.46,493.13 364.66,493.13 361.87,493.13 359.08,493.12 356.28,493.12 353.49,493.12 350.70,493.12 347.91,493.12 345.11,493.12 342.32,493.12 339.53,493.12 336.73,493.12 333.94,493.11 331.15,493.11 328.36,493.10 325.56,493.08 322.77,493.06 319.98,493.03 317.18,492.98 314.39,492.91 311.60,492.81 308.81,492.65 306.01,492.41 303.22,492.05 300.43,491.52 297.63,490.71 294.84,489.52 292.05,487.73 289.26,485.07 286.46,481.14 283.67,475.37 280.88,467.00 278.08,455.02 275.29,438.28 272.50,415.55 269.70,386.00 266.91,349.57 264.12,307.52 261.33,262.49 258.53,218.00 255.74,177.42 252.95,143.01 250.15,115.55 247.36,95.99 244.57,83.92 241.78,74.77 238.98,67.69 236.19,62.26 233.40,58.13 230.60,54.99 227.81,52.63 225.02,50.84 222.23,49.50 219.43,48.50 216.64,47.76 213.85,47.20 211.05,46.78 208.26,46.47 205.47,46.24 202.68,46.06 199.88,45.93 197.09,45.84 194.30,45.77 191.50,45.71 188.71,45.67 185.92,45.64 183.12,45.62 180.33,45.60 177.54,45.59 174.75,45.58 171.95,45.58 169.16,45.57 166.37,45.57 163.57,45.56 160.78,45.56 157.99,45.56 155.20,45.56 152.40,45.56 149.61,45.56 146.82,45.56 144.02,45.56 141.23,45.56 138.44,45.56 135.65,45.56 132.85,45.56 130.06,45.56 127.27,45.56 124.47,45.56 121.68,45.56 118.89,45.56 116.10,45.56 113.30,45.56 110.51,45.56 107.72,45.56 104.92,45.56 102.13,45.56 99.34,45.56 96.55,45.56 93.75,45.56 90.96,45.56 88.17,45.56 85.37,45.56 82.58,45.56 79.79,45.56 76.99,45.56 74.20,45.56 71.41,45.56 68.62,45.56 65.82,45.56" style="stroke-width: 0.00;stroke: none;stroke-linecap: butt;fill: #00BFC4;fill-opacity: 0.15;" />
<polyline points="65.82,45.56 68.62,45.56 71.41,45.56 74.20,45.56 76.99,45.56 79.79,45.56 82.58,45.56 85.37,45.56 88.17,45.56 90.96,45.56 93.75,45.56 96.55,45.56 99.34,45.56 102.13,45.56 104.92,45.56 107.72,45.56 110.51,45.56 113.30,45.56 116.10,45.56 118.89,45.56 121.68,45.56 124.47,45.56 127.27,45.56 130.06,45.56 132.85,45.56 135.65,45.56 138.44,45.56 141.23,45.56 144.02,45.56 146.82,45.56 149.61,45.56 152.40,45.56 155.20,45.56 157.99,45.56 160.78,45.56 163.57,45.56 166.37,45.56 169.16,45.56 171.95,45.56 174.75,45.56 177.54,45.56 180.33,45.56 183.12,45.56 185.92,45.56 188.71,45.57 191.50,45.57 194.30,45.58 197.09,45.59 199.88,45.61 202.68,45.64 205.47,45.68 208.26,45.74 211.05,45.84 213.85,45.98 216.64,46.19 219.43,46.51 222.23,46.98 225.02,47.69 227.81,48.75 230.60,50.34 233.40,52.70 236.19,56.20 238.98,61.33 241.78,68.83 244.57,79.18 247.36,92.58 250.15,109.05 252.95,128.30 255.74,150.07 258.53,175.48 261.33,204.24 264.12,235.48 266.91,268.18 269.70,300.94 272.50,332.36 275.29,361.30 278.08,386.96 280.88,408.95 283.67,427.27 286.46,442.16 289.26,454.01 292.05,463.32 294.84,470.53 297.63,476.07 300.43,480.30 303.22,483.50 306.01,485.91 308.81,487.73 311.60,489.09 314.39,490.12 317.18,490.88 319.98,491.45 322.77,491.88 325.56,492.19 328.36,492.43 331.15,492.61 333.94,492.74 336.73,492.84 339.53,492.91 342.32,492.97 345.11,493.01 347.91,493.04 350.70,493.06 353.49,493.08 356.28,493.09 359.08,493.10 361.87,493.10 364.66,493.11 367.46,493.11 370.25,493.12 373.04,493.12 375.83,493.12 378.63,493.12 381.42,493.12 384.21,493.12 387.01,493.12 389.80,493.12 392.59,493.12 395.39,493.12 398.18,493.12 400.97,493.12 403.76,493.12 406.56,493.13 409.35,493.13 412.14,493.13 414.94,493.13 417.73,493.13 420.52,493.13 423.31,493.13 426.11,493.13 428.90,493.13 431.69,493.13 434.49,493.13 437.28,493.13 440.07,493.13 442.86,493.13 445.66,493.13 448.45,493.13 451.24,493.13 454.04,493.13 456.83,493.13 459.62,493.13 462.41,493.13 465.21,493.13 468.00,493.13 470.79,493.13 473.59,493.13 476.38,493.13 479.17,493.13 481.97,493.13 484.76,493.13 487.55,493.13 490.34,493.13 493.14,493.13 495.93,493.13 498.72,493.13 501.52,493.13 504.31,493.13 507.10,493.13 509.89,493.13 512.69,493.13 515.48,493.13 518.27,493.13 521.07,493.13 523.86,493.13 526.65,493.13 529.44,493.13 532.24,493.13 535.03,493.13 537.82,493.13 540.62,493.13 543.41,493.13 546.20,493.13 548.99,493.13 551.79,493.13 554.58,493.13 557.37,493.13 560.17,493.13 562.96,493.13 565.75,493.13 568.54,493.13 571.34,493.13 574.13,493.13 576.92,493.13 579.72,493.13 582.51,493.13 585.30,493.13 588.10,493.13 590.89,493.13 593.68,493.13 596.47,493.13 599.27,493.13 602.06,493.13 604.85,493.13 607.65,493.13 610.44,493.13 613.23,493.13 616.02,493.13 618.82,493.13 621.61,493.13" style="stroke-width: 1.07;stroke: none;stroke-linecap: butt;"/>
<polyline points="621.61,493.13 618.82,493.13 616.02,493.13 613.23,493.13 610.44,493.13 607.65,493.13 604.85,493.13 602.06,493.13 599.27,493.13 596.47,493.13 593.68,493.13 590.89,493.13 588.10,493.13 585.30,493.13 582.51,493.13 579.72,493.13 576.92,493.13 574.13,493.13 571.34,493.13 568.54,493.13 565.75,493.13 562.96,493.13 560.17,493.13 557.37,493.13 554.58,493.13 551.79,493.13 548.99,493.13 546.20,493.13 543.41,493.13 540.62,493.13 537.82,493.13 535.03,493.13 532.24,493.13 529.44,493.13 526.65,493.13 523.86,493.13 521.07,493.13 518.27,493.13 515.48,493.13 512.69,493.13 509.89,493.13 507.10,493.13 504.31,493.13 501.52,493.13 498.72,493.13 495.93,493.13 493.14,493.13 490.34,493.13 487.55,493.13 484.76,493.13 481.97,493.13 479.17,493.13 476.38,493.13 473.59,493.13 470.79,493.13 468.00,493.13 465.21,493.13 462.41,493.13 459.62,493.13 456.83,493.13 454.04,493.13 451.24,493.13 448.45,493.13 445.66,493.13 442.86,493.13 440.07,493.13 437.28,493.13 434.49,493.13 431.69,493.13 428.90,493.13 426.11,493.13 423.31,493.13 420.52,493.13 417.73,493.13 414.94,493.13 412.14,493.13 409.35,493.13 406.56,493.13 403.76,493.13 400.97,493.13 398.18,493.13 395.39,493.13 392.59,493.13 389.80,493.13 387.01,493.13 384.21,493.13 381.42,493.13 378.63,493.13 375.83,493.13 373.04,493.13 370.25,493.13 367.46,493.13 364.66,493.13 361.87,493.13 359.08,493.12 356.28,493.12 353.49,493.12 350.70,493.12 347.91,493.12 345.11,493.12 342.32,493.12 339.53,493.12 336.73,493.12 333.94,493.11 331.15,493.11 328.36,493.10 325.56,493.08 322.77,493.06 319.98,493.03 317.18,492.98 314.39,492.91 311.60,492.81 308.81,492.65 306.01,492.41 303.22,492.05 300.43,491.52 297.63,490.71 294.84,489.52 292.05,487.73 289.26,485.07 286.46,481.14 283.67,475.37 280.88,467.00 278.08,455.02 275.29,438.28 272.50,415.55 269.70,386.00 266.91,349.57 264.12,307.52 261.33,262.49 258.53,218.00 255.74,177.42 252.95,143.01 250.15,115.55 247.36,95.99 244.57,83.92 241.78,74.77 238.98,67.69 236.19,62.26 233.40,58.13 230.60,54.99 227.81,52.63 225.02,50.84 222.23,49.50 219.43,48.50 216.64,47.76 213.85,47.20 211.05,46.78 208.26,46.47 205.47,46.24 202.68,46.06 199.88,45.93 197.09,45.84 194.30,45.77 191.50,45.71 188.71,45.67 185.92,45.64 183.12,45.62 180.33,45.60 177.54,45.59 174.75,45.58 171.95,45.58 169.16,45.57 166.37,45.57 163.57,45.56 160.78,45.56 157.99,45.56 155.20,45.56 152.40,45.56 149.61,45.56 146.82,45.56 144.02,45.56 141.23,45.56 138.44,45.56 135.65,45.56 132.85,45.56 130.06,45.56 127.27,45.56 124.47,45.56 121.68,45.56 118.89,45.56 116.10,45.56 113.30,45.56 110.51,45.56 107.72,45.56 104.92,45.56 102.13,45.56 99.34,45.56 96.55,45.56 93.75,45.56 90.96,45.56 88.17,45.56 85.37,45.56 82.58,45.56 79.79,45.56 76.99,45.56 74.20,45.56 71.41,45.56 68.62,45.56 65.82,45.56" style="stroke-width: 1.07;stroke: none;stroke-linecap: butt;"/>
<polygon points="65.82,49.79 68.62,49.79 71.41,49.79 74.20,49.79 76.99,49.79 79.79,49.79 82.58,49.79 85.37,49.79 88.17,49.79 90.96,49.79 93.75,49.79 96.55,49.79 99.34,49.79 102.13,49.80 104.92,49.80 107.72,49.80 110.51,49.80 113.30,49.80 116.10,49.81 118.89,49.81 121.68,49.82 124.47,49.83 127.27,49.83 130.06,49.84 132.85,49.86 135.65,49.88 138.44,49.90 141.23,49.92 144.02,49.95 146.82,49.98 149.61,50.01 152.40,50.06 155.20,50.11 157.99,50.17 160.78,50.25 163.57,50.33 166.37,50.43 169.16,50.55 171.95,50.68 174.75,50.85 177.54,51.09 180.33,51.38 183.12,51.80 185.92,52.35 188.71,53.14 191.50,54.19 194.30,55.64 197.09,57.61 199.88,60.35 202.68,63.95 205.47,68.83 208.26,75.41 211.05,84.10 213.85,95.47 216.64,110.14 219.43,128.66 222.23,151.43 225.02,178.52 227.81,209.49 230.60,243.45 233.40,278.86 236.19,313.76 238.98,346.73 241.78,376.30 244.57,401.72 247.36,422.55 250.15,436.67 252.95,447.50 255.74,456.40 258.53,463.74 261.33,469.70 264.12,474.47 266.91,478.32 269.70,481.40 272.50,483.85 275.29,485.80 278.08,487.35 280.88,488.57 283.67,489.54 286.46,490.30 289.26,490.90 292.05,491.37 294.84,491.75 297.63,492.04 300.43,492.27 303.22,492.45 306.01,492.60 308.81,492.71 311.60,492.80 314.39,492.87 317.18,492.92 319.98,492.97 322.77,493.00 325.56,493.03 328.36,493.05 331.15,493.06 333.94,493.08 336.73,493.09 339.53,493.10 342.32,493.10 345.11,493.11 347.91,493.11 350.70,493.11 353.49,493.12 356.28,493.12 359.08,493.12 361.87,493.12 364.66,493.12 367.46,493.12 370.25,493.12 373.04,493.12 375.83,493.12 378.63,493.12 381.42,493.12 384.21,493.12 387.01,493.12 389.80,493.12 392.59,493.12 395.39,493.13 398.18,493.13 400.97,493.13 403.76,493.13 406.56,493.13 409.35,493.13 412.14,493.13 414.94,493.13 417.73,493.13 420.52,493.13 423.31,493.13 426.11,493.13 428.90,493.13 431.69,493.13 434.49,493.13 437.28,493.13 440.07,493.13 442.86,493.13 445.66,493.13 448.45,493.13 451.24,493.13 454.04,493.13 456.83,493.13 459.62,493.13 462.41,493.13 465.21,493.13 468.00,493.13 470.79,493.13 473.59,493.13 476.38,493.13 479.17,493.13 481.97,493.13 484.76,493.13 487.55,493.13 490.34,493.13 493.14,493.13 495.93,493.13 498.72,493.13 501.52,493.13 504.31,493.13 507.10,493.13 509.89,493.13 512.69,493.13 515.48,493.13 518.27,493.13 521.07,493.13 523.86,493.13 526.65,493.13 529.44,493.13 532.24,493.13 535.03,493.13 537.82,493.13 540.62,493.13 543.41,493.13 546.20,493.13 548.99,493.13 551.79,493.13 554.58,493.13 557.37,493.13 560.17,493.13 562.96,493.13 565.75,493.13 568.54,493.13 571.34,493.13 574.13,493.13 576.92,493.13 579.72,493.13 582.51,493.13 585.30,493.13 588.10,493.13 590.89,493.13 593.68,493.13 596.47,493.13 599.27,493.13 602.06,493.13 604.85,493.13 607.65,493.13 610.44,493.13 613.23,493.13 616.02,493.13 618.82,493.13 621.61,493.13 621.61,493.13 618.82,493.13 616.02,493.13 613.23,493.13 610.44,493.13 607.65,493.13 604.85,493.13 602.06,493.13 599.27,493.13 596.47,493.13 593.68,493.13 590.89,493.13 588.10,493.13 585.30,493.13 582.51,493.13 579.72,493.13 576.92,493.13 574.13,493.13 571.34,493.13 568.54,493.13 565.75,493.13 562.96,493.13 560.17,493.13 557.37,493.13 554.58,493.13 551.79,493.13 548.99,493.13 546.20,493.13 543.41,493.13 540.62,493.13 537.82,493.13 535.03,493.13 532.24,493.13 529.44,493.13 526.65,493.13 523.86,493.13 521.07,493.13 518.27,493.13 515.48,493.13 512.69,493.13 509.89,493.13 507.10,493.13 504.31,493.13 501.52,493.13 498.72,493.13 495.93,493.13 493.14,493.13 490.34,493.13 487.55,493.13 484.76,493.13 481.97,493.13 479.17,493.13 476.38,493.13 473.59,493.13 470.79,493.13 468.00,493.13 465.21,493.13 462.41,493.13 459.62,493.13 456.83,493.13 454.04,493.13 451.24,493.13 448.45,493.13 445.66,493.13 442.86,493.13 440.07,493.13 437.28,493.13 434.49,493.13 431.69,493.13 428.90,493.13 426.11,493.13 423.31,493.13 420.52,493.13 417.73,493.13 414.94,493.13 412.14,493.13 409.35,493.13 406.56,493.13 403.76,493.13 400.97,493.13 398.18,493.13 395.39,493.13 392.59,493.13 389.80,493.13 387.01,493.13 384.21,493.13 381.42,493.13 378.63,493.13 375.83,493.13 373.04,493.13 370.25,493.13 367.46,493.13 364.66,493.13 361.87,493.13 359.08,493.13 356.28,493.12 353.49,493.12 350.70,493.12 347.91,493.12 345.11,493.12 342.32,493.12 339.53,493.12 336.73,493.12 333.94,493.12 331.15,493.12 328.36,493.12 325.56,493.11 322.77,493.11 319.98,493.10 317.18,493.10 314.39,493.09 311.60,493.07 308.81,493.05 306.01,493.02 303.22,492.99 300.43,492.93 297.63,492.86 294.84,492.76 292.05,492.62 289.26,492.44 286.46,492.18 283.67,491.82 280.88,491.33 278.08,490.66 275.29,489.73 272.50,488.46 269.70,486.73 266.91,484.38 264.12,481.18 261.33,476.86 258.53,471.03 255.74,463.28 252.95,453.12 250.15,440.47 247.36,425.61 244.57,408.97 241.78,390.76 238.98,370.67 236.19,348.36 233.40,323.99 230.60,298.25 227.81,271.80 225.02,245.28 222.23,219.49 219.43,195.11 216.64,172.63 213.85,152.49 211.05,134.76 208.26,119.46 205.47,106.48 202.68,95.62 199.88,86.65 197.09,79.33 194.30,73.38 191.50,68.59 188.71,64.74 185.92,61.66 183.12,59.20 180.33,57.26 177.54,55.71 174.75,54.47 171.95,53.52 169.16,52.74 166.37,52.13 163.57,51.66 160.78,51.30 157.99,51.01 155.20,50.79 152.40,50.65 149.61,50.58 146.82,50.53 144.02,50.51 141.23,50.49 138.44,50.48 135.65,50.47 132.85,50.47 130.06,50.46 127.27,50.46 124.47,50.46 121.68,50.46 118.89,50.46 116.10,50.46 113.30,50.46 110.51,50.46 107.72,50.46 104.92,50.45 102.13,50.45 99.34,50.45 96.55,50.45 93.75,50.45 90.96,50.45 88.17,50.45 85.37,50.45 82.58,50.45 79.79,50.45 76.99,50.45 74.20,50.45 71.41,50.45 68.62,50.45 65.82,50.45" style="stroke-width: 0.00;stroke: none;stroke-linecap: butt;fill: #C77CFF;fill-opacity: 0.15;" />
<polyline points="65.82,49.79 68.62,49.79 71.41,49.79 74.20,49.79 76.99,49.79 79.79,49.79 82.58,49.79 85.37,49.79 88.17,49.79 90.96,49.79 93.75,49.79 96.55,49.79 99.34,49.79 102.13,49.80 104.92,49.80 107.72,49.80 110.51,49.80 113.30,49.80 116.10,49.81 118.89,49.81 121.68,49.82 124.47,49.83 127.27,49.83 130.06,49.84 132.85,49.86 135.65,49.88 138.44,49.90 141.23,49.92 144.02,49.95 146.82,49.98 149.61,50.01 152.40,50.06 155.20,50.11 157.99,50.17 160.78,50.25 163.57,50.33 166.37,50.43 169.16,50.55 171.95,50.68 174.75,50.85 177.54,51.09 180.33,51.38 183.12,51.80 185.92,52.35 188.71,53.14 191.50,54.19 194.30,55.64 197.09,57.61 199.88,60.35 202.68,63.95 205.47,68.83 208.26,75.41 211.05,84.10 213.85,95.47 216.64,110.14 219.43,128.66 222.23,151.43 225.02,178.52 227.81,209.49 230.60,243.45 233.40,278.86 236.19,313.76 238.98,346.73 241.78,376.30 244.57,401.72 247.36,422.55 250.15,436.67 252.95,447.50 255.74,456.40 258.53,463.74 261.33,469.70 264.12,474.47 266.91,478.32 269.70,481.40 272.50,483.85 275.29,485.80 278.08,487.35 280.88,488.57 283.67,489.54 286.46,490.30 289.26,490.90 292.05,491.37 294.84,491.75 297.63,492.04 300.43,492.27 303.22,492.45 306.01,492.60 308.81,492.71 311.60,492.80 314.39,492.87 317.18,492.92 319.98,492.97 322.77,493.00 325.56,493.03 328.36,493.05 331.15,493.06 333.94,493.08 336.73,493.09 339.53,493.10 342.32,493.10 345.11,493.11 347.91,493.11 350.70,493.11 353.49,493.12 356.28,493.12 359.08,493.12 361.87,493.12 364.66,493.12 367.46,493.12 370.25,493.12 373.04,493.12 375.83,493.12 378.63,493.12 381.42,493.12 384.21,493.12 387.01,493.12 389.80,493.12 392.59,493.12 395.39,493.13 398.18,493.13 400.97,493.13 403.76,493.13 406.56,493.13 409.35,493.13 412.14,493.13 414.94,493.13 417.73,493.13 420.52,493.13 423.31,493.13 426.11,493.13 428.90,493.13 431.69,493.13 434.49,493.13 437.28,493.13 440.07,493.13 442.86,493.13 445.66,493.13 448.45,493.13 451.24,493.13 454.04,493.13 456.83,493.13 459.62,493.13 462.41,493.13 465.21,493.13 468.00,493.13 470.79,493.13 473.59,493.13 476.38,493.13 479.17,493.13 481.97,493.13 484.76,493.13 487.55,493.13 490.34,493.13 493.14,493.13 495.93,493.13 498.72,493.13 501.52,493.13 504.31,493.13 507.10,493.13 509.89,493.13 512.69,493.13 515.48,493.13 518.27,493.13 521.07,493.13 523.86,493.13 526.65,493.13 529.44,493.13 532.24,493.13 535.03,493.13 537.82,493.13 540.62,493.13 543.41,493.13 546.20,493.13 548.99,493.13 551.79,493.13 554.58,493.13 557.37,493.13 560.17,493.13 562.96,493.13 565.75,493.13 568.54,493.13 571.34,493.13 574.13,493.13 576.92,493.13 579.72,493.13 582.51,493.13 585.30,493.13 588.10,493.13 590.89,493.13 593.68,493.13 596.47,493.13 599.27,493.13 602.06,493.13 604.85,493.13 607.65,493.13 610.44,493.13 613.23,493.13 616.02,493.13 618.82,493.13 621.61,493.13" style="stroke-width: 1.07;stroke: none;stroke-linecap: butt;"/>
<polyline points="621.61,493.13 618.82,493.13 616.02,493.13 613.23,493.13 610.44,493.13 607.65,493.13 604.85,493.13 602.06,493.13 599.27,493.13 596.47,493.13 593.68,493.13 590.89,493.13 588.10,493.13 585.30,493.13 582.51,493.13 579.72,493.13 576.92,493.13 574.13,493.13 571.34,493.13 568.54,493.13 565.75,493.13 562.96,493.13 560.17,493.13 557.37,493.13 554.58,493.13 551.79,493.13 548.99,493.13 546.20,493.13 543.41,493.13 540.62,493.13 537.82,493.13 535.03,493.13 532.24,493.13 529.44,493.13 526.65,493.13 523.86,493.13 521.07,493.13 518.27,493.13 515.48,493.13 512.69,493.13 509.89,493.13 507.10,493.13 504.31,493.13 501.52,493.13 498.72,493.13 495.93,493.13 493.14,493.13 490.34,493.13 487.55,493.13 484.76,493.13 481.97,493.13 479.17,493.13 476.38,493.13 473.59,493.13 470.79,493.13 468.00,493.13 465.21,493.13 462.41,493.13 459.62,493.13 456.83,493.13 454.04,493.13 451.24,493.13 448.45,493.13 445.66,493.13 442.86,493.13 440.07,493.13 437.28,493.13 434.49,493.13 431.69,493.13 428.90,493.13 426.11,493.13 423.31,493.13 420.52,493.13 417.73,493.13 414.94,493.13 412.14,493.13 409.35,493.13 406.56,493.13 403.76,493.13 400.97,493.13 398.18,493.13 395.39,493.13 392.59,493.13 389.80,493.13 387.01,493.13 384.21,493.13 381.42,493.13 378.63,493.13 375.83,493.13 373.04,493.13 370.25,493.13 367.46,493.13 364.66,493.13 361.87,493.13 359.08,493.13 356.28,493.12 353.49,493.12 350.70,493.12 347.91,493.12 345.11,493.12 342.32,493.12 339.53,493.12 336.73,493.12 333.94,493.12 331.15,493.12 328.36,493.12 325.56,493.11 322.77,493.11 319.98,493.10 317.18,493.10 314.39,493.09 311.60,493.07 308.81,493.05 306.01,493.02 303.22,492.99 300.43,492.93 297.63,492.86 294.84,492.76 292.05,492.62 289.26,492.44 286.46,492.18 283.67,491.82 280.88,491.33 278.08,490.66 275.29,489.73 272.50,488.46 269.70,486.73 266.91,484.38 264.12,481.18 261.33,476.86 258.53,471.03 255.74,463.28 252.95,453.12 250.15,440.47 247.36,425.61 244.57,408.97 241.78,390.76 238.98,370.67 236.19,348.36 233.40,323.99 230.60,298.25 227.81,271.80 225.02,245.28 222.23,219.49 219.43,195.11 216.64,172.63 213.85,152.49 211.05,134.76 208.26,119.46 205.47,106.48 202.68,95.62 199.88,86.65 197.09,79.33 194.30,73.38 191.50,68.59 188.71,64.74 185.92,61.66 183.12,59.20 180.33,57.26 177.54,55.71 174.75,54.47 171.95,53.52 169.16,52.74 166.37,52.13 163.57,51.66 160.78,51.30 157.99,51.01 155.20,50.79 152.40,50.65 149.61,50.58 146.82,50.53 144.02,50.51 141.23,50.49 138.44,50.48 135.65,50.47 132.85,50.47 130.06,50.46 127.27,50.46 124.47,50.46 121.68,50.46 118.89,50.46 116.10,50.46 113.30,50.46 110.51,50.46 107.72,50.46 104.92,50.45 102.13,50.45 99.34,50.45 96.55,50.45 93.75,50.45 90.96,50.45 88.17,50.45 85.37,50.45 82.58,50.45 79.79,50.45 76.99,50.45 74.20,50.45 71.41,50.45 68.62,50.45 65.82,50.45" style="stroke-width: 1.07;stroke: none;stroke-linecap: butt;"/>
<circle cx="65.82" cy="60.45" r="2.06" style="stroke-width: 0.71;stroke: #F8766D;stroke-opacity: 0.70;fill: #F8766D;fill-opacity: 0.70;"/>
<circle cx="65.82" cy="92.40" r="2.06" style="stroke-width: 0.71;stroke: #F8766D;stroke-opacity: 0.70;fill: #F8766D;fill-opacity: 0.70;"/>
<circle cx="65.82" cy="72.73" r="2.06" style="stroke-width: 0.71;stroke: #F8766D;stroke-opacity: 0.70;fill: #F8766D;fill-opacity: 0.70;"/>
<circle cx="158.99" cy="112.70" r="2.06" style="stroke-width: 0.71;stroke: #F8766D;stroke-opacity: 0.70;fill: #F8766D;fill-opacity: 0.70;"/>
<circle cx="158.99" cy="119.60" r="2.06" style="stroke-width: 0.71;stroke: #F8766D;stroke-opacity: 0.70;fill: #F8766D;fill-opacity: 0.70;"/>
<circle cx="158.99" cy="144.94" r="2.06" style="stroke-width: 0.71;stroke: #F8766D;stroke-opacity: 0.70;fill: #F8766D;fill-opacity: 0.70;"/>
<circle cx="247.88" cy="483.47" r="2.06" style="stroke-width: 0.71;stroke: #F8766D;stroke-opacity: 0.70;fill: #F8766D;fill-opacity: 0.70;"/>
<circle cx="247.88" cy="409.67" r="2.06" style="stroke-width: 0.71;stroke: #F8766D;stroke-opacity: 0.70;fill: #F8766D;fill-opacity: 0.70;"/>
<circle cx="247.88" cy="398.15" r="2.06" style="stroke-width: 0.71;stroke: #F8766D;stroke-opacity: 0.70;fill: #F8766D;fill-opacity: 0.70;"/>
<circle cx="342.12" cy="493.13" r="2.06" style="stroke-width: 0.71;stroke: #F8766D;stroke-opacity: 0.70;fill: #F8766D;fill-opacity: 0.70;"/>
<circle cx="342.12" cy="493.13" r="2.06" style="stroke-width: 0.71;stroke: #F8766D;stroke-opacity: 0.70;fill: #F8766D;fill-opacity: 0.70;"/>
<circle cx="342.12" cy="493.13" r="2.06" style="stroke-width: 0.71;stroke: #F8766D;stroke-opacity: 0.70;fill: #F8766D;fill-opacity: 0.70;"/>
<circle cx="435.29" cy="493.13" r="2.06" style="stroke-width: 0.71;stroke: #F8766D;stroke-opacity: 0.70;fill: #F8766D;fill-opacity: 0.70;"/>
<circle cx="435.29" cy="493.13" r="2.06" style="stroke-width: 0.71;stroke: #F8766D;stroke-opacity: 0.70;fill: #F8766D;fill-opacity: 0.70;"/>
<circle cx="435.29" cy="493.13" r="2.06" style="stroke-width: 0.71;stroke: #F8766D;stroke-opacity: 0.70;fill: #F8766D;fill-opacity: 0.70;"/>
<circle cx="528.45" cy="493.13" r="2.06" style="stroke-width: 0.71;stroke: #F8766D;stroke-opacity: 0.70;fill: #F8766D;fill-opacity: 0.70;"/>
<circle cx="528.45" cy="493.13" r="2.06" style="stroke-width: 0.71;stroke: #F8766D;stroke-opacity: 0.70;fill: #F8766D;fill-opacity: 0.70;"/>
<circle cx="528.45" cy="493.13" r="2.06" style="stroke-width: 0.71;stroke: #F8766D;stroke-opacity: 0.70;fill: #F8766D;fill-opacity: 0.70;"/>
<circle cx="621.61" cy="490.50" r="2.06" style="stroke-width: 0.71;stroke: #F8766D;stroke-opacity: 0.70;fill: #F8766D;fill-opacity: 0.70;"/>
<circle cx="621.61" cy="493.13" r="2.06" style="stroke-width: 0.71;stroke: #F8766D;stroke-opacity: 0.70;fill: #F8766D;fill-opacity: 0.70;"/>
<circle cx="621.61" cy="493.13" r="2.06" style="stroke-width: 0.71;stroke: #F8766D;stroke-opacity: 0.70;fill: #F8766D;fill-opacity: 0.70;"/>
<circle cx="65.82" cy="59.39" r="2.06" style="stroke-width: 0.71;stroke: #C77CFF;stroke-opacity: 0.70;fill: #C77CFF;fill-opacity: 0.70;"/>
<circle cx="65.82" cy="45.56" r="2.06" style="stroke-width: 0.71;stroke: #C77CFF;stroke-opacity: 0.70;fill: #C77CFF;fill-opacity: 0.70;"/>
<circle cx="65.82" cy="45.56" r="2.06" style="stroke-width: 0.71;stroke: #C77CFF;stroke-opacity: 0.70;fill: #C77CFF;fill-opacity: 0.70;"/>
<circle cx="158.99" cy="49.37" r="2.06" style="stroke-width: 0.71;stroke: #C77CFF;stroke-opacity: 0.70;fill: #C77CFF;fill-opacity: 0.70;"/>
<circle cx="158.99" cy="56.33" r="2.06" style="stroke-width: 0.71;stroke: #C77CFF;stroke-opacity: 0.70;fill: #C77CFF;fill-opacity: 0.70;"/>
<circle cx="158.99" cy="45.56" r="2.06" style="stroke-width: 0.71;stroke: #C77CFF;stroke-opacity: 0.70;fill: #C77CFF;fill-opacity: 0.70;"/>
<circle cx="247.88" cy="440.19" r="2.06" style="stroke-width: 0.71;stroke: #C77CFF;stroke-opacity: 0.70;fill: #C77CFF;fill-opacity: 0.70;"/>
<circle cx="247.88" cy="416.08" r="2.06" style="stroke-width: 0.71;stroke: #C77CFF;stroke-opacity: 0.70;fill: #C77CFF;fill-opacity: 0.70;"/>
<circle cx="247.88" cy="200.32" r="2.06" style="stroke-width: 0.71;stroke: #C77CFF;stroke-opacity: 0.70;fill: #C77CFF;fill-opacity: 0.70;"/>
<circle cx="342.12" cy="493.13" r="2.06" style="stroke-width: 0.71;stroke: #C77CFF;stroke-opacity: 0.70;fill: #C77CFF;fill-opacity: 0.70;"/>
<circle cx="342.12" cy="493.13" r="2.06" style="stroke-width: 0.71;stroke: #C77CFF;stroke-opacity: 0.70;fill: #C77CFF;fill-opacity: 0.70;"/>
<circle cx="342.12" cy="493.13" r="2.06" style="stroke-width: 0.71;stroke: #C77CFF;stroke-opacity: 0.70;fill: #C77CFF;fill-opacity: 0.70;"/>
<circle cx="435.29" cy="493.13" r="2.06" style="stroke-width: 0.71;stroke: #C77CFF;stroke-opacity: 0.70;fill: #C77CFF;fill-opacity: 0.70;"/>
<circle cx="435.29" cy="493.13" r="2.06" style="stroke-width: 0.71;stroke: #C77CFF;stroke-opacity: 0.70;fill: #C77CFF;fill-opacity: 0.70;"/>
<circle cx="435.29" cy="493.13" r="2.06" style="stroke-width: 0.71;stroke: #C77CFF;stroke-opacity: 0.70;fill: #C77CFF;fill-opacity: 0.70;"/>
<circle cx="528.45" cy="493.13" r="2.06" style="stroke-width: 0.71;stroke: #C77CFF;stroke-opacity: 0.70;fill: #C77CFF;fill-opacity: 0.70;"/>
<circle cx="528.45" cy="493.13" r="2.06" style="stroke-width: 0.71;stroke: #C77CFF;stroke-opacity: 0.70;fill: #C77CFF;fill-opacity: 0.70;"/>
<circle cx="528.45" cy="493.13" r="2.06" style="stroke-width: 0.71;stroke: #C77CFF;stroke-opacity: 0.70;fill: #C77CFF;fill-opacity: 0.70;"/>
<circle cx="621.61" cy="493.13" r="2.06" style="stroke-width: 0.71;stroke: #C77CFF;stroke-opacity: 0.70;fill: #C77CFF;fill-opacity: 0.70;"/>
<circle cx="621.61" cy="492.03" r="2.06" style="stroke-width: 0.71;stroke: #C77CFF;stroke-opacity: 0.70;fill: #C77CFF;fill-opacity: 0.70;"/>
<circle cx="621.61" cy="493.13" r="2.06" style="stroke-width: 0.71;stroke: #C77CFF;stroke-opacity: 0.70;fill: #C77CFF;fill-opacity: 0.70;"/>
<circle cx="65.82" cy="45.56" r="2.06" style="stroke-width: 0.71;stroke: #00BFC4;stroke-opacity: 0.70;fill: #00BFC4;fill-opacity: 0.70;"/>
<circle cx="65.82" cy="45.56" r="2.06" style="stroke-width: 0.71;stroke: #00BFC4;stroke-opacity: 0.70;fill: #00BFC4;fill-opacity: 0.70;"/>
<circle cx="65.82" cy="45.56" r="2.06" style="stroke-width: 0.71;stroke: #00BFC4;stroke-opacity: 0.70;fill: #00BFC4;fill-opacity: 0.70;"/>
<circle cx="158.99" cy="45.56" r="2.06" style="stroke-width: 0.71;stroke: #00BFC4;stroke-opacity: 0.70;fill: #00BFC4;fill-opacity: 0.70;"/>
<circle cx="158.99" cy="45.56" r="2.06" style="stroke-width: 0.71;stroke: #00BFC4;stroke-opacity: 0.70;fill: #00BFC4;fill-opacity: 0.70;"/>
<circle cx="158.99" cy="45.56" r="2.06" style="stroke-width: 0.71;stroke: #00BFC4;stroke-opacity: 0.70;fill: #00BFC4;fill-opacity: 0.70;"/>
<circle cx="247.88" cy="93.54" r="2.06" style="stroke-width: 0.71;stroke: #00BFC4;stroke-opacity: 0.70;fill: #00BFC4;fill-opacity: 0.70;"/>
<circle cx="247.88" cy="97.63" r="2.06" style="stroke-width: 0.71;stroke: #00BFC4;stroke-opacity: 0.70;fill: #00BFC4;fill-opacity: 0.70;"/>
<circle cx="247.88" cy="57.72" r="2.06" style="stroke-width: 0.71;stroke: #00BFC4;stroke-opacity: 0.70;fill: #00BFC4;fill-opacity: 0.70;"/>
<circle cx="342.12" cy="493.13" r="2.06" style="stroke-width: 0.71;stroke: #00BFC4;stroke-opacity: 0.70;fill: #00BFC4;fill-opacity: 0.70;"/>
<circle cx="342.12" cy="493.13" r="2.06" style="stroke-width: 0.71;stroke: #00BFC4;stroke-opacity: 0.70;fill: #00BFC4;fill-opacity: 0.70;"/>
<circle cx="342.12" cy="493.13" r="2.06" style="stroke-width: 0.71;stroke: #00BFC4;stroke-opacity: 0.70;fill: #00BFC4;fill-opacity: 0.70;"/>
<circle cx="435.29" cy="493.13" r="2.06" style="stroke-width: 0.71;stroke: #00BFC4;stroke-opacity: 0.70;fill: #00BFC4;fill-opacity: 0.70;"/>
<circle cx="435.29" cy="493.13" r="2.06" style="stroke-width: 0.71;stroke: #00BFC4;stroke-opacity: 0.70;fill: #00BFC4;fill-opacity: 0.70;"/>
<circle cx="435.29" cy="493.13" r="2.06" style="stroke-width: 0.71;stroke: #00BFC4;stroke-opacity: 0.70;fill: #00BFC4;fill-opacity: 0.70;"/>
<circle cx="528.45" cy="493.13" r="2.06" style="stroke-width: 0.71;stroke: #00BFC4;stroke-opacity: 0.70;fill: #00BFC4;fill-opacity: 0.70;"/>
<circle cx="528.45" cy="493.13" r="2.06" style="stroke-width: 0.71;stroke: #00BFC4;stroke-opacity: 0.70;fill: #00BFC4;fill-opacity: 0.70;"/>
<circle cx="528.45" cy="493.13" r="2.06" style="stroke-width: 0.71;stroke: #00BFC4;stroke-opacity: 0.70;fill: #00BFC4;fill-opacity: 0.70;"/>
<circle cx="621.61" cy="493.13" r="2.06" style="stroke-width: 0.71;stroke: #00BFC4;stroke-opacity: 0.70;fill: #00BFC4;fill-opacity: 0.70;"/>
<circle cx="621.61" cy="492.52" r="2.06" style="stroke-width: 0.71;stroke: #00BFC4;stroke-opacity: 0.70;fill: #00BFC4;fill-opacity: 0.70;"/>
<circle cx="621.61" cy="493.13" r="2.06" style="stroke-width: 0.71;stroke: #00BFC4;stroke-opacity: 0.70;fill: #00BFC4;fill-opacity: 0.70;"/>
<circle cx="65.82" cy="493.13" r="2.06" style="stroke-width: 0.71;stroke: #7CAE00;stroke-opacity: 0.70;fill: #7CAE00;fill-opacity: 0.70;"/>
<circle cx="65.82" cy="493.13" r="2.06" style="stroke-width: 0.71;stroke: #7CAE00;stroke-opacity: 0.70;fill: #7CAE00;fill-opacity: 0.70;"/>
<circle cx="65.82" cy="493.13" r="2.06" style="stroke-width: 0.71;stroke: #7CAE00;stroke-opacity: 0.70;fill: #7CAE00;fill-opacity: 0.70;"/>
<circle cx="158.99" cy="493.13" r="2.06" style="stroke-width: 0.71;stroke: #7CAE00;stroke-opacity: 0.70;fill: #7CAE00;fill-opacity: 0.70;"/>
<circle cx="158.99" cy="493.13" r="2.06" style="stroke-width: 0.71;stroke: #7CAE00;stroke-opacity: 0.70;fill: #7CAE00;fill-opacity: 0.70;"/>
<circle cx="158.99" cy="493.13" r="2.06" style="stroke-width: 0.71;stroke: #7CAE00;stroke-opacity: 0.70;fill: #7CAE00;fill-opacity: 0.70;"/>
<circle cx="247.88" cy="493.13" r="2.06" style="stroke-width: 0.71;stroke: #7CAE00;stroke-opacity: 0.70;fill: #7CAE00;fill-opacity: 0.70;"/>
<circle cx="247.88" cy="493.13" r="2.06" style="stroke-width: 0.71;stroke: #7CAE00;stroke-opacity: 0.70;fill: #7CAE00;fill-opacity: 0.70;"/>
<circle cx="247.88" cy="493.13" r="2.06" style="stroke-width: 0.71;stroke: #7CAE00;stroke-opacity: 0.70;fill: #7CAE00;fill-opacity: 0.70;"/>
<circle cx="342.12" cy="493.13" r="2.06" style="stroke-width: 0.71;stroke: #7CAE00;stroke-opacity: 0.70;fill: #7CAE00;fill-opacity: 0.70;"/>
<circle cx="342.12" cy="493.13" r="2.06" style="stroke-width: 0.71;stroke: #7CAE00;stroke-opacity: 0.70;fill: #7CAE00;fill-opacity: 0.70;"/>
<circle cx="342.12" cy="493.13" r="2.06" style="stroke-width: 0.71;stroke: #7CAE00;stroke-opacity: 0.70;fill: #7CAE00;fill-opacity: 0.70;"/>
<circle cx="435.29" cy="493.13" r="2.06" style="stroke-width: 0.71;stroke: #7CAE00;stroke-opacity: 0.70;fill: #7CAE00;fill-opacity: 0.70;"/>
<circle cx="435.29" cy="493.13" r="2.06" style="stroke-width: 0.71;stroke: #7CAE00;stroke-opacity: 0.70;fill: #7CAE00;fill-opacity: 0.70;"/>
<circle cx="435.29" cy="493.13" r="2.06" style="stroke-width: 0.71;stroke: #7CAE00;stroke-opacity: 0.70;fill: #7CAE00;fill-opacity: 0.70;"/>
<circle cx="528.45" cy="493.13" r="2.06" style="stroke-width: 0.71;stroke: #7CAE00;stroke-opacity: 0.70;fill: #7CAE00;fill-opacity: 0.70;"/>
<circle cx="528.45" cy="493.13" r="2.06" style="stroke-width: 0.71;stroke: #7CAE00;stroke-opacity: 0.70;fill: #7CAE00;fill-opacity: 0.70;"/>
<circle cx="528.45" cy="493.13" r="2.06" style="stroke-width: 0.71;stroke: #7CAE00;stroke-opacity: 0.70;fill: #7CAE00;fill-opacity: 0.70;"/>
<circle cx="621.61" cy="482.84" r="2.06" style="stroke-width: 0.71;stroke: #7CAE00;stroke-opacity: 0.70;fill: #7CAE00;fill-opacity: 0.70;"/>
<circle cx="621.61" cy="493.13" r="2.06" style="stroke-width: 0.71;stroke: #7CAE00;stroke-opacity: 0.70;fill: #7CAE00;fill-opacity: 0.70;"/>
<circle cx="621.61" cy="493.13" r="2.06" style="stroke-width: 0.71;stroke: #7CAE00;stroke-opacity: 0.70;fill: #7CAE00;fill-opacity: 0.70;"/>
<polyline points="65.82,75.39 68.62,75.59 71.41,75.82 74.20,76.07 76.99,76.35 79.79,76.66 82.58,77.01 85.37,77.39 88.17,77.81 90.96,78.27 93.75,78.78 96.55,79.35 99.34,79.98 102.13,80.67 104.92,81.43 107.72,82.28 110.51,83.21 113.30,84.24 116.10,85.37 118.89,86.62 121.68,87.99 124.47,89.50 127.27,91.17 130.06,93.00 132.85,95.00 135.65,97.20 138.44,99.61 141.23,102.25 144.02,105.13 146.82,108.28 149.61,111.70 152.40,115.43 155.20,119.48 157.99,123.87 160.78,128.61 163.57,133.73 166.37,139.23 169.16,145.14 171.95,151.47 174.75,158.21 177.54,165.38 180.33,172.99 183.12,181.01 185.92,189.44 188.71,198.28 191.50,207.49 194.30,217.04 197.09,226.92 199.88,237.07 202.68,247.45 205.47,258.02 208.26,268.72 211.05,279.50 213.85,290.30 216.64,301.06 219.43,311.73 222.23,322.25 225.02,332.57 227.81,342.65 230.60,352.43 233.40,361.89 236.19,370.99 238.98,379.71 241.78,388.03 244.57,395.93 247.36,403.40 250.15,410.45 252.95,417.07 255.74,423.27 258.53,429.06 261.33,434.45 264.12,439.45 266.91,444.09 269.70,448.37 272.50,452.32 275.29,455.96 278.08,459.30 280.88,462.36 283.67,465.17 286.46,467.74 289.26,470.08 292.05,472.22 294.84,474.17 297.63,475.95 300.43,477.57 303.22,479.04 306.01,480.37 308.81,481.58 311.60,482.68 314.39,483.68 317.18,484.59 319.98,485.40 322.77,486.15 325.56,486.82 328.36,487.43 331.15,487.98 333.94,488.47 336.73,488.92 339.53,489.33 342.32,489.70 345.11,490.03 347.91,490.33 350.70,490.60 353.49,490.85 356.28,491.07 359.08,491.27 361.87,491.45 364.66,491.61 367.46,491.76 370.25,491.89 373.04,492.01 375.83,492.12 378.63,492.22 381.42,492.31 384.21,492.39 387.01,492.46 389.80,492.52 392.59,492.58 395.39,492.64 398.18,492.68 400.97,492.73 403.76,492.77 406.56,492.80 409.35,492.83 412.14,492.86 414.94,492.89 417.73,492.91 420.52,492.93 423.31,492.95 426.11,492.97 428.90,492.98 431.69,493.00 434.49,493.01 437.28,493.02 440.07,493.03 442.86,493.04 445.66,493.05 448.45,493.06 451.24,493.06 454.04,493.07 456.83,493.07 459.62,493.08 462.41,493.08 465.21,493.09 468.00,493.09 470.79,493.09 473.59,493.10 476.38,493.10 479.17,493.10 481.97,493.10 484.76,493.11 487.55,493.11 490.34,493.11 493.14,493.11 495.93,493.11 498.72,493.11 501.52,493.12 504.31,493.12 507.10,493.12 509.89,493.12 512.69,493.12 515.48,493.12 518.27,493.12 521.07,493.12 523.86,493.12 526.65,493.12 529.44,493.12 532.24,493.12 535.03,493.12 537.82,493.12 540.62,493.12 543.41,493.12 546.20,493.12 548.99,493.12 551.79,493.12 554.58,493.12 557.37,493.12 560.17,493.12 562.96,493.12 565.75,493.12 568.54,493.12 571.34,493.12 574.13,493.12 576.92,493.12 579.72,493.12 582.51,493.12 585.30,493.12 588.10,493.12 590.89,493.12 593.68,493.12 596.47,493.12 599.27,493.12 602.06,493.12 604.85,493.13 607.65,493.13 610.44,493.13 613.23,493.13 616.02,493.13 618.82,493.13 621.61,493.13" style="stroke-width: 1.71;stroke: #F8766D;stroke-linecap: butt;"/>
<polyline points="65.82,492.57 68.62,492.56 71.41,492.56 74.20,492.55 76.99,492.55 79.79,492.54 82.58,492.53 85.37,492.53 88.17,492.52 90.96,492.51 93.75,492.51 96.55,492.50 99.34,492.50 102.13,492.49 104.92,492.48 107.72,492.48 110.51,492.47 113.30,492.46 116.10,492.46 118.89,492.45 121.68,492.44 124.47,492.43 127.27,492.43 130.06,492.42 132.85,492.41 135.65,492.41 138.44,492.40 141.23,492.39 144.02,492.38 146.82,492.38 149.61,492.37 152.40,492.36 155.20,492.35 157.99,492.34 160.78,492.33 163.57,492.33 166.37,492.32 169.16,492.31 171.95,492.30 174.75,492.29 177.54,492.28 180.33,492.27 183.12,492.27 185.92,492.26 188.71,492.25 191.50,492.24 194.30,492.23 197.09,492.22 199.88,492.21 202.68,492.20 205.47,492.19 208.26,492.18 211.05,492.17 213.85,492.16 216.64,492.15 219.43,492.14 222.23,492.13 225.02,492.12 227.81,492.11 230.60,492.10 233.40,492.08 236.19,492.07 238.98,492.06 241.78,492.05 244.57,492.04 247.36,492.03 250.15,492.01 252.95,492.00 255.74,491.99 258.53,491.98 261.33,491.97 264.12,491.95 266.91,491.94 269.70,491.93 272.50,491.91 275.29,491.90 278.08,491.89 280.88,491.87 283.67,491.86 286.46,491.85 289.26,491.83 292.05,491.82 294.84,491.80 297.63,491.79 300.43,491.77 303.22,491.76 306.01,491.74 308.81,491.73 311.60,491.71 314.39,491.70 317.18,491.68 319.98,491.66 322.77,491.65 325.56,491.63 328.36,491.61 331.15,491.60 333.94,491.58 336.73,491.56 339.53,491.55 342.32,491.53 345.11,491.51 347.91,491.49 350.70,491.47 353.49,491.45 356.28,491.44 359.08,491.42 361.87,491.40 364.66,491.38 367.46,491.36 370.25,491.34 373.04,491.32 375.83,491.30 378.63,491.27 381.42,491.25 384.21,491.23 387.01,491.21 389.80,491.19 392.59,491.17 395.39,491.14 398.18,491.12 400.97,491.10 403.76,491.07 406.56,491.05 409.35,491.03 412.14,491.00 414.94,490.98 417.73,490.95 420.52,490.93 423.31,490.90 426.11,490.87 428.90,490.85 431.69,490.82 434.49,490.79 437.28,490.77 440.07,490.74 442.86,490.71 445.66,490.68 448.45,490.65 451.24,490.62 454.04,490.59 456.83,490.56 459.62,490.53 462.41,490.50 465.21,490.47 468.00,490.44 470.79,490.41 473.59,490.37 476.38,490.34 479.17,490.31 481.97,490.27 484.76,490.24 487.55,490.20 490.34,490.17 493.14,490.13 495.93,490.10 498.72,490.06 501.52,490.02 504.31,489.99 507.10,489.95 509.89,489.91 512.69,489.87 515.48,489.83 518.27,489.79 521.07,489.75 523.86,489.71 526.65,489.67 529.44,489.62 532.24,489.58 535.03,489.54 537.82,489.49 540.62,489.45 543.41,489.40 546.20,489.36 548.99,489.31 551.79,489.26 554.58,489.21 557.37,489.17 560.17,489.12 562.96,489.07 565.75,489.02 568.54,488.96 571.34,488.91 574.13,488.86 576.92,488.81 579.72,488.75 582.51,488.70 585.30,488.64 588.10,488.59 590.89,488.53 593.68,488.47 596.47,488.41 599.27,488.35 602.06,488.29 604.85,488.23 607.65,488.17 610.44,488.10 613.23,488.04 616.02,487.98 618.82,487.91 621.61,487.84" style="stroke-width: 1.71;stroke: #7CAE00;stroke-linecap: butt;"/>
<polyline points="65.82,45.56 68.62,45.56 71.41,45.56 74.20,45.56 76.99,45.56 79.79,45.56 82.58,45.56 85.37,45.56 88.17,45.56 90.96,45.56 93.75,45.56 96.55,45.56 99.34,45.56 102.13,45.56 104.92,45.56 107.72,45.56 110.51,45.56 113.30,45.56 116.10,45.56 118.89,45.56 121.68,45.56 124.47,45.56 127.27,45.56 130.06,45.56 132.85,45.56 135.65,45.56 138.44,45.56 141.23,45.56 144.02,45.56 146.82,45.56 149.61,45.56 152.40,45.56 155.20,45.56 157.99,45.56 160.78,45.56 163.57,45.56 166.37,45.56 169.16,45.56 171.95,45.56 174.75,45.56 177.54,45.57 180.33,45.57 183.12,45.58 185.92,45.59 188.71,45.60 191.50,45.61 194.30,45.64 197.09,45.67 199.88,45.71 202.68,45.78 205.47,45.86 208.26,45.99 211.05,46.16 213.85,46.41 216.64,46.75 219.43,47.23 222.23,47.92 225.02,48.87 227.81,50.22 230.60,52.11 233.40,54.76 236.19,58.46 238.98,63.60 241.78,70.69 244.57,80.37 247.36,93.38 250.15,110.53 252.95,132.52 255.74,159.74 258.53,191.99 261.33,228.27 264.12,266.78 266.91,305.28 269.70,341.55 272.50,373.88 275.29,401.35 278.08,423.75 280.88,441.43 283.67,455.03 286.46,465.28 289.26,472.90 292.05,478.49 294.84,482.57 297.63,485.53 300.43,487.67 303.22,489.21 306.01,490.31 308.81,491.10 311.60,491.67 314.39,492.08 317.18,492.38 319.98,492.59 322.77,492.74 325.56,492.85 328.36,492.92 331.15,492.98 333.94,493.02 336.73,493.05 339.53,493.07 342.32,493.09 345.11,493.10 347.91,493.10 350.70,493.11 353.49,493.11 356.28,493.12 359.08,493.12 361.87,493.12 364.66,493.12 367.46,493.12 370.25,493.12 373.04,493.12 375.83,493.12 378.63,493.12 381.42,493.12 384.21,493.12 387.01,493.12 389.80,493.13 392.59,493.13 395.39,493.13 398.18,493.13 400.97,493.13 403.76,493.13 406.56,493.13 409.35,493.13 412.14,493.13 414.94,493.13 417.73,493.13 420.52,493.13 423.31,493.13 426.11,493.13 428.90,493.13 431.69,493.13 434.49,493.13 437.28,493.13 440.07,493.13 442.86,493.13 445.66,493.13 448.45,493.13 451.24,493.13 454.04,493.13 456.83,493.13 459.62,493.13 462.41,493.13 465.21,493.13 468.00,493.13 470.79,493.13 473.59,493.13 476.38,493.13 479.17,493.13 481.97,493.13 484.76,493.13 487.55,493.13 490.34,493.13 493.14,493.13 495.93,493.13 498.72,493.13 501.52,493.13 504.31,493.13 507.10,493.13 509.89,493.13 512.69,493.13 515.48,493.13 518.27,493.13 521.07,493.13 523.86,493.13 526.65,493.13 529.44,493.13 532.24,493.13 535.03,493.13 537.82,493.13 540.62,493.13 543.41,493.13 546.20,493.13 548.99,493.13 551.79,493.13 554.58,493.13 557.37,493.13 560.17,493.13 562.96,493.13 565.75,493.13 568.54,493.13 571.34,493.13 574.13,493.13 576.92,493.13 579.72,493.13 582.51,493.13 585.30,493.13 588.10,493.13 590.89,493.13 593.68,493.13 596.47,493.13 599.27,493.13 602.06,493.13 604.85,493.13 607.65,493.13 610.44,493.13 613.23,493.13 616.02,493.13 618.82,493.13 621.61,493.13" style="stroke-width: 1.71;stroke: #00BFC4;stroke-linecap: butt;"/>
<polyline points="65.82,50.12 68.62,50.12 71.41,50.12 74.20,50.12 76.99,50.12 79.79,50.12 82.58,50.12 85.37,50.12 88.17,50.12 90.96,50.12 93.75,50.12 96.55,50.12 99.34,50.12 102.13,50.12 104.92,50.12 107.72,50.12 110.51,50.12 113.30,50.12 116.10,50.12 118.89,50.12 121.68,50.13 124.47,50.13 127.27,50.14 130.06,50.14 132.85,50.15 135.65,50.16 138.44,50.18 141.23,50.19 144.02,50.22 146.82,50.25 149.61,50.29 152.40,50.34 155.20,50.41 157.99,50.50 160.78,50.62 163.57,50.78 166.37,50.98 169.16,51.25 171.95,51.60 174.75,52.05 177.54,52.64 180.33,53.42 183.12,54.43 185.92,55.75 188.71,57.47 191.50,59.71 194.30,62.61 197.09,66.36 199.88,71.19 202.68,77.37 205.47,85.23 208.26,95.12 211.05,107.43 213.85,122.52 216.64,140.69 219.43,162.10 222.23,186.68 225.02,214.07 227.81,243.57 230.60,274.21 233.40,304.82 236.19,334.25 238.98,361.48 241.78,385.83 244.57,406.92 247.36,424.70 250.15,439.35 252.95,451.20 255.74,460.65 258.53,468.09 261.33,473.90 264.12,478.40 266.91,481.87 269.70,484.54 272.50,486.58 275.29,488.14 278.08,489.33 280.88,490.23 283.67,490.92 286.46,491.45 289.26,491.85 292.05,492.15 294.84,492.38 297.63,492.56 300.43,492.70 303.22,492.80 306.01,492.88 308.81,492.93 311.60,492.98 314.39,493.01 317.18,493.04 319.98,493.06 322.77,493.08 325.56,493.09 328.36,493.10 331.15,493.10 333.94,493.11 336.73,493.11 339.53,493.12 342.32,493.12 345.11,493.12 347.91,493.12 350.70,493.12 353.49,493.12 356.28,493.12 359.08,493.12 361.87,493.12 364.66,493.12 367.46,493.12 370.25,493.12 373.04,493.12 375.83,493.12 378.63,493.12 381.42,493.13 384.21,493.13 387.01,493.13 389.80,493.13 392.59,493.13 395.39,493.13 398.18,493.13 400.97,493.13 403.76,493.13 406.56,493.13 409.35,493.13 412.14,493.13 414.94,493.13 417.73,493.13 420.52,493.13 423.31,493.13 426.11,493.13 428.90,493.13 431.69,493.13 434.49,493.13 437.28,493.13 440.07,493.13 442.86,493.13 445.66,493.13 448.45,493.13 451.24,493.13 454.04,493.13 456.83,493.13 459.62,493.13 462.41,493.13 465.21,493.13 468.00,493.13 470.79,493.13 473.59,493.13 476.38,493.13 479.17,493.13 481.97,493.13 484.76,493.13 487.55,493.13 490.34,493.13 493.14,493.13 495.93,493.13 498.72,493.13 501.52,493.13 504.31,493.13 507.10,493.13 509.89,493.13 512.69,493.13 515.48,493.13 518.27,493.13 521.07,493.13 523.86,493.13 526.65,493.13 529.44,493.13 532.24,493.13 535.03,493.13 537.82,493.13 540.62,493.13 543.41,493.13 546.20,493.13 548.99,493.13 551.79,493.13 554.58,493.13 557.37,493.13 560.17,493.13 562.96,493.13 565.75,493.13 568.54,493.13 571.34,493.13 574.13,493.13 576.92,493.13 579.72,493.13 582.51,493.13 585.30,493.13 588.10,493.13 590.89,493.13 593.68,493.13 596.47,493.13 599.27,493.13 602.06,493.13 604.85,493.13 607.65,493.13 610.44,493.13 613.23,493.13 616.02,493.13 618.82,493.13 621.61,493.13" style="stroke-width: 1.71;stroke: #C77CFF;stroke-linecap: butt;"/>
</g><g clip-path="url(#c2)">
<g><text x="33.10" y="496.28" text-anchor="end" style="font-family: Arial;font-size: 8.80px;fill: #4D4D4D;" textLength="4.90px" lengthAdjust="spacingAndGlyphs">0</text></g>
<g><text x="33.10" y="384.38" text-anchor="end" style="font-family: Arial;font-size: 8.80px;fill: #4D4D4D;" textLength="9.79px" lengthAdjust="spacingAndGlyphs">25</text></g>
<g><text x="33.10" y="272.49" text-anchor="end" style="font-family: Arial;font-size: 8.80px;fill: #4D4D4D;" textLength="9.79px" lengthAdjust="spacingAndGlyphs">50</text></g>
<g><text x="33.10" y="160.60" text-anchor="end" style="font-family: Arial;font-size: 8.80px;fill: #4D4D4D;" textLength="9.79px" lengthAdjust="spacingAndGlyphs">75</text></g>
<g><text x="33.10" y="48.71" text-anchor="end" style="font-family: Arial;font-size: 8.80px;fill: #4D4D4D;" textLength="14.69px" lengthAdjust="spacingAndGlyphs">100</text></g>
<g><text x="95.81" y="526.74" text-anchor="middle" style="font-family: Arial;font-size: 8.80px;fill: #4D4D4D;" textLength="4.90px" lengthAdjust="spacingAndGlyphs">1</text></g>
<g><text x="243.47" y="526.74" text-anchor="middle" style="font-family: Arial;font-size: 8.80px;fill: #4D4D4D;" textLength="4.90px" lengthAdjust="spacingAndGlyphs">3</text></g>
<g><text x="405.29" y="526.74" text-anchor="middle" style="font-family: Arial;font-size: 8.80px;fill: #4D4D4D;" textLength="9.79px" lengthAdjust="spacingAndGlyphs">10</text></g>
<g><text x="552.95" y="526.74" text-anchor="middle" style="font-family: Arial;font-size: 8.80px;fill: #4D4D4D;" textLength="9.79px" lengthAdjust="spacingAndGlyphs">30</text></g>
<g><text x="343.72" y="539.20" text-anchor="middle" style="font-family: Arial;font-size: 11.00px;" textLength="44.65px" lengthAdjust="spacingAndGlyphs">Dose [%]</text></g>
<g><text transform="translate(13.36,269.34) rotate(-90.00)" text-anchor="middle" style="font-family: Arial;font-size: 11.00px;" textLength="57.87px" lengthAdjust="spacingAndGlyphs">Viability (%)</text></g>
<g><text x="665.84" y="235.98" style="font-family: Arial;font-size: 11.00px;" textLength="53.83px" lengthAdjust="spacingAndGlyphs">Compound</text></g>
<circle cx="674.48" cy="251.26" r="2.06" style="stroke-width: 0.71;stroke: #F8766D;stroke-opacity: 0.70;fill: #F8766D;fill-opacity: 0.70;"/>
<line x1="667.57" y1="251.26" x2="681.39" y2="251.26" style="stroke-width: 1.71;stroke: #F8766D;stroke-linecap: butt;"/>
<circle cx="674.48" cy="268.54" r="2.06" style="stroke-width: 0.71;stroke: #7CAE00;stroke-opacity: 0.70;fill: #7CAE00;fill-opacity: 0.70;"/>
<line x1="667.57" y1="268.54" x2="681.39" y2="268.54" style="stroke-width: 1.71;stroke: #7CAE00;stroke-linecap: butt;"/>
<circle cx="674.48" cy="285.82" r="2.06" style="stroke-width: 0.71;stroke: #00BFC4;stroke-opacity: 0.70;fill: #00BFC4;fill-opacity: 0.70;"/>
<line x1="667.57" y1="285.82" x2="681.39" y2="285.82" style="stroke-width: 1.71;stroke: #00BFC4;stroke-linecap: butt;"/>
<circle cx="674.48" cy="303.10" r="2.06" style="stroke-width: 0.71;stroke: #C77CFF;stroke-opacity: 0.70;fill: #C77CFF;fill-opacity: 0.70;"/>
<line x1="667.57" y1="303.10" x2="681.39" y2="303.10" style="stroke-width: 1.71;stroke: #C77CFF;stroke-linecap: butt;"/>
<g><text x="688.60" y="254.41" style="font-family: Arial;font-size: 8.80px;" textLength="37.16px" lengthAdjust="spacingAndGlyphs">CSE (A1)</text></g>
<g><text x="688.60" y="271.69" style="font-family: Arial;font-size: 8.80px;" textLength="69.44px" lengthAdjust="spacingAndGlyphs">CSE_Erastin (A4)</text></g>
<g><text x="688.60" y="288.97" style="font-family: Arial;font-size: 8.80px;" textLength="60.62px" lengthAdjust="spacingAndGlyphs">CSE_NAC (A3)</text></g>
<g><text x="688.60" y="306.25" style="font-family: Arial;font-size: 8.80px;" textLength="59.64px" lengthAdjust="spacingAndGlyphs">CSE_SFN (A2)</text></g>
<g><text x="38.03" y="14.93" style="font-family: Arial;font-size: 13.20px;" textLength="400.36px" lengthAdjust="spacingAndGlyphs">Patient ASC397  doseresponse across compounds (ASC397cse)</text></g>
</g>
</svg>