<svg xmlns="http://www.w3.org/2000/svg" xmlns:xlink="http://www.w3.org/1999/xlink" class="httpgd" width="769.00" height="547.00" viewBox="0 0 769.00 547.00">
<defs>
  <style type='text/css'><![CDATA[
    .httpgd line, .httpgd polyline, .httpgd polygon, .httpgd path, .httpgd rect, .httpgd circle {
      fill: none;
      stroke: #000000;
      stroke-linecap: round;
      stroke-linejoin: round;
      stroke-miterlimit: 10.00;
    }
  ]]></style>
<clipPath id="c0"><rect x="0.00" y="0.00" width="769.00" height="547.00"/></clipPath>
<clipPath id="c1"><rect x="38.03" y="23.18" width="611.37" height="492.33"/></clipPath>
<clipPath id="c2"><rect x="0.00" y="0.00" width="769.00" height="547.00"/></clipPath>
</defs>
<rect width="100%" height="100%" style="stroke: none;fill: #FFFFFF;"/>
<g clip-path="url(#c0)">
</g><g clip-path="url(#c1)">
<polyline points="38.03,493.13 649.40,493.13" style="stroke-width: 1.07;stroke: #EBEBEB;stroke-linecap: butt;"/>
<polyline points="38.03,381.23 649.40,381.23" style="stroke-width: 1.07;stroke: #EBEBEB;stroke-linecap: butt;"/>
<polyline points="38.03,269.34 649.40,269.34" style="stroke-width: 1.07;stroke: #EBEBEB;stroke-linecap: butt;"/>
<polyline points="38.03,157.45 649.40,157.45" style="stroke-width: 1.07;stroke: #EBEBEB;stroke-linecap: butt;"/>
<polyline points="38.03,45.56 649.40,45.56" style="stroke-width: 1.07;stroke: #EBEBEB;stroke-linecap: butt;"/>
<polyline points="95.81,515.50 95.81,23.18" style="stroke-width: 1.07;stroke: #EBEBEB;stroke-linecap: butt;"/>
<polyline points="243.47,515.50 243.47,23.18" style="stroke-width: 1.07;stroke: #EBEBEB;stroke-linecap: butt;"/>
<polyline points="405.29,515.50 405.29,23.18" style="stroke-width: 1.07;stroke: #EBEBEB;stroke-linecap: butt;"/>
<polyline points="552.95,515.50 552.95,23.18" style="stroke-width: 1.07;stroke: #EBEBEB;stroke-linecap: butt;"/>
<polygon points="65.82,46.13 68.62,46.22 71.41,46.33 74.20,46.46 76.99,46.61 79.79,46.79 82.58,47.00 85.37,47.24 88.17,47.52 90.96,47.85 93.75,48.23 96.55,48.67 99.34,49.19 102.13,49.79 104.92,50.50 107.72,51.32 110.51,52.27 113.30,53.37 116.10,54.65 118.89,56.14 121.68,57.86 124.47,59.85 127.27,62.15 130.06,64.81 132.85,67.87 135.65,71.40 138.44,75.43 141.23,80.02 144.02,85.24 146.82,91.19 149.61,97.91 152.40,105.43 155.20,113.84 157.99,123.17 160.78,133.43 163.57,144.68 166.37,156.88 169.16,169.97 171.95,183.98 174.75,198.75 177.54,214.22 180.33,230.28 183.12,246.68 185.92,263.31 188.71,279.98 191.50,296.53 194.30,312.80 197.09,328.60 199.88,343.74 202.68,358.15 205.47,371.76 208.26,384.50 211.05,396.26 213.85,407.13 216.64,417.01 219.43,425.96 222.23,434.02 225.02,441.24 227.81,447.68 230.60,453.40 233.40,458.47 236.19,462.93 238.98,466.86 241.78,470.30 244.57,473.30 247.36,475.93 250.15,478.23 252.95,480.23 255.74,481.97 258.53,483.48 261.33,484.79 264.12,485.92 266.91,486.90 269.70,487.75 272.50,488.49 275.29,489.12 278.08,489.67 280.88,490.14 283.67,490.55 286.46,490.91 289.26,491.21 292.05,491.48 294.84,491.70 297.63,491.90 300.43,492.07 303.22,492.21 306.01,492.34 308.81,492.45 311.60,492.54 314.39,492.62 317.18,492.69 319.98,492.75 322.77,492.80 325.56,492.85 328.36,492.89 331.15,492.92 333.94,492.95 336.73,492.97 339.53,492.99 342.32,493.01 345.11,493.03 347.91,493.04 350.70,493.05 353.49,493.06 356.28,493.07 359.08,493.08 361.87,493.09 364.66,493.09 367.46,493.10 370.25,493.10 373.04,493.10 375.83,493.11 378.63,493.11 381.42,493.11 384.21,493.11 387.01,493.11 389.80,493.12 392.59,493.12 395.39,493.12 398.18,493.12 400.97,493.12 403.76,493.12 406.56,493.12 409.35,493.12 412.14,493.12 414.94,493.12 417.73,493.12 420.52,493.12 423.31,493.12 426.11,493.12 428.90,493.12 431.69,493.12 434.49,493.12 437.28,493.12 440.07,493.12 442.86,493.12 445.66,493.12 448.45,493.12 451.24,493.12 454.04,493.12 456.83,493.12 459.62,493.13 462.41,493.13 465.21,493.13 468.00,493.13 470.79,493.13 473.59,493.13 476.38,493.13 479.17,493.13 481.97,493.13 484.76,493.13 487.55,493.13 490.34,493.13 493.14,493.13 495.93,493.13 498.72,493.13 501.52,493.13 504.31,493.13 507.10,493.13 509.89,493.13 512.69,493.13 515.48,493.13 518.27,493.13 521.07,493.13 523.86,493.13 526.65,493.13 529.44,493.13 532.24,493.13 535.03,493.13 537.82,493.13 540.62,493.13 543.41,493.13 546.20,493.13 548.99,493.13 551.79,493.13 554.58,493.13 557.37,493.13 560.17,493.13 562.96,493.13 565.75,493.13 568.54,493.13 571.34,493.13 574.13,493.13 576.92,493.13 579.72,493.13 582.51,493.13 585.30,493.13 588.10,493.13 590.89,493.13 593.68,493.13 596.47,493.13 599.27,493.13 602.06,493.13 604.85,493.13 607.65,493.13 610.44,493.13 613.23,493.13 616.02,493.13 618.82,493.13 621.61,493.13 621.61,493.13 618.82,493.13 616.02,493.13 613.23,493.13 610.44,493.13 607.65,493.13 604.85,493.13 602.06,493.13 599.27,493.13 596.47,493.13 593.68,493.13 590.89,493.13 588.10,493.13 585.30,493.13 582.51,493.13 579.72,493.13 576.92,493.13 574.13,493.13 571.34,493.13 568.54,493.13 565.75,493.13 562.96,493.13 560.17,493.13 557.37,493.13 554.58,493.13 551.79,493.13 548.99,493.13 546.20,493.13 543.41,493.13 540.62,493.13 537.82,493.13 535.03,493.13 532.24,493.13 529.44,493.13 526.65,493.13 523.86,493.13 521.07,493.13 518.27,493.13 515.48,493.13 512.69,493.13 509.89,493.13 507.10,493.13 504.31,493.13 501.52,493.13 498.72,493.13 495.93,493.13 493.14,493.13 490.34,493.13 487.55,493.13 484.76,493.13 481.97,493.13 479.17,493.13 476.38,493.13 473.59,493.13 470.79,493.13 468.00,493.13 465.21,493.13 462.41,493.13 459.62,493.13 456.83,493.13 454.04,493.13 451.24,493.13 448.45,493.13 445.66,493.12 442.86,493.12 440.07,493.12 437.28,493.12 434.49,493.12 431.69,493.12 428.90,493.12 426.11,493.12 423.31,493.12 420.52,493.12 417.73,493.12 414.94,493.12 412.14,493.12 409.35,493.12 406.56,493.12 403.76,493.12 400.97,493.12 398.18,493.12 395.39,493.12 392.59,493.12 389.80,493.12 387.01,493.12 384.21,493.12 381.42,493.12 378.63,493.12 375.83,493.11 373.04,493.11 370.25,493.11 367.46,493.11 364.66,493.10 361.87,493.10 359.08,493.10 356.28,493.09 353.49,493.08 350.70,493.08 347.91,493.07 345.11,493.06 342.32,493.05 339.53,493.04 336.73,493.02 333.94,493.01 331.15,492.99 328.36,492.96 325.56,492.93 322.77,492.90 319.98,492.87 317.18,492.82 314.39,492.77 311.60,492.71 308.81,492.64 306.01,492.56 303.22,492.47 300.43,492.36 297.63,492.23 294.84,492.08 292.05,491.90 289.26,491.70 286.46,491.46 283.67,491.18 280.88,490.86 278.08,490.48 275.29,490.04 272.50,489.53 269.70,488.93 266.91,488.24 264.12,487.43 261.33,486.49 258.53,485.39 255.74,484.11 252.95,482.64 250.15,480.93 247.36,478.95 244.57,476.66 241.78,474.02 238.98,470.98 236.19,467.48 233.40,463.47 230.60,458.88 227.81,453.64 225.02,447.69 222.23,440.94 219.43,433.36 216.64,424.87 213.85,415.41 211.05,404.92 208.26,393.43 205.47,380.90 202.68,367.40 199.88,352.97 197.09,337.68 194.30,321.68 191.50,305.05 188.71,288.07 185.92,270.89 183.12,253.62 180.33,236.58 177.54,219.96 174.75,203.90 171.95,188.57 169.16,174.11 166.37,160.54 163.57,148.02 160.78,136.53 157.99,126.03 155.20,116.55 152.40,108.04 149.61,100.43 146.82,93.61 144.02,87.56 141.23,82.21 138.44,77.49 135.65,73.33 132.85,69.68 130.06,66.49 127.27,63.72 124.47,61.30 121.68,59.18 118.89,57.34 116.10,55.75 113.30,54.36 110.51,53.17 107.72,52.13 104.92,51.23 102.13,50.45 99.34,49.78 96.55,49.20 93.75,48.70 90.96,48.27 88.17,47.90 85.37,47.57 82.58,47.30 79.79,47.06 76.99,46.85 74.20,46.67 71.41,46.52 68.62,46.38 65.82,46.27" style="stroke-width: 0.00;stroke: none;stroke-linecap: butt;fill: #F8766D;fill-opacity: 0.15;" />
<polyline points="65.82,46.13 68.62,46.22 71.41,46.33 74.20,46.46 76.99,46.61 79.79,46.79 82.58,47.00 85.37,47.24 88.17,47.52 90.96,47.85 93.75,48.23 96.55,48.67 99.34,49.19 102.13,49.79 104.92,50.50 107.72,51.32 110.51,52.27 113.30,53.37 116.10,54.65 118.89,56.14 121.68,57.86 124.47,59.85 127.27,62.15 130.06,64.81 132.85,67.87 135.65,71.40 138.44,75.43 141.23,80.02 144.02,85.24 146.82,91.19 149.61,97.91 152.40,105.43 155.20,113.84 157.99,123.17 160.78,133.43 163.57,144.68 166.37,156.88 169.16,169.97 171.95,183.98 174.75,198.75 177.54,214.22 180.33,230.28 183.12,246.68 185.92,263.31 188.71,279.98 191.50,296.53 194.30,312.80 197.09,328.60 199.88,343.74 202.68,358.15 205.47,371.76 208.26,384.50 211.05,396.26 213.85,407.13 216.64,417.01 219.43,425.96 222.23,434.02 225.02,441.24 227.81,447.68 230.60,453.40 233.40,458.47 236.19,462.93 238.98,466.86 241.78,470.30 244.57,473.30 247.36,475.93 250.15,478.23 252.95,480.23 255.74,481.97 258.53,483.48 261.33,484.79 264.12,485.92 266.91,486.90 269.70,487.75 272.50,488.49 275.29,489.12 278.08,489.67 280.88,490.14 283.67,490.55 286.46,490.91 289.26,491.21 292.05,491.48 294.84,491.70 297.63,491.90 300.43,492.07 303.22,492.21 306.01,492.34 308.81,492.45 311.60,492.54 314.39,492.62 317.18,492.69 319.98,492.75 322.77,492.80 325.56,492.85 328.36,492.89 331.15,492.92 333.94,492.95 336.73,492.97 339.53,492.99 342.32,493.01 345.11,493.03 347.91,493.04 350.70,493.05 353.49,493.06 356.28,493.07 359.08,493.08 361.87,493.09 364.66,493.09 367.46,493.10 370.25,493.10 373.04,493.10 375.83,493.11 378.63,493.11 381.42,493.11 384.21,493.11 387.01,493.11 389.80,493.12 392.59,493.12 395.39,493.12 398.18,493.12 400.97,493.12 403.76,493.12 406.56,493.12 409.35,493.12 412.14,493.12 414.94,493.12 417.73,493.12 420.52,493.12 423.31,493.12 426.11,493.12 428.90,493.12 431.69,493.12 434.49,493.12 437.28,493.12 440.07,493.12 442.86,493.12 445.66,493.12 448.45,493.12 451.24,493.12 454.04,493.12 456.83,493.12 459.62,493.13 462.41,493.13 465.21,493.13 468.00,493.13 470.79,493.13 473.59,493.13 476.38,493.13 479.17,493.13 481.97,493.13 484.76,493.13 487.55,493.13 490.34,493.13 493.14,493.13 495.93,493.13 498.72,493.13 501.52,493.13 504.31,493.13 507.10,493.13 509.89,493.13 512.69,493.13 515.48,493.13 518.27,493.13 521.07,493.13 523.86,493.13 526.65,493.13 529.44,493.13 532.24,493.13 535.03,493.13 537.82,493.13 540.62,493.13 543.41,493.13 546.20,493.13 548.99,493.13 551.79,493.13 554.58,493.13 557.37,493.13 560.17,493.13 562.96,493.13 565.75,493.13 568.54,493.13 571.34,493.13 574.13,493.13 576.92,493.13 579.72,493.13 582.51,493.13 585.30,493.13 588.10,493.13 590.89,493.13 593.68,493.13 596.47,493.13 599.27,493.13 602.06,493.13 604.85,493.13 607.65,493.13 610.44,493.13 613.23,493.13 616.02,493.13 618.82,493.13 621.61,493.13" style="stroke-width: 1.07;stroke: none;stroke-linecap: butt;"/>
<polyline points="621.61,493.13 618.82,493.13 616.02,493.13 613.23,493.13 610.44,493.13 607.65,493.13 604.85,493.13 602.06,493.13 599.27,493.13 596.47,493.13 593.68,493.13 590.89,493.13 588.10,493.13 585.30,493.13 582.51,493.13 579.72,493.13 576.92,493.13 574.13,493.13 571.34,493.13 568.54,493.13 565.75,493.13 562.96,493.13 560.17,493.13 557.37,493.13 554.58,493.13 551.79,493.13 548.99,493.13 546.20,493.13 543.41,493.13 540.62,493.13 537.82,493.13 535.03,493.13 532.24,493.13 529.44,493.13 526.65,493.13 523.86,493.13 521.07,493.13 518.27,493.13 515.48,493.13 512.69,493.13 509.89,493.13 507.10,493.13 504.31,493.13 501.52,493.13 498.72,493.13 495.93,493.13 493.14,493.13 490.34,493.13 487.55,493.13 484.76,493.13 481.97,493.13 479.17,493.13 476.38,493.13 473.59,493.13 470.79,493.13 468.00,493.13 465.21,493.13 462.41,493.13 459.62,493.13 456.83,493.13 454.04,493.13 451.24,493.13 448.45,493.13 445.66,493.12 442.86,493.12 440.07,493.12 437.28,493.12 434.49,493.12 431.69,493.12 428.90,493.12 426.11,493.12 423.31,493.12 420.52,493.12 417.73,493.12 414.94,493.12 412.14,493.12 409.35,493.12 406.56,493.12 403.76,493.12 400.97,493.12 398.18,493.12 395.39,493.12 392.59,493.12 389.80,493.12 387.01,493.12 384.21,493.12 381.42,493.12 378.63,493.12 375.83,493.11 373.04,493.11 370.25,493.11 367.46,493.11 364.66,493.10 361.87,493.10 359.08,493.10 356.28,493.09 353.49,493.08 350.70,493.08 347.91,493.07 345.11,493.06 342.32,493.05 339.53,493.04 336.73,493.02 333.94,493.01 331.15,492.99 328.36,492.96 325.56,492.93 322.77,492.90 319.98,492.87 317.18,492.82 314.39,492.77 311.60,492.71 308.81,492.64 306.01,492.56 303.22,492.47 300.43,492.36 297.63,492.23 294.84,492.08 292.05,491.90 289.26,491.70 286.46,491.46 283.67,491.18 280.88,490.86 278.08,490.48 275.29,490.04 272.50,489.53 269.70,488.93 266.91,488.24 264.12,487.43 261.33,486.49 258.53,485.39 255.74,484.11 252.95,482.64 250.15,480.93 247.36,478.95 244.57,476.66 241.78,474.02 238.98,470.98 236.19,467.48 233.40,463.47 230.60,458.88 227.81,453.64 225.02,447.69 222.23,440.94 219.43,433.36 216.64,424.87 213.85,415.41 211.05,404.92 208.26,393.43 205.47,380.90 202.68,367.40 199.88,352.97 197.09,337.68 194.30,321.68 191.50,305.05 188.71,288.07 185.92,270.89 183.12,253.62 180.33,236.58 177.54,219.96 174.75,203.90 171.95,188.57 169.16,174.11 166.37,160.54 163.57,148.02 160.78,136.53 157.99,126.03 155.20,116.55 152.40,108.04 149.61,100.43 146.82,93.61 144.02,87.56 141.23,82.21 138.44,77.49 135.65,73.33 132.85,69.68 130.06,66.49 127.27,63.72 124.47,61.30 121.68,59.18 118.89,57.34 116.10,55.75 113.30,54.36 110.51,53.17 107.72,52.13 104.92,51.23 102.13,50.45 99.34,49.78 96.55,49.20 93.75,48.70 90.96,48.27 88.17,47.90 85.37,47.57 82.58,47.30 79.79,47.06 76.99,46.85 74.20,46.67 71.41,46.52 68.62,46.38 65.82,46.27" style="stroke-width: 1.07;stroke: none;stroke-linecap: butt;"/>
<polygon points="65.82,55.92 68.62,71.81 71.41,108.42 74.20,179.41 76.99,274.07 79.79,293.39 82.58,296.02 85.37,298.65 88.17,301.27 90.96,303.88 93.75,306.48 96.55,309.08 99.34,311.66 102.13,314.22 104.92,316.78 107.72,319.32 110.51,321.85 113.30,324.37 116.10,326.87 118.89,329.35 121.68,331.82 124.47,334.28 127.27,336.71 130.06,339.13 132.85,341.53 135.65,343.92 138.44,346.28 141.23,348.61 144.02,350.93 146.82,353.22 149.61,355.49 152.40,357.74 155.20,359.97 157.99,362.17 160.78,364.36 163.57,366.52 166.37,368.67 169.16,370.79 171.95,372.88 174.75,374.96 177.54,377.01 180.33,379.03 183.12,381.04 185.92,383.02 188.71,384.98 191.50,386.91 194.30,388.82 197.09,390.70 199.88,392.56 202.68,394.40 205.47,396.21 208.26,398.00 211.05,399.77 213.85,401.51 216.64,403.22 219.43,404.91 222.23,406.58 225.02,408.22 227.81,409.84 230.60,411.44 233.40,413.01 236.19,414.56 238.98,416.08 241.78,417.58 244.57,419.06 247.36,420.52 250.15,421.95 252.95,423.35 255.74,424.74 258.53,426.10 261.33,427.44 264.12,428.76 266.91,430.06 269.70,431.33 272.50,432.58 275.29,433.81 278.08,435.02 280.88,436.21 283.67,437.38 286.46,438.52 289.26,439.65 292.05,440.76 294.84,441.84 297.63,442.91 300.43,443.96 303.22,444.99 306.01,446.00 308.81,446.99 311.60,447.96 314.39,448.91 317.18,449.85 319.98,450.77 322.77,451.67 325.56,452.55 328.36,453.42 331.15,454.27 333.94,455.10 336.73,455.92 339.53,456.72 342.32,457.50 345.11,458.27 347.91,459.03 350.70,459.77 353.49,460.49 356.28,461.20 359.08,461.90 361.87,462.58 364.66,463.25 367.46,463.90 370.25,464.54 373.04,465.17 375.83,465.78 378.63,466.39 381.42,466.98 384.21,467.55 387.01,468.12 389.80,468.67 392.59,469.22 395.39,469.75 398.18,470.27 400.97,470.77 403.76,471.27 406.56,471.76 409.35,472.24 412.14,472.70 414.94,473.16 417.73,473.61 420.52,474.05 423.31,474.48 426.11,474.89 428.90,475.30 431.69,475.71 434.49,476.10 437.28,476.48 440.07,476.86 442.86,477.23 445.66,477.59 448.45,477.94 451.24,478.28 454.04,478.62 456.83,478.95 459.62,479.27 462.41,479.58 465.21,479.89 468.00,480.19 470.79,480.49 473.59,480.77 476.38,481.06 479.17,481.33 481.97,481.60 484.76,481.86 487.55,482.12 490.34,482.37 493.14,482.62 495.93,482.86 498.72,483.09 501.52,483.32 504.31,483.55 507.10,483.77 509.89,483.98 512.69,484.19 515.48,484.40 518.27,484.60 521.07,484.79 523.86,484.99 526.65,485.17 529.44,485.36 532.24,485.54 535.03,485.71 537.82,485.88 540.62,486.05 543.41,486.21 546.20,486.37 548.99,486.53 551.79,486.68 554.58,486.83 557.37,486.97 560.17,487.12 562.96,487.25 565.75,487.39 568.54,487.52 571.34,487.65 574.13,487.78 576.92,487.90 579.72,488.02 582.51,488.14 585.30,488.26 588.10,488.37 590.89,488.48 593.68,488.59 596.47,488.69 599.27,488.80 602.06,488.90 604.85,488.99 607.65,489.09 610.44,489.18 613.23,489.28 616.02,489.37 618.82,489.45 621.61,489.54 621.61,493.13 618.82,493.13 616.02,493.13 613.23,493.13 610.44,493.13 607.65,493.13 604.85,493.13 602.06,493.13 599.27,493.13 596.47,493.13 593.68,493.13 590.89,493.13 588.10,493.13 585.30,493.13 582.51,493.13 579.72,493.13 576.92,493.13 574.13,493.13 571.34,493.13 568.54,493.13 565.75,493.13 562.96,493.13 560.17,493.13 557.37,493.13 554.58,493.13 551.79,493.13 548.99,493.13 546.20,493.13 543.41,493.13 540.62,493.13 537.82,493.13 535.03,493.13 532.24,493.13 529.44,493.13 526.65,493.13 523.86,493.13 521.07,493.13 518.27,493.13 515.48,493.13 512.69,493.13 509.89,493.13 507.10,493.13 504.31,493.13 501.52,493.13 498.72,493.13 495.93,493.13 493.14,493.13 490.34,493.13 487.55,493.13 484.76,493.13 481.97,493.13 479.17,493.13 476.38,493.13 473.59,493.13 470.79,493.13 468.00,493.13 465.21,493.13 462.41,493.13 459.62,493.13 456.83,493.13 454.04,493.13 451.24,493.13 448.45,493.13 445.66,493.13 442.86,493.13 440.07,493.13 437.28,493.13 434.49,493.13 431.69,493.13 428.90,493.13 426.11,493.13 423.31,493.13 420.52,493.13 417.73,493.13 414.94,493.13 412.14,493.13 409.35,493.13 406.56,493.13 403.76,493.13 400.97,493.13 398.18,493.13 395.39,493.13 392.59,493.13 389.80,493.13 387.01,493.13 384.21,493.13 381.42,493.13 378.63,493.13 375.83,493.13 373.04,493.13 370.25,493.13 367.46,493.13 364.66,493.13 361.87,493.13 359.08,493.13 356.28,493.13 353.49,493.13 350.70,493.13 347.91,493.13 345.11,493.13 342.32,493.13 339.53,493.13 336.73,493.13 333.94,493.13 331.15,493.13 328.36,493.13 325.56,493.13 322.77,493.13 319.98,493.13 317.18,493.13 314.39,493.13 311.60,493.13 308.81,493.13 306.01,493.13 303.22,493.13 300.43,493.13 297.63,493.13 294.84,493.13 292.05,493.13 289.26,493.13 286.46,493.13 283.67,493.13 280.88,493.13 278.08,493.13 275.29,493.13 272.50,493.13 269.70,493.13 266.91,493.13 264.12,493.13 261.33,493.13 258.53,493.13 255.74,493.13 252.95,493.13 250.15,493.13 247.36,493.13 244.57,493.13 241.78,493.13 238.98,493.13 236.19,493.13 233.40,493.13 230.60,493.13 227.81,493.13 225.02,493.13 222.23,493.13 219.43,493.13 216.64,493.13 213.85,493.13 211.05,493.13 208.26,493.13 205.47,493.13 202.68,493.13 199.88,493.13 197.09,493.13 194.30,493.13 191.50,493.13 188.71,493.13 185.92,493.13 183.12,493.13 180.33,493.13 177.54,493.13 174.75,493.13 171.95,493.13 169.16,493.13 166.37,493.13 163.57,493.13 160.78,493.13 157.99,493.13 155.20,493.13 152.40,493.13 149.61,493.13 146.82,493.13 144.02,493.13 141.23,493.13 138.44,493.13 135.65,493.13 132.85,493.13 130.06,493.13 127.27,493.13 124.47,493.13 121.68,493.13 118.89,493.13 116.10,493.12 113.30,493.12 110.51,493.12 107.72,493.12 104.92,493.10 102.13,493.06 99.34,492.95 96.55,492.68 93.75,492.03 90.96,490.63 88.17,487.83 85.37,482.46 82.58,473.59 79.79,459.43 76.99,439.06 74.20,413.54 71.41,384.13 68.62,354.40 65.82,326.99" style="stroke-width: 0.00;stroke: none;stroke-linecap: butt;fill: #7CAE00;fill-opacity: 0.15;" />
<polyline points="65.82,55.92 68.62,71.81 71.41,108.42 74.20,179.41 76.99,274.07 79.79,293.39 82.58,296.02 85.37,298.65 88.17,301.27 90.96,303.88 93.75,306.48 96.55,309.08 99.34,311.66 102.13,314.22 104.92,316.78 107.72,319.32 110.51,321.85 113.30,324.37 116.10,326.87 118.89,329.35 121.68,331.82 124.47,334.28 127.27,336.71 130.06,339.13 132.85,341.53 135.65,343.92 138.44,346.28 141.23,348.61 144.02,350.93 146.82,353.22 149.61,355.49 152.40,357.74 155.20,359.97 157.99,362.17 160.78,364.36 163.57,366.52 166.37,368.67 169.16,370.79 171.95,372.88 174.75,374.96 177.54,377.01 180.33,379.03 183.12,381.04 185.92,383.02 188.71,384.98 191.50,386.91 194.30,388.82 197.09,390.70 199.88,392.56 202.68,394.40 205.47,396.21 208.26,398.00 211.05,399.77 213.85,401.51 216.64,403.22 219.43,404.91 222.23,406.58 225.02,408.22 227.81,409.84 230.60,411.44 233.40,413.01 236.19,414.56 238.98,416.08 241.78,417.58 244.57,419.06 247.36,420.52 250.15,421.95 252.95,423.35 255.74,424.74 258.53,426.10 261.33,427.44 264.12,428.76 266.91,430.06 269.70,431.33 272.50,432.58 275.29,433.81 278.08,435.02 280.88,436.21 283.67,437.38 286.46,438.52 289.26,439.65 292.05,440.76 294.84,441.84 297.63,442.91 300.43,443.96 303.22,444.99 306.01,446.00 308.81,446.99 311.60,447.96 314.39,448.91 317.18,449.85 319.98,450.77 322.77,451.67 325.56,452.55 328.36,453.42 331.15,454.27 333.94,455.10 336.73,455.92 339.53,456.72 342.32,457.50 345.11,458.27 347.91,459.03 350.70,459.77 353.49,460.49 356.28,461.20 359.08,461.90 361.87,462.58 364.66,463.25 367.46,463.90 370.25,464.54 373.04,465.17 375.83,465.78 378.63,466.39 381.42,466.98 384.21,467.55 387.01,468.12 389.80,468.67 392.59,469.22 395.39,469.75 398.18,470.27 400.97,470.77 403.76,471.27 406.56,471.76 409.35,472.24 412.14,472.70 414.94,473.16 417.73,473.61 420.52,474.05 423.31,474.48 426.11,474.89 428.90,475.30 431.69,475.71 434.49,476.10 437.28,476.48 440.07,476.86 442.86,477.23 445.66,477.59 448.45,477.94 451.24,478.28 454.04,478.62 456.83,478.95 459.62,479.27 462.41,479.58 465.21,479.89 468.00,480.19 470.79,480.49 473.59,480.77 476.38,481.06 479.17,481.33 481.97,481.60 484.76,481.86 487.55,482.12 490.34,482.37 493.14,482.62 495.93,482.86 498.72,483.09 501.52,483.32 504.31,483.55 507.10,483.77 509.89,483.98 512.69,484.19 515.48,484.40 518.27,484.60 521.07,484.79 523.86,484.99 526.65,485.17 529.44,485.36 532.24,485.54 535.03,485.71 537.82,485.88 540.62,486.05 543.41,486.21 546.20,486.37 548.99,486.53 551.79,486.68 554.58,486.83 557.37,486.97 560.17,487.12 562.96,487.25 565.75,487.39 568.54,487.52 571.34,487.65 574.13,487.78 576.92,487.90 579.72,488.02 582.51,488.14 585.30,488.26 588.10,488.37 590.89,488.48 593.68,488.59 596.47,488.69 599.27,488.80 602.06,488.90 604.85,488.99 607.65,489.09 610.44,489.18 613.23,489.28 616.02,489.37 618.82,489.45 621.61,489.54" style="stroke-width: 1.07;stroke: none;stroke-linecap: butt;"/>
<polyline points="621.61,493.13 618.82,493.13 616.02,493.13 613.23,493.13 610.44,493.13 607.65,493.13 604.85,493.13 602.06,493.13 599.27,493.13 596.47,493.13 593.68,493.13 590.89,493.13 588.10,493.13 585.30,493.13 582.51,493.13 579.72,493.13 576.92,493.13 574.13,493.13 571.34,493.13 568.54,493.13 565.75,493.13 562.96,493.13 560.17,493.13 557.37,493.13 554.58,493.13 551.79,493.13 548.99,493.13 546.20,493.13 543.41,493.13 540.62,493.13 537.82,493.13 535.03,493.13 532.24,493.13 529.44,493.13 526.65,493.13 523.86,493.13 521.07,493.13 518.27,493.13 515.48,493.13 512.69,493.13 509.89,493.13 507.10,493.13 504.31,493.13 501.52,493.13 498.72,493.13 495.93,493.13 493.14,493.13 490.34,493.13 487.55,493.13 484.76,493.13 481.97,493.13 479.17,493.13 476.38,493.13 473.59,493.13 470.79,493.13 468.00,493.13 465.21,493.13 462.41,493.13 459.62,493.13 456.83,493.13 454.04,493.13 451.24,493.13 448.45,493.13 445.66,493.13 442.86,493.13 440.07,493.13 437.28,493.13 434.49,493.13 431.69,493.13 428.90,493.13 426.11,493.13 423.31,493.13 420.52,493.13 417.73,493.13 414.94,493.13 412.14,493.13 409.35,493.13 406.56,493.13 403.76,493.13 400.97,493.13 398.18,493.13 395.39,493.13 392.59,493.13 389.80,493.13 387.01,493.13 384.21,493.13 381.42,493.13 378.63,493.13 375.83,493.13 373.04,493.13 370.25,493.13 367.46,493.13 364.66,493.13 361.87,493.13 359.08,493.13 356.28,493.13 353.49,493.13 350.70,493.13 347.91,493.13 345.11,493.13 342.32,493.13 339.53,493.13 336.73,493.13 333.94,493.13 331.15,493.13 328.36,493.13 325.56,493.13 322.77,493.13 319.98,493.13 317.18,493.13 314.39,493.13 311.60,493.13 308.81,493.13 306.01,493.13 303.22,493.13 300.43,493.13 297.63,493.13 294.84,493.13 292.05,493.13 289.26,493.13 286.46,493.13 283.67,493.13 280.88,493.13 278.08,493.13 275.29,493.13 272.50,493.13 269.70,493.13 266.91,493.13 264.12,493.13 261.33,493.13 258.53,493.13 255.74,493.13 252.95,493.13 250.15,493.13 247.36,493.13 244.57,493.13 241.78,493.13 238.98,493.13 236.19,493.13 233.40,493.13 230.60,493.13 227.81,493.13 225.02,493.13 222.23,493.13 219.43,493.13 216.64,493.13 213.85,493.13 211.05,493.13 208.26,493.13 205.47,493.13 202.68,493.13 199.88,493.13 197.09,493.13 194.30,493.13 191.50,493.13 188.71,493.13 185.92,493.13 183.12,493.13 180.33,493.13 177.54,493.13 174.75,493.13 171.95,493.13 169.16,493.13 166.37,493.13 163.57,493.13 160.78,493.13 157.99,493.13 155.20,493.13 152.40,493.13 149.61,493.13 146.82,493.13 144.02,493.13 141.23,493.13 138.44,493.13 135.65,493.13 132.85,493.13 130.06,493.13 127.27,493.13 124.47,493.13 121.68,493.13 118.89,493.13 116.10,493.12 113.30,493.12 110.51,493.12 107.72,493.12 104.92,493.10 102.13,493.06 99.34,492.95 96.55,492.68 93.75,492.03 90.96,490.63 88.17,487.83 85.37,482.46 82.58,473.59 79.79,459.43 76.99,439.06 74.20,413.54 71.41,384.13 68.62,354.40 65.82,326.99" style="stroke-width: 1.07;stroke: none;stroke-linecap: butt;"/>
<polygon points="65.82,45.56 68.62,45.56 71.41,45.56 74.20,45.56 76.99,45.56 79.79,45.56 82.58,45.56 85.37,45.56 88.17,45.56 90.96,45.56 93.75,45.56 96.55,45.56 99.34,45.56 102.13,45.56 104.92,45.56 107.72,45.56 110.51,45.56 113.30,45.56 116.10,45.56 118.89,45.56 121.68,45.56 124.47,45.56 127.27,45.56 130.06,45.56 132.85,45.56 135.65,45.56 138.44,45.56 141.23,45.56 144.02,45.56 146.82,45.56 149.61,45.56 152.40,45.56 155.20,45.56 157.99,45.56 160.78,45.56 163.57,45.56 166.37,45.56 169.16,45.56 171.95,45.56 174.75,45.56 177.54,45.56 180.33,45.56 183.12,45.56 185.92,45.56 188.71,45.56 191.50,45.56 194.30,45.56 197.09,45.56 199.88,45.56 202.68,45.56 205.47,45.56 208.26,45.56 211.05,45.56 213.85,45.56 216.64,45.63 219.43,45.71 222.23,45.87 225.02,46.10 227.81,46.38 230.60,46.75 233.40,47.29 236.19,48.06 238.98,49.15 241.78,50.62 244.57,52.69 247.36,55.83 250.15,59.93 252.95,65.36 255.74,72.53 258.53,81.83 261.33,92.82 264.12,105.52 266.91,121.26 269.70,137.73 272.50,155.83 275.29,174.56 278.08,192.61 280.88,209.87 283.67,225.08 286.46,238.46 289.26,249.72 292.05,258.72 294.84,265.57 297.63,269.40 300.43,272.93 303.22,276.46 306.01,280.54 308.81,284.60 311.60,288.32 314.39,292.22 317.18,296.11 319.98,299.98 322.77,303.81 325.56,307.41 328.36,310.99 331.15,314.54 333.94,318.07 336.73,321.58 339.53,325.06 342.32,328.51 345.11,331.93 347.91,335.32 350.70,338.67 353.49,341.99 356.28,345.28 359.08,348.53 361.87,351.76 364.66,354.95 367.46,358.10 370.25,361.20 373.04,364.27 375.83,367.29 378.63,370.27 381.42,373.21 384.21,376.10 387.01,378.95 389.80,381.75 392.59,384.50 395.39,387.21 398.18,389.87 400.97,392.48 403.76,395.04 406.56,397.56 409.35,400.03 412.14,402.46 414.94,404.83 417.73,407.16 420.52,409.44 423.31,411.68 426.11,413.87 428.90,416.01 431.69,418.10 434.49,420.15 437.28,422.16 440.07,424.12 442.86,426.03 445.66,427.90 448.45,429.73 451.24,431.52 454.04,433.26 456.83,434.96 459.62,436.62 462.41,438.24 465.21,439.81 468.00,441.35 470.79,442.85 473.59,444.32 476.38,445.74 479.17,447.13 481.97,448.48 484.76,449.80 487.55,451.08 490.34,452.33 493.14,453.54 495.93,454.72 498.72,455.87 501.52,456.99 504.31,458.08 507.10,459.13 509.89,460.16 512.69,461.16 515.48,462.13 518.27,463.08 521.07,463.99 523.86,464.89 526.65,465.75 529.44,466.59 532.24,467.41 535.03,468.20 537.82,468.97 540.62,469.72 543.41,470.44 546.20,471.15 548.99,471.83 551.79,472.49 554.58,473.14 557.37,473.76 560.17,474.37 562.96,474.96 565.75,475.53 568.54,476.08 571.34,476.61 574.13,477.13 576.92,477.64 579.72,478.13 582.51,478.60 585.30,479.06 588.10,479.51 590.89,479.94 593.68,480.36 596.47,480.76 599.27,481.15 602.06,481.53 604.85,481.90 607.65,482.26 610.44,482.61 613.23,482.94 616.02,483.27 618.82,483.58 621.61,483.89 621.61,493.13 618.82,493.13 616.02,493.13 613.23,493.13 610.44,493.13 607.65,493.13 604.85,493.13 602.06,493.13 599.27,493.13 596.47,493.13 593.68,493.13 590.89,493.13 588.10,493.13 585.30,493.13 582.51,493.13 579.72,493.13 576.92,493.13 574.13,493.13 571.34,493.13 568.54,493.13 565.75,493.13 562.96,493.13 560.17,493.13 557.37,493.13 554.58,493.13 551.79,493.13 548.99,493.13 546.20,493.13 543.41,493.13 540.62,493.13 537.82,493.13 535.03,493.13 532.24,493.13 529.44,493.13 526.65,493.13 523.86,493.13 521.07,493.13 518.27,493.13 515.48,493.13 512.69,493.13 509.89,493.13 507.10,493.13 504.31,493.13 501.52,493.13 498.72,493.13 495.93,493.13 493.14,493.13 490.34,493.13 487.55,493.13 484.76,493.13 481.97,493.13 479.17,493.13 476.38,493.13 473.59,493.13 470.79,493.13 468.00,493.13 465.21,493.13 462.41,493.13 459.62,493.13 456.83,493.13 454.04,493.13 451.24,493.13 448.45,493.13 445.66,493.13 442.86,493.13 440.07,493.13 437.28,493.13 434.49,493.13 431.69,493.13 428.90,493.13 426.11,493.13 423.31,493.13 420.52,493.13 417.73,493.13 414.94,493.13 412.14,493.13 409.35,493.13 406.56,493.13 403.76,493.13 400.97,493.13 398.18,493.13 395.39,493.13 392.59,493.13 389.80,493.13 387.01,493.13 384.21,493.13 381.42,493.13 378.63,493.13 375.83,493.13 373.04,493.13 370.25,493.13 367.46,493.13 364.66,493.13 361.87,493.13 359.08,493.13 356.28,493.13 353.49,493.13 350.70,493.13 347.91,493.13 345.11,493.13 342.32,493.13 339.53,493.13 336.73,493.13 333.94,493.13 331.15,493.13 328.36,493.13 325.56,493.13 322.77,493.13 319.98,493.13 317.18,493.13 314.39,493.13 311.60,493.13 308.81,493.13 306.01,493.13 303.22,493.13 300.43,493.13 297.63,493.13 294.84,493.13 292.05,493.13 289.26,493.13 286.46,493.13 283.67,493.13 280.88,493.13 278.08,493.13 275.29,493.13 272.50,493.13 269.70,493.13 266.91,493.13 264.12,493.13 261.33,493.12 258.53,493.12 255.74,493.12 252.95,493.12 250.15,493.11 247.36,493.08 244.57,493.00 241.78,492.79 238.98,492.24 236.19,490.76 233.40,486.87 230.60,476.82 227.81,452.01 225.02,397.82 222.23,305.36 219.43,247.61 216.64,217.96 213.85,188.24 211.05,173.40 208.26,162.17 205.47,158.23 202.68,155.50 199.88,152.81 197.09,150.16 194.30,147.56 191.50,145.01 188.71,142.51 185.92,140.05 183.12,137.64 180.33,135.28 177.54,132.97 174.75,130.70 171.95,128.44 169.16,126.23 166.37,124.06 163.57,121.94 160.78,119.87 157.99,117.84 155.20,115.86 152.40,113.92 149.61,112.03 146.82,110.18 144.02,108.38 141.23,106.61 138.44,104.89 135.65,103.21 132.85,101.57 130.06,99.97 127.27,98.42 124.47,96.90 121.68,95.41 118.89,93.97 116.10,92.56 113.30,91.19 110.51,89.86 107.72,88.56 104.92,87.30 102.13,86.07 99.34,84.87 96.55,83.70 93.75,82.57 90.96,81.47 88.17,80.39 85.37,79.35 82.58,78.34 79.79,77.35 76.99,76.40 74.20,75.47 71.41,74.56 68.62,73.68 65.82,72.83" style="stroke-width: 0.00;stroke: none;stroke-linecap: butt;fill: #00BFC4;fill-opacity: 0.15;" />
<polyline points="65.82,45.56 68.62,45.56 71.41,45.56 74.20,45.56 76.99,45.56 79.79,45.56 82.58,45.56 85.37,45.56 88.17,45.56 90.96,45.56 93.75,45.56 96.55,45.56 99.34,45.56 102.13,45.56 104.92,45.56 107.72,45.56 110.51,45.56 113.30,45.56 116.10,45.56 118.89,45.56 121.68,45.56 124.47,45.56 127.27,45.56 130.06,45.56 132.85,45.56 135.65,45.56 138.44,45.56 141.23,45.56 144.02,45.56 146.82,45.56 149.61,45.56 152.40,45.56 155.20,45.56 157.99,45.56 160.78,45.56 163.57,45.56 166.37,45.56 169.16,45.56 171.95,45.56 174.75,45.56 177.54,45.56 180.33,45.56 183.12,45.56 185.92,45.56 188.71,45.56 191.50,45.56 194.30,45.56 197.09,45.56 199.88,45.56 202.68,45.56 205.47,45.56 208.26,45.56 211.05,45.56 213.85,45.56 216.64,45.63 219.43,45.71 222.23,45.87 225.02,46.10 227.81,46.38 230.60,46.75 233.40,47.29 236.19,48.06 238.98,49.15 241.78,50.62 244.57,52.69 247.36,55.83 250.15,59.93 252.95,65.36 255.74,72.53 258.53,81.83 261.33,92.82 264.12,105.52 266.91,121.26 269.70,137.73 272.50,155.83 275.29,174.56 278.08,192.61 280.88,209.87 283.67,225.08 286.46,238.46 289.26,249.72 292.05,258.72 294.84,265.57 297.63,269.40 300.43,272.93 303.22,276.46 306.01,280.54 308.81,284.60 311.60,288.32 314.39,292.22 317.18,296.11 319.98,299.98 322.77,303.81 325.56,307.41 328.36,310.99 331.15,314.54 333.94,318.07 336.73,321.58 339.53,325.06 342.32,328.51 345.11,331.93 347.91,335.32 350.70,338.67 353.49,341.99 356.28,345.28 359.08,348.53 361.87,351.76 364.66,354.95 367.46,358.10 370.25,361.20 373.04,364.27 375.83,367.29 378.63,370.27 381.42,373.21 384.21,376.10 387.01,378.95 389.80,381.75 392.59,384.50 395.39,387.21 398.18,389.87 400.97,392.48 403.76,395.04 406.56,397.56 409.35,400.03 412.14,402.46 414.94,404.83 417.73,407.16 420.52,409.44 423.31,411.68 426.11,413.87 428.90,416.01 431.69,418.10 434.49,420.15 437.28,422.16 440.07,424.12 442.86,426.03 445.66,427.90 448.45,429.73 451.24,431.52 454.04,433.26 456.83,434.96 459.62,436.62 462.41,438.24 465.21,439.81 468.00,441.35 470.79,442.85 473.59,444.32 476.38,445.74 479.17,447.13 481.97,448.48 484.76,449.80 487.55,451.08 490.34,452.33 493.14,453.54 495.93,454.72 498.72,455.87 501.52,456.99 504.31,458.08 507.10,459.13 509.89,460.16 512.69,461.16 515.48,462.13 518.27,463.08 521.07,463.99 523.86,464.89 526.65,465.75 529.44,466.59 532.24,467.41 535.03,468.20 537.82,468.97 540.62,469.72 543.41,470.44 546.20,471.15 548.99,471.83 551.79,472.49 554.58,473.14 557.37,473.76 560.17,474.37 562.96,474.96 565.75,475.53 568.54,476.08 571.34,476.61 574.13,477.13 576.92,477.64 579.72,478.13 582.51,478.60 585.30,479.06 588.10,479.51 590.89,479.94 593.68,480.36 596.47,480.76 599.27,481.15 602.06,481.53 604.85,481.90 607.65,482.26 610.44,482.61 613.23,482.94 616.02,483.27 618.82,483.58 621.61,483.89" style="stroke-width: 1.07;stroke: none;stroke-linecap: butt;"/>
<polyline points="621.61,493.13 618.82,493.13 616.02,493.13 613.23,493.13 610.44,493.13 607.65,493.13 604.85,493.13 602.06,493.13 599.27,493.13 596.47,493.13 593.68,493.13 590.89,493.13 588.10,493.13 585.30,493.13 582.51,493.13 579.72,493.13 576.92,493.13 574.13,493.13 571.34,493.13 568.54,493.13 565.75,493.13 562.96,493.13 560.17,493.13 557.37,493.13 554.58,493.13 551.79,493.13 548.99,493.13 546.20,493.13 543.41,493.13 540.62,493.13 537.82,493.13 535.03,493.13 532.24,493.13 529.44,493.13 526.65,493.13 523.86,493.13 521.07,493.13 518.27,493.13 515.48,493.13 512.69,493.13 509.89,493.13 507.10,493.13 504.31,493.13 501.52,493.13 498.72,493.13 495.93,493.13 493.14,493.13 490.34,493.13 487.55,493.13 484.76,493.13 481.97,493.13 479.17,493.13 476.38,493.13 473.59,493.13 470.79,493.13 468.00,493.13 465.21,493.13 462.41,493.13 459.62,493.13 456.83,493.13 454.04,493.13 451.24,493.13 448.45,493.13 445.66,493.13 442.86,493.13 440.07,493.13 437.28,493.13 434.49,493.13 431.69,493.13 428.90,493.13 426.11,493.13 423.31,493.13 420.52,493.13 417.73,493.13 414.94,493.13 412.14,493.13 409.35,493.13 406.56,493.13 403.76,493.13 400.97,493.13 398.18,493.13 395.39,493.13 392.59,493.13 389.80,493.13 387.01,493.13 384.21,493.13 381.42,493.13 378.63,493.13 375.83,493.13 373.04,493.13 370.25,493.13 367.46,493.13 364.66,493.13 361.87,493.13 359.08,493.13 356.28,493.13 353.49,493.13 350.70,493.13 347.91,493.13 345.11,493.13 342.32,493.13 339.53,493.13 336.73,493.13 333.94,493.13 331.15,493.13 328.36,493.13 325.56,493.13 322.77,493.13 319.98,493.13 317.18,493.13 314.39,493.13 311.60,493.13 308.81,493.13 306.01,493.13 303.22,493.13 300.43,493.13 297.63,493.13 294.84,493.13 292.05,493.13 289.26,493.13 286.46,493.13 283.67,493.13 280.88,493.13 278.08,493.13 275.29,493.13 272.50,493.13 269.70,493.13 266.91,493.13 264.12,493.13 261.33,493.12 258.53,493.12 255.74,493.12 252.95,493.12 250.15,493.11 247.36,493.08 244.57,493.00 241.78,492.79 238.98,492.24 236.19,490.76 233.40,486.87 230.60,476.82 227.81,452.01 225.02,397.82 222.23,305.36 219.43,247.61 216.64,217.96 213.85,188.24 211.05,173.40 208.26,162.17 205.47,158.23 202.68,155.50 199.88,152.81 197.09,150.16 194.30,147.56 191.50,145.01 188.71,142.51 185.92,140.05 183.12,137.64 180.33,135.28 177.54,132.97 174.75,130.70 171.95,128.44 169.16,126.23 166.37,124.06 163.57,121.94 160.78,119.87 157.99,117.84 155.20,115.86 152.40,113.92 149.61,112.03 146.82,110.18 144.02,108.38 141.23,106.61 138.44,104.89 135.65,103.21 132.85,101.57 130.06,99.97 127.27,98.42 124.47,96.90 121.68,95.41 118.89,93.97 116.10,92.56 113.30,91.19 110.51,89.86 107.72,88.56 104.92,87.30 102.13,86.07 99.34,84.87 96.55,83.70 93.75,82.57 90.96,81.47 88.17,80.39 85.37,79.35 82.58,78.34 79.79,77.35 76.99,76.40 74.20,75.47 71.41,74.56 68.62,73.68 65.82,72.83" style="stroke-width: 1.07;stroke: none;stroke-linecap: butt;"/>
<polygon points="65.82,51.66 68.62,51.92 71.41,52.21 74.20,52.54 76.99,52.90 79.79,53.29 82.58,53.73 85.37,54.22 88.17,54.78 90.96,55.41 93.75,56.08 96.55,56.84 99.34,57.69 102.13,58.63 104.92,59.68 107.72,60.85 110.51,62.15 113.30,63.57 116.10,65.14 118.89,66.89 121.68,68.83 124.47,70.95 127.27,73.31 130.06,75.90 132.85,78.77 135.65,81.90 138.44,85.37 141.23,89.12 144.02,93.25 146.82,97.74 149.61,102.66 152.40,108.00 155.20,113.80 157.99,120.04 160.78,126.84 163.57,134.12 166.37,141.88 169.16,150.19 171.95,159.06 174.75,168.45 177.54,178.37 180.33,188.77 183.12,199.63 185.92,210.86 188.71,222.44 191.50,234.34 194.30,246.49 197.09,258.71 199.88,271.09 202.68,283.42 205.47,295.68 208.26,307.78 211.05,319.66 213.85,331.25 216.64,342.50 219.43,353.34 222.23,363.69 225.02,373.62 227.81,383.06 230.60,391.97 233.40,400.37 236.19,408.21 238.98,415.55 241.78,422.39 244.57,428.76 247.36,434.58 250.15,439.98 252.95,444.94 255.74,449.49 258.53,453.61 261.33,457.42 264.12,460.87 266.91,464.01 269.70,466.87 272.50,469.47 275.29,471.82 278.08,473.95 280.88,475.88 283.67,477.61 286.46,479.18 289.26,480.59 292.05,481.87 294.84,483.01 297.63,484.05 300.43,484.98 303.22,485.81 306.01,486.56 308.81,487.24 311.60,487.85 314.39,488.39 317.18,488.88 319.98,489.32 322.77,489.71 325.56,490.06 328.36,490.38 331.15,490.67 333.94,490.92 336.73,491.15 339.53,491.36 342.32,491.54 345.11,491.71 347.91,491.85 350.70,491.99 353.49,492.11 356.28,492.21 359.08,492.31 361.87,492.39 364.66,492.47 367.46,492.54 370.25,492.60 373.04,492.65 375.83,492.70 378.63,492.75 381.42,492.79 384.21,492.82 387.01,492.85 389.80,492.88 392.59,492.91 395.39,492.93 398.18,492.95 400.97,492.97 403.76,492.98 406.56,493.00 409.35,493.01 412.14,493.02 414.94,493.03 417.73,493.04 420.52,493.05 423.31,493.06 426.11,493.07 428.90,493.07 431.69,493.08 434.49,493.08 437.28,493.09 440.07,493.09 442.86,493.10 445.66,493.10 448.45,493.10 451.24,493.10 454.04,493.11 456.83,493.11 459.62,493.11 462.41,493.11 465.21,493.11 468.00,493.11 470.79,493.12 473.59,493.12 476.38,493.12 479.17,493.12 481.97,493.12 484.76,493.12 487.55,493.12 490.34,493.12 493.14,493.12 495.93,493.12 498.72,493.12 501.52,493.12 504.31,493.12 507.10,493.12 509.89,493.12 512.69,493.12 515.48,493.12 518.27,493.12 521.07,493.12 523.86,493.12 526.65,493.12 529.44,493.12 532.24,493.12 535.03,493.12 537.82,493.12 540.62,493.12 543.41,493.12 546.20,493.12 548.99,493.12 551.79,493.12 554.58,493.12 557.37,493.12 560.17,493.12 562.96,493.12 565.75,493.13 568.54,493.13 571.34,493.13 574.13,493.13 576.92,493.13 579.72,493.13 582.51,493.13 585.30,493.13 588.10,493.13 590.89,493.13 593.68,493.13 596.47,493.13 599.27,493.13 602.06,493.13 604.85,493.13 607.65,493.13 610.44,493.13 613.23,493.13 616.02,493.13 618.82,493.13 621.61,493.13 621.61,493.13 618.82,493.13 616.02,493.13 613.23,493.13 610.44,493.13 607.65,493.13 604.85,493.13 602.06,493.13 599.27,493.13 596.47,493.13 593.68,493.13 590.89,493.13 588.10,493.13 585.30,493.13 582.51,493.13 579.72,493.13 576.92,493.13 574.13,493.13 571.34,493.13 568.54,493.13 565.75,493.13 562.96,493.13 560.17,493.13 557.37,493.13 554.58,493.13 551.79,493.13 548.99,493.12 546.20,493.12 543.41,493.12 540.62,493.12 537.82,493.12 535.03,493.12 532.24,493.12 529.44,493.12 526.65,493.12 523.86,493.12 521.07,493.12 518.27,493.12 515.48,493.12 512.69,493.12 509.89,493.12 507.10,493.12 504.31,493.12 501.52,493.12 498.72,493.12 495.93,493.12 493.14,493.12 490.34,493.12 487.55,493.12 484.76,493.12 481.97,493.12 479.17,493.12 476.38,493.12 473.59,493.12 470.79,493.12 468.00,493.12 465.21,493.12 462.41,493.12 459.62,493.11 456.83,493.11 454.04,493.11 451.24,493.11 448.45,493.11 445.66,493.11 442.86,493.10 440.07,493.10 437.28,493.10 434.49,493.10 431.69,493.09 428.90,493.09 426.11,493.08 423.31,493.08 420.52,493.07 417.73,493.07 414.94,493.06 412.14,493.05 409.35,493.04 406.56,493.03 403.76,493.02 400.97,493.01 398.18,493.00 395.39,492.98 392.59,492.96 389.80,492.94 387.01,492.92 384.21,492.90 381.42,492.87 378.63,492.84 375.83,492.80 373.04,492.77 370.25,492.72 367.46,492.67 364.66,492.62 361.87,492.56 359.08,492.49 356.28,492.41 353.49,492.33 350.70,492.23 347.91,492.12 345.11,492.00 342.32,491.86 339.53,491.71 336.73,491.54 333.94,491.35 331.15,491.14 328.36,490.90 325.56,490.63 322.77,490.33 319.98,489.99 317.18,489.61 314.39,489.19 311.60,488.72 308.81,488.19 306.01,487.60 303.22,486.95 300.43,486.21 297.63,485.40 294.84,484.48 292.05,483.45 289.26,482.31 286.46,481.04 283.67,479.62 280.88,478.05 278.08,476.29 275.29,474.35 272.50,472.19 269.70,469.79 266.91,467.13 264.12,464.21 261.33,460.97 258.53,457.41 255.74,453.48 252.95,449.17 250.15,444.50 247.36,439.36 244.57,433.75 241.78,427.65 238.98,421.09 236.19,413.96 233.40,406.31 230.60,398.16 227.81,389.40 225.02,380.12 222.23,370.35 219.43,360.12 216.64,349.40 213.85,338.22 211.05,326.72 208.26,314.87 205.47,302.81 202.68,290.58 199.88,278.22 197.09,265.85 194.30,253.55 191.50,241.34 188.71,229.40 185.92,217.65 183.12,206.23 180.33,195.20 177.54,184.61 174.75,174.46 171.95,164.83 169.16,155.72 166.37,147.15 163.57,139.10 160.78,131.63 157.99,124.60 155.20,118.15 152.40,112.17 149.61,106.64 146.82,101.57 144.02,96.94 141.23,92.72 138.44,88.89 135.65,85.41 132.85,82.23 130.06,79.37 127.27,76.83 124.47,74.51 121.68,72.45 118.89,70.57 116.10,68.87 113.30,67.37 110.51,66.01 107.72,64.79 104.92,63.70 102.13,62.72 99.34,61.84 96.55,61.05 93.75,60.36 90.96,59.76 88.17,59.19 85.37,58.70 82.58,58.25 79.79,57.86 76.99,57.49 74.20,57.19 71.41,56.89 68.62,56.64 65.82,56.41" style="stroke-width: 0.00;stroke: none;stroke-linecap: butt;fill: #C77CFF;fill-opacity: 0.15;" />
<polyline points="65.82,51.66 68.62,51.92 71.41,52.21 74.20,52.54 76.99,52.90 79.79,53.29 82.58,53.73 85.37,54.22 88.17,54.78 90.96,55.41 93.75,56.08 96.55,56.84 99.34,57.69 102.13,58.63 104.92,59.68 107.72,60.85 110.51,62.15 113.30,63.57 116.10,65.14 118.89,66.89 121.68,68.83 124.47,70.95 127.27,73.31 130.06,75.90 132.85,78.77 135.65,81.90 138.44,85.37 141.23,89.12 144.02,93.25 146.82,97.74 149.61,102.66 152.40,108.00 155.20,113.80 157.99,120.04 160.78,126.84 163.57,134.12 166.37,141.88 169.16,150.19 171.95,159.06 174.75,168.45 177.54,178.37 180.33,188.77 183.12,199.63 185.92,210.86 188.71,222.44 191.50,234.34 194.30,246.49 197.09,258.71 199.88,271.09 202.68,283.42 205.47,295.68 208.26,307.78 211.05,319.66 213.85,331.25 216.64,342.50 219.43,353.34 222.23,363.69 225.02,373.62 227.81,383.06 230.60,391.97 233.40,400.37 236.19,408.21 238.98,415.55 241.78,422.39 244.57,428.76 247.36,434.58 250.15,439.98 252.95,444.94 255.74,449.49 258.53,453.61 261.33,457.42 264.12,460.87 266.91,464.01 269.70,466.87 272.50,469.47 275.29,471.82 278.08,473.95 280.88,475.88 283.67,477.61 286.46,479.18 289.26,480.59 292.05,481.87 294.84,483.01 297.63,484.05 300.43,484.98 303.22,485.81 306.01,486.56 308.81,487.24 311.60,487.85 314.39,488.39 317.18,488.88 319.98,489.32 322.77,489.71 325.56,490.06 328.36,490.38 331.15,490.67 333.94,490.92 336.73,491.15 339.53,491.36 342.32,491.54 345.11,491.71 347.91,491.85 350.70,491.99 353.49,492.11 356.28,492.21 359.08,492.31 361.87,492.39 364.66,492.47 367.46,492.54 370.25,492.60 373.04,492.65 375.83,492.70 378.63,492.75 381.42,492.79 384.21,492.82 387.01,492.85 389.80,492.88 392.59,492.91 395.39,492.93 398.18,492.95 400.97,492.97 403.76,492.98 406.56,493.00 409.35,493.01 412.14,493.02 414.94,493.03 417.73,493.04 420.52,493.05 423.31,493.06 426.11,493.07 428.90,493.07 431.69,493.08 434.49,493.08 437.28,493.09 440.07,493.09 442.86,493.10 445.66,493.10 448.45,493.10 451.24,493.10 454.04,493.11 456.83,493.11 459.62,493.11 462.41,493.11 465.21,493.11 468.00,493.11 470.79,493.12 473.59,493.12 476.38,493.12 479.17,493.12 481.97,493.12 484.76,493.12 487.55,493.12 490.34,493.12 493.14,493.12 495.93,493.12 498.72,493.12 501.52,493.12 504.31,493.12 507.10,493.12 509.89,493.12 512.69,493.12 515.48,493.12 518.27,493.12 521.07,493.12 523.86,493.12 526.65,493.12 529.44,493.12 532.24,493.12 535.03,493.12 537.82,493.12 540.62,493.12 543.41,493.12 546.20,493.12 548.99,493.12 551.79,493.12 554.58,493.12 557.37,493.12 560.17,493.12 562.96,493.12 565.75,493.13 568.54,493.13 571.34,493.13 574.13,493.13 576.92,493.13 579.72,493.13 582.51,493.13 585.30,493.13 588.10,493.13 590.89,493.13 593.68,493.13 596.47,493.13 599.27,493.13 602.06,493.13 604.85,493.13 607.65,493.13 610.44,493.13 613.23,493.13 616.02,493.13 618.82,493.13 621.61,493.13" style="stroke-width: 1.07;stroke: none;stroke-linecap: butt;"/>
<polyline points="621.61,493.13 618.82,493.13 616.02,493.13 613.23,493.13 610.44,493.13 607.65,493.13 604.85,493.13 602.06,493.13 599.27,493.13 596.47,493.13 593.68,493.13 590.89,493.13 588.10,493.13 585.30,493.13 582.51,493.13 579.72,493.13 576.92,493.13 574.13,493.13 571.34,493.13 568.54,493.13 565.75,493.13 562.96,493.13 560.17,493.13 557.37,493.13 554.58,493.13 551.79,493.13 548.99,493.12 546.20,493.12 543.41,493.12 540.62,493.12 537.82,493.12 535.03,493.12 532.24,493.12 529.44,493.12 526.65,493.12 523.86,493.12 521.07,493.12 518.27,493.12 515.48,493.12 512.69,493.12 509.89,493.12 507.10,493.12 504.31,493.12 501.52,493.12 498.72,493.12 495.93,493.12 493.14,493.12 490.34,493.12 487.55,493.12 484.76,493.12 481.97,493.12 479.17,493.12 476.38,493.12 473.59,493.12 470.79,493.12 468.00,493.12 465.21,493.12 462.41,493.12 459.62,493.11 456.83,493.11 454.04,493.11 451.24,493.11 448.45,493.11 445.66,493.11 442.86,493.10 440.07,493.10 437.28,493.10 434.49,493.10 431.69,493.09 428.90,493.09 426.11,493.08 423.31,493.08 420.52,493.07 417.73,493.07 414.94,493.06 412.14,493.05 409.35,493.04 406.56,493.03 403.76,493.02 400.97,493.01 398.18,493.00 395.39,492.98 392.59,492.96 389.80,492.94 387.01,492.92 384.21,492.90 381.42,492.87 378.63,492.84 375.83,492.80 373.04,492.77 370.25,492.72 367.46,492.67 364.66,492.62 361.87,492.56 359.08,492.49 356.28,492.41 353.49,492.33 350.70,492.23 347.91,492.12 345.11,492.00 342.32,491.86 339.53,491.71 336.73,491.54 333.94,491.35 331.15,491.14 328.36,490.90 325.56,490.63 322.77,490.33 319.98,489.99 317.18,489.61 314.39,489.19 311.60,488.72 308.81,488.19 306.01,487.60 303.22,486.95 300.43,486.21 297.63,485.40 294.84,484.48 292.05,483.45 289.26,482.31 286.46,481.04 283.67,479.62 280.88,478.05 278.08,476.29 275.29,474.35 272.50,472.19 269.70,469.79 266.91,467.13 264.12,464.21 261.33,460.97 258.53,457.41 255.74,453.48 252.95,449.17 250.15,444.50 247.36,439.36 244.57,433.75 241.78,427.65 238.98,421.09 236.19,413.96 233.40,406.31 230.60,398.16 227.81,389.40 225.02,380.12 222.23,370.35 219.43,360.12 216.64,349.40 213.85,338.22 211.05,326.72 208.26,314.87 205.47,302.81 202.68,290.58 199.88,278.22 197.09,265.85 194.30,253.55 191.50,241.34 188.71,229.40 185.92,217.65 183.12,206.23 180.33,195.20 177.54,184.61 174.75,174.46 171.95,164.83 169.16,155.72 166.37,147.15 163.57,139.10 160.78,131.63 157.99,124.60 155.20,118.15 152.40,112.17 149.61,106.64 146.82,101.57 144.02,96.94 141.23,92.72 138.44,88.89 135.65,85.41 132.85,82.23 130.06,79.37 127.27,76.83 124.47,74.51 121.68,72.45 118.89,70.57 116.10,68.87 113.30,67.37 110.51,66.01 107.72,64.79 104.92,63.70 102.13,62.72 99.34,61.84 96.55,61.05 93.75,60.36 90.96,59.76 88.17,59.19 85.37,58.70 82.58,58.25 79.79,57.86 76.99,57.49 74.20,57.19 71.41,56.89 68.62,56.64 65.82,56.41" style="stroke-width: 1.07;stroke: none;stroke-linecap: butt;"/>
<circle cx="65.82" cy="45.56" r="2.06" style="stroke-width: 0.71;stroke: #F8766D;stroke-opacity: 0.70;fill: #F8766D;fill-opacity: 0.70;"/>
<circle cx="65.82" cy="45.56" r="2.06" style="stroke-width: 0.71;stroke: #F8766D;stroke-opacity: 0.70;fill: #F8766D;fill-opacity: 0.70;"/>
<circle cx="65.82" cy="45.56" r="2.06" style="stroke-width: 0.71;stroke: #F8766D;stroke-opacity: 0.70;fill: #F8766D;fill-opacity: 0.70;"/>
<circle cx="158.99" cy="136.13" r="2.06" style="stroke-width: 0.71;stroke: #F8766D;stroke-opacity: 0.70;fill: #F8766D;fill-opacity: 0.70;"/>
<circle cx="158.99" cy="181.22" r="2.06" style="stroke-width: 0.71;stroke: #F8766D;stroke-opacity: 0.70;fill: #F8766D;fill-opacity: 0.70;"/>
<circle cx="158.99" cy="67.20" r="2.06" style="stroke-width: 0.71;stroke: #F8766D;stroke-opacity: 0.70;fill: #F8766D;fill-opacity: 0.70;"/>
<circle cx="247.88" cy="493.13" r="2.06" style="stroke-width: 0.71;stroke: #F8766D;stroke-opacity: 0.70;fill: #F8766D;fill-opacity: 0.70;"/>
<circle cx="247.88" cy="493.13" r="2.06" style="stroke-width: 0.71;stroke: #F8766D;stroke-opacity: 0.70;fill: #F8766D;fill-opacity: 0.70;"/>
<circle cx="247.88" cy="447.54" r="2.06" style="stroke-width: 0.71;stroke: #F8766D;stroke-opacity: 0.70;fill: #F8766D;fill-opacity: 0.70;"/>
<circle cx="342.12" cy="493.13" r="2.06" style="stroke-width: 0.71;stroke: #F8766D;stroke-opacity: 0.70;fill: #F8766D;fill-opacity: 0.70;"/>
<circle cx="342.12" cy="493.13" r="2.06" style="stroke-width: 0.71;stroke: #F8766D;stroke-opacity: 0.70;fill: #F8766D;fill-opacity: 0.70;"/>
<circle cx="342.12" cy="493.13" r="2.06" style="stroke-width: 0.71;stroke: #F8766D;stroke-opacity: 0.70;fill: #F8766D;fill-opacity: 0.70;"/>
<circle cx="435.29" cy="493.13" r="2.06" style="stroke-width: 0.71;stroke: #F8766D;stroke-opacity: 0.70;fill: #F8766D;fill-opacity: 0.70;"/>
<circle cx="435.29" cy="493.13" r="2.06" style="stroke-width: 0.71;stroke: #F8766D;stroke-opacity: 0.70;fill: #F8766D;fill-opacity: 0.70;"/>
<circle cx="435.29" cy="493.13" r="2.06" style="stroke-width: 0.71;stroke: #F8766D;stroke-opacity: 0.70;fill: #F8766D;fill-opacity: 0.70;"/>
<circle cx="528.45" cy="493.13" r="2.06" style="stroke-width: 0.71;stroke: #F8766D;stroke-opacity: 0.70;fill: #F8766D;fill-opacity: 0.70;"/>
<circle cx="528.45" cy="493.13" r="2.06" style="stroke-width: 0.71;stroke: #F8766D;stroke-opacity: 0.70;fill: #F8766D;fill-opacity: 0.70;"/>
<circle cx="528.45" cy="493.13" r="2.06" style="stroke-width: 0.71;stroke: #F8766D;stroke-opacity: 0.70;fill: #F8766D;fill-opacity: 0.70;"/>
<circle cx="621.61" cy="488.40" r="2.06" style="stroke-width: 0.71;stroke: #F8766D;stroke-opacity: 0.70;fill: #F8766D;fill-opacity: 0.70;"/>
<circle cx="621.61" cy="493.13" r="2.06" style="stroke-width: 0.71;stroke: #F8766D;stroke-opacity: 0.70;fill: #F8766D;fill-opacity: 0.70;"/>
<circle cx="621.61" cy="493.13" r="2.06" style="stroke-width: 0.71;stroke: #F8766D;stroke-opacity: 0.70;fill: #F8766D;fill-opacity: 0.70;"/>
<circle cx="65.82" cy="45.56" r="2.06" style="stroke-width: 0.71;stroke: #C77CFF;stroke-opacity: 0.70;fill: #C77CFF;fill-opacity: 0.70;"/>
<circle cx="65.82" cy="71.11" r="2.06" style="stroke-width: 0.71;stroke: #C77CFF;stroke-opacity: 0.70;fill: #C77CFF;fill-opacity: 0.70;"/>
<circle cx="65.82" cy="45.56" r="2.06" style="stroke-width: 0.71;stroke: #C77CFF;stroke-opacity: 0.70;fill: #C77CFF;fill-opacity: 0.70;"/>
<circle cx="158.99" cy="126.46" r="2.06" style="stroke-width: 0.71;stroke: #C77CFF;stroke-opacity: 0.70;fill: #C77CFF;fill-opacity: 0.70;"/>
<circle cx="158.99" cy="159.40" r="2.06" style="stroke-width: 0.71;stroke: #C77CFF;stroke-opacity: 0.70;fill: #C77CFF;fill-opacity: 0.70;"/>
<circle cx="158.99" cy="88.33" r="2.06" style="stroke-width: 0.71;stroke: #C77CFF;stroke-opacity: 0.70;fill: #C77CFF;fill-opacity: 0.70;"/>
<circle cx="247.88" cy="493.13" r="2.06" style="stroke-width: 0.71;stroke: #C77CFF;stroke-opacity: 0.70;fill: #C77CFF;fill-opacity: 0.70;"/>
<circle cx="247.88" cy="493.13" r="2.06" style="stroke-width: 0.71;stroke: #C77CFF;stroke-opacity: 0.70;fill: #C77CFF;fill-opacity: 0.70;"/>
<circle cx="247.88" cy="327.67" r="2.06" style="stroke-width: 0.71;stroke: #C77CFF;stroke-opacity: 0.70;fill: #C77CFF;fill-opacity: 0.70;"/>
<circle cx="342.12" cy="493.13" r="2.06" style="stroke-width: 0.71;stroke: #C77CFF;stroke-opacity: 0.70;fill: #C77CFF;fill-opacity: 0.70;"/>
<circle cx="342.12" cy="493.13" r="2.06" style="stroke-width: 0.71;stroke: #C77CFF;stroke-opacity: 0.70;fill: #C77CFF;fill-opacity: 0.70;"/>
<circle cx="342.12" cy="493.13" r="2.06" style="stroke-width: 0.71;stroke: #C77CFF;stroke-opacity: 0.70;fill: #C77CFF;fill-opacity: 0.70;"/>
<circle cx="435.29" cy="493.13" r="2.06" style="stroke-width: 0.71;stroke: #C77CFF;stroke-opacity: 0.70;fill: #C77CFF;fill-opacity: 0.70;"/>
<circle cx="435.29" cy="493.13" r="2.06" style="stroke-width: 0.71;stroke: #C77CFF;stroke-opacity: 0.70;fill: #C77CFF;fill-opacity: 0.70;"/>
<circle cx="435.29" cy="493.13" r="2.06" style="stroke-width: 0.71;stroke: #C77CFF;stroke-opacity: 0.70;fill: #C77CFF;fill-opacity: 0.70;"/>
<circle cx="528.45" cy="493.13" r="2.06" style="stroke-width: 0.71;stroke: #C77CFF;stroke-opacity: 0.70;fill: #C77CFF;fill-opacity: 0.70;"/>
<circle cx="528.45" cy="493.13" r="2.06" style="stroke-width: 0.71;stroke: #C77CFF;stroke-opacity: 0.70;fill: #C77CFF;fill-opacity: 0.70;"/>
<circle cx="528.45" cy="493.13" r="2.06" style="stroke-width: 0.71;stroke: #C77CFF;stroke-opacity: 0.70;fill: #C77CFF;fill-opacity: 0.70;"/>
<circle cx="621.61" cy="493.13" r="2.06" style="stroke-width: 0.71;stroke: #C77CFF;stroke-opacity: 0.70;fill: #C77CFF;fill-opacity: 0.70;"/>
<circle cx="621.61" cy="493.13" r="2.06" style="stroke-width: 0.71;stroke: #C77CFF;stroke-opacity: 0.70;fill: #C77CFF;fill-opacity: 0.70;"/>
<circle cx="621.61" cy="487.28" r="2.06" style="stroke-width: 0.71;stroke: #C77CFF;stroke-opacity: 0.70;fill: #C77CFF;fill-opacity: 0.70;"/>
<circle cx="65.82" cy="45.56" r="2.06" style="stroke-width: 0.71;stroke: #00BFC4;stroke-opacity: 0.70;fill: #00BFC4;fill-opacity: 0.70;"/>
<circle cx="65.82" cy="45.56" r="2.06" style="stroke-width: 0.71;stroke: #00BFC4;stroke-opacity: 0.70;fill: #00BFC4;fill-opacity: 0.70;"/>
<circle cx="65.82" cy="45.56" r="2.06" style="stroke-width: 0.71;stroke: #00BFC4;stroke-opacity: 0.70;fill: #00BFC4;fill-opacity: 0.70;"/>
<circle cx="158.99" cy="45.56" r="2.06" style="stroke-width: 0.71;stroke: #00BFC4;stroke-opacity: 0.70;fill: #00BFC4;fill-opacity: 0.70;"/>
<circle cx="158.99" cy="45.56" r="2.06" style="stroke-width: 0.71;stroke: #00BFC4;stroke-opacity: 0.70;fill: #00BFC4;fill-opacity: 0.70;"/>
<circle cx="158.99" cy="52.39" r="2.06" style="stroke-width: 0.71;stroke: #00BFC4;stroke-opacity: 0.70;fill: #00BFC4;fill-opacity: 0.70;"/>
<circle cx="247.88" cy="152.42" r="2.06" style="stroke-width: 0.71;stroke: #00BFC4;stroke-opacity: 0.70;fill: #00BFC4;fill-opacity: 0.70;"/>
<circle cx="247.88" cy="53.95" r="2.06" style="stroke-width: 0.71;stroke: #00BFC4;stroke-opacity: 0.70;fill: #00BFC4;fill-opacity: 0.70;"/>
<circle cx="247.88" cy="62.04" r="2.06" style="stroke-width: 0.71;stroke: #00BFC4;stroke-opacity: 0.70;fill: #00BFC4;fill-opacity: 0.70;"/>
<circle cx="342.12" cy="493.13" r="2.06" style="stroke-width: 0.71;stroke: #00BFC4;stroke-opacity: 0.70;fill: #00BFC4;fill-opacity: 0.70;"/>
<circle cx="342.12" cy="493.13" r="2.06" style="stroke-width: 0.71;stroke: #00BFC4;stroke-opacity: 0.70;fill: #00BFC4;fill-opacity: 0.70;"/>
<circle cx="342.12" cy="493.13" r="2.06" style="stroke-width: 0.71;stroke: #00BFC4;stroke-opacity: 0.70;fill: #00BFC4;fill-opacity: 0.70;"/>
<circle cx="435.29" cy="493.13" r="2.06" style="stroke-width: 0.71;stroke: #00BFC4;stroke-opacity: 0.70;fill: #00BFC4;fill-opacity: 0.70;"/>
<circle cx="435.29" cy="493.13" r="2.06" style="stroke-width: 0.71;stroke: #00BFC4;stroke-opacity: 0.70;fill: #00BFC4;fill-opacity: 0.70;"/>
<circle cx="435.29" cy="493.13" r="2.06" style="stroke-width: 0.71;stroke: #00BFC4;stroke-opacity: 0.70;fill: #00BFC4;fill-opacity: 0.70;"/>
<circle cx="528.45" cy="493.13" r="2.06" style="stroke-width: 0.71;stroke: #00BFC4;stroke-opacity: 0.70;fill: #00BFC4;fill-opacity: 0.70;"/>
<circle cx="528.45" cy="493.13" r="2.06" style="stroke-width: 0.71;stroke: #00BFC4;stroke-opacity: 0.70;fill: #00BFC4;fill-opacity: 0.70;"/>
<circle cx="528.45" cy="493.13" r="2.06" style="stroke-width: 0.71;stroke: #00BFC4;stroke-opacity: 0.70;fill: #00BFC4;fill-opacity: 0.70;"/>
<circle cx="621.61" cy="493.13" r="2.06" style="stroke-width: 0.71;stroke: #00BFC4;stroke-opacity: 0.70;fill: #00BFC4;fill-opacity: 0.70;"/>
<circle cx="621.61" cy="493.13" r="2.06" style="stroke-width: 0.71;stroke: #00BFC4;stroke-opacity: 0.70;fill: #00BFC4;fill-opacity: 0.70;"/>
<circle cx="621.61" cy="488.79" r="2.06" style="stroke-width: 0.71;stroke: #00BFC4;stroke-opacity: 0.70;fill: #00BFC4;fill-opacity: 0.70;"/>
<circle cx="65.82" cy="447.92" r="2.06" style="stroke-width: 0.71;stroke: #7CAE00;stroke-opacity: 0.70;fill: #7CAE00;fill-opacity: 0.70;"/>
<circle cx="65.82" cy="349.70" r="2.06" style="stroke-width: 0.71;stroke: #7CAE00;stroke-opacity: 0.70;fill: #7CAE00;fill-opacity: 0.70;"/>
<circle cx="65.82" cy="179.11" r="2.06" style="stroke-width: 0.71;stroke: #7CAE00;stroke-opacity: 0.70;fill: #7CAE00;fill-opacity: 0.70;"/>
<circle cx="158.99" cy="493.13" r="2.06" style="stroke-width: 0.71;stroke: #7CAE00;stroke-opacity: 0.70;fill: #7CAE00;fill-opacity: 0.70;"/>
<circle cx="158.99" cy="493.13" r="2.06" style="stroke-width: 0.71;stroke: #7CAE00;stroke-opacity: 0.70;fill: #7CAE00;fill-opacity: 0.70;"/>
<circle cx="158.99" cy="493.13" r="2.06" style="stroke-width: 0.71;stroke: #7CAE00;stroke-opacity: 0.70;fill: #7CAE00;fill-opacity: 0.70;"/>
<circle cx="247.88" cy="493.13" r="2.06" style="stroke-width: 0.71;stroke: #7CAE00;stroke-opacity: 0.70;fill: #7CAE00;fill-opacity: 0.70;"/>
<circle cx="247.88" cy="493.13" r="2.06" style="stroke-width: 0.71;stroke: #7CAE00;stroke-opacity: 0.70;fill: #7CAE00;fill-opacity: 0.70;"/>
<circle cx="247.88" cy="493.13" r="2.06" style="stroke-width: 0.71;stroke: #7CAE00;stroke-opacity: 0.70;fill: #7CAE00;fill-opacity: 0.70;"/>
<circle cx="342.12" cy="493.13" r="2.06" style="stroke-width: 0.71;stroke: #7CAE00;stroke-opacity: 0.70;fill: #7CAE00;fill-opacity: 0.70;"/>
<circle cx="342.12" cy="493.13" r="2.06" style="stroke-width: 0.71;stroke: #7CAE00;stroke-opacity: 0.70;fill: #7CAE00;fill-opacity: 0.70;"/>
<circle cx="342.12" cy="493.13" r="2.06" style="stroke-width: 0.71;stroke: #7CAE00;stroke-opacity: 0.70;fill: #7CAE00;fill-opacity: 0.70;"/>
<circle cx="435.29" cy="493.13" r="2.06" style="stroke-width: 0.71;stroke: #7CAE00;stroke-opacity: 0.70;fill: #7CAE00;fill-opacity: 0.70;"/>
<circle cx="435.29" cy="493.13" r="2.06" style="stroke-width: 0.71;stroke: #7CAE00;stroke-opacity: 0.70;fill: #7CAE00;fill-opacity: 0.70;"/>
<circle cx="435.29" cy="493.13" r="2.06" style="stroke-width: 0.71;stroke: #7CAE00;stroke-opacity: 0.70;fill: #7CAE00;fill-opacity: 0.70;"/>
<circle cx="528.45" cy="493.13" r="2.06" style="stroke-width: 0.71;stroke: #7CAE00;stroke-opacity: 0.70;fill: #7CAE00;fill-opacity: 0.70;"/>
<circle cx="528.45" cy="493.13" r="2.06" style="stroke-width: 0.71;stroke: #7CAE00;stroke-opacity: 0.70;fill: #7CAE00;fill-opacity: 0.70;"/>
<circle cx="528.45" cy="493.13" r="2.06" style="stroke-width: 0.71;stroke: #7CAE00;stroke-opacity: 0.70;fill: #7CAE00;fill-opacity: 0.70;"/>
<circle cx="621.61" cy="493.13" r="2.06" style="stroke-width: 0.71;stroke: #7CAE00;stroke-opacity: 0.70;fill: #7CAE00;fill-opacity: 0.70;"/>
<circle cx="621.61" cy="493.13" r="2.06" style="stroke-width: 0.71;stroke: #7CAE00;stroke-opacity: 0.70;fill: #7CAE00;fill-opacity: 0.70;"/>
<circle cx="621.61" cy="477.91" r="2.06" style="stroke-width: 0.71;stroke: #7CAE00;stroke-opacity: 0.70;fill: #7CAE00;fill-opacity: 0.70;"/>
<polyline points="65.82,46.19 68.62,46.30 71.41,46.42 74.20,46.56 76.99,46.73 79.79,46.92 82.58,47.14 85.37,47.40 88.17,47.70 90.96,48.05 93.75,48.46 96.55,48.93 99.34,49.48 102.13,50.11 104.92,50.85 107.72,51.71 110.51,52.70 113.30,53.85 116.10,55.18 118.89,56.72 121.68,58.50 124.47,60.55 127.27,62.91 130.06,65.63 132.85,68.75 135.65,72.33 138.44,76.41 141.23,81.07 144.02,86.37 146.82,92.36 149.61,99.12 152.40,106.71 155.20,115.18 157.99,124.59 160.78,134.96 163.57,146.32 166.37,158.68 169.16,171.99 171.95,186.22 174.75,201.26 177.54,217.02 180.33,233.35 183.12,250.08 185.92,267.03 188.71,284.00 191.50,300.81 194.30,317.26 197.09,333.18 199.88,348.44 202.68,362.89 205.47,376.46 208.26,389.07 211.05,400.71 213.85,411.35 216.64,421.01 219.43,429.73 222.23,437.55 225.02,444.53 227.81,450.73 230.60,456.21 233.40,461.04 236.19,465.28 238.98,468.99 241.78,472.23 244.57,475.05 247.36,477.51 250.15,479.64 252.95,481.49 255.74,483.09 258.53,484.48 261.33,485.68 264.12,486.71 266.91,487.60 269.70,488.37 272.50,489.04 275.29,489.61 278.08,490.10 280.88,490.52 283.67,490.89 286.46,491.20 289.26,491.47 292.05,491.70 294.84,491.90 297.63,492.07 300.43,492.22 303.22,492.35 306.01,492.46 308.81,492.55 311.60,492.63 314.39,492.70 317.18,492.76 319.98,492.81 322.77,492.86 325.56,492.89 328.36,492.93 331.15,492.95 333.94,492.98 336.73,493.00 339.53,493.02 342.32,493.03 345.11,493.05 347.91,493.06 350.70,493.07 353.49,493.07 356.28,493.08 359.08,493.09 361.87,493.09 364.66,493.10 367.46,493.10 370.25,493.10 373.04,493.11 375.83,493.11 378.63,493.11 381.42,493.11 384.21,493.12 387.01,493.12 389.80,493.12 392.59,493.12 395.39,493.12 398.18,493.12 400.97,493.12 403.76,493.12 406.56,493.12 409.35,493.12 412.14,493.12 414.94,493.12 417.73,493.12 420.52,493.12 423.31,493.12 426.11,493.12 428.90,493.12 431.69,493.12 434.49,493.12 437.28,493.12 440.07,493.12 442.86,493.12 445.66,493.12 448.45,493.12 451.24,493.12 454.04,493.13 456.83,493.13 459.62,493.13 462.41,493.13 465.21,493.13 468.00,493.13 470.79,493.13 473.59,493.13 476.38,493.13 479.17,493.13 481.97,493.13 484.76,493.13 487.55,493.13 490.34,493.13 493.14,493.13 495.93,493.13 498.72,493.13 501.52,493.13 504.31,493.13 507.10,493.13 509.89,493.13 512.69,493.13 515.48,493.13 518.27,493.13 521.07,493.13 523.86,493.13 526.65,493.13 529.44,493.13 532.24,493.13 535.03,493.13 537.82,493.13 540.62,493.13 543.41,493.13 546.20,493.13 548.99,493.13 551.79,493.13 554.58,493.13 557.37,493.13 560.17,493.13 562.96,493.13 565.75,493.13 568.54,493.13 571.34,493.13 574.13,493.13 576.92,493.13 579.72,493.13 582.51,493.13 585.30,493.13 588.10,493.13 590.89,493.13 593.68,493.13 596.47,493.13 599.27,493.13 602.06,493.13 604.85,493.13 607.65,493.13 610.44,493.13 613.23,493.13 616.02,493.13 618.82,493.13 621.61,493.13" style="stroke-width: 1.71;stroke: #F8766D;stroke-linecap: butt;"/>
<polyline points="65.82,247.93 68.62,284.47 71.41,323.45 74.20,361.62 76.99,394.95 79.79,420.28 82.58,437.23 85.37,447.99 88.17,455.00 90.96,459.84 93.75,463.41 96.55,466.17 99.34,468.40 102.13,470.25 104.92,471.81 107.72,473.16 110.51,474.34 113.30,475.37 116.10,476.30 118.89,477.12 121.68,477.87 124.47,478.55 127.27,479.17 130.06,479.73 132.85,480.26 135.65,480.74 138.44,481.18 141.23,481.60 144.02,481.98 146.82,482.35 149.61,482.68 152.40,483.00 155.20,483.30 157.99,483.58 160.78,483.85 163.57,484.10 166.37,484.34 169.16,484.57 171.95,484.78 174.75,484.99 177.54,485.18 180.33,485.37 183.12,485.55 185.92,485.72 188.71,485.88 191.50,486.04 194.30,486.19 197.09,486.33 199.88,486.47 202.68,486.60 205.47,486.73 208.26,486.85 211.05,486.97 213.85,487.08 216.64,487.19 219.43,487.30 222.23,487.40 225.02,487.50 227.81,487.60 230.60,487.69 233.40,487.78 236.19,487.86 238.98,487.95 241.78,488.03 244.57,488.11 247.36,488.19 250.15,488.26 252.95,488.33 255.74,488.40 258.53,488.47 261.33,488.54 264.12,488.61 266.91,488.67 269.70,488.73 272.50,488.79 275.29,488.85 278.08,488.91 280.88,488.96 283.67,489.02 286.46,489.07 289.26,489.12 292.05,489.17 294.84,489.22 297.63,489.27 300.43,489.31 303.22,489.36 306.01,489.41 308.81,489.45 311.60,489.49 314.39,489.53 317.18,489.58 319.98,489.62 322.77,489.66 325.56,489.70 328.36,489.73 331.15,489.77 333.94,489.81 336.73,489.84 339.53,489.88 342.32,489.91 345.11,489.95 347.91,489.98 350.70,490.01 353.49,490.04 356.28,490.08 359.08,490.11 361.87,490.14 364.66,490.17 367.46,490.20 370.25,490.22 373.04,490.25 375.83,490.28 378.63,490.31 381.42,490.33 384.21,490.36 387.01,490.39 389.80,490.41 392.59,490.44 395.39,490.46 398.18,490.49 400.97,490.51 403.76,490.54 406.56,490.56 409.35,490.58 412.14,490.60 414.94,490.63 417.73,490.65 420.52,490.67 423.31,490.69 426.11,490.71 428.90,490.73 431.69,490.75 434.49,490.77 437.28,490.79 440.07,490.81 442.86,490.83 445.66,490.85 448.45,490.87 451.24,490.89 454.04,490.91 456.83,490.93 459.62,490.94 462.41,490.96 465.21,490.98 468.00,491.00 470.79,491.01 473.59,491.03 476.38,491.05 479.17,491.06 481.97,491.08 484.76,491.09 487.55,491.11 490.34,491.13 493.14,491.14 495.93,491.16 498.72,491.17 501.52,491.19 504.31,491.20 507.10,491.22 509.89,491.23 512.69,491.24 515.48,491.26 518.27,491.27 521.07,491.29 523.86,491.30 526.65,491.31 529.44,491.33 532.24,491.34 535.03,491.35 537.82,491.36 540.62,491.38 543.41,491.39 546.20,491.40 548.99,491.41 551.79,491.43 554.58,491.44 557.37,491.45 560.17,491.46 562.96,491.47 565.75,491.48 568.54,491.50 571.34,491.51 574.13,491.52 576.92,491.53 579.72,491.54 582.51,491.55 585.30,491.56 588.10,491.57 590.89,491.58 593.68,491.59 596.47,491.60 599.27,491.61 602.06,491.62 604.85,491.63 607.65,491.64 610.44,491.65 613.23,491.66 616.02,491.67 618.82,491.68 621.61,491.69" style="stroke-width: 1.71;stroke: #7CAE00;stroke-linecap: butt;"/>
<polyline points="65.82,49.58 68.62,49.62 71.41,49.66 74.20,49.70 76.99,49.74 79.79,49.78 82.58,49.83 85.37,49.87 88.17,49.92 90.96,49.96 93.75,50.01 96.55,50.06 99.34,50.11 102.13,50.17 104.92,50.22 107.72,50.28 110.51,50.34 113.30,50.40 116.10,50.46 118.89,50.52 121.68,50.59 124.47,50.66 127.27,50.73 130.06,50.81 132.85,50.89 135.65,50.97 138.44,51.05 141.23,51.14 144.02,51.23 146.82,51.33 149.61,51.43 152.40,51.53 155.20,51.64 157.99,51.75 160.78,51.87 163.57,52.00 166.37,52.13 169.16,52.27 171.95,52.41 174.75,52.56 177.54,52.72 180.33,52.90 183.12,53.08 185.92,53.27 188.71,53.47 191.50,53.69 194.30,53.92 197.09,54.18 199.88,54.46 202.68,54.81 205.47,55.27 208.26,55.99 211.05,57.21 213.85,59.21 216.64,62.18 219.43,66.06 222.23,70.64 225.02,75.75 227.81,81.43 230.60,87.91 233.40,95.35 236.19,103.81 238.98,113.46 241.78,124.62 244.57,137.55 247.36,152.34 250.15,168.87 252.95,186.91 255.74,206.16 258.53,226.28 261.33,246.88 264.12,267.61 266.91,288.10 269.70,308.01 272.50,326.98 275.29,344.72 278.08,361.05 280.88,375.84 283.67,389.08 286.46,400.81 289.26,411.13 292.05,420.16 294.84,428.03 297.63,434.87 300.43,440.81 303.22,445.97 306.01,450.45 308.81,454.35 311.60,457.76 314.39,460.74 317.18,463.35 319.98,465.65 322.77,467.69 325.56,469.49 328.36,471.10 331.15,472.53 333.94,473.82 336.73,474.98 339.53,476.03 342.32,476.98 345.11,477.84 347.91,478.63 350.70,479.35 353.49,480.01 356.28,480.62 359.08,481.18 361.87,481.69 364.66,482.17 367.46,482.62 370.25,483.03 373.04,483.42 375.83,483.78 378.63,484.11 381.42,484.43 384.21,484.73 387.01,485.00 389.80,485.27 392.59,485.51 395.39,485.75 398.18,485.97 400.97,486.17 403.76,486.37 406.56,486.56 409.35,486.74 412.14,486.90 414.94,487.07 417.73,487.22 420.52,487.36 423.31,487.50 426.11,487.64 428.90,487.76 431.69,487.88 434.49,488.00 437.28,488.11 440.07,488.22 442.86,488.32 445.66,488.42 448.45,488.51 451.24,488.60 454.04,488.69 456.83,488.78 459.62,488.86 462.41,488.94 465.21,489.01 468.00,489.08 470.79,489.15 473.59,489.22 476.38,489.29 479.17,489.35 481.97,489.41 484.76,489.47 487.55,489.53 490.34,489.58 493.14,489.64 495.93,489.69 498.72,489.74 501.52,489.79 504.31,489.84 507.10,489.88 509.89,489.93 512.69,489.97 515.48,490.01 518.27,490.06 521.07,490.10 523.86,490.14 526.65,490.17 529.44,490.21 532.24,490.25 535.03,490.28 537.82,490.32 540.62,490.35 543.41,490.38 546.20,490.42 548.99,490.45 551.79,490.48 554.58,490.51 557.37,490.54 560.17,490.57 562.96,490.59 565.75,490.62 568.54,490.65 571.34,490.67 574.13,490.70 576.92,490.73 579.72,490.75 582.51,490.77 585.30,490.80 588.10,490.82 590.89,490.84 593.68,490.87 596.47,490.89 599.27,490.91 602.06,490.93 604.85,490.95 607.65,490.97 610.44,490.99 613.23,491.01 616.02,491.03 618.82,491.05 621.61,491.07" style="stroke-width: 1.71;stroke: #00BFC4;stroke-linecap: butt;"/>
<polyline points="65.82,54.08 68.62,54.32 71.41,54.59 74.20,54.90 76.99,55.23 79.79,55.61 82.58,56.04 85.37,56.51 88.17,57.03 90.96,57.62 93.75,58.28 96.55,59.01 99.34,59.82 102.13,60.73 104.92,61.74 107.72,62.86 110.51,64.11 113.30,65.50 116.10,67.05 118.89,68.77 121.68,70.67 124.47,72.78 127.27,75.11 130.06,77.69 132.85,80.54 135.65,83.68 138.44,87.14 141.23,90.94 144.02,95.10 146.82,99.66 149.61,104.64 152.40,110.07 155.20,115.95 157.99,122.33 160.78,129.21 163.57,136.62 166.37,144.55 169.16,153.02 171.95,162.01 174.75,171.53 177.54,181.55 180.33,192.04 183.12,202.97 185.92,214.29 188.71,225.96 191.50,237.90 194.30,250.05 197.09,262.35 199.88,274.71 202.68,287.06 205.47,299.31 208.26,311.40 211.05,323.26 213.85,334.81 216.64,346.00 219.43,356.79 222.23,367.12 225.02,376.97 227.81,386.30 230.60,395.12 233.40,403.40 236.19,411.15 238.98,418.37 241.78,425.08 244.57,431.28 247.36,437.01 250.15,442.28 252.95,447.11 255.74,451.53 258.53,455.56 261.33,459.24 264.12,462.59 266.91,465.63 269.70,468.38 272.50,470.87 275.29,473.12 278.08,475.16 280.88,477.00 283.67,478.65 286.46,480.14 289.26,481.48 292.05,482.69 294.84,483.77 297.63,484.74 300.43,485.62 303.22,486.40 306.01,487.10 308.81,487.74 311.60,488.30 314.39,488.81 317.18,489.26 319.98,489.67 322.77,490.03 325.56,490.36 328.36,490.65 331.15,490.91 333.94,491.14 336.73,491.35 339.53,491.54 342.32,491.71 345.11,491.86 347.91,491.99 350.70,492.11 353.49,492.22 356.28,492.32 359.08,492.40 361.87,492.48 364.66,492.55 367.46,492.61 370.25,492.66 373.04,492.71 375.83,492.76 378.63,492.79 381.42,492.83 384.21,492.86 387.01,492.89 389.80,492.91 392.59,492.94 395.39,492.96 398.18,492.97 400.97,492.99 403.76,493.00 406.56,493.02 409.35,493.03 412.14,493.04 414.94,493.05 417.73,493.06 420.52,493.06 423.31,493.07 426.11,493.08 428.90,493.08 431.69,493.09 434.49,493.09 437.28,493.09 440.07,493.10 442.86,493.10 445.66,493.10 448.45,493.11 451.24,493.11 454.04,493.11 456.83,493.11 459.62,493.11 462.41,493.11 465.21,493.11 468.00,493.12 470.79,493.12 473.59,493.12 476.38,493.12 479.17,493.12 481.97,493.12 484.76,493.12 487.55,493.12 490.34,493.12 493.14,493.12 495.93,493.12 498.72,493.12 501.52,493.12 504.31,493.12 507.10,493.12 509.89,493.12 512.69,493.12 515.48,493.12 518.27,493.12 521.07,493.12 523.86,493.12 526.65,493.12 529.44,493.12 532.24,493.12 535.03,493.12 537.82,493.12 540.62,493.12 543.41,493.12 546.20,493.12 548.99,493.12 551.79,493.12 554.58,493.12 557.37,493.12 560.17,493.13 562.96,493.13 565.75,493.13 568.54,493.13 571.34,493.13 574.13,493.13 576.92,493.13 579.72,493.13 582.51,493.13 585.30,493.13 588.10,493.13 590.89,493.13 593.68,493.13 596.47,493.13 599.27,493.13 602.06,493.13 604.85,493.13 607.65,493.13 610.44,493.13 613.23,493.13 616.02,493.13 618.82,493.13 621.61,493.13" style="stroke-width: 1.71;stroke: #C77CFF;stroke-linecap: butt;"/>
</g><g clip-path="url(#c2)">
<g><text x="33.10" y="496.28" text-anchor="end" style="font-family: Arial;font-size: 8.80px;fill: #4D4D4D;" textLength="4.90px" lengthAdjust="spacingAndGlyphs">0</text></g>
<g><text x="33.10" y="384.38" text-anchor="end" style="font-family: Arial;font-size: 8.80px;fill: #4D4D4D;" textLength="9.79px" lengthAdjust="spacingAndGlyphs">25</text></g>
<g><text x="33.10" y="272.49" text-anchor="end" style="font-family: Arial;font-size: 8.80px;fill: #4D4D4D;" textLength="9.79px" lengthAdjust="spacingAndGlyphs">50</text></g>
<g><text x="33.10" y="160.60" text-anchor="end" style="font-family: Arial;font-size: 8.80px;fill: #4D4D4D;" textLength="9.79px" lengthAdjust="spacingAndGlyphs">75</text></g>
<g><text x="33.10" y="48.71" text-anchor="end" style="font-family: Arial;font-size: 8.80px;fill: #4D4D4D;" textLength="14.69px" lengthAdjust="spacingAndGlyphs">100</text></g>
<g><text x="95.81" y="526.74" text-anchor="middle" style="font-family: Arial;font-size: 8.80px;fill: #4D4D4D;" textLength="4.90px" lengthAdjust="spacingAndGlyphs">1</text></g>
<g><text x="243.47" y="526.74" text-anchor="middle" style="font-family: Arial;font-size: 8.80px;fill: #4D4D4D;" textLength="4.90px" lengthAdjust="spacingAndGlyphs">3</text></g>
<g><text x="405.29" y="526.74" text-anchor="middle" style="font-family: Arial;font-size: 8.80px;fill: #4D4D4D;" textLength="9.79px" lengthAdjust="spacingAndGlyphs">10</text></g>
<g><text x="552.95" y="526.74" text-anchor="middle" style="font-family: Arial;font-size: 8.80px;fill: #4D4D4D;" textLength="9.79px" lengthAdjust="spacingAndGlyphs">30</text></g>
<g><text x="343.72" y="539.20" text-anchor="middle" style="font-family: Arial;font-size: 11.00px;" textLength="44.65px" lengthAdjust="spacingAndGlyphs">Dose [%]</text></g>
<g><text transform="translate(13.36,269.34) rotate(-90.00)" text-anchor="middle" style="font-family: Arial;font-size: 11.00px;" textLength="57.87px" lengthAdjust="spacingAndGlyphs">Viability (%)</text></g>
<g><text x="665.84" y="235.98" style="font-family: Arial;font-size: 11.00px;" textLength="53.83px" lengthAdjust="spacingAndGlyphs">Compound</text></g>
<circle cx="674.48" cy="251.26" r="2.06" style="stroke-width: 0.71;stroke: #F8766D;stroke-opacity: 0.70;fill: #F8766D;fill-opacity: 0.70;"/>
<line x1="667.57" y1="251.26" x2="681.39" y2="251.26" style="stroke-width: 1.71;stroke: #F8766D;stroke-linecap: butt;"/>
<circle cx="674.48" cy="268.54" r="2.06" style="stroke-width: 0.71;stroke: #7CAE00;stroke-opacity: 0.70;fill: #7CAE00;fill-opacity: 0.70;"/>
<line x1="667.57" y1="268.54" x2="681.39" y2="268.54" style="stroke-width: 1.71;stroke: #7CAE00;stroke-linecap: butt;"/>
<circle cx="674.48" cy="285.82" r="2.06" style="stroke-width: 0.71;stroke: #00BFC4;stroke-opacity: 0.70;fill: #00BFC4;fill-opacity: 0.70;"/>
<line x1="667.57" y1="285.82" x2="681.39" y2="285.82" style="stroke-width: 1.71;stroke: #00BFC4;stroke-linecap: butt;"/>
<circle cx="674.48" cy="303.10" r="2.06" style="stroke-width: 0.71;stroke: #C77CFF;stroke-opacity: 0.70;fill: #C77CFF;fill-opacity: 0.70;"/>
<line x1="667.57" y1="303.10" x2="681.39" y2="303.10" style="stroke-width: 1.71;stroke: #C77CFF;stroke-linecap: butt;"/>
<g><text x="688.60" y="254.41" style="font-family: Arial;font-size: 8.80px;" textLength="37.16px" lengthAdjust="spacingAndGlyphs">CSE (A1)</text></g>
<g><text x="688.60" y="271.69" style="font-family: Arial;font-size: 8.80px;" textLength="69.44px" lengthAdjust="spacingAndGlyphs">CSE_Erastin (A4)</text></g>
<g><text x="688.60" y="288.97" style="font-family: Arial;font-size: 8.80px;" textLength="60.62px" lengthAdjust="spacingAndGlyphs">CSE_NAC (A3)</text></g>
<g><text x="688.60" y="306.25" style="font-family: Arial;font-size: 8.80px;" textLength="59.64px" lengthAdjust="spacingAndGlyphs">CSE_SFN (A2)</text></g>
<g><text x="38.03" y="14.93" style="font-family: Arial;font-size: 13.20px;" textLength="400.36px" lengthAdjust="spacingAndGlyphs">Patient ASC399  doseresponse across compounds (ASC399cse)</text></g>
</g>
</svg>