<svg xmlns="http://www.w3.org/2000/svg" xmlns:xlink="http://www.w3.org/1999/xlink" class="httpgd" width="769.00" height="547.00" viewBox="0 0 769.00 547.00">
<defs>
  <style type='text/css'><![CDATA[
    .httpgd line, .httpgd polyline, .httpgd polygon, .httpgd path, .httpgd rect, .httpgd circle {
      fill: none;
      stroke: #000000;
      stroke-linecap: round;
      stroke-linejoin: round;
      stroke-miterlimit: 10.00;
    }
  ]]></style>
<clipPath id="c0"><rect x="0.00" y="0.00" width="769.00" height="547.00"/></clipPath>
<clipPath id="c1"><rect x="38.03" y="23.18" width="611.37" height="492.33"/></clipPath>
<clipPath id="c2"><rect x="0.00" y="0.00" width="769.00" height="547.00"/></clipPath>
</defs>
<rect width="100%" height="100%" style="stroke: none;fill: #FFFFFF;"/>
<g clip-path="url(#c0)">
</g><g clip-path="url(#c1)">
<polyline points="38.03,493.13 649.40,493.13" style="stroke-width: 1.07;stroke: #EBEBEB;stroke-linecap: butt;"/>
<polyline points="38.03,381.23 649.40,381.23" style="stroke-width: 1.07;stroke: #EBEBEB;stroke-linecap: butt;"/>
<polyline points="38.03,269.34 649.40,269.34" style="stroke-width: 1.07;stroke: #EBEBEB;stroke-linecap: butt;"/>
<polyline points="38.03,157.45 649.40,157.45" style="stroke-width: 1.07;stroke: #EBEBEB;stroke-linecap: butt;"/>
<polyline points="38.03,45.56 649.40,45.56" style="stroke-width: 1.07;stroke: #EBEBEB;stroke-linecap: butt;"/>
<polyline points="95.81,515.50 95.81,23.18" style="stroke-width: 1.07;stroke: #EBEBEB;stroke-linecap: butt;"/>
<polyline points="243.47,515.50 243.47,23.18" style="stroke-width: 1.07;stroke: #EBEBEB;stroke-linecap: butt;"/>
<polyline points="405.29,515.50 405.29,23.18" style="stroke-width: 1.07;stroke: #EBEBEB;stroke-linecap: butt;"/>
<polyline points="552.95,515.50 552.95,23.18" style="stroke-width: 1.07;stroke: #EBEBEB;stroke-linecap: butt;"/>
<polygon points="65.82,45.56 68.62,45.56 71.41,45.56 74.20,45.56 76.99,45.56 79.79,45.57 82.58,45.57 85.37,45.57 88.17,45.58 90.96,45.59 93.75,45.61 96.55,45.62 99.34,45.65 102.13,45.69 104.92,45.73 107.72,45.80 110.51,45.90 113.30,46.02 116.10,46.20 118.89,46.45 121.68,46.79 124.47,47.25 127.27,47.89 130.06,48.77 132.85,49.98 135.65,51.63 138.44,53.90 141.23,56.98 144.02,61.18 146.82,66.83 149.61,74.36 152.40,84.35 155.20,97.38 157.99,113.77 160.78,132.85 163.57,154.42 166.37,179.12 169.16,206.76 171.95,236.64 174.75,267.81 177.54,298.95 180.33,328.97 183.12,356.87 185.92,381.88 188.71,403.61 191.50,422.01 194.30,437.21 197.09,449.53 199.88,459.37 202.68,467.14 205.47,473.20 208.26,477.90 211.05,481.52 213.85,484.30 216.64,486.42 219.43,488.04 222.23,489.27 225.02,490.21 227.81,490.92 230.60,491.45 233.40,491.86 236.19,492.17 238.98,492.40 241.78,492.58 244.57,492.71 247.36,492.81 250.15,492.89 252.95,492.95 255.74,492.99 258.53,493.02 261.33,493.05 264.12,493.07 266.91,493.08 269.70,493.09 272.50,493.10 275.29,493.11 278.08,493.11 280.88,493.11 283.67,493.12 286.46,493.12 289.26,493.12 292.05,493.12 294.84,493.12 297.63,493.12 300.43,493.12 303.22,493.12 306.01,493.12 308.81,493.12 311.60,493.12 314.39,493.12 317.18,493.12 319.98,493.13 322.77,493.13 325.56,493.13 328.36,493.13 331.15,493.13 333.94,493.13 336.73,493.13 339.53,493.13 342.32,493.13 345.11,493.13 347.91,493.13 350.70,493.13 353.49,493.13 356.28,493.13 359.08,493.13 361.87,493.13 364.66,493.13 367.46,493.13 370.25,493.13 373.04,493.13 375.83,493.13 378.63,493.13 381.42,493.13 384.21,493.13 387.01,493.13 389.80,493.13 392.59,493.13 395.39,493.13 398.18,493.13 400.97,493.13 403.76,493.13 406.56,493.13 409.35,493.13 412.14,493.13 414.94,493.13 417.73,493.13 420.52,493.13 423.31,493.13 426.11,493.13 428.90,493.13 431.69,493.13 434.49,493.13 437.28,493.13 440.07,493.13 442.86,493.13 445.66,493.13 448.45,493.13 451.24,493.13 454.04,493.13 456.83,493.13 459.62,493.13 462.41,493.13 465.21,493.13 468.00,493.13 470.79,493.13 473.59,493.13 476.38,493.13 479.17,493.13 481.97,493.13 484.76,493.13 487.55,493.13 490.34,493.13 493.14,493.13 495.93,493.13 498.72,493.13 501.52,493.13 504.31,493.13 507.10,493.13 509.89,493.13 512.69,493.13 515.48,493.13 518.27,493.13 521.07,493.13 523.86,493.13 526.65,493.13 529.44,493.13 532.24,493.13 535.03,493.13 537.82,493.13 540.62,493.13 543.41,493.13 546.20,493.13 548.99,493.13 551.79,493.13 554.58,493.13 557.37,493.13 560.17,493.13 562.96,493.13 565.75,493.13 568.54,493.13 571.34,493.13 574.13,493.13 576.92,493.13 579.72,493.13 582.51,493.13 585.30,493.13 588.10,493.13 590.89,493.13 593.68,493.13 596.47,493.13 599.27,493.13 602.06,493.13 604.85,493.13 607.65,493.13 610.44,493.13 613.23,493.13 616.02,493.13 618.82,493.13 621.61,493.13 621.61,493.13 618.82,493.13 616.02,493.13 613.23,493.13 610.44,493.13 607.65,493.13 604.85,493.13 602.06,493.13 599.27,493.13 596.47,493.13 593.68,493.13 590.89,493.13 588.10,493.13 585.30,493.13 582.51,493.13 579.72,493.13 576.92,493.13 574.13,493.13 571.34,493.13 568.54,493.13 565.75,493.13 562.96,493.13 560.17,493.13 557.37,493.13 554.58,493.13 551.79,493.13 548.99,493.13 546.20,493.13 543.41,493.13 540.62,493.13 537.82,493.13 535.03,493.13 532.24,493.13 529.44,493.13 526.65,493.13 523.86,493.13 521.07,493.13 518.27,493.13 515.48,493.13 512.69,493.13 509.89,493.13 507.10,493.13 504.31,493.13 501.52,493.13 498.72,493.13 495.93,493.13 493.14,493.13 490.34,493.13 487.55,493.13 484.76,493.13 481.97,493.13 479.17,493.13 476.38,493.13 473.59,493.13 470.79,493.13 468.00,493.13 465.21,493.13 462.41,493.13 459.62,493.13 456.83,493.13 454.04,493.13 451.24,493.13 448.45,493.13 445.66,493.13 442.86,493.13 440.07,493.13 437.28,493.13 434.49,493.13 431.69,493.13 428.90,493.13 426.11,493.13 423.31,493.13 420.52,493.13 417.73,493.13 414.94,493.13 412.14,493.13 409.35,493.13 406.56,493.13 403.76,493.13 400.97,493.13 398.18,493.13 395.39,493.13 392.59,493.13 389.80,493.13 387.01,493.13 384.21,493.13 381.42,493.13 378.63,493.13 375.83,493.13 373.04,493.13 370.25,493.13 367.46,493.13 364.66,493.13 361.87,493.13 359.08,493.13 356.28,493.13 353.49,493.13 350.70,493.13 347.91,493.13 345.11,493.13 342.32,493.13 339.53,493.13 336.73,493.13 333.94,493.13 331.15,493.13 328.36,493.13 325.56,493.13 322.77,493.13 319.98,493.13 317.18,493.13 314.39,493.13 311.60,493.13 308.81,493.13 306.01,493.13 303.22,493.13 300.43,493.13 297.63,493.12 294.84,493.12 292.05,493.12 289.26,493.12 286.46,493.12 283.67,493.12 280.88,493.12 278.08,493.12 275.29,493.12 272.50,493.12 269.70,493.12 266.91,493.12 264.12,493.11 261.33,493.11 258.53,493.10 255.74,493.09 252.95,493.08 250.15,493.07 247.36,493.04 244.57,493.01 241.78,492.97 238.98,492.91 236.19,492.82 233.40,492.71 230.60,492.55 227.81,492.34 225.02,492.04 222.23,491.63 219.43,491.06 216.64,490.28 213.85,489.20 211.05,487.73 208.26,485.72 205.47,482.97 202.68,479.23 199.88,474.18 197.09,467.39 194.30,458.37 191.50,446.54 188.71,431.30 185.92,412.08 183.12,388.49 180.33,360.51 177.54,328.67 174.75,294.03 171.95,258.13 169.16,222.75 166.37,189.68 163.57,160.17 160.78,134.93 157.99,114.94 155.20,100.07 152.40,88.01 149.61,78.39 146.82,70.83 144.02,64.92 141.23,60.35 138.44,56.82 135.65,54.12 132.85,52.06 130.06,50.49 127.27,49.29 124.47,48.39 121.68,47.70 118.89,47.18 116.10,46.78 113.30,46.48 110.51,46.26 107.72,46.09 104.92,45.96 102.13,45.86 99.34,45.78 96.55,45.73 93.75,45.69 90.96,45.65 88.17,45.63 85.37,45.61 82.58,45.60 79.79,45.59 76.99,45.58 74.20,45.57 71.41,45.57 68.62,45.57 65.82,45.56" style="stroke-width: 0.00;stroke: none;stroke-linecap: butt;fill: #F8766D;fill-opacity: 0.15;" />
<polyline points="65.82,45.56 68.62,45.56 71.41,45.56 74.20,45.56 76.99,45.56 79.79,45.57 82.58,45.57 85.37,45.57 88.17,45.58 90.96,45.59 93.75,45.61 96.55,45.62 99.34,45.65 102.13,45.69 104.92,45.73 107.72,45.80 110.51,45.90 113.30,46.02 116.10,46.20 118.89,46.45 121.68,46.79 124.47,47.25 127.27,47.89 130.06,48.77 132.85,49.98 135.65,51.63 138.44,53.90 141.23,56.98 144.02,61.18 146.82,66.83 149.61,74.36 152.40,84.35 155.20,97.38 157.99,113.77 160.78,132.85 163.57,154.42 166.37,179.12 169.16,206.76 171.95,236.64 174.75,267.81 177.54,298.95 180.33,328.97 183.12,356.87 185.92,381.88 188.71,403.61 191.50,422.01 194.30,437.21 197.09,449.53 199.88,459.37 202.68,467.14 205.47,473.20 208.26,477.90 211.05,481.52 213.85,484.30 216.64,486.42 219.43,488.04 222.23,489.27 225.02,490.21 227.81,490.92 230.60,491.45 233.40,491.86 236.19,492.17 238.98,492.40 241.78,492.58 244.57,492.71 247.36,492.81 250.15,492.89 252.95,492.95 255.74,492.99 258.53,493.02 261.33,493.05 264.12,493.07 266.91,493.08 269.70,493.09 272.50,493.10 275.29,493.11 278.08,493.11 280.88,493.11 283.67,493.12 286.46,493.12 289.26,493.12 292.05,493.12 294.84,493.12 297.63,493.12 300.43,493.12 303.22,493.12 306.01,493.12 308.81,493.12 311.60,493.12 314.39,493.12 317.18,493.12 319.98,493.13 322.77,493.13 325.56,493.13 328.36,493.13 331.15,493.13 333.94,493.13 336.73,493.13 339.53,493.13 342.32,493.13 345.11,493.13 347.91,493.13 350.70,493.13 353.49,493.13 356.28,493.13 359.08,493.13 361.87,493.13 364.66,493.13 367.46,493.13 370.25,493.13 373.04,493.13 375.83,493.13 378.63,493.13 381.42,493.13 384.21,493.13 387.01,493.13 389.80,493.13 392.59,493.13 395.39,493.13 398.18,493.13 400.97,493.13 403.76,493.13 406.56,493.13 409.35,493.13 412.14,493.13 414.94,493.13 417.73,493.13 420.52,493.13 423.31,493.13 426.11,493.13 428.90,493.13 431.69,493.13 434.49,493.13 437.28,493.13 440.07,493.13 442.86,493.13 445.66,493.13 448.45,493.13 451.24,493.13 454.04,493.13 456.83,493.13 459.62,493.13 462.41,493.13 465.21,493.13 468.00,493.13 470.79,493.13 473.59,493.13 476.38,493.13 479.17,493.13 481.97,493.13 484.76,493.13 487.55,493.13 490.34,493.13 493.14,493.13 495.93,493.13 498.72,493.13 501.52,493.13 504.31,493.13 507.10,493.13 509.89,493.13 512.69,493.13 515.48,493.13 518.27,493.13 521.07,493.13 523.86,493.13 526.65,493.13 529.44,493.13 532.24,493.13 535.03,493.13 537.82,493.13 540.62,493.13 543.41,493.13 546.20,493.13 548.99,493.13 551.79,493.13 554.58,493.13 557.37,493.13 560.17,493.13 562.96,493.13 565.75,493.13 568.54,493.13 571.34,493.13 574.13,493.13 576.92,493.13 579.72,493.13 582.51,493.13 585.30,493.13 588.10,493.13 590.89,493.13 593.68,493.13 596.47,493.13 599.27,493.13 602.06,493.13 604.85,493.13 607.65,493.13 610.44,493.13 613.23,493.13 616.02,493.13 618.82,493.13 621.61,493.13" style="stroke-width: 1.07;stroke: none;stroke-linecap: butt;"/>
<polyline points="621.61,493.13 618.82,493.13 616.02,493.13 613.23,493.13 610.44,493.13 607.65,493.13 604.85,493.13 602.06,493.13 599.27,493.13 596.47,493.13 593.68,493.13 590.89,493.13 588.10,493.13 585.30,493.13 582.51,493.13 579.72,493.13 576.92,493.13 574.13,493.13 571.34,493.13 568.54,493.13 565.75,493.13 562.96,493.13 560.17,493.13 557.37,493.13 554.58,493.13 551.79,493.13 548.99,493.13 546.20,493.13 543.41,493.13 540.62,493.13 537.82,493.13 535.03,493.13 532.24,493.13 529.44,493.13 526.65,493.13 523.86,493.13 521.07,493.13 518.27,493.13 515.48,493.13 512.69,493.13 509.89,493.13 507.10,493.13 504.31,493.13 501.52,493.13 498.72,493.13 495.93,493.13 493.14,493.13 490.34,493.13 487.55,493.13 484.76,493.13 481.97,493.13 479.17,493.13 476.38,493.13 473.59,493.13 470.79,493.13 468.00,493.13 465.21,493.13 462.41,493.13 459.62,493.13 456.83,493.13 454.04,493.13 451.24,493.13 448.45,493.13 445.66,493.13 442.86,493.13 440.07,493.13 437.28,493.13 434.49,493.13 431.69,493.13 428.90,493.13 426.11,493.13 423.31,493.13 420.52,493.13 417.73,493.13 414.94,493.13 412.14,493.13 409.35,493.13 406.56,493.13 403.76,493.13 400.97,493.13 398.18,493.13 395.39,493.13 392.59,493.13 389.80,493.13 387.01,493.13 384.21,493.13 381.42,493.13 378.63,493.13 375.83,493.13 373.04,493.13 370.25,493.13 367.46,493.13 364.66,493.13 361.87,493.13 359.08,493.13 356.28,493.13 353.49,493.13 350.70,493.13 347.91,493.13 345.11,493.13 342.32,493.13 339.53,493.13 336.73,493.13 333.94,493.13 331.15,493.13 328.36,493.13 325.56,493.13 322.77,493.13 319.98,493.13 317.18,493.13 314.39,493.13 311.60,493.13 308.81,493.13 306.01,493.13 303.22,493.13 300.43,493.13 297.63,493.12 294.84,493.12 292.05,493.12 289.26,493.12 286.46,493.12 283.67,493.12 280.88,493.12 278.08,493.12 275.29,493.12 272.50,493.12 269.70,493.12 266.91,493.12 264.12,493.11 261.33,493.11 258.53,493.10 255.74,493.09 252.95,493.08 250.15,493.07 247.36,493.04 244.57,493.01 241.78,492.97 238.98,492.91 236.19,492.82 233.40,492.71 230.60,492.55 227.81,492.34 225.02,492.04 222.23,491.63 219.43,491.06 216.64,490.28 213.85,489.20 211.05,487.73 208.26,485.72 205.47,482.97 202.68,479.23 199.88,474.18 197.09,467.39 194.30,458.37 191.50,446.54 188.71,431.30 185.92,412.08 183.12,388.49 180.33,360.51 177.54,328.67 174.75,294.03 171.95,258.13 169.16,222.75 166.37,189.68 163.57,160.17 160.78,134.93 157.99,114.94 155.20,100.07 152.40,88.01 149.61,78.39 146.82,70.83 144.02,64.92 141.23,60.35 138.44,56.82 135.65,54.12 132.85,52.06 130.06,50.49 127.27,49.29 124.47,48.39 121.68,47.70 118.89,47.18 116.10,46.78 113.30,46.48 110.51,46.26 107.72,46.09 104.92,45.96 102.13,45.86 99.34,45.78 96.55,45.73 93.75,45.69 90.96,45.65 88.17,45.63 85.37,45.61 82.58,45.60 79.79,45.59 76.99,45.58 74.20,45.57 71.41,45.57 68.62,45.57 65.82,45.56" style="stroke-width: 1.07;stroke: none;stroke-linecap: butt;"/>
<polygon points="65.82,492.45 68.62,492.45 71.41,492.44 74.20,492.43 76.99,492.43 79.79,492.42 82.58,492.41 85.37,492.41 88.17,492.40 90.96,492.39 93.75,492.39 96.55,492.38 99.34,492.37 102.13,492.37 104.92,492.36 107.72,492.35 110.51,492.34 113.30,492.34 116.10,492.33 118.89,492.32 121.68,492.32 124.47,492.31 127.27,492.30 130.06,492.29 132.85,492.28 135.65,492.28 138.44,492.27 141.23,492.26 144.02,492.25 146.82,492.25 149.61,492.24 152.40,492.23 155.20,492.22 157.99,492.21 160.78,492.20 163.57,492.19 166.37,492.19 169.16,492.18 171.95,492.17 174.75,492.16 177.54,492.15 180.33,492.14 183.12,492.13 185.92,492.12 188.71,492.11 191.50,492.10 194.30,492.10 197.09,492.09 199.88,492.08 202.68,492.07 205.47,492.06 208.26,492.05 211.05,492.04 213.85,492.03 216.64,492.02 219.43,492.01 222.23,492.00 225.02,491.99 227.81,491.97 230.60,491.96 233.40,491.95 236.19,491.94 238.98,491.93 241.78,491.92 244.57,491.91 247.36,491.90 250.15,491.89 252.95,491.87 255.74,491.86 258.53,491.85 261.33,491.84 264.12,491.83 266.91,491.82 269.70,491.80 272.50,491.79 275.29,491.78 278.08,491.77 280.88,491.75 283.67,491.74 286.46,491.73 289.26,491.72 292.05,491.70 294.84,491.69 297.63,491.68 300.43,491.66 303.22,491.65 306.01,491.63 308.81,491.62 311.60,491.61 314.39,491.59 317.18,491.58 319.98,491.56 322.77,491.55 325.56,491.54 328.36,491.52 331.15,491.51 333.94,491.49 336.73,491.48 339.53,491.46 342.32,491.44 345.11,491.43 347.91,491.41 350.70,491.40 353.49,491.38 356.28,491.37 359.08,491.35 361.87,491.33 364.66,491.32 367.46,491.30 370.25,491.28 373.04,491.27 375.83,491.25 378.63,491.23 381.42,491.21 384.21,491.20 387.01,491.18 389.80,491.16 392.59,491.14 395.39,491.12 398.18,491.10 400.97,491.09 403.76,491.07 406.56,491.05 409.35,491.03 412.14,491.01 414.94,490.99 417.73,490.97 420.52,490.95 423.31,490.93 426.11,490.91 428.90,490.89 431.69,490.87 434.49,490.85 437.28,490.83 440.07,490.80 442.86,490.78 445.66,490.76 448.45,490.74 451.24,490.72 454.04,490.70 456.83,490.67 459.62,490.65 462.41,490.63 465.21,490.60 468.00,490.58 470.79,490.56 473.59,490.53 476.38,490.51 479.17,490.48 481.97,490.46 484.76,490.44 487.55,490.41 490.34,490.39 493.14,490.36 495.93,490.33 498.72,490.31 501.52,490.28 504.31,490.26 507.10,490.23 509.89,490.20 512.69,490.18 515.48,490.15 518.27,490.12 521.07,490.09 523.86,490.07 526.65,490.04 529.44,490.01 532.24,489.98 535.03,489.95 537.82,489.92 540.62,489.89 543.41,489.86 546.20,489.83 548.99,489.80 551.79,489.77 554.58,489.74 557.37,489.71 560.17,489.68 562.96,489.64 565.75,489.61 568.54,489.58 571.34,489.55 574.13,489.51 576.92,489.48 579.72,489.45 582.51,489.41 585.30,489.38 588.10,489.34 590.89,489.31 593.68,489.27 596.47,489.24 599.27,489.20 602.06,489.17 604.85,489.13 607.65,489.09 610.44,489.06 613.23,489.02 616.02,488.98 618.82,488.94 621.61,488.90 621.61,488.91 618.82,488.94 616.02,488.98 613.23,489.02 610.44,489.06 607.65,489.09 604.85,489.13 602.06,489.17 599.27,489.20 596.47,489.24 593.68,489.28 590.89,489.31 588.10,489.35 585.30,489.38 582.51,489.41 579.72,489.45 576.92,489.48 574.13,489.52 571.34,489.55 568.54,489.58 565.75,489.61 562.96,489.65 560.17,489.68 557.37,489.71 554.58,489.74 551.79,489.77 548.99,489.80 546.20,489.83 543.41,489.86 540.62,489.89 537.82,489.92 535.03,489.95 532.24,489.98 529.44,490.01 526.65,490.04 523.86,490.07 521.07,490.09 518.27,490.12 515.48,490.15 512.69,490.18 509.89,490.20 507.10,490.23 504.31,490.26 501.52,490.28 498.72,490.31 495.93,490.34 493.14,490.36 490.34,490.39 487.55,490.41 484.76,490.44 481.97,490.46 479.17,490.49 476.38,490.51 473.59,490.53 470.79,490.56 468.00,490.58 465.21,490.60 462.41,490.63 459.62,490.65 456.83,490.67 454.04,490.70 451.24,490.72 448.45,490.74 445.66,490.76 442.86,490.78 440.07,490.80 437.28,490.83 434.49,490.85 431.69,490.87 428.90,490.89 426.11,490.91 423.31,490.93 420.52,490.95 417.73,490.97 414.94,490.99 412.14,491.01 409.35,491.03 406.56,491.05 403.76,491.07 400.97,491.09 398.18,491.10 395.39,491.12 392.59,491.14 389.80,491.16 387.01,491.18 384.21,491.20 381.42,491.21 378.63,491.23 375.83,491.25 373.04,491.27 370.25,491.28 367.46,491.30 364.66,491.32 361.87,491.33 359.08,491.35 356.28,491.37 353.49,491.38 350.70,491.40 347.91,491.41 345.11,491.43 342.32,491.45 339.53,491.46 336.73,491.48 333.94,491.49 331.15,491.51 328.36,491.52 325.56,491.54 322.77,491.55 319.98,491.56 317.18,491.58 314.39,491.59 311.60,491.61 308.81,491.62 306.01,491.64 303.22,491.65 300.43,491.66 297.63,491.68 294.84,491.69 292.05,491.70 289.26,491.72 286.46,491.73 283.67,491.74 280.88,491.75 278.08,491.77 275.29,491.78 272.50,491.79 269.70,491.80 266.91,491.82 264.12,491.83 261.33,491.84 258.53,491.85 255.74,491.86 252.95,491.88 250.15,491.89 247.36,491.90 244.57,491.91 241.78,491.92 238.98,491.93 236.19,491.94 233.40,491.95 230.60,491.96 227.81,491.98 225.02,491.99 222.23,492.00 219.43,492.01 216.64,492.02 213.85,492.03 211.05,492.04 208.26,492.05 205.47,492.06 202.68,492.07 199.88,492.08 197.09,492.09 194.30,492.10 191.50,492.11 188.71,492.11 185.92,492.12 183.12,492.13 180.33,492.14 177.54,492.15 174.75,492.16 171.95,492.17 169.16,492.18 166.37,492.19 163.57,492.20 160.78,492.20 157.99,492.21 155.20,492.22 152.40,492.23 149.61,492.24 146.82,492.25 144.02,492.25 141.23,492.26 138.44,492.27 135.65,492.28 132.85,492.29 130.06,492.29 127.27,492.30 124.47,492.31 121.68,492.32 118.89,492.32 116.10,492.33 113.30,492.34 110.51,492.35 107.72,492.35 104.92,492.36 102.13,492.37 99.34,492.37 96.55,492.38 93.75,492.39 90.96,492.39 88.17,492.40 85.37,492.41 82.58,492.41 79.79,492.42 76.99,492.43 74.20,492.43 71.41,492.44 68.62,492.45 65.82,492.45" style="stroke-width: 0.00;stroke: none;stroke-linecap: butt;fill: #7CAE00;fill-opacity: 0.15;" />
<polyline points="65.82,492.45 68.62,492.45 71.41,492.44 74.20,492.43 76.99,492.43 79.79,492.42 82.58,492.41 85.37,492.41 88.17,492.40 90.96,492.39 93.75,492.39 96.55,492.38 99.34,492.37 102.13,492.37 104.92,492.36 107.72,492.35 110.51,492.34 113.30,492.34 116.10,492.33 118.89,492.32 121.68,492.32 124.47,492.31 127.27,492.30 130.06,492.29 132.85,492.28 135.65,492.28 138.44,492.27 141.23,492.26 144.02,492.25 146.82,492.25 149.61,492.24 152.40,492.23 155.20,492.22 157.99,492.21 160.78,492.20 163.57,492.19 166.37,492.19 169.16,492.18 171.95,492.17 174.75,492.16 177.54,492.15 180.33,492.14 183.12,492.13 185.92,492.12 188.71,492.11 191.50,492.10 194.30,492.10 197.09,492.09 199.88,492.08 202.68,492.07 205.47,492.06 208.26,492.05 211.05,492.04 213.85,492.03 216.64,492.02 219.43,492.01 222.23,492.00 225.02,491.99 227.81,491.97 230.60,491.96 233.40,491.95 236.19,491.94 238.98,491.93 241.78,491.92 244.57,491.91 247.36,491.90 250.15,491.89 252.95,491.87 255.74,491.86 258.53,491.85 261.33,491.84 264.12,491.83 266.91,491.82 269.70,491.80 272.50,491.79 275.29,491.78 278.08,491.77 280.88,491.75 283.67,491.74 286.46,491.73 289.26,491.72 292.05,491.70 294.84,491.69 297.63,491.68 300.43,491.66 303.22,491.65 306.01,491.63 308.81,491.62 311.60,491.61 314.39,491.59 317.18,491.58 319.98,491.56 322.77,491.55 325.56,491.54 328.36,491.52 331.15,491.51 333.94,491.49 336.73,491.48 339.53,491.46 342.32,491.44 345.11,491.43 347.91,491.41 350.70,491.40 353.49,491.38 356.28,491.37 359.08,491.35 361.87,491.33 364.66,491.32 367.46,491.30 370.25,491.28 373.04,491.27 375.83,491.25 378.63,491.23 381.42,491.21 384.21,491.20 387.01,491.18 389.80,491.16 392.59,491.14 395.39,491.12 398.18,491.10 400.97,491.09 403.76,491.07 406.56,491.05 409.35,491.03 412.14,491.01 414.94,490.99 417.73,490.97 420.52,490.95 423.31,490.93 426.11,490.91 428.90,490.89 431.69,490.87 434.49,490.85 437.28,490.83 440.07,490.80 442.86,490.78 445.66,490.76 448.45,490.74 451.24,490.72 454.04,490.70 456.83,490.67 459.62,490.65 462.41,490.63 465.21,490.60 468.00,490.58 470.79,490.56 473.59,490.53 476.38,490.51 479.17,490.48 481.97,490.46 484.76,490.44 487.55,490.41 490.34,490.39 493.14,490.36 495.93,490.33 498.72,490.31 501.52,490.28 504.31,490.26 507.10,490.23 509.89,490.20 512.69,490.18 515.48,490.15 518.27,490.12 521.07,490.09 523.86,490.07 526.65,490.04 529.44,490.01 532.24,489.98 535.03,489.95 537.82,489.92 540.62,489.89 543.41,489.86 546.20,489.83 548.99,489.80 551.79,489.77 554.58,489.74 557.37,489.71 560.17,489.68 562.96,489.64 565.75,489.61 568.54,489.58 571.34,489.55 574.13,489.51 576.92,489.48 579.72,489.45 582.51,489.41 585.30,489.38 588.10,489.34 590.89,489.31 593.68,489.27 596.47,489.24 599.27,489.20 602.06,489.17 604.85,489.13 607.65,489.09 610.44,489.06 613.23,489.02 616.02,488.98 618.82,488.94 621.61,488.90" style="stroke-width: 1.07;stroke: none;stroke-linecap: butt;"/>
<polyline points="621.61,488.91 618.82,488.94 616.02,488.98 613.23,489.02 610.44,489.06 607.65,489.09 604.85,489.13 602.06,489.17 599.27,489.20 596.47,489.24 593.68,489.28 590.89,489.31 588.10,489.35 585.30,489.38 582.51,489.41 579.72,489.45 576.92,489.48 574.13,489.52 571.34,489.55 568.54,489.58 565.75,489.61 562.96,489.65 560.17,489.68 557.37,489.71 554.58,489.74 551.79,489.77 548.99,489.80 546.20,489.83 543.41,489.86 540.62,489.89 537.82,489.92 535.03,489.95 532.24,489.98 529.44,490.01 526.65,490.04 523.86,490.07 521.07,490.09 518.27,490.12 515.48,490.15 512.69,490.18 509.89,490.20 507.10,490.23 504.31,490.26 501.52,490.28 498.72,490.31 495.93,490.34 493.14,490.36 490.34,490.39 487.55,490.41 484.76,490.44 481.97,490.46 479.17,490.49 476.38,490.51 473.59,490.53 470.79,490.56 468.00,490.58 465.21,490.60 462.41,490.63 459.62,490.65 456.83,490.67 454.04,490.70 451.24,490.72 448.45,490.74 445.66,490.76 442.86,490.78 440.07,490.80 437.28,490.83 434.49,490.85 431.69,490.87 428.90,490.89 426.11,490.91 423.31,490.93 420.52,490.95 417.73,490.97 414.94,490.99 412.14,491.01 409.35,491.03 406.56,491.05 403.76,491.07 400.97,491.09 398.18,491.10 395.39,491.12 392.59,491.14 389.80,491.16 387.01,491.18 384.21,491.20 381.42,491.21 378.63,491.23 375.83,491.25 373.04,491.27 370.25,491.28 367.46,491.30 364.66,491.32 361.87,491.33 359.08,491.35 356.28,491.37 353.49,491.38 350.70,491.40 347.91,491.41 345.11,491.43 342.32,491.45 339.53,491.46 336.73,491.48 333.94,491.49 331.15,491.51 328.36,491.52 325.56,491.54 322.77,491.55 319.98,491.56 317.18,491.58 314.39,491.59 311.60,491.61 308.81,491.62 306.01,491.64 303.22,491.65 300.43,491.66 297.63,491.68 294.84,491.69 292.05,491.70 289.26,491.72 286.46,491.73 283.67,491.74 280.88,491.75 278.08,491.77 275.29,491.78 272.50,491.79 269.70,491.80 266.91,491.82 264.12,491.83 261.33,491.84 258.53,491.85 255.74,491.86 252.95,491.88 250.15,491.89 247.36,491.90 244.57,491.91 241.78,491.92 238.98,491.93 236.19,491.94 233.40,491.95 230.60,491.96 227.81,491.98 225.02,491.99 222.23,492.00 219.43,492.01 216.64,492.02 213.85,492.03 211.05,492.04 208.26,492.05 205.47,492.06 202.68,492.07 199.88,492.08 197.09,492.09 194.30,492.10 191.50,492.11 188.71,492.11 185.92,492.12 183.12,492.13 180.33,492.14 177.54,492.15 174.75,492.16 171.95,492.17 169.16,492.18 166.37,492.19 163.57,492.20 160.78,492.20 157.99,492.21 155.20,492.22 152.40,492.23 149.61,492.24 146.82,492.25 144.02,492.25 141.23,492.26 138.44,492.27 135.65,492.28 132.85,492.29 130.06,492.29 127.27,492.30 124.47,492.31 121.68,492.32 118.89,492.32 116.10,492.33 113.30,492.34 110.51,492.35 107.72,492.35 104.92,492.36 102.13,492.37 99.34,492.37 96.55,492.38 93.75,492.39 90.96,492.39 88.17,492.40 85.37,492.41 82.58,492.41 79.79,492.42 76.99,492.43 74.20,492.43 71.41,492.44 68.62,492.45 65.82,492.45" style="stroke-width: 1.07;stroke: none;stroke-linecap: butt;"/>
<polygon points="65.82,46.51 68.62,46.51 71.41,46.51 74.20,46.51 76.99,46.51 79.79,46.51 82.58,46.51 85.37,46.51 88.17,46.51 90.96,46.51 93.75,46.51 96.55,46.51 99.34,46.51 102.13,46.51 104.92,46.51 107.72,46.51 110.51,46.51 113.30,46.53 116.10,46.53 118.89,46.53 121.68,46.54 124.47,46.56 127.27,46.56 130.06,46.64 132.85,46.64 135.65,46.66 138.44,46.66 141.23,46.66 144.02,46.66 146.82,46.70 149.61,46.72 152.40,46.73 155.20,46.78 157.99,46.81 160.78,46.83 163.57,46.85 166.37,46.85 169.16,46.95 171.95,46.96 174.75,46.96 177.54,46.96 180.33,47.02 183.12,47.09 185.92,47.21 188.71,47.39 191.50,47.47 194.30,47.56 197.09,47.76 199.88,47.91 202.68,48.16 205.47,48.66 208.26,49.06 211.05,49.62 213.85,50.46 216.64,51.50 219.43,52.96 222.23,54.72 225.02,57.07 227.81,60.29 230.60,64.16 233.40,69.14 236.19,75.24 238.98,82.64 241.78,91.21 244.57,101.59 247.36,113.49 250.15,126.96 252.95,142.82 255.74,158.57 258.53,175.75 261.33,191.35 264.12,207.45 266.91,222.22 269.70,236.37 272.50,248.53 275.29,258.03 278.08,265.25 280.88,270.53 283.67,274.48 286.46,277.20 289.26,280.35 292.05,283.54 294.84,286.68 297.63,289.89 300.43,293.09 303.22,296.30 306.01,299.43 308.81,302.42 311.60,305.45 314.39,308.47 317.18,311.48 319.98,314.48 322.77,317.46 325.56,320.43 328.36,323.38 331.15,326.31 333.94,329.20 336.73,332.06 339.53,334.91 342.32,337.73 345.11,340.53 347.91,343.30 350.70,346.05 353.49,348.78 356.28,351.48 359.08,354.16 361.87,356.81 364.66,359.43 367.46,362.02 370.25,364.59 373.04,367.12 375.83,369.63 378.63,372.11 381.42,374.55 384.21,376.97 387.01,379.35 389.80,381.71 392.59,384.03 395.39,386.32 398.18,388.57 400.97,390.80 403.76,392.99 406.56,395.14 409.35,397.27 412.14,399.36 414.94,401.42 417.73,403.44 420.52,405.42 423.31,407.37 426.11,409.28 428.90,411.16 431.69,413.01 434.49,414.83 437.28,416.61 440.07,418.37 442.86,420.09 445.66,421.77 448.45,423.40 451.24,425.00 454.04,426.57 456.83,428.11 459.62,429.62 462.41,431.10 465.21,432.56 468.00,433.98 470.79,435.38 473.59,436.74 476.38,438.09 479.17,439.40 481.97,440.68 484.76,441.94 487.55,443.18 490.34,444.38 493.14,445.57 495.93,446.72 498.72,447.85 501.52,448.96 504.31,450.05 507.10,451.11 509.89,452.14 512.69,453.15 515.48,454.15 518.27,455.11 521.07,456.06 523.86,456.99 526.65,457.89 529.44,458.77 532.24,459.64 535.03,460.48 537.82,461.30 540.62,462.11 543.41,462.90 546.20,463.66 548.99,464.41 551.79,465.14 554.58,465.86 557.37,466.56 560.17,467.24 562.96,467.90 565.75,468.55 568.54,469.18 571.34,469.79 574.13,470.40 576.92,470.98 579.72,471.55 582.51,472.11 585.30,472.66 588.10,473.19 590.89,473.71 593.68,474.21 596.47,474.70 599.27,475.18 602.06,475.65 604.85,476.11 607.65,476.55 610.44,476.99 613.23,477.41 616.02,477.82 618.82,478.22 621.61,478.62 621.61,493.13 618.82,493.13 616.02,493.13 613.23,493.13 610.44,493.13 607.65,493.13 604.85,493.13 602.06,493.13 599.27,493.13 596.47,493.13 593.68,493.13 590.89,493.13 588.10,493.13 585.30,493.13 582.51,493.13 579.72,493.13 576.92,493.13 574.13,493.13 571.34,493.13 568.54,493.13 565.75,493.13 562.96,493.13 560.17,493.13 557.37,493.13 554.58,493.13 551.79,493.13 548.99,493.13 546.20,493.13 543.41,493.13 540.62,493.13 537.82,493.13 535.03,493.13 532.24,493.13 529.44,493.13 526.65,493.13 523.86,493.13 521.07,493.13 518.27,493.13 515.48,493.13 512.69,493.13 509.89,493.13 507.10,493.13 504.31,493.13 501.52,493.13 498.72,493.13 495.93,493.13 493.14,493.13 490.34,493.13 487.55,493.13 484.76,493.13 481.97,493.13 479.17,493.13 476.38,493.13 473.59,493.13 470.79,493.13 468.00,493.13 465.21,493.13 462.41,493.13 459.62,493.13 456.83,493.13 454.04,493.13 451.24,493.13 448.45,493.13 445.66,493.13 442.86,493.13 440.07,493.13 437.28,493.13 434.49,493.13 431.69,493.13 428.90,493.13 426.11,493.13 423.31,493.13 420.52,493.13 417.73,493.13 414.94,493.13 412.14,493.13 409.35,493.13 406.56,493.13 403.76,493.13 400.97,493.13 398.18,493.13 395.39,493.13 392.59,493.13 389.80,493.13 387.01,493.13 384.21,493.13 381.42,493.13 378.63,493.13 375.83,493.13 373.04,493.13 370.25,493.13 367.46,493.13 364.66,493.13 361.87,493.13 359.08,493.13 356.28,493.13 353.49,493.13 350.70,493.13 347.91,493.13 345.11,493.13 342.32,493.13 339.53,493.13 336.73,493.13 333.94,493.13 331.15,493.13 328.36,493.13 325.56,493.13 322.77,493.13 319.98,493.13 317.18,493.13 314.39,493.13 311.60,493.13 308.81,493.13 306.01,493.13 303.22,493.13 300.43,493.13 297.63,493.13 294.84,493.13 292.05,493.13 289.26,493.13 286.46,493.13 283.67,493.13 280.88,493.13 278.08,493.13 275.29,493.13 272.50,493.13 269.70,493.13 266.91,493.13 264.12,493.13 261.33,493.13 258.53,493.13 255.74,493.12 252.95,493.12 250.15,493.12 247.36,493.12 244.57,493.12 241.78,493.11 238.98,493.08 236.19,493.02 233.40,492.88 230.60,492.57 227.81,491.85 225.02,490.22 222.23,486.56 219.43,478.62 216.64,461.38 213.85,426.26 211.05,364.69 208.26,279.47 205.47,253.65 202.68,244.30 199.88,228.19 197.09,220.62 194.30,210.94 191.50,200.10 188.71,185.51 185.92,182.59 183.12,179.04 180.33,176.31 177.54,170.65 174.75,168.08 171.95,165.83 169.16,163.60 166.37,161.39 163.57,159.21 160.78,157.05 157.99,154.95 155.20,152.88 152.40,150.84 149.61,148.83 146.82,146.86 144.02,144.91 141.23,143.00 138.44,141.13 135.65,139.28 132.85,137.47 130.06,135.69 127.27,133.94 124.47,132.22 121.68,130.53 118.89,128.88 116.10,127.25 113.30,125.66 110.51,124.10 107.72,122.56 104.92,121.06 102.13,119.58 99.34,118.14 96.55,116.72 93.75,115.34 90.96,113.98 88.17,112.65 85.37,111.37 82.58,110.11 79.79,108.88 76.99,107.67 74.20,106.49 71.41,105.34 68.62,104.21 65.82,103.11" style="stroke-width: 0.00;stroke: none;stroke-linecap: butt;fill: #00BFC4;fill-opacity: 0.15;" />
<polyline points="65.82,46.51 68.62,46.51 71.41,46.51 74.20,46.51 76.99,46.51 79.79,46.51 82.58,46.51 85.37,46.51 88.17,46.51 90.96,46.51 93.75,46.51 96.55,46.51 99.34,46.51 102.13,46.51 104.92,46.51 107.72,46.51 110.51,46.51 113.30,46.53 116.10,46.53 118.89,46.53 121.68,46.54 124.47,46.56 127.27,46.56 130.06,46.64 132.85,46.64 135.65,46.66 138.44,46.66 141.23,46.66 144.02,46.66 146.82,46.70 149.61,46.72 152.40,46.73 155.20,46.78 157.99,46.81 160.78,46.83 163.57,46.85 166.37,46.85 169.16,46.95 171.95,46.96 174.75,46.96 177.54,46.96 180.33,47.02 183.12,47.09 185.92,47.21 188.71,47.39 191.50,47.47 194.30,47.56 197.09,47.76 199.88,47.91 202.68,48.16 205.47,48.66 208.26,49.06 211.05,49.62 213.85,50.46 216.64,51.50 219.43,52.96 222.23,54.72 225.02,57.07 227.81,60.29 230.60,64.16 233.40,69.14 236.19,75.24 238.98,82.64 241.78,91.21 244.57,101.59 247.36,113.49 250.15,126.96 252.95,142.82 255.74,158.57 258.53,175.75 261.33,191.35 264.12,207.45 266.91,222.22 269.70,236.37 272.50,248.53 275.29,258.03 278.08,265.25 280.88,270.53 283.67,274.48 286.46,277.20 289.26,280.35 292.05,283.54 294.84,286.68 297.63,289.89 300.43,293.09 303.22,296.30 306.01,299.43 308.81,302.42 311.60,305.45 314.39,308.47 317.18,311.48 319.98,314.48 322.77,317.46 325.56,320.43 328.36,323.38 331.15,326.31 333.94,329.20 336.73,332.06 339.53,334.91 342.32,337.73 345.11,340.53 347.91,343.30 350.70,346.05 353.49,348.78 356.28,351.48 359.08,354.16 361.87,356.81 364.66,359.43 367.46,362.02 370.25,364.59 373.04,367.12 375.83,369.63 378.63,372.11 381.42,374.55 384.21,376.97 387.01,379.35 389.80,381.71 392.59,384.03 395.39,386.32 398.18,388.57 400.97,390.80 403.76,392.99 406.56,395.14 409.35,397.27 412.14,399.36 414.94,401.42 417.73,403.44 420.52,405.42 423.31,407.37 426.11,409.28 428.90,411.16 431.69,413.01 434.49,414.83 437.28,416.61 440.07,418.37 442.86,420.09 445.66,421.77 448.45,423.40 451.24,425.00 454.04,426.57 456.83,428.11 459.62,429.62 462.41,431.10 465.21,432.56 468.00,433.98 470.79,435.38 473.59,436.74 476.38,438.09 479.17,439.40 481.97,440.68 484.76,441.94 487.55,443.18 490.34,444.38 493.14,445.57 495.93,446.72 498.72,447.85 501.52,448.96 504.31,450.05 507.10,451.11 509.89,452.14 512.69,453.15 515.48,454.15 518.27,455.11 521.07,456.06 523.86,456.99 526.65,457.89 529.44,458.77 532.24,459.64 535.03,460.48 537.82,461.30 540.62,462.11 543.41,462.90 546.20,463.66 548.99,464.41 551.79,465.14 554.58,465.86 557.37,466.56 560.17,467.24 562.96,467.90 565.75,468.55 568.54,469.18 571.34,469.79 574.13,470.40 576.92,470.98 579.72,471.55 582.51,472.11 585.30,472.66 588.10,473.19 590.89,473.71 593.68,474.21 596.47,474.70 599.27,475.18 602.06,475.65 604.85,476.11 607.65,476.55 610.44,476.99 613.23,477.41 616.02,477.82 618.82,478.22 621.61,478.62" style="stroke-width: 1.07;stroke: none;stroke-linecap: butt;"/>
<polyline points="621.61,493.13 618.82,493.13 616.02,493.13 613.23,493.13 610.44,493.13 607.65,493.13 604.85,493.13 602.06,493.13 599.27,493.13 596.47,493.13 593.68,493.13 590.89,493.13 588.10,493.13 585.30,493.13 582.51,493.13 579.72,493.13 576.92,493.13 574.13,493.13 571.34,493.13 568.54,493.13 565.75,493.13 562.96,493.13 560.17,493.13 557.37,493.13 554.58,493.13 551.79,493.13 548.99,493.13 546.20,493.13 543.41,493.13 540.62,493.13 537.82,493.13 535.03,493.13 532.24,493.13 529.44,493.13 526.65,493.13 523.86,493.13 521.07,493.13 518.27,493.13 515.48,493.13 512.69,493.13 509.89,493.13 507.10,493.13 504.31,493.13 501.52,493.13 498.72,493.13 495.93,493.13 493.14,493.13 490.34,493.13 487.55,493.13 484.76,493.13 481.97,493.13 479.17,493.13 476.38,493.13 473.59,493.13 470.79,493.13 468.00,493.13 465.21,493.13 462.41,493.13 459.62,493.13 456.83,493.13 454.04,493.13 451.24,493.13 448.45,493.13 445.66,493.13 442.86,493.13 440.07,493.13 437.28,493.13 434.49,493.13 431.69,493.13 428.90,493.13 426.11,493.13 423.31,493.13 420.52,493.13 417.73,493.13 414.94,493.13 412.14,493.13 409.35,493.13 406.56,493.13 403.76,493.13 400.97,493.13 398.18,493.13 395.39,493.13 392.59,493.13 389.80,493.13 387.01,493.13 384.21,493.13 381.42,493.13 378.63,493.13 375.83,493.13 373.04,493.13 370.25,493.13 367.46,493.13 364.66,493.13 361.87,493.13 359.08,493.13 356.28,493.13 353.49,493.13 350.70,493.13 347.91,493.13 345.11,493.13 342.32,493.13 339.53,493.13 336.73,493.13 333.94,493.13 331.15,493.13 328.36,493.13 325.56,493.13 322.77,493.13 319.98,493.13 317.18,493.13 314.39,493.13 311.60,493.13 308.81,493.13 306.01,493.13 303.22,493.13 300.43,493.13 297.63,493.13 294.84,493.13 292.05,493.13 289.26,493.13 286.46,493.13 283.67,493.13 280.88,493.13 278.08,493.13 275.29,493.13 272.50,493.13 269.70,493.13 266.91,493.13 264.12,493.13 261.33,493.13 258.53,493.13 255.74,493.12 252.95,493.12 250.15,493.12 247.36,493.12 244.57,493.12 241.78,493.11 238.98,493.08 236.19,493.02 233.40,492.88 230.60,492.57 227.81,491.85 225.02,490.22 222.23,486.56 219.43,478.62 216.64,461.38 213.85,426.26 211.05,364.69 208.26,279.47 205.47,253.65 202.68,244.30 199.88,228.19 197.09,220.62 194.30,210.94 191.50,200.10 188.71,185.51 185.92,182.59 183.12,179.04 180.33,176.31 177.54,170.65 174.75,168.08 171.95,165.83 169.16,163.60 166.37,161.39 163.57,159.21 160.78,157.05 157.99,154.95 155.20,152.88 152.40,150.84 149.61,148.83 146.82,146.86 144.02,144.91 141.23,143.00 138.44,141.13 135.65,139.28 132.85,137.47 130.06,135.69 127.27,133.94 124.47,132.22 121.68,130.53 118.89,128.88 116.10,127.25 113.30,125.66 110.51,124.10 107.72,122.56 104.92,121.06 102.13,119.58 99.34,118.14 96.55,116.72 93.75,115.34 90.96,113.98 88.17,112.65 85.37,111.37 82.58,110.11 79.79,108.88 76.99,107.67 74.20,106.49 71.41,105.34 68.62,104.21 65.82,103.11" style="stroke-width: 1.07;stroke: none;stroke-linecap: butt;"/>
<polygon points="65.82,47.05 68.62,47.21 71.41,47.38 74.20,47.56 76.99,47.78 79.79,48.01 82.58,48.27 85.37,48.55 88.17,48.86 90.96,49.20 93.75,49.58 96.55,50.00 99.34,50.46 102.13,50.97 104.92,51.53 107.72,52.15 110.51,52.84 113.30,53.59 116.10,54.41 118.89,55.31 121.68,56.32 124.47,57.41 127.27,58.62 130.06,59.92 132.85,61.37 135.65,62.95 138.44,64.68 141.23,66.58 144.02,68.67 146.82,70.97 149.61,73.47 152.40,76.21 155.20,79.19 157.99,82.43 160.78,85.95 163.57,89.73 166.37,93.79 169.16,98.27 171.95,103.16 174.75,108.22 177.54,113.68 180.33,119.68 183.12,126.13 185.92,132.94 188.71,139.99 191.50,147.61 194.30,155.61 197.09,164.09 199.88,172.97 202.68,182.07 205.47,191.56 208.26,201.23 211.05,211.46 213.85,221.87 216.64,232.41 219.43,243.32 222.23,253.96 225.02,264.61 227.81,275.12 230.60,285.60 233.40,296.18 236.19,306.44 238.98,316.37 241.78,326.05 244.57,335.54 247.36,344.68 250.15,353.46 252.95,361.78 255.74,369.69 258.53,377.18 261.33,384.51 264.12,391.32 266.91,397.84 269.70,404.08 272.50,409.91 275.29,415.36 278.08,420.58 280.88,425.47 283.67,430.11 286.46,434.49 289.26,438.60 292.05,442.49 294.84,446.11 297.63,449.45 300.43,452.62 303.22,455.57 306.01,458.31 308.81,460.85 311.60,463.22 314.39,465.44 317.18,467.52 319.98,469.44 322.77,471.22 325.56,472.86 328.36,474.39 331.15,475.80 333.94,477.13 336.73,478.35 339.53,479.47 342.32,480.51 345.11,481.47 347.91,482.36 350.70,483.18 353.49,483.95 356.28,484.67 359.08,485.32 361.87,485.93 364.66,486.48 367.46,487.00 370.25,487.47 373.04,487.91 375.83,488.32 378.63,488.69 381.42,489.04 384.21,489.36 387.01,489.65 389.80,489.92 392.59,490.17 395.39,490.41 398.18,490.62 400.97,490.81 403.76,490.99 406.56,491.16 409.35,491.32 412.14,491.46 414.94,491.59 417.73,491.71 420.52,491.82 423.31,491.92 426.11,492.02 428.90,492.10 431.69,492.18 434.49,492.26 437.28,492.32 440.07,492.39 442.86,492.44 445.66,492.50 448.45,492.55 451.24,492.59 454.04,492.63 456.83,492.67 459.62,492.71 462.41,492.74 465.21,492.77 468.00,492.80 470.79,492.82 473.59,492.85 476.38,492.87 479.17,492.89 481.97,492.91 484.76,492.93 487.55,492.94 490.34,492.96 493.14,492.97 495.93,492.98 498.72,492.99 501.52,493.00 504.31,493.01 507.10,493.02 509.89,493.03 512.69,493.04 515.48,493.04 518.27,493.05 521.07,493.06 523.86,493.06 526.65,493.07 529.44,493.07 532.24,493.08 535.03,493.08 537.82,493.08 540.62,493.09 543.41,493.09 546.20,493.09 548.99,493.09 551.79,493.10 554.58,493.10 557.37,493.10 560.17,493.10 562.96,493.11 565.75,493.11 568.54,493.11 571.34,493.11 574.13,493.11 576.92,493.11 579.72,493.11 582.51,493.11 585.30,493.11 588.10,493.12 590.89,493.12 593.68,493.12 596.47,493.12 599.27,493.12 602.06,493.12 604.85,493.12 607.65,493.12 610.44,493.12 613.23,493.12 616.02,493.12 618.82,493.12 621.61,493.12 621.61,493.12 618.82,493.12 616.02,493.12 613.23,493.12 610.44,493.12 607.65,493.12 604.85,493.12 602.06,493.12 599.27,493.12 596.47,493.12 593.68,493.12 590.89,493.12 588.10,493.12 585.30,493.12 582.51,493.12 579.72,493.12 576.92,493.12 574.13,493.12 571.34,493.12 568.54,493.12 565.75,493.12 562.96,493.12 560.17,493.12 557.37,493.12 554.58,493.12 551.79,493.12 548.99,493.12 546.20,493.12 543.41,493.12 540.62,493.12 537.82,493.12 535.03,493.12 532.24,493.12 529.44,493.12 526.65,493.12 523.86,493.12 521.07,493.11 518.27,493.11 515.48,493.11 512.69,493.11 509.89,493.11 507.10,493.11 504.31,493.10 501.52,493.10 498.72,493.10 495.93,493.10 493.14,493.09 490.34,493.09 487.55,493.09 484.76,493.08 481.97,493.08 479.17,493.08 476.38,493.07 473.59,493.06 470.79,493.06 468.00,493.05 465.21,493.04 462.41,493.03 459.62,493.03 456.83,493.01 454.04,493.00 451.24,492.99 448.45,492.98 445.66,492.96 442.86,492.94 440.07,492.92 437.28,492.90 434.49,492.88 431.69,492.85 428.90,492.83 426.11,492.79 423.31,492.76 420.52,492.72 417.73,492.68 414.94,492.63 412.14,492.58 409.35,492.52 406.56,492.46 403.76,492.39 400.97,492.32 398.18,492.23 395.39,492.14 392.59,492.03 389.80,491.92 387.01,491.79 384.21,491.65 381.42,491.49 378.63,491.32 375.83,491.14 373.04,490.93 370.25,490.71 367.46,490.46 364.66,490.18 361.87,489.88 359.08,489.54 356.28,489.17 353.49,488.76 350.70,488.32 347.91,487.82 345.11,487.26 342.32,486.65 339.53,485.99 336.73,485.26 333.94,484.45 331.15,483.56 328.36,482.59 325.56,481.52 322.77,480.33 319.98,479.02 317.18,477.59 314.39,476.05 311.60,474.33 308.81,472.46 306.01,470.42 303.22,468.19 300.43,465.75 297.63,463.10 294.84,460.20 292.05,457.03 289.26,453.62 286.46,449.86 283.67,445.77 280.88,441.45 278.08,436.84 275.29,431.76 272.50,426.35 269.70,420.75 266.91,414.60 264.12,408.08 261.33,401.28 258.53,393.99 255.74,386.37 252.95,378.43 250.15,370.26 247.36,361.88 244.57,353.20 241.78,344.20 238.98,335.04 236.19,325.67 233.40,316.33 230.60,306.97 227.81,297.41 225.02,287.87 222.23,278.28 219.43,268.74 216.64,259.12 213.85,249.77 211.05,240.45 208.26,231.15 205.47,222.07 202.68,213.33 199.88,204.58 197.09,196.17 194.30,188.01 191.50,179.95 188.71,172.15 185.92,164.79 183.12,157.69 180.33,150.89 177.54,144.36 174.75,138.13 171.95,132.27 169.16,126.62 166.37,121.29 163.57,116.26 160.78,111.47 157.99,106.96 155.20,102.77 152.40,98.78 149.61,95.08 146.82,91.54 144.02,88.23 141.23,85.14 138.44,82.26 135.65,79.56 132.85,77.10 130.06,74.79 127.27,72.64 124.47,70.65 121.68,68.79 118.89,67.05 116.10,65.43 113.30,63.92 110.51,62.52 107.72,61.23 104.92,60.02 102.13,58.92 99.34,57.89 96.55,56.95 93.75,56.07 90.96,55.26 88.17,54.52 85.37,53.82 82.58,53.19 79.79,52.60 76.99,52.05 74.20,51.55 71.41,51.08 68.62,50.64 65.82,50.24" style="stroke-width: 0.00;stroke: none;stroke-linecap: butt;fill: #C77CFF;fill-opacity: 0.15;" />
<polyline points="65.82,47.05 68.62,47.21 71.41,47.38 74.20,47.56 76.99,47.78 79.79,48.01 82.58,48.27 85.37,48.55 88.17,48.86 90.96,49.20 93.75,49.58 96.55,50.00 99.34,50.46 102.13,50.97 104.92,51.53 107.72,52.15 110.51,52.84 113.30,53.59 116.10,54.41 118.89,55.31 121.68,56.32 124.47,57.41 127.27,58.62 130.06,59.92 132.85,61.37 135.65,62.95 138.44,64.68 141.23,66.58 144.02,68.67 146.82,70.97 149.61,73.47 152.40,76.21 155.20,79.19 157.99,82.43 160.78,85.95 163.57,89.73 166.37,93.79 169.16,98.27 171.95,103.16 174.75,108.22 177.54,113.68 180.33,119.68 183.12,126.13 185.92,132.94 188.71,139.99 191.50,147.61 194.30,155.61 197.09,164.09 199.88,172.97 202.68,182.07 205.47,191.56 208.26,201.23 211.05,211.46 213.85,221.87 216.64,232.41 219.43,243.32 222.23,253.96 225.02,264.61 227.81,275.12 230.60,285.60 233.40,296.18 236.19,306.44 238.98,316.37 241.78,326.05 244.57,335.54 247.36,344.68 250.15,353.46 252.95,361.78 255.74,369.69 258.53,377.18 261.33,384.51 264.12,391.32 266.91,397.84 269.70,404.08 272.50,409.91 275.29,415.36 278.08,420.58 280.88,425.47 283.67,430.11 286.46,434.49 289.26,438.60 292.05,442.49 294.84,446.11 297.63,449.45 300.43,452.62 303.22,455.57 306.01,458.31 308.81,460.85 311.60,463.22 314.39,465.44 317.18,467.52 319.98,469.44 322.77,471.22 325.56,472.86 328.36,474.39 331.15,475.80 333.94,477.13 336.73,478.35 339.53,479.47 342.32,480.51 345.11,481.47 347.91,482.36 350.70,483.18 353.49,483.95 356.28,484.67 359.08,485.32 361.87,485.93 364.66,486.48 367.46,487.00 370.25,487.47 373.04,487.91 375.83,488.32 378.63,488.69 381.42,489.04 384.21,489.36 387.01,489.65 389.80,489.92 392.59,490.17 395.39,490.41 398.18,490.62 400.97,490.81 403.76,490.99 406.56,491.16 409.35,491.32 412.14,491.46 414.94,491.59 417.73,491.71 420.52,491.82 423.31,491.92 426.11,492.02 428.90,492.10 431.69,492.18 434.49,492.26 437.28,492.32 440.07,492.39 442.86,492.44 445.66,492.50 448.45,492.55 451.24,492.59 454.04,492.63 456.83,492.67 459.62,492.71 462.41,492.74 465.21,492.77 468.00,492.80 470.79,492.82 473.59,492.85 476.38,492.87 479.17,492.89 481.97,492.91 484.76,492.93 487.55,492.94 490.34,492.96 493.14,492.97 495.93,492.98 498.72,492.99 501.52,493.00 504.31,493.01 507.10,493.02 509.89,493.03 512.69,493.04 515.48,493.04 518.27,493.05 521.07,493.06 523.86,493.06 526.65,493.07 529.44,493.07 532.24,493.08 535.03,493.08 537.82,493.08 540.62,493.09 543.41,493.09 546.20,493.09 548.99,493.09 551.79,493.10 554.58,493.10 557.37,493.10 560.17,493.10 562.96,493.11 565.75,493.11 568.54,493.11 571.34,493.11 574.13,493.11 576.92,493.11 579.72,493.11 582.51,493.11 585.30,493.11 588.10,493.12 590.89,493.12 593.68,493.12 596.47,493.12 599.27,493.12 602.06,493.12 604.85,493.12 607.65,493.12 610.44,493.12 613.23,493.12 616.02,493.12 618.82,493.12 621.61,493.12" style="stroke-width: 1.07;stroke: none;stroke-linecap: butt;"/>
<polyline points="621.61,493.12 618.82,493.12 616.02,493.12 613.23,493.12 610.44,493.12 607.65,493.12 604.85,493.12 602.06,493.12 599.27,493.12 596.47,493.12 593.68,493.12 590.89,493.12 588.10,493.12 585.30,493.12 582.51,493.12 579.72,493.12 576.92,493.12 574.13,493.12 571.34,493.12 568.54,493.12 565.75,493.12 562.96,493.12 560.17,493.12 557.37,493.12 554.58,493.12 551.79,493.12 548.99,493.12 546.20,493.12 543.41,493.12 540.62,493.12 537.82,493.12 535.03,493.12 532.24,493.12 529.44,493.12 526.65,493.12 523.86,493.12 521.07,493.11 518.27,493.11 515.48,493.11 512.69,493.11 509.89,493.11 507.10,493.11 504.31,493.10 501.52,493.10 498.72,493.10 495.93,493.10 493.14,493.09 490.34,493.09 487.55,493.09 484.76,493.08 481.97,493.08 479.17,493.08 476.38,493.07 473.59,493.06 470.79,493.06 468.00,493.05 465.21,493.04 462.41,493.03 459.62,493.03 456.83,493.01 454.04,493.00 451.24,492.99 448.45,492.98 445.66,492.96 442.86,492.94 440.07,492.92 437.28,492.90 434.49,492.88 431.69,492.85 428.90,492.83 426.11,492.79 423.31,492.76 420.52,492.72 417.73,492.68 414.94,492.63 412.14,492.58 409.35,492.52 406.56,492.46 403.76,492.39 400.97,492.32 398.18,492.23 395.39,492.14 392.59,492.03 389.80,491.92 387.01,491.79 384.21,491.65 381.42,491.49 378.63,491.32 375.83,491.14 373.04,490.93 370.25,490.71 367.46,490.46 364.66,490.18 361.87,489.88 359.08,489.54 356.28,489.17 353.49,488.76 350.70,488.32 347.91,487.82 345.11,487.26 342.32,486.65 339.53,485.99 336.73,485.26 333.94,484.45 331.15,483.56 328.36,482.59 325.56,481.52 322.77,480.33 319.98,479.02 317.18,477.59 314.39,476.05 311.60,474.33 308.81,472.46 306.01,470.42 303.22,468.19 300.43,465.75 297.63,463.10 294.84,460.20 292.05,457.03 289.26,453.62 286.46,449.86 283.67,445.77 280.88,441.45 278.08,436.84 275.29,431.76 272.50,426.35 269.70,420.75 266.91,414.60 264.12,408.08 261.33,401.28 258.53,393.99 255.74,386.37 252.95,378.43 250.15,370.26 247.36,361.88 244.57,353.20 241.78,344.20 238.98,335.04 236.19,325.67 233.40,316.33 230.60,306.97 227.81,297.41 225.02,287.87 222.23,278.28 219.43,268.74 216.64,259.12 213.85,249.77 211.05,240.45 208.26,231.15 205.47,222.07 202.68,213.33 199.88,204.58 197.09,196.17 194.30,188.01 191.50,179.95 188.71,172.15 185.92,164.79 183.12,157.69 180.33,150.89 177.54,144.36 174.75,138.13 171.95,132.27 169.16,126.62 166.37,121.29 163.57,116.26 160.78,111.47 157.99,106.96 155.20,102.77 152.40,98.78 149.61,95.08 146.82,91.54 144.02,88.23 141.23,85.14 138.44,82.26 135.65,79.56 132.85,77.10 130.06,74.79 127.27,72.64 124.47,70.65 121.68,68.79 118.89,67.05 116.10,65.43 113.30,63.92 110.51,62.52 107.72,61.23 104.92,60.02 102.13,58.92 99.34,57.89 96.55,56.95 93.75,56.07 90.96,55.26 88.17,54.52 85.37,53.82 82.58,53.19 79.79,52.60 76.99,52.05 74.20,51.55 71.41,51.08 68.62,50.64 65.82,50.24" style="stroke-width: 1.07;stroke: none;stroke-linecap: butt;"/>
<circle cx="65.82" cy="45.56" r="2.06" style="stroke-width: 0.71;stroke: #F8766D;stroke-opacity: 0.70;fill: #F8766D;fill-opacity: 0.70;"/>
<circle cx="65.82" cy="45.56" r="2.06" style="stroke-width: 0.71;stroke: #F8766D;stroke-opacity: 0.70;fill: #F8766D;fill-opacity: 0.70;"/>
<circle cx="65.82" cy="45.56" r="2.06" style="stroke-width: 0.71;stroke: #F8766D;stroke-opacity: 0.70;fill: #F8766D;fill-opacity: 0.70;"/>
<circle cx="158.99" cy="130.03" r="2.06" style="stroke-width: 0.71;stroke: #F8766D;stroke-opacity: 0.70;fill: #F8766D;fill-opacity: 0.70;"/>
<circle cx="158.99" cy="120.49" r="2.06" style="stroke-width: 0.71;stroke: #F8766D;stroke-opacity: 0.70;fill: #F8766D;fill-opacity: 0.70;"/>
<circle cx="158.99" cy="120.50" r="2.06" style="stroke-width: 0.71;stroke: #F8766D;stroke-opacity: 0.70;fill: #F8766D;fill-opacity: 0.70;"/>
<circle cx="247.88" cy="493.13" r="2.06" style="stroke-width: 0.71;stroke: #F8766D;stroke-opacity: 0.70;fill: #F8766D;fill-opacity: 0.70;"/>
<circle cx="247.88" cy="493.13" r="2.06" style="stroke-width: 0.71;stroke: #F8766D;stroke-opacity: 0.70;fill: #F8766D;fill-opacity: 0.70;"/>
<circle cx="247.88" cy="493.13" r="2.06" style="stroke-width: 0.71;stroke: #F8766D;stroke-opacity: 0.70;fill: #F8766D;fill-opacity: 0.70;"/>
<circle cx="342.12" cy="493.13" r="2.06" style="stroke-width: 0.71;stroke: #F8766D;stroke-opacity: 0.70;fill: #F8766D;fill-opacity: 0.70;"/>
<circle cx="342.12" cy="493.13" r="2.06" style="stroke-width: 0.71;stroke: #F8766D;stroke-opacity: 0.70;fill: #F8766D;fill-opacity: 0.70;"/>
<circle cx="342.12" cy="493.13" r="2.06" style="stroke-width: 0.71;stroke: #F8766D;stroke-opacity: 0.70;fill: #F8766D;fill-opacity: 0.70;"/>
<circle cx="435.29" cy="493.13" r="2.06" style="stroke-width: 0.71;stroke: #F8766D;stroke-opacity: 0.70;fill: #F8766D;fill-opacity: 0.70;"/>
<circle cx="435.29" cy="493.13" r="2.06" style="stroke-width: 0.71;stroke: #F8766D;stroke-opacity: 0.70;fill: #F8766D;fill-opacity: 0.70;"/>
<circle cx="435.29" cy="493.13" r="2.06" style="stroke-width: 0.71;stroke: #F8766D;stroke-opacity: 0.70;fill: #F8766D;fill-opacity: 0.70;"/>
<circle cx="528.45" cy="493.13" r="2.06" style="stroke-width: 0.71;stroke: #F8766D;stroke-opacity: 0.70;fill: #F8766D;fill-opacity: 0.70;"/>
<circle cx="528.45" cy="493.13" r="2.06" style="stroke-width: 0.71;stroke: #F8766D;stroke-opacity: 0.70;fill: #F8766D;fill-opacity: 0.70;"/>
<circle cx="528.45" cy="493.13" r="2.06" style="stroke-width: 0.71;stroke: #F8766D;stroke-opacity: 0.70;fill: #F8766D;fill-opacity: 0.70;"/>
<circle cx="621.61" cy="493.13" r="2.06" style="stroke-width: 0.71;stroke: #F8766D;stroke-opacity: 0.70;fill: #F8766D;fill-opacity: 0.70;"/>
<circle cx="621.61" cy="493.13" r="2.06" style="stroke-width: 0.71;stroke: #F8766D;stroke-opacity: 0.70;fill: #F8766D;fill-opacity: 0.70;"/>
<circle cx="621.61" cy="492.84" r="2.06" style="stroke-width: 0.71;stroke: #F8766D;stroke-opacity: 0.70;fill: #F8766D;fill-opacity: 0.70;"/>
<circle cx="65.82" cy="45.56" r="2.06" style="stroke-width: 0.71;stroke: #C77CFF;stroke-opacity: 0.70;fill: #C77CFF;fill-opacity: 0.70;"/>
<circle cx="65.82" cy="45.56" r="2.06" style="stroke-width: 0.71;stroke: #C77CFF;stroke-opacity: 0.70;fill: #C77CFF;fill-opacity: 0.70;"/>
<circle cx="65.82" cy="45.56" r="2.06" style="stroke-width: 0.71;stroke: #C77CFF;stroke-opacity: 0.70;fill: #C77CFF;fill-opacity: 0.70;"/>
<circle cx="158.99" cy="105.52" r="2.06" style="stroke-width: 0.71;stroke: #C77CFF;stroke-opacity: 0.70;fill: #C77CFF;fill-opacity: 0.70;"/>
<circle cx="158.99" cy="95.32" r="2.06" style="stroke-width: 0.71;stroke: #C77CFF;stroke-opacity: 0.70;fill: #C77CFF;fill-opacity: 0.70;"/>
<circle cx="158.99" cy="45.56" r="2.06" style="stroke-width: 0.71;stroke: #C77CFF;stroke-opacity: 0.70;fill: #C77CFF;fill-opacity: 0.70;"/>
<circle cx="247.88" cy="356.24" r="2.06" style="stroke-width: 0.71;stroke: #C77CFF;stroke-opacity: 0.70;fill: #C77CFF;fill-opacity: 0.70;"/>
<circle cx="247.88" cy="311.26" r="2.06" style="stroke-width: 0.71;stroke: #C77CFF;stroke-opacity: 0.70;fill: #C77CFF;fill-opacity: 0.70;"/>
<circle cx="247.88" cy="392.08" r="2.06" style="stroke-width: 0.71;stroke: #C77CFF;stroke-opacity: 0.70;fill: #C77CFF;fill-opacity: 0.70;"/>
<circle cx="342.12" cy="493.13" r="2.06" style="stroke-width: 0.71;stroke: #C77CFF;stroke-opacity: 0.70;fill: #C77CFF;fill-opacity: 0.70;"/>
<circle cx="342.12" cy="493.13" r="2.06" style="stroke-width: 0.71;stroke: #C77CFF;stroke-opacity: 0.70;fill: #C77CFF;fill-opacity: 0.70;"/>
<circle cx="342.12" cy="493.13" r="2.06" style="stroke-width: 0.71;stroke: #C77CFF;stroke-opacity: 0.70;fill: #C77CFF;fill-opacity: 0.70;"/>
<circle cx="435.29" cy="493.13" r="2.06" style="stroke-width: 0.71;stroke: #C77CFF;stroke-opacity: 0.70;fill: #C77CFF;fill-opacity: 0.70;"/>
<circle cx="435.29" cy="493.13" r="2.06" style="stroke-width: 0.71;stroke: #C77CFF;stroke-opacity: 0.70;fill: #C77CFF;fill-opacity: 0.70;"/>
<circle cx="435.29" cy="493.13" r="2.06" style="stroke-width: 0.71;stroke: #C77CFF;stroke-opacity: 0.70;fill: #C77CFF;fill-opacity: 0.70;"/>
<circle cx="528.45" cy="493.13" r="2.06" style="stroke-width: 0.71;stroke: #C77CFF;stroke-opacity: 0.70;fill: #C77CFF;fill-opacity: 0.70;"/>
<circle cx="528.45" cy="493.13" r="2.06" style="stroke-width: 0.71;stroke: #C77CFF;stroke-opacity: 0.70;fill: #C77CFF;fill-opacity: 0.70;"/>
<circle cx="528.45" cy="493.13" r="2.06" style="stroke-width: 0.71;stroke: #C77CFF;stroke-opacity: 0.70;fill: #C77CFF;fill-opacity: 0.70;"/>
<circle cx="621.61" cy="493.13" r="2.06" style="stroke-width: 0.71;stroke: #C77CFF;stroke-opacity: 0.70;fill: #C77CFF;fill-opacity: 0.70;"/>
<circle cx="621.61" cy="493.13" r="2.06" style="stroke-width: 0.71;stroke: #C77CFF;stroke-opacity: 0.70;fill: #C77CFF;fill-opacity: 0.70;"/>
<circle cx="621.61" cy="492.51" r="2.06" style="stroke-width: 0.71;stroke: #C77CFF;stroke-opacity: 0.70;fill: #C77CFF;fill-opacity: 0.70;"/>
<circle cx="65.82" cy="45.56" r="2.06" style="stroke-width: 0.71;stroke: #00BFC4;stroke-opacity: 0.70;fill: #00BFC4;fill-opacity: 0.70;"/>
<circle cx="65.82" cy="45.56" r="2.06" style="stroke-width: 0.71;stroke: #00BFC4;stroke-opacity: 0.70;fill: #00BFC4;fill-opacity: 0.70;"/>
<circle cx="65.82" cy="45.56" r="2.06" style="stroke-width: 0.71;stroke: #00BFC4;stroke-opacity: 0.70;fill: #00BFC4;fill-opacity: 0.70;"/>
<circle cx="158.99" cy="64.31" r="2.06" style="stroke-width: 0.71;stroke: #00BFC4;stroke-opacity: 0.70;fill: #00BFC4;fill-opacity: 0.70;"/>
<circle cx="158.99" cy="79.21" r="2.06" style="stroke-width: 0.71;stroke: #00BFC4;stroke-opacity: 0.70;fill: #00BFC4;fill-opacity: 0.70;"/>
<circle cx="158.99" cy="59.85" r="2.06" style="stroke-width: 0.71;stroke: #00BFC4;stroke-opacity: 0.70;fill: #00BFC4;fill-opacity: 0.70;"/>
<circle cx="247.88" cy="167.86" r="2.06" style="stroke-width: 0.71;stroke: #00BFC4;stroke-opacity: 0.70;fill: #00BFC4;fill-opacity: 0.70;"/>
<circle cx="247.88" cy="94.17" r="2.06" style="stroke-width: 0.71;stroke: #00BFC4;stroke-opacity: 0.70;fill: #00BFC4;fill-opacity: 0.70;"/>
<circle cx="247.88" cy="107.99" r="2.06" style="stroke-width: 0.71;stroke: #00BFC4;stroke-opacity: 0.70;fill: #00BFC4;fill-opacity: 0.70;"/>
<circle cx="342.12" cy="493.13" r="2.06" style="stroke-width: 0.71;stroke: #00BFC4;stroke-opacity: 0.70;fill: #00BFC4;fill-opacity: 0.70;"/>
<circle cx="342.12" cy="493.13" r="2.06" style="stroke-width: 0.71;stroke: #00BFC4;stroke-opacity: 0.70;fill: #00BFC4;fill-opacity: 0.70;"/>
<circle cx="342.12" cy="493.13" r="2.06" style="stroke-width: 0.71;stroke: #00BFC4;stroke-opacity: 0.70;fill: #00BFC4;fill-opacity: 0.70;"/>
<circle cx="435.29" cy="493.13" r="2.06" style="stroke-width: 0.71;stroke: #00BFC4;stroke-opacity: 0.70;fill: #00BFC4;fill-opacity: 0.70;"/>
<circle cx="435.29" cy="493.13" r="2.06" style="stroke-width: 0.71;stroke: #00BFC4;stroke-opacity: 0.70;fill: #00BFC4;fill-opacity: 0.70;"/>
<circle cx="435.29" cy="493.13" r="2.06" style="stroke-width: 0.71;stroke: #00BFC4;stroke-opacity: 0.70;fill: #00BFC4;fill-opacity: 0.70;"/>
<circle cx="528.45" cy="493.13" r="2.06" style="stroke-width: 0.71;stroke: #00BFC4;stroke-opacity: 0.70;fill: #00BFC4;fill-opacity: 0.70;"/>
<circle cx="528.45" cy="493.13" r="2.06" style="stroke-width: 0.71;stroke: #00BFC4;stroke-opacity: 0.70;fill: #00BFC4;fill-opacity: 0.70;"/>
<circle cx="528.45" cy="493.13" r="2.06" style="stroke-width: 0.71;stroke: #00BFC4;stroke-opacity: 0.70;fill: #00BFC4;fill-opacity: 0.70;"/>
<circle cx="621.61" cy="493.13" r="2.06" style="stroke-width: 0.71;stroke: #00BFC4;stroke-opacity: 0.70;fill: #00BFC4;fill-opacity: 0.70;"/>
<circle cx="621.61" cy="493.13" r="2.06" style="stroke-width: 0.71;stroke: #00BFC4;stroke-opacity: 0.70;fill: #00BFC4;fill-opacity: 0.70;"/>
<circle cx="621.61" cy="492.14" r="2.06" style="stroke-width: 0.71;stroke: #00BFC4;stroke-opacity: 0.70;fill: #00BFC4;fill-opacity: 0.70;"/>
<circle cx="65.82" cy="493.13" r="2.06" style="stroke-width: 0.71;stroke: #7CAE00;stroke-opacity: 0.70;fill: #7CAE00;fill-opacity: 0.70;"/>
<circle cx="65.82" cy="493.13" r="2.06" style="stroke-width: 0.71;stroke: #7CAE00;stroke-opacity: 0.70;fill: #7CAE00;fill-opacity: 0.70;"/>
<circle cx="65.82" cy="493.13" r="2.06" style="stroke-width: 0.71;stroke: #7CAE00;stroke-opacity: 0.70;fill: #7CAE00;fill-opacity: 0.70;"/>
<circle cx="158.99" cy="493.13" r="2.06" style="stroke-width: 0.71;stroke: #7CAE00;stroke-opacity: 0.70;fill: #7CAE00;fill-opacity: 0.70;"/>
<circle cx="158.99" cy="493.13" r="2.06" style="stroke-width: 0.71;stroke: #7CAE00;stroke-opacity: 0.70;fill: #7CAE00;fill-opacity: 0.70;"/>
<circle cx="158.99" cy="493.13" r="2.06" style="stroke-width: 0.71;stroke: #7CAE00;stroke-opacity: 0.70;fill: #7CAE00;fill-opacity: 0.70;"/>
<circle cx="247.88" cy="493.13" r="2.06" style="stroke-width: 0.71;stroke: #7CAE00;stroke-opacity: 0.70;fill: #7CAE00;fill-opacity: 0.70;"/>
<circle cx="247.88" cy="493.13" r="2.06" style="stroke-width: 0.71;stroke: #7CAE00;stroke-opacity: 0.70;fill: #7CAE00;fill-opacity: 0.70;"/>
<circle cx="247.88" cy="493.13" r="2.06" style="stroke-width: 0.71;stroke: #7CAE00;stroke-opacity: 0.70;fill: #7CAE00;fill-opacity: 0.70;"/>
<circle cx="342.12" cy="493.13" r="2.06" style="stroke-width: 0.71;stroke: #7CAE00;stroke-opacity: 0.70;fill: #7CAE00;fill-opacity: 0.70;"/>
<circle cx="342.12" cy="493.13" r="2.06" style="stroke-width: 0.71;stroke: #7CAE00;stroke-opacity: 0.70;fill: #7CAE00;fill-opacity: 0.70;"/>
<circle cx="342.12" cy="493.13" r="2.06" style="stroke-width: 0.71;stroke: #7CAE00;stroke-opacity: 0.70;fill: #7CAE00;fill-opacity: 0.70;"/>
<circle cx="435.29" cy="493.13" r="2.06" style="stroke-width: 0.71;stroke: #7CAE00;stroke-opacity: 0.70;fill: #7CAE00;fill-opacity: 0.70;"/>
<circle cx="435.29" cy="493.13" r="2.06" style="stroke-width: 0.71;stroke: #7CAE00;stroke-opacity: 0.70;fill: #7CAE00;fill-opacity: 0.70;"/>
<circle cx="435.29" cy="493.13" r="2.06" style="stroke-width: 0.71;stroke: #7CAE00;stroke-opacity: 0.70;fill: #7CAE00;fill-opacity: 0.70;"/>
<circle cx="528.45" cy="493.13" r="2.06" style="stroke-width: 0.71;stroke: #7CAE00;stroke-opacity: 0.70;fill: #7CAE00;fill-opacity: 0.70;"/>
<circle cx="528.45" cy="493.13" r="2.06" style="stroke-width: 0.71;stroke: #7CAE00;stroke-opacity: 0.70;fill: #7CAE00;fill-opacity: 0.70;"/>
<circle cx="528.45" cy="493.13" r="2.06" style="stroke-width: 0.71;stroke: #7CAE00;stroke-opacity: 0.70;fill: #7CAE00;fill-opacity: 0.70;"/>
<circle cx="621.61" cy="493.13" r="2.06" style="stroke-width: 0.71;stroke: #7CAE00;stroke-opacity: 0.70;fill: #7CAE00;fill-opacity: 0.70;"/>
<circle cx="621.61" cy="483.38" r="2.06" style="stroke-width: 0.71;stroke: #7CAE00;stroke-opacity: 0.70;fill: #7CAE00;fill-opacity: 0.70;"/>
<circle cx="621.61" cy="493.13" r="2.06" style="stroke-width: 0.71;stroke: #7CAE00;stroke-opacity: 0.70;fill: #7CAE00;fill-opacity: 0.70;"/>
<polyline points="65.82,45.56 68.62,45.56 71.41,45.56 74.20,45.57 76.99,45.57 79.79,45.57 82.58,45.58 85.37,45.59 88.17,45.60 90.96,45.62 93.75,45.64 96.55,45.67 99.34,45.70 102.13,45.76 104.92,45.83 107.72,45.92 110.51,46.05 113.30,46.22 116.10,46.45 118.89,46.76 121.68,47.18 124.47,47.75 127.27,48.51 130.06,49.53 132.85,50.90 135.65,52.75 138.44,55.21 141.23,58.49 144.02,62.85 146.82,68.61 149.61,76.15 152.40,85.92 155.20,98.42 157.99,114.15 160.78,133.52 163.57,156.76 166.37,183.79 169.16,214.08 171.95,246.69 174.75,280.28 177.54,313.36 180.33,344.54 183.12,372.72 185.92,397.25 188.71,417.92 191.50,434.87 194.30,448.45 197.09,459.13 199.88,467.42 202.68,473.78 205.47,478.62 208.26,482.28 211.05,485.03 213.85,487.10 216.64,488.64 219.43,489.79 222.23,490.64 225.02,491.28 227.81,491.76 230.60,492.11 233.40,492.37 236.19,492.56 238.98,492.71 241.78,492.82 244.57,492.90 247.36,492.95 250.15,493.00 252.95,493.03 255.74,493.06 258.53,493.07 261.33,493.09 264.12,493.10 266.91,493.10 269.70,493.11 272.50,493.11 275.29,493.12 278.08,493.12 280.88,493.12 283.67,493.12 286.46,493.12 289.26,493.12 292.05,493.12 294.84,493.12 297.63,493.12 300.43,493.12 303.22,493.12 306.01,493.12 308.81,493.12 311.60,493.13 314.39,493.13 317.18,493.13 319.98,493.13 322.77,493.13 325.56,493.13 328.36,493.13 331.15,493.13 333.94,493.13 336.73,493.13 339.53,493.13 342.32,493.13 345.11,493.13 347.91,493.13 350.70,493.13 353.49,493.13 356.28,493.13 359.08,493.13 361.87,493.13 364.66,493.13 367.46,493.13 370.25,493.13 373.04,493.13 375.83,493.13 378.63,493.13 381.42,493.13 384.21,493.13 387.01,493.13 389.80,493.13 392.59,493.13 395.39,493.13 398.18,493.13 400.97,493.13 403.76,493.13 406.56,493.13 409.35,493.13 412.14,493.13 414.94,493.13 417.73,493.13 420.52,493.13 423.31,493.13 426.11,493.13 428.90,493.13 431.69,493.13 434.49,493.13 437.28,493.13 440.07,493.13 442.86,493.13 445.66,493.13 448.45,493.13 451.24,493.13 454.04,493.13 456.83,493.13 459.62,493.13 462.41,493.13 465.21,493.13 468.00,493.13 470.79,493.13 473.59,493.13 476.38,493.13 479.17,493.13 481.97,493.13 484.76,493.13 487.55,493.13 490.34,493.13 493.14,493.13 495.93,493.13 498.72,493.13 501.52,493.13 504.31,493.13 507.10,493.13 509.89,493.13 512.69,493.13 515.48,493.13 518.27,493.13 521.07,493.13 523.86,493.13 526.65,493.13 529.44,493.13 532.24,493.13 535.03,493.13 537.82,493.13 540.62,493.13 543.41,493.13 546.20,493.13 548.99,493.13 551.79,493.13 554.58,493.13 557.37,493.13 560.17,493.13 562.96,493.13 565.75,493.13 568.54,493.13 571.34,493.13 574.13,493.13 576.92,493.13 579.72,493.13 582.51,493.13 585.30,493.13 588.10,493.13 590.89,493.13 593.68,493.13 596.47,493.13 599.27,493.13 602.06,493.13 604.85,493.13 607.65,493.13 610.44,493.13 613.23,493.13 616.02,493.13 618.82,493.13 621.61,493.13" style="stroke-width: 1.71;stroke: #F8766D;stroke-linecap: butt;"/>
<polyline points="65.82,492.45 68.62,492.45 71.41,492.44 74.20,492.43 76.99,492.43 79.79,492.42 82.58,492.41 85.37,492.41 88.17,492.40 90.96,492.39 93.75,492.39 96.55,492.38 99.34,492.37 102.13,492.37 104.92,492.36 107.72,492.35 110.51,492.35 113.30,492.34 116.10,492.33 118.89,492.32 121.68,492.32 124.47,492.31 127.27,492.30 130.06,492.29 132.85,492.29 135.65,492.28 138.44,492.27 141.23,492.26 144.02,492.25 146.82,492.25 149.61,492.24 152.40,492.23 155.20,492.22 157.99,492.21 160.78,492.20 163.57,492.20 166.37,492.19 169.16,492.18 171.95,492.17 174.75,492.16 177.54,492.15 180.33,492.14 183.12,492.13 185.92,492.12 188.71,492.11 191.50,492.11 194.30,492.10 197.09,492.09 199.88,492.08 202.68,492.07 205.47,492.06 208.26,492.05 211.05,492.04 213.85,492.03 216.64,492.02 219.43,492.01 222.23,492.00 225.02,491.99 227.81,491.97 230.60,491.96 233.40,491.95 236.19,491.94 238.98,491.93 241.78,491.92 244.57,491.91 247.36,491.90 250.15,491.89 252.95,491.87 255.74,491.86 258.53,491.85 261.33,491.84 264.12,491.83 266.91,491.82 269.70,491.80 272.50,491.79 275.29,491.78 278.08,491.77 280.88,491.75 283.67,491.74 286.46,491.73 289.26,491.72 292.05,491.70 294.84,491.69 297.63,491.68 300.43,491.66 303.22,491.65 306.01,491.64 308.81,491.62 311.60,491.61 314.39,491.59 317.18,491.58 319.98,491.56 322.77,491.55 325.56,491.54 328.36,491.52 331.15,491.51 333.94,491.49 336.73,491.48 339.53,491.46 342.32,491.45 345.11,491.43 347.91,491.41 350.70,491.40 353.49,491.38 356.28,491.37 359.08,491.35 361.87,491.33 364.66,491.32 367.46,491.30 370.25,491.28 373.04,491.27 375.83,491.25 378.63,491.23 381.42,491.21 384.21,491.20 387.01,491.18 389.80,491.16 392.59,491.14 395.39,491.12 398.18,491.10 400.97,491.09 403.76,491.07 406.56,491.05 409.35,491.03 412.14,491.01 414.94,490.99 417.73,490.97 420.52,490.95 423.31,490.93 426.11,490.91 428.90,490.89 431.69,490.87 434.49,490.85 437.28,490.83 440.07,490.80 442.86,490.78 445.66,490.76 448.45,490.74 451.24,490.72 454.04,490.70 456.83,490.67 459.62,490.65 462.41,490.63 465.21,490.60 468.00,490.58 470.79,490.56 473.59,490.53 476.38,490.51 479.17,490.48 481.97,490.46 484.76,490.44 487.55,490.41 490.34,490.39 493.14,490.36 495.93,490.33 498.72,490.31 501.52,490.28 504.31,490.26 507.10,490.23 509.89,490.20 512.69,490.18 515.48,490.15 518.27,490.12 521.07,490.09 523.86,490.07 526.65,490.04 529.44,490.01 532.24,489.98 535.03,489.95 537.82,489.92 540.62,489.89 543.41,489.86 546.20,489.83 548.99,489.80 551.79,489.77 554.58,489.74 557.37,489.71 560.17,489.68 562.96,489.65 565.75,489.61 568.54,489.58 571.34,489.55 574.13,489.51 576.92,489.48 579.72,489.45 582.51,489.41 585.30,489.38 588.10,489.35 590.89,489.31 593.68,489.28 596.47,489.24 599.27,489.20 602.06,489.17 604.85,489.13 607.65,489.09 610.44,489.06 613.23,489.02 616.02,488.98 618.82,488.94 621.61,488.90" style="stroke-width: 1.71;stroke: #7CAE00;stroke-linecap: butt;"/>
<polyline points="65.82,60.36 68.62,60.41 71.41,60.47 74.20,60.53 76.99,60.59 79.79,60.65 82.58,60.72 85.37,60.78 88.17,60.85 90.96,60.92 93.75,61.00 96.55,61.07 99.34,61.15 102.13,61.23 104.92,61.32 107.72,61.40 110.51,61.49 113.30,61.59 116.10,61.68 118.89,61.78 121.68,61.89 124.47,61.99 127.27,62.11 130.06,62.22 132.85,62.35 135.65,62.48 138.44,62.61 141.23,62.75 144.02,62.89 146.82,63.05 149.61,63.21 152.40,63.38 155.20,63.55 157.99,63.74 160.78,63.94 163.57,64.15 166.37,64.37 169.16,64.61 171.95,64.88 174.75,65.18 177.54,65.56 180.33,66.05 183.12,66.68 185.92,67.43 188.71,68.38 191.50,69.61 194.30,71.16 197.09,72.99 199.88,75.05 202.68,77.42 205.47,80.20 208.26,83.54 211.05,87.61 213.85,92.53 216.64,98.38 219.43,105.16 222.23,112.95 225.02,121.85 227.81,131.96 230.60,143.34 233.40,156.02 236.19,170.06 238.98,185.44 241.78,202.06 244.57,219.72 247.36,238.17 250.15,257.08 252.95,276.11 255.74,294.88 258.53,313.06 261.33,330.36 264.12,346.57 266.91,361.53 269.70,375.17 272.50,387.48 275.29,398.49 278.08,408.28 280.88,416.93 283.67,424.54 286.46,431.23 289.26,437.10 292.05,442.26 294.84,446.78 297.63,450.76 300.43,454.26 303.22,457.35 306.01,460.09 308.81,462.52 311.60,464.68 314.39,466.61 317.18,468.35 319.98,469.90 322.77,471.30 325.56,472.57 328.36,473.72 331.15,474.77 333.94,475.72 336.73,476.59 339.53,477.39 342.32,478.13 345.11,478.81 347.91,479.44 350.70,480.02 353.49,480.56 356.28,481.06 359.08,481.53 361.87,481.96 364.66,482.37 367.46,482.76 370.25,483.12 373.04,483.46 375.83,483.77 378.63,484.07 381.42,484.36 384.21,484.63 387.01,484.88 389.80,485.12 392.59,485.35 395.39,485.57 398.18,485.78 400.97,485.98 403.76,486.16 406.56,486.34 409.35,486.52 412.14,486.68 414.94,486.84 417.73,486.99 420.52,487.13 423.31,487.27 426.11,487.40 428.90,487.53 431.69,487.65 434.49,487.77 437.28,487.89 440.07,488.00 442.86,488.10 445.66,488.20 448.45,488.30 451.24,488.40 454.04,488.49 456.83,488.58 459.62,488.66 462.41,488.75 465.21,488.83 468.00,488.90 470.79,488.98 473.59,489.05 476.38,489.12 479.17,489.19 481.97,489.26 484.76,489.32 487.55,489.39 490.34,489.45 493.14,489.51 495.93,489.56 498.72,489.62 501.52,489.67 504.31,489.73 507.10,489.78 509.89,489.83 512.69,489.88 515.48,489.93 518.27,489.97 521.07,490.02 523.86,490.06 526.65,490.11 529.44,490.15 532.24,490.19 535.03,490.23 537.82,490.27 540.62,490.31 543.41,490.35 546.20,490.38 548.99,490.42 551.79,490.45 554.58,490.49 557.37,490.52 560.17,490.55 562.96,490.59 565.75,490.62 568.54,490.65 571.34,490.68 574.13,490.71 576.92,490.74 579.72,490.76 582.51,490.79 585.30,490.82 588.10,490.85 590.89,490.87 593.68,490.90 596.47,490.92 599.27,490.95 602.06,490.97 604.85,491.00 607.65,491.02 610.44,491.04 613.23,491.06 616.02,491.09 618.82,491.11 621.61,491.13" style="stroke-width: 1.71;stroke: #00BFC4;stroke-linecap: butt;"/>
<polyline points="65.82,48.34 68.62,48.60 71.41,48.88 74.20,49.19 76.99,49.52 79.79,49.89 82.58,50.29 85.37,50.73 88.17,51.21 90.96,51.74 93.75,52.31 96.55,52.93 99.34,53.61 102.13,54.35 104.92,55.16 107.72,56.04 110.51,57.00 113.30,58.05 116.10,59.19 118.89,60.43 121.68,61.78 124.47,63.24 127.27,64.83 130.06,66.56 132.85,68.44 135.65,70.48 138.44,72.68 141.23,75.07 144.02,77.65 146.82,80.44 149.61,83.45 152.40,86.70 155.20,90.19 157.99,93.95 160.78,97.98 163.57,102.31 166.37,106.93 169.16,111.87 171.95,117.14 174.75,122.74 177.54,128.69 180.33,134.98 183.12,141.63 185.92,148.63 188.71,155.99 191.50,163.69 194.30,171.73 197.09,180.10 199.88,188.78 202.68,197.75 205.47,206.98 208.26,216.46 211.05,226.14 213.85,235.99 216.64,245.99 219.43,256.08 222.23,266.22 225.02,276.38 227.81,286.52 230.60,296.58 233.40,306.53 236.19,316.34 238.98,325.96 241.78,335.36 244.57,344.51 247.36,353.38 250.15,361.96 252.95,370.22 255.74,378.15 258.53,385.74 261.33,392.97 264.12,399.85 266.91,406.37 269.70,412.54 272.50,418.36 275.29,423.84 278.08,428.98 280.88,433.80 283.67,438.31 286.46,442.52 289.26,446.44 292.05,450.10 294.84,453.49 297.63,456.64 300.43,459.56 303.22,462.26 306.01,464.76 308.81,467.07 311.60,469.20 314.39,471.16 317.18,472.97 319.98,474.64 322.77,476.18 325.56,477.59 328.36,478.89 331.15,480.08 333.94,481.17 336.73,482.18 339.53,483.10 342.32,483.95 345.11,484.72 347.91,485.43 350.70,486.09 353.49,486.68 356.28,487.23 359.08,487.73 361.87,488.19 364.66,488.61 367.46,489.00 370.25,489.35 373.04,489.67 375.83,489.96 378.63,490.23 381.42,490.48 384.21,490.71 387.01,490.91 389.80,491.10 392.59,491.28 395.39,491.43 398.18,491.58 400.97,491.71 403.76,491.83 406.56,491.94 409.35,492.04 412.14,492.14 414.94,492.22 417.73,492.30 420.52,492.37 423.31,492.43 426.11,492.49 428.90,492.55 431.69,492.60 434.49,492.64 437.28,492.68 440.07,492.72 442.86,492.75 445.66,492.79 448.45,492.82 451.24,492.84 454.04,492.87 456.83,492.89 459.62,492.91 462.41,492.93 465.21,492.94 468.00,492.96 470.79,492.97 473.59,492.99 476.38,493.00 479.17,493.01 481.97,493.02 484.76,493.03 487.55,493.04 490.34,493.04 493.14,493.05 495.93,493.06 498.72,493.06 501.52,493.07 504.31,493.07 507.10,493.08 509.89,493.08 512.69,493.09 515.48,493.09 518.27,493.09 521.07,493.09 523.86,493.10 526.65,493.10 529.44,493.10 532.24,493.10 535.03,493.11 537.82,493.11 540.62,493.11 543.41,493.11 546.20,493.11 548.99,493.11 551.79,493.11 554.58,493.11 557.37,493.12 560.17,493.12 562.96,493.12 565.75,493.12 568.54,493.12 571.34,493.12 574.13,493.12 576.92,493.12 579.72,493.12 582.51,493.12 585.30,493.12 588.10,493.12 590.89,493.12 593.68,493.12 596.47,493.12 599.27,493.12 602.06,493.12 604.85,493.12 607.65,493.12 610.44,493.12 613.23,493.12 616.02,493.12 618.82,493.12 621.61,493.12" style="stroke-width: 1.71;stroke: #C77CFF;stroke-linecap: butt;"/>
</g><g clip-path="url(#c2)">
<g><text x="33.10" y="496.28" text-anchor="end" style="font-family: Arial;font-size: 8.80px;fill: #4D4D4D;" textLength="4.90px" lengthAdjust="spacingAndGlyphs">0</text></g>
<g><text x="33.10" y="384.38" text-anchor="end" style="font-family: Arial;font-size: 8.80px;fill: #4D4D4D;" textLength="9.79px" lengthAdjust="spacingAndGlyphs">25</text></g>
<g><text x="33.10" y="272.49" text-anchor="end" style="font-family: Arial;font-size: 8.80px;fill: #4D4D4D;" textLength="9.79px" lengthAdjust="spacingAndGlyphs">50</text></g>
<g><text x="33.10" y="160.60" text-anchor="end" style="font-family: Arial;font-size: 8.80px;fill: #4D4D4D;" textLength="9.79px" lengthAdjust="spacingAndGlyphs">75</text></g>
<g><text x="33.10" y="48.71" text-anchor="end" style="font-family: Arial;font-size: 8.80px;fill: #4D4D4D;" textLength="14.69px" lengthAdjust="spacingAndGlyphs">100</text></g>
<g><text x="95.81" y="526.74" text-anchor="middle" style="font-family: Arial;font-size: 8.80px;fill: #4D4D4D;" textLength="4.90px" lengthAdjust="spacingAndGlyphs">1</text></g>
<g><text x="243.47" y="526.74" text-anchor="middle" style="font-family: Arial;font-size: 8.80px;fill: #4D4D4D;" textLength="4.90px" lengthAdjust="spacingAndGlyphs">3</text></g>
<g><text x="405.29" y="526.74" text-anchor="middle" style="font-family: Arial;font-size: 8.80px;fill: #4D4D4D;" textLength="9.79px" lengthAdjust="spacingAndGlyphs">10</text></g>
<g><text x="552.95" y="526.74" text-anchor="middle" style="font-family: Arial;font-size: 8.80px;fill: #4D4D4D;" textLength="9.79px" lengthAdjust="spacingAndGlyphs">30</text></g>
<g><text x="343.72" y="539.20" text-anchor="middle" style="font-family: Arial;font-size: 11.00px;" textLength="44.65px" lengthAdjust="spacingAndGlyphs">Dose [%]</text></g>
<g><text transform="translate(13.36,269.34) rotate(-90.00)" text-anchor="middle" style="font-family: Arial;font-size: 11.00px;" textLength="57.87px" lengthAdjust="spacingAndGlyphs">Viability (%)</text></g>
<g><text x="665.84" y="235.98" style="font-family: Arial;font-size: 11.00px;" textLength="53.83px" lengthAdjust="spacingAndGlyphs">Compound</text></g>
<circle cx="674.48" cy="251.26" r="2.06" style="stroke-width: 0.71;stroke: #F8766D;stroke-opacity: 0.70;fill: #F8766D;fill-opacity: 0.70;"/>
<line x1="667.57" y1="251.26" x2="681.39" y2="251.26" style="stroke-width: 1.71;stroke: #F8766D;stroke-linecap: butt;"/>
<circle cx="674.48" cy="268.54" r="2.06" style="stroke-width: 0.71;stroke: #7CAE00;stroke-opacity: 0.70;fill: #7CAE00;fill-opacity: 0.70;"/>
<line x1="667.57" y1="268.54" x2="681.39" y2="268.54" style="stroke-width: 1.71;stroke: #7CAE00;stroke-linecap: butt;"/>
<circle cx="674.48" cy="285.82" r="2.06" style="stroke-width: 0.71;stroke: #00BFC4;stroke-opacity: 0.70;fill: #00BFC4;fill-opacity: 0.70;"/>
<line x1="667.57" y1="285.82" x2="681.39" y2="285.82" style="stroke-width: 1.71;stroke: #00BFC4;stroke-linecap: butt;"/>
<circle cx="674.48" cy="303.10" r="2.06" style="stroke-width: 0.71;stroke: #C77CFF;stroke-opacity: 0.70;fill: #C77CFF;fill-opacity: 0.70;"/>
<line x1="667.57" y1="303.10" x2="681.39" y2="303.10" style="stroke-width: 1.71;stroke: #C77CFF;stroke-linecap: butt;"/>
<g><text x="688.60" y="254.41" style="font-family: Arial;font-size: 8.80px;" textLength="37.16px" lengthAdjust="spacingAndGlyphs">CSE (A1)</text></g>
<g><text x="688.60" y="271.69" style="font-family: Arial;font-size: 8.80px;" textLength="69.44px" lengthAdjust="spacingAndGlyphs">CSE_Erastin (A4)</text></g>
<g><text x="688.60" y="288.97" style="font-family: Arial;font-size: 8.80px;" textLength="60.62px" lengthAdjust="spacingAndGlyphs">CSE_NAC (A3)</text></g>
<g><text x="688.60" y="306.25" style="font-family: Arial;font-size: 8.80px;" textLength="59.64px" lengthAdjust="spacingAndGlyphs">CSE_SFN (A2)</text></g>
<g><text x="38.03" y="14.93" style="font-family: Arial;font-size: 13.20px;" textLength="379.83px" lengthAdjust="spacingAndGlyphs">Patient ASC399  doseresponse across compounds (ASC399)</text></g>
</g>
</svg>