<svg xmlns="http://www.w3.org/2000/svg" xmlns:xlink="http://www.w3.org/1999/xlink" class="httpgd" width="769.00" height="547.00" viewBox="0 0 769.00 547.00">
<defs>
  <style type='text/css'><![CDATA[
    .httpgd line, .httpgd polyline, .httpgd polygon, .httpgd path, .httpgd rect, .httpgd circle {
      fill: none;
      stroke: #000000;
      stroke-linecap: round;
      stroke-linejoin: round;
      stroke-miterlimit: 10.00;
    }
  ]]></style>
<clipPath id="c0"><rect x="0.00" y="0.00" width="769.00" height="547.00"/></clipPath>
<clipPath id="c1"><rect x="38.03" y="23.18" width="611.37" height="492.33"/></clipPath>
<clipPath id="c2"><rect x="0.00" y="0.00" width="769.00" height="547.00"/></clipPath>
</defs>
<rect width="100%" height="100%" style="stroke: none;fill: #FFFFFF;"/>
<g clip-path="url(#c0)">
</g><g clip-path="url(#c1)">
<polyline points="38.03,493.13 649.40,493.13" style="stroke-width: 1.07;stroke: #EBEBEB;stroke-linecap: butt;"/>
<polyline points="38.03,381.23 649.40,381.23" style="stroke-width: 1.07;stroke: #EBEBEB;stroke-linecap: butt;"/>
<polyline points="38.03,269.34 649.40,269.34" style="stroke-width: 1.07;stroke: #EBEBEB;stroke-linecap: butt;"/>
<polyline points="38.03,157.45 649.40,157.45" style="stroke-width: 1.07;stroke: #EBEBEB;stroke-linecap: butt;"/>
<polyline points="38.03,45.56 649.40,45.56" style="stroke-width: 1.07;stroke: #EBEBEB;stroke-linecap: butt;"/>
<polyline points="95.81,515.50 95.81,23.18" style="stroke-width: 1.07;stroke: #EBEBEB;stroke-linecap: butt;"/>
<polyline points="243.47,515.50 243.47,23.18" style="stroke-width: 1.07;stroke: #EBEBEB;stroke-linecap: butt;"/>
<polyline points="405.29,515.50 405.29,23.18" style="stroke-width: 1.07;stroke: #EBEBEB;stroke-linecap: butt;"/>
<polyline points="552.95,515.50 552.95,23.18" style="stroke-width: 1.07;stroke: #EBEBEB;stroke-linecap: butt;"/>
<polygon points="65.82,48.18 68.62,48.41 71.41,48.66 74.20,48.93 76.99,49.24 79.79,49.58 82.58,49.95 85.37,50.34 88.17,50.76 90.96,51.23 93.75,51.74 96.55,52.29 99.34,52.89 102.13,53.55 104.92,54.27 107.72,55.03 110.51,55.86 113.30,56.76 116.10,57.76 118.89,58.84 121.68,59.99 124.47,61.27 127.27,62.64 130.06,64.09 132.85,65.68 135.65,67.40 138.44,69.23 141.23,71.29 144.02,73.44 146.82,75.76 149.61,78.27 152.40,80.87 155.20,83.83 157.99,86.89 160.78,90.19 163.57,93.67 166.37,97.49 169.16,101.57 171.95,105.90 174.75,110.41 177.54,115.31 180.33,120.40 183.12,125.69 185.92,131.33 188.71,137.54 191.50,143.66 194.30,150.23 197.09,157.09 199.88,164.26 202.68,171.76 205.47,179.50 208.26,187.41 211.05,195.52 213.85,203.66 216.64,211.94 219.43,220.14 222.23,228.52 225.02,237.20 227.81,245.75 230.60,254.42 233.40,263.14 236.19,271.71 238.98,280.28 241.78,288.74 244.57,296.88 247.36,305.12 250.15,313.06 252.95,320.98 255.74,328.69 258.53,336.11 261.33,343.52 264.12,350.44 266.91,357.44 269.70,363.91 272.50,370.41 275.29,376.38 278.08,382.37 280.88,387.89 283.67,393.33 286.46,398.60 289.26,403.64 292.05,408.42 294.84,412.87 297.63,417.26 300.43,421.40 303.22,425.57 306.01,429.28 308.81,432.76 311.60,436.28 314.39,439.61 317.18,442.71 319.98,445.56 322.77,448.30 325.56,450.95 328.36,453.49 331.15,455.75 333.94,458.06 336.73,460.20 339.53,462.13 342.32,463.97 345.11,465.73 347.91,467.38 350.70,468.96 353.49,470.46 356.28,471.89 359.08,473.23 361.87,474.51 364.66,475.67 367.46,476.76 370.25,477.79 373.04,478.75 375.83,479.66 378.63,480.52 381.42,481.33 384.21,482.09 387.01,482.79 389.80,483.45 392.59,484.07 395.39,484.66 398.18,485.21 400.97,485.74 403.76,486.23 406.56,486.67 409.35,487.07 412.14,487.46 414.94,487.82 417.73,488.17 420.52,488.49 423.31,488.79 426.11,489.07 428.90,489.33 431.69,489.57 434.49,489.79 437.28,490.01 440.07,490.21 442.86,490.40 445.66,490.58 448.45,490.74 451.24,490.90 454.04,491.04 456.83,491.18 459.62,491.31 462.41,491.42 465.21,491.53 468.00,491.64 470.79,491.73 473.59,491.82 476.38,491.91 479.17,491.98 481.97,492.06 484.76,492.13 487.55,492.19 490.34,492.25 493.14,492.31 495.93,492.36 498.72,492.41 501.52,492.46 504.31,492.50 507.10,492.54 509.89,492.58 512.69,492.61 515.48,492.65 518.27,492.68 521.07,492.71 523.86,492.73 526.65,492.76 529.44,492.78 532.24,492.80 535.03,492.82 537.82,492.84 540.62,492.86 543.41,492.88 546.20,492.90 548.99,492.91 551.79,492.92 554.58,492.94 557.37,492.95 560.17,492.96 562.96,492.97 565.75,492.98 568.54,492.99 571.34,493.00 574.13,493.01 576.92,493.02 579.72,493.02 582.51,493.03 585.30,493.04 588.10,493.04 590.89,493.05 593.68,493.05 596.47,493.06 599.27,493.06 602.06,493.06 604.85,493.07 607.65,493.07 610.44,493.08 613.23,493.08 616.02,493.08 618.82,493.08 621.61,493.09 621.61,493.12 618.82,493.12 616.02,493.12 613.23,493.12 610.44,493.12 607.65,493.12 604.85,493.12 602.06,493.12 599.27,493.12 596.47,493.12 593.68,493.12 590.89,493.12 588.10,493.12 585.30,493.12 582.51,493.12 579.72,493.12 576.92,493.12 574.13,493.12 571.34,493.12 568.54,493.12 565.75,493.11 562.96,493.11 560.17,493.11 557.37,493.11 554.58,493.11 551.79,493.11 548.99,493.11 546.20,493.10 543.41,493.10 540.62,493.10 537.82,493.10 535.03,493.10 532.24,493.09 529.44,493.09 526.65,493.09 523.86,493.08 521.07,493.08 518.27,493.08 515.48,493.07 512.69,493.07 509.89,493.06 507.10,493.06 504.31,493.05 501.52,493.04 498.72,493.03 495.93,493.03 493.14,493.02 490.34,493.01 487.55,493.00 484.76,492.98 481.97,492.97 479.17,492.96 476.38,492.94 473.59,492.92 470.79,492.91 468.00,492.89 465.21,492.86 462.41,492.84 459.62,492.82 456.83,492.79 454.04,492.76 451.24,492.72 448.45,492.68 445.66,492.64 442.86,492.60 440.07,492.55 437.28,492.50 434.49,492.44 431.69,492.38 428.90,492.31 426.11,492.24 423.31,492.16 420.52,492.08 417.73,491.98 414.94,491.88 412.14,491.76 409.35,491.64 406.56,491.50 403.76,491.36 400.97,491.21 398.18,491.04 395.39,490.85 392.59,490.64 389.80,490.42 387.01,490.17 384.21,489.91 381.42,489.61 378.63,489.29 375.83,488.94 373.04,488.56 370.25,488.16 367.46,487.73 364.66,487.25 361.87,486.74 359.08,486.18 356.28,485.57 353.49,484.90 350.70,484.17 347.91,483.37 345.11,482.53 342.32,481.59 339.53,480.57 336.73,479.46 333.94,478.23 331.15,476.91 328.36,475.49 325.56,473.99 322.77,472.36 319.98,470.58 317.18,468.69 314.39,466.67 311.60,464.49 308.81,462.14 306.01,459.61 303.22,456.80 300.43,453.78 297.63,450.67 294.84,447.37 292.05,443.87 289.26,440.13 286.46,436.17 283.67,431.94 280.88,427.32 278.08,422.44 275.29,417.21 272.50,411.85 269.70,406.13 266.91,400.30 264.12,393.97 261.33,387.18 258.53,380.27 255.74,373.16 252.95,365.79 250.15,358.24 247.36,350.46 244.57,342.28 241.78,334.13 238.98,325.69 236.19,317.21 233.40,308.77 230.60,300.06 227.81,291.20 225.02,282.16 222.23,273.44 219.43,264.73 216.64,256.16 213.85,247.57 211.05,239.30 208.26,231.12 205.47,222.78 202.68,214.88 199.88,207.25 197.09,199.85 194.30,192.33 191.50,185.31 188.71,178.57 185.92,171.89 183.12,165.55 180.33,159.61 177.54,153.49 174.75,148.01 171.95,142.62 169.16,137.59 166.37,132.74 163.57,128.15 160.78,123.69 157.99,119.49 155.20,115.43 152.40,111.47 149.61,107.76 146.82,104.15 144.02,100.68 141.23,97.32 138.44,94.29 135.65,91.49 132.85,88.86 130.06,86.12 127.27,83.62 124.47,81.31 121.68,79.16 118.89,77.16 116.10,75.29 113.30,73.44 110.51,71.80 107.72,70.17 104.92,68.62 102.13,67.17 99.34,65.83 96.55,64.58 93.75,63.40 90.96,62.27 88.17,61.22 85.37,60.22 82.58,59.29 79.79,58.45 76.99,57.60 74.20,56.81 71.41,56.11 68.62,55.40 65.82,54.78" style="stroke-width: 0.00;stroke: none;stroke-linecap: butt;fill: #F8766D;fill-opacity: 0.15;" />
<polyline points="65.82,48.18 68.62,48.41 71.41,48.66 74.20,48.93 76.99,49.24 79.79,49.58 82.58,49.95 85.37,50.34 88.17,50.76 90.96,51.23 93.75,51.74 96.55,52.29 99.34,52.89 102.13,53.55 104.92,54.27 107.72,55.03 110.51,55.86 113.30,56.76 116.10,57.76 118.89,58.84 121.68,59.99 124.47,61.27 127.27,62.64 130.06,64.09 132.85,65.68 135.65,67.40 138.44,69.23 141.23,71.29 144.02,73.44 146.82,75.76 149.61,78.27 152.40,80.87 155.20,83.83 157.99,86.89 160.78,90.19 163.57,93.67 166.37,97.49 169.16,101.57 171.95,105.90 174.75,110.41 177.54,115.31 180.33,120.40 183.12,125.69 185.92,131.33 188.71,137.54 191.50,143.66 194.30,150.23 197.09,157.09 199.88,164.26 202.68,171.76 205.47,179.50 208.26,187.41 211.05,195.52 213.85,203.66 216.64,211.94 219.43,220.14 222.23,228.52 225.02,237.20 227.81,245.75 230.60,254.42 233.40,263.14 236.19,271.71 238.98,280.28 241.78,288.74 244.57,296.88 247.36,305.12 250.15,313.06 252.95,320.98 255.74,328.69 258.53,336.11 261.33,343.52 264.12,350.44 266.91,357.44 269.70,363.91 272.50,370.41 275.29,376.38 278.08,382.37 280.88,387.89 283.67,393.33 286.46,398.60 289.26,403.64 292.05,408.42 294.84,412.87 297.63,417.26 300.43,421.40 303.22,425.57 306.01,429.28 308.81,432.76 311.60,436.28 314.39,439.61 317.18,442.71 319.98,445.56 322.77,448.30 325.56,450.95 328.36,453.49 331.15,455.75 333.94,458.06 336.73,460.20 339.53,462.13 342.32,463.97 345.11,465.73 347.91,467.38 350.70,468.96 353.49,470.46 356.28,471.89 359.08,473.23 361.87,474.51 364.66,475.67 367.46,476.76 370.25,477.79 373.04,478.75 375.83,479.66 378.63,480.52 381.42,481.33 384.21,482.09 387.01,482.79 389.80,483.45 392.59,484.07 395.39,484.66 398.18,485.21 400.97,485.74 403.76,486.23 406.56,486.67 409.35,487.07 412.14,487.46 414.94,487.82 417.73,488.17 420.52,488.49 423.31,488.79 426.11,489.07 428.90,489.33 431.69,489.57 434.49,489.79 437.28,490.01 440.07,490.21 442.86,490.40 445.66,490.58 448.45,490.74 451.24,490.90 454.04,491.04 456.83,491.18 459.62,491.31 462.41,491.42 465.21,491.53 468.00,491.64 470.79,491.73 473.59,491.82 476.38,491.91 479.17,491.98 481.97,492.06 484.76,492.13 487.55,492.19 490.34,492.25 493.14,492.31 495.93,492.36 498.72,492.41 501.52,492.46 504.31,492.50 507.10,492.54 509.89,492.58 512.69,492.61 515.48,492.65 518.27,492.68 521.07,492.71 523.86,492.73 526.65,492.76 529.44,492.78 532.24,492.80 535.03,492.82 537.82,492.84 540.62,492.86 543.41,492.88 546.20,492.90 548.99,492.91 551.79,492.92 554.58,492.94 557.37,492.95 560.17,492.96 562.96,492.97 565.75,492.98 568.54,492.99 571.34,493.00 574.13,493.01 576.92,493.02 579.72,493.02 582.51,493.03 585.30,493.04 588.10,493.04 590.89,493.05 593.68,493.05 596.47,493.06 599.27,493.06 602.06,493.06 604.85,493.07 607.65,493.07 610.44,493.08 613.23,493.08 616.02,493.08 618.82,493.08 621.61,493.09" style="stroke-width: 1.07;stroke: none;stroke-linecap: butt;"/>
<polyline points="621.61,493.12 618.82,493.12 616.02,493.12 613.23,493.12 610.44,493.12 607.65,493.12 604.85,493.12 602.06,493.12 599.27,493.12 596.47,493.12 593.68,493.12 590.89,493.12 588.10,493.12 585.30,493.12 582.51,493.12 579.72,493.12 576.92,493.12 574.13,493.12 571.34,493.12 568.54,493.12 565.75,493.11 562.96,493.11 560.17,493.11 557.37,493.11 554.58,493.11 551.79,493.11 548.99,493.11 546.20,493.10 543.41,493.10 540.62,493.10 537.82,493.10 535.03,493.10 532.24,493.09 529.44,493.09 526.65,493.09 523.86,493.08 521.07,493.08 518.27,493.08 515.48,493.07 512.69,493.07 509.89,493.06 507.10,493.06 504.31,493.05 501.52,493.04 498.72,493.03 495.93,493.03 493.14,493.02 490.34,493.01 487.55,493.00 484.76,492.98 481.97,492.97 479.17,492.96 476.38,492.94 473.59,492.92 470.79,492.91 468.00,492.89 465.21,492.86 462.41,492.84 459.62,492.82 456.83,492.79 454.04,492.76 451.24,492.72 448.45,492.68 445.66,492.64 442.86,492.60 440.07,492.55 437.28,492.50 434.49,492.44 431.69,492.38 428.90,492.31 426.11,492.24 423.31,492.16 420.52,492.08 417.73,491.98 414.94,491.88 412.14,491.76 409.35,491.64 406.56,491.50 403.76,491.36 400.97,491.21 398.18,491.04 395.39,490.85 392.59,490.64 389.80,490.42 387.01,490.17 384.21,489.91 381.42,489.61 378.63,489.29 375.83,488.94 373.04,488.56 370.25,488.16 367.46,487.73 364.66,487.25 361.87,486.74 359.08,486.18 356.28,485.57 353.49,484.90 350.70,484.17 347.91,483.37 345.11,482.53 342.32,481.59 339.53,480.57 336.73,479.46 333.94,478.23 331.15,476.91 328.36,475.49 325.56,473.99 322.77,472.36 319.98,470.58 317.18,468.69 314.39,466.67 311.60,464.49 308.81,462.14 306.01,459.61 303.22,456.80 300.43,453.78 297.63,450.67 294.84,447.37 292.05,443.87 289.26,440.13 286.46,436.17 283.67,431.94 280.88,427.32 278.08,422.44 275.29,417.21 272.50,411.85 269.70,406.13 266.91,400.30 264.12,393.97 261.33,387.18 258.53,380.27 255.74,373.16 252.95,365.79 250.15,358.24 247.36,350.46 244.57,342.28 241.78,334.13 238.98,325.69 236.19,317.21 233.40,308.77 230.60,300.06 227.81,291.20 225.02,282.16 222.23,273.44 219.43,264.73 216.64,256.16 213.85,247.57 211.05,239.30 208.26,231.12 205.47,222.78 202.68,214.88 199.88,207.25 197.09,199.85 194.30,192.33 191.50,185.31 188.71,178.57 185.92,171.89 183.12,165.55 180.33,159.61 177.54,153.49 174.75,148.01 171.95,142.62 169.16,137.59 166.37,132.74 163.57,128.15 160.78,123.69 157.99,119.49 155.20,115.43 152.40,111.47 149.61,107.76 146.82,104.15 144.02,100.68 141.23,97.32 138.44,94.29 135.65,91.49 132.85,88.86 130.06,86.12 127.27,83.62 124.47,81.31 121.68,79.16 118.89,77.16 116.10,75.29 113.30,73.44 110.51,71.80 107.72,70.17 104.92,68.62 102.13,67.17 99.34,65.83 96.55,64.58 93.75,63.40 90.96,62.27 88.17,61.22 85.37,60.22 82.58,59.29 79.79,58.45 76.99,57.60 74.20,56.81 71.41,56.11 68.62,55.40 65.82,54.78" style="stroke-width: 1.07;stroke: none;stroke-linecap: butt;"/>
<polygon points="65.82,117.39 68.62,136.26 71.41,156.52 74.20,177.28 76.99,197.30 79.79,215.79 82.58,232.25 85.37,246.12 88.17,257.08 90.96,264.81 93.75,269.83 96.55,275.61 99.34,281.40 102.13,287.16 104.92,292.92 107.72,298.67 110.51,304.39 113.30,310.07 116.10,315.69 118.89,321.26 121.68,326.76 124.47,332.20 127.27,337.55 130.06,342.83 132.85,348.01 135.65,353.09 138.44,358.08 141.23,362.97 144.02,367.75 146.82,372.42 149.61,376.98 152.40,381.43 155.20,385.76 157.99,389.98 160.78,394.07 163.57,398.05 166.37,401.92 169.16,405.66 171.95,409.29 174.75,412.80 177.54,416.19 180.33,419.47 183.12,422.64 185.92,425.69 188.71,428.63 191.50,431.47 194.30,434.20 197.09,436.83 199.88,439.36 202.68,441.79 205.47,444.12 208.26,446.36 211.05,448.51 213.85,450.57 216.64,452.54 219.43,454.43 222.23,456.24 225.02,457.98 227.81,459.64 230.60,461.22 233.40,462.74 236.19,464.19 238.98,465.58 241.78,466.90 244.57,468.16 247.36,469.37 250.15,470.52 252.95,471.62 255.74,472.66 258.53,473.66 261.33,474.61 264.12,475.52 266.91,476.39 269.70,477.21 272.50,477.99 275.29,478.74 278.08,479.45 280.88,480.13 283.67,480.78 286.46,481.39 289.26,481.97 292.05,482.53 294.84,483.06 297.63,483.56 300.43,484.04 303.22,484.49 306.01,484.92 308.81,485.34 311.60,485.73 314.39,486.10 317.18,486.45 319.98,486.79 322.77,487.11 325.56,487.41 328.36,487.70 331.15,487.97 333.94,488.23 336.73,488.48 339.53,488.71 342.32,488.94 345.11,489.15 347.91,489.35 350.70,489.54 353.49,489.72 356.28,489.89 359.08,490.06 361.87,490.21 364.66,490.36 367.46,490.50 370.25,490.63 373.04,490.76 375.83,490.88 378.63,490.99 381.42,491.10 384.21,491.21 387.01,491.30 389.80,491.40 392.59,491.48 395.39,491.57 398.18,491.65 400.97,491.72 403.76,491.79 406.56,491.86 409.35,491.93 412.14,491.99 414.94,492.04 417.73,492.10 420.52,492.15 423.31,492.20 426.11,492.25 428.90,492.29 431.69,492.34 434.49,492.38 437.28,492.41 440.07,492.45 442.86,492.48 445.66,492.52 448.45,492.55 451.24,492.58 454.04,492.61 456.83,492.63 459.62,492.66 462.41,492.68 465.21,492.70 468.00,492.72 470.79,492.75 473.59,492.76 476.38,492.78 479.17,492.80 481.97,492.82 484.76,492.83 487.55,492.85 490.34,492.86 493.14,492.88 495.93,492.89 498.72,492.90 501.52,492.91 504.31,492.92 507.10,492.93 509.89,492.94 512.69,492.95 515.48,492.96 518.27,492.97 521.07,492.98 523.86,492.98 526.65,492.99 529.44,493.00 532.24,493.01 535.03,493.01 537.82,493.02 540.62,493.02 543.41,493.03 546.20,493.03 548.99,493.04 551.79,493.04 554.58,493.05 557.37,493.05 560.17,493.05 562.96,493.06 565.75,493.06 568.54,493.06 571.34,493.07 574.13,493.07 576.92,493.07 579.72,493.08 582.51,493.08 585.30,493.08 588.10,493.08 590.89,493.09 593.68,493.09 596.47,493.09 599.27,493.09 602.06,493.09 604.85,493.09 607.65,493.10 610.44,493.10 613.23,493.10 616.02,493.10 618.82,493.10 621.61,493.10 621.61,493.13 618.82,493.13 616.02,493.13 613.23,493.13 610.44,493.13 607.65,493.13 604.85,493.13 602.06,493.13 599.27,493.13 596.47,493.13 593.68,493.13 590.89,493.13 588.10,493.13 585.30,493.13 582.51,493.13 579.72,493.13 576.92,493.13 574.13,493.13 571.34,493.13 568.54,493.13 565.75,493.13 562.96,493.13 560.17,493.13 557.37,493.13 554.58,493.13 551.79,493.13 548.99,493.13 546.20,493.13 543.41,493.13 540.62,493.13 537.82,493.13 535.03,493.13 532.24,493.13 529.44,493.13 526.65,493.13 523.86,493.13 521.07,493.13 518.27,493.13 515.48,493.13 512.69,493.13 509.89,493.13 507.10,493.13 504.31,493.13 501.52,493.13 498.72,493.13 495.93,493.13 493.14,493.13 490.34,493.13 487.55,493.13 484.76,493.13 481.97,493.13 479.17,493.13 476.38,493.13 473.59,493.13 470.79,493.13 468.00,493.13 465.21,493.13 462.41,493.13 459.62,493.13 456.83,493.13 454.04,493.13 451.24,493.13 448.45,493.13 445.66,493.13 442.86,493.13 440.07,493.13 437.28,493.13 434.49,493.13 431.69,493.13 428.90,493.13 426.11,493.13 423.31,493.13 420.52,493.13 417.73,493.13 414.94,493.13 412.14,493.13 409.35,493.13 406.56,493.13 403.76,493.13 400.97,493.13 398.18,493.13 395.39,493.13 392.59,493.13 389.80,493.13 387.01,493.13 384.21,493.13 381.42,493.13 378.63,493.13 375.83,493.13 373.04,493.13 370.25,493.13 367.46,493.13 364.66,493.13 361.87,493.13 359.08,493.13 356.28,493.13 353.49,493.13 350.70,493.13 347.91,493.13 345.11,493.13 342.32,493.13 339.53,493.13 336.73,493.13 333.94,493.13 331.15,493.13 328.36,493.13 325.56,493.13 322.77,493.13 319.98,493.13 317.18,493.13 314.39,493.13 311.60,493.13 308.81,493.13 306.01,493.13 303.22,493.13 300.43,493.13 297.63,493.13 294.84,493.13 292.05,493.13 289.26,493.13 286.46,493.13 283.67,493.13 280.88,493.13 278.08,493.13 275.29,493.13 272.50,493.13 269.70,493.13 266.91,493.13 264.12,493.13 261.33,493.13 258.53,493.13 255.74,493.13 252.95,493.13 250.15,493.13 247.36,493.13 244.57,493.13 241.78,493.13 238.98,493.13 236.19,493.13 233.40,493.13 230.60,493.13 227.81,493.13 225.02,493.13 222.23,493.13 219.43,493.13 216.64,493.13 213.85,493.13 211.05,493.13 208.26,493.13 205.47,493.13 202.68,493.13 199.88,493.13 197.09,493.13 194.30,493.13 191.50,493.13 188.71,493.13 185.92,493.13 183.12,493.13 180.33,493.13 177.54,493.13 174.75,493.13 171.95,493.13 169.16,493.13 166.37,493.13 163.57,493.13 160.78,493.13 157.99,493.13 155.20,493.13 152.40,493.13 149.61,493.13 146.82,493.13 144.02,493.13 141.23,493.13 138.44,493.13 135.65,493.12 132.85,493.12 130.06,493.12 127.27,493.12 124.47,493.12 121.68,493.12 118.89,493.12 116.10,493.11 113.30,493.10 110.51,493.07 107.72,493.03 104.92,492.96 102.13,492.83 99.34,492.61 96.55,492.22 93.75,491.53 90.96,490.31 88.17,488.19 85.37,484.49 82.58,478.10 79.79,467.25 76.99,449.37 74.20,421.22 71.41,380.04 68.62,325.79 65.82,265.25" style="stroke-width: 0.00;stroke: none;stroke-linecap: butt;fill: #7CAE00;fill-opacity: 0.15;" />
<polyline points="65.82,117.39 68.62,136.26 71.41,156.52 74.20,177.28 76.99,197.30 79.79,215.79 82.58,232.25 85.37,246.12 88.17,257.08 90.96,264.81 93.75,269.83 96.55,275.61 99.34,281.40 102.13,287.16 104.92,292.92 107.72,298.67 110.51,304.39 113.30,310.07 116.10,315.69 118.89,321.26 121.68,326.76 124.47,332.20 127.27,337.55 130.06,342.83 132.85,348.01 135.65,353.09 138.44,358.08 141.23,362.97 144.02,367.75 146.82,372.42 149.61,376.98 152.40,381.43 155.20,385.76 157.99,389.98 160.78,394.07 163.57,398.05 166.37,401.92 169.16,405.66 171.95,409.29 174.75,412.80 177.54,416.19 180.33,419.47 183.12,422.64 185.92,425.69 188.71,428.63 191.50,431.47 194.30,434.20 197.09,436.83 199.88,439.36 202.68,441.79 205.47,444.12 208.26,446.36 211.05,448.51 213.85,450.57 216.64,452.54 219.43,454.43 222.23,456.24 225.02,457.98 227.81,459.64 230.60,461.22 233.40,462.74 236.19,464.19 238.98,465.58 241.78,466.90 244.57,468.16 247.36,469.37 250.15,470.52 252.95,471.62 255.74,472.66 258.53,473.66 261.33,474.61 264.12,475.52 266.91,476.39 269.70,477.21 272.50,477.99 275.29,478.74 278.08,479.45 280.88,480.13 283.67,480.78 286.46,481.39 289.26,481.97 292.05,482.53 294.84,483.06 297.63,483.56 300.43,484.04 303.22,484.49 306.01,484.92 308.81,485.34 311.60,485.73 314.39,486.10 317.18,486.45 319.98,486.79 322.77,487.11 325.56,487.41 328.36,487.70 331.15,487.97 333.94,488.23 336.73,488.48 339.53,488.71 342.32,488.94 345.11,489.15 347.91,489.35 350.70,489.54 353.49,489.72 356.28,489.89 359.08,490.06 361.87,490.21 364.66,490.36 367.46,490.50 370.25,490.63 373.04,490.76 375.83,490.88 378.63,490.99 381.42,491.10 384.21,491.21 387.01,491.30 389.80,491.40 392.59,491.48 395.39,491.57 398.18,491.65 400.97,491.72 403.76,491.79 406.56,491.86 409.35,491.93 412.14,491.99 414.94,492.04 417.73,492.10 420.52,492.15 423.31,492.20 426.11,492.25 428.90,492.29 431.69,492.34 434.49,492.38 437.28,492.41 440.07,492.45 442.86,492.48 445.66,492.52 448.45,492.55 451.24,492.58 454.04,492.61 456.83,492.63 459.62,492.66 462.41,492.68 465.21,492.70 468.00,492.72 470.79,492.75 473.59,492.76 476.38,492.78 479.17,492.80 481.97,492.82 484.76,492.83 487.55,492.85 490.34,492.86 493.14,492.88 495.93,492.89 498.72,492.90 501.52,492.91 504.31,492.92 507.10,492.93 509.89,492.94 512.69,492.95 515.48,492.96 518.27,492.97 521.07,492.98 523.86,492.98 526.65,492.99 529.44,493.00 532.24,493.01 535.03,493.01 537.82,493.02 540.62,493.02 543.41,493.03 546.20,493.03 548.99,493.04 551.79,493.04 554.58,493.05 557.37,493.05 560.17,493.05 562.96,493.06 565.75,493.06 568.54,493.06 571.34,493.07 574.13,493.07 576.92,493.07 579.72,493.08 582.51,493.08 585.30,493.08 588.10,493.08 590.89,493.09 593.68,493.09 596.47,493.09 599.27,493.09 602.06,493.09 604.85,493.09 607.65,493.10 610.44,493.10 613.23,493.10 616.02,493.10 618.82,493.10 621.61,493.10" style="stroke-width: 1.07;stroke: none;stroke-linecap: butt;"/>
<polyline points="621.61,493.13 618.82,493.13 616.02,493.13 613.23,493.13 610.44,493.13 607.65,493.13 604.85,493.13 602.06,493.13 599.27,493.13 596.47,493.13 593.68,493.13 590.89,493.13 588.10,493.13 585.30,493.13 582.51,493.13 579.72,493.13 576.92,493.13 574.13,493.13 571.34,493.13 568.54,493.13 565.75,493.13 562.96,493.13 560.17,493.13 557.37,493.13 554.58,493.13 551.79,493.13 548.99,493.13 546.20,493.13 543.41,493.13 540.62,493.13 537.82,493.13 535.03,493.13 532.24,493.13 529.44,493.13 526.65,493.13 523.86,493.13 521.07,493.13 518.27,493.13 515.48,493.13 512.69,493.13 509.89,493.13 507.10,493.13 504.31,493.13 501.52,493.13 498.72,493.13 495.93,493.13 493.14,493.13 490.34,493.13 487.55,493.13 484.76,493.13 481.97,493.13 479.17,493.13 476.38,493.13 473.59,493.13 470.79,493.13 468.00,493.13 465.21,493.13 462.41,493.13 459.62,493.13 456.83,493.13 454.04,493.13 451.24,493.13 448.45,493.13 445.66,493.13 442.86,493.13 440.07,493.13 437.28,493.13 434.49,493.13 431.69,493.13 428.90,493.13 426.11,493.13 423.31,493.13 420.52,493.13 417.73,493.13 414.94,493.13 412.14,493.13 409.35,493.13 406.56,493.13 403.76,493.13 400.97,493.13 398.18,493.13 395.39,493.13 392.59,493.13 389.80,493.13 387.01,493.13 384.21,493.13 381.42,493.13 378.63,493.13 375.83,493.13 373.04,493.13 370.25,493.13 367.46,493.13 364.66,493.13 361.87,493.13 359.08,493.13 356.28,493.13 353.49,493.13 350.70,493.13 347.91,493.13 345.11,493.13 342.32,493.13 339.53,493.13 336.73,493.13 333.94,493.13 331.15,493.13 328.36,493.13 325.56,493.13 322.77,493.13 319.98,493.13 317.18,493.13 314.39,493.13 311.60,493.13 308.81,493.13 306.01,493.13 303.22,493.13 300.43,493.13 297.63,493.13 294.84,493.13 292.05,493.13 289.26,493.13 286.46,493.13 283.67,493.13 280.88,493.13 278.08,493.13 275.29,493.13 272.50,493.13 269.70,493.13 266.91,493.13 264.12,493.13 261.33,493.13 258.53,493.13 255.74,493.13 252.95,493.13 250.15,493.13 247.36,493.13 244.57,493.13 241.78,493.13 238.98,493.13 236.19,493.13 233.40,493.13 230.60,493.13 227.81,493.13 225.02,493.13 222.23,493.13 219.43,493.13 216.64,493.13 213.85,493.13 211.05,493.13 208.26,493.13 205.47,493.13 202.68,493.13 199.88,493.13 197.09,493.13 194.30,493.13 191.50,493.13 188.71,493.13 185.92,493.13 183.12,493.13 180.33,493.13 177.54,493.13 174.75,493.13 171.95,493.13 169.16,493.13 166.37,493.13 163.57,493.13 160.78,493.13 157.99,493.13 155.20,493.13 152.40,493.13 149.61,493.13 146.82,493.13 144.02,493.13 141.23,493.13 138.44,493.13 135.65,493.12 132.85,493.12 130.06,493.12 127.27,493.12 124.47,493.12 121.68,493.12 118.89,493.12 116.10,493.11 113.30,493.10 110.51,493.07 107.72,493.03 104.92,492.96 102.13,492.83 99.34,492.61 96.55,492.22 93.75,491.53 90.96,490.31 88.17,488.19 85.37,484.49 82.58,478.10 79.79,467.25 76.99,449.37 74.20,421.22 71.41,380.04 68.62,325.79 65.82,265.25" style="stroke-width: 1.07;stroke: none;stroke-linecap: butt;"/>
<polygon points="65.82,50.00 68.62,50.04 71.41,50.08 74.20,50.14 76.99,50.14 79.79,50.29 82.58,50.35 85.37,50.38 88.17,50.38 90.96,50.39 93.75,50.41 96.55,50.45 99.34,50.49 102.13,50.54 104.92,50.59 107.72,50.64 110.51,50.67 113.30,50.70 116.10,50.73 118.89,50.81 121.68,50.82 124.47,50.84 127.27,50.93 130.06,50.99 132.85,51.01 135.65,51.03 138.44,51.23 141.23,51.37 144.02,51.53 146.82,51.61 149.61,51.76 152.40,51.91 155.20,52.10 157.99,52.30 160.78,52.53 163.57,52.58 166.37,52.62 169.16,52.66 171.95,52.76 174.75,52.83 177.54,52.83 180.33,52.85 183.12,53.08 185.92,53.30 188.71,53.35 191.50,53.74 194.30,53.89 197.09,54.24 199.88,54.39 202.68,54.59 205.47,54.76 208.26,55.06 211.05,55.24 213.85,55.46 216.64,55.90 219.43,56.24 222.23,56.37 225.02,56.45 227.81,56.62 230.60,56.76 233.40,57.06 236.19,57.29 238.98,57.70 241.78,57.98 244.57,58.33 247.36,58.63 250.15,58.64 252.95,59.25 255.74,59.83 258.53,60.63 261.33,61.33 264.12,61.84 266.91,62.68 269.70,63.30 272.50,63.95 275.29,64.85 278.08,65.47 280.88,66.36 283.67,67.65 286.46,68.78 289.26,69.73 292.05,70.75 294.84,72.11 297.63,73.19 300.43,74.49 303.22,76.20 306.01,78.59 308.81,79.89 311.60,82.32 314.39,85.37 317.18,88.95 319.98,91.91 322.77,96.37 325.56,100.80 328.36,105.20 331.15,110.96 333.94,125.15 336.73,145.90 339.53,174.65 342.32,210.61 345.11,253.58 347.91,284.79 350.70,299.16 353.49,310.42 356.28,332.09 359.08,339.67 361.87,347.31 364.66,353.61 367.46,356.64 370.25,359.07 373.04,362.11 375.83,365.04 378.63,367.08 381.42,369.16 384.21,371.40 387.01,373.39 389.80,375.31 392.59,377.22 395.39,379.24 398.18,381.30 400.97,383.33 403.76,385.34 406.56,387.33 409.35,389.33 412.14,391.36 414.94,393.37 417.73,395.36 420.52,397.31 423.31,399.23 426.11,401.13 428.90,403.00 431.69,404.96 434.49,406.75 437.28,408.50 440.07,410.21 442.86,411.91 445.66,413.57 448.45,415.21 451.24,416.92 454.04,418.60 456.83,420.25 459.62,421.87 462.41,423.47 465.21,425.03 468.00,426.57 470.79,428.07 473.59,429.56 476.38,431.05 479.17,432.52 481.97,433.95 484.76,435.36 487.55,436.74 490.34,438.09 493.14,439.38 495.93,440.64 498.72,441.87 501.52,443.05 504.31,444.19 507.10,445.31 509.89,446.40 512.69,447.47 515.48,448.53 518.27,449.56 521.07,450.56 523.86,451.55 526.65,452.52 529.44,453.47 532.24,454.40 535.03,455.30 537.82,456.19 540.62,457.06 543.41,457.91 546.20,458.75 548.99,459.56 551.79,460.36 554.58,461.14 557.37,461.90 560.17,462.65 562.96,463.38 565.75,464.09 568.54,464.79 571.34,465.47 574.13,466.14 576.92,466.79 579.72,467.43 582.51,468.05 585.30,468.66 588.10,469.25 590.89,469.83 593.68,470.40 596.47,470.96 599.27,471.50 602.06,472.03 604.85,472.54 607.65,473.05 610.44,473.54 613.23,474.02 616.02,474.49 618.82,474.95 621.61,475.40 621.61,493.13 618.82,493.13 616.02,493.13 613.23,493.13 610.44,493.13 607.65,493.13 604.85,493.13 602.06,493.13 599.27,493.13 596.47,493.13 593.68,493.13 590.89,493.13 588.10,493.13 585.30,493.13 582.51,493.13 579.72,493.13 576.92,493.13 574.13,493.13 571.34,493.13 568.54,493.13 565.75,493.13 562.96,493.13 560.17,493.13 557.37,493.13 554.58,493.13 551.79,493.13 548.99,493.13 546.20,493.13 543.41,493.13 540.62,493.13 537.82,493.13 535.03,493.13 532.24,493.13 529.44,493.13 526.65,493.13 523.86,493.13 521.07,493.13 518.27,493.13 515.48,493.13 512.69,493.13 509.89,493.13 507.10,493.13 504.31,493.13 501.52,493.13 498.72,493.13 495.93,493.13 493.14,493.13 490.34,493.13 487.55,493.13 484.76,493.13 481.97,493.13 479.17,493.13 476.38,493.13 473.59,493.13 470.79,493.13 468.00,493.13 465.21,493.13 462.41,493.13 459.62,493.13 456.83,493.13 454.04,493.13 451.24,493.13 448.45,493.13 445.66,493.13 442.86,493.13 440.07,493.13 437.28,493.13 434.49,493.13 431.69,493.13 428.90,493.12 426.11,493.12 423.31,493.12 420.52,493.12 417.73,493.12 414.94,493.12 412.14,493.12 409.35,493.12 406.56,493.12 403.76,493.11 400.97,493.11 398.18,493.10 395.39,493.09 392.59,493.08 389.80,493.05 387.01,493.02 384.21,492.98 381.42,492.91 378.63,492.83 375.83,492.72 373.04,492.57 370.25,492.34 367.46,492.08 364.66,491.68 361.87,491.21 359.08,490.47 356.28,489.64 353.49,488.51 350.70,487.14 347.91,485.38 345.11,483.16 342.32,480.66 339.53,477.54 336.73,473.84 333.94,469.63 331.15,464.72 328.36,459.08 325.56,452.28 322.77,445.40 319.98,436.40 317.18,427.49 314.39,417.93 311.60,408.45 308.81,396.93 306.01,385.13 303.22,373.91 300.43,361.84 297.63,352.47 294.84,341.14 292.05,331.23 289.26,321.86 286.46,313.34 283.67,304.11 280.88,297.13 278.08,289.95 275.29,283.85 272.50,279.50 269.70,276.41 266.91,271.62 264.12,268.42 261.33,265.40 258.53,261.99 255.74,258.91 252.95,256.74 250.15,254.15 247.36,252.20 244.57,250.30 241.78,247.04 238.98,243.94 236.19,241.18 233.40,237.67 230.60,234.65 227.81,231.64 225.02,228.04 222.23,224.99 219.43,222.12 216.64,219.58 213.85,217.01 211.05,214.37 208.26,211.63 205.47,209.27 202.68,206.96 199.88,204.67 197.09,202.39 194.30,200.14 191.50,197.79 188.71,195.44 185.92,193.11 183.12,190.74 180.33,188.25 177.54,186.16 174.75,184.04 171.95,181.79 169.16,179.55 166.37,177.34 163.57,175.15 160.78,173.00 157.99,170.88 155.20,168.78 152.40,166.72 149.61,164.68 146.82,162.68 144.02,160.70 141.23,158.76 138.44,156.95 135.65,155.17 132.85,153.41 130.06,151.68 127.27,149.97 124.47,148.29 121.68,146.63 118.89,144.99 116.10,143.38 113.30,141.79 110.51,140.22 107.72,138.68 104.92,137.16 102.13,135.65 99.34,134.15 96.55,132.67 93.75,131.22 90.96,129.79 88.17,128.43 85.37,127.19 82.58,125.98 79.79,124.79 76.99,123.62 74.20,122.47 71.41,121.35 68.62,120.26 65.82,119.18" style="stroke-width: 0.00;stroke: none;stroke-linecap: butt;fill: #00BFC4;fill-opacity: 0.15;" />
<polyline points="65.82,50.00 68.62,50.04 71.41,50.08 74.20,50.14 76.99,50.14 79.79,50.29 82.58,50.35 85.37,50.38 88.17,50.38 90.96,50.39 93.75,50.41 96.55,50.45 99.34,50.49 102.13,50.54 104.92,50.59 107.72,50.64 110.51,50.67 113.30,50.70 116.10,50.73 118.89,50.81 121.68,50.82 124.47,50.84 127.27,50.93 130.06,50.99 132.85,51.01 135.65,51.03 138.44,51.23 141.23,51.37 144.02,51.53 146.82,51.61 149.61,51.76 152.40,51.91 155.20,52.10 157.99,52.30 160.78,52.53 163.57,52.58 166.37,52.62 169.16,52.66 171.95,52.76 174.75,52.83 177.54,52.83 180.33,52.85 183.12,53.08 185.92,53.30 188.71,53.35 191.50,53.74 194.30,53.89 197.09,54.24 199.88,54.39 202.68,54.59 205.47,54.76 208.26,55.06 211.05,55.24 213.85,55.46 216.64,55.90 219.43,56.24 222.23,56.37 225.02,56.45 227.81,56.62 230.60,56.76 233.40,57.06 236.19,57.29 238.98,57.70 241.78,57.98 244.57,58.33 247.36,58.63 250.15,58.64 252.95,59.25 255.74,59.83 258.53,60.63 261.33,61.33 264.12,61.84 266.91,62.68 269.70,63.30 272.50,63.95 275.29,64.85 278.08,65.47 280.88,66.36 283.67,67.65 286.46,68.78 289.26,69.73 292.05,70.75 294.84,72.11 297.63,73.19 300.43,74.49 303.22,76.20 306.01,78.59 308.81,79.89 311.60,82.32 314.39,85.37 317.18,88.95 319.98,91.91 322.77,96.37 325.56,100.80 328.36,105.20 331.15,110.96 333.94,125.15 336.73,145.90 339.53,174.65 342.32,210.61 345.11,253.58 347.91,284.79 350.70,299.16 353.49,310.42 356.28,332.09 359.08,339.67 361.87,347.31 364.66,353.61 367.46,356.64 370.25,359.07 373.04,362.11 375.83,365.04 378.63,367.08 381.42,369.16 384.21,371.40 387.01,373.39 389.80,375.31 392.59,377.22 395.39,379.24 398.18,381.30 400.97,383.33 403.76,385.34 406.56,387.33 409.35,389.33 412.14,391.36 414.94,393.37 417.73,395.36 420.52,397.31 423.31,399.23 426.11,401.13 428.90,403.00 431.69,404.96 434.49,406.75 437.28,408.50 440.07,410.21 442.86,411.91 445.66,413.57 448.45,415.21 451.24,416.92 454.04,418.60 456.83,420.25 459.62,421.87 462.41,423.47 465.21,425.03 468.00,426.57 470.79,428.07 473.59,429.56 476.38,431.05 479.17,432.52 481.97,433.95 484.76,435.36 487.55,436.74 490.34,438.09 493.14,439.38 495.93,440.64 498.72,441.87 501.52,443.05 504.31,444.19 507.10,445.31 509.89,446.40 512.69,447.47 515.48,448.53 518.27,449.56 521.07,450.56 523.86,451.55 526.65,452.52 529.44,453.47 532.24,454.40 535.03,455.30 537.82,456.19 540.62,457.06 543.41,457.91 546.20,458.75 548.99,459.56 551.79,460.36 554.58,461.14 557.37,461.90 560.17,462.65 562.96,463.38 565.75,464.09 568.54,464.79 571.34,465.47 574.13,466.14 576.92,466.79 579.72,467.43 582.51,468.05 585.30,468.66 588.10,469.25 590.89,469.83 593.68,470.40 596.47,470.96 599.27,471.50 602.06,472.03 604.85,472.54 607.65,473.05 610.44,473.54 613.23,474.02 616.02,474.49 618.82,474.95 621.61,475.40" style="stroke-width: 1.07;stroke: none;stroke-linecap: butt;"/>
<polyline points="621.61,493.13 618.82,493.13 616.02,493.13 613.23,493.13 610.44,493.13 607.65,493.13 604.85,493.13 602.06,493.13 599.27,493.13 596.47,493.13 593.68,493.13 590.89,493.13 588.10,493.13 585.30,493.13 582.51,493.13 579.72,493.13 576.92,493.13 574.13,493.13 571.34,493.13 568.54,493.13 565.75,493.13 562.96,493.13 560.17,493.13 557.37,493.13 554.58,493.13 551.79,493.13 548.99,493.13 546.20,493.13 543.41,493.13 540.62,493.13 537.82,493.13 535.03,493.13 532.24,493.13 529.44,493.13 526.65,493.13 523.86,493.13 521.07,493.13 518.27,493.13 515.48,493.13 512.69,493.13 509.89,493.13 507.10,493.13 504.31,493.13 501.52,493.13 498.72,493.13 495.93,493.13 493.14,493.13 490.34,493.13 487.55,493.13 484.76,493.13 481.97,493.13 479.17,493.13 476.38,493.13 473.59,493.13 470.79,493.13 468.00,493.13 465.21,493.13 462.41,493.13 459.62,493.13 456.83,493.13 454.04,493.13 451.24,493.13 448.45,493.13 445.66,493.13 442.86,493.13 440.07,493.13 437.28,493.13 434.49,493.13 431.69,493.13 428.90,493.12 426.11,493.12 423.31,493.12 420.52,493.12 417.73,493.12 414.94,493.12 412.14,493.12 409.35,493.12 406.56,493.12 403.76,493.11 400.97,493.11 398.18,493.10 395.39,493.09 392.59,493.08 389.80,493.05 387.01,493.02 384.21,492.98 381.42,492.91 378.63,492.83 375.83,492.72 373.04,492.57 370.25,492.34 367.46,492.08 364.66,491.68 361.87,491.21 359.08,490.47 356.28,489.64 353.49,488.51 350.70,487.14 347.91,485.38 345.11,483.16 342.32,480.66 339.53,477.54 336.73,473.84 333.94,469.63 331.15,464.72 328.36,459.08 325.56,452.28 322.77,445.40 319.98,436.40 317.18,427.49 314.39,417.93 311.60,408.45 308.81,396.93 306.01,385.13 303.22,373.91 300.43,361.84 297.63,352.47 294.84,341.14 292.05,331.23 289.26,321.86 286.46,313.34 283.67,304.11 280.88,297.13 278.08,289.95 275.29,283.85 272.50,279.50 269.70,276.41 266.91,271.62 264.12,268.42 261.33,265.40 258.53,261.99 255.74,258.91 252.95,256.74 250.15,254.15 247.36,252.20 244.57,250.30 241.78,247.04 238.98,243.94 236.19,241.18 233.40,237.67 230.60,234.65 227.81,231.64 225.02,228.04 222.23,224.99 219.43,222.12 216.64,219.58 213.85,217.01 211.05,214.37 208.26,211.63 205.47,209.27 202.68,206.96 199.88,204.67 197.09,202.39 194.30,200.14 191.50,197.79 188.71,195.44 185.92,193.11 183.12,190.74 180.33,188.25 177.54,186.16 174.75,184.04 171.95,181.79 169.16,179.55 166.37,177.34 163.57,175.15 160.78,173.00 157.99,170.88 155.20,168.78 152.40,166.72 149.61,164.68 146.82,162.68 144.02,160.70 141.23,158.76 138.44,156.95 135.65,155.17 132.85,153.41 130.06,151.68 127.27,149.97 124.47,148.29 121.68,146.63 118.89,144.99 116.10,143.38 113.30,141.79 110.51,140.22 107.72,138.68 104.92,137.16 102.13,135.65 99.34,134.15 96.55,132.67 93.75,131.22 90.96,129.79 88.17,128.43 85.37,127.19 82.58,125.98 79.79,124.79 76.99,123.62 74.20,122.47 71.41,121.35 68.62,120.26 65.82,119.18" style="stroke-width: 1.07;stroke: none;stroke-linecap: butt;"/>
<polygon points="65.82,76.02 68.62,76.20 71.41,76.38 74.20,76.55 76.99,76.77 79.79,76.99 82.58,77.30 85.37,77.65 88.17,77.94 90.96,78.26 93.75,78.77 96.55,79.10 99.34,79.54 102.13,79.98 104.92,80.51 107.72,80.96 110.51,81.51 113.30,82.06 116.10,82.58 118.89,83.11 121.68,83.73 124.47,84.28 127.27,85.08 130.06,85.79 132.85,86.58 135.65,87.32 138.44,88.33 141.23,89.19 144.02,90.26 146.82,91.36 149.61,92.47 152.40,93.93 155.20,95.19 157.99,96.60 160.78,98.16 163.57,99.69 166.37,101.43 169.16,103.42 171.95,105.50 174.75,107.52 177.54,109.81 180.33,112.50 183.12,115.04 185.92,117.75 188.71,120.46 191.50,123.81 194.30,127.20 197.09,130.81 199.88,134.66 202.68,139.18 205.47,143.69 208.26,148.47 211.05,153.82 213.85,159.50 216.64,165.53 219.43,171.87 222.23,178.41 225.02,185.64 227.81,193.22 230.60,200.99 233.40,209.41 236.19,218.01 238.98,227.24 241.78,236.52 244.57,245.84 247.36,255.38 250.15,264.82 252.95,274.06 255.74,283.37 258.53,292.31 261.33,300.99 264.12,309.09 266.91,316.96 269.70,324.53 272.50,331.34 275.29,338.07 278.08,344.78 280.88,351.22 283.67,357.37 286.46,363.53 289.26,369.47 292.05,375.23 294.84,380.83 297.63,386.14 300.43,391.11 303.22,396.14 306.01,400.76 308.81,405.44 311.60,409.72 314.39,413.77 317.18,417.85 319.98,421.87 322.77,425.66 325.56,429.32 328.36,432.80 331.15,436.06 333.94,439.08 336.73,441.89 339.53,444.65 342.32,447.28 345.11,449.78 347.91,452.11 350.70,454.43 353.49,456.60 356.28,458.64 359.08,460.57 361.87,462.43 364.66,464.25 367.46,465.97 370.25,467.54 373.04,468.96 375.83,470.30 378.63,471.59 381.42,472.86 384.21,474.06 387.01,475.19 389.80,476.27 392.59,477.30 395.39,478.22 398.18,479.09 400.97,479.93 403.76,480.73 406.56,481.47 409.35,482.17 412.14,482.82 414.94,483.44 417.73,484.02 420.52,484.56 423.31,485.08 426.11,485.56 428.90,486.02 431.69,486.44 434.49,486.85 437.28,487.23 440.07,487.58 442.86,487.92 445.66,488.23 448.45,488.53 451.24,488.81 454.04,489.07 456.83,489.32 459.62,489.55 462.41,489.78 465.21,489.99 468.00,490.19 470.79,490.37 473.59,490.55 476.38,490.71 479.17,490.86 481.97,491.00 484.76,491.13 487.55,491.25 490.34,491.36 493.14,491.47 495.93,491.57 498.72,491.66 501.52,491.75 504.31,491.83 507.10,491.91 509.89,491.99 512.69,492.06 515.48,492.12 518.27,492.18 521.07,492.24 523.86,492.29 526.65,492.34 529.44,492.39 532.24,492.44 535.03,492.48 537.82,492.52 540.62,492.55 543.41,492.59 546.20,492.62 548.99,492.65 551.79,492.68 554.58,492.71 557.37,492.74 560.17,492.76 562.96,492.78 565.75,492.80 568.54,492.82 571.34,492.84 574.13,492.86 576.92,492.88 579.72,492.89 582.51,492.91 585.30,492.92 588.10,492.93 590.89,492.94 593.68,492.95 596.47,492.97 599.27,492.98 602.06,492.98 604.85,492.99 607.65,493.00 610.44,493.01 613.23,493.02 616.02,493.02 618.82,493.03 621.61,493.04 621.61,493.13 618.82,493.13 616.02,493.13 613.23,493.13 610.44,493.13 607.65,493.13 604.85,493.13 602.06,493.12 599.27,493.12 596.47,493.12 593.68,493.12 590.89,493.12 588.10,493.12 585.30,493.12 582.51,493.12 579.72,493.12 576.92,493.12 574.13,493.12 571.34,493.12 568.54,493.12 565.75,493.12 562.96,493.12 560.17,493.12 557.37,493.12 554.58,493.12 551.79,493.12 548.99,493.12 546.20,493.12 543.41,493.12 540.62,493.12 537.82,493.12 535.03,493.12 532.24,493.12 529.44,493.12 526.65,493.12 523.86,493.12 521.07,493.12 518.27,493.12 515.48,493.12 512.69,493.11 509.89,493.11 507.10,493.11 504.31,493.11 501.52,493.11 498.72,493.11 495.93,493.10 493.14,493.10 490.34,493.10 487.55,493.10 484.76,493.09 481.97,493.09 479.17,493.08 476.38,493.08 473.59,493.07 470.79,493.07 468.00,493.06 465.21,493.05 462.41,493.04 459.62,493.04 456.83,493.02 454.04,493.01 451.24,493.00 448.45,492.98 445.66,492.97 442.86,492.95 440.07,492.93 437.28,492.90 434.49,492.88 431.69,492.85 428.90,492.81 426.11,492.77 423.31,492.73 420.52,492.68 417.73,492.63 414.94,492.57 412.14,492.50 409.35,492.43 406.56,492.35 403.76,492.25 400.97,492.15 398.18,492.03 395.39,491.90 392.59,491.76 389.80,491.60 387.01,491.41 384.21,491.21 381.42,490.98 378.63,490.72 375.83,490.43 373.04,490.11 370.25,489.75 367.46,489.34 364.66,488.90 361.87,488.41 359.08,487.86 356.28,487.24 353.49,486.55 350.70,485.76 347.91,484.92 345.11,483.93 342.32,482.87 339.53,481.71 336.73,480.40 333.94,478.96 331.15,477.35 328.36,475.57 325.56,473.57 322.77,471.30 319.98,468.85 317.18,466.18 314.39,463.14 311.60,459.95 308.81,456.39 306.01,452.44 303.22,448.12 300.43,443.49 297.63,438.58 294.84,433.35 292.05,427.65 289.26,421.24 286.46,414.66 283.67,407.78 280.88,400.52 278.08,392.46 275.29,384.13 272.50,375.85 269.70,367.10 266.91,358.41 264.12,349.33 261.33,340.13 258.53,330.72 255.74,321.67 252.95,312.76 250.15,304.10 247.36,295.15 244.57,286.58 241.78,278.11 238.98,270.62 236.19,262.96 233.40,255.90 230.60,249.02 227.81,242.12 225.02,235.09 222.23,228.42 219.43,221.78 216.64,215.91 213.85,209.94 211.05,204.36 208.26,198.93 205.47,193.41 202.68,188.11 199.88,183.14 197.09,178.06 194.30,173.21 191.50,168.77 188.71,164.41 185.92,160.28 183.12,156.40 180.33,152.68 177.54,149.15 174.75,145.83 171.95,142.49 169.16,139.33 166.37,136.25 163.57,133.58 160.78,131.24 157.99,128.75 155.20,126.69 152.40,124.90 149.61,122.96 146.82,121.45 144.02,120.30 141.23,119.12 138.44,117.99 135.65,117.28 132.85,116.48 130.06,115.71 127.27,115.08 124.47,114.51 121.68,114.01 118.89,113.59 116.10,113.19 113.30,112.95 110.51,112.49 107.72,112.29 104.92,112.10 102.13,111.95 99.34,111.81 96.55,111.68 93.75,111.31 90.96,111.24 88.17,111.13 85.37,111.06 82.58,111.00 79.79,110.95 76.99,110.88 74.20,110.85 71.41,110.82 68.62,110.78 65.82,110.75" style="stroke-width: 0.00;stroke: none;stroke-linecap: butt;fill: #C77CFF;fill-opacity: 0.15;" />
<polyline points="65.82,76.02 68.62,76.20 71.41,76.38 74.20,76.55 76.99,76.77 79.79,76.99 82.58,77.30 85.37,77.65 88.17,77.94 90.96,78.26 93.75,78.77 96.55,79.10 99.34,79.54 102.13,79.98 104.92,80.51 107.72,80.96 110.51,81.51 113.30,82.06 116.10,82.58 118.89,83.11 121.68,83.73 124.47,84.28 127.27,85.08 130.06,85.79 132.85,86.58 135.65,87.32 138.44,88.33 141.23,89.19 144.02,90.26 146.82,91.36 149.61,92.47 152.40,93.93 155.20,95.19 157.99,96.60 160.78,98.16 163.57,99.69 166.37,101.43 169.16,103.42 171.95,105.50 174.75,107.52 177.54,109.81 180.33,112.50 183.12,115.04 185.92,117.75 188.71,120.46 191.50,123.81 194.30,127.20 197.09,130.81 199.88,134.66 202.68,139.18 205.47,143.69 208.26,148.47 211.05,153.82 213.85,159.50 216.64,165.53 219.43,171.87 222.23,178.41 225.02,185.64 227.81,193.22 230.60,200.99 233.40,209.41 236.19,218.01 238.98,227.24 241.78,236.52 244.57,245.84 247.36,255.38 250.15,264.82 252.95,274.06 255.74,283.37 258.53,292.31 261.33,300.99 264.12,309.09 266.91,316.96 269.70,324.53 272.50,331.34 275.29,338.07 278.08,344.78 280.88,351.22 283.67,357.37 286.46,363.53 289.26,369.47 292.05,375.23 294.84,380.83 297.63,386.14 300.43,391.11 303.22,396.14 306.01,400.76 308.81,405.44 311.60,409.72 314.39,413.77 317.18,417.85 319.98,421.87 322.77,425.66 325.56,429.32 328.36,432.80 331.15,436.06 333.94,439.08 336.73,441.89 339.53,444.65 342.32,447.28 345.11,449.78 347.91,452.11 350.70,454.43 353.49,456.60 356.28,458.64 359.08,460.57 361.87,462.43 364.66,464.25 367.46,465.97 370.25,467.54 373.04,468.96 375.83,470.30 378.63,471.59 381.42,472.86 384.21,474.06 387.01,475.19 389.80,476.27 392.59,477.30 395.39,478.22 398.18,479.09 400.97,479.93 403.76,480.73 406.56,481.47 409.35,482.17 412.14,482.82 414.94,483.44 417.73,484.02 420.52,484.56 423.31,485.08 426.11,485.56 428.90,486.02 431.69,486.44 434.49,486.85 437.28,487.23 440.07,487.58 442.86,487.92 445.66,488.23 448.45,488.53 451.24,488.81 454.04,489.07 456.83,489.32 459.62,489.55 462.41,489.78 465.21,489.99 468.00,490.19 470.79,490.37 473.59,490.55 476.38,490.71 479.17,490.86 481.97,491.00 484.76,491.13 487.55,491.25 490.34,491.36 493.14,491.47 495.93,491.57 498.72,491.66 501.52,491.75 504.31,491.83 507.10,491.91 509.89,491.99 512.69,492.06 515.48,492.12 518.27,492.18 521.07,492.24 523.86,492.29 526.65,492.34 529.44,492.39 532.24,492.44 535.03,492.48 537.82,492.52 540.62,492.55 543.41,492.59 546.20,492.62 548.99,492.65 551.79,492.68 554.58,492.71 557.37,492.74 560.17,492.76 562.96,492.78 565.75,492.80 568.54,492.82 571.34,492.84 574.13,492.86 576.92,492.88 579.72,492.89 582.51,492.91 585.30,492.92 588.10,492.93 590.89,492.94 593.68,492.95 596.47,492.97 599.27,492.98 602.06,492.98 604.85,492.99 607.65,493.00 610.44,493.01 613.23,493.02 616.02,493.02 618.82,493.03 621.61,493.04" style="stroke-width: 1.07;stroke: none;stroke-linecap: butt;"/>
<polyline points="621.61,493.13 618.82,493.13 616.02,493.13 613.23,493.13 610.44,493.13 607.65,493.13 604.85,493.13 602.06,493.12 599.27,493.12 596.47,493.12 593.68,493.12 590.89,493.12 588.10,493.12 585.30,493.12 582.51,493.12 579.72,493.12 576.92,493.12 574.13,493.12 571.34,493.12 568.54,493.12 565.75,493.12 562.96,493.12 560.17,493.12 557.37,493.12 554.58,493.12 551.79,493.12 548.99,493.12 546.20,493.12 543.41,493.12 540.62,493.12 537.82,493.12 535.03,493.12 532.24,493.12 529.44,493.12 526.65,493.12 523.86,493.12 521.07,493.12 518.27,493.12 515.48,493.12 512.69,493.11 509.89,493.11 507.10,493.11 504.31,493.11 501.52,493.11 498.72,493.11 495.93,493.10 493.14,493.10 490.34,493.10 487.55,493.10 484.76,493.09 481.97,493.09 479.17,493.08 476.38,493.08 473.59,493.07 470.79,493.07 468.00,493.06 465.21,493.05 462.41,493.04 459.62,493.04 456.83,493.02 454.04,493.01 451.24,493.00 448.45,492.98 445.66,492.97 442.86,492.95 440.07,492.93 437.28,492.90 434.49,492.88 431.69,492.85 428.90,492.81 426.11,492.77 423.31,492.73 420.52,492.68 417.73,492.63 414.94,492.57 412.14,492.50 409.35,492.43 406.56,492.35 403.76,492.25 400.97,492.15 398.18,492.03 395.39,491.90 392.59,491.76 389.80,491.60 387.01,491.41 384.21,491.21 381.42,490.98 378.63,490.72 375.83,490.43 373.04,490.11 370.25,489.75 367.46,489.34 364.66,488.90 361.87,488.41 359.08,487.86 356.28,487.24 353.49,486.55 350.70,485.76 347.91,484.92 345.11,483.93 342.32,482.87 339.53,481.71 336.73,480.40 333.94,478.96 331.15,477.35 328.36,475.57 325.56,473.57 322.77,471.30 319.98,468.85 317.18,466.18 314.39,463.14 311.60,459.95 308.81,456.39 306.01,452.44 303.22,448.12 300.43,443.49 297.63,438.58 294.84,433.35 292.05,427.65 289.26,421.24 286.46,414.66 283.67,407.78 280.88,400.52 278.08,392.46 275.29,384.13 272.50,375.85 269.70,367.10 266.91,358.41 264.12,349.33 261.33,340.13 258.53,330.72 255.74,321.67 252.95,312.76 250.15,304.10 247.36,295.15 244.57,286.58 241.78,278.11 238.98,270.62 236.19,262.96 233.40,255.90 230.60,249.02 227.81,242.12 225.02,235.09 222.23,228.42 219.43,221.78 216.64,215.91 213.85,209.94 211.05,204.36 208.26,198.93 205.47,193.41 202.68,188.11 199.88,183.14 197.09,178.06 194.30,173.21 191.50,168.77 188.71,164.41 185.92,160.28 183.12,156.40 180.33,152.68 177.54,149.15 174.75,145.83 171.95,142.49 169.16,139.33 166.37,136.25 163.57,133.58 160.78,131.24 157.99,128.75 155.20,126.69 152.40,124.90 149.61,122.96 146.82,121.45 144.02,120.30 141.23,119.12 138.44,117.99 135.65,117.28 132.85,116.48 130.06,115.71 127.27,115.08 124.47,114.51 121.68,114.01 118.89,113.59 116.10,113.19 113.30,112.95 110.51,112.49 107.72,112.29 104.92,112.10 102.13,111.95 99.34,111.81 96.55,111.68 93.75,111.31 90.96,111.24 88.17,111.13 85.37,111.06 82.58,111.00 79.79,110.95 76.99,110.88 74.20,110.85 71.41,110.82 68.62,110.78 65.82,110.75" style="stroke-width: 1.07;stroke: none;stroke-linecap: butt;"/>
<circle cx="65.82" cy="45.56" r="2.06" style="stroke-width: 0.71;stroke: #F8766D;stroke-opacity: 0.70;fill: #F8766D;fill-opacity: 0.70;"/>
<circle cx="65.82" cy="45.56" r="2.06" style="stroke-width: 0.71;stroke: #F8766D;stroke-opacity: 0.70;fill: #F8766D;fill-opacity: 0.70;"/>
<circle cx="65.82" cy="45.56" r="2.06" style="stroke-width: 0.71;stroke: #F8766D;stroke-opacity: 0.70;fill: #F8766D;fill-opacity: 0.70;"/>
<circle cx="158.99" cy="114.43" r="2.06" style="stroke-width: 0.71;stroke: #F8766D;stroke-opacity: 0.70;fill: #F8766D;fill-opacity: 0.70;"/>
<circle cx="158.99" cy="119.39" r="2.06" style="stroke-width: 0.71;stroke: #F8766D;stroke-opacity: 0.70;fill: #F8766D;fill-opacity: 0.70;"/>
<circle cx="158.99" cy="96.41" r="2.06" style="stroke-width: 0.71;stroke: #F8766D;stroke-opacity: 0.70;fill: #F8766D;fill-opacity: 0.70;"/>
<circle cx="247.88" cy="248.07" r="2.06" style="stroke-width: 0.71;stroke: #F8766D;stroke-opacity: 0.70;fill: #F8766D;fill-opacity: 0.70;"/>
<circle cx="247.88" cy="317.51" r="2.06" style="stroke-width: 0.71;stroke: #F8766D;stroke-opacity: 0.70;fill: #F8766D;fill-opacity: 0.70;"/>
<circle cx="247.88" cy="312.01" r="2.06" style="stroke-width: 0.71;stroke: #F8766D;stroke-opacity: 0.70;fill: #F8766D;fill-opacity: 0.70;"/>
<circle cx="342.12" cy="485.66" r="2.06" style="stroke-width: 0.71;stroke: #F8766D;stroke-opacity: 0.70;fill: #F8766D;fill-opacity: 0.70;"/>
<circle cx="342.12" cy="493.13" r="2.06" style="stroke-width: 0.71;stroke: #F8766D;stroke-opacity: 0.70;fill: #F8766D;fill-opacity: 0.70;"/>
<circle cx="342.12" cy="493.13" r="2.06" style="stroke-width: 0.71;stroke: #F8766D;stroke-opacity: 0.70;fill: #F8766D;fill-opacity: 0.70;"/>
<circle cx="435.29" cy="493.13" r="2.06" style="stroke-width: 0.71;stroke: #F8766D;stroke-opacity: 0.70;fill: #F8766D;fill-opacity: 0.70;"/>
<circle cx="435.29" cy="493.13" r="2.06" style="stroke-width: 0.71;stroke: #F8766D;stroke-opacity: 0.70;fill: #F8766D;fill-opacity: 0.70;"/>
<circle cx="435.29" cy="493.13" r="2.06" style="stroke-width: 0.71;stroke: #F8766D;stroke-opacity: 0.70;fill: #F8766D;fill-opacity: 0.70;"/>
<circle cx="528.45" cy="493.13" r="2.06" style="stroke-width: 0.71;stroke: #F8766D;stroke-opacity: 0.70;fill: #F8766D;fill-opacity: 0.70;"/>
<circle cx="528.45" cy="493.13" r="2.06" style="stroke-width: 0.71;stroke: #F8766D;stroke-opacity: 0.70;fill: #F8766D;fill-opacity: 0.70;"/>
<circle cx="528.45" cy="493.13" r="2.06" style="stroke-width: 0.71;stroke: #F8766D;stroke-opacity: 0.70;fill: #F8766D;fill-opacity: 0.70;"/>
<circle cx="621.61" cy="490.46" r="2.06" style="stroke-width: 0.71;stroke: #F8766D;stroke-opacity: 0.70;fill: #F8766D;fill-opacity: 0.70;"/>
<circle cx="621.61" cy="493.13" r="2.06" style="stroke-width: 0.71;stroke: #F8766D;stroke-opacity: 0.70;fill: #F8766D;fill-opacity: 0.70;"/>
<circle cx="621.61" cy="493.13" r="2.06" style="stroke-width: 0.71;stroke: #F8766D;stroke-opacity: 0.70;fill: #F8766D;fill-opacity: 0.70;"/>
<circle cx="65.82" cy="78.47" r="2.06" style="stroke-width: 0.71;stroke: #C77CFF;stroke-opacity: 0.70;fill: #C77CFF;fill-opacity: 0.70;"/>
<circle cx="65.82" cy="94.76" r="2.06" style="stroke-width: 0.71;stroke: #C77CFF;stroke-opacity: 0.70;fill: #C77CFF;fill-opacity: 0.70;"/>
<circle cx="65.82" cy="70.04" r="2.06" style="stroke-width: 0.71;stroke: #C77CFF;stroke-opacity: 0.70;fill: #C77CFF;fill-opacity: 0.70;"/>
<circle cx="158.99" cy="103.48" r="2.06" style="stroke-width: 0.71;stroke: #C77CFF;stroke-opacity: 0.70;fill: #C77CFF;fill-opacity: 0.70;"/>
<circle cx="158.99" cy="125.41" r="2.06" style="stroke-width: 0.71;stroke: #C77CFF;stroke-opacity: 0.70;fill: #C77CFF;fill-opacity: 0.70;"/>
<circle cx="158.99" cy="141.35" r="2.06" style="stroke-width: 0.71;stroke: #C77CFF;stroke-opacity: 0.70;fill: #C77CFF;fill-opacity: 0.70;"/>
<circle cx="247.88" cy="264.28" r="2.06" style="stroke-width: 0.71;stroke: #C77CFF;stroke-opacity: 0.70;fill: #C77CFF;fill-opacity: 0.70;"/>
<circle cx="247.88" cy="275.55" r="2.06" style="stroke-width: 0.71;stroke: #C77CFF;stroke-opacity: 0.70;fill: #C77CFF;fill-opacity: 0.70;"/>
<circle cx="247.88" cy="279.29" r="2.06" style="stroke-width: 0.71;stroke: #C77CFF;stroke-opacity: 0.70;fill: #C77CFF;fill-opacity: 0.70;"/>
<circle cx="342.12" cy="455.72" r="2.06" style="stroke-width: 0.71;stroke: #C77CFF;stroke-opacity: 0.70;fill: #C77CFF;fill-opacity: 0.70;"/>
<circle cx="342.12" cy="493.13" r="2.06" style="stroke-width: 0.71;stroke: #C77CFF;stroke-opacity: 0.70;fill: #C77CFF;fill-opacity: 0.70;"/>
<circle cx="342.12" cy="493.13" r="2.06" style="stroke-width: 0.71;stroke: #C77CFF;stroke-opacity: 0.70;fill: #C77CFF;fill-opacity: 0.70;"/>
<circle cx="435.29" cy="493.13" r="2.06" style="stroke-width: 0.71;stroke: #C77CFF;stroke-opacity: 0.70;fill: #C77CFF;fill-opacity: 0.70;"/>
<circle cx="435.29" cy="493.13" r="2.06" style="stroke-width: 0.71;stroke: #C77CFF;stroke-opacity: 0.70;fill: #C77CFF;fill-opacity: 0.70;"/>
<circle cx="435.29" cy="493.13" r="2.06" style="stroke-width: 0.71;stroke: #C77CFF;stroke-opacity: 0.70;fill: #C77CFF;fill-opacity: 0.70;"/>
<circle cx="528.45" cy="493.13" r="2.06" style="stroke-width: 0.71;stroke: #C77CFF;stroke-opacity: 0.70;fill: #C77CFF;fill-opacity: 0.70;"/>
<circle cx="528.45" cy="493.13" r="2.06" style="stroke-width: 0.71;stroke: #C77CFF;stroke-opacity: 0.70;fill: #C77CFF;fill-opacity: 0.70;"/>
<circle cx="528.45" cy="493.13" r="2.06" style="stroke-width: 0.71;stroke: #C77CFF;stroke-opacity: 0.70;fill: #C77CFF;fill-opacity: 0.70;"/>
<circle cx="621.61" cy="490.43" r="2.06" style="stroke-width: 0.71;stroke: #C77CFF;stroke-opacity: 0.70;fill: #C77CFF;fill-opacity: 0.70;"/>
<circle cx="621.61" cy="493.13" r="2.06" style="stroke-width: 0.71;stroke: #C77CFF;stroke-opacity: 0.70;fill: #C77CFF;fill-opacity: 0.70;"/>
<circle cx="621.61" cy="493.13" r="2.06" style="stroke-width: 0.71;stroke: #C77CFF;stroke-opacity: 0.70;fill: #C77CFF;fill-opacity: 0.70;"/>
<circle cx="65.82" cy="45.56" r="2.06" style="stroke-width: 0.71;stroke: #00BFC4;stroke-opacity: 0.70;fill: #00BFC4;fill-opacity: 0.70;"/>
<circle cx="65.82" cy="45.56" r="2.06" style="stroke-width: 0.71;stroke: #00BFC4;stroke-opacity: 0.70;fill: #00BFC4;fill-opacity: 0.70;"/>
<circle cx="65.82" cy="45.56" r="2.06" style="stroke-width: 0.71;stroke: #00BFC4;stroke-opacity: 0.70;fill: #00BFC4;fill-opacity: 0.70;"/>
<circle cx="158.99" cy="103.73" r="2.06" style="stroke-width: 0.71;stroke: #00BFC4;stroke-opacity: 0.70;fill: #00BFC4;fill-opacity: 0.70;"/>
<circle cx="158.99" cy="114.01" r="2.06" style="stroke-width: 0.71;stroke: #00BFC4;stroke-opacity: 0.70;fill: #00BFC4;fill-opacity: 0.70;"/>
<circle cx="158.99" cy="75.84" r="2.06" style="stroke-width: 0.71;stroke: #00BFC4;stroke-opacity: 0.70;fill: #00BFC4;fill-opacity: 0.70;"/>
<circle cx="247.88" cy="45.56" r="2.06" style="stroke-width: 0.71;stroke: #00BFC4;stroke-opacity: 0.70;fill: #00BFC4;fill-opacity: 0.70;"/>
<circle cx="247.88" cy="81.67" r="2.06" style="stroke-width: 0.71;stroke: #00BFC4;stroke-opacity: 0.70;fill: #00BFC4;fill-opacity: 0.70;"/>
<circle cx="247.88" cy="102.85" r="2.06" style="stroke-width: 0.71;stroke: #00BFC4;stroke-opacity: 0.70;fill: #00BFC4;fill-opacity: 0.70;"/>
<circle cx="342.12" cy="453.80" r="2.06" style="stroke-width: 0.71;stroke: #00BFC4;stroke-opacity: 0.70;fill: #00BFC4;fill-opacity: 0.70;"/>
<circle cx="342.12" cy="459.67" r="2.06" style="stroke-width: 0.71;stroke: #00BFC4;stroke-opacity: 0.70;fill: #00BFC4;fill-opacity: 0.70;"/>
<circle cx="342.12" cy="465.80" r="2.06" style="stroke-width: 0.71;stroke: #00BFC4;stroke-opacity: 0.70;fill: #00BFC4;fill-opacity: 0.70;"/>
<circle cx="435.29" cy="493.13" r="2.06" style="stroke-width: 0.71;stroke: #00BFC4;stroke-opacity: 0.70;fill: #00BFC4;fill-opacity: 0.70;"/>
<circle cx="435.29" cy="493.13" r="2.06" style="stroke-width: 0.71;stroke: #00BFC4;stroke-opacity: 0.70;fill: #00BFC4;fill-opacity: 0.70;"/>
<circle cx="435.29" cy="493.13" r="2.06" style="stroke-width: 0.71;stroke: #00BFC4;stroke-opacity: 0.70;fill: #00BFC4;fill-opacity: 0.70;"/>
<circle cx="528.45" cy="493.13" r="2.06" style="stroke-width: 0.71;stroke: #00BFC4;stroke-opacity: 0.70;fill: #00BFC4;fill-opacity: 0.70;"/>
<circle cx="528.45" cy="493.13" r="2.06" style="stroke-width: 0.71;stroke: #00BFC4;stroke-opacity: 0.70;fill: #00BFC4;fill-opacity: 0.70;"/>
<circle cx="528.45" cy="493.13" r="2.06" style="stroke-width: 0.71;stroke: #00BFC4;stroke-opacity: 0.70;fill: #00BFC4;fill-opacity: 0.70;"/>
<circle cx="621.61" cy="490.09" r="2.06" style="stroke-width: 0.71;stroke: #00BFC4;stroke-opacity: 0.70;fill: #00BFC4;fill-opacity: 0.70;"/>
<circle cx="621.61" cy="493.13" r="2.06" style="stroke-width: 0.71;stroke: #00BFC4;stroke-opacity: 0.70;fill: #00BFC4;fill-opacity: 0.70;"/>
<circle cx="621.61" cy="493.13" r="2.06" style="stroke-width: 0.71;stroke: #00BFC4;stroke-opacity: 0.70;fill: #00BFC4;fill-opacity: 0.70;"/>
<circle cx="65.82" cy="49.80" r="2.06" style="stroke-width: 0.71;stroke: #7CAE00;stroke-opacity: 0.70;fill: #7CAE00;fill-opacity: 0.70;"/>
<circle cx="65.82" cy="109.63" r="2.06" style="stroke-width: 0.71;stroke: #7CAE00;stroke-opacity: 0.70;fill: #7CAE00;fill-opacity: 0.70;"/>
<circle cx="65.82" cy="195.18" r="2.06" style="stroke-width: 0.71;stroke: #7CAE00;stroke-opacity: 0.70;fill: #7CAE00;fill-opacity: 0.70;"/>
<circle cx="158.99" cy="493.13" r="2.06" style="stroke-width: 0.71;stroke: #7CAE00;stroke-opacity: 0.70;fill: #7CAE00;fill-opacity: 0.70;"/>
<circle cx="158.99" cy="493.13" r="2.06" style="stroke-width: 0.71;stroke: #7CAE00;stroke-opacity: 0.70;fill: #7CAE00;fill-opacity: 0.70;"/>
<circle cx="158.99" cy="493.13" r="2.06" style="stroke-width: 0.71;stroke: #7CAE00;stroke-opacity: 0.70;fill: #7CAE00;fill-opacity: 0.70;"/>
<circle cx="247.88" cy="493.13" r="2.06" style="stroke-width: 0.71;stroke: #7CAE00;stroke-opacity: 0.70;fill: #7CAE00;fill-opacity: 0.70;"/>
<circle cx="247.88" cy="493.13" r="2.06" style="stroke-width: 0.71;stroke: #7CAE00;stroke-opacity: 0.70;fill: #7CAE00;fill-opacity: 0.70;"/>
<circle cx="247.88" cy="493.13" r="2.06" style="stroke-width: 0.71;stroke: #7CAE00;stroke-opacity: 0.70;fill: #7CAE00;fill-opacity: 0.70;"/>
<circle cx="342.12" cy="493.13" r="2.06" style="stroke-width: 0.71;stroke: #7CAE00;stroke-opacity: 0.70;fill: #7CAE00;fill-opacity: 0.70;"/>
<circle cx="342.12" cy="493.13" r="2.06" style="stroke-width: 0.71;stroke: #7CAE00;stroke-opacity: 0.70;fill: #7CAE00;fill-opacity: 0.70;"/>
<circle cx="342.12" cy="493.13" r="2.06" style="stroke-width: 0.71;stroke: #7CAE00;stroke-opacity: 0.70;fill: #7CAE00;fill-opacity: 0.70;"/>
<circle cx="435.29" cy="493.13" r="2.06" style="stroke-width: 0.71;stroke: #7CAE00;stroke-opacity: 0.70;fill: #7CAE00;fill-opacity: 0.70;"/>
<circle cx="435.29" cy="493.13" r="2.06" style="stroke-width: 0.71;stroke: #7CAE00;stroke-opacity: 0.70;fill: #7CAE00;fill-opacity: 0.70;"/>
<circle cx="435.29" cy="493.13" r="2.06" style="stroke-width: 0.71;stroke: #7CAE00;stroke-opacity: 0.70;fill: #7CAE00;fill-opacity: 0.70;"/>
<circle cx="528.45" cy="493.13" r="2.06" style="stroke-width: 0.71;stroke: #7CAE00;stroke-opacity: 0.70;fill: #7CAE00;fill-opacity: 0.70;"/>
<circle cx="528.45" cy="493.13" r="2.06" style="stroke-width: 0.71;stroke: #7CAE00;stroke-opacity: 0.70;fill: #7CAE00;fill-opacity: 0.70;"/>
<circle cx="528.45" cy="493.13" r="2.06" style="stroke-width: 0.71;stroke: #7CAE00;stroke-opacity: 0.70;fill: #7CAE00;fill-opacity: 0.70;"/>
<circle cx="621.61" cy="486.04" r="2.06" style="stroke-width: 0.71;stroke: #7CAE00;stroke-opacity: 0.70;fill: #7CAE00;fill-opacity: 0.70;"/>
<circle cx="621.61" cy="493.13" r="2.06" style="stroke-width: 0.71;stroke: #7CAE00;stroke-opacity: 0.70;fill: #7CAE00;fill-opacity: 0.70;"/>
<circle cx="621.61" cy="493.13" r="2.06" style="stroke-width: 0.71;stroke: #7CAE00;stroke-opacity: 0.70;fill: #7CAE00;fill-opacity: 0.70;"/>
<polyline points="65.82,50.76 68.62,51.17 71.41,51.60 74.20,52.07 76.99,52.57 79.79,53.11 82.58,53.70 85.37,54.32 88.17,55.00 90.96,55.72 93.75,56.50 96.55,57.34 99.34,58.24 102.13,59.21 104.92,60.25 107.72,61.37 110.51,62.57 113.30,63.86 116.10,65.24 118.89,66.72 121.68,68.31 124.47,70.01 127.27,71.83 130.06,73.77 132.85,75.85 135.65,78.08 138.44,80.45 141.23,82.98 144.02,85.68 146.82,88.56 149.61,91.62 152.40,94.87 155.20,98.32 157.99,101.98 160.78,105.86 163.57,109.96 166.37,114.30 169.16,118.87 171.95,123.68 174.75,128.75 177.54,134.06 180.33,139.63 183.12,145.46 185.92,151.54 188.71,157.87 191.50,164.45 194.30,171.28 197.09,178.34 199.88,185.62 202.68,193.13 205.47,200.83 208.26,208.72 211.05,216.77 213.85,224.98 216.64,233.31 219.43,241.75 222.23,250.26 225.02,258.84 227.81,267.44 230.60,276.06 233.40,284.65 236.19,293.19 238.98,301.67 241.78,310.05 244.57,318.31 247.36,326.43 250.15,334.39 252.95,342.18 255.74,349.77 258.53,357.15 261.33,364.31 264.12,371.24 266.91,377.93 269.70,384.37 272.50,390.56 275.29,396.49 278.08,402.17 280.88,407.60 283.67,412.77 286.46,417.70 289.26,422.37 292.05,426.81 294.84,431.01 297.63,434.99 300.43,438.75 303.22,442.29 306.01,445.63 308.81,448.77 311.60,451.73 314.39,454.50 317.18,457.11 319.98,459.55 322.77,461.84 325.56,463.98 328.36,465.99 331.15,467.86 333.94,469.62 336.73,471.25 339.53,472.78 342.32,474.20 345.11,475.53 347.91,476.77 350.70,477.92 353.49,479.00 356.28,480.00 359.08,480.93 361.87,481.80 364.66,482.60 367.46,483.35 370.25,484.05 373.04,484.70 375.83,485.30 378.63,485.86 381.42,486.38 384.21,486.87 387.01,487.32 389.80,487.73 392.59,488.12 395.39,488.48 398.18,488.81 400.97,489.12 403.76,489.41 406.56,489.68 409.35,489.93 412.14,490.16 414.94,490.37 417.73,490.57 420.52,490.75 423.31,490.92 426.11,491.08 428.90,491.23 431.69,491.37 434.49,491.49 437.28,491.61 440.07,491.72 442.86,491.82 445.66,491.91 448.45,492.00 451.24,492.08 454.04,492.16 456.83,492.23 459.62,492.29 462.41,492.35 465.21,492.41 468.00,492.46 470.79,492.51 473.59,492.55 476.38,492.59 479.17,492.63 481.97,492.67 484.76,492.70 487.55,492.73 490.34,492.76 493.14,492.78 495.93,492.81 498.72,492.83 501.52,492.85 504.31,492.87 507.10,492.89 509.89,492.91 512.69,492.92 515.48,492.94 518.27,492.95 521.07,492.96 523.86,492.97 526.65,492.99 529.44,493.00 532.24,493.00 535.03,493.01 537.82,493.02 540.62,493.03 543.41,493.04 546.20,493.04 548.99,493.05 551.79,493.05 554.58,493.06 557.37,493.06 560.17,493.07 562.96,493.07 565.75,493.08 568.54,493.08 571.34,493.08 574.13,493.09 576.92,493.09 579.72,493.09 582.51,493.09 585.30,493.10 588.10,493.10 590.89,493.10 593.68,493.10 596.47,493.10 599.27,493.10 602.06,493.11 604.85,493.11 607.65,493.11 610.44,493.11 613.23,493.11 616.02,493.11 618.82,493.11 621.61,493.11" style="stroke-width: 1.71;stroke: #F8766D;stroke-linecap: butt;"/>
<polyline points="65.82,146.37 68.62,170.82 71.41,198.25 74.20,227.47 76.99,257.12 79.79,285.94 82.58,312.91 85.37,337.42 88.17,359.16 90.96,378.10 93.75,394.39 96.55,408.27 99.34,420.02 102.13,429.93 104.92,438.29 107.72,445.33 110.51,451.27 113.30,456.29 116.10,460.54 118.89,464.16 121.68,467.25 124.47,469.90 127.27,472.18 130.06,474.15 132.85,475.86 135.65,477.35 138.44,478.66 141.23,479.80 144.02,480.81 146.82,481.71 149.61,482.50 152.40,483.21 155.20,483.85 157.99,484.42 160.78,484.93 163.57,485.40 166.37,485.82 169.16,486.20 171.95,486.55 174.75,486.87 177.54,487.17 180.33,487.44 183.12,487.69 185.92,487.92 188.71,488.13 191.50,488.33 194.30,488.51 197.09,488.68 199.88,488.85 202.68,489.00 205.47,489.14 208.26,489.27 211.05,489.39 213.85,489.51 216.64,489.62 219.43,489.72 222.23,489.82 225.02,489.92 227.81,490.01 230.60,490.09 233.40,490.17 236.19,490.25 238.98,490.32 241.78,490.39 244.57,490.45 247.36,490.52 250.15,490.58 252.95,490.64 255.74,490.69 258.53,490.74 261.33,490.80 264.12,490.84 266.91,490.89 269.70,490.94 272.50,490.98 275.29,491.02 278.08,491.06 280.88,491.10 283.67,491.14 286.46,491.18 289.26,491.21 292.05,491.25 294.84,491.28 297.63,491.31 300.43,491.34 303.22,491.37 306.01,491.40 308.81,491.43 311.60,491.46 314.39,491.49 317.18,491.51 319.98,491.54 322.77,491.56 325.56,491.58 328.36,491.61 331.15,491.63 333.94,491.65 336.73,491.67 339.53,491.69 342.32,491.71 345.11,491.73 347.91,491.75 350.70,491.77 353.49,491.79 356.28,491.81 359.08,491.83 361.87,491.84 364.66,491.86 367.46,491.88 370.25,491.89 373.04,491.91 375.83,491.92 378.63,491.94 381.42,491.95 384.21,491.97 387.01,491.98 389.80,491.99 392.59,492.01 395.39,492.02 398.18,492.03 400.97,492.05 403.76,492.06 406.56,492.07 409.35,492.08 412.14,492.09 414.94,492.11 417.73,492.12 420.52,492.13 423.31,492.14 426.11,492.15 428.90,492.16 431.69,492.17 434.49,492.18 437.28,492.19 440.07,492.20 442.86,492.21 445.66,492.22 448.45,492.23 451.24,492.24 454.04,492.24 456.83,492.25 459.62,492.26 462.41,492.27 465.21,492.28 468.00,492.29 470.79,492.29 473.59,492.30 476.38,492.31 479.17,492.32 481.97,492.32 484.76,492.33 487.55,492.34 490.34,492.34 493.14,492.35 495.93,492.36 498.72,492.36 501.52,492.37 504.31,492.38 507.10,492.38 509.89,492.39 512.69,492.40 515.48,492.40 518.27,492.41 521.07,492.41 523.86,492.42 526.65,492.43 529.44,492.43 532.24,492.44 535.03,492.44 537.82,492.45 540.62,492.45 543.41,492.46 546.20,492.46 548.99,492.47 551.79,492.47 554.58,492.48 557.37,492.48 560.17,492.49 562.96,492.49 565.75,492.50 568.54,492.50 571.34,492.51 574.13,492.51 576.92,492.51 579.72,492.52 582.51,492.52 585.30,492.53 588.10,492.53 590.89,492.54 593.68,492.54 596.47,492.54 599.27,492.55 602.06,492.55 604.85,492.56 607.65,492.56 610.44,492.56 613.23,492.57 616.02,492.57 618.82,492.57 621.61,492.58" style="stroke-width: 1.71;stroke: #7CAE00;stroke-linecap: butt;"/>
<polyline points="65.82,76.58 68.62,76.64 71.41,76.71 74.20,76.78 76.99,76.86 79.79,76.93 82.58,77.01 85.37,77.09 88.17,77.17 90.96,77.26 93.75,77.35 96.55,77.44 99.34,77.53 102.13,77.63 104.92,77.73 107.72,77.84 110.51,77.95 113.30,78.06 116.10,78.18 118.89,78.30 121.68,78.43 124.47,78.56 127.27,78.70 130.06,78.85 132.85,79.00 135.65,79.15 138.44,79.32 141.23,79.49 144.02,79.67 146.82,79.85 149.61,80.05 152.40,80.26 155.20,80.47 157.99,80.70 160.78,80.94 163.57,81.19 166.37,81.45 169.16,81.73 171.95,82.02 174.75,82.33 177.54,82.65 180.33,83.00 183.12,83.37 185.92,83.75 188.71,84.16 191.50,84.60 194.30,85.07 197.09,85.56 199.88,86.09 202.68,86.65 205.47,87.25 208.26,87.89 211.05,88.58 213.85,89.32 216.64,90.11 219.43,90.97 222.23,91.88 225.02,92.87 227.81,93.94 230.60,95.10 233.40,96.35 236.19,97.70 238.98,99.17 241.78,100.77 244.57,102.51 247.36,104.41 250.15,106.48 252.95,108.74 255.74,111.22 258.53,113.93 261.33,116.90 264.12,120.16 266.91,123.75 269.70,127.69 272.50,132.02 275.29,136.79 278.08,142.04 280.88,147.81 283.67,154.15 286.46,161.11 289.26,168.74 292.05,177.09 294.84,186.19 297.63,196.10 300.43,206.82 303.22,218.39 306.01,230.78 308.81,243.99 311.60,257.95 314.39,272.59 317.18,287.81 319.98,303.45 322.77,319.35 325.56,335.31 328.36,351.09 331.15,366.47 333.94,381.20 336.73,395.05 339.53,407.85 342.32,419.46 345.11,429.81 347.91,438.89 350.70,446.73 353.49,453.40 356.28,459.00 359.08,463.63 361.87,467.42 364.66,470.49 367.46,472.98 370.25,474.98 373.04,476.60 375.83,477.92 378.63,479.02 381.42,479.94 384.21,480.72 387.01,481.40 389.80,481.99 392.59,482.52 395.39,483.00 398.18,483.43 400.97,483.82 403.76,484.18 406.56,484.51 409.35,484.82 412.14,485.10 414.94,485.37 417.73,485.62 420.52,485.85 423.31,486.07 426.11,486.27 428.90,486.47 431.69,486.65 434.49,486.83 437.28,486.99 440.07,487.15 442.86,487.29 445.66,487.44 448.45,487.57 451.24,487.70 454.04,487.82 456.83,487.94 459.62,488.05 462.41,488.16 465.21,488.26 468.00,488.36 470.79,488.46 473.59,488.55 476.38,488.64 479.17,488.73 481.97,488.81 484.76,488.89 487.55,488.96 490.34,489.04 493.14,489.11 495.93,489.18 498.72,489.25 501.52,489.31 504.31,489.37 507.10,489.43 509.89,489.49 512.69,489.55 515.48,489.60 518.27,489.66 521.07,489.71 523.86,489.76 526.65,489.81 529.44,489.86 532.24,489.91 535.03,489.95 537.82,490.00 540.62,490.04 543.41,490.08 546.20,490.12 548.99,490.16 551.79,490.20 554.58,490.24 557.37,490.28 560.17,490.31 562.96,490.35 565.75,490.38 568.54,490.42 571.34,490.45 574.13,490.48 576.92,490.51 579.72,490.54 582.51,490.57 585.30,490.60 588.10,490.63 590.89,490.66 593.68,490.69 596.47,490.72 599.27,490.74 602.06,490.77 604.85,490.79 607.65,490.82 610.44,490.84 613.23,490.87 616.02,490.89 618.82,490.91 621.61,490.94" style="stroke-width: 1.71;stroke: #00BFC4;stroke-linecap: butt;"/>
<polyline points="65.82,92.40 68.62,92.53 71.41,92.67 74.20,92.82 76.99,92.98 79.79,93.16 82.58,93.35 85.37,93.55 88.17,93.77 90.96,94.02 93.75,94.28 96.55,94.56 99.34,94.86 102.13,95.19 104.92,95.55 107.72,95.94 110.51,96.36 113.30,96.81 116.10,97.30 118.89,97.83 121.68,98.41 124.47,99.03 127.27,99.71 130.06,100.43 132.85,101.22 135.65,102.07 138.44,103.00 141.23,103.99 144.02,105.07 146.82,106.24 149.61,107.49 152.40,108.85 155.20,110.32 157.99,111.90 160.78,113.61 163.57,115.45 166.37,117.43 169.16,119.57 171.95,121.86 174.75,124.33 177.54,126.99 180.33,129.83 183.12,132.89 185.92,136.16 188.71,139.65 191.50,143.39 194.30,147.38 197.09,151.63 199.88,156.15 202.68,160.94 205.47,166.03 208.26,171.40 211.05,177.08 213.85,183.05 216.64,189.33 219.43,195.90 222.23,202.77 225.02,209.92 227.81,217.34 230.60,225.03 233.40,232.96 236.19,241.11 238.98,249.45 241.78,257.97 244.57,266.62 247.36,275.38 250.15,284.21 252.95,293.08 255.74,301.95 258.53,310.78 261.33,319.54 264.12,328.19 266.91,336.70 269.70,345.04 272.50,353.18 275.29,361.10 278.08,368.77 280.88,376.18 283.67,383.31 286.46,390.15 289.26,396.69 292.05,402.93 294.84,408.87 297.63,414.50 300.43,419.83 303.22,424.87 306.01,429.61 308.81,434.07 311.60,438.26 314.39,442.19 317.18,445.87 319.98,449.31 322.77,452.52 325.56,455.51 328.36,458.29 331.15,460.88 333.94,463.29 336.73,465.53 339.53,467.61 342.32,469.53 345.11,471.32 347.91,472.97 350.70,474.50 353.49,475.92 356.28,477.23 359.08,478.45 361.87,479.57 364.66,480.60 367.46,481.56 370.25,482.44 373.04,483.26 375.83,484.02 378.63,484.71 381.42,485.35 384.21,485.95 387.01,486.50 389.80,487.00 392.59,487.47 395.39,487.90 398.18,488.30 400.97,488.66 403.76,489.00 406.56,489.31 409.35,489.60 412.14,489.87 414.94,490.12 417.73,490.34 420.52,490.55 423.31,490.75 426.11,490.92 428.90,491.09 431.69,491.24 434.49,491.38 437.28,491.51 440.07,491.63 442.86,491.74 445.66,491.85 448.45,491.94 451.24,492.03 454.04,492.11 456.83,492.18 459.62,492.25 462.41,492.32 465.21,492.38 468.00,492.43 470.79,492.48 473.59,492.53 476.38,492.57 479.17,492.61 481.97,492.65 484.76,492.68 487.55,492.72 490.34,492.75 493.14,492.77 495.93,492.80 498.72,492.82 501.52,492.84 504.31,492.86 507.10,492.88 509.89,492.90 512.69,492.92 515.48,492.93 518.27,492.94 521.07,492.96 523.86,492.97 526.65,492.98 529.44,492.99 532.24,493.00 535.03,493.01 537.82,493.02 540.62,493.02 543.41,493.03 546.20,493.04 548.99,493.04 551.79,493.05 554.58,493.05 557.37,493.06 560.17,493.06 562.96,493.07 565.75,493.07 568.54,493.08 571.34,493.08 574.13,493.08 576.92,493.08 579.72,493.09 582.51,493.09 585.30,493.09 588.10,493.09 590.89,493.10 593.68,493.10 596.47,493.10 599.27,493.10 602.06,493.10 604.85,493.11 607.65,493.11 610.44,493.11 613.23,493.11 616.02,493.11 618.82,493.11 621.61,493.11" style="stroke-width: 1.71;stroke: #C77CFF;stroke-linecap: butt;"/>
</g><g clip-path="url(#c2)">
<g><text x="33.10" y="496.28" text-anchor="end" style="font-family: Arial;font-size: 8.80px;fill: #4D4D4D;" textLength="4.90px" lengthAdjust="spacingAndGlyphs">0</text></g>
<g><text x="33.10" y="384.38" text-anchor="end" style="font-family: Arial;font-size: 8.80px;fill: #4D4D4D;" textLength="9.79px" lengthAdjust="spacingAndGlyphs">25</text></g>
<g><text x="33.10" y="272.49" text-anchor="end" style="font-family: Arial;font-size: 8.80px;fill: #4D4D4D;" textLength="9.79px" lengthAdjust="spacingAndGlyphs">50</text></g>
<g><text x="33.10" y="160.60" text-anchor="end" style="font-family: Arial;font-size: 8.80px;fill: #4D4D4D;" textLength="9.79px" lengthAdjust="spacingAndGlyphs">75</text></g>
<g><text x="33.10" y="48.71" text-anchor="end" style="font-family: Arial;font-size: 8.80px;fill: #4D4D4D;" textLength="14.69px" lengthAdjust="spacingAndGlyphs">100</text></g>
<g><text x="95.81" y="526.74" text-anchor="middle" style="font-family: Arial;font-size: 8.80px;fill: #4D4D4D;" textLength="4.90px" lengthAdjust="spacingAndGlyphs">1</text></g>
<g><text x="243.47" y="526.74" text-anchor="middle" style="font-family: Arial;font-size: 8.80px;fill: #4D4D4D;" textLength="4.90px" lengthAdjust="spacingAndGlyphs">3</text></g>
<g><text x="405.29" y="526.74" text-anchor="middle" style="font-family: Arial;font-size: 8.80px;fill: #4D4D4D;" textLength="9.79px" lengthAdjust="spacingAndGlyphs">10</text></g>
<g><text x="552.95" y="526.74" text-anchor="middle" style="font-family: Arial;font-size: 8.80px;fill: #4D4D4D;" textLength="9.79px" lengthAdjust="spacingAndGlyphs">30</text></g>
<g><text x="343.72" y="539.20" text-anchor="middle" style="font-family: Arial;font-size: 11.00px;" textLength="44.65px" lengthAdjust="spacingAndGlyphs">Dose [%]</text></g>
<g><text transform="translate(13.36,269.34) rotate(-90.00)" text-anchor="middle" style="font-family: Arial;font-size: 11.00px;" textLength="57.87px" lengthAdjust="spacingAndGlyphs">Viability (%)</text></g>
<g><text x="665.84" y="235.98" style="font-family: Arial;font-size: 11.00px;" textLength="53.83px" lengthAdjust="spacingAndGlyphs">Compound</text></g>
<circle cx="674.48" cy="251.26" r="2.06" style="stroke-width: 0.71;stroke: #F8766D;stroke-opacity: 0.70;fill: #F8766D;fill-opacity: 0.70;"/>
<line x1="667.57" y1="251.26" x2="681.39" y2="251.26" style="stroke-width: 1.71;stroke: #F8766D;stroke-linecap: butt;"/>
<circle cx="674.48" cy="268.54" r="2.06" style="stroke-width: 0.71;stroke: #7CAE00;stroke-opacity: 0.70;fill: #7CAE00;fill-opacity: 0.70;"/>
<line x1="667.57" y1="268.54" x2="681.39" y2="268.54" style="stroke-width: 1.71;stroke: #7CAE00;stroke-linecap: butt;"/>
<circle cx="674.48" cy="285.82" r="2.06" style="stroke-width: 0.71;stroke: #00BFC4;stroke-opacity: 0.70;fill: #00BFC4;fill-opacity: 0.70;"/>
<line x1="667.57" y1="285.82" x2="681.39" y2="285.82" style="stroke-width: 1.71;stroke: #00BFC4;stroke-linecap: butt;"/>
<circle cx="674.48" cy="303.10" r="2.06" style="stroke-width: 0.71;stroke: #C77CFF;stroke-opacity: 0.70;fill: #C77CFF;fill-opacity: 0.70;"/>
<line x1="667.57" y1="303.10" x2="681.39" y2="303.10" style="stroke-width: 1.71;stroke: #C77CFF;stroke-linecap: butt;"/>
<g><text x="688.60" y="254.41" style="font-family: Arial;font-size: 8.80px;" textLength="37.16px" lengthAdjust="spacingAndGlyphs">CSE (A1)</text></g>
<g><text x="688.60" y="271.69" style="font-family: Arial;font-size: 8.80px;" textLength="69.44px" lengthAdjust="spacingAndGlyphs">CSE_Erastin (A4)</text></g>
<g><text x="688.60" y="288.97" style="font-family: Arial;font-size: 8.80px;" textLength="60.62px" lengthAdjust="spacingAndGlyphs">CSE_NAC (A3)</text></g>
<g><text x="688.60" y="306.25" style="font-family: Arial;font-size: 8.80px;" textLength="59.64px" lengthAdjust="spacingAndGlyphs">CSE_SFN (A2)</text></g>
<g><text x="38.03" y="14.93" style="font-family: Arial;font-size: 13.20px;" textLength="379.83px" lengthAdjust="spacingAndGlyphs">Patient ASC397  doseresponse across compounds (ASC397)</text></g>
</g>
</svg>