<svg xmlns="http://www.w3.org/2000/svg" xmlns:xlink="http://www.w3.org/1999/xlink" class="httpgd" width="769.00" height="547.00" viewBox="0 0 769.00 547.00">
<defs>
  <style type='text/css'><![CDATA[
    .httpgd line, .httpgd polyline, .httpgd polygon, .httpgd path, .httpgd rect, .httpgd circle {
      fill: none;
      stroke: #000000;
      stroke-linecap: round;
      stroke-linejoin: round;
      stroke-miterlimit: 10.00;
    }
  ]]></style>
<clipPath id="c0"><rect x="0.00" y="0.00" width="769.00" height="547.00"/></clipPath>
<clipPath id="c1"><rect x="38.03" y="23.18" width="599.12" height="492.33"/></clipPath>
<clipPath id="c2"><rect x="0.00" y="0.00" width="769.00" height="547.00"/></clipPath>
</defs>
<rect width="100%" height="100%" style="stroke: none;fill: #FFFFFF;"/>
<g clip-path="url(#c0)">
</g><g clip-path="url(#c1)">
<polyline points="38.03,493.13 637.15,493.13" style="stroke-width: 1.07;stroke: #EBEBEB;stroke-linecap: butt;"/>
<polyline points="38.03,381.23 637.15,381.23" style="stroke-width: 1.07;stroke: #EBEBEB;stroke-linecap: butt;"/>
<polyline points="38.03,269.34 637.15,269.34" style="stroke-width: 1.07;stroke: #EBEBEB;stroke-linecap: butt;"/>
<polyline points="38.03,157.45 637.15,157.45" style="stroke-width: 1.07;stroke: #EBEBEB;stroke-linecap: butt;"/>
<polyline points="38.03,45.56 637.15,45.56" style="stroke-width: 1.07;stroke: #EBEBEB;stroke-linecap: butt;"/>
<polyline points="94.66,515.50 94.66,23.18" style="stroke-width: 1.07;stroke: #EBEBEB;stroke-linecap: butt;"/>
<polyline points="239.36,515.50 239.36,23.18" style="stroke-width: 1.07;stroke: #EBEBEB;stroke-linecap: butt;"/>
<polyline points="397.94,515.50 397.94,23.18" style="stroke-width: 1.07;stroke: #EBEBEB;stroke-linecap: butt;"/>
<polyline points="542.64,515.50 542.64,23.18" style="stroke-width: 1.07;stroke: #EBEBEB;stroke-linecap: butt;"/>
<polygon points="65.27,48.18 68.00,48.41 70.74,48.66 73.48,48.93 76.21,49.24 78.95,49.58 81.69,49.95 84.43,50.34 87.16,50.76 89.90,51.23 92.64,51.74 95.37,52.29 98.11,52.89 100.85,53.55 103.58,54.27 106.32,55.03 109.06,55.86 111.79,56.76 114.53,57.76 117.27,58.84 120.01,59.99 122.74,61.27 125.48,62.64 128.22,64.09 130.95,65.68 133.69,67.40 136.43,69.23 139.16,71.29 141.90,73.44 144.64,75.76 147.38,78.27 150.11,80.87 152.85,83.83 155.59,86.89 158.32,90.19 161.06,93.67 163.80,97.49 166.53,101.57 169.27,105.90 172.01,110.41 174.74,115.31 177.48,120.40 180.22,125.69 182.96,131.33 185.69,137.54 188.43,143.66 191.17,150.23 193.90,157.09 196.64,164.26 199.38,171.76 202.11,179.50 204.85,187.41 207.59,195.52 210.32,203.66 213.06,211.94 215.80,220.14 218.54,228.52 221.27,237.20 224.01,245.75 226.75,254.42 229.48,263.14 232.22,271.71 234.96,280.28 237.69,288.74 240.43,296.88 243.17,305.12 245.91,313.06 248.64,320.98 251.38,328.69 254.12,336.11 256.85,343.52 259.59,350.44 262.33,357.44 265.06,363.91 267.80,370.41 270.54,376.38 273.27,382.37 276.01,387.89 278.75,393.33 281.49,398.60 284.22,403.64 286.96,408.42 289.70,412.87 292.43,417.26 295.17,421.40 297.91,425.57 300.64,429.28 303.38,432.76 306.12,436.28 308.86,439.61 311.59,442.71 314.33,445.56 317.07,448.30 319.80,450.95 322.54,453.49 325.28,455.75 328.01,458.06 330.75,460.20 333.49,462.13 336.22,463.97 338.96,465.73 341.70,467.38 344.44,468.96 347.17,470.46 349.91,471.89 352.65,473.23 355.38,474.51 358.12,475.67 360.86,476.76 363.59,477.79 366.33,478.75 369.07,479.66 371.80,480.52 374.54,481.33 377.28,482.09 380.02,482.79 382.75,483.45 385.49,484.07 388.23,484.66 390.96,485.21 393.70,485.74 396.44,486.23 399.17,486.67 401.91,487.07 404.65,487.46 407.39,487.82 410.12,488.17 412.86,488.49 415.60,488.79 418.33,489.07 421.07,489.33 423.81,489.57 426.54,489.79 429.28,490.01 432.02,490.21 434.75,490.40 437.49,490.58 440.23,490.74 442.97,490.90 445.70,491.04 448.44,491.18 451.18,491.31 453.91,491.42 456.65,491.53 459.39,491.64 462.12,491.73 464.86,491.82 467.60,491.91 470.34,491.98 473.07,492.06 475.81,492.13 478.55,492.19 481.28,492.25 484.02,492.31 486.76,492.36 489.49,492.41 492.23,492.46 494.97,492.50 497.70,492.54 500.44,492.58 503.18,492.61 505.92,492.65 508.65,492.68 511.39,492.71 514.13,492.73 516.86,492.76 519.60,492.78 522.34,492.80 525.07,492.82 527.81,492.84 530.55,492.86 533.28,492.88 536.02,492.90 538.76,492.91 541.50,492.92 544.23,492.94 546.97,492.95 549.71,492.96 552.44,492.97 555.18,492.98 557.92,492.99 560.65,493.00 563.39,493.01 566.13,493.02 568.87,493.02 571.60,493.03 574.34,493.04 577.08,493.04 579.81,493.05 582.55,493.05 585.29,493.06 588.02,493.06 590.76,493.06 593.50,493.07 596.23,493.07 598.97,493.08 601.71,493.08 604.45,493.08 607.18,493.08 609.92,493.09 609.92,493.12 607.18,493.12 604.45,493.12 601.71,493.12 598.97,493.12 596.23,493.12 593.50,493.12 590.76,493.12 588.02,493.12 585.29,493.12 582.55,493.12 579.81,493.12 577.08,493.12 574.34,493.12 571.60,493.12 568.87,493.12 566.13,493.12 563.39,493.12 560.65,493.12 557.92,493.12 555.18,493.11 552.44,493.11 549.71,493.11 546.97,493.11 544.23,493.11 541.50,493.11 538.76,493.11 536.02,493.10 533.28,493.10 530.55,493.10 527.81,493.10 525.07,493.10 522.34,493.09 519.60,493.09 516.86,493.09 514.13,493.08 511.39,493.08 508.65,493.08 505.92,493.07 503.18,493.07 500.44,493.06 497.70,493.06 494.97,493.05 492.23,493.04 489.49,493.03 486.76,493.03 484.02,493.02 481.28,493.01 478.55,493.00 475.81,492.98 473.07,492.97 470.34,492.96 467.60,492.94 464.86,492.92 462.12,492.91 459.39,492.89 456.65,492.86 453.91,492.84 451.18,492.82 448.44,492.79 445.70,492.76 442.97,492.72 440.23,492.68 437.49,492.64 434.75,492.60 432.02,492.55 429.28,492.50 426.54,492.44 423.81,492.38 421.07,492.31 418.33,492.24 415.60,492.16 412.86,492.08 410.12,491.98 407.39,491.88 404.65,491.76 401.91,491.64 399.17,491.50 396.44,491.36 393.70,491.21 390.96,491.04 388.23,490.85 385.49,490.64 382.75,490.42 380.02,490.17 377.28,489.91 374.54,489.61 371.80,489.29 369.07,488.94 366.33,488.56 363.59,488.16 360.86,487.73 358.12,487.25 355.38,486.74 352.65,486.18 349.91,485.57 347.17,484.90 344.44,484.17 341.70,483.37 338.96,482.53 336.22,481.59 333.49,480.57 330.75,479.46 328.01,478.23 325.28,476.91 322.54,475.49 319.80,473.99 317.07,472.36 314.33,470.58 311.59,468.69 308.86,466.67 306.12,464.49 303.38,462.14 300.64,459.61 297.91,456.80 295.17,453.78 292.43,450.67 289.70,447.37 286.96,443.87 284.22,440.13 281.49,436.17 278.75,431.94 276.01,427.32 273.27,422.44 270.54,417.21 267.80,411.85 265.06,406.13 262.33,400.30 259.59,393.97 256.85,387.18 254.12,380.27 251.38,373.16 248.64,365.79 245.91,358.24 243.17,350.46 240.43,342.28 237.69,334.13 234.96,325.69 232.22,317.21 229.48,308.77 226.75,300.06 224.01,291.20 221.27,282.16 218.54,273.44 215.80,264.73 213.06,256.16 210.32,247.57 207.59,239.30 204.85,231.12 202.11,222.78 199.38,214.88 196.64,207.25 193.90,199.85 191.17,192.33 188.43,185.31 185.69,178.57 182.96,171.89 180.22,165.55 177.48,159.61 174.74,153.49 172.01,148.01 169.27,142.62 166.53,137.59 163.80,132.74 161.06,128.15 158.32,123.69 155.59,119.49 152.85,115.43 150.11,111.47 147.38,107.76 144.64,104.15 141.90,100.68 139.16,97.32 136.43,94.29 133.69,91.49 130.95,88.86 128.22,86.12 125.48,83.62 122.74,81.31 120.01,79.16 117.27,77.16 114.53,75.29 111.79,73.44 109.06,71.80 106.32,70.17 103.58,68.62 100.85,67.17 98.11,65.83 95.37,64.58 92.64,63.40 89.90,62.27 87.16,61.22 84.43,60.22 81.69,59.29 78.95,58.45 76.21,57.60 73.48,56.81 70.74,56.11 68.00,55.40 65.27,54.78" style="stroke-width: 0.00;stroke: none;stroke-linecap: butt;fill: #F8766D;fill-opacity: 0.20;" />
<polyline points="65.27,48.18 68.00,48.41 70.74,48.66 73.48,48.93 76.21,49.24 78.95,49.58 81.69,49.95 84.43,50.34 87.16,50.76 89.90,51.23 92.64,51.74 95.37,52.29 98.11,52.89 100.85,53.55 103.58,54.27 106.32,55.03 109.06,55.86 111.79,56.76 114.53,57.76 117.27,58.84 120.01,59.99 122.74,61.27 125.48,62.64 128.22,64.09 130.95,65.68 133.69,67.40 136.43,69.23 139.16,71.29 141.90,73.44 144.64,75.76 147.38,78.27 150.11,80.87 152.85,83.83 155.59,86.89 158.32,90.19 161.06,93.67 163.80,97.49 166.53,101.57 169.27,105.90 172.01,110.41 174.74,115.31 177.48,120.40 180.22,125.69 182.96,131.33 185.69,137.54 188.43,143.66 191.17,150.23 193.90,157.09 196.64,164.26 199.38,171.76 202.11,179.50 204.85,187.41 207.59,195.52 210.32,203.66 213.06,211.94 215.80,220.14 218.54,228.52 221.27,237.20 224.01,245.75 226.75,254.42 229.48,263.14 232.22,271.71 234.96,280.28 237.69,288.74 240.43,296.88 243.17,305.12 245.91,313.06 248.64,320.98 251.38,328.69 254.12,336.11 256.85,343.52 259.59,350.44 262.33,357.44 265.06,363.91 267.80,370.41 270.54,376.38 273.27,382.37 276.01,387.89 278.75,393.33 281.49,398.60 284.22,403.64 286.96,408.42 289.70,412.87 292.43,417.26 295.17,421.40 297.91,425.57 300.64,429.28 303.38,432.76 306.12,436.28 308.86,439.61 311.59,442.71 314.33,445.56 317.07,448.30 319.80,450.95 322.54,453.49 325.28,455.75 328.01,458.06 330.75,460.20 333.49,462.13 336.22,463.97 338.96,465.73 341.70,467.38 344.44,468.96 347.17,470.46 349.91,471.89 352.65,473.23 355.38,474.51 358.12,475.67 360.86,476.76 363.59,477.79 366.33,478.75 369.07,479.66 371.80,480.52 374.54,481.33 377.28,482.09 380.02,482.79 382.75,483.45 385.49,484.07 388.23,484.66 390.96,485.21 393.70,485.74 396.44,486.23 399.17,486.67 401.91,487.07 404.65,487.46 407.39,487.82 410.12,488.17 412.86,488.49 415.60,488.79 418.33,489.07 421.07,489.33 423.81,489.57 426.54,489.79 429.28,490.01 432.02,490.21 434.75,490.40 437.49,490.58 440.23,490.74 442.97,490.90 445.70,491.04 448.44,491.18 451.18,491.31 453.91,491.42 456.65,491.53 459.39,491.64 462.12,491.73 464.86,491.82 467.60,491.91 470.34,491.98 473.07,492.06 475.81,492.13 478.55,492.19 481.28,492.25 484.02,492.31 486.76,492.36 489.49,492.41 492.23,492.46 494.97,492.50 497.70,492.54 500.44,492.58 503.18,492.61 505.92,492.65 508.65,492.68 511.39,492.71 514.13,492.73 516.86,492.76 519.60,492.78 522.34,492.80 525.07,492.82 527.81,492.84 530.55,492.86 533.28,492.88 536.02,492.90 538.76,492.91 541.50,492.92 544.23,492.94 546.97,492.95 549.71,492.96 552.44,492.97 555.18,492.98 557.92,492.99 560.65,493.00 563.39,493.01 566.13,493.02 568.87,493.02 571.60,493.03 574.34,493.04 577.08,493.04 579.81,493.05 582.55,493.05 585.29,493.06 588.02,493.06 590.76,493.06 593.50,493.07 596.23,493.07 598.97,493.08 601.71,493.08 604.45,493.08 607.18,493.08 609.92,493.09" style="stroke-width: 1.07;stroke: none;stroke-linecap: butt;"/>
<polyline points="609.92,493.12 607.18,493.12 604.45,493.12 601.71,493.12 598.97,493.12 596.23,493.12 593.50,493.12 590.76,493.12 588.02,493.12 585.29,493.12 582.55,493.12 579.81,493.12 577.08,493.12 574.34,493.12 571.60,493.12 568.87,493.12 566.13,493.12 563.39,493.12 560.65,493.12 557.92,493.12 555.18,493.11 552.44,493.11 549.71,493.11 546.97,493.11 544.23,493.11 541.50,493.11 538.76,493.11 536.02,493.10 533.28,493.10 530.55,493.10 527.81,493.10 525.07,493.10 522.34,493.09 519.60,493.09 516.86,493.09 514.13,493.08 511.39,493.08 508.65,493.08 505.92,493.07 503.18,493.07 500.44,493.06 497.70,493.06 494.97,493.05 492.23,493.04 489.49,493.03 486.76,493.03 484.02,493.02 481.28,493.01 478.55,493.00 475.81,492.98 473.07,492.97 470.34,492.96 467.60,492.94 464.86,492.92 462.12,492.91 459.39,492.89 456.65,492.86 453.91,492.84 451.18,492.82 448.44,492.79 445.70,492.76 442.97,492.72 440.23,492.68 437.49,492.64 434.75,492.60 432.02,492.55 429.28,492.50 426.54,492.44 423.81,492.38 421.07,492.31 418.33,492.24 415.60,492.16 412.86,492.08 410.12,491.98 407.39,491.88 404.65,491.76 401.91,491.64 399.17,491.50 396.44,491.36 393.70,491.21 390.96,491.04 388.23,490.85 385.49,490.64 382.75,490.42 380.02,490.17 377.28,489.91 374.54,489.61 371.80,489.29 369.07,488.94 366.33,488.56 363.59,488.16 360.86,487.73 358.12,487.25 355.38,486.74 352.65,486.18 349.91,485.57 347.17,484.90 344.44,484.17 341.70,483.37 338.96,482.53 336.22,481.59 333.49,480.57 330.75,479.46 328.01,478.23 325.28,476.91 322.54,475.49 319.80,473.99 317.07,472.36 314.33,470.58 311.59,468.69 308.86,466.67 306.12,464.49 303.38,462.14 300.64,459.61 297.91,456.80 295.17,453.78 292.43,450.67 289.70,447.37 286.96,443.87 284.22,440.13 281.49,436.17 278.75,431.94 276.01,427.32 273.27,422.44 270.54,417.21 267.80,411.85 265.06,406.13 262.33,400.30 259.59,393.97 256.85,387.18 254.12,380.27 251.38,373.16 248.64,365.79 245.91,358.24 243.17,350.46 240.43,342.28 237.69,334.13 234.96,325.69 232.22,317.21 229.48,308.77 226.75,300.06 224.01,291.20 221.27,282.16 218.54,273.44 215.80,264.73 213.06,256.16 210.32,247.57 207.59,239.30 204.85,231.12 202.11,222.78 199.38,214.88 196.64,207.25 193.90,199.85 191.17,192.33 188.43,185.31 185.69,178.57 182.96,171.89 180.22,165.55 177.48,159.61 174.74,153.49 172.01,148.01 169.27,142.62 166.53,137.59 163.80,132.74 161.06,128.15 158.32,123.69 155.59,119.49 152.85,115.43 150.11,111.47 147.38,107.76 144.64,104.15 141.90,100.68 139.16,97.32 136.43,94.29 133.69,91.49 130.95,88.86 128.22,86.12 125.48,83.62 122.74,81.31 120.01,79.16 117.27,77.16 114.53,75.29 111.79,73.44 109.06,71.80 106.32,70.17 103.58,68.62 100.85,67.17 98.11,65.83 95.37,64.58 92.64,63.40 89.90,62.27 87.16,61.22 84.43,60.22 81.69,59.29 78.95,58.45 76.21,57.60 73.48,56.81 70.74,56.11 68.00,55.40 65.27,54.78" style="stroke-width: 1.07;stroke: none;stroke-linecap: butt;"/>
<polygon points="65.27,71.96 68.00,72.18 70.74,72.42 73.48,72.73 76.21,73.03 78.95,73.38 81.69,73.76 84.43,74.17 87.16,74.63 89.90,75.15 92.64,75.69 95.37,76.32 98.11,76.97 100.85,77.72 103.58,78.55 106.32,79.41 109.06,80.36 111.79,81.44 114.53,82.60 117.27,83.87 120.01,85.28 122.74,86.81 125.48,88.53 128.22,90.39 130.95,92.42 133.69,94.58 136.43,96.93 139.16,99.53 141.90,102.34 144.64,105.41 147.38,108.75 150.11,112.37 152.85,116.30 155.59,120.51 158.32,125.07 161.06,130.00 163.80,135.31 166.53,140.97 169.27,147.11 172.01,153.70 174.74,160.64 177.48,167.98 180.22,175.86 182.96,184.13 185.69,192.78 188.43,201.90 191.17,211.33 193.90,221.12 196.64,231.09 199.38,241.44 202.11,251.99 204.85,262.65 207.59,273.43 210.32,284.20 213.06,294.94 215.80,305.66 218.54,316.13 221.27,326.50 224.01,336.54 226.75,346.37 229.48,356.02 232.22,365.20 234.96,374.03 237.69,382.54 240.43,390.52 243.17,398.10 245.91,405.30 248.64,412.06 251.38,418.47 254.12,424.43 256.85,429.92 259.59,435.09 262.33,439.90 265.06,444.37 267.80,448.46 270.54,452.29 273.27,455.82 276.01,459.05 278.75,462.07 281.49,464.82 284.22,467.32 286.96,469.61 289.70,471.72 292.43,473.64 295.17,475.40 297.91,477.01 300.64,478.49 303.38,479.83 306.12,481.04 308.86,482.15 311.59,483.15 314.33,484.07 317.07,484.91 319.80,485.67 322.54,486.36 325.28,486.99 328.01,487.56 330.75,488.08 333.49,488.55 336.22,488.97 338.96,489.36 341.70,489.72 344.44,490.03 347.17,490.32 349.91,490.58 352.65,490.82 355.38,491.04 358.12,491.24 360.86,491.41 363.59,491.57 366.33,491.72 369.07,491.85 371.80,491.97 374.54,492.08 377.28,492.18 380.02,492.27 382.75,492.35 385.49,492.42 388.23,492.49 390.96,492.55 393.70,492.60 396.44,492.65 399.17,492.70 401.91,492.74 404.65,492.77 407.39,492.81 410.12,492.84 412.86,492.86 415.60,492.89 418.33,492.91 421.07,492.93 423.81,492.95 426.54,492.97 429.28,492.98 432.02,492.99 434.75,493.01 437.49,493.02 440.23,493.03 442.97,493.04 445.70,493.05 448.44,493.05 451.18,493.06 453.91,493.07 456.65,493.07 459.39,493.08 462.12,493.08 464.86,493.09 467.60,493.09 470.34,493.09 473.07,493.10 475.81,493.10 478.55,493.10 481.28,493.10 484.02,493.11 486.76,493.11 489.49,493.11 492.23,493.11 494.97,493.11 497.70,493.11 500.44,493.11 503.18,493.12 505.92,493.12 508.65,493.12 511.39,493.12 514.13,493.12 516.86,493.12 519.60,493.12 522.34,493.12 525.07,493.12 527.81,493.12 530.55,493.12 533.28,493.12 536.02,493.12 538.76,493.12 541.50,493.12 544.23,493.12 546.97,493.12 549.71,493.12 552.44,493.12 555.18,493.12 557.92,493.12 560.65,493.12 563.39,493.12 566.13,493.12 568.87,493.12 571.60,493.12 574.34,493.12 577.08,493.12 579.81,493.12 582.55,493.12 585.29,493.12 588.02,493.12 590.76,493.12 593.50,493.12 596.23,493.12 598.97,493.12 601.71,493.12 604.45,493.12 607.18,493.13 609.92,493.13 609.92,493.13 607.18,493.13 604.45,493.13 601.71,493.13 598.97,493.13 596.23,493.13 593.50,493.13 590.76,493.13 588.02,493.13 585.29,493.13 582.55,493.13 579.81,493.13 577.08,493.13 574.34,493.12 571.60,493.12 568.87,493.12 566.13,493.12 563.39,493.12 560.65,493.12 557.92,493.12 555.18,493.12 552.44,493.12 549.71,493.12 546.97,493.12 544.23,493.12 541.50,493.12 538.76,493.12 536.02,493.12 533.28,493.12 530.55,493.12 527.81,493.12 525.07,493.12 522.34,493.12 519.60,493.12 516.86,493.12 514.13,493.12 511.39,493.12 508.65,493.12 505.92,493.12 503.18,493.12 500.44,493.12 497.70,493.12 494.97,493.12 492.23,493.12 489.49,493.12 486.76,493.12 484.02,493.12 481.28,493.12 478.55,493.11 475.81,493.11 473.07,493.11 470.34,493.11 467.60,493.11 464.86,493.11 462.12,493.10 459.39,493.10 456.65,493.10 453.91,493.10 451.18,493.09 448.44,493.09 445.70,493.09 442.97,493.08 440.23,493.08 437.49,493.07 434.75,493.07 432.02,493.06 429.28,493.05 426.54,493.04 423.81,493.03 421.07,493.02 418.33,493.01 415.60,493.00 412.86,492.98 410.12,492.97 407.39,492.95 404.65,492.93 401.91,492.91 399.17,492.88 396.44,492.86 393.70,492.83 390.96,492.79 388.23,492.76 385.49,492.72 382.75,492.67 380.02,492.62 377.28,492.56 374.54,492.50 371.80,492.43 369.07,492.35 366.33,492.26 363.59,492.16 360.86,492.05 358.12,491.93 355.38,491.80 352.65,491.65 349.91,491.48 347.17,491.30 344.44,491.09 341.70,490.86 338.96,490.60 336.22,490.32 333.49,490.01 330.75,489.66 328.01,489.27 325.28,488.84 322.54,488.36 319.80,487.83 317.07,487.23 314.33,486.57 311.59,485.85 308.86,485.06 306.12,484.17 303.38,483.19 300.64,482.10 297.91,480.90 295.17,479.58 292.43,478.10 289.70,476.47 286.96,474.69 284.22,472.71 281.49,470.53 278.75,468.13 276.01,465.49 273.27,462.63 270.54,459.49 267.80,456.04 265.06,452.30 262.33,448.23 259.59,443.80 256.85,439.00 254.12,433.78 251.38,428.19 248.64,422.14 245.91,415.74 243.17,408.85 240.43,401.60 237.69,393.79 234.96,385.58 232.22,377.05 229.48,368.05 226.75,358.62 224.01,348.97 221.27,338.87 218.54,328.62 215.80,318.14 213.06,307.44 210.32,296.69 207.59,285.89 204.85,275.12 202.11,264.33 199.38,253.74 196.64,243.37 193.90,233.09 191.17,223.09 188.43,213.45 185.69,204.10 182.96,195.18 180.22,186.54 177.48,178.29 174.74,170.51 172.01,163.12 169.27,156.15 166.53,149.63 163.80,143.47 161.06,137.83 158.32,132.53 155.59,127.57 152.85,123.01 150.11,118.85 147.38,114.97 144.64,111.43 141.90,108.15 139.16,105.11 136.43,102.41 133.69,99.92 130.95,97.67 128.22,95.60 125.48,93.78 122.74,92.13 120.01,90.64 117.27,89.29 114.53,88.08 111.79,86.94 109.06,86.02 106.32,85.16 103.58,84.38 100.85,83.67 98.11,83.04 95.37,82.47 92.64,81.94 89.90,81.46 87.16,81.04 84.43,80.69 81.69,80.33 78.95,80.05 76.21,79.76 73.48,79.51 70.74,79.28 68.00,79.07 65.27,78.88" style="stroke-width: 0.00;stroke: none;stroke-linecap: butt;fill: #7CAE00;fill-opacity: 0.20;" />
<polyline points="65.27,71.96 68.00,72.18 70.74,72.42 73.48,72.73 76.21,73.03 78.95,73.38 81.69,73.76 84.43,74.17 87.16,74.63 89.90,75.15 92.64,75.69 95.37,76.32 98.11,76.97 100.85,77.72 103.58,78.55 106.32,79.41 109.06,80.36 111.79,81.44 114.53,82.60 117.27,83.87 120.01,85.28 122.74,86.81 125.48,88.53 128.22,90.39 130.95,92.42 133.69,94.58 136.43,96.93 139.16,99.53 141.90,102.34 144.64,105.41 147.38,108.75 150.11,112.37 152.85,116.30 155.59,120.51 158.32,125.07 161.06,130.00 163.80,135.31 166.53,140.97 169.27,147.11 172.01,153.70 174.74,160.64 177.48,167.98 180.22,175.86 182.96,184.13 185.69,192.78 188.43,201.90 191.17,211.33 193.90,221.12 196.64,231.09 199.38,241.44 202.11,251.99 204.85,262.65 207.59,273.43 210.32,284.20 213.06,294.94 215.80,305.66 218.54,316.13 221.27,326.50 224.01,336.54 226.75,346.37 229.48,356.02 232.22,365.20 234.96,374.03 237.69,382.54 240.43,390.52 243.17,398.10 245.91,405.30 248.64,412.06 251.38,418.47 254.12,424.43 256.85,429.92 259.59,435.09 262.33,439.90 265.06,444.37 267.80,448.46 270.54,452.29 273.27,455.82 276.01,459.05 278.75,462.07 281.49,464.82 284.22,467.32 286.96,469.61 289.70,471.72 292.43,473.64 295.17,475.40 297.91,477.01 300.64,478.49 303.38,479.83 306.12,481.04 308.86,482.15 311.59,483.15 314.33,484.07 317.07,484.91 319.80,485.67 322.54,486.36 325.28,486.99 328.01,487.56 330.75,488.08 333.49,488.55 336.22,488.97 338.96,489.36 341.70,489.72 344.44,490.03 347.17,490.32 349.91,490.58 352.65,490.82 355.38,491.04 358.12,491.24 360.86,491.41 363.59,491.57 366.33,491.72 369.07,491.85 371.80,491.97 374.54,492.08 377.28,492.18 380.02,492.27 382.75,492.35 385.49,492.42 388.23,492.49 390.96,492.55 393.70,492.60 396.44,492.65 399.17,492.70 401.91,492.74 404.65,492.77 407.39,492.81 410.12,492.84 412.86,492.86 415.60,492.89 418.33,492.91 421.07,492.93 423.81,492.95 426.54,492.97 429.28,492.98 432.02,492.99 434.75,493.01 437.49,493.02 440.23,493.03 442.97,493.04 445.70,493.05 448.44,493.05 451.18,493.06 453.91,493.07 456.65,493.07 459.39,493.08 462.12,493.08 464.86,493.09 467.60,493.09 470.34,493.09 473.07,493.10 475.81,493.10 478.55,493.10 481.28,493.10 484.02,493.11 486.76,493.11 489.49,493.11 492.23,493.11 494.97,493.11 497.70,493.11 500.44,493.11 503.18,493.12 505.92,493.12 508.65,493.12 511.39,493.12 514.13,493.12 516.86,493.12 519.60,493.12 522.34,493.12 525.07,493.12 527.81,493.12 530.55,493.12 533.28,493.12 536.02,493.12 538.76,493.12 541.50,493.12 544.23,493.12 546.97,493.12 549.71,493.12 552.44,493.12 555.18,493.12 557.92,493.12 560.65,493.12 563.39,493.12 566.13,493.12 568.87,493.12 571.60,493.12 574.34,493.12 577.08,493.12 579.81,493.12 582.55,493.12 585.29,493.12 588.02,493.12 590.76,493.12 593.50,493.12 596.23,493.12 598.97,493.12 601.71,493.12 604.45,493.12 607.18,493.13 609.92,493.13" style="stroke-width: 1.07;stroke: none;stroke-linecap: butt;"/>
<polyline points="609.92,493.13 607.18,493.13 604.45,493.13 601.71,493.13 598.97,493.13 596.23,493.13 593.50,493.13 590.76,493.13 588.02,493.13 585.29,493.13 582.55,493.13 579.81,493.13 577.08,493.13 574.34,493.12 571.60,493.12 568.87,493.12 566.13,493.12 563.39,493.12 560.65,493.12 557.92,493.12 555.18,493.12 552.44,493.12 549.71,493.12 546.97,493.12 544.23,493.12 541.50,493.12 538.76,493.12 536.02,493.12 533.28,493.12 530.55,493.12 527.81,493.12 525.07,493.12 522.34,493.12 519.60,493.12 516.86,493.12 514.13,493.12 511.39,493.12 508.65,493.12 505.92,493.12 503.18,493.12 500.44,493.12 497.70,493.12 494.97,493.12 492.23,493.12 489.49,493.12 486.76,493.12 484.02,493.12 481.28,493.12 478.55,493.11 475.81,493.11 473.07,493.11 470.34,493.11 467.60,493.11 464.86,493.11 462.12,493.10 459.39,493.10 456.65,493.10 453.91,493.10 451.18,493.09 448.44,493.09 445.70,493.09 442.97,493.08 440.23,493.08 437.49,493.07 434.75,493.07 432.02,493.06 429.28,493.05 426.54,493.04 423.81,493.03 421.07,493.02 418.33,493.01 415.60,493.00 412.86,492.98 410.12,492.97 407.39,492.95 404.65,492.93 401.91,492.91 399.17,492.88 396.44,492.86 393.70,492.83 390.96,492.79 388.23,492.76 385.49,492.72 382.75,492.67 380.02,492.62 377.28,492.56 374.54,492.50 371.80,492.43 369.07,492.35 366.33,492.26 363.59,492.16 360.86,492.05 358.12,491.93 355.38,491.80 352.65,491.65 349.91,491.48 347.17,491.30 344.44,491.09 341.70,490.86 338.96,490.60 336.22,490.32 333.49,490.01 330.75,489.66 328.01,489.27 325.28,488.84 322.54,488.36 319.80,487.83 317.07,487.23 314.33,486.57 311.59,485.85 308.86,485.06 306.12,484.17 303.38,483.19 300.64,482.10 297.91,480.90 295.17,479.58 292.43,478.10 289.70,476.47 286.96,474.69 284.22,472.71 281.49,470.53 278.75,468.13 276.01,465.49 273.27,462.63 270.54,459.49 267.80,456.04 265.06,452.30 262.33,448.23 259.59,443.80 256.85,439.00 254.12,433.78 251.38,428.19 248.64,422.14 245.91,415.74 243.17,408.85 240.43,401.60 237.69,393.79 234.96,385.58 232.22,377.05 229.48,368.05 226.75,358.62 224.01,348.97 221.27,338.87 218.54,328.62 215.80,318.14 213.06,307.44 210.32,296.69 207.59,285.89 204.85,275.12 202.11,264.33 199.38,253.74 196.64,243.37 193.90,233.09 191.17,223.09 188.43,213.45 185.69,204.10 182.96,195.18 180.22,186.54 177.48,178.29 174.74,170.51 172.01,163.12 169.27,156.15 166.53,149.63 163.80,143.47 161.06,137.83 158.32,132.53 155.59,127.57 152.85,123.01 150.11,118.85 147.38,114.97 144.64,111.43 141.90,108.15 139.16,105.11 136.43,102.41 133.69,99.92 130.95,97.67 128.22,95.60 125.48,93.78 122.74,92.13 120.01,90.64 117.27,89.29 114.53,88.08 111.79,86.94 109.06,86.02 106.32,85.16 103.58,84.38 100.85,83.67 98.11,83.04 95.37,82.47 92.64,81.94 89.90,81.46 87.16,81.04 84.43,80.69 81.69,80.33 78.95,80.05 76.21,79.76 73.48,79.51 70.74,79.28 68.00,79.07 65.27,78.88" style="stroke-width: 1.07;stroke: none;stroke-linecap: butt;"/>
<polygon points="65.27,45.56 68.00,45.56 70.74,45.56 73.48,45.56 76.21,45.56 78.95,45.57 81.69,45.57 84.43,45.57 87.16,45.58 89.90,45.59 92.64,45.61 95.37,45.62 98.11,45.65 100.85,45.69 103.58,45.73 106.32,45.80 109.06,45.90 111.79,46.02 114.53,46.20 117.27,46.45 120.01,46.79 122.74,47.25 125.48,47.89 128.22,48.77 130.95,49.98 133.69,51.63 136.43,53.90 139.16,56.98 141.90,61.18 144.64,66.83 147.38,74.36 150.11,84.35 152.85,97.38 155.59,113.77 158.32,132.85 161.06,154.42 163.80,179.12 166.53,206.76 169.27,236.64 172.01,267.81 174.74,298.95 177.48,328.97 180.22,356.87 182.96,381.88 185.69,403.61 188.43,422.01 191.17,437.21 193.90,449.53 196.64,459.37 199.38,467.14 202.11,473.20 204.85,477.90 207.59,481.52 210.32,484.30 213.06,486.42 215.80,488.04 218.54,489.27 221.27,490.21 224.01,490.92 226.75,491.45 229.48,491.86 232.22,492.17 234.96,492.40 237.69,492.58 240.43,492.71 243.17,492.81 245.91,492.89 248.64,492.95 251.38,492.99 254.12,493.02 256.85,493.05 259.59,493.07 262.33,493.08 265.06,493.09 267.80,493.10 270.54,493.11 273.27,493.11 276.01,493.11 278.75,493.12 281.49,493.12 284.22,493.12 286.96,493.12 289.70,493.12 292.43,493.12 295.17,493.12 297.91,493.12 300.64,493.12 303.38,493.12 306.12,493.12 308.86,493.12 311.59,493.12 314.33,493.13 317.07,493.13 319.80,493.13 322.54,493.13 325.28,493.13 328.01,493.13 330.75,493.13 333.49,493.13 336.22,493.13 338.96,493.13 341.70,493.13 344.44,493.13 347.17,493.13 349.91,493.13 352.65,493.13 355.38,493.13 358.12,493.13 360.86,493.13 363.59,493.13 366.33,493.13 369.07,493.13 371.80,493.13 374.54,493.13 377.28,493.13 380.02,493.13 382.75,493.13 385.49,493.13 388.23,493.13 390.96,493.13 393.70,493.13 396.44,493.13 399.17,493.13 401.91,493.13 404.65,493.13 407.39,493.13 410.12,493.13 412.86,493.13 415.60,493.13 418.33,493.13 421.07,493.13 423.81,493.13 426.54,493.13 429.28,493.13 432.02,493.13 434.75,493.13 437.49,493.13 440.23,493.13 442.97,493.13 445.70,493.13 448.44,493.13 451.18,493.13 453.91,493.13 456.65,493.13 459.39,493.13 462.12,493.13 464.86,493.13 467.60,493.13 470.34,493.13 473.07,493.13 475.81,493.13 478.55,493.13 481.28,493.13 484.02,493.13 486.76,493.13 489.49,493.13 492.23,493.13 494.97,493.13 497.70,493.13 500.44,493.13 503.18,493.13 505.92,493.13 508.65,493.13 511.39,493.13 514.13,493.13 516.86,493.13 519.60,493.13 522.34,493.13 525.07,493.13 527.81,493.13 530.55,493.13 533.28,493.13 536.02,493.13 538.76,493.13 541.50,493.13 544.23,493.13 546.97,493.13 549.71,493.13 552.44,493.13 555.18,493.13 557.92,493.13 560.65,493.13 563.39,493.13 566.13,493.13 568.87,493.13 571.60,493.13 574.34,493.13 577.08,493.13 579.81,493.13 582.55,493.13 585.29,493.13 588.02,493.13 590.76,493.13 593.50,493.13 596.23,493.13 598.97,493.13 601.71,493.13 604.45,493.13 607.18,493.13 609.92,493.13 609.92,493.13 607.18,493.13 604.45,493.13 601.71,493.13 598.97,493.13 596.23,493.13 593.50,493.13 590.76,493.13 588.02,493.13 585.29,493.13 582.55,493.13 579.81,493.13 577.08,493.13 574.34,493.13 571.60,493.13 568.87,493.13 566.13,493.13 563.39,493.13 560.65,493.13 557.92,493.13 555.18,493.13 552.44,493.13 549.71,493.13 546.97,493.13 544.23,493.13 541.50,493.13 538.76,493.13 536.02,493.13 533.28,493.13 530.55,493.13 527.81,493.13 525.07,493.13 522.34,493.13 519.60,493.13 516.86,493.13 514.13,493.13 511.39,493.13 508.65,493.13 505.92,493.13 503.18,493.13 500.44,493.13 497.70,493.13 494.97,493.13 492.23,493.13 489.49,493.13 486.76,493.13 484.02,493.13 481.28,493.13 478.55,493.13 475.81,493.13 473.07,493.13 470.34,493.13 467.60,493.13 464.86,493.13 462.12,493.13 459.39,493.13 456.65,493.13 453.91,493.13 451.18,493.13 448.44,493.13 445.70,493.13 442.97,493.13 440.23,493.13 437.49,493.13 434.75,493.13 432.02,493.13 429.28,493.13 426.54,493.13 423.81,493.13 421.07,493.13 418.33,493.13 415.60,493.13 412.86,493.13 410.12,493.13 407.39,493.13 404.65,493.13 401.91,493.13 399.17,493.13 396.44,493.13 393.70,493.13 390.96,493.13 388.23,493.13 385.49,493.13 382.75,493.13 380.02,493.13 377.28,493.13 374.54,493.13 371.80,493.13 369.07,493.13 366.33,493.13 363.59,493.13 360.86,493.13 358.12,493.13 355.38,493.13 352.65,493.13 349.91,493.13 347.17,493.13 344.44,493.13 341.70,493.13 338.96,493.13 336.22,493.13 333.49,493.13 330.75,493.13 328.01,493.13 325.28,493.13 322.54,493.13 319.80,493.13 317.07,493.13 314.33,493.13 311.59,493.13 308.86,493.13 306.12,493.13 303.38,493.13 300.64,493.13 297.91,493.13 295.17,493.13 292.43,493.12 289.70,493.12 286.96,493.12 284.22,493.12 281.49,493.12 278.75,493.12 276.01,493.12 273.27,493.12 270.54,493.12 267.80,493.12 265.06,493.12 262.33,493.12 259.59,493.11 256.85,493.11 254.12,493.10 251.38,493.09 248.64,493.08 245.91,493.07 243.17,493.04 240.43,493.01 237.69,492.97 234.96,492.91 232.22,492.82 229.48,492.71 226.75,492.55 224.01,492.34 221.27,492.04 218.54,491.63 215.80,491.06 213.06,490.28 210.32,489.20 207.59,487.73 204.85,485.72 202.11,482.97 199.38,479.23 196.64,474.18 193.90,467.39 191.17,458.37 188.43,446.54 185.69,431.30 182.96,412.08 180.22,388.49 177.48,360.51 174.74,328.67 172.01,294.03 169.27,258.13 166.53,222.75 163.80,189.68 161.06,160.17 158.32,134.93 155.59,114.94 152.85,100.07 150.11,88.01 147.38,78.39 144.64,70.83 141.90,64.92 139.16,60.35 136.43,56.82 133.69,54.12 130.95,52.06 128.22,50.49 125.48,49.29 122.74,48.39 120.01,47.70 117.27,47.18 114.53,46.78 111.79,46.48 109.06,46.26 106.32,46.09 103.58,45.96 100.85,45.86 98.11,45.78 95.37,45.73 92.64,45.69 89.90,45.65 87.16,45.63 84.43,45.61 81.69,45.60 78.95,45.59 76.21,45.58 73.48,45.57 70.74,45.57 68.00,45.57 65.27,45.56" style="stroke-width: 0.00;stroke: none;stroke-linecap: butt;fill: #00BFC4;fill-opacity: 0.20;" />
<polyline points="65.27,45.56 68.00,45.56 70.74,45.56 73.48,45.56 76.21,45.56 78.95,45.57 81.69,45.57 84.43,45.57 87.16,45.58 89.90,45.59 92.64,45.61 95.37,45.62 98.11,45.65 100.85,45.69 103.58,45.73 106.32,45.80 109.06,45.90 111.79,46.02 114.53,46.20 117.27,46.45 120.01,46.79 122.74,47.25 125.48,47.89 128.22,48.77 130.95,49.98 133.69,51.63 136.43,53.90 139.16,56.98 141.90,61.18 144.64,66.83 147.38,74.36 150.11,84.35 152.85,97.38 155.59,113.77 158.32,132.85 161.06,154.42 163.80,179.12 166.53,206.76 169.27,236.64 172.01,267.81 174.74,298.95 177.48,328.97 180.22,356.87 182.96,381.88 185.69,403.61 188.43,422.01 191.17,437.21 193.90,449.53 196.64,459.37 199.38,467.14 202.11,473.20 204.85,477.90 207.59,481.52 210.32,484.30 213.06,486.42 215.80,488.04 218.54,489.27 221.27,490.21 224.01,490.92 226.75,491.45 229.48,491.86 232.22,492.17 234.96,492.40 237.69,492.58 240.43,492.71 243.17,492.81 245.91,492.89 248.64,492.95 251.38,492.99 254.12,493.02 256.85,493.05 259.59,493.07 262.33,493.08 265.06,493.09 267.80,493.10 270.54,493.11 273.27,493.11 276.01,493.11 278.75,493.12 281.49,493.12 284.22,493.12 286.96,493.12 289.70,493.12 292.43,493.12 295.17,493.12 297.91,493.12 300.64,493.12 303.38,493.12 306.12,493.12 308.86,493.12 311.59,493.12 314.33,493.13 317.07,493.13 319.80,493.13 322.54,493.13 325.28,493.13 328.01,493.13 330.75,493.13 333.49,493.13 336.22,493.13 338.96,493.13 341.70,493.13 344.44,493.13 347.17,493.13 349.91,493.13 352.65,493.13 355.38,493.13 358.12,493.13 360.86,493.13 363.59,493.13 366.33,493.13 369.07,493.13 371.80,493.13 374.54,493.13 377.28,493.13 380.02,493.13 382.75,493.13 385.49,493.13 388.23,493.13 390.96,493.13 393.70,493.13 396.44,493.13 399.17,493.13 401.91,493.13 404.65,493.13 407.39,493.13 410.12,493.13 412.86,493.13 415.60,493.13 418.33,493.13 421.07,493.13 423.81,493.13 426.54,493.13 429.28,493.13 432.02,493.13 434.75,493.13 437.49,493.13 440.23,493.13 442.97,493.13 445.70,493.13 448.44,493.13 451.18,493.13 453.91,493.13 456.65,493.13 459.39,493.13 462.12,493.13 464.86,493.13 467.60,493.13 470.34,493.13 473.07,493.13 475.81,493.13 478.55,493.13 481.28,493.13 484.02,493.13 486.76,493.13 489.49,493.13 492.23,493.13 494.97,493.13 497.70,493.13 500.44,493.13 503.18,493.13 505.92,493.13 508.65,493.13 511.39,493.13 514.13,493.13 516.86,493.13 519.60,493.13 522.34,493.13 525.07,493.13 527.81,493.13 530.55,493.13 533.28,493.13 536.02,493.13 538.76,493.13 541.50,493.13 544.23,493.13 546.97,493.13 549.71,493.13 552.44,493.13 555.18,493.13 557.92,493.13 560.65,493.13 563.39,493.13 566.13,493.13 568.87,493.13 571.60,493.13 574.34,493.13 577.08,493.13 579.81,493.13 582.55,493.13 585.29,493.13 588.02,493.13 590.76,493.13 593.50,493.13 596.23,493.13 598.97,493.13 601.71,493.13 604.45,493.13 607.18,493.13 609.92,493.13" style="stroke-width: 1.07;stroke: none;stroke-linecap: butt;"/>
<polyline points="609.92,493.13 607.18,493.13 604.45,493.13 601.71,493.13 598.97,493.13 596.23,493.13 593.50,493.13 590.76,493.13 588.02,493.13 585.29,493.13 582.55,493.13 579.81,493.13 577.08,493.13 574.34,493.13 571.60,493.13 568.87,493.13 566.13,493.13 563.39,493.13 560.65,493.13 557.92,493.13 555.18,493.13 552.44,493.13 549.71,493.13 546.97,493.13 544.23,493.13 541.50,493.13 538.76,493.13 536.02,493.13 533.28,493.13 530.55,493.13 527.81,493.13 525.07,493.13 522.34,493.13 519.60,493.13 516.86,493.13 514.13,493.13 511.39,493.13 508.65,493.13 505.92,493.13 503.18,493.13 500.44,493.13 497.70,493.13 494.97,493.13 492.23,493.13 489.49,493.13 486.76,493.13 484.02,493.13 481.28,493.13 478.55,493.13 475.81,493.13 473.07,493.13 470.34,493.13 467.60,493.13 464.86,493.13 462.12,493.13 459.39,493.13 456.65,493.13 453.91,493.13 451.18,493.13 448.44,493.13 445.70,493.13 442.97,493.13 440.23,493.13 437.49,493.13 434.75,493.13 432.02,493.13 429.28,493.13 426.54,493.13 423.81,493.13 421.07,493.13 418.33,493.13 415.60,493.13 412.86,493.13 410.12,493.13 407.39,493.13 404.65,493.13 401.91,493.13 399.17,493.13 396.44,493.13 393.70,493.13 390.96,493.13 388.23,493.13 385.49,493.13 382.75,493.13 380.02,493.13 377.28,493.13 374.54,493.13 371.80,493.13 369.07,493.13 366.33,493.13 363.59,493.13 360.86,493.13 358.12,493.13 355.38,493.13 352.65,493.13 349.91,493.13 347.17,493.13 344.44,493.13 341.70,493.13 338.96,493.13 336.22,493.13 333.49,493.13 330.75,493.13 328.01,493.13 325.28,493.13 322.54,493.13 319.80,493.13 317.07,493.13 314.33,493.13 311.59,493.13 308.86,493.13 306.12,493.13 303.38,493.13 300.64,493.13 297.91,493.13 295.17,493.13 292.43,493.12 289.70,493.12 286.96,493.12 284.22,493.12 281.49,493.12 278.75,493.12 276.01,493.12 273.27,493.12 270.54,493.12 267.80,493.12 265.06,493.12 262.33,493.12 259.59,493.11 256.85,493.11 254.12,493.10 251.38,493.09 248.64,493.08 245.91,493.07 243.17,493.04 240.43,493.01 237.69,492.97 234.96,492.91 232.22,492.82 229.48,492.71 226.75,492.55 224.01,492.34 221.27,492.04 218.54,491.63 215.80,491.06 213.06,490.28 210.32,489.20 207.59,487.73 204.85,485.72 202.11,482.97 199.38,479.23 196.64,474.18 193.90,467.39 191.17,458.37 188.43,446.54 185.69,431.30 182.96,412.08 180.22,388.49 177.48,360.51 174.74,328.67 172.01,294.03 169.27,258.13 166.53,222.75 163.80,189.68 161.06,160.17 158.32,134.93 155.59,114.94 152.85,100.07 150.11,88.01 147.38,78.39 144.64,70.83 141.90,64.92 139.16,60.35 136.43,56.82 133.69,54.12 130.95,52.06 128.22,50.49 125.48,49.29 122.74,48.39 120.01,47.70 117.27,47.18 114.53,46.78 111.79,46.48 109.06,46.26 106.32,46.09 103.58,45.96 100.85,45.86 98.11,45.78 95.37,45.73 92.64,45.69 89.90,45.65 87.16,45.63 84.43,45.61 81.69,45.60 78.95,45.59 76.21,45.58 73.48,45.57 70.74,45.57 68.00,45.57 65.27,45.56" style="stroke-width: 1.07;stroke: none;stroke-linecap: butt;"/>
<polygon points="65.27,46.13 68.00,46.22 70.74,46.33 73.48,46.46 76.21,46.61 78.95,46.79 81.69,47.00 84.43,47.24 87.16,47.52 89.90,47.85 92.64,48.23 95.37,48.67 98.11,49.19 100.85,49.79 103.58,50.50 106.32,51.32 109.06,52.27 111.79,53.37 114.53,54.65 117.27,56.14 120.01,57.86 122.74,59.85 125.48,62.15 128.22,64.81 130.95,67.87 133.69,71.40 136.43,75.43 139.16,80.02 141.90,85.24 144.64,91.19 147.38,97.91 150.11,105.43 152.85,113.84 155.59,123.17 158.32,133.43 161.06,144.68 163.80,156.88 166.53,169.97 169.27,183.98 172.01,198.75 174.74,214.22 177.48,230.28 180.22,246.68 182.96,263.31 185.69,279.98 188.43,296.53 191.17,312.80 193.90,328.60 196.64,343.74 199.38,358.15 202.11,371.76 204.85,384.50 207.59,396.26 210.32,407.13 213.06,417.01 215.80,425.96 218.54,434.02 221.27,441.24 224.01,447.68 226.75,453.40 229.48,458.47 232.22,462.93 234.96,466.86 237.69,470.30 240.43,473.30 243.17,475.93 245.91,478.23 248.64,480.23 251.38,481.97 254.12,483.48 256.85,484.79 259.59,485.92 262.33,486.90 265.06,487.75 267.80,488.49 270.54,489.12 273.27,489.67 276.01,490.14 278.75,490.55 281.49,490.91 284.22,491.21 286.96,491.48 289.70,491.70 292.43,491.90 295.17,492.07 297.91,492.21 300.64,492.34 303.38,492.45 306.12,492.54 308.86,492.62 311.59,492.69 314.33,492.75 317.07,492.80 319.80,492.85 322.54,492.89 325.28,492.92 328.01,492.95 330.75,492.97 333.49,492.99 336.22,493.01 338.96,493.03 341.70,493.04 344.44,493.05 347.17,493.06 349.91,493.07 352.65,493.08 355.38,493.09 358.12,493.09 360.86,493.10 363.59,493.10 366.33,493.10 369.07,493.11 371.80,493.11 374.54,493.11 377.28,493.11 380.02,493.11 382.75,493.12 385.49,493.12 388.23,493.12 390.96,493.12 393.70,493.12 396.44,493.12 399.17,493.12 401.91,493.12 404.65,493.12 407.39,493.12 410.12,493.12 412.86,493.12 415.60,493.12 418.33,493.12 421.07,493.12 423.81,493.12 426.54,493.12 429.28,493.12 432.02,493.12 434.75,493.12 437.49,493.12 440.23,493.12 442.97,493.12 445.70,493.12 448.44,493.12 451.18,493.13 453.91,493.13 456.65,493.13 459.39,493.13 462.12,493.13 464.86,493.13 467.60,493.13 470.34,493.13 473.07,493.13 475.81,493.13 478.55,493.13 481.28,493.13 484.02,493.13 486.76,493.13 489.49,493.13 492.23,493.13 494.97,493.13 497.70,493.13 500.44,493.13 503.18,493.13 505.92,493.13 508.65,493.13 511.39,493.13 514.13,493.13 516.86,493.13 519.60,493.13 522.34,493.13 525.07,493.13 527.81,493.13 530.55,493.13 533.28,493.13 536.02,493.13 538.76,493.13 541.50,493.13 544.23,493.13 546.97,493.13 549.71,493.13 552.44,493.13 555.18,493.13 557.92,493.13 560.65,493.13 563.39,493.13 566.13,493.13 568.87,493.13 571.60,493.13 574.34,493.13 577.08,493.13 579.81,493.13 582.55,493.13 585.29,493.13 588.02,493.13 590.76,493.13 593.50,493.13 596.23,493.13 598.97,493.13 601.71,493.13 604.45,493.13 607.18,493.13 609.92,493.13 609.92,493.13 607.18,493.13 604.45,493.13 601.71,493.13 598.97,493.13 596.23,493.13 593.50,493.13 590.76,493.13 588.02,493.13 585.29,493.13 582.55,493.13 579.81,493.13 577.08,493.13 574.34,493.13 571.60,493.13 568.87,493.13 566.13,493.13 563.39,493.13 560.65,493.13 557.92,493.13 555.18,493.13 552.44,493.13 549.71,493.13 546.97,493.13 544.23,493.13 541.50,493.13 538.76,493.13 536.02,493.13 533.28,493.13 530.55,493.13 527.81,493.13 525.07,493.13 522.34,493.13 519.60,493.13 516.86,493.13 514.13,493.13 511.39,493.13 508.65,493.13 505.92,493.13 503.18,493.13 500.44,493.13 497.70,493.13 494.97,493.13 492.23,493.13 489.49,493.13 486.76,493.13 484.02,493.13 481.28,493.13 478.55,493.13 475.81,493.13 473.07,493.13 470.34,493.13 467.60,493.13 464.86,493.13 462.12,493.13 459.39,493.13 456.65,493.13 453.91,493.13 451.18,493.13 448.44,493.13 445.70,493.13 442.97,493.13 440.23,493.13 437.49,493.12 434.75,493.12 432.02,493.12 429.28,493.12 426.54,493.12 423.81,493.12 421.07,493.12 418.33,493.12 415.60,493.12 412.86,493.12 410.12,493.12 407.39,493.12 404.65,493.12 401.91,493.12 399.17,493.12 396.44,493.12 393.70,493.12 390.96,493.12 388.23,493.12 385.49,493.12 382.75,493.12 380.02,493.12 377.28,493.12 374.54,493.12 371.80,493.12 369.07,493.11 366.33,493.11 363.59,493.11 360.86,493.11 358.12,493.10 355.38,493.10 352.65,493.10 349.91,493.09 347.17,493.08 344.44,493.08 341.70,493.07 338.96,493.06 336.22,493.05 333.49,493.04 330.75,493.02 328.01,493.01 325.28,492.99 322.54,492.96 319.80,492.93 317.07,492.90 314.33,492.87 311.59,492.82 308.86,492.77 306.12,492.71 303.38,492.64 300.64,492.56 297.91,492.47 295.17,492.36 292.43,492.23 289.70,492.08 286.96,491.90 284.22,491.70 281.49,491.46 278.75,491.18 276.01,490.86 273.27,490.48 270.54,490.04 267.80,489.53 265.06,488.93 262.33,488.24 259.59,487.43 256.85,486.49 254.12,485.39 251.38,484.11 248.64,482.64 245.91,480.93 243.17,478.95 240.43,476.66 237.69,474.02 234.96,470.98 232.22,467.48 229.48,463.47 226.75,458.88 224.01,453.64 221.27,447.69 218.54,440.94 215.80,433.36 213.06,424.87 210.32,415.41 207.59,404.92 204.85,393.43 202.11,380.90 199.38,367.40 196.64,352.97 193.90,337.68 191.17,321.68 188.43,305.05 185.69,288.07 182.96,270.89 180.22,253.62 177.48,236.58 174.74,219.96 172.01,203.90 169.27,188.57 166.53,174.11 163.80,160.54 161.06,148.02 158.32,136.53 155.59,126.03 152.85,116.55 150.11,108.04 147.38,100.43 144.64,93.61 141.90,87.56 139.16,82.21 136.43,77.49 133.69,73.33 130.95,69.68 128.22,66.49 125.48,63.72 122.74,61.30 120.01,59.18 117.27,57.34 114.53,55.75 111.79,54.36 109.06,53.17 106.32,52.13 103.58,51.23 100.85,50.45 98.11,49.78 95.37,49.20 92.64,48.70 89.90,48.27 87.16,47.90 84.43,47.57 81.69,47.30 78.95,47.06 76.21,46.85 73.48,46.67 70.74,46.52 68.00,46.38 65.27,46.27" style="stroke-width: 0.00;stroke: none;stroke-linecap: butt;fill: #C77CFF;fill-opacity: 0.20;" />
<polyline points="65.27,46.13 68.00,46.22 70.74,46.33 73.48,46.46 76.21,46.61 78.95,46.79 81.69,47.00 84.43,47.24 87.16,47.52 89.90,47.85 92.64,48.23 95.37,48.67 98.11,49.19 100.85,49.79 103.58,50.50 106.32,51.32 109.06,52.27 111.79,53.37 114.53,54.65 117.27,56.14 120.01,57.86 122.74,59.85 125.48,62.15 128.22,64.81 130.95,67.87 133.69,71.40 136.43,75.43 139.16,80.02 141.90,85.24 144.64,91.19 147.38,97.91 150.11,105.43 152.85,113.84 155.59,123.17 158.32,133.43 161.06,144.68 163.80,156.88 166.53,169.97 169.27,183.98 172.01,198.75 174.74,214.22 177.48,230.28 180.22,246.68 182.96,263.31 185.69,279.98 188.43,296.53 191.17,312.80 193.90,328.60 196.64,343.74 199.38,358.15 202.11,371.76 204.85,384.50 207.59,396.26 210.32,407.13 213.06,417.01 215.80,425.96 218.54,434.02 221.27,441.24 224.01,447.68 226.75,453.40 229.48,458.47 232.22,462.93 234.96,466.86 237.69,470.30 240.43,473.30 243.17,475.93 245.91,478.23 248.64,480.23 251.38,481.97 254.12,483.48 256.85,484.79 259.59,485.92 262.33,486.90 265.06,487.75 267.80,488.49 270.54,489.12 273.27,489.67 276.01,490.14 278.75,490.55 281.49,490.91 284.22,491.21 286.96,491.48 289.70,491.70 292.43,491.90 295.17,492.07 297.91,492.21 300.64,492.34 303.38,492.45 306.12,492.54 308.86,492.62 311.59,492.69 314.33,492.75 317.07,492.80 319.80,492.85 322.54,492.89 325.28,492.92 328.01,492.95 330.75,492.97 333.49,492.99 336.22,493.01 338.96,493.03 341.70,493.04 344.44,493.05 347.17,493.06 349.91,493.07 352.65,493.08 355.38,493.09 358.12,493.09 360.86,493.10 363.59,493.10 366.33,493.10 369.07,493.11 371.80,493.11 374.54,493.11 377.28,493.11 380.02,493.11 382.75,493.12 385.49,493.12 388.23,493.12 390.96,493.12 393.70,493.12 396.44,493.12 399.17,493.12 401.91,493.12 404.65,493.12 407.39,493.12 410.12,493.12 412.86,493.12 415.60,493.12 418.33,493.12 421.07,493.12 423.81,493.12 426.54,493.12 429.28,493.12 432.02,493.12 434.75,493.12 437.49,493.12 440.23,493.12 442.97,493.12 445.70,493.12 448.44,493.12 451.18,493.13 453.91,493.13 456.65,493.13 459.39,493.13 462.12,493.13 464.86,493.13 467.60,493.13 470.34,493.13 473.07,493.13 475.81,493.13 478.55,493.13 481.28,493.13 484.02,493.13 486.76,493.13 489.49,493.13 492.23,493.13 494.97,493.13 497.70,493.13 500.44,493.13 503.18,493.13 505.92,493.13 508.65,493.13 511.39,493.13 514.13,493.13 516.86,493.13 519.60,493.13 522.34,493.13 525.07,493.13 527.81,493.13 530.55,493.13 533.28,493.13 536.02,493.13 538.76,493.13 541.50,493.13 544.23,493.13 546.97,493.13 549.71,493.13 552.44,493.13 555.18,493.13 557.92,493.13 560.65,493.13 563.39,493.13 566.13,493.13 568.87,493.13 571.60,493.13 574.34,493.13 577.08,493.13 579.81,493.13 582.55,493.13 585.29,493.13 588.02,493.13 590.76,493.13 593.50,493.13 596.23,493.13 598.97,493.13 601.71,493.13 604.45,493.13 607.18,493.13 609.92,493.13" style="stroke-width: 1.07;stroke: none;stroke-linecap: butt;"/>
<polyline points="609.92,493.13 607.18,493.13 604.45,493.13 601.71,493.13 598.97,493.13 596.23,493.13 593.50,493.13 590.76,493.13 588.02,493.13 585.29,493.13 582.55,493.13 579.81,493.13 577.08,493.13 574.34,493.13 571.60,493.13 568.87,493.13 566.13,493.13 563.39,493.13 560.65,493.13 557.92,493.13 555.18,493.13 552.44,493.13 549.71,493.13 546.97,493.13 544.23,493.13 541.50,493.13 538.76,493.13 536.02,493.13 533.28,493.13 530.55,493.13 527.81,493.13 525.07,493.13 522.34,493.13 519.60,493.13 516.86,493.13 514.13,493.13 511.39,493.13 508.65,493.13 505.92,493.13 503.18,493.13 500.44,493.13 497.70,493.13 494.97,493.13 492.23,493.13 489.49,493.13 486.76,493.13 484.02,493.13 481.28,493.13 478.55,493.13 475.81,493.13 473.07,493.13 470.34,493.13 467.60,493.13 464.86,493.13 462.12,493.13 459.39,493.13 456.65,493.13 453.91,493.13 451.18,493.13 448.44,493.13 445.70,493.13 442.97,493.13 440.23,493.13 437.49,493.12 434.75,493.12 432.02,493.12 429.28,493.12 426.54,493.12 423.81,493.12 421.07,493.12 418.33,493.12 415.60,493.12 412.86,493.12 410.12,493.12 407.39,493.12 404.65,493.12 401.91,493.12 399.17,493.12 396.44,493.12 393.70,493.12 390.96,493.12 388.23,493.12 385.49,493.12 382.75,493.12 380.02,493.12 377.28,493.12 374.54,493.12 371.80,493.12 369.07,493.11 366.33,493.11 363.59,493.11 360.86,493.11 358.12,493.10 355.38,493.10 352.65,493.10 349.91,493.09 347.17,493.08 344.44,493.08 341.70,493.07 338.96,493.06 336.22,493.05 333.49,493.04 330.75,493.02 328.01,493.01 325.28,492.99 322.54,492.96 319.80,492.93 317.07,492.90 314.33,492.87 311.59,492.82 308.86,492.77 306.12,492.71 303.38,492.64 300.64,492.56 297.91,492.47 295.17,492.36 292.43,492.23 289.70,492.08 286.96,491.90 284.22,491.70 281.49,491.46 278.75,491.18 276.01,490.86 273.27,490.48 270.54,490.04 267.80,489.53 265.06,488.93 262.33,488.24 259.59,487.43 256.85,486.49 254.12,485.39 251.38,484.11 248.64,482.64 245.91,480.93 243.17,478.95 240.43,476.66 237.69,474.02 234.96,470.98 232.22,467.48 229.48,463.47 226.75,458.88 224.01,453.64 221.27,447.69 218.54,440.94 215.80,433.36 213.06,424.87 210.32,415.41 207.59,404.92 204.85,393.43 202.11,380.90 199.38,367.40 196.64,352.97 193.90,337.68 191.17,321.68 188.43,305.05 185.69,288.07 182.96,270.89 180.22,253.62 177.48,236.58 174.74,219.96 172.01,203.90 169.27,188.57 166.53,174.11 163.80,160.54 161.06,148.02 158.32,136.53 155.59,126.03 152.85,116.55 150.11,108.04 147.38,100.43 144.64,93.61 141.90,87.56 139.16,82.21 136.43,77.49 133.69,73.33 130.95,69.68 128.22,66.49 125.48,63.72 122.74,61.30 120.01,59.18 117.27,57.34 114.53,55.75 111.79,54.36 109.06,53.17 106.32,52.13 103.58,51.23 100.85,50.45 98.11,49.78 95.37,49.20 92.64,48.70 89.90,48.27 87.16,47.90 84.43,47.57 81.69,47.30 78.95,47.06 76.21,46.85 73.48,46.67 70.74,46.52 68.00,46.38 65.27,46.27" style="stroke-width: 1.07;stroke: none;stroke-linecap: butt;"/>
<circle cx="65.27" cy="45.56" r="2.06" style="stroke-width: 0.71;stroke: #F8766D;stroke-opacity: 0.70;fill: #F8766D;fill-opacity: 0.70;"/>
<circle cx="65.27" cy="45.56" r="2.06" style="stroke-width: 0.71;stroke: #F8766D;stroke-opacity: 0.70;fill: #F8766D;fill-opacity: 0.70;"/>
<circle cx="65.27" cy="45.56" r="2.06" style="stroke-width: 0.71;stroke: #F8766D;stroke-opacity: 0.70;fill: #F8766D;fill-opacity: 0.70;"/>
<circle cx="65.27" cy="60.45" r="2.06" style="stroke-width: 0.71;stroke: #7CAE00;stroke-opacity: 0.70;fill: #7CAE00;fill-opacity: 0.70;"/>
<circle cx="65.27" cy="92.40" r="2.06" style="stroke-width: 0.71;stroke: #7CAE00;stroke-opacity: 0.70;fill: #7CAE00;fill-opacity: 0.70;"/>
<circle cx="65.27" cy="72.73" r="2.06" style="stroke-width: 0.71;stroke: #7CAE00;stroke-opacity: 0.70;fill: #7CAE00;fill-opacity: 0.70;"/>
<circle cx="65.27" cy="45.56" r="2.06" style="stroke-width: 0.71;stroke: #00BFC4;stroke-opacity: 0.70;fill: #00BFC4;fill-opacity: 0.70;"/>
<circle cx="65.27" cy="45.56" r="2.06" style="stroke-width: 0.71;stroke: #00BFC4;stroke-opacity: 0.70;fill: #00BFC4;fill-opacity: 0.70;"/>
<circle cx="65.27" cy="45.56" r="2.06" style="stroke-width: 0.71;stroke: #00BFC4;stroke-opacity: 0.70;fill: #00BFC4;fill-opacity: 0.70;"/>
<circle cx="65.27" cy="45.56" r="2.06" style="stroke-width: 0.71;stroke: #C77CFF;stroke-opacity: 0.70;fill: #C77CFF;fill-opacity: 0.70;"/>
<circle cx="65.27" cy="45.56" r="2.06" style="stroke-width: 0.71;stroke: #C77CFF;stroke-opacity: 0.70;fill: #C77CFF;fill-opacity: 0.70;"/>
<circle cx="65.27" cy="45.56" r="2.06" style="stroke-width: 0.71;stroke: #C77CFF;stroke-opacity: 0.70;fill: #C77CFF;fill-opacity: 0.70;"/>
<circle cx="156.56" cy="114.43" r="2.06" style="stroke-width: 0.71;stroke: #F8766D;stroke-opacity: 0.70;fill: #F8766D;fill-opacity: 0.70;"/>
<circle cx="156.56" cy="119.39" r="2.06" style="stroke-width: 0.71;stroke: #F8766D;stroke-opacity: 0.70;fill: #F8766D;fill-opacity: 0.70;"/>
<circle cx="156.56" cy="96.41" r="2.06" style="stroke-width: 0.71;stroke: #F8766D;stroke-opacity: 0.70;fill: #F8766D;fill-opacity: 0.70;"/>
<circle cx="156.56" cy="112.70" r="2.06" style="stroke-width: 0.71;stroke: #7CAE00;stroke-opacity: 0.70;fill: #7CAE00;fill-opacity: 0.70;"/>
<circle cx="156.56" cy="119.60" r="2.06" style="stroke-width: 0.71;stroke: #7CAE00;stroke-opacity: 0.70;fill: #7CAE00;fill-opacity: 0.70;"/>
<circle cx="156.56" cy="144.94" r="2.06" style="stroke-width: 0.71;stroke: #7CAE00;stroke-opacity: 0.70;fill: #7CAE00;fill-opacity: 0.70;"/>
<circle cx="156.56" cy="130.03" r="2.06" style="stroke-width: 0.71;stroke: #00BFC4;stroke-opacity: 0.70;fill: #00BFC4;fill-opacity: 0.70;"/>
<circle cx="156.56" cy="120.49" r="2.06" style="stroke-width: 0.71;stroke: #00BFC4;stroke-opacity: 0.70;fill: #00BFC4;fill-opacity: 0.70;"/>
<circle cx="156.56" cy="120.50" r="2.06" style="stroke-width: 0.71;stroke: #00BFC4;stroke-opacity: 0.70;fill: #00BFC4;fill-opacity: 0.70;"/>
<circle cx="156.56" cy="136.13" r="2.06" style="stroke-width: 0.71;stroke: #C77CFF;stroke-opacity: 0.70;fill: #C77CFF;fill-opacity: 0.70;"/>
<circle cx="156.56" cy="181.22" r="2.06" style="stroke-width: 0.71;stroke: #C77CFF;stroke-opacity: 0.70;fill: #C77CFF;fill-opacity: 0.70;"/>
<circle cx="156.56" cy="67.20" r="2.06" style="stroke-width: 0.71;stroke: #C77CFF;stroke-opacity: 0.70;fill: #C77CFF;fill-opacity: 0.70;"/>
<circle cx="243.68" cy="248.07" r="2.06" style="stroke-width: 0.71;stroke: #F8766D;stroke-opacity: 0.70;fill: #F8766D;fill-opacity: 0.70;"/>
<circle cx="243.68" cy="317.51" r="2.06" style="stroke-width: 0.71;stroke: #F8766D;stroke-opacity: 0.70;fill: #F8766D;fill-opacity: 0.70;"/>
<circle cx="243.68" cy="312.01" r="2.06" style="stroke-width: 0.71;stroke: #F8766D;stroke-opacity: 0.70;fill: #F8766D;fill-opacity: 0.70;"/>
<circle cx="243.68" cy="483.47" r="2.06" style="stroke-width: 0.71;stroke: #7CAE00;stroke-opacity: 0.70;fill: #7CAE00;fill-opacity: 0.70;"/>
<circle cx="243.68" cy="409.67" r="2.06" style="stroke-width: 0.71;stroke: #7CAE00;stroke-opacity: 0.70;fill: #7CAE00;fill-opacity: 0.70;"/>
<circle cx="243.68" cy="398.15" r="2.06" style="stroke-width: 0.71;stroke: #7CAE00;stroke-opacity: 0.70;fill: #7CAE00;fill-opacity: 0.70;"/>
<circle cx="243.68" cy="493.13" r="2.06" style="stroke-width: 0.71;stroke: #00BFC4;stroke-opacity: 0.70;fill: #00BFC4;fill-opacity: 0.70;"/>
<circle cx="243.68" cy="493.13" r="2.06" style="stroke-width: 0.71;stroke: #00BFC4;stroke-opacity: 0.70;fill: #00BFC4;fill-opacity: 0.70;"/>
<circle cx="243.68" cy="493.13" r="2.06" style="stroke-width: 0.71;stroke: #00BFC4;stroke-opacity: 0.70;fill: #00BFC4;fill-opacity: 0.70;"/>
<circle cx="243.68" cy="493.13" r="2.06" style="stroke-width: 0.71;stroke: #C77CFF;stroke-opacity: 0.70;fill: #C77CFF;fill-opacity: 0.70;"/>
<circle cx="243.68" cy="493.13" r="2.06" style="stroke-width: 0.71;stroke: #C77CFF;stroke-opacity: 0.70;fill: #C77CFF;fill-opacity: 0.70;"/>
<circle cx="243.68" cy="447.54" r="2.06" style="stroke-width: 0.71;stroke: #C77CFF;stroke-opacity: 0.70;fill: #C77CFF;fill-opacity: 0.70;"/>
<circle cx="336.03" cy="485.66" r="2.06" style="stroke-width: 0.71;stroke: #F8766D;stroke-opacity: 0.70;fill: #F8766D;fill-opacity: 0.70;"/>
<circle cx="336.03" cy="493.13" r="2.06" style="stroke-width: 0.71;stroke: #F8766D;stroke-opacity: 0.70;fill: #F8766D;fill-opacity: 0.70;"/>
<circle cx="336.03" cy="493.13" r="2.06" style="stroke-width: 0.71;stroke: #F8766D;stroke-opacity: 0.70;fill: #F8766D;fill-opacity: 0.70;"/>
<circle cx="336.03" cy="493.13" r="2.06" style="stroke-width: 0.71;stroke: #7CAE00;stroke-opacity: 0.70;fill: #7CAE00;fill-opacity: 0.70;"/>
<circle cx="336.03" cy="493.13" r="2.06" style="stroke-width: 0.71;stroke: #7CAE00;stroke-opacity: 0.70;fill: #7CAE00;fill-opacity: 0.70;"/>
<circle cx="336.03" cy="493.13" r="2.06" style="stroke-width: 0.71;stroke: #7CAE00;stroke-opacity: 0.70;fill: #7CAE00;fill-opacity: 0.70;"/>
<circle cx="336.03" cy="493.13" r="2.06" style="stroke-width: 0.71;stroke: #00BFC4;stroke-opacity: 0.70;fill: #00BFC4;fill-opacity: 0.70;"/>
<circle cx="336.03" cy="493.13" r="2.06" style="stroke-width: 0.71;stroke: #00BFC4;stroke-opacity: 0.70;fill: #00BFC4;fill-opacity: 0.70;"/>
<circle cx="336.03" cy="493.13" r="2.06" style="stroke-width: 0.71;stroke: #00BFC4;stroke-opacity: 0.70;fill: #00BFC4;fill-opacity: 0.70;"/>
<circle cx="336.03" cy="493.13" r="2.06" style="stroke-width: 0.71;stroke: #C77CFF;stroke-opacity: 0.70;fill: #C77CFF;fill-opacity: 0.70;"/>
<circle cx="336.03" cy="493.13" r="2.06" style="stroke-width: 0.71;stroke: #C77CFF;stroke-opacity: 0.70;fill: #C77CFF;fill-opacity: 0.70;"/>
<circle cx="336.03" cy="493.13" r="2.06" style="stroke-width: 0.71;stroke: #C77CFF;stroke-opacity: 0.70;fill: #C77CFF;fill-opacity: 0.70;"/>
<circle cx="427.33" cy="493.13" r="2.06" style="stroke-width: 0.71;stroke: #F8766D;stroke-opacity: 0.70;fill: #F8766D;fill-opacity: 0.70;"/>
<circle cx="427.33" cy="493.13" r="2.06" style="stroke-width: 0.71;stroke: #F8766D;stroke-opacity: 0.70;fill: #F8766D;fill-opacity: 0.70;"/>
<circle cx="427.33" cy="493.13" r="2.06" style="stroke-width: 0.71;stroke: #F8766D;stroke-opacity: 0.70;fill: #F8766D;fill-opacity: 0.70;"/>
<circle cx="427.33" cy="493.13" r="2.06" style="stroke-width: 0.71;stroke: #7CAE00;stroke-opacity: 0.70;fill: #7CAE00;fill-opacity: 0.70;"/>
<circle cx="427.33" cy="493.13" r="2.06" style="stroke-width: 0.71;stroke: #7CAE00;stroke-opacity: 0.70;fill: #7CAE00;fill-opacity: 0.70;"/>
<circle cx="427.33" cy="493.13" r="2.06" style="stroke-width: 0.71;stroke: #7CAE00;stroke-opacity: 0.70;fill: #7CAE00;fill-opacity: 0.70;"/>
<circle cx="427.33" cy="493.13" r="2.06" style="stroke-width: 0.71;stroke: #00BFC4;stroke-opacity: 0.70;fill: #00BFC4;fill-opacity: 0.70;"/>
<circle cx="427.33" cy="493.13" r="2.06" style="stroke-width: 0.71;stroke: #00BFC4;stroke-opacity: 0.70;fill: #00BFC4;fill-opacity: 0.70;"/>
<circle cx="427.33" cy="493.13" r="2.06" style="stroke-width: 0.71;stroke: #00BFC4;stroke-opacity: 0.70;fill: #00BFC4;fill-opacity: 0.70;"/>
<circle cx="427.33" cy="493.13" r="2.06" style="stroke-width: 0.71;stroke: #C77CFF;stroke-opacity: 0.70;fill: #C77CFF;fill-opacity: 0.70;"/>
<circle cx="427.33" cy="493.13" r="2.06" style="stroke-width: 0.71;stroke: #C77CFF;stroke-opacity: 0.70;fill: #C77CFF;fill-opacity: 0.70;"/>
<circle cx="427.33" cy="493.13" r="2.06" style="stroke-width: 0.71;stroke: #C77CFF;stroke-opacity: 0.70;fill: #C77CFF;fill-opacity: 0.70;"/>
<circle cx="518.62" cy="493.13" r="2.06" style="stroke-width: 0.71;stroke: #F8766D;stroke-opacity: 0.70;fill: #F8766D;fill-opacity: 0.70;"/>
<circle cx="518.62" cy="493.13" r="2.06" style="stroke-width: 0.71;stroke: #F8766D;stroke-opacity: 0.70;fill: #F8766D;fill-opacity: 0.70;"/>
<circle cx="518.62" cy="493.13" r="2.06" style="stroke-width: 0.71;stroke: #F8766D;stroke-opacity: 0.70;fill: #F8766D;fill-opacity: 0.70;"/>
<circle cx="518.62" cy="493.13" r="2.06" style="stroke-width: 0.71;stroke: #7CAE00;stroke-opacity: 0.70;fill: #7CAE00;fill-opacity: 0.70;"/>
<circle cx="518.62" cy="493.13" r="2.06" style="stroke-width: 0.71;stroke: #7CAE00;stroke-opacity: 0.70;fill: #7CAE00;fill-opacity: 0.70;"/>
<circle cx="518.62" cy="493.13" r="2.06" style="stroke-width: 0.71;stroke: #7CAE00;stroke-opacity: 0.70;fill: #7CAE00;fill-opacity: 0.70;"/>
<circle cx="518.62" cy="493.13" r="2.06" style="stroke-width: 0.71;stroke: #00BFC4;stroke-opacity: 0.70;fill: #00BFC4;fill-opacity: 0.70;"/>
<circle cx="518.62" cy="493.13" r="2.06" style="stroke-width: 0.71;stroke: #00BFC4;stroke-opacity: 0.70;fill: #00BFC4;fill-opacity: 0.70;"/>
<circle cx="518.62" cy="493.13" r="2.06" style="stroke-width: 0.71;stroke: #00BFC4;stroke-opacity: 0.70;fill: #00BFC4;fill-opacity: 0.70;"/>
<circle cx="518.62" cy="493.13" r="2.06" style="stroke-width: 0.71;stroke: #C77CFF;stroke-opacity: 0.70;fill: #C77CFF;fill-opacity: 0.70;"/>
<circle cx="518.62" cy="493.13" r="2.06" style="stroke-width: 0.71;stroke: #C77CFF;stroke-opacity: 0.70;fill: #C77CFF;fill-opacity: 0.70;"/>
<circle cx="518.62" cy="493.13" r="2.06" style="stroke-width: 0.71;stroke: #C77CFF;stroke-opacity: 0.70;fill: #C77CFF;fill-opacity: 0.70;"/>
<circle cx="609.92" cy="490.46" r="2.06" style="stroke-width: 0.71;stroke: #F8766D;stroke-opacity: 0.70;fill: #F8766D;fill-opacity: 0.70;"/>
<circle cx="609.92" cy="493.13" r="2.06" style="stroke-width: 0.71;stroke: #F8766D;stroke-opacity: 0.70;fill: #F8766D;fill-opacity: 0.70;"/>
<circle cx="609.92" cy="493.13" r="2.06" style="stroke-width: 0.71;stroke: #F8766D;stroke-opacity: 0.70;fill: #F8766D;fill-opacity: 0.70;"/>
<circle cx="609.92" cy="490.50" r="2.06" style="stroke-width: 0.71;stroke: #7CAE00;stroke-opacity: 0.70;fill: #7CAE00;fill-opacity: 0.70;"/>
<circle cx="609.92" cy="493.13" r="2.06" style="stroke-width: 0.71;stroke: #7CAE00;stroke-opacity: 0.70;fill: #7CAE00;fill-opacity: 0.70;"/>
<circle cx="609.92" cy="493.13" r="2.06" style="stroke-width: 0.71;stroke: #7CAE00;stroke-opacity: 0.70;fill: #7CAE00;fill-opacity: 0.70;"/>
<circle cx="609.92" cy="493.13" r="2.06" style="stroke-width: 0.71;stroke: #00BFC4;stroke-opacity: 0.70;fill: #00BFC4;fill-opacity: 0.70;"/>
<circle cx="609.92" cy="493.13" r="2.06" style="stroke-width: 0.71;stroke: #00BFC4;stroke-opacity: 0.70;fill: #00BFC4;fill-opacity: 0.70;"/>
<circle cx="609.92" cy="492.84" r="2.06" style="stroke-width: 0.71;stroke: #00BFC4;stroke-opacity: 0.70;fill: #00BFC4;fill-opacity: 0.70;"/>
<circle cx="609.92" cy="488.40" r="2.06" style="stroke-width: 0.71;stroke: #C77CFF;stroke-opacity: 0.70;fill: #C77CFF;fill-opacity: 0.70;"/>
<circle cx="609.92" cy="493.13" r="2.06" style="stroke-width: 0.71;stroke: #C77CFF;stroke-opacity: 0.70;fill: #C77CFF;fill-opacity: 0.70;"/>
<circle cx="609.92" cy="493.13" r="2.06" style="stroke-width: 0.71;stroke: #C77CFF;stroke-opacity: 0.70;fill: #C77CFF;fill-opacity: 0.70;"/>
<polyline points="65.27,50.76 68.00,51.17 70.74,51.60 73.48,52.07 76.21,52.57 78.95,53.11 81.69,53.70 84.43,54.32 87.16,55.00 89.90,55.72 92.64,56.50 95.37,57.34 98.11,58.24 100.85,59.21 103.58,60.25 106.32,61.37 109.06,62.57 111.79,63.86 114.53,65.24 117.27,66.72 120.01,68.31 122.74,70.01 125.48,71.83 128.22,73.77 130.95,75.85 133.69,78.08 136.43,80.45 139.16,82.98 141.90,85.68 144.64,88.56 147.38,91.62 150.11,94.87 152.85,98.32 155.59,101.98 158.32,105.86 161.06,109.96 163.80,114.30 166.53,118.87 169.27,123.68 172.01,128.75 174.74,134.06 177.48,139.63 180.22,145.46 182.96,151.54 185.69,157.87 188.43,164.45 191.17,171.28 193.90,178.34 196.64,185.62 199.38,193.13 202.11,200.83 204.85,208.72 207.59,216.77 210.32,224.98 213.06,233.31 215.80,241.75 218.54,250.26 221.27,258.84 224.01,267.44 226.75,276.06 229.48,284.65 232.22,293.19 234.96,301.67 237.69,310.05 240.43,318.31 243.17,326.43 245.91,334.39 248.64,342.18 251.38,349.77 254.12,357.15 256.85,364.31 259.59,371.24 262.33,377.93 265.06,384.37 267.80,390.56 270.54,396.49 273.27,402.17 276.01,407.60 278.75,412.77 281.49,417.70 284.22,422.37 286.96,426.81 289.70,431.01 292.43,434.99 295.17,438.75 297.91,442.29 300.64,445.63 303.38,448.77 306.12,451.73 308.86,454.50 311.59,457.11 314.33,459.55 317.07,461.84 319.80,463.98 322.54,465.99 325.28,467.86 328.01,469.62 330.75,471.25 333.49,472.78 336.22,474.20 338.96,475.53 341.70,476.77 344.44,477.92 347.17,479.00 349.91,480.00 352.65,480.93 355.38,481.80 358.12,482.60 360.86,483.35 363.59,484.05 366.33,484.70 369.07,485.30 371.80,485.86 374.54,486.38 377.28,486.87 380.02,487.32 382.75,487.73 385.49,488.12 388.23,488.48 390.96,488.81 393.70,489.12 396.44,489.41 399.17,489.68 401.91,489.93 404.65,490.16 407.39,490.37 410.12,490.57 412.86,490.75 415.60,490.92 418.33,491.08 421.07,491.23 423.81,491.37 426.54,491.49 429.28,491.61 432.02,491.72 434.75,491.82 437.49,491.91 440.23,492.00 442.97,492.08 445.70,492.16 448.44,492.23 451.18,492.29 453.91,492.35 456.65,492.41 459.39,492.46 462.12,492.51 464.86,492.55 467.60,492.59 470.34,492.63 473.07,492.67 475.81,492.70 478.55,492.73 481.28,492.76 484.02,492.78 486.76,492.81 489.49,492.83 492.23,492.85 494.97,492.87 497.70,492.89 500.44,492.91 503.18,492.92 505.92,492.94 508.65,492.95 511.39,492.96 514.13,492.97 516.86,492.99 519.60,493.00 522.34,493.00 525.07,493.01 527.81,493.02 530.55,493.03 533.28,493.04 536.02,493.04 538.76,493.05 541.50,493.05 544.23,493.06 546.97,493.06 549.71,493.07 552.44,493.07 555.18,493.08 557.92,493.08 560.65,493.08 563.39,493.09 566.13,493.09 568.87,493.09 571.60,493.09 574.34,493.10 577.08,493.10 579.81,493.10 582.55,493.10 585.29,493.10 588.02,493.10 590.76,493.11 593.50,493.11 596.23,493.11 598.97,493.11 601.71,493.11 604.45,493.11 607.18,493.11 609.92,493.11" style="stroke-width: 1.71;stroke: #F8766D;stroke-linecap: butt;"/>
<polyline points="65.27,75.39 68.00,75.59 70.74,75.82 73.48,76.07 76.21,76.35 78.95,76.66 81.69,77.01 84.43,77.39 87.16,77.81 89.90,78.27 92.64,78.78 95.37,79.35 98.11,79.98 100.85,80.67 103.58,81.43 106.32,82.28 109.06,83.21 111.79,84.24 114.53,85.37 117.27,86.62 120.01,87.99 122.74,89.50 125.48,91.17 128.22,93.00 130.95,95.00 133.69,97.20 136.43,99.61 139.16,102.25 141.90,105.13 144.64,108.28 147.38,111.70 150.11,115.43 152.85,119.48 155.59,123.87 158.32,128.61 161.06,133.73 163.80,139.23 166.53,145.14 169.27,151.47 172.01,158.21 174.74,165.38 177.48,172.99 180.22,181.01 182.96,189.44 185.69,198.28 188.43,207.49 191.17,217.04 193.90,226.92 196.64,237.07 199.38,247.45 202.11,258.02 204.85,268.72 207.59,279.50 210.32,290.30 213.06,301.06 215.80,311.73 218.54,322.25 221.27,332.57 224.01,342.65 226.75,352.43 229.48,361.89 232.22,370.99 234.96,379.71 237.69,388.03 240.43,395.93 243.17,403.40 245.91,410.45 248.64,417.07 251.38,423.27 254.12,429.06 256.85,434.45 259.59,439.45 262.33,444.09 265.06,448.37 267.80,452.32 270.54,455.96 273.27,459.30 276.01,462.36 278.75,465.17 281.49,467.74 284.22,470.08 286.96,472.22 289.70,474.17 292.43,475.95 295.17,477.57 297.91,479.04 300.64,480.37 303.38,481.58 306.12,482.68 308.86,483.68 311.59,484.59 314.33,485.40 317.07,486.15 319.80,486.82 322.54,487.43 325.28,487.98 328.01,488.47 330.75,488.92 333.49,489.33 336.22,489.70 338.96,490.03 341.70,490.33 344.44,490.60 347.17,490.85 349.91,491.07 352.65,491.27 355.38,491.45 358.12,491.61 360.86,491.76 363.59,491.89 366.33,492.01 369.07,492.12 371.80,492.22 374.54,492.31 377.28,492.39 380.02,492.46 382.75,492.52 385.49,492.58 388.23,492.64 390.96,492.68 393.70,492.73 396.44,492.77 399.17,492.80 401.91,492.83 404.65,492.86 407.39,492.89 410.12,492.91 412.86,492.93 415.60,492.95 418.33,492.97 421.07,492.98 423.81,493.00 426.54,493.01 429.28,493.02 432.02,493.03 434.75,493.04 437.49,493.05 440.23,493.06 442.97,493.06 445.70,493.07 448.44,493.07 451.18,493.08 453.91,493.08 456.65,493.09 459.39,493.09 462.12,493.09 464.86,493.10 467.60,493.10 470.34,493.10 473.07,493.10 475.81,493.11 478.55,493.11 481.28,493.11 484.02,493.11 486.76,493.11 489.49,493.11 492.23,493.12 494.97,493.12 497.70,493.12 500.44,493.12 503.18,493.12 505.92,493.12 508.65,493.12 511.39,493.12 514.13,493.12 516.86,493.12 519.60,493.12 522.34,493.12 525.07,493.12 527.81,493.12 530.55,493.12 533.28,493.12 536.02,493.12 538.76,493.12 541.50,493.12 544.23,493.12 546.97,493.12 549.71,493.12 552.44,493.12 555.18,493.12 557.92,493.12 560.65,493.12 563.39,493.12 566.13,493.12 568.87,493.12 571.60,493.12 574.34,493.12 577.08,493.12 579.81,493.12 582.55,493.12 585.29,493.12 588.02,493.12 590.76,493.12 593.50,493.13 596.23,493.13 598.97,493.13 601.71,493.13 604.45,493.13 607.18,493.13 609.92,493.13" style="stroke-width: 1.71;stroke: #7CAE00;stroke-linecap: butt;"/>
<polyline points="65.27,45.56 68.00,45.56 70.74,45.56 73.48,45.57 76.21,45.57 78.95,45.57 81.69,45.58 84.43,45.59 87.16,45.60 89.90,45.62 92.64,45.64 95.37,45.67 98.11,45.70 100.85,45.76 103.58,45.83 106.32,45.92 109.06,46.05 111.79,46.22 114.53,46.45 117.27,46.76 120.01,47.18 122.74,47.75 125.48,48.51 128.22,49.53 130.95,50.90 133.69,52.75 136.43,55.21 139.16,58.49 141.90,62.85 144.64,68.61 147.38,76.15 150.11,85.92 152.85,98.42 155.59,114.15 158.32,133.52 161.06,156.76 163.80,183.79 166.53,214.08 169.27,246.69 172.01,280.28 174.74,313.36 177.48,344.54 180.22,372.72 182.96,397.25 185.69,417.92 188.43,434.87 191.17,448.45 193.90,459.13 196.64,467.42 199.38,473.78 202.11,478.62 204.85,482.28 207.59,485.03 210.32,487.10 213.06,488.64 215.80,489.79 218.54,490.64 221.27,491.28 224.01,491.76 226.75,492.11 229.48,492.37 232.22,492.56 234.96,492.71 237.69,492.82 240.43,492.90 243.17,492.95 245.91,493.00 248.64,493.03 251.38,493.06 254.12,493.07 256.85,493.09 259.59,493.10 262.33,493.10 265.06,493.11 267.80,493.11 270.54,493.12 273.27,493.12 276.01,493.12 278.75,493.12 281.49,493.12 284.22,493.12 286.96,493.12 289.70,493.12 292.43,493.12 295.17,493.12 297.91,493.12 300.64,493.12 303.38,493.12 306.12,493.13 308.86,493.13 311.59,493.13 314.33,493.13 317.07,493.13 319.80,493.13 322.54,493.13 325.28,493.13 328.01,493.13 330.75,493.13 333.49,493.13 336.22,493.13 338.96,493.13 341.70,493.13 344.44,493.13 347.17,493.13 349.91,493.13 352.65,493.13 355.38,493.13 358.12,493.13 360.86,493.13 363.59,493.13 366.33,493.13 369.07,493.13 371.80,493.13 374.54,493.13 377.28,493.13 380.02,493.13 382.75,493.13 385.49,493.13 388.23,493.13 390.96,493.13 393.70,493.13 396.44,493.13 399.17,493.13 401.91,493.13 404.65,493.13 407.39,493.13 410.12,493.13 412.86,493.13 415.60,493.13 418.33,493.13 421.07,493.13 423.81,493.13 426.54,493.13 429.28,493.13 432.02,493.13 434.75,493.13 437.49,493.13 440.23,493.13 442.97,493.13 445.70,493.13 448.44,493.13 451.18,493.13 453.91,493.13 456.65,493.13 459.39,493.13 462.12,493.13 464.86,493.13 467.60,493.13 470.34,493.13 473.07,493.13 475.81,493.13 478.55,493.13 481.28,493.13 484.02,493.13 486.76,493.13 489.49,493.13 492.23,493.13 494.97,493.13 497.70,493.13 500.44,493.13 503.18,493.13 505.92,493.13 508.65,493.13 511.39,493.13 514.13,493.13 516.86,493.13 519.60,493.13 522.34,493.13 525.07,493.13 527.81,493.13 530.55,493.13 533.28,493.13 536.02,493.13 538.76,493.13 541.50,493.13 544.23,493.13 546.97,493.13 549.71,493.13 552.44,493.13 555.18,493.13 557.92,493.13 560.65,493.13 563.39,493.13 566.13,493.13 568.87,493.13 571.60,493.13 574.34,493.13 577.08,493.13 579.81,493.13 582.55,493.13 585.29,493.13 588.02,493.13 590.76,493.13 593.50,493.13 596.23,493.13 598.97,493.13 601.71,493.13 604.45,493.13 607.18,493.13 609.92,493.13" style="stroke-width: 1.71;stroke: #00BFC4;stroke-linecap: butt;"/>
<polyline points="65.27,46.19 68.00,46.30 70.74,46.42 73.48,46.56 76.21,46.73 78.95,46.92 81.69,47.14 84.43,47.40 87.16,47.70 89.90,48.05 92.64,48.46 95.37,48.93 98.11,49.48 100.85,50.11 103.58,50.85 106.32,51.71 109.06,52.70 111.79,53.85 114.53,55.18 117.27,56.72 120.01,58.50 122.74,60.55 125.48,62.91 128.22,65.63 130.95,68.75 133.69,72.33 136.43,76.41 139.16,81.07 141.90,86.37 144.64,92.36 147.38,99.12 150.11,106.71 152.85,115.18 155.59,124.59 158.32,134.96 161.06,146.32 163.80,158.68 166.53,171.99 169.27,186.22 172.01,201.26 174.74,217.02 177.48,233.35 180.22,250.08 182.96,267.03 185.69,284.00 188.43,300.81 191.17,317.26 193.90,333.18 196.64,348.44 199.38,362.89 202.11,376.46 204.85,389.07 207.59,400.71 210.32,411.35 213.06,421.01 215.80,429.73 218.54,437.55 221.27,444.53 224.01,450.73 226.75,456.21 229.48,461.04 232.22,465.28 234.96,468.99 237.69,472.23 240.43,475.05 243.17,477.51 245.91,479.64 248.64,481.49 251.38,483.09 254.12,484.48 256.85,485.68 259.59,486.71 262.33,487.60 265.06,488.37 267.80,489.04 270.54,489.61 273.27,490.10 276.01,490.52 278.75,490.89 281.49,491.20 284.22,491.47 286.96,491.70 289.70,491.90 292.43,492.07 295.17,492.22 297.91,492.35 300.64,492.46 303.38,492.55 306.12,492.63 308.86,492.70 311.59,492.76 314.33,492.81 317.07,492.86 319.80,492.89 322.54,492.93 325.28,492.95 328.01,492.98 330.75,493.00 333.49,493.02 336.22,493.03 338.96,493.05 341.70,493.06 344.44,493.07 347.17,493.07 349.91,493.08 352.65,493.09 355.38,493.09 358.12,493.10 360.86,493.10 363.59,493.10 366.33,493.11 369.07,493.11 371.80,493.11 374.54,493.11 377.28,493.12 380.02,493.12 382.75,493.12 385.49,493.12 388.23,493.12 390.96,493.12 393.70,493.12 396.44,493.12 399.17,493.12 401.91,493.12 404.65,493.12 407.39,493.12 410.12,493.12 412.86,493.12 415.60,493.12 418.33,493.12 421.07,493.12 423.81,493.12 426.54,493.12 429.28,493.12 432.02,493.12 434.75,493.12 437.49,493.12 440.23,493.12 442.97,493.12 445.70,493.13 448.44,493.13 451.18,493.13 453.91,493.13 456.65,493.13 459.39,493.13 462.12,493.13 464.86,493.13 467.60,493.13 470.34,493.13 473.07,493.13 475.81,493.13 478.55,493.13 481.28,493.13 484.02,493.13 486.76,493.13 489.49,493.13 492.23,493.13 494.97,493.13 497.70,493.13 500.44,493.13 503.18,493.13 505.92,493.13 508.65,493.13 511.39,493.13 514.13,493.13 516.86,493.13 519.60,493.13 522.34,493.13 525.07,493.13 527.81,493.13 530.55,493.13 533.28,493.13 536.02,493.13 538.76,493.13 541.50,493.13 544.23,493.13 546.97,493.13 549.71,493.13 552.44,493.13 555.18,493.13 557.92,493.13 560.65,493.13 563.39,493.13 566.13,493.13 568.87,493.13 571.60,493.13 574.34,493.13 577.08,493.13 579.81,493.13 582.55,493.13 585.29,493.13 588.02,493.13 590.76,493.13 593.50,493.13 596.23,493.13 598.97,493.13 601.71,493.13 604.45,493.13 607.18,493.13 609.92,493.13" style="stroke-width: 1.71;stroke: #C77CFF;stroke-linecap: butt;"/>
</g><g clip-path="url(#c2)">
<g><text x="33.10" y="496.28" text-anchor="end" style="font-family: Arial;font-size: 8.80px;fill: #4D4D4D;" textLength="4.90px" lengthAdjust="spacingAndGlyphs">0</text></g>
<g><text x="33.10" y="384.38" text-anchor="end" style="font-family: Arial;font-size: 8.80px;fill: #4D4D4D;" textLength="9.79px" lengthAdjust="spacingAndGlyphs">25</text></g>
<g><text x="33.10" y="272.49" text-anchor="end" style="font-family: Arial;font-size: 8.80px;fill: #4D4D4D;" textLength="9.79px" lengthAdjust="spacingAndGlyphs">50</text></g>
<g><text x="33.10" y="160.60" text-anchor="end" style="font-family: Arial;font-size: 8.80px;fill: #4D4D4D;" textLength="9.79px" lengthAdjust="spacingAndGlyphs">75</text></g>
<g><text x="33.10" y="48.71" text-anchor="end" style="font-family: Arial;font-size: 8.80px;fill: #4D4D4D;" textLength="14.69px" lengthAdjust="spacingAndGlyphs">100</text></g>
<g><text x="94.66" y="526.74" text-anchor="middle" style="font-family: Arial;font-size: 8.80px;fill: #4D4D4D;" textLength="4.90px" lengthAdjust="spacingAndGlyphs">1</text></g>
<g><text x="239.36" y="526.74" text-anchor="middle" style="font-family: Arial;font-size: 8.80px;fill: #4D4D4D;" textLength="4.90px" lengthAdjust="spacingAndGlyphs">3</text></g>
<g><text x="397.94" y="526.74" text-anchor="middle" style="font-family: Arial;font-size: 8.80px;fill: #4D4D4D;" textLength="9.79px" lengthAdjust="spacingAndGlyphs">10</text></g>
<g><text x="542.64" y="526.74" text-anchor="middle" style="font-family: Arial;font-size: 8.80px;fill: #4D4D4D;" textLength="9.79px" lengthAdjust="spacingAndGlyphs">30</text></g>
<g><text x="337.59" y="539.20" text-anchor="middle" style="font-family: Arial;font-size: 11.00px;" textLength="44.65px" lengthAdjust="spacingAndGlyphs">Dose [%]</text></g>
<g><text transform="translate(13.36,269.34) rotate(-90.00)" text-anchor="middle" style="font-family: Arial;font-size: 11.00px;" textLength="57.87px" lengthAdjust="spacingAndGlyphs">Viability (%)</text></g>
<g><text x="653.59" y="235.98" style="font-family: Arial;font-size: 11.00px;" textLength="74.02px" lengthAdjust="spacingAndGlyphs">Patient / Group</text></g>
<circle cx="662.23" cy="251.26" r="2.06" style="stroke-width: 0.71;stroke: #F8766D;stroke-opacity: 0.70;fill: #F8766D;fill-opacity: 0.70;"/>
<line x1="655.32" y1="251.26" x2="669.14" y2="251.26" style="stroke-width: 1.71;stroke: #F8766D;stroke-linecap: butt;"/>
<circle cx="662.23" cy="268.54" r="2.06" style="stroke-width: 0.71;stroke: #7CAE00;stroke-opacity: 0.70;fill: #7CAE00;fill-opacity: 0.70;"/>
<line x1="655.32" y1="268.54" x2="669.14" y2="268.54" style="stroke-width: 1.71;stroke: #7CAE00;stroke-linecap: butt;"/>
<circle cx="662.23" cy="285.82" r="2.06" style="stroke-width: 0.71;stroke: #00BFC4;stroke-opacity: 0.70;fill: #00BFC4;fill-opacity: 0.70;"/>
<line x1="655.32" y1="285.82" x2="669.14" y2="285.82" style="stroke-width: 1.71;stroke: #00BFC4;stroke-linecap: butt;"/>
<circle cx="662.23" cy="303.10" r="2.06" style="stroke-width: 0.71;stroke: #C77CFF;stroke-opacity: 0.70;fill: #C77CFF;fill-opacity: 0.70;"/>
<line x1="655.32" y1="303.10" x2="669.14" y2="303.10" style="stroke-width: 1.71;stroke: #C77CFF;stroke-linecap: butt;"/>
<g><text x="676.35" y="254.41" style="font-family: Arial;font-size: 8.80px;" textLength="68.00px" lengthAdjust="spacingAndGlyphs">ASC397.ASC397</text></g>
<g><text x="676.35" y="271.69" style="font-family: Arial;font-size: 8.80px;" textLength="81.69px" lengthAdjust="spacingAndGlyphs">ASC397.ASC397cse</text></g>
<g><text x="676.35" y="288.97" style="font-family: Arial;font-size: 8.80px;" textLength="68.00px" lengthAdjust="spacingAndGlyphs">ASC399.ASC399</text></g>
<g><text x="676.35" y="306.25" style="font-family: Arial;font-size: 8.80px;" textLength="81.69px" lengthAdjust="spacingAndGlyphs">ASC399.ASC399cse</text></g>
<g><text x="38.03" y="14.93" style="font-family: Arial;font-size: 13.20px;" textLength="195.03px" lengthAdjust="spacingAndGlyphs">CSE across patients &amp; conditions</text></g>
</g>
</svg>