<svg xmlns="http://www.w3.org/2000/svg" xmlns:xlink="http://www.w3.org/1999/xlink" class="httpgd" width="769.00" height="547.00" viewBox="0 0 769.00 547.00">
<defs>
  <style type='text/css'><![CDATA[
    .httpgd line, .httpgd polyline, .httpgd polygon, .httpgd path, .httpgd rect, .httpgd circle {
      fill: none;
      stroke: #000000;
      stroke-linecap: round;
      stroke-linejoin: round;
      stroke-miterlimit: 10.00;
    }
  ]]></style>
<clipPath id="c0"><rect x="0.00" y="0.00" width="769.00" height="547.00"/></clipPath>
<clipPath id="c1"><rect x="38.03" y="23.18" width="599.12" height="492.33"/></clipPath>
<clipPath id="c2"><rect x="0.00" y="0.00" width="769.00" height="547.00"/></clipPath>
</defs>
<rect width="100%" height="100%" style="stroke: none;fill: #FFFFFF;"/>
<g clip-path="url(#c0)">
</g><g clip-path="url(#c1)">
<polyline points="38.03,493.13 637.15,493.13" style="stroke-width: 1.07;stroke: #EBEBEB;stroke-linecap: butt;"/>
<polyline points="38.03,381.23 637.15,381.23" style="stroke-width: 1.07;stroke: #EBEBEB;stroke-linecap: butt;"/>
<polyline points="38.03,269.34 637.15,269.34" style="stroke-width: 1.07;stroke: #EBEBEB;stroke-linecap: butt;"/>
<polyline points="38.03,157.45 637.15,157.45" style="stroke-width: 1.07;stroke: #EBEBEB;stroke-linecap: butt;"/>
<polyline points="38.03,45.56 637.15,45.56" style="stroke-width: 1.07;stroke: #EBEBEB;stroke-linecap: butt;"/>
<polyline points="94.66,515.50 94.66,23.18" style="stroke-width: 1.07;stroke: #EBEBEB;stroke-linecap: butt;"/>
<polyline points="239.36,515.50 239.36,23.18" style="stroke-width: 1.07;stroke: #EBEBEB;stroke-linecap: butt;"/>
<polyline points="397.94,515.50 397.94,23.18" style="stroke-width: 1.07;stroke: #EBEBEB;stroke-linecap: butt;"/>
<polyline points="542.64,515.50 542.64,23.18" style="stroke-width: 1.07;stroke: #EBEBEB;stroke-linecap: butt;"/>
<polygon points="65.27,50.00 68.00,50.04 70.74,50.08 73.48,50.14 76.21,50.14 78.95,50.29 81.69,50.35 84.43,50.38 87.16,50.38 89.90,50.39 92.64,50.41 95.37,50.45 98.11,50.49 100.85,50.54 103.58,50.59 106.32,50.64 109.06,50.67 111.79,50.70 114.53,50.73 117.27,50.81 120.01,50.82 122.74,50.84 125.48,50.93 128.22,50.99 130.95,51.01 133.69,51.03 136.43,51.23 139.16,51.37 141.90,51.53 144.64,51.61 147.38,51.76 150.11,51.91 152.85,52.10 155.59,52.30 158.32,52.53 161.06,52.58 163.80,52.62 166.53,52.66 169.27,52.76 172.01,52.83 174.74,52.83 177.48,52.85 180.22,53.08 182.96,53.30 185.69,53.35 188.43,53.74 191.17,53.89 193.90,54.24 196.64,54.39 199.38,54.59 202.11,54.76 204.85,55.06 207.59,55.24 210.32,55.46 213.06,55.90 215.80,56.24 218.54,56.37 221.27,56.45 224.01,56.62 226.75,56.76 229.48,57.06 232.22,57.29 234.96,57.70 237.69,57.98 240.43,58.33 243.17,58.63 245.91,58.64 248.64,59.25 251.38,59.83 254.12,60.63 256.85,61.33 259.59,61.84 262.33,62.68 265.06,63.30 267.80,63.95 270.54,64.85 273.27,65.47 276.01,66.36 278.75,67.65 281.49,68.78 284.22,69.73 286.96,70.75 289.70,72.11 292.43,73.19 295.17,74.49 297.91,76.20 300.64,78.59 303.38,79.89 306.12,82.32 308.86,85.37 311.59,88.95 314.33,91.91 317.07,96.37 319.80,100.80 322.54,105.20 325.28,110.96 328.01,125.15 330.75,145.90 333.49,174.65 336.22,210.61 338.96,253.58 341.70,284.79 344.44,299.16 347.17,310.42 349.91,332.09 352.65,339.67 355.38,347.31 358.12,353.61 360.86,356.64 363.59,359.07 366.33,362.11 369.07,365.04 371.80,367.08 374.54,369.16 377.28,371.40 380.02,373.39 382.75,375.31 385.49,377.22 388.23,379.24 390.96,381.30 393.70,383.33 396.44,385.34 399.17,387.33 401.91,389.33 404.65,391.36 407.39,393.37 410.12,395.36 412.86,397.31 415.60,399.23 418.33,401.13 421.07,403.00 423.81,404.96 426.54,406.75 429.28,408.50 432.02,410.21 434.75,411.91 437.49,413.57 440.23,415.21 442.97,416.92 445.70,418.60 448.44,420.25 451.18,421.87 453.91,423.47 456.65,425.03 459.39,426.57 462.12,428.07 464.86,429.56 467.60,431.05 470.34,432.52 473.07,433.95 475.81,435.36 478.55,436.74 481.28,438.09 484.02,439.38 486.76,440.64 489.49,441.87 492.23,443.05 494.97,444.19 497.70,445.31 500.44,446.40 503.18,447.47 505.92,448.53 508.65,449.56 511.39,450.56 514.13,451.55 516.86,452.52 519.60,453.47 522.34,454.40 525.07,455.30 527.81,456.19 530.55,457.06 533.28,457.91 536.02,458.75 538.76,459.56 541.50,460.36 544.23,461.14 546.97,461.90 549.71,462.65 552.44,463.38 555.18,464.09 557.92,464.79 560.65,465.47 563.39,466.14 566.13,466.79 568.87,467.43 571.60,468.05 574.34,468.66 577.08,469.25 579.81,469.83 582.55,470.40 585.29,470.96 588.02,471.50 590.76,472.03 593.50,472.54 596.23,473.05 598.97,473.54 601.71,474.02 604.45,474.49 607.18,474.95 609.92,475.40 609.92,493.13 607.18,493.13 604.45,493.13 601.71,493.13 598.97,493.13 596.23,493.13 593.50,493.13 590.76,493.13 588.02,493.13 585.29,493.13 582.55,493.13 579.81,493.13 577.08,493.13 574.34,493.13 571.60,493.13 568.87,493.13 566.13,493.13 563.39,493.13 560.65,493.13 557.92,493.13 555.18,493.13 552.44,493.13 549.71,493.13 546.97,493.13 544.23,493.13 541.50,493.13 538.76,493.13 536.02,493.13 533.28,493.13 530.55,493.13 527.81,493.13 525.07,493.13 522.34,493.13 519.60,493.13 516.86,493.13 514.13,493.13 511.39,493.13 508.65,493.13 505.92,493.13 503.18,493.13 500.44,493.13 497.70,493.13 494.97,493.13 492.23,493.13 489.49,493.13 486.76,493.13 484.02,493.13 481.28,493.13 478.55,493.13 475.81,493.13 473.07,493.13 470.34,493.13 467.60,493.13 464.86,493.13 462.12,493.13 459.39,493.13 456.65,493.13 453.91,493.13 451.18,493.13 448.44,493.13 445.70,493.13 442.97,493.13 440.23,493.13 437.49,493.13 434.75,493.13 432.02,493.13 429.28,493.13 426.54,493.13 423.81,493.13 421.07,493.12 418.33,493.12 415.60,493.12 412.86,493.12 410.12,493.12 407.39,493.12 404.65,493.12 401.91,493.12 399.17,493.12 396.44,493.11 393.70,493.11 390.96,493.10 388.23,493.09 385.49,493.08 382.75,493.05 380.02,493.02 377.28,492.98 374.54,492.91 371.80,492.83 369.07,492.72 366.33,492.57 363.59,492.34 360.86,492.08 358.12,491.68 355.38,491.21 352.65,490.47 349.91,489.64 347.17,488.51 344.44,487.14 341.70,485.38 338.96,483.16 336.22,480.66 333.49,477.54 330.75,473.84 328.01,469.63 325.28,464.72 322.54,459.08 319.80,452.28 317.07,445.40 314.33,436.40 311.59,427.49 308.86,417.93 306.12,408.45 303.38,396.93 300.64,385.13 297.91,373.91 295.17,361.84 292.43,352.47 289.70,341.14 286.96,331.23 284.22,321.86 281.49,313.34 278.75,304.11 276.01,297.13 273.27,289.95 270.54,283.85 267.80,279.50 265.06,276.41 262.33,271.62 259.59,268.42 256.85,265.40 254.12,261.99 251.38,258.91 248.64,256.74 245.91,254.15 243.17,252.20 240.43,250.30 237.69,247.04 234.96,243.94 232.22,241.18 229.48,237.67 226.75,234.65 224.01,231.64 221.27,228.04 218.54,224.99 215.80,222.12 213.06,219.58 210.32,217.01 207.59,214.37 204.85,211.63 202.11,209.27 199.38,206.96 196.64,204.67 193.90,202.39 191.17,200.14 188.43,197.79 185.69,195.44 182.96,193.11 180.22,190.74 177.48,188.25 174.74,186.16 172.01,184.04 169.27,181.79 166.53,179.55 163.80,177.34 161.06,175.15 158.32,173.00 155.59,170.88 152.85,168.78 150.11,166.72 147.38,164.68 144.64,162.68 141.90,160.70 139.16,158.76 136.43,156.95 133.69,155.17 130.95,153.41 128.22,151.68 125.48,149.97 122.74,148.29 120.01,146.63 117.27,144.99 114.53,143.38 111.79,141.79 109.06,140.22 106.32,138.68 103.58,137.16 100.85,135.65 98.11,134.15 95.37,132.67 92.64,131.22 89.90,129.79 87.16,128.43 84.43,127.19 81.69,125.98 78.95,124.79 76.21,123.62 73.48,122.47 70.74,121.35 68.00,120.26 65.27,119.18" style="stroke-width: 0.00;stroke: none;stroke-linecap: butt;fill: #F8766D;fill-opacity: 0.20;" />
<polyline points="65.27,50.00 68.00,50.04 70.74,50.08 73.48,50.14 76.21,50.14 78.95,50.29 81.69,50.35 84.43,50.38 87.16,50.38 89.90,50.39 92.64,50.41 95.37,50.45 98.11,50.49 100.85,50.54 103.58,50.59 106.32,50.64 109.06,50.67 111.79,50.70 114.53,50.73 117.27,50.81 120.01,50.82 122.74,50.84 125.48,50.93 128.22,50.99 130.95,51.01 133.69,51.03 136.43,51.23 139.16,51.37 141.90,51.53 144.64,51.61 147.38,51.76 150.11,51.91 152.85,52.10 155.59,52.30 158.32,52.53 161.06,52.58 163.80,52.62 166.53,52.66 169.27,52.76 172.01,52.83 174.74,52.83 177.48,52.85 180.22,53.08 182.96,53.30 185.69,53.35 188.43,53.74 191.17,53.89 193.90,54.24 196.64,54.39 199.38,54.59 202.11,54.76 204.85,55.06 207.59,55.24 210.32,55.46 213.06,55.90 215.80,56.24 218.54,56.37 221.27,56.45 224.01,56.62 226.75,56.76 229.48,57.06 232.22,57.29 234.96,57.70 237.69,57.98 240.43,58.33 243.17,58.63 245.91,58.64 248.64,59.25 251.38,59.83 254.12,60.63 256.85,61.33 259.59,61.84 262.33,62.68 265.06,63.30 267.80,63.95 270.54,64.85 273.27,65.47 276.01,66.36 278.75,67.65 281.49,68.78 284.22,69.73 286.96,70.75 289.70,72.11 292.43,73.19 295.17,74.49 297.91,76.20 300.64,78.59 303.38,79.89 306.12,82.32 308.86,85.37 311.59,88.95 314.33,91.91 317.07,96.37 319.80,100.80 322.54,105.20 325.28,110.96 328.01,125.15 330.75,145.90 333.49,174.65 336.22,210.61 338.96,253.58 341.70,284.79 344.44,299.16 347.17,310.42 349.91,332.09 352.65,339.67 355.38,347.31 358.12,353.61 360.86,356.64 363.59,359.07 366.33,362.11 369.07,365.04 371.80,367.08 374.54,369.16 377.28,371.40 380.02,373.39 382.75,375.31 385.49,377.22 388.23,379.24 390.96,381.30 393.70,383.33 396.44,385.34 399.17,387.33 401.91,389.33 404.65,391.36 407.39,393.37 410.12,395.36 412.86,397.31 415.60,399.23 418.33,401.13 421.07,403.00 423.81,404.96 426.54,406.75 429.28,408.50 432.02,410.21 434.75,411.91 437.49,413.57 440.23,415.21 442.97,416.92 445.70,418.60 448.44,420.25 451.18,421.87 453.91,423.47 456.65,425.03 459.39,426.57 462.12,428.07 464.86,429.56 467.60,431.05 470.34,432.52 473.07,433.95 475.81,435.36 478.55,436.74 481.28,438.09 484.02,439.38 486.76,440.64 489.49,441.87 492.23,443.05 494.97,444.19 497.70,445.31 500.44,446.40 503.18,447.47 505.92,448.53 508.65,449.56 511.39,450.56 514.13,451.55 516.86,452.52 519.60,453.47 522.34,454.40 525.07,455.30 527.81,456.19 530.55,457.06 533.28,457.91 536.02,458.75 538.76,459.56 541.50,460.36 544.23,461.14 546.97,461.90 549.71,462.65 552.44,463.38 555.18,464.09 557.92,464.79 560.65,465.47 563.39,466.14 566.13,466.79 568.87,467.43 571.60,468.05 574.34,468.66 577.08,469.25 579.81,469.83 582.55,470.40 585.29,470.96 588.02,471.50 590.76,472.03 593.50,472.54 596.23,473.05 598.97,473.54 601.71,474.02 604.45,474.49 607.18,474.95 609.92,475.40" style="stroke-width: 1.07;stroke: none;stroke-linecap: butt;"/>
<polyline points="609.92,493.13 607.18,493.13 604.45,493.13 601.71,493.13 598.97,493.13 596.23,493.13 593.50,493.13 590.76,493.13 588.02,493.13 585.29,493.13 582.55,493.13 579.81,493.13 577.08,493.13 574.34,493.13 571.60,493.13 568.87,493.13 566.13,493.13 563.39,493.13 560.65,493.13 557.92,493.13 555.18,493.13 552.44,493.13 549.71,493.13 546.97,493.13 544.23,493.13 541.50,493.13 538.76,493.13 536.02,493.13 533.28,493.13 530.55,493.13 527.81,493.13 525.07,493.13 522.34,493.13 519.60,493.13 516.86,493.13 514.13,493.13 511.39,493.13 508.65,493.13 505.92,493.13 503.18,493.13 500.44,493.13 497.70,493.13 494.97,493.13 492.23,493.13 489.49,493.13 486.76,493.13 484.02,493.13 481.28,493.13 478.55,493.13 475.81,493.13 473.07,493.13 470.34,493.13 467.60,493.13 464.86,493.13 462.12,493.13 459.39,493.13 456.65,493.13 453.91,493.13 451.18,493.13 448.44,493.13 445.70,493.13 442.97,493.13 440.23,493.13 437.49,493.13 434.75,493.13 432.02,493.13 429.28,493.13 426.54,493.13 423.81,493.13 421.07,493.12 418.33,493.12 415.60,493.12 412.86,493.12 410.12,493.12 407.39,493.12 404.65,493.12 401.91,493.12 399.17,493.12 396.44,493.11 393.70,493.11 390.96,493.10 388.23,493.09 385.49,493.08 382.75,493.05 380.02,493.02 377.28,492.98 374.54,492.91 371.80,492.83 369.07,492.72 366.33,492.57 363.59,492.34 360.86,492.08 358.12,491.68 355.38,491.21 352.65,490.47 349.91,489.64 347.17,488.51 344.44,487.14 341.70,485.38 338.96,483.16 336.22,480.66 333.49,477.54 330.75,473.84 328.01,469.63 325.28,464.72 322.54,459.08 319.80,452.28 317.07,445.40 314.33,436.40 311.59,427.49 308.86,417.93 306.12,408.45 303.38,396.93 300.64,385.13 297.91,373.91 295.17,361.84 292.43,352.47 289.70,341.14 286.96,331.23 284.22,321.86 281.49,313.34 278.75,304.11 276.01,297.13 273.27,289.95 270.54,283.85 267.80,279.50 265.06,276.41 262.33,271.62 259.59,268.42 256.85,265.40 254.12,261.99 251.38,258.91 248.64,256.74 245.91,254.15 243.17,252.20 240.43,250.30 237.69,247.04 234.96,243.94 232.22,241.18 229.48,237.67 226.75,234.65 224.01,231.64 221.27,228.04 218.54,224.99 215.80,222.12 213.06,219.58 210.32,217.01 207.59,214.37 204.85,211.63 202.11,209.27 199.38,206.96 196.64,204.67 193.90,202.39 191.17,200.14 188.43,197.79 185.69,195.44 182.96,193.11 180.22,190.74 177.48,188.25 174.74,186.16 172.01,184.04 169.27,181.79 166.53,179.55 163.80,177.34 161.06,175.15 158.32,173.00 155.59,170.88 152.85,168.78 150.11,166.72 147.38,164.68 144.64,162.68 141.90,160.70 139.16,158.76 136.43,156.95 133.69,155.17 130.95,153.41 128.22,151.68 125.48,149.97 122.74,148.29 120.01,146.63 117.27,144.99 114.53,143.38 111.79,141.79 109.06,140.22 106.32,138.68 103.58,137.16 100.85,135.65 98.11,134.15 95.37,132.67 92.64,131.22 89.90,129.79 87.16,128.43 84.43,127.19 81.69,125.98 78.95,124.79 76.21,123.62 73.48,122.47 70.74,121.35 68.00,120.26 65.27,119.18" style="stroke-width: 1.07;stroke: none;stroke-linecap: butt;"/>
<polygon points="65.27,45.56 68.00,45.56 70.74,45.56 73.48,45.56 76.21,45.56 78.95,45.56 81.69,45.56 84.43,45.56 87.16,45.56 89.90,45.56 92.64,45.56 95.37,45.56 98.11,45.56 100.85,45.56 103.58,45.56 106.32,45.56 109.06,45.56 111.79,45.56 114.53,45.56 117.27,45.56 120.01,45.56 122.74,45.56 125.48,45.56 128.22,45.56 130.95,45.56 133.69,45.56 136.43,45.56 139.16,45.56 141.90,45.56 144.64,45.56 147.38,45.56 150.11,45.56 152.85,45.56 155.59,45.56 158.32,45.56 161.06,45.56 163.80,45.56 166.53,45.56 169.27,45.56 172.01,45.56 174.74,45.56 177.48,45.56 180.22,45.56 182.96,45.56 185.69,45.57 188.43,45.57 191.17,45.58 193.90,45.59 196.64,45.61 199.38,45.64 202.11,45.68 204.85,45.74 207.59,45.84 210.32,45.98 213.06,46.19 215.80,46.51 218.54,46.98 221.27,47.69 224.01,48.75 226.75,50.34 229.48,52.70 232.22,56.20 234.96,61.33 237.69,68.83 240.43,79.18 243.17,92.58 245.91,109.05 248.64,128.30 251.38,150.07 254.12,175.48 256.85,204.24 259.59,235.48 262.33,268.18 265.06,300.94 267.80,332.36 270.54,361.30 273.27,386.96 276.01,408.95 278.75,427.27 281.49,442.16 284.22,454.01 286.96,463.32 289.70,470.53 292.43,476.07 295.17,480.30 297.91,483.50 300.64,485.91 303.38,487.73 306.12,489.09 308.86,490.12 311.59,490.88 314.33,491.45 317.07,491.88 319.80,492.19 322.54,492.43 325.28,492.61 328.01,492.74 330.75,492.84 333.49,492.91 336.22,492.97 338.96,493.01 341.70,493.04 344.44,493.06 347.17,493.08 349.91,493.09 352.65,493.10 355.38,493.10 358.12,493.11 360.86,493.11 363.59,493.12 366.33,493.12 369.07,493.12 371.80,493.12 374.54,493.12 377.28,493.12 380.02,493.12 382.75,493.12 385.49,493.12 388.23,493.12 390.96,493.12 393.70,493.12 396.44,493.12 399.17,493.13 401.91,493.13 404.65,493.13 407.39,493.13 410.12,493.13 412.86,493.13 415.60,493.13 418.33,493.13 421.07,493.13 423.81,493.13 426.54,493.13 429.28,493.13 432.02,493.13 434.75,493.13 437.49,493.13 440.23,493.13 442.97,493.13 445.70,493.13 448.44,493.13 451.18,493.13 453.91,493.13 456.65,493.13 459.39,493.13 462.12,493.13 464.86,493.13 467.60,493.13 470.34,493.13 473.07,493.13 475.81,493.13 478.55,493.13 481.28,493.13 484.02,493.13 486.76,493.13 489.49,493.13 492.23,493.13 494.97,493.13 497.70,493.13 500.44,493.13 503.18,493.13 505.92,493.13 508.65,493.13 511.39,493.13 514.13,493.13 516.86,493.13 519.60,493.13 522.34,493.13 525.07,493.13 527.81,493.13 530.55,493.13 533.28,493.13 536.02,493.13 538.76,493.13 541.50,493.13 544.23,493.13 546.97,493.13 549.71,493.13 552.44,493.13 555.18,493.13 557.92,493.13 560.65,493.13 563.39,493.13 566.13,493.13 568.87,493.13 571.60,493.13 574.34,493.13 577.08,493.13 579.81,493.13 582.55,493.13 585.29,493.13 588.02,493.13 590.76,493.13 593.50,493.13 596.23,493.13 598.97,493.13 601.71,493.13 604.45,493.13 607.18,493.13 609.92,493.13 609.92,493.13 607.18,493.13 604.45,493.13 601.71,493.13 598.97,493.13 596.23,493.13 593.50,493.13 590.76,493.13 588.02,493.13 585.29,493.13 582.55,493.13 579.81,493.13 577.08,493.13 574.34,493.13 571.60,493.13 568.87,493.13 566.13,493.13 563.39,493.13 560.65,493.13 557.92,493.13 555.18,493.13 552.44,493.13 549.71,493.13 546.97,493.13 544.23,493.13 541.50,493.13 538.76,493.13 536.02,493.13 533.28,493.13 530.55,493.13 527.81,493.13 525.07,493.13 522.34,493.13 519.60,493.13 516.86,493.13 514.13,493.13 511.39,493.13 508.65,493.13 505.92,493.13 503.18,493.13 500.44,493.13 497.70,493.13 494.97,493.13 492.23,493.13 489.49,493.13 486.76,493.13 484.02,493.13 481.28,493.13 478.55,493.13 475.81,493.13 473.07,493.13 470.34,493.13 467.60,493.13 464.86,493.13 462.12,493.13 459.39,493.13 456.65,493.13 453.91,493.13 451.18,493.13 448.44,493.13 445.70,493.13 442.97,493.13 440.23,493.13 437.49,493.13 434.75,493.13 432.02,493.13 429.28,493.13 426.54,493.13 423.81,493.13 421.07,493.13 418.33,493.13 415.60,493.13 412.86,493.13 410.12,493.13 407.39,493.13 404.65,493.13 401.91,493.13 399.17,493.13 396.44,493.13 393.70,493.13 390.96,493.13 388.23,493.13 385.49,493.13 382.75,493.13 380.02,493.13 377.28,493.13 374.54,493.13 371.80,493.13 369.07,493.13 366.33,493.13 363.59,493.13 360.86,493.13 358.12,493.13 355.38,493.13 352.65,493.12 349.91,493.12 347.17,493.12 344.44,493.12 341.70,493.12 338.96,493.12 336.22,493.12 333.49,493.12 330.75,493.12 328.01,493.11 325.28,493.11 322.54,493.10 319.80,493.08 317.07,493.06 314.33,493.03 311.59,492.98 308.86,492.91 306.12,492.81 303.38,492.65 300.64,492.41 297.91,492.05 295.17,491.52 292.43,490.71 289.70,489.52 286.96,487.73 284.22,485.07 281.49,481.14 278.75,475.37 276.01,467.00 273.27,455.02 270.54,438.28 267.80,415.55 265.06,386.00 262.33,349.57 259.59,307.52 256.85,262.49 254.12,218.00 251.38,177.42 248.64,143.01 245.91,115.55 243.17,95.99 240.43,83.92 237.69,74.77 234.96,67.69 232.22,62.26 229.48,58.13 226.75,54.99 224.01,52.63 221.27,50.84 218.54,49.50 215.80,48.50 213.06,47.76 210.32,47.20 207.59,46.78 204.85,46.47 202.11,46.24 199.38,46.06 196.64,45.93 193.90,45.84 191.17,45.77 188.43,45.71 185.69,45.67 182.96,45.64 180.22,45.62 177.48,45.60 174.74,45.59 172.01,45.58 169.27,45.58 166.53,45.57 163.80,45.57 161.06,45.56 158.32,45.56 155.59,45.56 152.85,45.56 150.11,45.56 147.38,45.56 144.64,45.56 141.90,45.56 139.16,45.56 136.43,45.56 133.69,45.56 130.95,45.56 128.22,45.56 125.48,45.56 122.74,45.56 120.01,45.56 117.27,45.56 114.53,45.56 111.79,45.56 109.06,45.56 106.32,45.56 103.58,45.56 100.85,45.56 98.11,45.56 95.37,45.56 92.64,45.56 89.90,45.56 87.16,45.56 84.43,45.56 81.69,45.56 78.95,45.56 76.21,45.56 73.48,45.56 70.74,45.56 68.00,45.56 65.27,45.56" style="stroke-width: 0.00;stroke: none;stroke-linecap: butt;fill: #7CAE00;fill-opacity: 0.20;" />
<polyline points="65.27,45.56 68.00,45.56 70.74,45.56 73.48,45.56 76.21,45.56 78.95,45.56 81.69,45.56 84.43,45.56 87.16,45.56 89.90,45.56 92.64,45.56 95.37,45.56 98.11,45.56 100.85,45.56 103.58,45.56 106.32,45.56 109.06,45.56 111.79,45.56 114.53,45.56 117.27,45.56 120.01,45.56 122.74,45.56 125.48,45.56 128.22,45.56 130.95,45.56 133.69,45.56 136.43,45.56 139.16,45.56 141.90,45.56 144.64,45.56 147.38,45.56 150.11,45.56 152.85,45.56 155.59,45.56 158.32,45.56 161.06,45.56 163.80,45.56 166.53,45.56 169.27,45.56 172.01,45.56 174.74,45.56 177.48,45.56 180.22,45.56 182.96,45.56 185.69,45.57 188.43,45.57 191.17,45.58 193.90,45.59 196.64,45.61 199.38,45.64 202.11,45.68 204.85,45.74 207.59,45.84 210.32,45.98 213.06,46.19 215.80,46.51 218.54,46.98 221.27,47.69 224.01,48.75 226.75,50.34 229.48,52.70 232.22,56.20 234.96,61.33 237.69,68.83 240.43,79.18 243.17,92.58 245.91,109.05 248.64,128.30 251.38,150.07 254.12,175.48 256.85,204.24 259.59,235.48 262.33,268.18 265.06,300.94 267.80,332.36 270.54,361.30 273.27,386.96 276.01,408.95 278.75,427.27 281.49,442.16 284.22,454.01 286.96,463.32 289.70,470.53 292.43,476.07 295.17,480.30 297.91,483.50 300.64,485.91 303.38,487.73 306.12,489.09 308.86,490.12 311.59,490.88 314.33,491.45 317.07,491.88 319.80,492.19 322.54,492.43 325.28,492.61 328.01,492.74 330.75,492.84 333.49,492.91 336.22,492.97 338.96,493.01 341.70,493.04 344.44,493.06 347.17,493.08 349.91,493.09 352.65,493.10 355.38,493.10 358.12,493.11 360.86,493.11 363.59,493.12 366.33,493.12 369.07,493.12 371.80,493.12 374.54,493.12 377.28,493.12 380.02,493.12 382.75,493.12 385.49,493.12 388.23,493.12 390.96,493.12 393.70,493.12 396.44,493.12 399.17,493.13 401.91,493.13 404.65,493.13 407.39,493.13 410.12,493.13 412.86,493.13 415.60,493.13 418.33,493.13 421.07,493.13 423.81,493.13 426.54,493.13 429.28,493.13 432.02,493.13 434.75,493.13 437.49,493.13 440.23,493.13 442.97,493.13 445.70,493.13 448.44,493.13 451.18,493.13 453.91,493.13 456.65,493.13 459.39,493.13 462.12,493.13 464.86,493.13 467.60,493.13 470.34,493.13 473.07,493.13 475.81,493.13 478.55,493.13 481.28,493.13 484.02,493.13 486.76,493.13 489.49,493.13 492.23,493.13 494.97,493.13 497.70,493.13 500.44,493.13 503.18,493.13 505.92,493.13 508.65,493.13 511.39,493.13 514.13,493.13 516.86,493.13 519.60,493.13 522.34,493.13 525.07,493.13 527.81,493.13 530.55,493.13 533.28,493.13 536.02,493.13 538.76,493.13 541.50,493.13 544.23,493.13 546.97,493.13 549.71,493.13 552.44,493.13 555.18,493.13 557.92,493.13 560.65,493.13 563.39,493.13 566.13,493.13 568.87,493.13 571.60,493.13 574.34,493.13 577.08,493.13 579.81,493.13 582.55,493.13 585.29,493.13 588.02,493.13 590.76,493.13 593.50,493.13 596.23,493.13 598.97,493.13 601.71,493.13 604.45,493.13 607.18,493.13 609.92,493.13" style="stroke-width: 1.07;stroke: none;stroke-linecap: butt;"/>
<polyline points="609.92,493.13 607.18,493.13 604.45,493.13 601.71,493.13 598.97,493.13 596.23,493.13 593.50,493.13 590.76,493.13 588.02,493.13 585.29,493.13 582.55,493.13 579.81,493.13 577.08,493.13 574.34,493.13 571.60,493.13 568.87,493.13 566.13,493.13 563.39,493.13 560.65,493.13 557.92,493.13 555.18,493.13 552.44,493.13 549.71,493.13 546.97,493.13 544.23,493.13 541.50,493.13 538.76,493.13 536.02,493.13 533.28,493.13 530.55,493.13 527.81,493.13 525.07,493.13 522.34,493.13 519.60,493.13 516.86,493.13 514.13,493.13 511.39,493.13 508.65,493.13 505.92,493.13 503.18,493.13 500.44,493.13 497.70,493.13 494.97,493.13 492.23,493.13 489.49,493.13 486.76,493.13 484.02,493.13 481.28,493.13 478.55,493.13 475.81,493.13 473.07,493.13 470.34,493.13 467.60,493.13 464.86,493.13 462.12,493.13 459.39,493.13 456.65,493.13 453.91,493.13 451.18,493.13 448.44,493.13 445.70,493.13 442.97,493.13 440.23,493.13 437.49,493.13 434.75,493.13 432.02,493.13 429.28,493.13 426.54,493.13 423.81,493.13 421.07,493.13 418.33,493.13 415.60,493.13 412.86,493.13 410.12,493.13 407.39,493.13 404.65,493.13 401.91,493.13 399.17,493.13 396.44,493.13 393.70,493.13 390.96,493.13 388.23,493.13 385.49,493.13 382.75,493.13 380.02,493.13 377.28,493.13 374.54,493.13 371.80,493.13 369.07,493.13 366.33,493.13 363.59,493.13 360.86,493.13 358.12,493.13 355.38,493.13 352.65,493.12 349.91,493.12 347.17,493.12 344.44,493.12 341.70,493.12 338.96,493.12 336.22,493.12 333.49,493.12 330.75,493.12 328.01,493.11 325.28,493.11 322.54,493.10 319.80,493.08 317.07,493.06 314.33,493.03 311.59,492.98 308.86,492.91 306.12,492.81 303.38,492.65 300.64,492.41 297.91,492.05 295.17,491.52 292.43,490.71 289.70,489.52 286.96,487.73 284.22,485.07 281.49,481.14 278.75,475.37 276.01,467.00 273.27,455.02 270.54,438.28 267.80,415.55 265.06,386.00 262.33,349.57 259.59,307.52 256.85,262.49 254.12,218.00 251.38,177.42 248.64,143.01 245.91,115.55 243.17,95.99 240.43,83.92 237.69,74.77 234.96,67.69 232.22,62.26 229.48,58.13 226.75,54.99 224.01,52.63 221.27,50.84 218.54,49.50 215.80,48.50 213.06,47.76 210.32,47.20 207.59,46.78 204.85,46.47 202.11,46.24 199.38,46.06 196.64,45.93 193.90,45.84 191.17,45.77 188.43,45.71 185.69,45.67 182.96,45.64 180.22,45.62 177.48,45.60 174.74,45.59 172.01,45.58 169.27,45.58 166.53,45.57 163.80,45.57 161.06,45.56 158.32,45.56 155.59,45.56 152.85,45.56 150.11,45.56 147.38,45.56 144.64,45.56 141.90,45.56 139.16,45.56 136.43,45.56 133.69,45.56 130.95,45.56 128.22,45.56 125.48,45.56 122.74,45.56 120.01,45.56 117.27,45.56 114.53,45.56 111.79,45.56 109.06,45.56 106.32,45.56 103.58,45.56 100.85,45.56 98.11,45.56 95.37,45.56 92.64,45.56 89.90,45.56 87.16,45.56 84.43,45.56 81.69,45.56 78.95,45.56 76.21,45.56 73.48,45.56 70.74,45.56 68.00,45.56 65.27,45.56" style="stroke-width: 1.07;stroke: none;stroke-linecap: butt;"/>
<polygon points="65.27,46.51 68.00,46.51 70.74,46.51 73.48,46.51 76.21,46.51 78.95,46.51 81.69,46.51 84.43,46.51 87.16,46.51 89.90,46.51 92.64,46.51 95.37,46.51 98.11,46.51 100.85,46.51 103.58,46.51 106.32,46.51 109.06,46.51 111.79,46.53 114.53,46.53 117.27,46.53 120.01,46.54 122.74,46.56 125.48,46.56 128.22,46.64 130.95,46.64 133.69,46.66 136.43,46.66 139.16,46.66 141.90,46.66 144.64,46.70 147.38,46.72 150.11,46.73 152.85,46.78 155.59,46.81 158.32,46.83 161.06,46.85 163.80,46.85 166.53,46.95 169.27,46.96 172.01,46.96 174.74,46.96 177.48,47.02 180.22,47.09 182.96,47.21 185.69,47.39 188.43,47.47 191.17,47.56 193.90,47.76 196.64,47.91 199.38,48.16 202.11,48.66 204.85,49.06 207.59,49.62 210.32,50.46 213.06,51.50 215.80,52.96 218.54,54.72 221.27,57.07 224.01,60.29 226.75,64.16 229.48,69.14 232.22,75.24 234.96,82.64 237.69,91.21 240.43,101.59 243.17,113.49 245.91,126.96 248.64,142.82 251.38,158.57 254.12,175.75 256.85,191.35 259.59,207.45 262.33,222.22 265.06,236.37 267.80,248.53 270.54,258.03 273.27,265.25 276.01,270.53 278.75,274.48 281.49,277.20 284.22,280.35 286.96,283.54 289.70,286.68 292.43,289.89 295.17,293.09 297.91,296.30 300.64,299.43 303.38,302.42 306.12,305.45 308.86,308.47 311.59,311.48 314.33,314.48 317.07,317.46 319.80,320.43 322.54,323.38 325.28,326.31 328.01,329.20 330.75,332.06 333.49,334.91 336.22,337.73 338.96,340.53 341.70,343.30 344.44,346.05 347.17,348.78 349.91,351.48 352.65,354.16 355.38,356.81 358.12,359.43 360.86,362.02 363.59,364.59 366.33,367.12 369.07,369.63 371.80,372.11 374.54,374.55 377.28,376.97 380.02,379.35 382.75,381.71 385.49,384.03 388.23,386.32 390.96,388.57 393.70,390.80 396.44,392.99 399.17,395.14 401.91,397.27 404.65,399.36 407.39,401.42 410.12,403.44 412.86,405.42 415.60,407.37 418.33,409.28 421.07,411.16 423.81,413.01 426.54,414.83 429.28,416.61 432.02,418.37 434.75,420.09 437.49,421.77 440.23,423.40 442.97,425.00 445.70,426.57 448.44,428.11 451.18,429.62 453.91,431.10 456.65,432.56 459.39,433.98 462.12,435.38 464.86,436.74 467.60,438.09 470.34,439.40 473.07,440.68 475.81,441.94 478.55,443.18 481.28,444.38 484.02,445.57 486.76,446.72 489.49,447.85 492.23,448.96 494.97,450.05 497.70,451.11 500.44,452.14 503.18,453.15 505.92,454.15 508.65,455.11 511.39,456.06 514.13,456.99 516.86,457.89 519.60,458.77 522.34,459.64 525.07,460.48 527.81,461.30 530.55,462.11 533.28,462.90 536.02,463.66 538.76,464.41 541.50,465.14 544.23,465.86 546.97,466.56 549.71,467.24 552.44,467.90 555.18,468.55 557.92,469.18 560.65,469.79 563.39,470.40 566.13,470.98 568.87,471.55 571.60,472.11 574.34,472.66 577.08,473.19 579.81,473.71 582.55,474.21 585.29,474.70 588.02,475.18 590.76,475.65 593.50,476.11 596.23,476.55 598.97,476.99 601.71,477.41 604.45,477.82 607.18,478.22 609.92,478.62 609.92,493.13 607.18,493.13 604.45,493.13 601.71,493.13 598.97,493.13 596.23,493.13 593.50,493.13 590.76,493.13 588.02,493.13 585.29,493.13 582.55,493.13 579.81,493.13 577.08,493.13 574.34,493.13 571.60,493.13 568.87,493.13 566.13,493.13 563.39,493.13 560.65,493.13 557.92,493.13 555.18,493.13 552.44,493.13 549.71,493.13 546.97,493.13 544.23,493.13 541.50,493.13 538.76,493.13 536.02,493.13 533.28,493.13 530.55,493.13 527.81,493.13 525.07,493.13 522.34,493.13 519.60,493.13 516.86,493.13 514.13,493.13 511.39,493.13 508.65,493.13 505.92,493.13 503.18,493.13 500.44,493.13 497.70,493.13 494.97,493.13 492.23,493.13 489.49,493.13 486.76,493.13 484.02,493.13 481.28,493.13 478.55,493.13 475.81,493.13 473.07,493.13 470.34,493.13 467.60,493.13 464.86,493.13 462.12,493.13 459.39,493.13 456.65,493.13 453.91,493.13 451.18,493.13 448.44,493.13 445.70,493.13 442.97,493.13 440.23,493.13 437.49,493.13 434.75,493.13 432.02,493.13 429.28,493.13 426.54,493.13 423.81,493.13 421.07,493.13 418.33,493.13 415.60,493.13 412.86,493.13 410.12,493.13 407.39,493.13 404.65,493.13 401.91,493.13 399.17,493.13 396.44,493.13 393.70,493.13 390.96,493.13 388.23,493.13 385.49,493.13 382.75,493.13 380.02,493.13 377.28,493.13 374.54,493.13 371.80,493.13 369.07,493.13 366.33,493.13 363.59,493.13 360.86,493.13 358.12,493.13 355.38,493.13 352.65,493.13 349.91,493.13 347.17,493.13 344.44,493.13 341.70,493.13 338.96,493.13 336.22,493.13 333.49,493.13 330.75,493.13 328.01,493.13 325.28,493.13 322.54,493.13 319.80,493.13 317.07,493.13 314.33,493.13 311.59,493.13 308.86,493.13 306.12,493.13 303.38,493.13 300.64,493.13 297.91,493.13 295.17,493.13 292.43,493.13 289.70,493.13 286.96,493.13 284.22,493.13 281.49,493.13 278.75,493.13 276.01,493.13 273.27,493.13 270.54,493.13 267.80,493.13 265.06,493.13 262.33,493.13 259.59,493.13 256.85,493.13 254.12,493.13 251.38,493.12 248.64,493.12 245.91,493.12 243.17,493.12 240.43,493.12 237.69,493.11 234.96,493.08 232.22,493.02 229.48,492.88 226.75,492.57 224.01,491.85 221.27,490.22 218.54,486.56 215.80,478.62 213.06,461.38 210.32,426.26 207.59,364.69 204.85,279.47 202.11,253.65 199.38,244.30 196.64,228.19 193.90,220.62 191.17,210.94 188.43,200.10 185.69,185.51 182.96,182.59 180.22,179.04 177.48,176.31 174.74,170.65 172.01,168.08 169.27,165.83 166.53,163.60 163.80,161.39 161.06,159.21 158.32,157.05 155.59,154.95 152.85,152.88 150.11,150.84 147.38,148.83 144.64,146.86 141.90,144.91 139.16,143.00 136.43,141.13 133.69,139.28 130.95,137.47 128.22,135.69 125.48,133.94 122.74,132.22 120.01,130.53 117.27,128.88 114.53,127.25 111.79,125.66 109.06,124.10 106.32,122.56 103.58,121.06 100.85,119.58 98.11,118.14 95.37,116.72 92.64,115.34 89.90,113.98 87.16,112.65 84.43,111.37 81.69,110.11 78.95,108.88 76.21,107.67 73.48,106.49 70.74,105.34 68.00,104.21 65.27,103.11" style="stroke-width: 0.00;stroke: none;stroke-linecap: butt;fill: #00BFC4;fill-opacity: 0.20;" />
<polyline points="65.27,46.51 68.00,46.51 70.74,46.51 73.48,46.51 76.21,46.51 78.95,46.51 81.69,46.51 84.43,46.51 87.16,46.51 89.90,46.51 92.64,46.51 95.37,46.51 98.11,46.51 100.85,46.51 103.58,46.51 106.32,46.51 109.06,46.51 111.79,46.53 114.53,46.53 117.27,46.53 120.01,46.54 122.74,46.56 125.48,46.56 128.22,46.64 130.95,46.64 133.69,46.66 136.43,46.66 139.16,46.66 141.90,46.66 144.64,46.70 147.38,46.72 150.11,46.73 152.85,46.78 155.59,46.81 158.32,46.83 161.06,46.85 163.80,46.85 166.53,46.95 169.27,46.96 172.01,46.96 174.74,46.96 177.48,47.02 180.22,47.09 182.96,47.21 185.69,47.39 188.43,47.47 191.17,47.56 193.90,47.76 196.64,47.91 199.38,48.16 202.11,48.66 204.85,49.06 207.59,49.62 210.32,50.46 213.06,51.50 215.80,52.96 218.54,54.72 221.27,57.07 224.01,60.29 226.75,64.16 229.48,69.14 232.22,75.24 234.96,82.64 237.69,91.21 240.43,101.59 243.17,113.49 245.91,126.96 248.64,142.82 251.38,158.57 254.12,175.75 256.85,191.35 259.59,207.45 262.33,222.22 265.06,236.37 267.80,248.53 270.54,258.03 273.27,265.25 276.01,270.53 278.75,274.48 281.49,277.20 284.22,280.35 286.96,283.54 289.70,286.68 292.43,289.89 295.17,293.09 297.91,296.30 300.64,299.43 303.38,302.42 306.12,305.45 308.86,308.47 311.59,311.48 314.33,314.48 317.07,317.46 319.80,320.43 322.54,323.38 325.28,326.31 328.01,329.20 330.75,332.06 333.49,334.91 336.22,337.73 338.96,340.53 341.70,343.30 344.44,346.05 347.17,348.78 349.91,351.48 352.65,354.16 355.38,356.81 358.12,359.43 360.86,362.02 363.59,364.59 366.33,367.12 369.07,369.63 371.80,372.11 374.54,374.55 377.28,376.97 380.02,379.35 382.75,381.71 385.49,384.03 388.23,386.32 390.96,388.57 393.70,390.80 396.44,392.99 399.17,395.14 401.91,397.27 404.65,399.36 407.39,401.42 410.12,403.44 412.86,405.42 415.60,407.37 418.33,409.28 421.07,411.16 423.81,413.01 426.54,414.83 429.28,416.61 432.02,418.37 434.75,420.09 437.49,421.77 440.23,423.40 442.97,425.00 445.70,426.57 448.44,428.11 451.18,429.62 453.91,431.10 456.65,432.56 459.39,433.98 462.12,435.38 464.86,436.74 467.60,438.09 470.34,439.40 473.07,440.68 475.81,441.94 478.55,443.18 481.28,444.38 484.02,445.57 486.76,446.72 489.49,447.85 492.23,448.96 494.97,450.05 497.70,451.11 500.44,452.14 503.18,453.15 505.92,454.15 508.65,455.11 511.39,456.06 514.13,456.99 516.86,457.89 519.60,458.77 522.34,459.64 525.07,460.48 527.81,461.30 530.55,462.11 533.28,462.90 536.02,463.66 538.76,464.41 541.50,465.14 544.23,465.86 546.97,466.56 549.71,467.24 552.44,467.90 555.18,468.55 557.92,469.18 560.65,469.79 563.39,470.40 566.13,470.98 568.87,471.55 571.60,472.11 574.34,472.66 577.08,473.19 579.81,473.71 582.55,474.21 585.29,474.70 588.02,475.18 590.76,475.65 593.50,476.11 596.23,476.55 598.97,476.99 601.71,477.41 604.45,477.82 607.18,478.22 609.92,478.62" style="stroke-width: 1.07;stroke: none;stroke-linecap: butt;"/>
<polyline points="609.92,493.13 607.18,493.13 604.45,493.13 601.71,493.13 598.97,493.13 596.23,493.13 593.50,493.13 590.76,493.13 588.02,493.13 585.29,493.13 582.55,493.13 579.81,493.13 577.08,493.13 574.34,493.13 571.60,493.13 568.87,493.13 566.13,493.13 563.39,493.13 560.65,493.13 557.92,493.13 555.18,493.13 552.44,493.13 549.71,493.13 546.97,493.13 544.23,493.13 541.50,493.13 538.76,493.13 536.02,493.13 533.28,493.13 530.55,493.13 527.81,493.13 525.07,493.13 522.34,493.13 519.60,493.13 516.86,493.13 514.13,493.13 511.39,493.13 508.65,493.13 505.92,493.13 503.18,493.13 500.44,493.13 497.70,493.13 494.97,493.13 492.23,493.13 489.49,493.13 486.76,493.13 484.02,493.13 481.28,493.13 478.55,493.13 475.81,493.13 473.07,493.13 470.34,493.13 467.60,493.13 464.86,493.13 462.12,493.13 459.39,493.13 456.65,493.13 453.91,493.13 451.18,493.13 448.44,493.13 445.70,493.13 442.97,493.13 440.23,493.13 437.49,493.13 434.75,493.13 432.02,493.13 429.28,493.13 426.54,493.13 423.81,493.13 421.07,493.13 418.33,493.13 415.60,493.13 412.86,493.13 410.12,493.13 407.39,493.13 404.65,493.13 401.91,493.13 399.17,493.13 396.44,493.13 393.70,493.13 390.96,493.13 388.23,493.13 385.49,493.13 382.75,493.13 380.02,493.13 377.28,493.13 374.54,493.13 371.80,493.13 369.07,493.13 366.33,493.13 363.59,493.13 360.86,493.13 358.12,493.13 355.38,493.13 352.65,493.13 349.91,493.13 347.17,493.13 344.44,493.13 341.70,493.13 338.96,493.13 336.22,493.13 333.49,493.13 330.75,493.13 328.01,493.13 325.28,493.13 322.54,493.13 319.80,493.13 317.07,493.13 314.33,493.13 311.59,493.13 308.86,493.13 306.12,493.13 303.38,493.13 300.64,493.13 297.91,493.13 295.17,493.13 292.43,493.13 289.70,493.13 286.96,493.13 284.22,493.13 281.49,493.13 278.75,493.13 276.01,493.13 273.27,493.13 270.54,493.13 267.80,493.13 265.06,493.13 262.33,493.13 259.59,493.13 256.85,493.13 254.12,493.13 251.38,493.12 248.64,493.12 245.91,493.12 243.17,493.12 240.43,493.12 237.69,493.11 234.96,493.08 232.22,493.02 229.48,492.88 226.75,492.57 224.01,491.85 221.27,490.22 218.54,486.56 215.80,478.62 213.06,461.38 210.32,426.26 207.59,364.69 204.85,279.47 202.11,253.65 199.38,244.30 196.64,228.19 193.90,220.62 191.17,210.94 188.43,200.10 185.69,185.51 182.96,182.59 180.22,179.04 177.48,176.31 174.74,170.65 172.01,168.08 169.27,165.83 166.53,163.60 163.80,161.39 161.06,159.21 158.32,157.05 155.59,154.95 152.85,152.88 150.11,150.84 147.38,148.83 144.64,146.86 141.90,144.91 139.16,143.00 136.43,141.13 133.69,139.28 130.95,137.47 128.22,135.69 125.48,133.94 122.74,132.22 120.01,130.53 117.27,128.88 114.53,127.25 111.79,125.66 109.06,124.10 106.32,122.56 103.58,121.06 100.85,119.58 98.11,118.14 95.37,116.72 92.64,115.34 89.90,113.98 87.16,112.65 84.43,111.37 81.69,110.11 78.95,108.88 76.21,107.67 73.48,106.49 70.74,105.34 68.00,104.21 65.27,103.11" style="stroke-width: 1.07;stroke: none;stroke-linecap: butt;"/>
<polygon points="65.27,45.56 68.00,45.56 70.74,45.56 73.48,45.56 76.21,45.56 78.95,45.56 81.69,45.56 84.43,45.56 87.16,45.56 89.90,45.56 92.64,45.56 95.37,45.56 98.11,45.56 100.85,45.56 103.58,45.56 106.32,45.56 109.06,45.56 111.79,45.56 114.53,45.56 117.27,45.56 120.01,45.56 122.74,45.56 125.48,45.56 128.22,45.56 130.95,45.56 133.69,45.56 136.43,45.56 139.16,45.56 141.90,45.56 144.64,45.56 147.38,45.56 150.11,45.56 152.85,45.56 155.59,45.56 158.32,45.56 161.06,45.56 163.80,45.56 166.53,45.56 169.27,45.56 172.01,45.56 174.74,45.56 177.48,45.56 180.22,45.56 182.96,45.56 185.69,45.56 188.43,45.56 191.17,45.56 193.90,45.56 196.64,45.56 199.38,45.56 202.11,45.56 204.85,45.56 207.59,45.56 210.32,45.56 213.06,45.63 215.80,45.71 218.54,45.87 221.27,46.10 224.01,46.38 226.75,46.75 229.48,47.29 232.22,48.06 234.96,49.15 237.69,50.62 240.43,52.69 243.17,55.83 245.91,59.93 248.64,65.36 251.38,72.53 254.12,81.83 256.85,92.82 259.59,105.52 262.33,121.26 265.06,137.73 267.80,155.83 270.54,174.56 273.27,192.61 276.01,209.87 278.75,225.08 281.49,238.46 284.22,249.72 286.96,258.72 289.70,265.57 292.43,269.40 295.17,272.93 297.91,276.46 300.64,280.54 303.38,284.60 306.12,288.32 308.86,292.22 311.59,296.11 314.33,299.98 317.07,303.81 319.80,307.41 322.54,310.99 325.28,314.54 328.01,318.07 330.75,321.58 333.49,325.06 336.22,328.51 338.96,331.93 341.70,335.32 344.44,338.67 347.17,341.99 349.91,345.28 352.65,348.53 355.38,351.76 358.12,354.95 360.86,358.10 363.59,361.20 366.33,364.27 369.07,367.29 371.80,370.27 374.54,373.21 377.28,376.10 380.02,378.95 382.75,381.75 385.49,384.50 388.23,387.21 390.96,389.87 393.70,392.48 396.44,395.04 399.17,397.56 401.91,400.03 404.65,402.46 407.39,404.83 410.12,407.16 412.86,409.44 415.60,411.68 418.33,413.87 421.07,416.01 423.81,418.10 426.54,420.15 429.28,422.16 432.02,424.12 434.75,426.03 437.49,427.90 440.23,429.73 442.97,431.52 445.70,433.26 448.44,434.96 451.18,436.62 453.91,438.24 456.65,439.81 459.39,441.35 462.12,442.85 464.86,444.32 467.60,445.74 470.34,447.13 473.07,448.48 475.81,449.80 478.55,451.08 481.28,452.33 484.02,453.54 486.76,454.72 489.49,455.87 492.23,456.99 494.97,458.08 497.70,459.13 500.44,460.16 503.18,461.16 505.92,462.13 508.65,463.08 511.39,463.99 514.13,464.89 516.86,465.75 519.60,466.59 522.34,467.41 525.07,468.20 527.81,468.97 530.55,469.72 533.28,470.44 536.02,471.15 538.76,471.83 541.50,472.49 544.23,473.14 546.97,473.76 549.71,474.37 552.44,474.96 555.18,475.53 557.92,476.08 560.65,476.61 563.39,477.13 566.13,477.64 568.87,478.13 571.60,478.60 574.34,479.06 577.08,479.51 579.81,479.94 582.55,480.36 585.29,480.76 588.02,481.15 590.76,481.53 593.50,481.90 596.23,482.26 598.97,482.61 601.71,482.94 604.45,483.27 607.18,483.58 609.92,483.89 609.92,493.13 607.18,493.13 604.45,493.13 601.71,493.13 598.97,493.13 596.23,493.13 593.50,493.13 590.76,493.13 588.02,493.13 585.29,493.13 582.55,493.13 579.81,493.13 577.08,493.13 574.34,493.13 571.60,493.13 568.87,493.13 566.13,493.13 563.39,493.13 560.65,493.13 557.92,493.13 555.18,493.13 552.44,493.13 549.71,493.13 546.97,493.13 544.23,493.13 541.50,493.13 538.76,493.13 536.02,493.13 533.28,493.13 530.55,493.13 527.81,493.13 525.07,493.13 522.34,493.13 519.60,493.13 516.86,493.13 514.13,493.13 511.39,493.13 508.65,493.13 505.92,493.13 503.18,493.13 500.44,493.13 497.70,493.13 494.97,493.13 492.23,493.13 489.49,493.13 486.76,493.13 484.02,493.13 481.28,493.13 478.55,493.13 475.81,493.13 473.07,493.13 470.34,493.13 467.60,493.13 464.86,493.13 462.12,493.13 459.39,493.13 456.65,493.13 453.91,493.13 451.18,493.13 448.44,493.13 445.70,493.13 442.97,493.13 440.23,493.13 437.49,493.13 434.75,493.13 432.02,493.13 429.28,493.13 426.54,493.13 423.81,493.13 421.07,493.13 418.33,493.13 415.60,493.13 412.86,493.13 410.12,493.13 407.39,493.13 404.65,493.13 401.91,493.13 399.17,493.13 396.44,493.13 393.70,493.13 390.96,493.13 388.23,493.13 385.49,493.13 382.75,493.13 380.02,493.13 377.28,493.13 374.54,493.13 371.80,493.13 369.07,493.13 366.33,493.13 363.59,493.13 360.86,493.13 358.12,493.13 355.38,493.13 352.65,493.13 349.91,493.13 347.17,493.13 344.44,493.13 341.70,493.13 338.96,493.13 336.22,493.13 333.49,493.13 330.75,493.13 328.01,493.13 325.28,493.13 322.54,493.13 319.80,493.13 317.07,493.13 314.33,493.13 311.59,493.13 308.86,493.13 306.12,493.13 303.38,493.13 300.64,493.13 297.91,493.13 295.17,493.13 292.43,493.13 289.70,493.13 286.96,493.13 284.22,493.13 281.49,493.13 278.75,493.13 276.01,493.13 273.27,493.13 270.54,493.13 267.80,493.13 265.06,493.13 262.33,493.13 259.59,493.13 256.85,493.12 254.12,493.12 251.38,493.12 248.64,493.12 245.91,493.11 243.17,493.08 240.43,493.00 237.69,492.79 234.96,492.24 232.22,490.76 229.48,486.87 226.75,476.82 224.01,452.01 221.27,397.82 218.54,305.36 215.80,247.61 213.06,217.96 210.32,188.24 207.59,173.40 204.85,162.17 202.11,158.23 199.38,155.50 196.64,152.81 193.90,150.16 191.17,147.56 188.43,145.01 185.69,142.51 182.96,140.05 180.22,137.64 177.48,135.28 174.74,132.97 172.01,130.70 169.27,128.44 166.53,126.23 163.80,124.06 161.06,121.94 158.32,119.87 155.59,117.84 152.85,115.86 150.11,113.92 147.38,112.03 144.64,110.18 141.90,108.38 139.16,106.61 136.43,104.89 133.69,103.21 130.95,101.57 128.22,99.97 125.48,98.42 122.74,96.90 120.01,95.41 117.27,93.97 114.53,92.56 111.79,91.19 109.06,89.86 106.32,88.56 103.58,87.30 100.85,86.07 98.11,84.87 95.37,83.70 92.64,82.57 89.90,81.47 87.16,80.39 84.43,79.35 81.69,78.34 78.95,77.35 76.21,76.40 73.48,75.47 70.74,74.56 68.00,73.68 65.27,72.83" style="stroke-width: 0.00;stroke: none;stroke-linecap: butt;fill: #C77CFF;fill-opacity: 0.20;" />
<polyline points="65.27,45.56 68.00,45.56 70.74,45.56 73.48,45.56 76.21,45.56 78.95,45.56 81.69,45.56 84.43,45.56 87.16,45.56 89.90,45.56 92.64,45.56 95.37,45.56 98.11,45.56 100.85,45.56 103.58,45.56 106.32,45.56 109.06,45.56 111.79,45.56 114.53,45.56 117.27,45.56 120.01,45.56 122.74,45.56 125.48,45.56 128.22,45.56 130.95,45.56 133.69,45.56 136.43,45.56 139.16,45.56 141.90,45.56 144.64,45.56 147.38,45.56 150.11,45.56 152.85,45.56 155.59,45.56 158.32,45.56 161.06,45.56 163.80,45.56 166.53,45.56 169.27,45.56 172.01,45.56 174.74,45.56 177.48,45.56 180.22,45.56 182.96,45.56 185.69,45.56 188.43,45.56 191.17,45.56 193.90,45.56 196.64,45.56 199.38,45.56 202.11,45.56 204.85,45.56 207.59,45.56 210.32,45.56 213.06,45.63 215.80,45.71 218.54,45.87 221.27,46.10 224.01,46.38 226.75,46.75 229.48,47.29 232.22,48.06 234.96,49.15 237.69,50.62 240.43,52.69 243.17,55.83 245.91,59.93 248.64,65.36 251.38,72.53 254.12,81.83 256.85,92.82 259.59,105.52 262.33,121.26 265.06,137.73 267.80,155.83 270.54,174.56 273.27,192.61 276.01,209.87 278.75,225.08 281.49,238.46 284.22,249.72 286.96,258.72 289.70,265.57 292.43,269.40 295.17,272.93 297.91,276.46 300.64,280.54 303.38,284.60 306.12,288.32 308.86,292.22 311.59,296.11 314.33,299.98 317.07,303.81 319.80,307.41 322.54,310.99 325.28,314.54 328.01,318.07 330.75,321.58 333.49,325.06 336.22,328.51 338.96,331.93 341.70,335.32 344.44,338.67 347.17,341.99 349.91,345.28 352.65,348.53 355.38,351.76 358.12,354.95 360.86,358.10 363.59,361.20 366.33,364.27 369.07,367.29 371.80,370.27 374.54,373.21 377.28,376.10 380.02,378.95 382.75,381.75 385.49,384.50 388.23,387.21 390.96,389.87 393.70,392.48 396.44,395.04 399.17,397.56 401.91,400.03 404.65,402.46 407.39,404.83 410.12,407.16 412.86,409.44 415.60,411.68 418.33,413.87 421.07,416.01 423.81,418.10 426.54,420.15 429.28,422.16 432.02,424.12 434.75,426.03 437.49,427.90 440.23,429.73 442.97,431.52 445.70,433.26 448.44,434.96 451.18,436.62 453.91,438.24 456.65,439.81 459.39,441.35 462.12,442.85 464.86,444.32 467.60,445.74 470.34,447.13 473.07,448.48 475.81,449.80 478.55,451.08 481.28,452.33 484.02,453.54 486.76,454.72 489.49,455.87 492.23,456.99 494.97,458.08 497.70,459.13 500.44,460.16 503.18,461.16 505.92,462.13 508.65,463.08 511.39,463.99 514.13,464.89 516.86,465.75 519.60,466.59 522.34,467.41 525.07,468.20 527.81,468.97 530.55,469.72 533.28,470.44 536.02,471.15 538.76,471.83 541.50,472.49 544.23,473.14 546.97,473.76 549.71,474.37 552.44,474.96 555.18,475.53 557.92,476.08 560.65,476.61 563.39,477.13 566.13,477.64 568.87,478.13 571.60,478.60 574.34,479.06 577.08,479.51 579.81,479.94 582.55,480.36 585.29,480.76 588.02,481.15 590.76,481.53 593.50,481.90 596.23,482.26 598.97,482.61 601.71,482.94 604.45,483.27 607.18,483.58 609.92,483.89" style="stroke-width: 1.07;stroke: none;stroke-linecap: butt;"/>
<polyline points="609.92,493.13 607.18,493.13 604.45,493.13 601.71,493.13 598.97,493.13 596.23,493.13 593.50,493.13 590.76,493.13 588.02,493.13 585.29,493.13 582.55,493.13 579.81,493.13 577.08,493.13 574.34,493.13 571.60,493.13 568.87,493.13 566.13,493.13 563.39,493.13 560.65,493.13 557.92,493.13 555.18,493.13 552.44,493.13 549.71,493.13 546.97,493.13 544.23,493.13 541.50,493.13 538.76,493.13 536.02,493.13 533.28,493.13 530.55,493.13 527.81,493.13 525.07,493.13 522.34,493.13 519.60,493.13 516.86,493.13 514.13,493.13 511.39,493.13 508.65,493.13 505.92,493.13 503.18,493.13 500.44,493.13 497.70,493.13 494.97,493.13 492.23,493.13 489.49,493.13 486.76,493.13 484.02,493.13 481.28,493.13 478.55,493.13 475.81,493.13 473.07,493.13 470.34,493.13 467.60,493.13 464.86,493.13 462.12,493.13 459.39,493.13 456.65,493.13 453.91,493.13 451.18,493.13 448.44,493.13 445.70,493.13 442.97,493.13 440.23,493.13 437.49,493.13 434.75,493.13 432.02,493.13 429.28,493.13 426.54,493.13 423.81,493.13 421.07,493.13 418.33,493.13 415.60,493.13 412.86,493.13 410.12,493.13 407.39,493.13 404.65,493.13 401.91,493.13 399.17,493.13 396.44,493.13 393.70,493.13 390.96,493.13 388.23,493.13 385.49,493.13 382.75,493.13 380.02,493.13 377.28,493.13 374.54,493.13 371.80,493.13 369.07,493.13 366.33,493.13 363.59,493.13 360.86,493.13 358.12,493.13 355.38,493.13 352.65,493.13 349.91,493.13 347.17,493.13 344.44,493.13 341.70,493.13 338.96,493.13 336.22,493.13 333.49,493.13 330.75,493.13 328.01,493.13 325.28,493.13 322.54,493.13 319.80,493.13 317.07,493.13 314.33,493.13 311.59,493.13 308.86,493.13 306.12,493.13 303.38,493.13 300.64,493.13 297.91,493.13 295.17,493.13 292.43,493.13 289.70,493.13 286.96,493.13 284.22,493.13 281.49,493.13 278.75,493.13 276.01,493.13 273.27,493.13 270.54,493.13 267.80,493.13 265.06,493.13 262.33,493.13 259.59,493.13 256.85,493.12 254.12,493.12 251.38,493.12 248.64,493.12 245.91,493.11 243.17,493.08 240.43,493.00 237.69,492.79 234.96,492.24 232.22,490.76 229.48,486.87 226.75,476.82 224.01,452.01 221.27,397.82 218.54,305.36 215.80,247.61 213.06,217.96 210.32,188.24 207.59,173.40 204.85,162.17 202.11,158.23 199.38,155.50 196.64,152.81 193.90,150.16 191.17,147.56 188.43,145.01 185.69,142.51 182.96,140.05 180.22,137.64 177.48,135.28 174.74,132.97 172.01,130.70 169.27,128.44 166.53,126.23 163.80,124.06 161.06,121.94 158.32,119.87 155.59,117.84 152.85,115.86 150.11,113.92 147.38,112.03 144.64,110.18 141.90,108.38 139.16,106.61 136.43,104.89 133.69,103.21 130.95,101.57 128.22,99.97 125.48,98.42 122.74,96.90 120.01,95.41 117.27,93.97 114.53,92.56 111.79,91.19 109.06,89.86 106.32,88.56 103.58,87.30 100.85,86.07 98.11,84.87 95.37,83.70 92.64,82.57 89.90,81.47 87.16,80.39 84.43,79.35 81.69,78.34 78.95,77.35 76.21,76.40 73.48,75.47 70.74,74.56 68.00,73.68 65.27,72.83" style="stroke-width: 1.07;stroke: none;stroke-linecap: butt;"/>
<circle cx="65.27" cy="45.56" r="2.06" style="stroke-width: 0.71;stroke: #F8766D;stroke-opacity: 0.70;fill: #F8766D;fill-opacity: 0.70;"/>
<circle cx="65.27" cy="45.56" r="2.06" style="stroke-width: 0.71;stroke: #F8766D;stroke-opacity: 0.70;fill: #F8766D;fill-opacity: 0.70;"/>
<circle cx="65.27" cy="45.56" r="2.06" style="stroke-width: 0.71;stroke: #F8766D;stroke-opacity: 0.70;fill: #F8766D;fill-opacity: 0.70;"/>
<circle cx="65.27" cy="45.56" r="2.06" style="stroke-width: 0.71;stroke: #7CAE00;stroke-opacity: 0.70;fill: #7CAE00;fill-opacity: 0.70;"/>
<circle cx="65.27" cy="45.56" r="2.06" style="stroke-width: 0.71;stroke: #7CAE00;stroke-opacity: 0.70;fill: #7CAE00;fill-opacity: 0.70;"/>
<circle cx="65.27" cy="45.56" r="2.06" style="stroke-width: 0.71;stroke: #7CAE00;stroke-opacity: 0.70;fill: #7CAE00;fill-opacity: 0.70;"/>
<circle cx="65.27" cy="45.56" r="2.06" style="stroke-width: 0.71;stroke: #00BFC4;stroke-opacity: 0.70;fill: #00BFC4;fill-opacity: 0.70;"/>
<circle cx="65.27" cy="45.56" r="2.06" style="stroke-width: 0.71;stroke: #00BFC4;stroke-opacity: 0.70;fill: #00BFC4;fill-opacity: 0.70;"/>
<circle cx="65.27" cy="45.56" r="2.06" style="stroke-width: 0.71;stroke: #00BFC4;stroke-opacity: 0.70;fill: #00BFC4;fill-opacity: 0.70;"/>
<circle cx="65.27" cy="45.56" r="2.06" style="stroke-width: 0.71;stroke: #C77CFF;stroke-opacity: 0.70;fill: #C77CFF;fill-opacity: 0.70;"/>
<circle cx="65.27" cy="45.56" r="2.06" style="stroke-width: 0.71;stroke: #C77CFF;stroke-opacity: 0.70;fill: #C77CFF;fill-opacity: 0.70;"/>
<circle cx="65.27" cy="45.56" r="2.06" style="stroke-width: 0.71;stroke: #C77CFF;stroke-opacity: 0.70;fill: #C77CFF;fill-opacity: 0.70;"/>
<circle cx="156.56" cy="103.73" r="2.06" style="stroke-width: 0.71;stroke: #F8766D;stroke-opacity: 0.70;fill: #F8766D;fill-opacity: 0.70;"/>
<circle cx="156.56" cy="114.01" r="2.06" style="stroke-width: 0.71;stroke: #F8766D;stroke-opacity: 0.70;fill: #F8766D;fill-opacity: 0.70;"/>
<circle cx="156.56" cy="75.84" r="2.06" style="stroke-width: 0.71;stroke: #F8766D;stroke-opacity: 0.70;fill: #F8766D;fill-opacity: 0.70;"/>
<circle cx="156.56" cy="45.56" r="2.06" style="stroke-width: 0.71;stroke: #7CAE00;stroke-opacity: 0.70;fill: #7CAE00;fill-opacity: 0.70;"/>
<circle cx="156.56" cy="45.56" r="2.06" style="stroke-width: 0.71;stroke: #7CAE00;stroke-opacity: 0.70;fill: #7CAE00;fill-opacity: 0.70;"/>
<circle cx="156.56" cy="45.56" r="2.06" style="stroke-width: 0.71;stroke: #7CAE00;stroke-opacity: 0.70;fill: #7CAE00;fill-opacity: 0.70;"/>
<circle cx="156.56" cy="64.31" r="2.06" style="stroke-width: 0.71;stroke: #00BFC4;stroke-opacity: 0.70;fill: #00BFC4;fill-opacity: 0.70;"/>
<circle cx="156.56" cy="79.21" r="2.06" style="stroke-width: 0.71;stroke: #00BFC4;stroke-opacity: 0.70;fill: #00BFC4;fill-opacity: 0.70;"/>
<circle cx="156.56" cy="59.85" r="2.06" style="stroke-width: 0.71;stroke: #00BFC4;stroke-opacity: 0.70;fill: #00BFC4;fill-opacity: 0.70;"/>
<circle cx="156.56" cy="45.56" r="2.06" style="stroke-width: 0.71;stroke: #C77CFF;stroke-opacity: 0.70;fill: #C77CFF;fill-opacity: 0.70;"/>
<circle cx="156.56" cy="45.56" r="2.06" style="stroke-width: 0.71;stroke: #C77CFF;stroke-opacity: 0.70;fill: #C77CFF;fill-opacity: 0.70;"/>
<circle cx="156.56" cy="52.39" r="2.06" style="stroke-width: 0.71;stroke: #C77CFF;stroke-opacity: 0.70;fill: #C77CFF;fill-opacity: 0.70;"/>
<circle cx="243.68" cy="45.56" r="2.06" style="stroke-width: 0.71;stroke: #F8766D;stroke-opacity: 0.70;fill: #F8766D;fill-opacity: 0.70;"/>
<circle cx="243.68" cy="81.67" r="2.06" style="stroke-width: 0.71;stroke: #F8766D;stroke-opacity: 0.70;fill: #F8766D;fill-opacity: 0.70;"/>
<circle cx="243.68" cy="102.85" r="2.06" style="stroke-width: 0.71;stroke: #F8766D;stroke-opacity: 0.70;fill: #F8766D;fill-opacity: 0.70;"/>
<circle cx="243.68" cy="93.54" r="2.06" style="stroke-width: 0.71;stroke: #7CAE00;stroke-opacity: 0.70;fill: #7CAE00;fill-opacity: 0.70;"/>
<circle cx="243.68" cy="97.63" r="2.06" style="stroke-width: 0.71;stroke: #7CAE00;stroke-opacity: 0.70;fill: #7CAE00;fill-opacity: 0.70;"/>
<circle cx="243.68" cy="57.72" r="2.06" style="stroke-width: 0.71;stroke: #7CAE00;stroke-opacity: 0.70;fill: #7CAE00;fill-opacity: 0.70;"/>
<circle cx="243.68" cy="167.86" r="2.06" style="stroke-width: 0.71;stroke: #00BFC4;stroke-opacity: 0.70;fill: #00BFC4;fill-opacity: 0.70;"/>
<circle cx="243.68" cy="94.17" r="2.06" style="stroke-width: 0.71;stroke: #00BFC4;stroke-opacity: 0.70;fill: #00BFC4;fill-opacity: 0.70;"/>
<circle cx="243.68" cy="107.99" r="2.06" style="stroke-width: 0.71;stroke: #00BFC4;stroke-opacity: 0.70;fill: #00BFC4;fill-opacity: 0.70;"/>
<circle cx="243.68" cy="152.42" r="2.06" style="stroke-width: 0.71;stroke: #C77CFF;stroke-opacity: 0.70;fill: #C77CFF;fill-opacity: 0.70;"/>
<circle cx="243.68" cy="53.95" r="2.06" style="stroke-width: 0.71;stroke: #C77CFF;stroke-opacity: 0.70;fill: #C77CFF;fill-opacity: 0.70;"/>
<circle cx="243.68" cy="62.04" r="2.06" style="stroke-width: 0.71;stroke: #C77CFF;stroke-opacity: 0.70;fill: #C77CFF;fill-opacity: 0.70;"/>
<circle cx="336.03" cy="453.80" r="2.06" style="stroke-width: 0.71;stroke: #F8766D;stroke-opacity: 0.70;fill: #F8766D;fill-opacity: 0.70;"/>
<circle cx="336.03" cy="459.67" r="2.06" style="stroke-width: 0.71;stroke: #F8766D;stroke-opacity: 0.70;fill: #F8766D;fill-opacity: 0.70;"/>
<circle cx="336.03" cy="465.80" r="2.06" style="stroke-width: 0.71;stroke: #F8766D;stroke-opacity: 0.70;fill: #F8766D;fill-opacity: 0.70;"/>
<circle cx="336.03" cy="493.13" r="2.06" style="stroke-width: 0.71;stroke: #7CAE00;stroke-opacity: 0.70;fill: #7CAE00;fill-opacity: 0.70;"/>
<circle cx="336.03" cy="493.13" r="2.06" style="stroke-width: 0.71;stroke: #7CAE00;stroke-opacity: 0.70;fill: #7CAE00;fill-opacity: 0.70;"/>
<circle cx="336.03" cy="493.13" r="2.06" style="stroke-width: 0.71;stroke: #7CAE00;stroke-opacity: 0.70;fill: #7CAE00;fill-opacity: 0.70;"/>
<circle cx="336.03" cy="493.13" r="2.06" style="stroke-width: 0.71;stroke: #00BFC4;stroke-opacity: 0.70;fill: #00BFC4;fill-opacity: 0.70;"/>
<circle cx="336.03" cy="493.13" r="2.06" style="stroke-width: 0.71;stroke: #00BFC4;stroke-opacity: 0.70;fill: #00BFC4;fill-opacity: 0.70;"/>
<circle cx="336.03" cy="493.13" r="2.06" style="stroke-width: 0.71;stroke: #00BFC4;stroke-opacity: 0.70;fill: #00BFC4;fill-opacity: 0.70;"/>
<circle cx="336.03" cy="493.13" r="2.06" style="stroke-width: 0.71;stroke: #C77CFF;stroke-opacity: 0.70;fill: #C77CFF;fill-opacity: 0.70;"/>
<circle cx="336.03" cy="493.13" r="2.06" style="stroke-width: 0.71;stroke: #C77CFF;stroke-opacity: 0.70;fill: #C77CFF;fill-opacity: 0.70;"/>
<circle cx="336.03" cy="493.13" r="2.06" style="stroke-width: 0.71;stroke: #C77CFF;stroke-opacity: 0.70;fill: #C77CFF;fill-opacity: 0.70;"/>
<circle cx="427.33" cy="493.13" r="2.06" style="stroke-width: 0.71;stroke: #F8766D;stroke-opacity: 0.70;fill: #F8766D;fill-opacity: 0.70;"/>
<circle cx="427.33" cy="493.13" r="2.06" style="stroke-width: 0.71;stroke: #F8766D;stroke-opacity: 0.70;fill: #F8766D;fill-opacity: 0.70;"/>
<circle cx="427.33" cy="493.13" r="2.06" style="stroke-width: 0.71;stroke: #F8766D;stroke-opacity: 0.70;fill: #F8766D;fill-opacity: 0.70;"/>
<circle cx="427.33" cy="493.13" r="2.06" style="stroke-width: 0.71;stroke: #7CAE00;stroke-opacity: 0.70;fill: #7CAE00;fill-opacity: 0.70;"/>
<circle cx="427.33" cy="493.13" r="2.06" style="stroke-width: 0.71;stroke: #7CAE00;stroke-opacity: 0.70;fill: #7CAE00;fill-opacity: 0.70;"/>
<circle cx="427.33" cy="493.13" r="2.06" style="stroke-width: 0.71;stroke: #7CAE00;stroke-opacity: 0.70;fill: #7CAE00;fill-opacity: 0.70;"/>
<circle cx="427.33" cy="493.13" r="2.06" style="stroke-width: 0.71;stroke: #00BFC4;stroke-opacity: 0.70;fill: #00BFC4;fill-opacity: 0.70;"/>
<circle cx="427.33" cy="493.13" r="2.06" style="stroke-width: 0.71;stroke: #00BFC4;stroke-opacity: 0.70;fill: #00BFC4;fill-opacity: 0.70;"/>
<circle cx="427.33" cy="493.13" r="2.06" style="stroke-width: 0.71;stroke: #00BFC4;stroke-opacity: 0.70;fill: #00BFC4;fill-opacity: 0.70;"/>
<circle cx="427.33" cy="493.13" r="2.06" style="stroke-width: 0.71;stroke: #C77CFF;stroke-opacity: 0.70;fill: #C77CFF;fill-opacity: 0.70;"/>
<circle cx="427.33" cy="493.13" r="2.06" style="stroke-width: 0.71;stroke: #C77CFF;stroke-opacity: 0.70;fill: #C77CFF;fill-opacity: 0.70;"/>
<circle cx="427.33" cy="493.13" r="2.06" style="stroke-width: 0.71;stroke: #C77CFF;stroke-opacity: 0.70;fill: #C77CFF;fill-opacity: 0.70;"/>
<circle cx="518.62" cy="493.13" r="2.06" style="stroke-width: 0.71;stroke: #F8766D;stroke-opacity: 0.70;fill: #F8766D;fill-opacity: 0.70;"/>
<circle cx="518.62" cy="493.13" r="2.06" style="stroke-width: 0.71;stroke: #F8766D;stroke-opacity: 0.70;fill: #F8766D;fill-opacity: 0.70;"/>
<circle cx="518.62" cy="493.13" r="2.06" style="stroke-width: 0.71;stroke: #F8766D;stroke-opacity: 0.70;fill: #F8766D;fill-opacity: 0.70;"/>
<circle cx="518.62" cy="493.13" r="2.06" style="stroke-width: 0.71;stroke: #7CAE00;stroke-opacity: 0.70;fill: #7CAE00;fill-opacity: 0.70;"/>
<circle cx="518.62" cy="493.13" r="2.06" style="stroke-width: 0.71;stroke: #7CAE00;stroke-opacity: 0.70;fill: #7CAE00;fill-opacity: 0.70;"/>
<circle cx="518.62" cy="493.13" r="2.06" style="stroke-width: 0.71;stroke: #7CAE00;stroke-opacity: 0.70;fill: #7CAE00;fill-opacity: 0.70;"/>
<circle cx="518.62" cy="493.13" r="2.06" style="stroke-width: 0.71;stroke: #00BFC4;stroke-opacity: 0.70;fill: #00BFC4;fill-opacity: 0.70;"/>
<circle cx="518.62" cy="493.13" r="2.06" style="stroke-width: 0.71;stroke: #00BFC4;stroke-opacity: 0.70;fill: #00BFC4;fill-opacity: 0.70;"/>
<circle cx="518.62" cy="493.13" r="2.06" style="stroke-width: 0.71;stroke: #00BFC4;stroke-opacity: 0.70;fill: #00BFC4;fill-opacity: 0.70;"/>
<circle cx="518.62" cy="493.13" r="2.06" style="stroke-width: 0.71;stroke: #C77CFF;stroke-opacity: 0.70;fill: #C77CFF;fill-opacity: 0.70;"/>
<circle cx="518.62" cy="493.13" r="2.06" style="stroke-width: 0.71;stroke: #C77CFF;stroke-opacity: 0.70;fill: #C77CFF;fill-opacity: 0.70;"/>
<circle cx="518.62" cy="493.13" r="2.06" style="stroke-width: 0.71;stroke: #C77CFF;stroke-opacity: 0.70;fill: #C77CFF;fill-opacity: 0.70;"/>
<circle cx="609.92" cy="490.09" r="2.06" style="stroke-width: 0.71;stroke: #F8766D;stroke-opacity: 0.70;fill: #F8766D;fill-opacity: 0.70;"/>
<circle cx="609.92" cy="493.13" r="2.06" style="stroke-width: 0.71;stroke: #F8766D;stroke-opacity: 0.70;fill: #F8766D;fill-opacity: 0.70;"/>
<circle cx="609.92" cy="493.13" r="2.06" style="stroke-width: 0.71;stroke: #F8766D;stroke-opacity: 0.70;fill: #F8766D;fill-opacity: 0.70;"/>
<circle cx="609.92" cy="493.13" r="2.06" style="stroke-width: 0.71;stroke: #7CAE00;stroke-opacity: 0.70;fill: #7CAE00;fill-opacity: 0.70;"/>
<circle cx="609.92" cy="492.52" r="2.06" style="stroke-width: 0.71;stroke: #7CAE00;stroke-opacity: 0.70;fill: #7CAE00;fill-opacity: 0.70;"/>
<circle cx="609.92" cy="493.13" r="2.06" style="stroke-width: 0.71;stroke: #7CAE00;stroke-opacity: 0.70;fill: #7CAE00;fill-opacity: 0.70;"/>
<circle cx="609.92" cy="493.13" r="2.06" style="stroke-width: 0.71;stroke: #00BFC4;stroke-opacity: 0.70;fill: #00BFC4;fill-opacity: 0.70;"/>
<circle cx="609.92" cy="493.13" r="2.06" style="stroke-width: 0.71;stroke: #00BFC4;stroke-opacity: 0.70;fill: #00BFC4;fill-opacity: 0.70;"/>
<circle cx="609.92" cy="492.14" r="2.06" style="stroke-width: 0.71;stroke: #00BFC4;stroke-opacity: 0.70;fill: #00BFC4;fill-opacity: 0.70;"/>
<circle cx="609.92" cy="493.13" r="2.06" style="stroke-width: 0.71;stroke: #C77CFF;stroke-opacity: 0.70;fill: #C77CFF;fill-opacity: 0.70;"/>
<circle cx="609.92" cy="493.13" r="2.06" style="stroke-width: 0.71;stroke: #C77CFF;stroke-opacity: 0.70;fill: #C77CFF;fill-opacity: 0.70;"/>
<circle cx="609.92" cy="488.79" r="2.06" style="stroke-width: 0.71;stroke: #C77CFF;stroke-opacity: 0.70;fill: #C77CFF;fill-opacity: 0.70;"/>
<polyline points="65.27,76.58 68.00,76.64 70.74,76.71 73.48,76.78 76.21,76.86 78.95,76.93 81.69,77.01 84.43,77.09 87.16,77.17 89.90,77.26 92.64,77.35 95.37,77.44 98.11,77.53 100.85,77.63 103.58,77.73 106.32,77.84 109.06,77.95 111.79,78.06 114.53,78.18 117.27,78.30 120.01,78.43 122.74,78.56 125.48,78.70 128.22,78.85 130.95,79.00 133.69,79.15 136.43,79.32 139.16,79.49 141.90,79.67 144.64,79.85 147.38,80.05 150.11,80.26 152.85,80.47 155.59,80.70 158.32,80.94 161.06,81.19 163.80,81.45 166.53,81.73 169.27,82.02 172.01,82.33 174.74,82.65 177.48,83.00 180.22,83.37 182.96,83.75 185.69,84.16 188.43,84.60 191.17,85.07 193.90,85.56 196.64,86.09 199.38,86.65 202.11,87.25 204.85,87.89 207.59,88.58 210.32,89.32 213.06,90.11 215.80,90.97 218.54,91.88 221.27,92.87 224.01,93.94 226.75,95.10 229.48,96.35 232.22,97.70 234.96,99.17 237.69,100.77 240.43,102.51 243.17,104.41 245.91,106.48 248.64,108.74 251.38,111.22 254.12,113.93 256.85,116.90 259.59,120.16 262.33,123.75 265.06,127.69 267.80,132.02 270.54,136.79 273.27,142.04 276.01,147.81 278.75,154.15 281.49,161.11 284.22,168.74 286.96,177.09 289.70,186.19 292.43,196.10 295.17,206.82 297.91,218.39 300.64,230.78 303.38,243.99 306.12,257.95 308.86,272.59 311.59,287.81 314.33,303.45 317.07,319.35 319.80,335.31 322.54,351.09 325.28,366.47 328.01,381.20 330.75,395.05 333.49,407.85 336.22,419.46 338.96,429.81 341.70,438.89 344.44,446.73 347.17,453.40 349.91,459.00 352.65,463.63 355.38,467.42 358.12,470.49 360.86,472.98 363.59,474.98 366.33,476.60 369.07,477.92 371.80,479.02 374.54,479.94 377.28,480.72 380.02,481.40 382.75,481.99 385.49,482.52 388.23,483.00 390.96,483.43 393.70,483.82 396.44,484.18 399.17,484.51 401.91,484.82 404.65,485.10 407.39,485.37 410.12,485.62 412.86,485.85 415.60,486.07 418.33,486.27 421.07,486.47 423.81,486.65 426.54,486.83 429.28,486.99 432.02,487.15 434.75,487.29 437.49,487.44 440.23,487.57 442.97,487.70 445.70,487.82 448.44,487.94 451.18,488.05 453.91,488.16 456.65,488.26 459.39,488.36 462.12,488.46 464.86,488.55 467.60,488.64 470.34,488.73 473.07,488.81 475.81,488.89 478.55,488.96 481.28,489.04 484.02,489.11 486.76,489.18 489.49,489.25 492.23,489.31 494.97,489.37 497.70,489.43 500.44,489.49 503.18,489.55 505.92,489.60 508.65,489.66 511.39,489.71 514.13,489.76 516.86,489.81 519.60,489.86 522.34,489.91 525.07,489.95 527.81,490.00 530.55,490.04 533.28,490.08 536.02,490.12 538.76,490.16 541.50,490.20 544.23,490.24 546.97,490.28 549.71,490.31 552.44,490.35 555.18,490.38 557.92,490.42 560.65,490.45 563.39,490.48 566.13,490.51 568.87,490.54 571.60,490.57 574.34,490.60 577.08,490.63 579.81,490.66 582.55,490.69 585.29,490.72 588.02,490.74 590.76,490.77 593.50,490.79 596.23,490.82 598.97,490.84 601.71,490.87 604.45,490.89 607.18,490.91 609.92,490.94" style="stroke-width: 1.71;stroke: #F8766D;stroke-linecap: butt;"/>
<polyline points="65.27,45.56 68.00,45.56 70.74,45.56 73.48,45.56 76.21,45.56 78.95,45.56 81.69,45.56 84.43,45.56 87.16,45.56 89.90,45.56 92.64,45.56 95.37,45.56 98.11,45.56 100.85,45.56 103.58,45.56 106.32,45.56 109.06,45.56 111.79,45.56 114.53,45.56 117.27,45.56 120.01,45.56 122.74,45.56 125.48,45.56 128.22,45.56 130.95,45.56 133.69,45.56 136.43,45.56 139.16,45.56 141.90,45.56 144.64,45.56 147.38,45.56 150.11,45.56 152.85,45.56 155.59,45.56 158.32,45.56 161.06,45.56 163.80,45.56 166.53,45.56 169.27,45.56 172.01,45.56 174.74,45.57 177.48,45.57 180.22,45.58 182.96,45.59 185.69,45.60 188.43,45.61 191.17,45.64 193.90,45.67 196.64,45.71 199.38,45.78 202.11,45.86 204.85,45.99 207.59,46.16 210.32,46.41 213.06,46.75 215.80,47.23 218.54,47.92 221.27,48.87 224.01,50.22 226.75,52.11 229.48,54.76 232.22,58.46 234.96,63.60 237.69,70.69 240.43,80.37 243.17,93.38 245.91,110.53 248.64,132.52 251.38,159.74 254.12,191.99 256.85,228.27 259.59,266.78 262.33,305.28 265.06,341.55 267.80,373.88 270.54,401.35 273.27,423.75 276.01,441.43 278.75,455.03 281.49,465.28 284.22,472.90 286.96,478.49 289.70,482.57 292.43,485.53 295.17,487.67 297.91,489.21 300.64,490.31 303.38,491.10 306.12,491.67 308.86,492.08 311.59,492.38 314.33,492.59 317.07,492.74 319.80,492.85 322.54,492.92 325.28,492.98 328.01,493.02 330.75,493.05 333.49,493.07 336.22,493.09 338.96,493.10 341.70,493.10 344.44,493.11 347.17,493.11 349.91,493.12 352.65,493.12 355.38,493.12 358.12,493.12 360.86,493.12 363.59,493.12 366.33,493.12 369.07,493.12 371.80,493.12 374.54,493.12 377.28,493.12 380.02,493.12 382.75,493.13 385.49,493.13 388.23,493.13 390.96,493.13 393.70,493.13 396.44,493.13 399.17,493.13 401.91,493.13 404.65,493.13 407.39,493.13 410.12,493.13 412.86,493.13 415.60,493.13 418.33,493.13 421.07,493.13 423.81,493.13 426.54,493.13 429.28,493.13 432.02,493.13 434.75,493.13 437.49,493.13 440.23,493.13 442.97,493.13 445.70,493.13 448.44,493.13 451.18,493.13 453.91,493.13 456.65,493.13 459.39,493.13 462.12,493.13 464.86,493.13 467.60,493.13 470.34,493.13 473.07,493.13 475.81,493.13 478.55,493.13 481.28,493.13 484.02,493.13 486.76,493.13 489.49,493.13 492.23,493.13 494.97,493.13 497.70,493.13 500.44,493.13 503.18,493.13 505.92,493.13 508.65,493.13 511.39,493.13 514.13,493.13 516.86,493.13 519.60,493.13 522.34,493.13 525.07,493.13 527.81,493.13 530.55,493.13 533.28,493.13 536.02,493.13 538.76,493.13 541.50,493.13 544.23,493.13 546.97,493.13 549.71,493.13 552.44,493.13 555.18,493.13 557.92,493.13 560.65,493.13 563.39,493.13 566.13,493.13 568.87,493.13 571.60,493.13 574.34,493.13 577.08,493.13 579.81,493.13 582.55,493.13 585.29,493.13 588.02,493.13 590.76,493.13 593.50,493.13 596.23,493.13 598.97,493.13 601.71,493.13 604.45,493.13 607.18,493.13 609.92,493.13" style="stroke-width: 1.71;stroke: #7CAE00;stroke-linecap: butt;"/>
<polyline points="65.27,60.36 68.00,60.41 70.74,60.47 73.48,60.53 76.21,60.59 78.95,60.65 81.69,60.72 84.43,60.78 87.16,60.85 89.90,60.92 92.64,61.00 95.37,61.07 98.11,61.15 100.85,61.23 103.58,61.32 106.32,61.40 109.06,61.49 111.79,61.59 114.53,61.68 117.27,61.78 120.01,61.89 122.74,61.99 125.48,62.11 128.22,62.22 130.95,62.35 133.69,62.48 136.43,62.61 139.16,62.75 141.90,62.89 144.64,63.05 147.38,63.21 150.11,63.38 152.85,63.55 155.59,63.74 158.32,63.94 161.06,64.15 163.80,64.37 166.53,64.61 169.27,64.88 172.01,65.18 174.74,65.56 177.48,66.05 180.22,66.68 182.96,67.43 185.69,68.38 188.43,69.61 191.17,71.16 193.90,72.99 196.64,75.05 199.38,77.42 202.11,80.20 204.85,83.54 207.59,87.61 210.32,92.53 213.06,98.38 215.80,105.16 218.54,112.95 221.27,121.85 224.01,131.96 226.75,143.34 229.48,156.02 232.22,170.06 234.96,185.44 237.69,202.06 240.43,219.72 243.17,238.17 245.91,257.08 248.64,276.11 251.38,294.88 254.12,313.06 256.85,330.36 259.59,346.57 262.33,361.53 265.06,375.17 267.80,387.48 270.54,398.49 273.27,408.28 276.01,416.93 278.75,424.54 281.49,431.23 284.22,437.10 286.96,442.26 289.70,446.78 292.43,450.76 295.17,454.26 297.91,457.35 300.64,460.09 303.38,462.52 306.12,464.68 308.86,466.61 311.59,468.35 314.33,469.90 317.07,471.30 319.80,472.57 322.54,473.72 325.28,474.77 328.01,475.72 330.75,476.59 333.49,477.39 336.22,478.13 338.96,478.81 341.70,479.44 344.44,480.02 347.17,480.56 349.91,481.06 352.65,481.53 355.38,481.96 358.12,482.37 360.86,482.76 363.59,483.12 366.33,483.46 369.07,483.77 371.80,484.07 374.54,484.36 377.28,484.63 380.02,484.88 382.75,485.12 385.49,485.35 388.23,485.57 390.96,485.78 393.70,485.98 396.44,486.16 399.17,486.34 401.91,486.52 404.65,486.68 407.39,486.84 410.12,486.99 412.86,487.13 415.60,487.27 418.33,487.40 421.07,487.53 423.81,487.65 426.54,487.77 429.28,487.89 432.02,488.00 434.75,488.10 437.49,488.20 440.23,488.30 442.97,488.40 445.70,488.49 448.44,488.58 451.18,488.66 453.91,488.75 456.65,488.83 459.39,488.90 462.12,488.98 464.86,489.05 467.60,489.12 470.34,489.19 473.07,489.26 475.81,489.32 478.55,489.39 481.28,489.45 484.02,489.51 486.76,489.56 489.49,489.62 492.23,489.67 494.97,489.73 497.70,489.78 500.44,489.83 503.18,489.88 505.92,489.93 508.65,489.97 511.39,490.02 514.13,490.06 516.86,490.11 519.60,490.15 522.34,490.19 525.07,490.23 527.81,490.27 530.55,490.31 533.28,490.35 536.02,490.38 538.76,490.42 541.50,490.45 544.23,490.49 546.97,490.52 549.71,490.55 552.44,490.59 555.18,490.62 557.92,490.65 560.65,490.68 563.39,490.71 566.13,490.74 568.87,490.76 571.60,490.79 574.34,490.82 577.08,490.85 579.81,490.87 582.55,490.90 585.29,490.92 588.02,490.95 590.76,490.97 593.50,491.00 596.23,491.02 598.97,491.04 601.71,491.06 604.45,491.09 607.18,491.11 609.92,491.13" style="stroke-width: 1.71;stroke: #00BFC4;stroke-linecap: butt;"/>
<polyline points="65.27,49.58 68.00,49.62 70.74,49.66 73.48,49.70 76.21,49.74 78.95,49.78 81.69,49.83 84.43,49.87 87.16,49.92 89.90,49.96 92.64,50.01 95.37,50.06 98.11,50.11 100.85,50.17 103.58,50.22 106.32,50.28 109.06,50.34 111.79,50.40 114.53,50.46 117.27,50.52 120.01,50.59 122.74,50.66 125.48,50.73 128.22,50.81 130.95,50.89 133.69,50.97 136.43,51.05 139.16,51.14 141.90,51.23 144.64,51.33 147.38,51.43 150.11,51.53 152.85,51.64 155.59,51.75 158.32,51.87 161.06,52.00 163.80,52.13 166.53,52.27 169.27,52.41 172.01,52.56 174.74,52.72 177.48,52.90 180.22,53.08 182.96,53.27 185.69,53.47 188.43,53.69 191.17,53.92 193.90,54.18 196.64,54.46 199.38,54.81 202.11,55.27 204.85,55.99 207.59,57.21 210.32,59.21 213.06,62.18 215.80,66.06 218.54,70.64 221.27,75.75 224.01,81.43 226.75,87.91 229.48,95.35 232.22,103.81 234.96,113.46 237.69,124.62 240.43,137.55 243.17,152.34 245.91,168.87 248.64,186.91 251.38,206.16 254.12,226.28 256.85,246.88 259.59,267.61 262.33,288.10 265.06,308.01 267.80,326.98 270.54,344.72 273.27,361.05 276.01,375.84 278.75,389.08 281.49,400.81 284.22,411.13 286.96,420.16 289.70,428.03 292.43,434.87 295.17,440.81 297.91,445.97 300.64,450.45 303.38,454.35 306.12,457.76 308.86,460.74 311.59,463.35 314.33,465.65 317.07,467.69 319.80,469.49 322.54,471.10 325.28,472.53 328.01,473.82 330.75,474.98 333.49,476.03 336.22,476.98 338.96,477.84 341.70,478.63 344.44,479.35 347.17,480.01 349.91,480.62 352.65,481.18 355.38,481.69 358.12,482.17 360.86,482.62 363.59,483.03 366.33,483.42 369.07,483.78 371.80,484.11 374.54,484.43 377.28,484.73 380.02,485.00 382.75,485.27 385.49,485.51 388.23,485.75 390.96,485.97 393.70,486.17 396.44,486.37 399.17,486.56 401.91,486.74 404.65,486.90 407.39,487.07 410.12,487.22 412.86,487.36 415.60,487.50 418.33,487.64 421.07,487.76 423.81,487.88 426.54,488.00 429.28,488.11 432.02,488.22 434.75,488.32 437.49,488.42 440.23,488.51 442.97,488.60 445.70,488.69 448.44,488.78 451.18,488.86 453.91,488.94 456.65,489.01 459.39,489.08 462.12,489.15 464.86,489.22 467.60,489.29 470.34,489.35 473.07,489.41 475.81,489.47 478.55,489.53 481.28,489.58 484.02,489.64 486.76,489.69 489.49,489.74 492.23,489.79 494.97,489.84 497.70,489.88 500.44,489.93 503.18,489.97 505.92,490.01 508.65,490.06 511.39,490.10 514.13,490.14 516.86,490.17 519.60,490.21 522.34,490.25 525.07,490.28 527.81,490.32 530.55,490.35 533.28,490.38 536.02,490.42 538.76,490.45 541.50,490.48 544.23,490.51 546.97,490.54 549.71,490.57 552.44,490.59 555.18,490.62 557.92,490.65 560.65,490.67 563.39,490.70 566.13,490.73 568.87,490.75 571.60,490.77 574.34,490.80 577.08,490.82 579.81,490.84 582.55,490.87 585.29,490.89 588.02,490.91 590.76,490.93 593.50,490.95 596.23,490.97 598.97,490.99 601.71,491.01 604.45,491.03 607.18,491.05 609.92,491.07" style="stroke-width: 1.71;stroke: #C77CFF;stroke-linecap: butt;"/>
</g><g clip-path="url(#c2)">
<g><text x="33.10" y="496.28" text-anchor="end" style="font-family: Arial;font-size: 8.80px;fill: #4D4D4D;" textLength="4.90px" lengthAdjust="spacingAndGlyphs">0</text></g>
<g><text x="33.10" y="384.38" text-anchor="end" style="font-family: Arial;font-size: 8.80px;fill: #4D4D4D;" textLength="9.79px" lengthAdjust="spacingAndGlyphs">25</text></g>
<g><text x="33.10" y="272.49" text-anchor="end" style="font-family: Arial;font-size: 8.80px;fill: #4D4D4D;" textLength="9.79px" lengthAdjust="spacingAndGlyphs">50</text></g>
<g><text x="33.10" y="160.60" text-anchor="end" style="font-family: Arial;font-size: 8.80px;fill: #4D4D4D;" textLength="9.79px" lengthAdjust="spacingAndGlyphs">75</text></g>
<g><text x="33.10" y="48.71" text-anchor="end" style="font-family: Arial;font-size: 8.80px;fill: #4D4D4D;" textLength="14.69px" lengthAdjust="spacingAndGlyphs">100</text></g>
<g><text x="94.66" y="526.74" text-anchor="middle" style="font-family: Arial;font-size: 8.80px;fill: #4D4D4D;" textLength="4.90px" lengthAdjust="spacingAndGlyphs">1</text></g>
<g><text x="239.36" y="526.74" text-anchor="middle" style="font-family: Arial;font-size: 8.80px;fill: #4D4D4D;" textLength="4.90px" lengthAdjust="spacingAndGlyphs">3</text></g>
<g><text x="397.94" y="526.74" text-anchor="middle" style="font-family: Arial;font-size: 8.80px;fill: #4D4D4D;" textLength="9.79px" lengthAdjust="spacingAndGlyphs">10</text></g>
<g><text x="542.64" y="526.74" text-anchor="middle" style="font-family: Arial;font-size: 8.80px;fill: #4D4D4D;" textLength="9.79px" lengthAdjust="spacingAndGlyphs">30</text></g>
<g><text x="337.59" y="539.20" text-anchor="middle" style="font-family: Arial;font-size: 11.00px;" textLength="44.65px" lengthAdjust="spacingAndGlyphs">Dose [%]</text></g>
<g><text transform="translate(13.36,269.34) rotate(-90.00)" text-anchor="middle" style="font-family: Arial;font-size: 11.00px;" textLength="57.87px" lengthAdjust="spacingAndGlyphs">Viability (%)</text></g>
<g><text x="653.59" y="235.98" style="font-family: Arial;font-size: 11.00px;" textLength="74.02px" lengthAdjust="spacingAndGlyphs">Patient / Group</text></g>
<circle cx="662.23" cy="251.26" r="2.06" style="stroke-width: 0.71;stroke: #F8766D;stroke-opacity: 0.70;fill: #F8766D;fill-opacity: 0.70;"/>
<line x1="655.32" y1="251.26" x2="669.14" y2="251.26" style="stroke-width: 1.71;stroke: #F8766D;stroke-linecap: butt;"/>
<circle cx="662.23" cy="268.54" r="2.06" style="stroke-width: 0.71;stroke: #7CAE00;stroke-opacity: 0.70;fill: #7CAE00;fill-opacity: 0.70;"/>
<line x1="655.32" y1="268.54" x2="669.14" y2="268.54" style="stroke-width: 1.71;stroke: #7CAE00;stroke-linecap: butt;"/>
<circle cx="662.23" cy="285.82" r="2.06" style="stroke-width: 0.71;stroke: #00BFC4;stroke-opacity: 0.70;fill: #00BFC4;fill-opacity: 0.70;"/>
<line x1="655.32" y1="285.82" x2="669.14" y2="285.82" style="stroke-width: 1.71;stroke: #00BFC4;stroke-linecap: butt;"/>
<circle cx="662.23" cy="303.10" r="2.06" style="stroke-width: 0.71;stroke: #C77CFF;stroke-opacity: 0.70;fill: #C77CFF;fill-opacity: 0.70;"/>
<line x1="655.32" y1="303.10" x2="669.14" y2="303.10" style="stroke-width: 1.71;stroke: #C77CFF;stroke-linecap: butt;"/>
<g><text x="676.35" y="254.41" style="font-family: Arial;font-size: 8.80px;" textLength="68.00px" lengthAdjust="spacingAndGlyphs">ASC397.ASC397</text></g>
<g><text x="676.35" y="271.69" style="font-family: Arial;font-size: 8.80px;" textLength="81.69px" lengthAdjust="spacingAndGlyphs">ASC397.ASC397cse</text></g>
<g><text x="676.35" y="288.97" style="font-family: Arial;font-size: 8.80px;" textLength="68.00px" lengthAdjust="spacingAndGlyphs">ASC399.ASC399</text></g>
<g><text x="676.35" y="306.25" style="font-family: Arial;font-size: 8.80px;" textLength="81.69px" lengthAdjust="spacingAndGlyphs">ASC399.ASC399cse</text></g>
<g><text x="38.03" y="14.93" style="font-family: Arial;font-size: 13.20px;" textLength="230.22px" lengthAdjust="spacingAndGlyphs">CSE_NAC across patients &amp; conditions</text></g>
</g>
</svg>