<svg xmlns="http://www.w3.org/2000/svg" xmlns:xlink="http://www.w3.org/1999/xlink" class="httpgd" width="769.00" height="547.00" viewBox="0 0 769.00 547.00">
<defs>
  <style type='text/css'><![CDATA[
    .httpgd line, .httpgd polyline, .httpgd polygon, .httpgd path, .httpgd rect, .httpgd circle {
      fill: none;
      stroke: #000000;
      stroke-linecap: round;
      stroke-linejoin: round;
      stroke-miterlimit: 10.00;
    }
  ]]></style>
<clipPath id="c0"><rect x="0.00" y="0.00" width="769.00" height="547.00"/></clipPath>
<clipPath id="c1"><rect x="38.03" y="23.18" width="599.12" height="492.33"/></clipPath>
<clipPath id="c2"><rect x="0.00" y="0.00" width="769.00" height="547.00"/></clipPath>
</defs>
<rect width="100%" height="100%" style="stroke: none;fill: #FFFFFF;"/>
<g clip-path="url(#c0)">
</g><g clip-path="url(#c1)">
<polyline points="38.03,493.13 637.15,493.13" style="stroke-width: 1.07;stroke: #EBEBEB;stroke-linecap: butt;"/>
<polyline points="38.03,381.23 637.15,381.23" style="stroke-width: 1.07;stroke: #EBEBEB;stroke-linecap: butt;"/>
<polyline points="38.03,269.34 637.15,269.34" style="stroke-width: 1.07;stroke: #EBEBEB;stroke-linecap: butt;"/>
<polyline points="38.03,157.45 637.15,157.45" style="stroke-width: 1.07;stroke: #EBEBEB;stroke-linecap: butt;"/>
<polyline points="38.03,45.56 637.15,45.56" style="stroke-width: 1.07;stroke: #EBEBEB;stroke-linecap: butt;"/>
<polyline points="94.66,515.50 94.66,23.18" style="stroke-width: 1.07;stroke: #EBEBEB;stroke-linecap: butt;"/>
<polyline points="239.36,515.50 239.36,23.18" style="stroke-width: 1.07;stroke: #EBEBEB;stroke-linecap: butt;"/>
<polyline points="397.94,515.50 397.94,23.18" style="stroke-width: 1.07;stroke: #EBEBEB;stroke-linecap: butt;"/>
<polyline points="542.64,515.50 542.64,23.18" style="stroke-width: 1.07;stroke: #EBEBEB;stroke-linecap: butt;"/>
<polygon points="65.27,76.02 68.00,76.20 70.74,76.38 73.48,76.55 76.21,76.77 78.95,76.99 81.69,77.30 84.43,77.65 87.16,77.94 89.90,78.26 92.64,78.77 95.37,79.10 98.11,79.54 100.85,79.98 103.58,80.51 106.32,80.96 109.06,81.51 111.79,82.06 114.53,82.58 117.27,83.11 120.01,83.73 122.74,84.28 125.48,85.08 128.22,85.79 130.95,86.58 133.69,87.32 136.43,88.33 139.16,89.19 141.90,90.26 144.64,91.36 147.38,92.47 150.11,93.93 152.85,95.19 155.59,96.60 158.32,98.16 161.06,99.69 163.80,101.43 166.53,103.42 169.27,105.50 172.01,107.52 174.74,109.81 177.48,112.50 180.22,115.04 182.96,117.75 185.69,120.46 188.43,123.81 191.17,127.20 193.90,130.81 196.64,134.66 199.38,139.18 202.11,143.69 204.85,148.47 207.59,153.82 210.32,159.50 213.06,165.53 215.80,171.87 218.54,178.41 221.27,185.64 224.01,193.22 226.75,200.99 229.48,209.41 232.22,218.01 234.96,227.24 237.69,236.52 240.43,245.84 243.17,255.38 245.91,264.82 248.64,274.06 251.38,283.37 254.12,292.31 256.85,300.99 259.59,309.09 262.33,316.96 265.06,324.53 267.80,331.34 270.54,338.07 273.27,344.78 276.01,351.22 278.75,357.37 281.49,363.53 284.22,369.47 286.96,375.23 289.70,380.83 292.43,386.14 295.17,391.11 297.91,396.14 300.64,400.76 303.38,405.44 306.12,409.72 308.86,413.77 311.59,417.85 314.33,421.87 317.07,425.66 319.80,429.32 322.54,432.80 325.28,436.06 328.01,439.08 330.75,441.89 333.49,444.65 336.22,447.28 338.96,449.78 341.70,452.11 344.44,454.43 347.17,456.60 349.91,458.64 352.65,460.57 355.38,462.43 358.12,464.25 360.86,465.97 363.59,467.54 366.33,468.96 369.07,470.30 371.80,471.59 374.54,472.86 377.28,474.06 380.02,475.19 382.75,476.27 385.49,477.30 388.23,478.22 390.96,479.09 393.70,479.93 396.44,480.73 399.17,481.47 401.91,482.17 404.65,482.82 407.39,483.44 410.12,484.02 412.86,484.56 415.60,485.08 418.33,485.56 421.07,486.02 423.81,486.44 426.54,486.85 429.28,487.23 432.02,487.58 434.75,487.92 437.49,488.23 440.23,488.53 442.97,488.81 445.70,489.07 448.44,489.32 451.18,489.55 453.91,489.78 456.65,489.99 459.39,490.19 462.12,490.37 464.86,490.55 467.60,490.71 470.34,490.86 473.07,491.00 475.81,491.13 478.55,491.25 481.28,491.36 484.02,491.47 486.76,491.57 489.49,491.66 492.23,491.75 494.97,491.83 497.70,491.91 500.44,491.99 503.18,492.06 505.92,492.12 508.65,492.18 511.39,492.24 514.13,492.29 516.86,492.34 519.60,492.39 522.34,492.44 525.07,492.48 527.81,492.52 530.55,492.55 533.28,492.59 536.02,492.62 538.76,492.65 541.50,492.68 544.23,492.71 546.97,492.74 549.71,492.76 552.44,492.78 555.18,492.80 557.92,492.82 560.65,492.84 563.39,492.86 566.13,492.88 568.87,492.89 571.60,492.91 574.34,492.92 577.08,492.93 579.81,492.94 582.55,492.95 585.29,492.97 588.02,492.98 590.76,492.98 593.50,492.99 596.23,493.00 598.97,493.01 601.71,493.02 604.45,493.02 607.18,493.03 609.92,493.04 609.92,493.13 607.18,493.13 604.45,493.13 601.71,493.13 598.97,493.13 596.23,493.13 593.50,493.13 590.76,493.12 588.02,493.12 585.29,493.12 582.55,493.12 579.81,493.12 577.08,493.12 574.34,493.12 571.60,493.12 568.87,493.12 566.13,493.12 563.39,493.12 560.65,493.12 557.92,493.12 555.18,493.12 552.44,493.12 549.71,493.12 546.97,493.12 544.23,493.12 541.50,493.12 538.76,493.12 536.02,493.12 533.28,493.12 530.55,493.12 527.81,493.12 525.07,493.12 522.34,493.12 519.60,493.12 516.86,493.12 514.13,493.12 511.39,493.12 508.65,493.12 505.92,493.12 503.18,493.11 500.44,493.11 497.70,493.11 494.97,493.11 492.23,493.11 489.49,493.11 486.76,493.10 484.02,493.10 481.28,493.10 478.55,493.10 475.81,493.09 473.07,493.09 470.34,493.08 467.60,493.08 464.86,493.07 462.12,493.07 459.39,493.06 456.65,493.05 453.91,493.04 451.18,493.04 448.44,493.02 445.70,493.01 442.97,493.00 440.23,492.98 437.49,492.97 434.75,492.95 432.02,492.93 429.28,492.90 426.54,492.88 423.81,492.85 421.07,492.81 418.33,492.77 415.60,492.73 412.86,492.68 410.12,492.63 407.39,492.57 404.65,492.50 401.91,492.43 399.17,492.35 396.44,492.25 393.70,492.15 390.96,492.03 388.23,491.90 385.49,491.76 382.75,491.60 380.02,491.41 377.28,491.21 374.54,490.98 371.80,490.72 369.07,490.43 366.33,490.11 363.59,489.75 360.86,489.34 358.12,488.90 355.38,488.41 352.65,487.86 349.91,487.24 347.17,486.55 344.44,485.76 341.70,484.92 338.96,483.93 336.22,482.87 333.49,481.71 330.75,480.40 328.01,478.96 325.28,477.35 322.54,475.57 319.80,473.57 317.07,471.30 314.33,468.85 311.59,466.18 308.86,463.14 306.12,459.95 303.38,456.39 300.64,452.44 297.91,448.12 295.17,443.49 292.43,438.58 289.70,433.35 286.96,427.65 284.22,421.24 281.49,414.66 278.75,407.78 276.01,400.52 273.27,392.46 270.54,384.13 267.80,375.85 265.06,367.10 262.33,358.41 259.59,349.33 256.85,340.13 254.12,330.72 251.38,321.67 248.64,312.76 245.91,304.10 243.17,295.15 240.43,286.58 237.69,278.11 234.96,270.62 232.22,262.96 229.48,255.90 226.75,249.02 224.01,242.12 221.27,235.09 218.54,228.42 215.80,221.78 213.06,215.91 210.32,209.94 207.59,204.36 204.85,198.93 202.11,193.41 199.38,188.11 196.64,183.14 193.90,178.06 191.17,173.21 188.43,168.77 185.69,164.41 182.96,160.28 180.22,156.40 177.48,152.68 174.74,149.15 172.01,145.83 169.27,142.49 166.53,139.33 163.80,136.25 161.06,133.58 158.32,131.24 155.59,128.75 152.85,126.69 150.11,124.90 147.38,122.96 144.64,121.45 141.90,120.30 139.16,119.12 136.43,117.99 133.69,117.28 130.95,116.48 128.22,115.71 125.48,115.08 122.74,114.51 120.01,114.01 117.27,113.59 114.53,113.19 111.79,112.95 109.06,112.49 106.32,112.29 103.58,112.10 100.85,111.95 98.11,111.81 95.37,111.68 92.64,111.31 89.90,111.24 87.16,111.13 84.43,111.06 81.69,111.00 78.95,110.95 76.21,110.88 73.48,110.85 70.74,110.82 68.00,110.78 65.27,110.75" style="stroke-width: 0.00;stroke: none;stroke-linecap: butt;fill: #F8766D;fill-opacity: 0.20;" />
<polyline points="65.27,76.02 68.00,76.20 70.74,76.38 73.48,76.55 76.21,76.77 78.95,76.99 81.69,77.30 84.43,77.65 87.16,77.94 89.90,78.26 92.64,78.77 95.37,79.10 98.11,79.54 100.85,79.98 103.58,80.51 106.32,80.96 109.06,81.51 111.79,82.06 114.53,82.58 117.27,83.11 120.01,83.73 122.74,84.28 125.48,85.08 128.22,85.79 130.95,86.58 133.69,87.32 136.43,88.33 139.16,89.19 141.90,90.26 144.64,91.36 147.38,92.47 150.11,93.93 152.85,95.19 155.59,96.60 158.32,98.16 161.06,99.69 163.80,101.43 166.53,103.42 169.27,105.50 172.01,107.52 174.74,109.81 177.48,112.50 180.22,115.04 182.96,117.75 185.69,120.46 188.43,123.81 191.17,127.20 193.90,130.81 196.64,134.66 199.38,139.18 202.11,143.69 204.85,148.47 207.59,153.82 210.32,159.50 213.06,165.53 215.80,171.87 218.54,178.41 221.27,185.64 224.01,193.22 226.75,200.99 229.48,209.41 232.22,218.01 234.96,227.24 237.69,236.52 240.43,245.84 243.17,255.38 245.91,264.82 248.64,274.06 251.38,283.37 254.12,292.31 256.85,300.99 259.59,309.09 262.33,316.96 265.06,324.53 267.80,331.34 270.54,338.07 273.27,344.78 276.01,351.22 278.75,357.37 281.49,363.53 284.22,369.47 286.96,375.23 289.70,380.83 292.43,386.14 295.17,391.11 297.91,396.14 300.64,400.76 303.38,405.44 306.12,409.72 308.86,413.77 311.59,417.85 314.33,421.87 317.07,425.66 319.80,429.32 322.54,432.80 325.28,436.06 328.01,439.08 330.75,441.89 333.49,444.65 336.22,447.28 338.96,449.78 341.70,452.11 344.44,454.43 347.17,456.60 349.91,458.64 352.65,460.57 355.38,462.43 358.12,464.25 360.86,465.97 363.59,467.54 366.33,468.96 369.07,470.30 371.80,471.59 374.54,472.86 377.28,474.06 380.02,475.19 382.75,476.27 385.49,477.30 388.23,478.22 390.96,479.09 393.70,479.93 396.44,480.73 399.17,481.47 401.91,482.17 404.65,482.82 407.39,483.44 410.12,484.02 412.86,484.56 415.60,485.08 418.33,485.56 421.07,486.02 423.81,486.44 426.54,486.85 429.28,487.23 432.02,487.58 434.75,487.92 437.49,488.23 440.23,488.53 442.97,488.81 445.70,489.07 448.44,489.32 451.18,489.55 453.91,489.78 456.65,489.99 459.39,490.19 462.12,490.37 464.86,490.55 467.60,490.71 470.34,490.86 473.07,491.00 475.81,491.13 478.55,491.25 481.28,491.36 484.02,491.47 486.76,491.57 489.49,491.66 492.23,491.75 494.97,491.83 497.70,491.91 500.44,491.99 503.18,492.06 505.92,492.12 508.65,492.18 511.39,492.24 514.13,492.29 516.86,492.34 519.60,492.39 522.34,492.44 525.07,492.48 527.81,492.52 530.55,492.55 533.28,492.59 536.02,492.62 538.76,492.65 541.50,492.68 544.23,492.71 546.97,492.74 549.71,492.76 552.44,492.78 555.18,492.80 557.92,492.82 560.65,492.84 563.39,492.86 566.13,492.88 568.87,492.89 571.60,492.91 574.34,492.92 577.08,492.93 579.81,492.94 582.55,492.95 585.29,492.97 588.02,492.98 590.76,492.98 593.50,492.99 596.23,493.00 598.97,493.01 601.71,493.02 604.45,493.02 607.18,493.03 609.92,493.04" style="stroke-width: 1.07;stroke: none;stroke-linecap: butt;"/>
<polyline points="609.92,493.13 607.18,493.13 604.45,493.13 601.71,493.13 598.97,493.13 596.23,493.13 593.50,493.13 590.76,493.12 588.02,493.12 585.29,493.12 582.55,493.12 579.81,493.12 577.08,493.12 574.34,493.12 571.60,493.12 568.87,493.12 566.13,493.12 563.39,493.12 560.65,493.12 557.92,493.12 555.18,493.12 552.44,493.12 549.71,493.12 546.97,493.12 544.23,493.12 541.50,493.12 538.76,493.12 536.02,493.12 533.28,493.12 530.55,493.12 527.81,493.12 525.07,493.12 522.34,493.12 519.60,493.12 516.86,493.12 514.13,493.12 511.39,493.12 508.65,493.12 505.92,493.12 503.18,493.11 500.44,493.11 497.70,493.11 494.97,493.11 492.23,493.11 489.49,493.11 486.76,493.10 484.02,493.10 481.28,493.10 478.55,493.10 475.81,493.09 473.07,493.09 470.34,493.08 467.60,493.08 464.86,493.07 462.12,493.07 459.39,493.06 456.65,493.05 453.91,493.04 451.18,493.04 448.44,493.02 445.70,493.01 442.97,493.00 440.23,492.98 437.49,492.97 434.75,492.95 432.02,492.93 429.28,492.90 426.54,492.88 423.81,492.85 421.07,492.81 418.33,492.77 415.60,492.73 412.86,492.68 410.12,492.63 407.39,492.57 404.65,492.50 401.91,492.43 399.17,492.35 396.44,492.25 393.70,492.15 390.96,492.03 388.23,491.90 385.49,491.76 382.75,491.60 380.02,491.41 377.28,491.21 374.54,490.98 371.80,490.72 369.07,490.43 366.33,490.11 363.59,489.75 360.86,489.34 358.12,488.90 355.38,488.41 352.65,487.86 349.91,487.24 347.17,486.55 344.44,485.76 341.70,484.92 338.96,483.93 336.22,482.87 333.49,481.71 330.75,480.40 328.01,478.96 325.28,477.35 322.54,475.57 319.80,473.57 317.07,471.30 314.33,468.85 311.59,466.18 308.86,463.14 306.12,459.95 303.38,456.39 300.64,452.44 297.91,448.12 295.17,443.49 292.43,438.58 289.70,433.35 286.96,427.65 284.22,421.24 281.49,414.66 278.75,407.78 276.01,400.52 273.27,392.46 270.54,384.13 267.80,375.85 265.06,367.10 262.33,358.41 259.59,349.33 256.85,340.13 254.12,330.72 251.38,321.67 248.64,312.76 245.91,304.10 243.17,295.15 240.43,286.58 237.69,278.11 234.96,270.62 232.22,262.96 229.48,255.90 226.75,249.02 224.01,242.12 221.27,235.09 218.54,228.42 215.80,221.78 213.06,215.91 210.32,209.94 207.59,204.36 204.85,198.93 202.11,193.41 199.38,188.11 196.64,183.14 193.90,178.06 191.17,173.21 188.43,168.77 185.69,164.41 182.96,160.28 180.22,156.40 177.48,152.68 174.74,149.15 172.01,145.83 169.27,142.49 166.53,139.33 163.80,136.25 161.06,133.58 158.32,131.24 155.59,128.75 152.85,126.69 150.11,124.90 147.38,122.96 144.64,121.45 141.90,120.30 139.16,119.12 136.43,117.99 133.69,117.28 130.95,116.48 128.22,115.71 125.48,115.08 122.74,114.51 120.01,114.01 117.27,113.59 114.53,113.19 111.79,112.95 109.06,112.49 106.32,112.29 103.58,112.10 100.85,111.95 98.11,111.81 95.37,111.68 92.64,111.31 89.90,111.24 87.16,111.13 84.43,111.06 81.69,111.00 78.95,110.95 76.21,110.88 73.48,110.85 70.74,110.82 68.00,110.78 65.27,110.75" style="stroke-width: 1.07;stroke: none;stroke-linecap: butt;"/>
<polygon points="65.27,49.79 68.00,49.79 70.74,49.79 73.48,49.79 76.21,49.79 78.95,49.79 81.69,49.79 84.43,49.79 87.16,49.79 89.90,49.79 92.64,49.79 95.37,49.79 98.11,49.79 100.85,49.80 103.58,49.80 106.32,49.80 109.06,49.80 111.79,49.80 114.53,49.81 117.27,49.81 120.01,49.82 122.74,49.83 125.48,49.83 128.22,49.84 130.95,49.86 133.69,49.88 136.43,49.90 139.16,49.92 141.90,49.95 144.64,49.98 147.38,50.01 150.11,50.06 152.85,50.11 155.59,50.17 158.32,50.25 161.06,50.33 163.80,50.43 166.53,50.55 169.27,50.68 172.01,50.85 174.74,51.09 177.48,51.38 180.22,51.80 182.96,52.35 185.69,53.14 188.43,54.19 191.17,55.64 193.90,57.61 196.64,60.35 199.38,63.95 202.11,68.83 204.85,75.41 207.59,84.10 210.32,95.47 213.06,110.14 215.80,128.66 218.54,151.43 221.27,178.52 224.01,209.49 226.75,243.45 229.48,278.86 232.22,313.76 234.96,346.73 237.69,376.30 240.43,401.72 243.17,422.55 245.91,436.67 248.64,447.50 251.38,456.40 254.12,463.74 256.85,469.70 259.59,474.47 262.33,478.32 265.06,481.40 267.80,483.85 270.54,485.80 273.27,487.35 276.01,488.57 278.75,489.54 281.49,490.30 284.22,490.90 286.96,491.37 289.70,491.75 292.43,492.04 295.17,492.27 297.91,492.45 300.64,492.60 303.38,492.71 306.12,492.80 308.86,492.87 311.59,492.92 314.33,492.97 317.07,493.00 319.80,493.03 322.54,493.05 325.28,493.06 328.01,493.08 330.75,493.09 333.49,493.10 336.22,493.10 338.96,493.11 341.70,493.11 344.44,493.11 347.17,493.12 349.91,493.12 352.65,493.12 355.38,493.12 358.12,493.12 360.86,493.12 363.59,493.12 366.33,493.12 369.07,493.12 371.80,493.12 374.54,493.12 377.28,493.12 380.02,493.12 382.75,493.12 385.49,493.12 388.23,493.13 390.96,493.13 393.70,493.13 396.44,493.13 399.17,493.13 401.91,493.13 404.65,493.13 407.39,493.13 410.12,493.13 412.86,493.13 415.60,493.13 418.33,493.13 421.07,493.13 423.81,493.13 426.54,493.13 429.28,493.13 432.02,493.13 434.75,493.13 437.49,493.13 440.23,493.13 442.97,493.13 445.70,493.13 448.44,493.13 451.18,493.13 453.91,493.13 456.65,493.13 459.39,493.13 462.12,493.13 464.86,493.13 467.60,493.13 470.34,493.13 473.07,493.13 475.81,493.13 478.55,493.13 481.28,493.13 484.02,493.13 486.76,493.13 489.49,493.13 492.23,493.13 494.97,493.13 497.70,493.13 500.44,493.13 503.18,493.13 505.92,493.13 508.65,493.13 511.39,493.13 514.13,493.13 516.86,493.13 519.60,493.13 522.34,493.13 525.07,493.13 527.81,493.13 530.55,493.13 533.28,493.13 536.02,493.13 538.76,493.13 541.50,493.13 544.23,493.13 546.97,493.13 549.71,493.13 552.44,493.13 555.18,493.13 557.92,493.13 560.65,493.13 563.39,493.13 566.13,493.13 568.87,493.13 571.60,493.13 574.34,493.13 577.08,493.13 579.81,493.13 582.55,493.13 585.29,493.13 588.02,493.13 590.76,493.13 593.50,493.13 596.23,493.13 598.97,493.13 601.71,493.13 604.45,493.13 607.18,493.13 609.92,493.13 609.92,493.13 607.18,493.13 604.45,493.13 601.71,493.13 598.97,493.13 596.23,493.13 593.50,493.13 590.76,493.13 588.02,493.13 585.29,493.13 582.55,493.13 579.81,493.13 577.08,493.13 574.34,493.13 571.60,493.13 568.87,493.13 566.13,493.13 563.39,493.13 560.65,493.13 557.92,493.13 555.18,493.13 552.44,493.13 549.71,493.13 546.97,493.13 544.23,493.13 541.50,493.13 538.76,493.13 536.02,493.13 533.28,493.13 530.55,493.13 527.81,493.13 525.07,493.13 522.34,493.13 519.60,493.13 516.86,493.13 514.13,493.13 511.39,493.13 508.65,493.13 505.92,493.13 503.18,493.13 500.44,493.13 497.70,493.13 494.97,493.13 492.23,493.13 489.49,493.13 486.76,493.13 484.02,493.13 481.28,493.13 478.55,493.13 475.81,493.13 473.07,493.13 470.34,493.13 467.60,493.13 464.86,493.13 462.12,493.13 459.39,493.13 456.65,493.13 453.91,493.13 451.18,493.13 448.44,493.13 445.70,493.13 442.97,493.13 440.23,493.13 437.49,493.13 434.75,493.13 432.02,493.13 429.28,493.13 426.54,493.13 423.81,493.13 421.07,493.13 418.33,493.13 415.60,493.13 412.86,493.13 410.12,493.13 407.39,493.13 404.65,493.13 401.91,493.13 399.17,493.13 396.44,493.13 393.70,493.13 390.96,493.13 388.23,493.13 385.49,493.13 382.75,493.13 380.02,493.13 377.28,493.13 374.54,493.13 371.80,493.13 369.07,493.13 366.33,493.13 363.59,493.13 360.86,493.13 358.12,493.13 355.38,493.13 352.65,493.13 349.91,493.12 347.17,493.12 344.44,493.12 341.70,493.12 338.96,493.12 336.22,493.12 333.49,493.12 330.75,493.12 328.01,493.12 325.28,493.12 322.54,493.12 319.80,493.11 317.07,493.11 314.33,493.10 311.59,493.10 308.86,493.09 306.12,493.07 303.38,493.05 300.64,493.02 297.91,492.99 295.17,492.93 292.43,492.86 289.70,492.76 286.96,492.62 284.22,492.44 281.49,492.18 278.75,491.82 276.01,491.33 273.27,490.66 270.54,489.73 267.80,488.46 265.06,486.73 262.33,484.38 259.59,481.18 256.85,476.86 254.12,471.03 251.38,463.28 248.64,453.12 245.91,440.47 243.17,425.61 240.43,408.97 237.69,390.76 234.96,370.67 232.22,348.36 229.48,323.99 226.75,298.25 224.01,271.80 221.27,245.28 218.54,219.49 215.80,195.11 213.06,172.63 210.32,152.49 207.59,134.76 204.85,119.46 202.11,106.48 199.38,95.62 196.64,86.65 193.90,79.33 191.17,73.38 188.43,68.59 185.69,64.74 182.96,61.66 180.22,59.20 177.48,57.26 174.74,55.71 172.01,54.47 169.27,53.52 166.53,52.74 163.80,52.13 161.06,51.66 158.32,51.30 155.59,51.01 152.85,50.79 150.11,50.65 147.38,50.58 144.64,50.53 141.90,50.51 139.16,50.49 136.43,50.48 133.69,50.47 130.95,50.47 128.22,50.46 125.48,50.46 122.74,50.46 120.01,50.46 117.27,50.46 114.53,50.46 111.79,50.46 109.06,50.46 106.32,50.46 103.58,50.45 100.85,50.45 98.11,50.45 95.37,50.45 92.64,50.45 89.90,50.45 87.16,50.45 84.43,50.45 81.69,50.45 78.95,50.45 76.21,50.45 73.48,50.45 70.74,50.45 68.00,50.45 65.27,50.45" style="stroke-width: 0.00;stroke: none;stroke-linecap: butt;fill: #7CAE00;fill-opacity: 0.20;" />
<polyline points="65.27,49.79 68.00,49.79 70.74,49.79 73.48,49.79 76.21,49.79 78.95,49.79 81.69,49.79 84.43,49.79 87.16,49.79 89.90,49.79 92.64,49.79 95.37,49.79 98.11,49.79 100.85,49.80 103.58,49.80 106.32,49.80 109.06,49.80 111.79,49.80 114.53,49.81 117.27,49.81 120.01,49.82 122.74,49.83 125.48,49.83 128.22,49.84 130.95,49.86 133.69,49.88 136.43,49.90 139.16,49.92 141.90,49.95 144.64,49.98 147.38,50.01 150.11,50.06 152.85,50.11 155.59,50.17 158.32,50.25 161.06,50.33 163.80,50.43 166.53,50.55 169.27,50.68 172.01,50.85 174.74,51.09 177.48,51.38 180.22,51.80 182.96,52.35 185.69,53.14 188.43,54.19 191.17,55.64 193.90,57.61 196.64,60.35 199.38,63.95 202.11,68.83 204.85,75.41 207.59,84.10 210.32,95.47 213.06,110.14 215.80,128.66 218.54,151.43 221.27,178.52 224.01,209.49 226.75,243.45 229.48,278.86 232.22,313.76 234.96,346.73 237.69,376.30 240.43,401.72 243.17,422.55 245.91,436.67 248.64,447.50 251.38,456.40 254.12,463.74 256.85,469.70 259.59,474.47 262.33,478.32 265.06,481.40 267.80,483.85 270.54,485.80 273.27,487.35 276.01,488.57 278.75,489.54 281.49,490.30 284.22,490.90 286.96,491.37 289.70,491.75 292.43,492.04 295.17,492.27 297.91,492.45 300.64,492.60 303.38,492.71 306.12,492.80 308.86,492.87 311.59,492.92 314.33,492.97 317.07,493.00 319.80,493.03 322.54,493.05 325.28,493.06 328.01,493.08 330.75,493.09 333.49,493.10 336.22,493.10 338.96,493.11 341.70,493.11 344.44,493.11 347.17,493.12 349.91,493.12 352.65,493.12 355.38,493.12 358.12,493.12 360.86,493.12 363.59,493.12 366.33,493.12 369.07,493.12 371.80,493.12 374.54,493.12 377.28,493.12 380.02,493.12 382.75,493.12 385.49,493.12 388.23,493.13 390.96,493.13 393.70,493.13 396.44,493.13 399.17,493.13 401.91,493.13 404.65,493.13 407.39,493.13 410.12,493.13 412.86,493.13 415.60,493.13 418.33,493.13 421.07,493.13 423.81,493.13 426.54,493.13 429.28,493.13 432.02,493.13 434.75,493.13 437.49,493.13 440.23,493.13 442.97,493.13 445.70,493.13 448.44,493.13 451.18,493.13 453.91,493.13 456.65,493.13 459.39,493.13 462.12,493.13 464.86,493.13 467.60,493.13 470.34,493.13 473.07,493.13 475.81,493.13 478.55,493.13 481.28,493.13 484.02,493.13 486.76,493.13 489.49,493.13 492.23,493.13 494.97,493.13 497.70,493.13 500.44,493.13 503.18,493.13 505.92,493.13 508.65,493.13 511.39,493.13 514.13,493.13 516.86,493.13 519.60,493.13 522.34,493.13 525.07,493.13 527.81,493.13 530.55,493.13 533.28,493.13 536.02,493.13 538.76,493.13 541.50,493.13 544.23,493.13 546.97,493.13 549.71,493.13 552.44,493.13 555.18,493.13 557.92,493.13 560.65,493.13 563.39,493.13 566.13,493.13 568.87,493.13 571.60,493.13 574.34,493.13 577.08,493.13 579.81,493.13 582.55,493.13 585.29,493.13 588.02,493.13 590.76,493.13 593.50,493.13 596.23,493.13 598.97,493.13 601.71,493.13 604.45,493.13 607.18,493.13 609.92,493.13" style="stroke-width: 1.07;stroke: none;stroke-linecap: butt;"/>
<polyline points="609.92,493.13 607.18,493.13 604.45,493.13 601.71,493.13 598.97,493.13 596.23,493.13 593.50,493.13 590.76,493.13 588.02,493.13 585.29,493.13 582.55,493.13 579.81,493.13 577.08,493.13 574.34,493.13 571.60,493.13 568.87,493.13 566.13,493.13 563.39,493.13 560.65,493.13 557.92,493.13 555.18,493.13 552.44,493.13 549.71,493.13 546.97,493.13 544.23,493.13 541.50,493.13 538.76,493.13 536.02,493.13 533.28,493.13 530.55,493.13 527.81,493.13 525.07,493.13 522.34,493.13 519.60,493.13 516.86,493.13 514.13,493.13 511.39,493.13 508.65,493.13 505.92,493.13 503.18,493.13 500.44,493.13 497.70,493.13 494.97,493.13 492.23,493.13 489.49,493.13 486.76,493.13 484.02,493.13 481.28,493.13 478.55,493.13 475.81,493.13 473.07,493.13 470.34,493.13 467.60,493.13 464.86,493.13 462.12,493.13 459.39,493.13 456.65,493.13 453.91,493.13 451.18,493.13 448.44,493.13 445.70,493.13 442.97,493.13 440.23,493.13 437.49,493.13 434.75,493.13 432.02,493.13 429.28,493.13 426.54,493.13 423.81,493.13 421.07,493.13 418.33,493.13 415.60,493.13 412.86,493.13 410.12,493.13 407.39,493.13 404.65,493.13 401.91,493.13 399.17,493.13 396.44,493.13 393.70,493.13 390.96,493.13 388.23,493.13 385.49,493.13 382.75,493.13 380.02,493.13 377.28,493.13 374.54,493.13 371.80,493.13 369.07,493.13 366.33,493.13 363.59,493.13 360.86,493.13 358.12,493.13 355.38,493.13 352.65,493.13 349.91,493.12 347.17,493.12 344.44,493.12 341.70,493.12 338.96,493.12 336.22,493.12 333.49,493.12 330.75,493.12 328.01,493.12 325.28,493.12 322.54,493.12 319.80,493.11 317.07,493.11 314.33,493.10 311.59,493.10 308.86,493.09 306.12,493.07 303.38,493.05 300.64,493.02 297.91,492.99 295.17,492.93 292.43,492.86 289.70,492.76 286.96,492.62 284.22,492.44 281.49,492.18 278.75,491.82 276.01,491.33 273.27,490.66 270.54,489.73 267.80,488.46 265.06,486.73 262.33,484.38 259.59,481.18 256.85,476.86 254.12,471.03 251.38,463.28 248.64,453.12 245.91,440.47 243.17,425.61 240.43,408.97 237.69,390.76 234.96,370.67 232.22,348.36 229.48,323.99 226.75,298.25 224.01,271.80 221.27,245.28 218.54,219.49 215.80,195.11 213.06,172.63 210.32,152.49 207.59,134.76 204.85,119.46 202.11,106.48 199.38,95.62 196.64,86.65 193.90,79.33 191.17,73.38 188.43,68.59 185.69,64.74 182.96,61.66 180.22,59.20 177.48,57.26 174.74,55.71 172.01,54.47 169.27,53.52 166.53,52.74 163.80,52.13 161.06,51.66 158.32,51.30 155.59,51.01 152.85,50.79 150.11,50.65 147.38,50.58 144.64,50.53 141.90,50.51 139.16,50.49 136.43,50.48 133.69,50.47 130.95,50.47 128.22,50.46 125.48,50.46 122.74,50.46 120.01,50.46 117.27,50.46 114.53,50.46 111.79,50.46 109.06,50.46 106.32,50.46 103.58,50.45 100.85,50.45 98.11,50.45 95.37,50.45 92.64,50.45 89.90,50.45 87.16,50.45 84.43,50.45 81.69,50.45 78.95,50.45 76.21,50.45 73.48,50.45 70.74,50.45 68.00,50.45 65.27,50.45" style="stroke-width: 1.07;stroke: none;stroke-linecap: butt;"/>
<polygon points="65.27,47.05 68.00,47.21 70.74,47.38 73.48,47.56 76.21,47.78 78.95,48.01 81.69,48.27 84.43,48.55 87.16,48.86 89.90,49.20 92.64,49.58 95.37,50.00 98.11,50.46 100.85,50.97 103.58,51.53 106.32,52.15 109.06,52.84 111.79,53.59 114.53,54.41 117.27,55.31 120.01,56.32 122.74,57.41 125.48,58.62 128.22,59.92 130.95,61.37 133.69,62.95 136.43,64.68 139.16,66.58 141.90,68.67 144.64,70.97 147.38,73.47 150.11,76.21 152.85,79.19 155.59,82.43 158.32,85.95 161.06,89.73 163.80,93.79 166.53,98.27 169.27,103.16 172.01,108.22 174.74,113.68 177.48,119.68 180.22,126.13 182.96,132.94 185.69,139.99 188.43,147.61 191.17,155.61 193.90,164.09 196.64,172.97 199.38,182.07 202.11,191.56 204.85,201.23 207.59,211.46 210.32,221.87 213.06,232.41 215.80,243.32 218.54,253.96 221.27,264.61 224.01,275.12 226.75,285.60 229.48,296.18 232.22,306.44 234.96,316.37 237.69,326.05 240.43,335.54 243.17,344.68 245.91,353.46 248.64,361.78 251.38,369.69 254.12,377.18 256.85,384.51 259.59,391.32 262.33,397.84 265.06,404.08 267.80,409.91 270.54,415.36 273.27,420.58 276.01,425.47 278.75,430.11 281.49,434.49 284.22,438.60 286.96,442.49 289.70,446.11 292.43,449.45 295.17,452.62 297.91,455.57 300.64,458.31 303.38,460.85 306.12,463.22 308.86,465.44 311.59,467.52 314.33,469.44 317.07,471.22 319.80,472.86 322.54,474.39 325.28,475.80 328.01,477.13 330.75,478.35 333.49,479.47 336.22,480.51 338.96,481.47 341.70,482.36 344.44,483.18 347.17,483.95 349.91,484.67 352.65,485.32 355.38,485.93 358.12,486.48 360.86,487.00 363.59,487.47 366.33,487.91 369.07,488.32 371.80,488.69 374.54,489.04 377.28,489.36 380.02,489.65 382.75,489.92 385.49,490.17 388.23,490.41 390.96,490.62 393.70,490.81 396.44,490.99 399.17,491.16 401.91,491.32 404.65,491.46 407.39,491.59 410.12,491.71 412.86,491.82 415.60,491.92 418.33,492.02 421.07,492.10 423.81,492.18 426.54,492.26 429.28,492.32 432.02,492.39 434.75,492.44 437.49,492.50 440.23,492.55 442.97,492.59 445.70,492.63 448.44,492.67 451.18,492.71 453.91,492.74 456.65,492.77 459.39,492.80 462.12,492.82 464.86,492.85 467.60,492.87 470.34,492.89 473.07,492.91 475.81,492.93 478.55,492.94 481.28,492.96 484.02,492.97 486.76,492.98 489.49,492.99 492.23,493.00 494.97,493.01 497.70,493.02 500.44,493.03 503.18,493.04 505.92,493.04 508.65,493.05 511.39,493.06 514.13,493.06 516.86,493.07 519.60,493.07 522.34,493.08 525.07,493.08 527.81,493.08 530.55,493.09 533.28,493.09 536.02,493.09 538.76,493.09 541.50,493.10 544.23,493.10 546.97,493.10 549.71,493.10 552.44,493.11 555.18,493.11 557.92,493.11 560.65,493.11 563.39,493.11 566.13,493.11 568.87,493.11 571.60,493.11 574.34,493.11 577.08,493.12 579.81,493.12 582.55,493.12 585.29,493.12 588.02,493.12 590.76,493.12 593.50,493.12 596.23,493.12 598.97,493.12 601.71,493.12 604.45,493.12 607.18,493.12 609.92,493.12 609.92,493.12 607.18,493.12 604.45,493.12 601.71,493.12 598.97,493.12 596.23,493.12 593.50,493.12 590.76,493.12 588.02,493.12 585.29,493.12 582.55,493.12 579.81,493.12 577.08,493.12 574.34,493.12 571.60,493.12 568.87,493.12 566.13,493.12 563.39,493.12 560.65,493.12 557.92,493.12 555.18,493.12 552.44,493.12 549.71,493.12 546.97,493.12 544.23,493.12 541.50,493.12 538.76,493.12 536.02,493.12 533.28,493.12 530.55,493.12 527.81,493.12 525.07,493.12 522.34,493.12 519.60,493.12 516.86,493.12 514.13,493.12 511.39,493.11 508.65,493.11 505.92,493.11 503.18,493.11 500.44,493.11 497.70,493.11 494.97,493.10 492.23,493.10 489.49,493.10 486.76,493.10 484.02,493.09 481.28,493.09 478.55,493.09 475.81,493.08 473.07,493.08 470.34,493.08 467.60,493.07 464.86,493.06 462.12,493.06 459.39,493.05 456.65,493.04 453.91,493.03 451.18,493.03 448.44,493.01 445.70,493.00 442.97,492.99 440.23,492.98 437.49,492.96 434.75,492.94 432.02,492.92 429.28,492.90 426.54,492.88 423.81,492.85 421.07,492.83 418.33,492.79 415.60,492.76 412.86,492.72 410.12,492.68 407.39,492.63 404.65,492.58 401.91,492.52 399.17,492.46 396.44,492.39 393.70,492.32 390.96,492.23 388.23,492.14 385.49,492.03 382.75,491.92 380.02,491.79 377.28,491.65 374.54,491.49 371.80,491.32 369.07,491.14 366.33,490.93 363.59,490.71 360.86,490.46 358.12,490.18 355.38,489.88 352.65,489.54 349.91,489.17 347.17,488.76 344.44,488.32 341.70,487.82 338.96,487.26 336.22,486.65 333.49,485.99 330.75,485.26 328.01,484.45 325.28,483.56 322.54,482.59 319.80,481.52 317.07,480.33 314.33,479.02 311.59,477.59 308.86,476.05 306.12,474.33 303.38,472.46 300.64,470.42 297.91,468.19 295.17,465.75 292.43,463.10 289.70,460.20 286.96,457.03 284.22,453.62 281.49,449.86 278.75,445.77 276.01,441.45 273.27,436.84 270.54,431.76 267.80,426.35 265.06,420.75 262.33,414.60 259.59,408.08 256.85,401.28 254.12,393.99 251.38,386.37 248.64,378.43 245.91,370.26 243.17,361.88 240.43,353.20 237.69,344.20 234.96,335.04 232.22,325.67 229.48,316.33 226.75,306.97 224.01,297.41 221.27,287.87 218.54,278.28 215.80,268.74 213.06,259.12 210.32,249.77 207.59,240.45 204.85,231.15 202.11,222.07 199.38,213.33 196.64,204.58 193.90,196.17 191.17,188.01 188.43,179.95 185.69,172.15 182.96,164.79 180.22,157.69 177.48,150.89 174.74,144.36 172.01,138.13 169.27,132.27 166.53,126.62 163.80,121.29 161.06,116.26 158.32,111.47 155.59,106.96 152.85,102.77 150.11,98.78 147.38,95.08 144.64,91.54 141.90,88.23 139.16,85.14 136.43,82.26 133.69,79.56 130.95,77.10 128.22,74.79 125.48,72.64 122.74,70.65 120.01,68.79 117.27,67.05 114.53,65.43 111.79,63.92 109.06,62.52 106.32,61.23 103.58,60.02 100.85,58.92 98.11,57.89 95.37,56.95 92.64,56.07 89.90,55.26 87.16,54.52 84.43,53.82 81.69,53.19 78.95,52.60 76.21,52.05 73.48,51.55 70.74,51.08 68.00,50.64 65.27,50.24" style="stroke-width: 0.00;stroke: none;stroke-linecap: butt;fill: #00BFC4;fill-opacity: 0.20;" />
<polyline points="65.27,47.05 68.00,47.21 70.74,47.38 73.48,47.56 76.21,47.78 78.95,48.01 81.69,48.27 84.43,48.55 87.16,48.86 89.90,49.20 92.64,49.58 95.37,50.00 98.11,50.46 100.85,50.97 103.58,51.53 106.32,52.15 109.06,52.84 111.79,53.59 114.53,54.41 117.27,55.31 120.01,56.32 122.74,57.41 125.48,58.62 128.22,59.92 130.95,61.37 133.69,62.95 136.43,64.68 139.16,66.58 141.90,68.67 144.64,70.97 147.38,73.47 150.11,76.21 152.85,79.19 155.59,82.43 158.32,85.95 161.06,89.73 163.80,93.79 166.53,98.27 169.27,103.16 172.01,108.22 174.74,113.68 177.48,119.68 180.22,126.13 182.96,132.94 185.69,139.99 188.43,147.61 191.17,155.61 193.90,164.09 196.64,172.97 199.38,182.07 202.11,191.56 204.85,201.23 207.59,211.46 210.32,221.87 213.06,232.41 215.80,243.32 218.54,253.96 221.27,264.61 224.01,275.12 226.75,285.60 229.48,296.18 232.22,306.44 234.96,316.37 237.69,326.05 240.43,335.54 243.17,344.68 245.91,353.46 248.64,361.78 251.38,369.69 254.12,377.18 256.85,384.51 259.59,391.32 262.33,397.84 265.06,404.08 267.80,409.91 270.54,415.36 273.27,420.58 276.01,425.47 278.75,430.11 281.49,434.49 284.22,438.60 286.96,442.49 289.70,446.11 292.43,449.45 295.17,452.62 297.91,455.57 300.64,458.31 303.38,460.85 306.12,463.22 308.86,465.44 311.59,467.52 314.33,469.44 317.07,471.22 319.80,472.86 322.54,474.39 325.28,475.80 328.01,477.13 330.75,478.35 333.49,479.47 336.22,480.51 338.96,481.47 341.70,482.36 344.44,483.18 347.17,483.95 349.91,484.67 352.65,485.32 355.38,485.93 358.12,486.48 360.86,487.00 363.59,487.47 366.33,487.91 369.07,488.32 371.80,488.69 374.54,489.04 377.28,489.36 380.02,489.65 382.75,489.92 385.49,490.17 388.23,490.41 390.96,490.62 393.70,490.81 396.44,490.99 399.17,491.16 401.91,491.32 404.65,491.46 407.39,491.59 410.12,491.71 412.86,491.82 415.60,491.92 418.33,492.02 421.07,492.10 423.81,492.18 426.54,492.26 429.28,492.32 432.02,492.39 434.75,492.44 437.49,492.50 440.23,492.55 442.97,492.59 445.70,492.63 448.44,492.67 451.18,492.71 453.91,492.74 456.65,492.77 459.39,492.80 462.12,492.82 464.86,492.85 467.60,492.87 470.34,492.89 473.07,492.91 475.81,492.93 478.55,492.94 481.28,492.96 484.02,492.97 486.76,492.98 489.49,492.99 492.23,493.00 494.97,493.01 497.70,493.02 500.44,493.03 503.18,493.04 505.92,493.04 508.65,493.05 511.39,493.06 514.13,493.06 516.86,493.07 519.60,493.07 522.34,493.08 525.07,493.08 527.81,493.08 530.55,493.09 533.28,493.09 536.02,493.09 538.76,493.09 541.50,493.10 544.23,493.10 546.97,493.10 549.71,493.10 552.44,493.11 555.18,493.11 557.92,493.11 560.65,493.11 563.39,493.11 566.13,493.11 568.87,493.11 571.60,493.11 574.34,493.11 577.08,493.12 579.81,493.12 582.55,493.12 585.29,493.12 588.02,493.12 590.76,493.12 593.50,493.12 596.23,493.12 598.97,493.12 601.71,493.12 604.45,493.12 607.18,493.12 609.92,493.12" style="stroke-width: 1.07;stroke: none;stroke-linecap: butt;"/>
<polyline points="609.92,493.12 607.18,493.12 604.45,493.12 601.71,493.12 598.97,493.12 596.23,493.12 593.50,493.12 590.76,493.12 588.02,493.12 585.29,493.12 582.55,493.12 579.81,493.12 577.08,493.12 574.34,493.12 571.60,493.12 568.87,493.12 566.13,493.12 563.39,493.12 560.65,493.12 557.92,493.12 555.18,493.12 552.44,493.12 549.71,493.12 546.97,493.12 544.23,493.12 541.50,493.12 538.76,493.12 536.02,493.12 533.28,493.12 530.55,493.12 527.81,493.12 525.07,493.12 522.34,493.12 519.60,493.12 516.86,493.12 514.13,493.12 511.39,493.11 508.65,493.11 505.92,493.11 503.18,493.11 500.44,493.11 497.70,493.11 494.97,493.10 492.23,493.10 489.49,493.10 486.76,493.10 484.02,493.09 481.28,493.09 478.55,493.09 475.81,493.08 473.07,493.08 470.34,493.08 467.60,493.07 464.86,493.06 462.12,493.06 459.39,493.05 456.65,493.04 453.91,493.03 451.18,493.03 448.44,493.01 445.70,493.00 442.97,492.99 440.23,492.98 437.49,492.96 434.75,492.94 432.02,492.92 429.28,492.90 426.54,492.88 423.81,492.85 421.07,492.83 418.33,492.79 415.60,492.76 412.86,492.72 410.12,492.68 407.39,492.63 404.65,492.58 401.91,492.52 399.17,492.46 396.44,492.39 393.70,492.32 390.96,492.23 388.23,492.14 385.49,492.03 382.75,491.92 380.02,491.79 377.28,491.65 374.54,491.49 371.80,491.32 369.07,491.14 366.33,490.93 363.59,490.71 360.86,490.46 358.12,490.18 355.38,489.88 352.65,489.54 349.91,489.17 347.17,488.76 344.44,488.32 341.70,487.82 338.96,487.26 336.22,486.65 333.49,485.99 330.75,485.26 328.01,484.45 325.28,483.56 322.54,482.59 319.80,481.52 317.07,480.33 314.33,479.02 311.59,477.59 308.86,476.05 306.12,474.33 303.38,472.46 300.64,470.42 297.91,468.19 295.17,465.75 292.43,463.10 289.70,460.20 286.96,457.03 284.22,453.62 281.49,449.86 278.75,445.77 276.01,441.45 273.27,436.84 270.54,431.76 267.80,426.35 265.06,420.75 262.33,414.60 259.59,408.08 256.85,401.28 254.12,393.99 251.38,386.37 248.64,378.43 245.91,370.26 243.17,361.88 240.43,353.20 237.69,344.20 234.96,335.04 232.22,325.67 229.48,316.33 226.75,306.97 224.01,297.41 221.27,287.87 218.54,278.28 215.80,268.74 213.06,259.12 210.32,249.77 207.59,240.45 204.85,231.15 202.11,222.07 199.38,213.33 196.64,204.58 193.90,196.17 191.17,188.01 188.43,179.95 185.69,172.15 182.96,164.79 180.22,157.69 177.48,150.89 174.74,144.36 172.01,138.13 169.27,132.27 166.53,126.62 163.80,121.29 161.06,116.26 158.32,111.47 155.59,106.96 152.85,102.77 150.11,98.78 147.38,95.08 144.64,91.54 141.90,88.23 139.16,85.14 136.43,82.26 133.69,79.56 130.95,77.10 128.22,74.79 125.48,72.64 122.74,70.65 120.01,68.79 117.27,67.05 114.53,65.43 111.79,63.92 109.06,62.52 106.32,61.23 103.58,60.02 100.85,58.92 98.11,57.89 95.37,56.95 92.64,56.07 89.90,55.26 87.16,54.52 84.43,53.82 81.69,53.19 78.95,52.60 76.21,52.05 73.48,51.55 70.74,51.08 68.00,50.64 65.27,50.24" style="stroke-width: 1.07;stroke: none;stroke-linecap: butt;"/>
<polygon points="65.27,51.66 68.00,51.92 70.74,52.21 73.48,52.54 76.21,52.90 78.95,53.29 81.69,53.73 84.43,54.22 87.16,54.78 89.90,55.41 92.64,56.08 95.37,56.84 98.11,57.69 100.85,58.63 103.58,59.68 106.32,60.85 109.06,62.15 111.79,63.57 114.53,65.14 117.27,66.89 120.01,68.83 122.74,70.95 125.48,73.31 128.22,75.90 130.95,78.77 133.69,81.90 136.43,85.37 139.16,89.12 141.90,93.25 144.64,97.74 147.38,102.66 150.11,108.00 152.85,113.80 155.59,120.04 158.32,126.84 161.06,134.12 163.80,141.88 166.53,150.19 169.27,159.06 172.01,168.45 174.74,178.37 177.48,188.77 180.22,199.63 182.96,210.86 185.69,222.44 188.43,234.34 191.17,246.49 193.90,258.71 196.64,271.09 199.38,283.42 202.11,295.68 204.85,307.78 207.59,319.66 210.32,331.25 213.06,342.50 215.80,353.34 218.54,363.69 221.27,373.62 224.01,383.06 226.75,391.97 229.48,400.37 232.22,408.21 234.96,415.55 237.69,422.39 240.43,428.76 243.17,434.58 245.91,439.98 248.64,444.94 251.38,449.49 254.12,453.61 256.85,457.42 259.59,460.87 262.33,464.01 265.06,466.87 267.80,469.47 270.54,471.82 273.27,473.95 276.01,475.88 278.75,477.61 281.49,479.18 284.22,480.59 286.96,481.87 289.70,483.01 292.43,484.05 295.17,484.98 297.91,485.81 300.64,486.56 303.38,487.24 306.12,487.85 308.86,488.39 311.59,488.88 314.33,489.32 317.07,489.71 319.80,490.06 322.54,490.38 325.28,490.67 328.01,490.92 330.75,491.15 333.49,491.36 336.22,491.54 338.96,491.71 341.70,491.85 344.44,491.99 347.17,492.11 349.91,492.21 352.65,492.31 355.38,492.39 358.12,492.47 360.86,492.54 363.59,492.60 366.33,492.65 369.07,492.70 371.80,492.75 374.54,492.79 377.28,492.82 380.02,492.85 382.75,492.88 385.49,492.91 388.23,492.93 390.96,492.95 393.70,492.97 396.44,492.98 399.17,493.00 401.91,493.01 404.65,493.02 407.39,493.03 410.12,493.04 412.86,493.05 415.60,493.06 418.33,493.07 421.07,493.07 423.81,493.08 426.54,493.08 429.28,493.09 432.02,493.09 434.75,493.10 437.49,493.10 440.23,493.10 442.97,493.10 445.70,493.11 448.44,493.11 451.18,493.11 453.91,493.11 456.65,493.11 459.39,493.11 462.12,493.12 464.86,493.12 467.60,493.12 470.34,493.12 473.07,493.12 475.81,493.12 478.55,493.12 481.28,493.12 484.02,493.12 486.76,493.12 489.49,493.12 492.23,493.12 494.97,493.12 497.70,493.12 500.44,493.12 503.18,493.12 505.92,493.12 508.65,493.12 511.39,493.12 514.13,493.12 516.86,493.12 519.60,493.12 522.34,493.12 525.07,493.12 527.81,493.12 530.55,493.12 533.28,493.12 536.02,493.12 538.76,493.12 541.50,493.12 544.23,493.12 546.97,493.12 549.71,493.12 552.44,493.12 555.18,493.13 557.92,493.13 560.65,493.13 563.39,493.13 566.13,493.13 568.87,493.13 571.60,493.13 574.34,493.13 577.08,493.13 579.81,493.13 582.55,493.13 585.29,493.13 588.02,493.13 590.76,493.13 593.50,493.13 596.23,493.13 598.97,493.13 601.71,493.13 604.45,493.13 607.18,493.13 609.92,493.13 609.92,493.13 607.18,493.13 604.45,493.13 601.71,493.13 598.97,493.13 596.23,493.13 593.50,493.13 590.76,493.13 588.02,493.13 585.29,493.13 582.55,493.13 579.81,493.13 577.08,493.13 574.34,493.13 571.60,493.13 568.87,493.13 566.13,493.13 563.39,493.13 560.65,493.13 557.92,493.13 555.18,493.13 552.44,493.13 549.71,493.13 546.97,493.13 544.23,493.13 541.50,493.13 538.76,493.12 536.02,493.12 533.28,493.12 530.55,493.12 527.81,493.12 525.07,493.12 522.34,493.12 519.60,493.12 516.86,493.12 514.13,493.12 511.39,493.12 508.65,493.12 505.92,493.12 503.18,493.12 500.44,493.12 497.70,493.12 494.97,493.12 492.23,493.12 489.49,493.12 486.76,493.12 484.02,493.12 481.28,493.12 478.55,493.12 475.81,493.12 473.07,493.12 470.34,493.12 467.60,493.12 464.86,493.12 462.12,493.12 459.39,493.12 456.65,493.12 453.91,493.12 451.18,493.11 448.44,493.11 445.70,493.11 442.97,493.11 440.23,493.11 437.49,493.11 434.75,493.10 432.02,493.10 429.28,493.10 426.54,493.10 423.81,493.09 421.07,493.09 418.33,493.08 415.60,493.08 412.86,493.07 410.12,493.07 407.39,493.06 404.65,493.05 401.91,493.04 399.17,493.03 396.44,493.02 393.70,493.01 390.96,493.00 388.23,492.98 385.49,492.96 382.75,492.94 380.02,492.92 377.28,492.90 374.54,492.87 371.80,492.84 369.07,492.80 366.33,492.77 363.59,492.72 360.86,492.67 358.12,492.62 355.38,492.56 352.65,492.49 349.91,492.41 347.17,492.33 344.44,492.23 341.70,492.12 338.96,492.00 336.22,491.86 333.49,491.71 330.75,491.54 328.01,491.35 325.28,491.14 322.54,490.90 319.80,490.63 317.07,490.33 314.33,489.99 311.59,489.61 308.86,489.19 306.12,488.72 303.38,488.19 300.64,487.60 297.91,486.95 295.17,486.21 292.43,485.40 289.70,484.48 286.96,483.45 284.22,482.31 281.49,481.04 278.75,479.62 276.01,478.05 273.27,476.29 270.54,474.35 267.80,472.19 265.06,469.79 262.33,467.13 259.59,464.21 256.85,460.97 254.12,457.41 251.38,453.48 248.64,449.17 245.91,444.50 243.17,439.36 240.43,433.75 237.69,427.65 234.96,421.09 232.22,413.96 229.48,406.31 226.75,398.16 224.01,389.40 221.27,380.12 218.54,370.35 215.80,360.12 213.06,349.40 210.32,338.22 207.59,326.72 204.85,314.87 202.11,302.81 199.38,290.58 196.64,278.22 193.90,265.85 191.17,253.55 188.43,241.34 185.69,229.40 182.96,217.65 180.22,206.23 177.48,195.20 174.74,184.61 172.01,174.46 169.27,164.83 166.53,155.72 163.80,147.15 161.06,139.10 158.32,131.63 155.59,124.60 152.85,118.15 150.11,112.17 147.38,106.64 144.64,101.57 141.90,96.94 139.16,92.72 136.43,88.89 133.69,85.41 130.95,82.23 128.22,79.37 125.48,76.83 122.74,74.51 120.01,72.45 117.27,70.57 114.53,68.87 111.79,67.37 109.06,66.01 106.32,64.79 103.58,63.70 100.85,62.72 98.11,61.84 95.37,61.05 92.64,60.36 89.90,59.76 87.16,59.19 84.43,58.70 81.69,58.25 78.95,57.86 76.21,57.49 73.48,57.19 70.74,56.89 68.00,56.64 65.27,56.41" style="stroke-width: 0.00;stroke: none;stroke-linecap: butt;fill: #C77CFF;fill-opacity: 0.20;" />
<polyline points="65.27,51.66 68.00,51.92 70.74,52.21 73.48,52.54 76.21,52.90 78.95,53.29 81.69,53.73 84.43,54.22 87.16,54.78 89.90,55.41 92.64,56.08 95.37,56.84 98.11,57.69 100.85,58.63 103.58,59.68 106.32,60.85 109.06,62.15 111.79,63.57 114.53,65.14 117.27,66.89 120.01,68.83 122.74,70.95 125.48,73.31 128.22,75.90 130.95,78.77 133.69,81.90 136.43,85.37 139.16,89.12 141.90,93.25 144.64,97.74 147.38,102.66 150.11,108.00 152.85,113.80 155.59,120.04 158.32,126.84 161.06,134.12 163.80,141.88 166.53,150.19 169.27,159.06 172.01,168.45 174.74,178.37 177.48,188.77 180.22,199.63 182.96,210.86 185.69,222.44 188.43,234.34 191.17,246.49 193.90,258.71 196.64,271.09 199.38,283.42 202.11,295.68 204.85,307.78 207.59,319.66 210.32,331.25 213.06,342.50 215.80,353.34 218.54,363.69 221.27,373.62 224.01,383.06 226.75,391.97 229.48,400.37 232.22,408.21 234.96,415.55 237.69,422.39 240.43,428.76 243.17,434.58 245.91,439.98 248.64,444.94 251.38,449.49 254.12,453.61 256.85,457.42 259.59,460.87 262.33,464.01 265.06,466.87 267.80,469.47 270.54,471.82 273.27,473.95 276.01,475.88 278.75,477.61 281.49,479.18 284.22,480.59 286.96,481.87 289.70,483.01 292.43,484.05 295.17,484.98 297.91,485.81 300.64,486.56 303.38,487.24 306.12,487.85 308.86,488.39 311.59,488.88 314.33,489.32 317.07,489.71 319.80,490.06 322.54,490.38 325.28,490.67 328.01,490.92 330.75,491.15 333.49,491.36 336.22,491.54 338.96,491.71 341.70,491.85 344.44,491.99 347.17,492.11 349.91,492.21 352.65,492.31 355.38,492.39 358.12,492.47 360.86,492.54 363.59,492.60 366.33,492.65 369.07,492.70 371.80,492.75 374.54,492.79 377.28,492.82 380.02,492.85 382.75,492.88 385.49,492.91 388.23,492.93 390.96,492.95 393.70,492.97 396.44,492.98 399.17,493.00 401.91,493.01 404.65,493.02 407.39,493.03 410.12,493.04 412.86,493.05 415.60,493.06 418.33,493.07 421.07,493.07 423.81,493.08 426.54,493.08 429.28,493.09 432.02,493.09 434.75,493.10 437.49,493.10 440.23,493.10 442.97,493.10 445.70,493.11 448.44,493.11 451.18,493.11 453.91,493.11 456.65,493.11 459.39,493.11 462.12,493.12 464.86,493.12 467.60,493.12 470.34,493.12 473.07,493.12 475.81,493.12 478.55,493.12 481.28,493.12 484.02,493.12 486.76,493.12 489.49,493.12 492.23,493.12 494.97,493.12 497.70,493.12 500.44,493.12 503.18,493.12 505.92,493.12 508.65,493.12 511.39,493.12 514.13,493.12 516.86,493.12 519.60,493.12 522.34,493.12 525.07,493.12 527.81,493.12 530.55,493.12 533.28,493.12 536.02,493.12 538.76,493.12 541.50,493.12 544.23,493.12 546.97,493.12 549.71,493.12 552.44,493.12 555.18,493.13 557.92,493.13 560.65,493.13 563.39,493.13 566.13,493.13 568.87,493.13 571.60,493.13 574.34,493.13 577.08,493.13 579.81,493.13 582.55,493.13 585.29,493.13 588.02,493.13 590.76,493.13 593.50,493.13 596.23,493.13 598.97,493.13 601.71,493.13 604.45,493.13 607.18,493.13 609.92,493.13" style="stroke-width: 1.07;stroke: none;stroke-linecap: butt;"/>
<polyline points="609.92,493.13 607.18,493.13 604.45,493.13 601.71,493.13 598.97,493.13 596.23,493.13 593.50,493.13 590.76,493.13 588.02,493.13 585.29,493.13 582.55,493.13 579.81,493.13 577.08,493.13 574.34,493.13 571.60,493.13 568.87,493.13 566.13,493.13 563.39,493.13 560.65,493.13 557.92,493.13 555.18,493.13 552.44,493.13 549.71,493.13 546.97,493.13 544.23,493.13 541.50,493.13 538.76,493.12 536.02,493.12 533.28,493.12 530.55,493.12 527.81,493.12 525.07,493.12 522.34,493.12 519.60,493.12 516.86,493.12 514.13,493.12 511.39,493.12 508.65,493.12 505.92,493.12 503.18,493.12 500.44,493.12 497.70,493.12 494.97,493.12 492.23,493.12 489.49,493.12 486.76,493.12 484.02,493.12 481.28,493.12 478.55,493.12 475.81,493.12 473.07,493.12 470.34,493.12 467.60,493.12 464.86,493.12 462.12,493.12 459.39,493.12 456.65,493.12 453.91,493.12 451.18,493.11 448.44,493.11 445.70,493.11 442.97,493.11 440.23,493.11 437.49,493.11 434.75,493.10 432.02,493.10 429.28,493.10 426.54,493.10 423.81,493.09 421.07,493.09 418.33,493.08 415.60,493.08 412.86,493.07 410.12,493.07 407.39,493.06 404.65,493.05 401.91,493.04 399.17,493.03 396.44,493.02 393.70,493.01 390.96,493.00 388.23,492.98 385.49,492.96 382.75,492.94 380.02,492.92 377.28,492.90 374.54,492.87 371.80,492.84 369.07,492.80 366.33,492.77 363.59,492.72 360.86,492.67 358.12,492.62 355.38,492.56 352.65,492.49 349.91,492.41 347.17,492.33 344.44,492.23 341.70,492.12 338.96,492.00 336.22,491.86 333.49,491.71 330.75,491.54 328.01,491.35 325.28,491.14 322.54,490.90 319.80,490.63 317.07,490.33 314.33,489.99 311.59,489.61 308.86,489.19 306.12,488.72 303.38,488.19 300.64,487.60 297.91,486.95 295.17,486.21 292.43,485.40 289.70,484.48 286.96,483.45 284.22,482.31 281.49,481.04 278.75,479.62 276.01,478.05 273.27,476.29 270.54,474.35 267.80,472.19 265.06,469.79 262.33,467.13 259.59,464.21 256.85,460.97 254.12,457.41 251.38,453.48 248.64,449.17 245.91,444.50 243.17,439.36 240.43,433.75 237.69,427.65 234.96,421.09 232.22,413.96 229.48,406.31 226.75,398.16 224.01,389.40 221.27,380.12 218.54,370.35 215.80,360.12 213.06,349.40 210.32,338.22 207.59,326.72 204.85,314.87 202.11,302.81 199.38,290.58 196.64,278.22 193.90,265.85 191.17,253.55 188.43,241.34 185.69,229.40 182.96,217.65 180.22,206.23 177.48,195.20 174.74,184.61 172.01,174.46 169.27,164.83 166.53,155.72 163.80,147.15 161.06,139.10 158.32,131.63 155.59,124.60 152.85,118.15 150.11,112.17 147.38,106.64 144.64,101.57 141.90,96.94 139.16,92.72 136.43,88.89 133.69,85.41 130.95,82.23 128.22,79.37 125.48,76.83 122.74,74.51 120.01,72.45 117.27,70.57 114.53,68.87 111.79,67.37 109.06,66.01 106.32,64.79 103.58,63.70 100.85,62.72 98.11,61.84 95.37,61.05 92.64,60.36 89.90,59.76 87.16,59.19 84.43,58.70 81.69,58.25 78.95,57.86 76.21,57.49 73.48,57.19 70.74,56.89 68.00,56.64 65.27,56.41" style="stroke-width: 1.07;stroke: none;stroke-linecap: butt;"/>
<circle cx="65.27" cy="78.47" r="2.06" style="stroke-width: 0.71;stroke: #F8766D;stroke-opacity: 0.70;fill: #F8766D;fill-opacity: 0.70;"/>
<circle cx="65.27" cy="94.76" r="2.06" style="stroke-width: 0.71;stroke: #F8766D;stroke-opacity: 0.70;fill: #F8766D;fill-opacity: 0.70;"/>
<circle cx="65.27" cy="70.04" r="2.06" style="stroke-width: 0.71;stroke: #F8766D;stroke-opacity: 0.70;fill: #F8766D;fill-opacity: 0.70;"/>
<circle cx="65.27" cy="59.39" r="2.06" style="stroke-width: 0.71;stroke: #7CAE00;stroke-opacity: 0.70;fill: #7CAE00;fill-opacity: 0.70;"/>
<circle cx="65.27" cy="45.56" r="2.06" style="stroke-width: 0.71;stroke: #7CAE00;stroke-opacity: 0.70;fill: #7CAE00;fill-opacity: 0.70;"/>
<circle cx="65.27" cy="45.56" r="2.06" style="stroke-width: 0.71;stroke: #7CAE00;stroke-opacity: 0.70;fill: #7CAE00;fill-opacity: 0.70;"/>
<circle cx="65.27" cy="45.56" r="2.06" style="stroke-width: 0.71;stroke: #00BFC4;stroke-opacity: 0.70;fill: #00BFC4;fill-opacity: 0.70;"/>
<circle cx="65.27" cy="45.56" r="2.06" style="stroke-width: 0.71;stroke: #00BFC4;stroke-opacity: 0.70;fill: #00BFC4;fill-opacity: 0.70;"/>
<circle cx="65.27" cy="45.56" r="2.06" style="stroke-width: 0.71;stroke: #00BFC4;stroke-opacity: 0.70;fill: #00BFC4;fill-opacity: 0.70;"/>
<circle cx="65.27" cy="45.56" r="2.06" style="stroke-width: 0.71;stroke: #C77CFF;stroke-opacity: 0.70;fill: #C77CFF;fill-opacity: 0.70;"/>
<circle cx="65.27" cy="71.11" r="2.06" style="stroke-width: 0.71;stroke: #C77CFF;stroke-opacity: 0.70;fill: #C77CFF;fill-opacity: 0.70;"/>
<circle cx="65.27" cy="45.56" r="2.06" style="stroke-width: 0.71;stroke: #C77CFF;stroke-opacity: 0.70;fill: #C77CFF;fill-opacity: 0.70;"/>
<circle cx="156.56" cy="103.48" r="2.06" style="stroke-width: 0.71;stroke: #F8766D;stroke-opacity: 0.70;fill: #F8766D;fill-opacity: 0.70;"/>
<circle cx="156.56" cy="125.41" r="2.06" style="stroke-width: 0.71;stroke: #F8766D;stroke-opacity: 0.70;fill: #F8766D;fill-opacity: 0.70;"/>
<circle cx="156.56" cy="141.35" r="2.06" style="stroke-width: 0.71;stroke: #F8766D;stroke-opacity: 0.70;fill: #F8766D;fill-opacity: 0.70;"/>
<circle cx="156.56" cy="49.37" r="2.06" style="stroke-width: 0.71;stroke: #7CAE00;stroke-opacity: 0.70;fill: #7CAE00;fill-opacity: 0.70;"/>
<circle cx="156.56" cy="56.33" r="2.06" style="stroke-width: 0.71;stroke: #7CAE00;stroke-opacity: 0.70;fill: #7CAE00;fill-opacity: 0.70;"/>
<circle cx="156.56" cy="45.56" r="2.06" style="stroke-width: 0.71;stroke: #7CAE00;stroke-opacity: 0.70;fill: #7CAE00;fill-opacity: 0.70;"/>
<circle cx="156.56" cy="105.52" r="2.06" style="stroke-width: 0.71;stroke: #00BFC4;stroke-opacity: 0.70;fill: #00BFC4;fill-opacity: 0.70;"/>
<circle cx="156.56" cy="95.32" r="2.06" style="stroke-width: 0.71;stroke: #00BFC4;stroke-opacity: 0.70;fill: #00BFC4;fill-opacity: 0.70;"/>
<circle cx="156.56" cy="45.56" r="2.06" style="stroke-width: 0.71;stroke: #00BFC4;stroke-opacity: 0.70;fill: #00BFC4;fill-opacity: 0.70;"/>
<circle cx="156.56" cy="126.46" r="2.06" style="stroke-width: 0.71;stroke: #C77CFF;stroke-opacity: 0.70;fill: #C77CFF;fill-opacity: 0.70;"/>
<circle cx="156.56" cy="159.40" r="2.06" style="stroke-width: 0.71;stroke: #C77CFF;stroke-opacity: 0.70;fill: #C77CFF;fill-opacity: 0.70;"/>
<circle cx="156.56" cy="88.33" r="2.06" style="stroke-width: 0.71;stroke: #C77CFF;stroke-opacity: 0.70;fill: #C77CFF;fill-opacity: 0.70;"/>
<circle cx="243.68" cy="264.28" r="2.06" style="stroke-width: 0.71;stroke: #F8766D;stroke-opacity: 0.70;fill: #F8766D;fill-opacity: 0.70;"/>
<circle cx="243.68" cy="275.55" r="2.06" style="stroke-width: 0.71;stroke: #F8766D;stroke-opacity: 0.70;fill: #F8766D;fill-opacity: 0.70;"/>
<circle cx="243.68" cy="279.29" r="2.06" style="stroke-width: 0.71;stroke: #F8766D;stroke-opacity: 0.70;fill: #F8766D;fill-opacity: 0.70;"/>
<circle cx="243.68" cy="440.19" r="2.06" style="stroke-width: 0.71;stroke: #7CAE00;stroke-opacity: 0.70;fill: #7CAE00;fill-opacity: 0.70;"/>
<circle cx="243.68" cy="416.08" r="2.06" style="stroke-width: 0.71;stroke: #7CAE00;stroke-opacity: 0.70;fill: #7CAE00;fill-opacity: 0.70;"/>
<circle cx="243.68" cy="200.32" r="2.06" style="stroke-width: 0.71;stroke: #7CAE00;stroke-opacity: 0.70;fill: #7CAE00;fill-opacity: 0.70;"/>
<circle cx="243.68" cy="356.24" r="2.06" style="stroke-width: 0.71;stroke: #00BFC4;stroke-opacity: 0.70;fill: #00BFC4;fill-opacity: 0.70;"/>
<circle cx="243.68" cy="311.26" r="2.06" style="stroke-width: 0.71;stroke: #00BFC4;stroke-opacity: 0.70;fill: #00BFC4;fill-opacity: 0.70;"/>
<circle cx="243.68" cy="392.08" r="2.06" style="stroke-width: 0.71;stroke: #00BFC4;stroke-opacity: 0.70;fill: #00BFC4;fill-opacity: 0.70;"/>
<circle cx="243.68" cy="493.13" r="2.06" style="stroke-width: 0.71;stroke: #C77CFF;stroke-opacity: 0.70;fill: #C77CFF;fill-opacity: 0.70;"/>
<circle cx="243.68" cy="493.13" r="2.06" style="stroke-width: 0.71;stroke: #C77CFF;stroke-opacity: 0.70;fill: #C77CFF;fill-opacity: 0.70;"/>
<circle cx="243.68" cy="327.67" r="2.06" style="stroke-width: 0.71;stroke: #C77CFF;stroke-opacity: 0.70;fill: #C77CFF;fill-opacity: 0.70;"/>
<circle cx="336.03" cy="455.72" r="2.06" style="stroke-width: 0.71;stroke: #F8766D;stroke-opacity: 0.70;fill: #F8766D;fill-opacity: 0.70;"/>
<circle cx="336.03" cy="493.13" r="2.06" style="stroke-width: 0.71;stroke: #F8766D;stroke-opacity: 0.70;fill: #F8766D;fill-opacity: 0.70;"/>
<circle cx="336.03" cy="493.13" r="2.06" style="stroke-width: 0.71;stroke: #F8766D;stroke-opacity: 0.70;fill: #F8766D;fill-opacity: 0.70;"/>
<circle cx="336.03" cy="493.13" r="2.06" style="stroke-width: 0.71;stroke: #7CAE00;stroke-opacity: 0.70;fill: #7CAE00;fill-opacity: 0.70;"/>
<circle cx="336.03" cy="493.13" r="2.06" style="stroke-width: 0.71;stroke: #7CAE00;stroke-opacity: 0.70;fill: #7CAE00;fill-opacity: 0.70;"/>
<circle cx="336.03" cy="493.13" r="2.06" style="stroke-width: 0.71;stroke: #7CAE00;stroke-opacity: 0.70;fill: #7CAE00;fill-opacity: 0.70;"/>
<circle cx="336.03" cy="493.13" r="2.06" style="stroke-width: 0.71;stroke: #00BFC4;stroke-opacity: 0.70;fill: #00BFC4;fill-opacity: 0.70;"/>
<circle cx="336.03" cy="493.13" r="2.06" style="stroke-width: 0.71;stroke: #00BFC4;stroke-opacity: 0.70;fill: #00BFC4;fill-opacity: 0.70;"/>
<circle cx="336.03" cy="493.13" r="2.06" style="stroke-width: 0.71;stroke: #00BFC4;stroke-opacity: 0.70;fill: #00BFC4;fill-opacity: 0.70;"/>
<circle cx="336.03" cy="493.13" r="2.06" style="stroke-width: 0.71;stroke: #C77CFF;stroke-opacity: 0.70;fill: #C77CFF;fill-opacity: 0.70;"/>
<circle cx="336.03" cy="493.13" r="2.06" style="stroke-width: 0.71;stroke: #C77CFF;stroke-opacity: 0.70;fill: #C77CFF;fill-opacity: 0.70;"/>
<circle cx="336.03" cy="493.13" r="2.06" style="stroke-width: 0.71;stroke: #C77CFF;stroke-opacity: 0.70;fill: #C77CFF;fill-opacity: 0.70;"/>
<circle cx="427.33" cy="493.13" r="2.06" style="stroke-width: 0.71;stroke: #F8766D;stroke-opacity: 0.70;fill: #F8766D;fill-opacity: 0.70;"/>
<circle cx="427.33" cy="493.13" r="2.06" style="stroke-width: 0.71;stroke: #F8766D;stroke-opacity: 0.70;fill: #F8766D;fill-opacity: 0.70;"/>
<circle cx="427.33" cy="493.13" r="2.06" style="stroke-width: 0.71;stroke: #F8766D;stroke-opacity: 0.70;fill: #F8766D;fill-opacity: 0.70;"/>
<circle cx="427.33" cy="493.13" r="2.06" style="stroke-width: 0.71;stroke: #7CAE00;stroke-opacity: 0.70;fill: #7CAE00;fill-opacity: 0.70;"/>
<circle cx="427.33" cy="493.13" r="2.06" style="stroke-width: 0.71;stroke: #7CAE00;stroke-opacity: 0.70;fill: #7CAE00;fill-opacity: 0.70;"/>
<circle cx="427.33" cy="493.13" r="2.06" style="stroke-width: 0.71;stroke: #7CAE00;stroke-opacity: 0.70;fill: #7CAE00;fill-opacity: 0.70;"/>
<circle cx="427.33" cy="493.13" r="2.06" style="stroke-width: 0.71;stroke: #00BFC4;stroke-opacity: 0.70;fill: #00BFC4;fill-opacity: 0.70;"/>
<circle cx="427.33" cy="493.13" r="2.06" style="stroke-width: 0.71;stroke: #00BFC4;stroke-opacity: 0.70;fill: #00BFC4;fill-opacity: 0.70;"/>
<circle cx="427.33" cy="493.13" r="2.06" style="stroke-width: 0.71;stroke: #00BFC4;stroke-opacity: 0.70;fill: #00BFC4;fill-opacity: 0.70;"/>
<circle cx="427.33" cy="493.13" r="2.06" style="stroke-width: 0.71;stroke: #C77CFF;stroke-opacity: 0.70;fill: #C77CFF;fill-opacity: 0.70;"/>
<circle cx="427.33" cy="493.13" r="2.06" style="stroke-width: 0.71;stroke: #C77CFF;stroke-opacity: 0.70;fill: #C77CFF;fill-opacity: 0.70;"/>
<circle cx="427.33" cy="493.13" r="2.06" style="stroke-width: 0.71;stroke: #C77CFF;stroke-opacity: 0.70;fill: #C77CFF;fill-opacity: 0.70;"/>
<circle cx="518.62" cy="493.13" r="2.06" style="stroke-width: 0.71;stroke: #F8766D;stroke-opacity: 0.70;fill: #F8766D;fill-opacity: 0.70;"/>
<circle cx="518.62" cy="493.13" r="2.06" style="stroke-width: 0.71;stroke: #F8766D;stroke-opacity: 0.70;fill: #F8766D;fill-opacity: 0.70;"/>
<circle cx="518.62" cy="493.13" r="2.06" style="stroke-width: 0.71;stroke: #F8766D;stroke-opacity: 0.70;fill: #F8766D;fill-opacity: 0.70;"/>
<circle cx="518.62" cy="493.13" r="2.06" style="stroke-width: 0.71;stroke: #7CAE00;stroke-opacity: 0.70;fill: #7CAE00;fill-opacity: 0.70;"/>
<circle cx="518.62" cy="493.13" r="2.06" style="stroke-width: 0.71;stroke: #7CAE00;stroke-opacity: 0.70;fill: #7CAE00;fill-opacity: 0.70;"/>
<circle cx="518.62" cy="493.13" r="2.06" style="stroke-width: 0.71;stroke: #7CAE00;stroke-opacity: 0.70;fill: #7CAE00;fill-opacity: 0.70;"/>
<circle cx="518.62" cy="493.13" r="2.06" style="stroke-width: 0.71;stroke: #00BFC4;stroke-opacity: 0.70;fill: #00BFC4;fill-opacity: 0.70;"/>
<circle cx="518.62" cy="493.13" r="2.06" style="stroke-width: 0.71;stroke: #00BFC4;stroke-opacity: 0.70;fill: #00BFC4;fill-opacity: 0.70;"/>
<circle cx="518.62" cy="493.13" r="2.06" style="stroke-width: 0.71;stroke: #00BFC4;stroke-opacity: 0.70;fill: #00BFC4;fill-opacity: 0.70;"/>
<circle cx="518.62" cy="493.13" r="2.06" style="stroke-width: 0.71;stroke: #C77CFF;stroke-opacity: 0.70;fill: #C77CFF;fill-opacity: 0.70;"/>
<circle cx="518.62" cy="493.13" r="2.06" style="stroke-width: 0.71;stroke: #C77CFF;stroke-opacity: 0.70;fill: #C77CFF;fill-opacity: 0.70;"/>
<circle cx="518.62" cy="493.13" r="2.06" style="stroke-width: 0.71;stroke: #C77CFF;stroke-opacity: 0.70;fill: #C77CFF;fill-opacity: 0.70;"/>
<circle cx="609.92" cy="490.43" r="2.06" style="stroke-width: 0.71;stroke: #F8766D;stroke-opacity: 0.70;fill: #F8766D;fill-opacity: 0.70;"/>
<circle cx="609.92" cy="493.13" r="2.06" style="stroke-width: 0.71;stroke: #F8766D;stroke-opacity: 0.70;fill: #F8766D;fill-opacity: 0.70;"/>
<circle cx="609.92" cy="493.13" r="2.06" style="stroke-width: 0.71;stroke: #F8766D;stroke-opacity: 0.70;fill: #F8766D;fill-opacity: 0.70;"/>
<circle cx="609.92" cy="493.13" r="2.06" style="stroke-width: 0.71;stroke: #7CAE00;stroke-opacity: 0.70;fill: #7CAE00;fill-opacity: 0.70;"/>
<circle cx="609.92" cy="492.03" r="2.06" style="stroke-width: 0.71;stroke: #7CAE00;stroke-opacity: 0.70;fill: #7CAE00;fill-opacity: 0.70;"/>
<circle cx="609.92" cy="493.13" r="2.06" style="stroke-width: 0.71;stroke: #7CAE00;stroke-opacity: 0.70;fill: #7CAE00;fill-opacity: 0.70;"/>
<circle cx="609.92" cy="493.13" r="2.06" style="stroke-width: 0.71;stroke: #00BFC4;stroke-opacity: 0.70;fill: #00BFC4;fill-opacity: 0.70;"/>
<circle cx="609.92" cy="493.13" r="2.06" style="stroke-width: 0.71;stroke: #00BFC4;stroke-opacity: 0.70;fill: #00BFC4;fill-opacity: 0.70;"/>
<circle cx="609.92" cy="492.51" r="2.06" style="stroke-width: 0.71;stroke: #00BFC4;stroke-opacity: 0.70;fill: #00BFC4;fill-opacity: 0.70;"/>
<circle cx="609.92" cy="493.13" r="2.06" style="stroke-width: 0.71;stroke: #C77CFF;stroke-opacity: 0.70;fill: #C77CFF;fill-opacity: 0.70;"/>
<circle cx="609.92" cy="493.13" r="2.06" style="stroke-width: 0.71;stroke: #C77CFF;stroke-opacity: 0.70;fill: #C77CFF;fill-opacity: 0.70;"/>
<circle cx="609.92" cy="487.28" r="2.06" style="stroke-width: 0.71;stroke: #C77CFF;stroke-opacity: 0.70;fill: #C77CFF;fill-opacity: 0.70;"/>
<polyline points="65.27,92.40 68.00,92.53 70.74,92.67 73.48,92.82 76.21,92.98 78.95,93.16 81.69,93.35 84.43,93.55 87.16,93.77 89.90,94.02 92.64,94.28 95.37,94.56 98.11,94.86 100.85,95.19 103.58,95.55 106.32,95.94 109.06,96.36 111.79,96.81 114.53,97.30 117.27,97.83 120.01,98.41 122.74,99.03 125.48,99.71 128.22,100.43 130.95,101.22 133.69,102.07 136.43,103.00 139.16,103.99 141.90,105.07 144.64,106.24 147.38,107.49 150.11,108.85 152.85,110.32 155.59,111.90 158.32,113.61 161.06,115.45 163.80,117.43 166.53,119.57 169.27,121.86 172.01,124.33 174.74,126.99 177.48,129.83 180.22,132.89 182.96,136.16 185.69,139.65 188.43,143.39 191.17,147.38 193.90,151.63 196.64,156.15 199.38,160.94 202.11,166.03 204.85,171.40 207.59,177.08 210.32,183.05 213.06,189.33 215.80,195.90 218.54,202.77 221.27,209.92 224.01,217.34 226.75,225.03 229.48,232.96 232.22,241.11 234.96,249.45 237.69,257.97 240.43,266.62 243.17,275.38 245.91,284.21 248.64,293.08 251.38,301.95 254.12,310.78 256.85,319.54 259.59,328.19 262.33,336.70 265.06,345.04 267.80,353.18 270.54,361.10 273.27,368.77 276.01,376.18 278.75,383.31 281.49,390.15 284.22,396.69 286.96,402.93 289.70,408.87 292.43,414.50 295.17,419.83 297.91,424.87 300.64,429.61 303.38,434.07 306.12,438.26 308.86,442.19 311.59,445.87 314.33,449.31 317.07,452.52 319.80,455.51 322.54,458.29 325.28,460.88 328.01,463.29 330.75,465.53 333.49,467.61 336.22,469.53 338.96,471.32 341.70,472.97 344.44,474.50 347.17,475.92 349.91,477.23 352.65,478.45 355.38,479.57 358.12,480.60 360.86,481.56 363.59,482.44 366.33,483.26 369.07,484.02 371.80,484.71 374.54,485.35 377.28,485.95 380.02,486.50 382.75,487.00 385.49,487.47 388.23,487.90 390.96,488.30 393.70,488.66 396.44,489.00 399.17,489.31 401.91,489.60 404.65,489.87 407.39,490.12 410.12,490.34 412.86,490.55 415.60,490.75 418.33,490.92 421.07,491.09 423.81,491.24 426.54,491.38 429.28,491.51 432.02,491.63 434.75,491.74 437.49,491.85 440.23,491.94 442.97,492.03 445.70,492.11 448.44,492.18 451.18,492.25 453.91,492.32 456.65,492.38 459.39,492.43 462.12,492.48 464.86,492.53 467.60,492.57 470.34,492.61 473.07,492.65 475.81,492.68 478.55,492.72 481.28,492.75 484.02,492.77 486.76,492.80 489.49,492.82 492.23,492.84 494.97,492.86 497.70,492.88 500.44,492.90 503.18,492.92 505.92,492.93 508.65,492.94 511.39,492.96 514.13,492.97 516.86,492.98 519.60,492.99 522.34,493.00 525.07,493.01 527.81,493.02 530.55,493.02 533.28,493.03 536.02,493.04 538.76,493.04 541.50,493.05 544.23,493.05 546.97,493.06 549.71,493.06 552.44,493.07 555.18,493.07 557.92,493.08 560.65,493.08 563.39,493.08 566.13,493.08 568.87,493.09 571.60,493.09 574.34,493.09 577.08,493.09 579.81,493.10 582.55,493.10 585.29,493.10 588.02,493.10 590.76,493.10 593.50,493.11 596.23,493.11 598.97,493.11 601.71,493.11 604.45,493.11 607.18,493.11 609.92,493.11" style="stroke-width: 1.71;stroke: #F8766D;stroke-linecap: butt;"/>
<polyline points="65.27,50.12 68.00,50.12 70.74,50.12 73.48,50.12 76.21,50.12 78.95,50.12 81.69,50.12 84.43,50.12 87.16,50.12 89.90,50.12 92.64,50.12 95.37,50.12 98.11,50.12 100.85,50.12 103.58,50.12 106.32,50.12 109.06,50.12 111.79,50.12 114.53,50.12 117.27,50.12 120.01,50.13 122.74,50.13 125.48,50.14 128.22,50.14 130.95,50.15 133.69,50.16 136.43,50.18 139.16,50.19 141.90,50.22 144.64,50.25 147.38,50.29 150.11,50.34 152.85,50.41 155.59,50.50 158.32,50.62 161.06,50.78 163.80,50.98 166.53,51.25 169.27,51.60 172.01,52.05 174.74,52.64 177.48,53.42 180.22,54.43 182.96,55.75 185.69,57.47 188.43,59.71 191.17,62.61 193.90,66.36 196.64,71.19 199.38,77.37 202.11,85.23 204.85,95.12 207.59,107.43 210.32,122.52 213.06,140.69 215.80,162.10 218.54,186.68 221.27,214.07 224.01,243.57 226.75,274.21 229.48,304.82 232.22,334.25 234.96,361.48 237.69,385.83 240.43,406.92 243.17,424.70 245.91,439.35 248.64,451.20 251.38,460.65 254.12,468.09 256.85,473.90 259.59,478.40 262.33,481.87 265.06,484.54 267.80,486.58 270.54,488.14 273.27,489.33 276.01,490.23 278.75,490.92 281.49,491.45 284.22,491.85 286.96,492.15 289.70,492.38 292.43,492.56 295.17,492.70 297.91,492.80 300.64,492.88 303.38,492.93 306.12,492.98 308.86,493.01 311.59,493.04 314.33,493.06 317.07,493.08 319.80,493.09 322.54,493.10 325.28,493.10 328.01,493.11 330.75,493.11 333.49,493.12 336.22,493.12 338.96,493.12 341.70,493.12 344.44,493.12 347.17,493.12 349.91,493.12 352.65,493.12 355.38,493.12 358.12,493.12 360.86,493.12 363.59,493.12 366.33,493.12 369.07,493.12 371.80,493.12 374.54,493.13 377.28,493.13 380.02,493.13 382.75,493.13 385.49,493.13 388.23,493.13 390.96,493.13 393.70,493.13 396.44,493.13 399.17,493.13 401.91,493.13 404.65,493.13 407.39,493.13 410.12,493.13 412.86,493.13 415.60,493.13 418.33,493.13 421.07,493.13 423.81,493.13 426.54,493.13 429.28,493.13 432.02,493.13 434.75,493.13 437.49,493.13 440.23,493.13 442.97,493.13 445.70,493.13 448.44,493.13 451.18,493.13 453.91,493.13 456.65,493.13 459.39,493.13 462.12,493.13 464.86,493.13 467.60,493.13 470.34,493.13 473.07,493.13 475.81,493.13 478.55,493.13 481.28,493.13 484.02,493.13 486.76,493.13 489.49,493.13 492.23,493.13 494.97,493.13 497.70,493.13 500.44,493.13 503.18,493.13 505.92,493.13 508.65,493.13 511.39,493.13 514.13,493.13 516.86,493.13 519.60,493.13 522.34,493.13 525.07,493.13 527.81,493.13 530.55,493.13 533.28,493.13 536.02,493.13 538.76,493.13 541.50,493.13 544.23,493.13 546.97,493.13 549.71,493.13 552.44,493.13 555.18,493.13 557.92,493.13 560.65,493.13 563.39,493.13 566.13,493.13 568.87,493.13 571.60,493.13 574.34,493.13 577.08,493.13 579.81,493.13 582.55,493.13 585.29,493.13 588.02,493.13 590.76,493.13 593.50,493.13 596.23,493.13 598.97,493.13 601.71,493.13 604.45,493.13 607.18,493.13 609.92,493.13" style="stroke-width: 1.71;stroke: #7CAE00;stroke-linecap: butt;"/>
<polyline points="65.27,48.34 68.00,48.60 70.74,48.88 73.48,49.19 76.21,49.52 78.95,49.89 81.69,50.29 84.43,50.73 87.16,51.21 89.90,51.74 92.64,52.31 95.37,52.93 98.11,53.61 100.85,54.35 103.58,55.16 106.32,56.04 109.06,57.00 111.79,58.05 114.53,59.19 117.27,60.43 120.01,61.78 122.74,63.24 125.48,64.83 128.22,66.56 130.95,68.44 133.69,70.48 136.43,72.68 139.16,75.07 141.90,77.65 144.64,80.44 147.38,83.45 150.11,86.70 152.85,90.19 155.59,93.95 158.32,97.98 161.06,102.31 163.80,106.93 166.53,111.87 169.27,117.14 172.01,122.74 174.74,128.69 177.48,134.98 180.22,141.63 182.96,148.63 185.69,155.99 188.43,163.69 191.17,171.73 193.90,180.10 196.64,188.78 199.38,197.75 202.11,206.98 204.85,216.46 207.59,226.14 210.32,235.99 213.06,245.99 215.80,256.08 218.54,266.22 221.27,276.38 224.01,286.52 226.75,296.58 229.48,306.53 232.22,316.34 234.96,325.96 237.69,335.36 240.43,344.51 243.17,353.38 245.91,361.96 248.64,370.22 251.38,378.15 254.12,385.74 256.85,392.97 259.59,399.85 262.33,406.37 265.06,412.54 267.80,418.36 270.54,423.84 273.27,428.98 276.01,433.80 278.75,438.31 281.49,442.52 284.22,446.44 286.96,450.10 289.70,453.49 292.43,456.64 295.17,459.56 297.91,462.26 300.64,464.76 303.38,467.07 306.12,469.20 308.86,471.16 311.59,472.97 314.33,474.64 317.07,476.18 319.80,477.59 322.54,478.89 325.28,480.08 328.01,481.17 330.75,482.18 333.49,483.10 336.22,483.95 338.96,484.72 341.70,485.43 344.44,486.09 347.17,486.68 349.91,487.23 352.65,487.73 355.38,488.19 358.12,488.61 360.86,489.00 363.59,489.35 366.33,489.67 369.07,489.96 371.80,490.23 374.54,490.48 377.28,490.71 380.02,490.91 382.75,491.10 385.49,491.28 388.23,491.43 390.96,491.58 393.70,491.71 396.44,491.83 399.17,491.94 401.91,492.04 404.65,492.14 407.39,492.22 410.12,492.30 412.86,492.37 415.60,492.43 418.33,492.49 421.07,492.55 423.81,492.60 426.54,492.64 429.28,492.68 432.02,492.72 434.75,492.75 437.49,492.79 440.23,492.82 442.97,492.84 445.70,492.87 448.44,492.89 451.18,492.91 453.91,492.93 456.65,492.94 459.39,492.96 462.12,492.97 464.86,492.99 467.60,493.00 470.34,493.01 473.07,493.02 475.81,493.03 478.55,493.04 481.28,493.04 484.02,493.05 486.76,493.06 489.49,493.06 492.23,493.07 494.97,493.07 497.70,493.08 500.44,493.08 503.18,493.09 505.92,493.09 508.65,493.09 511.39,493.09 514.13,493.10 516.86,493.10 519.60,493.10 522.34,493.10 525.07,493.11 527.81,493.11 530.55,493.11 533.28,493.11 536.02,493.11 538.76,493.11 541.50,493.11 544.23,493.11 546.97,493.12 549.71,493.12 552.44,493.12 555.18,493.12 557.92,493.12 560.65,493.12 563.39,493.12 566.13,493.12 568.87,493.12 571.60,493.12 574.34,493.12 577.08,493.12 579.81,493.12 582.55,493.12 585.29,493.12 588.02,493.12 590.76,493.12 593.50,493.12 596.23,493.12 598.97,493.12 601.71,493.12 604.45,493.12 607.18,493.12 609.92,493.12" style="stroke-width: 1.71;stroke: #00BFC4;stroke-linecap: butt;"/>
<polyline points="65.27,54.08 68.00,54.32 70.74,54.59 73.48,54.90 76.21,55.23 78.95,55.61 81.69,56.04 84.43,56.51 87.16,57.03 89.90,57.62 92.64,58.28 95.37,59.01 98.11,59.82 100.85,60.73 103.58,61.74 106.32,62.86 109.06,64.11 111.79,65.50 114.53,67.05 117.27,68.77 120.01,70.67 122.74,72.78 125.48,75.11 128.22,77.69 130.95,80.54 133.69,83.68 136.43,87.14 139.16,90.94 141.90,95.10 144.64,99.66 147.38,104.64 150.11,110.07 152.85,115.95 155.59,122.33 158.32,129.21 161.06,136.62 163.80,144.55 166.53,153.02 169.27,162.01 172.01,171.53 174.74,181.55 177.48,192.04 180.22,202.97 182.96,214.29 185.69,225.96 188.43,237.90 191.17,250.05 193.90,262.35 196.64,274.71 199.38,287.06 202.11,299.31 204.85,311.40 207.59,323.26 210.32,334.81 213.06,346.00 215.80,356.79 218.54,367.12 221.27,376.97 224.01,386.30 226.75,395.12 229.48,403.40 232.22,411.15 234.96,418.37 237.69,425.08 240.43,431.28 243.17,437.01 245.91,442.28 248.64,447.11 251.38,451.53 254.12,455.56 256.85,459.24 259.59,462.59 262.33,465.63 265.06,468.38 267.80,470.87 270.54,473.12 273.27,475.16 276.01,477.00 278.75,478.65 281.49,480.14 284.22,481.48 286.96,482.69 289.70,483.77 292.43,484.74 295.17,485.62 297.91,486.40 300.64,487.10 303.38,487.74 306.12,488.30 308.86,488.81 311.59,489.26 314.33,489.67 317.07,490.03 319.80,490.36 322.54,490.65 325.28,490.91 328.01,491.14 330.75,491.35 333.49,491.54 336.22,491.71 338.96,491.86 341.70,491.99 344.44,492.11 347.17,492.22 349.91,492.32 352.65,492.40 355.38,492.48 358.12,492.55 360.86,492.61 363.59,492.66 366.33,492.71 369.07,492.76 371.80,492.79 374.54,492.83 377.28,492.86 380.02,492.89 382.75,492.91 385.49,492.94 388.23,492.96 390.96,492.97 393.70,492.99 396.44,493.00 399.17,493.02 401.91,493.03 404.65,493.04 407.39,493.05 410.12,493.06 412.86,493.06 415.60,493.07 418.33,493.08 421.07,493.08 423.81,493.09 426.54,493.09 429.28,493.09 432.02,493.10 434.75,493.10 437.49,493.10 440.23,493.11 442.97,493.11 445.70,493.11 448.44,493.11 451.18,493.11 453.91,493.11 456.65,493.11 459.39,493.12 462.12,493.12 464.86,493.12 467.60,493.12 470.34,493.12 473.07,493.12 475.81,493.12 478.55,493.12 481.28,493.12 484.02,493.12 486.76,493.12 489.49,493.12 492.23,493.12 494.97,493.12 497.70,493.12 500.44,493.12 503.18,493.12 505.92,493.12 508.65,493.12 511.39,493.12 514.13,493.12 516.86,493.12 519.60,493.12 522.34,493.12 525.07,493.12 527.81,493.12 530.55,493.12 533.28,493.12 536.02,493.12 538.76,493.12 541.50,493.12 544.23,493.12 546.97,493.12 549.71,493.13 552.44,493.13 555.18,493.13 557.92,493.13 560.65,493.13 563.39,493.13 566.13,493.13 568.87,493.13 571.60,493.13 574.34,493.13 577.08,493.13 579.81,493.13 582.55,493.13 585.29,493.13 588.02,493.13 590.76,493.13 593.50,493.13 596.23,493.13 598.97,493.13 601.71,493.13 604.45,493.13 607.18,493.13 609.92,493.13" style="stroke-width: 1.71;stroke: #C77CFF;stroke-linecap: butt;"/>
</g><g clip-path="url(#c2)">
<g><text x="33.10" y="496.28" text-anchor="end" style="font-family: Arial;font-size: 8.80px;fill: #4D4D4D;" textLength="4.90px" lengthAdjust="spacingAndGlyphs">0</text></g>
<g><text x="33.10" y="384.38" text-anchor="end" style="font-family: Arial;font-size: 8.80px;fill: #4D4D4D;" textLength="9.79px" lengthAdjust="spacingAndGlyphs">25</text></g>
<g><text x="33.10" y="272.49" text-anchor="end" style="font-family: Arial;font-size: 8.80px;fill: #4D4D4D;" textLength="9.79px" lengthAdjust="spacingAndGlyphs">50</text></g>
<g><text x="33.10" y="160.60" text-anchor="end" style="font-family: Arial;font-size: 8.80px;fill: #4D4D4D;" textLength="9.79px" lengthAdjust="spacingAndGlyphs">75</text></g>
<g><text x="33.10" y="48.71" text-anchor="end" style="font-family: Arial;font-size: 8.80px;fill: #4D4D4D;" textLength="14.69px" lengthAdjust="spacingAndGlyphs">100</text></g>
<g><text x="94.66" y="526.74" text-anchor="middle" style="font-family: Arial;font-size: 8.80px;fill: #4D4D4D;" textLength="4.90px" lengthAdjust="spacingAndGlyphs">1</text></g>
<g><text x="239.36" y="526.74" text-anchor="middle" style="font-family: Arial;font-size: 8.80px;fill: #4D4D4D;" textLength="4.90px" lengthAdjust="spacingAndGlyphs">3</text></g>
<g><text x="397.94" y="526.74" text-anchor="middle" style="font-family: Arial;font-size: 8.80px;fill: #4D4D4D;" textLength="9.79px" lengthAdjust="spacingAndGlyphs">10</text></g>
<g><text x="542.64" y="526.74" text-anchor="middle" style="font-family: Arial;font-size: 8.80px;fill: #4D4D4D;" textLength="9.79px" lengthAdjust="spacingAndGlyphs">30</text></g>
<g><text x="337.59" y="539.20" text-anchor="middle" style="font-family: Arial;font-size: 11.00px;" textLength="44.65px" lengthAdjust="spacingAndGlyphs">Dose [%]</text></g>
<g><text transform="translate(13.36,269.34) rotate(-90.00)" text-anchor="middle" style="font-family: Arial;font-size: 11.00px;" textLength="57.87px" lengthAdjust="spacingAndGlyphs">Viability (%)</text></g>
<g><text x="653.59" y="235.98" style="font-family: Arial;font-size: 11.00px;" textLength="74.02px" lengthAdjust="spacingAndGlyphs">Patient / Group</text></g>
<circle cx="662.23" cy="251.26" r="2.06" style="stroke-width: 0.71;stroke: #F8766D;stroke-opacity: 0.70;fill: #F8766D;fill-opacity: 0.70;"/>
<line x1="655.32" y1="251.26" x2="669.14" y2="251.26" style="stroke-width: 1.71;stroke: #F8766D;stroke-linecap: butt;"/>
<circle cx="662.23" cy="268.54" r="2.06" style="stroke-width: 0.71;stroke: #7CAE00;stroke-opacity: 0.70;fill: #7CAE00;fill-opacity: 0.70;"/>
<line x1="655.32" y1="268.54" x2="669.14" y2="268.54" style="stroke-width: 1.71;stroke: #7CAE00;stroke-linecap: butt;"/>
<circle cx="662.23" cy="285.82" r="2.06" style="stroke-width: 0.71;stroke: #00BFC4;stroke-opacity: 0.70;fill: #00BFC4;fill-opacity: 0.70;"/>
<line x1="655.32" y1="285.82" x2="669.14" y2="285.82" style="stroke-width: 1.71;stroke: #00BFC4;stroke-linecap: butt;"/>
<circle cx="662.23" cy="303.10" r="2.06" style="stroke-width: 0.71;stroke: #C77CFF;stroke-opacity: 0.70;fill: #C77CFF;fill-opacity: 0.70;"/>
<line x1="655.32" y1="303.10" x2="669.14" y2="303.10" style="stroke-width: 1.71;stroke: #C77CFF;stroke-linecap: butt;"/>
<g><text x="676.35" y="254.41" style="font-family: Arial;font-size: 8.80px;" textLength="68.00px" lengthAdjust="spacingAndGlyphs">ASC397.ASC397</text></g>
<g><text x="676.35" y="271.69" style="font-family: Arial;font-size: 8.80px;" textLength="81.69px" lengthAdjust="spacingAndGlyphs">ASC397.ASC397cse</text></g>
<g><text x="676.35" y="288.97" style="font-family: Arial;font-size: 8.80px;" textLength="68.00px" lengthAdjust="spacingAndGlyphs">ASC399.ASC399</text></g>
<g><text x="676.35" y="306.25" style="font-family: Arial;font-size: 8.80px;" textLength="81.69px" lengthAdjust="spacingAndGlyphs">ASC399.ASC399cse</text></g>
<g><text x="38.03" y="14.93" style="font-family: Arial;font-size: 13.20px;" textLength="228.75px" lengthAdjust="spacingAndGlyphs">CSE_SFN across patients &amp; conditions</text></g>
</g>
</svg>