<svg xmlns="http://www.w3.org/2000/svg" xmlns:xlink="http://www.w3.org/1999/xlink" class="httpgd" width="769.00" height="547.00" viewBox="0 0 769.00 547.00">
<defs>
  <style type='text/css'><![CDATA[
    .httpgd line, .httpgd polyline, .httpgd polygon, .httpgd path, .httpgd rect, .httpgd circle {
      fill: none;
      stroke: #000000;
      stroke-linecap: round;
      stroke-linejoin: round;
      stroke-miterlimit: 10.00;
    }
  ]]></style>
<clipPath id="c0"><rect x="0.00" y="0.00" width="769.00" height="547.00"/></clipPath>
<clipPath id="c1"><rect x="38.03" y="23.18" width="599.12" height="492.33"/></clipPath>
<clipPath id="c2"><rect x="0.00" y="0.00" width="769.00" height="547.00"/></clipPath>
</defs>
<rect width="100%" height="100%" style="stroke: none;fill: #FFFFFF;"/>
<g clip-path="url(#c0)">
</g><g clip-path="url(#c1)">
<polyline points="38.03,493.13 637.15,493.13" style="stroke-width: 1.07;stroke: #EBEBEB;stroke-linecap: butt;"/>
<polyline points="38.03,381.23 637.15,381.23" style="stroke-width: 1.07;stroke: #EBEBEB;stroke-linecap: butt;"/>
<polyline points="38.03,269.34 637.15,269.34" style="stroke-width: 1.07;stroke: #EBEBEB;stroke-linecap: butt;"/>
<polyline points="38.03,157.45 637.15,157.45" style="stroke-width: 1.07;stroke: #EBEBEB;stroke-linecap: butt;"/>
<polyline points="38.03,45.56 637.15,45.56" style="stroke-width: 1.07;stroke: #EBEBEB;stroke-linecap: butt;"/>
<polyline points="94.66,515.50 94.66,23.18" style="stroke-width: 1.07;stroke: #EBEBEB;stroke-linecap: butt;"/>
<polyline points="239.36,515.50 239.36,23.18" style="stroke-width: 1.07;stroke: #EBEBEB;stroke-linecap: butt;"/>
<polyline points="397.94,515.50 397.94,23.18" style="stroke-width: 1.07;stroke: #EBEBEB;stroke-linecap: butt;"/>
<polyline points="542.64,515.50 542.64,23.18" style="stroke-width: 1.07;stroke: #EBEBEB;stroke-linecap: butt;"/>
<polygon points="65.27,117.39 68.00,136.26 70.74,156.52 73.48,177.28 76.21,197.30 78.95,215.79 81.69,232.25 84.43,246.12 87.16,257.08 89.90,264.81 92.64,269.83 95.37,275.61 98.11,281.40 100.85,287.16 103.58,292.92 106.32,298.67 109.06,304.39 111.79,310.07 114.53,315.69 117.27,321.26 120.01,326.76 122.74,332.20 125.48,337.55 128.22,342.83 130.95,348.01 133.69,353.09 136.43,358.08 139.16,362.97 141.90,367.75 144.64,372.42 147.38,376.98 150.11,381.43 152.85,385.76 155.59,389.98 158.32,394.07 161.06,398.05 163.80,401.92 166.53,405.66 169.27,409.29 172.01,412.80 174.74,416.19 177.48,419.47 180.22,422.64 182.96,425.69 185.69,428.63 188.43,431.47 191.17,434.20 193.90,436.83 196.64,439.36 199.38,441.79 202.11,444.12 204.85,446.36 207.59,448.51 210.32,450.57 213.06,452.54 215.80,454.43 218.54,456.24 221.27,457.98 224.01,459.64 226.75,461.22 229.48,462.74 232.22,464.19 234.96,465.58 237.69,466.90 240.43,468.16 243.17,469.37 245.91,470.52 248.64,471.62 251.38,472.66 254.12,473.66 256.85,474.61 259.59,475.52 262.33,476.39 265.06,477.21 267.80,477.99 270.54,478.74 273.27,479.45 276.01,480.13 278.75,480.78 281.49,481.39 284.22,481.97 286.96,482.53 289.70,483.06 292.43,483.56 295.17,484.04 297.91,484.49 300.64,484.92 303.38,485.34 306.12,485.73 308.86,486.10 311.59,486.45 314.33,486.79 317.07,487.11 319.80,487.41 322.54,487.70 325.28,487.97 328.01,488.23 330.75,488.48 333.49,488.71 336.22,488.94 338.96,489.15 341.70,489.35 344.44,489.54 347.17,489.72 349.91,489.89 352.65,490.06 355.38,490.21 358.12,490.36 360.86,490.50 363.59,490.63 366.33,490.76 369.07,490.88 371.80,490.99 374.54,491.10 377.28,491.21 380.02,491.30 382.75,491.40 385.49,491.48 388.23,491.57 390.96,491.65 393.70,491.72 396.44,491.79 399.17,491.86 401.91,491.93 404.65,491.99 407.39,492.04 410.12,492.10 412.86,492.15 415.60,492.20 418.33,492.25 421.07,492.29 423.81,492.34 426.54,492.38 429.28,492.41 432.02,492.45 434.75,492.48 437.49,492.52 440.23,492.55 442.97,492.58 445.70,492.61 448.44,492.63 451.18,492.66 453.91,492.68 456.65,492.70 459.39,492.72 462.12,492.75 464.86,492.76 467.60,492.78 470.34,492.80 473.07,492.82 475.81,492.83 478.55,492.85 481.28,492.86 484.02,492.88 486.76,492.89 489.49,492.90 492.23,492.91 494.97,492.92 497.70,492.93 500.44,492.94 503.18,492.95 505.92,492.96 508.65,492.97 511.39,492.98 514.13,492.98 516.86,492.99 519.60,493.00 522.34,493.01 525.07,493.01 527.81,493.02 530.55,493.02 533.28,493.03 536.02,493.03 538.76,493.04 541.50,493.04 544.23,493.05 546.97,493.05 549.71,493.05 552.44,493.06 555.18,493.06 557.92,493.06 560.65,493.07 563.39,493.07 566.13,493.07 568.87,493.08 571.60,493.08 574.34,493.08 577.08,493.08 579.81,493.09 582.55,493.09 585.29,493.09 588.02,493.09 590.76,493.09 593.50,493.09 596.23,493.10 598.97,493.10 601.71,493.10 604.45,493.10 607.18,493.10 609.92,493.10 609.92,493.13 607.18,493.13 604.45,493.13 601.71,493.13 598.97,493.13 596.23,493.13 593.50,493.13 590.76,493.13 588.02,493.13 585.29,493.13 582.55,493.13 579.81,493.13 577.08,493.13 574.34,493.13 571.60,493.13 568.87,493.13 566.13,493.13 563.39,493.13 560.65,493.13 557.92,493.13 555.18,493.13 552.44,493.13 549.71,493.13 546.97,493.13 544.23,493.13 541.50,493.13 538.76,493.13 536.02,493.13 533.28,493.13 530.55,493.13 527.81,493.13 525.07,493.13 522.34,493.13 519.60,493.13 516.86,493.13 514.13,493.13 511.39,493.13 508.65,493.13 505.92,493.13 503.18,493.13 500.44,493.13 497.70,493.13 494.97,493.13 492.23,493.13 489.49,493.13 486.76,493.13 484.02,493.13 481.28,493.13 478.55,493.13 475.81,493.13 473.07,493.13 470.34,493.13 467.60,493.13 464.86,493.13 462.12,493.13 459.39,493.13 456.65,493.13 453.91,493.13 451.18,493.13 448.44,493.13 445.70,493.13 442.97,493.13 440.23,493.13 437.49,493.13 434.75,493.13 432.02,493.13 429.28,493.13 426.54,493.13 423.81,493.13 421.07,493.13 418.33,493.13 415.60,493.13 412.86,493.13 410.12,493.13 407.39,493.13 404.65,493.13 401.91,493.13 399.17,493.13 396.44,493.13 393.70,493.13 390.96,493.13 388.23,493.13 385.49,493.13 382.75,493.13 380.02,493.13 377.28,493.13 374.54,493.13 371.80,493.13 369.07,493.13 366.33,493.13 363.59,493.13 360.86,493.13 358.12,493.13 355.38,493.13 352.65,493.13 349.91,493.13 347.17,493.13 344.44,493.13 341.70,493.13 338.96,493.13 336.22,493.13 333.49,493.13 330.75,493.13 328.01,493.13 325.28,493.13 322.54,493.13 319.80,493.13 317.07,493.13 314.33,493.13 311.59,493.13 308.86,493.13 306.12,493.13 303.38,493.13 300.64,493.13 297.91,493.13 295.17,493.13 292.43,493.13 289.70,493.13 286.96,493.13 284.22,493.13 281.49,493.13 278.75,493.13 276.01,493.13 273.27,493.13 270.54,493.13 267.80,493.13 265.06,493.13 262.33,493.13 259.59,493.13 256.85,493.13 254.12,493.13 251.38,493.13 248.64,493.13 245.91,493.13 243.17,493.13 240.43,493.13 237.69,493.13 234.96,493.13 232.22,493.13 229.48,493.13 226.75,493.13 224.01,493.13 221.27,493.13 218.54,493.13 215.80,493.13 213.06,493.13 210.32,493.13 207.59,493.13 204.85,493.13 202.11,493.13 199.38,493.13 196.64,493.13 193.90,493.13 191.17,493.13 188.43,493.13 185.69,493.13 182.96,493.13 180.22,493.13 177.48,493.13 174.74,493.13 172.01,493.13 169.27,493.13 166.53,493.13 163.80,493.13 161.06,493.13 158.32,493.13 155.59,493.13 152.85,493.13 150.11,493.13 147.38,493.13 144.64,493.13 141.90,493.13 139.16,493.13 136.43,493.13 133.69,493.12 130.95,493.12 128.22,493.12 125.48,493.12 122.74,493.12 120.01,493.12 117.27,493.12 114.53,493.11 111.79,493.10 109.06,493.07 106.32,493.03 103.58,492.96 100.85,492.83 98.11,492.61 95.37,492.22 92.64,491.53 89.90,490.31 87.16,488.19 84.43,484.49 81.69,478.10 78.95,467.25 76.21,449.37 73.48,421.22 70.74,380.04 68.00,325.79 65.27,265.25" style="stroke-width: 0.00;stroke: none;stroke-linecap: butt;fill: #F8766D;fill-opacity: 0.20;" />
<polyline points="65.27,117.39 68.00,136.26 70.74,156.52 73.48,177.28 76.21,197.30 78.95,215.79 81.69,232.25 84.43,246.12 87.16,257.08 89.90,264.81 92.64,269.83 95.37,275.61 98.11,281.40 100.85,287.16 103.58,292.92 106.32,298.67 109.06,304.39 111.79,310.07 114.53,315.69 117.27,321.26 120.01,326.76 122.74,332.20 125.48,337.55 128.22,342.83 130.95,348.01 133.69,353.09 136.43,358.08 139.16,362.97 141.90,367.75 144.64,372.42 147.38,376.98 150.11,381.43 152.85,385.76 155.59,389.98 158.32,394.07 161.06,398.05 163.80,401.92 166.53,405.66 169.27,409.29 172.01,412.80 174.74,416.19 177.48,419.47 180.22,422.64 182.96,425.69 185.69,428.63 188.43,431.47 191.17,434.20 193.90,436.83 196.64,439.36 199.38,441.79 202.11,444.12 204.85,446.36 207.59,448.51 210.32,450.57 213.06,452.54 215.80,454.43 218.54,456.24 221.27,457.98 224.01,459.64 226.75,461.22 229.48,462.74 232.22,464.19 234.96,465.58 237.69,466.90 240.43,468.16 243.17,469.37 245.91,470.52 248.64,471.62 251.38,472.66 254.12,473.66 256.85,474.61 259.59,475.52 262.33,476.39 265.06,477.21 267.80,477.99 270.54,478.74 273.27,479.45 276.01,480.13 278.75,480.78 281.49,481.39 284.22,481.97 286.96,482.53 289.70,483.06 292.43,483.56 295.17,484.04 297.91,484.49 300.64,484.92 303.38,485.34 306.12,485.73 308.86,486.10 311.59,486.45 314.33,486.79 317.07,487.11 319.80,487.41 322.54,487.70 325.28,487.97 328.01,488.23 330.75,488.48 333.49,488.71 336.22,488.94 338.96,489.15 341.70,489.35 344.44,489.54 347.17,489.72 349.91,489.89 352.65,490.06 355.38,490.21 358.12,490.36 360.86,490.50 363.59,490.63 366.33,490.76 369.07,490.88 371.80,490.99 374.54,491.10 377.28,491.21 380.02,491.30 382.75,491.40 385.49,491.48 388.23,491.57 390.96,491.65 393.70,491.72 396.44,491.79 399.17,491.86 401.91,491.93 404.65,491.99 407.39,492.04 410.12,492.10 412.86,492.15 415.60,492.20 418.33,492.25 421.07,492.29 423.81,492.34 426.54,492.38 429.28,492.41 432.02,492.45 434.75,492.48 437.49,492.52 440.23,492.55 442.97,492.58 445.70,492.61 448.44,492.63 451.18,492.66 453.91,492.68 456.65,492.70 459.39,492.72 462.12,492.75 464.86,492.76 467.60,492.78 470.34,492.80 473.07,492.82 475.81,492.83 478.55,492.85 481.28,492.86 484.02,492.88 486.76,492.89 489.49,492.90 492.23,492.91 494.97,492.92 497.70,492.93 500.44,492.94 503.18,492.95 505.92,492.96 508.65,492.97 511.39,492.98 514.13,492.98 516.86,492.99 519.60,493.00 522.34,493.01 525.07,493.01 527.81,493.02 530.55,493.02 533.28,493.03 536.02,493.03 538.76,493.04 541.50,493.04 544.23,493.05 546.97,493.05 549.71,493.05 552.44,493.06 555.18,493.06 557.92,493.06 560.65,493.07 563.39,493.07 566.13,493.07 568.87,493.08 571.60,493.08 574.34,493.08 577.08,493.08 579.81,493.09 582.55,493.09 585.29,493.09 588.02,493.09 590.76,493.09 593.50,493.09 596.23,493.10 598.97,493.10 601.71,493.10 604.45,493.10 607.18,493.10 609.92,493.10" style="stroke-width: 1.07;stroke: none;stroke-linecap: butt;"/>
<polyline points="609.92,493.13 607.18,493.13 604.45,493.13 601.71,493.13 598.97,493.13 596.23,493.13 593.50,493.13 590.76,493.13 588.02,493.13 585.29,493.13 582.55,493.13 579.81,493.13 577.08,493.13 574.34,493.13 571.60,493.13 568.87,493.13 566.13,493.13 563.39,493.13 560.65,493.13 557.92,493.13 555.18,493.13 552.44,493.13 549.71,493.13 546.97,493.13 544.23,493.13 541.50,493.13 538.76,493.13 536.02,493.13 533.28,493.13 530.55,493.13 527.81,493.13 525.07,493.13 522.34,493.13 519.60,493.13 516.86,493.13 514.13,493.13 511.39,493.13 508.65,493.13 505.92,493.13 503.18,493.13 500.44,493.13 497.70,493.13 494.97,493.13 492.23,493.13 489.49,493.13 486.76,493.13 484.02,493.13 481.28,493.13 478.55,493.13 475.81,493.13 473.07,493.13 470.34,493.13 467.60,493.13 464.86,493.13 462.12,493.13 459.39,493.13 456.65,493.13 453.91,493.13 451.18,493.13 448.44,493.13 445.70,493.13 442.97,493.13 440.23,493.13 437.49,493.13 434.75,493.13 432.02,493.13 429.28,493.13 426.54,493.13 423.81,493.13 421.07,493.13 418.33,493.13 415.60,493.13 412.86,493.13 410.12,493.13 407.39,493.13 404.65,493.13 401.91,493.13 399.17,493.13 396.44,493.13 393.70,493.13 390.96,493.13 388.23,493.13 385.49,493.13 382.75,493.13 380.02,493.13 377.28,493.13 374.54,493.13 371.80,493.13 369.07,493.13 366.33,493.13 363.59,493.13 360.86,493.13 358.12,493.13 355.38,493.13 352.65,493.13 349.91,493.13 347.17,493.13 344.44,493.13 341.70,493.13 338.96,493.13 336.22,493.13 333.49,493.13 330.75,493.13 328.01,493.13 325.28,493.13 322.54,493.13 319.80,493.13 317.07,493.13 314.33,493.13 311.59,493.13 308.86,493.13 306.12,493.13 303.38,493.13 300.64,493.13 297.91,493.13 295.17,493.13 292.43,493.13 289.70,493.13 286.96,493.13 284.22,493.13 281.49,493.13 278.75,493.13 276.01,493.13 273.27,493.13 270.54,493.13 267.80,493.13 265.06,493.13 262.33,493.13 259.59,493.13 256.85,493.13 254.12,493.13 251.38,493.13 248.64,493.13 245.91,493.13 243.17,493.13 240.43,493.13 237.69,493.13 234.96,493.13 232.22,493.13 229.48,493.13 226.75,493.13 224.01,493.13 221.27,493.13 218.54,493.13 215.80,493.13 213.06,493.13 210.32,493.13 207.59,493.13 204.85,493.13 202.11,493.13 199.38,493.13 196.64,493.13 193.90,493.13 191.17,493.13 188.43,493.13 185.69,493.13 182.96,493.13 180.22,493.13 177.48,493.13 174.74,493.13 172.01,493.13 169.27,493.13 166.53,493.13 163.80,493.13 161.06,493.13 158.32,493.13 155.59,493.13 152.85,493.13 150.11,493.13 147.38,493.13 144.64,493.13 141.90,493.13 139.16,493.13 136.43,493.13 133.69,493.12 130.95,493.12 128.22,493.12 125.48,493.12 122.74,493.12 120.01,493.12 117.27,493.12 114.53,493.11 111.79,493.10 109.06,493.07 106.32,493.03 103.58,492.96 100.85,492.83 98.11,492.61 95.37,492.22 92.64,491.53 89.90,490.31 87.16,488.19 84.43,484.49 81.69,478.10 78.95,467.25 76.21,449.37 73.48,421.22 70.74,380.04 68.00,325.79 65.27,265.25" style="stroke-width: 1.07;stroke: none;stroke-linecap: butt;"/>
<polygon points="65.27,492.39 68.00,492.38 70.74,492.37 73.48,492.37 76.21,492.36 78.95,492.35 81.69,492.35 84.43,492.34 87.16,492.33 89.90,492.32 92.64,492.32 95.37,492.31 98.11,492.30 100.85,492.30 103.58,492.29 106.32,492.28 109.06,492.27 111.79,492.27 114.53,492.26 117.27,492.25 120.01,492.24 122.74,492.23 125.48,492.23 128.22,492.22 130.95,492.21 133.69,492.20 136.43,492.19 139.16,492.19 141.90,492.18 144.64,492.17 147.38,492.16 150.11,492.15 152.85,492.14 155.59,492.13 158.32,492.12 161.06,492.12 163.80,492.11 166.53,492.10 169.27,492.09 172.01,492.08 174.74,492.07 177.48,492.06 180.22,492.05 182.96,492.04 185.69,492.03 188.43,492.02 191.17,492.01 193.90,492.00 196.64,491.99 199.38,491.98 202.11,491.97 204.85,491.96 207.59,491.95 210.32,491.94 213.06,491.93 215.80,491.92 218.54,491.91 221.27,491.90 224.01,491.88 226.75,491.87 229.48,491.86 232.22,491.85 234.96,491.84 237.69,491.83 240.43,491.82 243.17,491.80 245.91,491.79 248.64,491.78 251.38,491.77 254.12,491.76 256.85,491.74 259.59,491.73 262.33,491.72 265.06,491.71 267.80,491.69 270.54,491.68 273.27,491.67 276.01,491.66 278.75,491.64 281.49,491.63 284.22,491.62 286.96,491.60 289.70,491.59 292.43,491.57 295.17,491.56 297.91,491.55 300.64,491.53 303.38,491.52 306.12,491.50 308.86,491.49 311.59,491.47 314.33,491.46 317.07,491.44 319.80,491.43 322.54,491.41 325.28,491.40 328.01,491.38 330.75,491.37 333.49,491.35 336.22,491.34 338.96,491.32 341.70,491.30 344.44,491.29 347.17,491.27 349.91,491.25 352.65,491.24 355.38,491.22 358.12,491.20 360.86,491.19 363.59,491.17 366.33,491.15 369.07,491.13 371.80,491.12 374.54,491.10 377.28,491.08 380.02,491.06 382.75,491.04 385.49,491.02 388.23,491.01 390.96,490.99 393.70,490.97 396.44,490.95 399.17,490.93 401.91,490.91 404.65,490.89 407.39,490.87 410.12,490.85 412.86,490.83 415.60,490.81 418.33,490.79 421.07,490.77 423.81,490.75 426.54,490.72 429.28,490.70 432.02,490.68 434.75,490.66 437.49,490.64 440.23,490.61 442.97,490.59 445.70,490.57 448.44,490.55 451.18,490.52 453.91,490.50 456.65,490.46 459.39,490.41 462.12,490.37 464.86,490.32 467.60,490.27 470.34,490.22 473.07,490.17 475.81,490.12 478.55,490.07 481.28,490.01 484.02,489.96 486.76,489.90 489.49,489.85 492.23,489.79 494.97,489.73 497.70,489.67 500.44,489.61 503.18,489.55 505.92,489.49 508.65,489.43 511.39,489.36 514.13,489.30 516.86,489.23 519.60,489.16 522.34,489.10 525.07,489.03 527.81,488.95 530.55,488.88 533.28,488.81 536.02,488.73 538.76,488.66 541.50,488.58 544.23,488.50 546.97,488.42 549.71,488.34 552.44,488.26 555.18,488.17 557.92,488.09 560.65,488.00 563.39,487.91 566.13,487.82 568.87,487.73 571.60,487.64 574.34,487.54 577.08,487.45 579.81,487.35 582.55,487.25 585.29,487.15 588.02,487.04 590.76,486.94 593.50,486.83 596.23,486.72 598.97,486.61 601.71,486.50 604.45,486.39 607.18,486.27 609.92,486.15 609.92,488.77 607.18,488.81 604.45,488.84 601.71,488.88 598.97,488.92 596.23,488.96 593.50,488.99 590.76,489.03 588.02,489.07 585.29,489.10 582.55,489.14 579.81,489.17 577.08,489.21 574.34,489.24 571.60,489.28 568.87,489.31 566.13,489.34 563.39,489.38 560.65,489.41 557.92,489.44 555.18,489.48 552.44,489.51 549.71,489.54 546.97,489.57 544.23,489.60 541.50,489.64 538.76,489.67 536.02,489.70 533.28,489.73 530.55,489.76 527.81,489.79 525.07,489.82 522.34,489.85 519.60,489.87 516.86,489.90 514.13,489.93 511.39,489.96 508.65,489.99 505.92,490.02 503.18,490.04 500.44,490.07 497.70,490.10 494.97,490.13 492.23,490.15 489.49,490.18 486.76,490.20 484.02,490.23 481.28,490.26 478.55,490.28 475.81,490.31 473.07,490.33 470.34,490.36 467.60,490.38 464.86,490.40 462.12,490.43 459.39,490.45 456.65,490.48 453.91,490.50 451.18,490.55 448.44,490.59 445.70,490.64 442.97,490.68 440.23,490.72 437.49,490.76 434.75,490.80 432.02,490.84 429.28,490.88 426.54,490.92 423.81,490.96 421.07,490.99 418.33,491.03 415.60,491.07 412.86,491.10 410.12,491.14 407.39,491.17 404.65,491.20 401.91,491.24 399.17,491.27 396.44,491.30 393.70,491.33 390.96,491.36 388.23,491.39 385.49,491.42 382.75,491.45 380.02,491.48 377.28,491.51 374.54,491.54 371.80,491.56 369.07,491.59 366.33,491.62 363.59,491.64 360.86,491.67 358.12,491.69 355.38,491.72 352.65,491.74 349.91,491.77 347.17,491.79 344.44,491.81 341.70,491.83 338.96,491.86 336.22,491.88 333.49,491.90 330.75,491.92 328.01,491.94 325.28,491.96 322.54,491.98 319.80,492.00 317.07,492.02 314.33,492.04 311.59,492.06 308.86,492.08 306.12,492.09 303.38,492.11 300.64,492.13 297.91,492.15 295.17,492.16 292.43,492.18 289.70,492.20 286.96,492.21 284.22,492.23 281.49,492.24 278.75,492.26 276.01,492.27 273.27,492.29 270.54,492.30 267.80,492.32 265.06,492.33 262.33,492.34 259.59,492.36 256.85,492.37 254.12,492.38 251.38,492.40 248.64,492.41 245.91,492.42 243.17,492.43 240.43,492.45 237.69,492.46 234.96,492.47 232.22,492.48 229.48,492.49 226.75,492.50 224.01,492.51 221.27,492.52 218.54,492.53 215.80,492.54 213.06,492.55 210.32,492.56 207.59,492.57 204.85,492.58 202.11,492.59 199.38,492.60 196.64,492.61 193.90,492.62 191.17,492.63 188.43,492.64 185.69,492.64 182.96,492.65 180.22,492.66 177.48,492.67 174.74,492.68 172.01,492.68 169.27,492.69 166.53,492.70 163.80,492.71 161.06,492.71 158.32,492.72 155.59,492.73 152.85,492.73 150.11,492.74 147.38,492.75 144.64,492.75 141.90,492.76 139.16,492.77 136.43,492.77 133.69,492.78 130.95,492.79 128.22,492.79 125.48,492.80 122.74,492.80 120.01,492.81 117.27,492.81 114.53,492.82 111.79,492.82 109.06,492.83 106.32,492.83 103.58,492.84 100.85,492.84 98.11,492.85 95.37,492.85 92.64,492.86 89.90,492.86 87.16,492.87 84.43,492.87 81.69,492.88 78.95,492.88 76.21,492.88 73.48,492.89 70.74,492.89 68.00,492.90 65.27,492.90" style="stroke-width: 0.00;stroke: none;stroke-linecap: butt;fill: #7CAE00;fill-opacity: 0.20;" />
<polyline points="65.27,492.39 68.00,492.38 70.74,492.37 73.48,492.37 76.21,492.36 78.95,492.35 81.69,492.35 84.43,492.34 87.16,492.33 89.90,492.32 92.64,492.32 95.37,492.31 98.11,492.30 100.85,492.30 103.58,492.29 106.32,492.28 109.06,492.27 111.79,492.27 114.53,492.26 117.27,492.25 120.01,492.24 122.74,492.23 125.48,492.23 128.22,492.22 130.95,492.21 133.69,492.20 136.43,492.19 139.16,492.19 141.90,492.18 144.64,492.17 147.38,492.16 150.11,492.15 152.85,492.14 155.59,492.13 158.32,492.12 161.06,492.12 163.80,492.11 166.53,492.10 169.27,492.09 172.01,492.08 174.74,492.07 177.48,492.06 180.22,492.05 182.96,492.04 185.69,492.03 188.43,492.02 191.17,492.01 193.90,492.00 196.64,491.99 199.38,491.98 202.11,491.97 204.85,491.96 207.59,491.95 210.32,491.94 213.06,491.93 215.80,491.92 218.54,491.91 221.27,491.90 224.01,491.88 226.75,491.87 229.48,491.86 232.22,491.85 234.96,491.84 237.69,491.83 240.43,491.82 243.17,491.80 245.91,491.79 248.64,491.78 251.38,491.77 254.12,491.76 256.85,491.74 259.59,491.73 262.33,491.72 265.06,491.71 267.80,491.69 270.54,491.68 273.27,491.67 276.01,491.66 278.75,491.64 281.49,491.63 284.22,491.62 286.96,491.60 289.70,491.59 292.43,491.57 295.17,491.56 297.91,491.55 300.64,491.53 303.38,491.52 306.12,491.50 308.86,491.49 311.59,491.47 314.33,491.46 317.07,491.44 319.80,491.43 322.54,491.41 325.28,491.40 328.01,491.38 330.75,491.37 333.49,491.35 336.22,491.34 338.96,491.32 341.70,491.30 344.44,491.29 347.17,491.27 349.91,491.25 352.65,491.24 355.38,491.22 358.12,491.20 360.86,491.19 363.59,491.17 366.33,491.15 369.07,491.13 371.80,491.12 374.54,491.10 377.28,491.08 380.02,491.06 382.75,491.04 385.49,491.02 388.23,491.01 390.96,490.99 393.70,490.97 396.44,490.95 399.17,490.93 401.91,490.91 404.65,490.89 407.39,490.87 410.12,490.85 412.86,490.83 415.60,490.81 418.33,490.79 421.07,490.77 423.81,490.75 426.54,490.72 429.28,490.70 432.02,490.68 434.75,490.66 437.49,490.64 440.23,490.61 442.97,490.59 445.70,490.57 448.44,490.55 451.18,490.52 453.91,490.50 456.65,490.46 459.39,490.41 462.12,490.37 464.86,490.32 467.60,490.27 470.34,490.22 473.07,490.17 475.81,490.12 478.55,490.07 481.28,490.01 484.02,489.96 486.76,489.90 489.49,489.85 492.23,489.79 494.97,489.73 497.70,489.67 500.44,489.61 503.18,489.55 505.92,489.49 508.65,489.43 511.39,489.36 514.13,489.30 516.86,489.23 519.60,489.16 522.34,489.10 525.07,489.03 527.81,488.95 530.55,488.88 533.28,488.81 536.02,488.73 538.76,488.66 541.50,488.58 544.23,488.50 546.97,488.42 549.71,488.34 552.44,488.26 555.18,488.17 557.92,488.09 560.65,488.00 563.39,487.91 566.13,487.82 568.87,487.73 571.60,487.64 574.34,487.54 577.08,487.45 579.81,487.35 582.55,487.25 585.29,487.15 588.02,487.04 590.76,486.94 593.50,486.83 596.23,486.72 598.97,486.61 601.71,486.50 604.45,486.39 607.18,486.27 609.92,486.15" style="stroke-width: 1.07;stroke: none;stroke-linecap: butt;"/>
<polyline points="609.92,488.77 607.18,488.81 604.45,488.84 601.71,488.88 598.97,488.92 596.23,488.96 593.50,488.99 590.76,489.03 588.02,489.07 585.29,489.10 582.55,489.14 579.81,489.17 577.08,489.21 574.34,489.24 571.60,489.28 568.87,489.31 566.13,489.34 563.39,489.38 560.65,489.41 557.92,489.44 555.18,489.48 552.44,489.51 549.71,489.54 546.97,489.57 544.23,489.60 541.50,489.64 538.76,489.67 536.02,489.70 533.28,489.73 530.55,489.76 527.81,489.79 525.07,489.82 522.34,489.85 519.60,489.87 516.86,489.90 514.13,489.93 511.39,489.96 508.65,489.99 505.92,490.02 503.18,490.04 500.44,490.07 497.70,490.10 494.97,490.13 492.23,490.15 489.49,490.18 486.76,490.20 484.02,490.23 481.28,490.26 478.55,490.28 475.81,490.31 473.07,490.33 470.34,490.36 467.60,490.38 464.86,490.40 462.12,490.43 459.39,490.45 456.65,490.48 453.91,490.50 451.18,490.55 448.44,490.59 445.70,490.64 442.97,490.68 440.23,490.72 437.49,490.76 434.75,490.80 432.02,490.84 429.28,490.88 426.54,490.92 423.81,490.96 421.07,490.99 418.33,491.03 415.60,491.07 412.86,491.10 410.12,491.14 407.39,491.17 404.65,491.20 401.91,491.24 399.17,491.27 396.44,491.30 393.70,491.33 390.96,491.36 388.23,491.39 385.49,491.42 382.75,491.45 380.02,491.48 377.28,491.51 374.54,491.54 371.80,491.56 369.07,491.59 366.33,491.62 363.59,491.64 360.86,491.67 358.12,491.69 355.38,491.72 352.65,491.74 349.91,491.77 347.17,491.79 344.44,491.81 341.70,491.83 338.96,491.86 336.22,491.88 333.49,491.90 330.75,491.92 328.01,491.94 325.28,491.96 322.54,491.98 319.80,492.00 317.07,492.02 314.33,492.04 311.59,492.06 308.86,492.08 306.12,492.09 303.38,492.11 300.64,492.13 297.91,492.15 295.17,492.16 292.43,492.18 289.70,492.20 286.96,492.21 284.22,492.23 281.49,492.24 278.75,492.26 276.01,492.27 273.27,492.29 270.54,492.30 267.80,492.32 265.06,492.33 262.33,492.34 259.59,492.36 256.85,492.37 254.12,492.38 251.38,492.40 248.64,492.41 245.91,492.42 243.17,492.43 240.43,492.45 237.69,492.46 234.96,492.47 232.22,492.48 229.48,492.49 226.75,492.50 224.01,492.51 221.27,492.52 218.54,492.53 215.80,492.54 213.06,492.55 210.32,492.56 207.59,492.57 204.85,492.58 202.11,492.59 199.38,492.60 196.64,492.61 193.90,492.62 191.17,492.63 188.43,492.64 185.69,492.64 182.96,492.65 180.22,492.66 177.48,492.67 174.74,492.68 172.01,492.68 169.27,492.69 166.53,492.70 163.80,492.71 161.06,492.71 158.32,492.72 155.59,492.73 152.85,492.73 150.11,492.74 147.38,492.75 144.64,492.75 141.90,492.76 139.16,492.77 136.43,492.77 133.69,492.78 130.95,492.79 128.22,492.79 125.48,492.80 122.74,492.80 120.01,492.81 117.27,492.81 114.53,492.82 111.79,492.82 109.06,492.83 106.32,492.83 103.58,492.84 100.85,492.84 98.11,492.85 95.37,492.85 92.64,492.86 89.90,492.86 87.16,492.87 84.43,492.87 81.69,492.88 78.95,492.88 76.21,492.88 73.48,492.89 70.74,492.89 68.00,492.90 65.27,492.90" style="stroke-width: 1.07;stroke: none;stroke-linecap: butt;"/>
<polygon points="65.27,492.45 68.00,492.45 70.74,492.44 73.48,492.43 76.21,492.43 78.95,492.42 81.69,492.41 84.43,492.41 87.16,492.40 89.90,492.39 92.64,492.39 95.37,492.38 98.11,492.37 100.85,492.37 103.58,492.36 106.32,492.35 109.06,492.34 111.79,492.34 114.53,492.33 117.27,492.32 120.01,492.32 122.74,492.31 125.48,492.30 128.22,492.29 130.95,492.28 133.69,492.28 136.43,492.27 139.16,492.26 141.90,492.25 144.64,492.25 147.38,492.24 150.11,492.23 152.85,492.22 155.59,492.21 158.32,492.20 161.06,492.19 163.80,492.19 166.53,492.18 169.27,492.17 172.01,492.16 174.74,492.15 177.48,492.14 180.22,492.13 182.96,492.12 185.69,492.11 188.43,492.10 191.17,492.10 193.90,492.09 196.64,492.08 199.38,492.07 202.11,492.06 204.85,492.05 207.59,492.04 210.32,492.03 213.06,492.02 215.80,492.01 218.54,492.00 221.27,491.99 224.01,491.97 226.75,491.96 229.48,491.95 232.22,491.94 234.96,491.93 237.69,491.92 240.43,491.91 243.17,491.90 245.91,491.89 248.64,491.87 251.38,491.86 254.12,491.85 256.85,491.84 259.59,491.83 262.33,491.82 265.06,491.80 267.80,491.79 270.54,491.78 273.27,491.77 276.01,491.75 278.75,491.74 281.49,491.73 284.22,491.72 286.96,491.70 289.70,491.69 292.43,491.68 295.17,491.66 297.91,491.65 300.64,491.63 303.38,491.62 306.12,491.61 308.86,491.59 311.59,491.58 314.33,491.56 317.07,491.55 319.80,491.54 322.54,491.52 325.28,491.51 328.01,491.49 330.75,491.48 333.49,491.46 336.22,491.44 338.96,491.43 341.70,491.41 344.44,491.40 347.17,491.38 349.91,491.37 352.65,491.35 355.38,491.33 358.12,491.32 360.86,491.30 363.59,491.28 366.33,491.27 369.07,491.25 371.80,491.23 374.54,491.21 377.28,491.20 380.02,491.18 382.75,491.16 385.49,491.14 388.23,491.12 390.96,491.10 393.70,491.09 396.44,491.07 399.17,491.05 401.91,491.03 404.65,491.01 407.39,490.99 410.12,490.97 412.86,490.95 415.60,490.93 418.33,490.91 421.07,490.89 423.81,490.87 426.54,490.85 429.28,490.83 432.02,490.80 434.75,490.78 437.49,490.76 440.23,490.74 442.97,490.72 445.70,490.70 448.44,490.67 451.18,490.65 453.91,490.63 456.65,490.60 459.39,490.58 462.12,490.56 464.86,490.53 467.60,490.51 470.34,490.48 473.07,490.46 475.81,490.44 478.55,490.41 481.28,490.39 484.02,490.36 486.76,490.33 489.49,490.31 492.23,490.28 494.97,490.26 497.70,490.23 500.44,490.20 503.18,490.18 505.92,490.15 508.65,490.12 511.39,490.09 514.13,490.07 516.86,490.04 519.60,490.01 522.34,489.98 525.07,489.95 527.81,489.92 530.55,489.89 533.28,489.86 536.02,489.83 538.76,489.80 541.50,489.77 544.23,489.74 546.97,489.71 549.71,489.68 552.44,489.64 555.18,489.61 557.92,489.58 560.65,489.55 563.39,489.51 566.13,489.48 568.87,489.45 571.60,489.41 574.34,489.38 577.08,489.34 579.81,489.31 582.55,489.27 585.29,489.24 588.02,489.20 590.76,489.17 593.50,489.13 596.23,489.09 598.97,489.06 601.71,489.02 604.45,488.98 607.18,488.94 609.92,488.90 609.92,488.91 607.18,488.94 604.45,488.98 601.71,489.02 598.97,489.06 596.23,489.09 593.50,489.13 590.76,489.17 588.02,489.20 585.29,489.24 582.55,489.28 579.81,489.31 577.08,489.35 574.34,489.38 571.60,489.41 568.87,489.45 566.13,489.48 563.39,489.52 560.65,489.55 557.92,489.58 555.18,489.61 552.44,489.65 549.71,489.68 546.97,489.71 544.23,489.74 541.50,489.77 538.76,489.80 536.02,489.83 533.28,489.86 530.55,489.89 527.81,489.92 525.07,489.95 522.34,489.98 519.60,490.01 516.86,490.04 514.13,490.07 511.39,490.09 508.65,490.12 505.92,490.15 503.18,490.18 500.44,490.20 497.70,490.23 494.97,490.26 492.23,490.28 489.49,490.31 486.76,490.34 484.02,490.36 481.28,490.39 478.55,490.41 475.81,490.44 473.07,490.46 470.34,490.49 467.60,490.51 464.86,490.53 462.12,490.56 459.39,490.58 456.65,490.60 453.91,490.63 451.18,490.65 448.44,490.67 445.70,490.70 442.97,490.72 440.23,490.74 437.49,490.76 434.75,490.78 432.02,490.80 429.28,490.83 426.54,490.85 423.81,490.87 421.07,490.89 418.33,490.91 415.60,490.93 412.86,490.95 410.12,490.97 407.39,490.99 404.65,491.01 401.91,491.03 399.17,491.05 396.44,491.07 393.70,491.09 390.96,491.10 388.23,491.12 385.49,491.14 382.75,491.16 380.02,491.18 377.28,491.20 374.54,491.21 371.80,491.23 369.07,491.25 366.33,491.27 363.59,491.28 360.86,491.30 358.12,491.32 355.38,491.33 352.65,491.35 349.91,491.37 347.17,491.38 344.44,491.40 341.70,491.41 338.96,491.43 336.22,491.45 333.49,491.46 330.75,491.48 328.01,491.49 325.28,491.51 322.54,491.52 319.80,491.54 317.07,491.55 314.33,491.56 311.59,491.58 308.86,491.59 306.12,491.61 303.38,491.62 300.64,491.64 297.91,491.65 295.17,491.66 292.43,491.68 289.70,491.69 286.96,491.70 284.22,491.72 281.49,491.73 278.75,491.74 276.01,491.75 273.27,491.77 270.54,491.78 267.80,491.79 265.06,491.80 262.33,491.82 259.59,491.83 256.85,491.84 254.12,491.85 251.38,491.86 248.64,491.88 245.91,491.89 243.17,491.90 240.43,491.91 237.69,491.92 234.96,491.93 232.22,491.94 229.48,491.95 226.75,491.96 224.01,491.98 221.27,491.99 218.54,492.00 215.80,492.01 213.06,492.02 210.32,492.03 207.59,492.04 204.85,492.05 202.11,492.06 199.38,492.07 196.64,492.08 193.90,492.09 191.17,492.10 188.43,492.11 185.69,492.11 182.96,492.12 180.22,492.13 177.48,492.14 174.74,492.15 172.01,492.16 169.27,492.17 166.53,492.18 163.80,492.19 161.06,492.20 158.32,492.20 155.59,492.21 152.85,492.22 150.11,492.23 147.38,492.24 144.64,492.25 141.90,492.25 139.16,492.26 136.43,492.27 133.69,492.28 130.95,492.29 128.22,492.29 125.48,492.30 122.74,492.31 120.01,492.32 117.27,492.32 114.53,492.33 111.79,492.34 109.06,492.35 106.32,492.35 103.58,492.36 100.85,492.37 98.11,492.37 95.37,492.38 92.64,492.39 89.90,492.39 87.16,492.40 84.43,492.41 81.69,492.41 78.95,492.42 76.21,492.43 73.48,492.43 70.74,492.44 68.00,492.45 65.27,492.45" style="stroke-width: 0.00;stroke: none;stroke-linecap: butt;fill: #00BFC4;fill-opacity: 0.20;" />
<polyline points="65.27,492.45 68.00,492.45 70.74,492.44 73.48,492.43 76.21,492.43 78.95,492.42 81.69,492.41 84.43,492.41 87.16,492.40 89.90,492.39 92.64,492.39 95.37,492.38 98.11,492.37 100.85,492.37 103.58,492.36 106.32,492.35 109.06,492.34 111.79,492.34 114.53,492.33 117.27,492.32 120.01,492.32 122.74,492.31 125.48,492.30 128.22,492.29 130.95,492.28 133.69,492.28 136.43,492.27 139.16,492.26 141.90,492.25 144.64,492.25 147.38,492.24 150.11,492.23 152.85,492.22 155.59,492.21 158.32,492.20 161.06,492.19 163.80,492.19 166.53,492.18 169.27,492.17 172.01,492.16 174.74,492.15 177.48,492.14 180.22,492.13 182.96,492.12 185.69,492.11 188.43,492.10 191.17,492.10 193.90,492.09 196.64,492.08 199.38,492.07 202.11,492.06 204.85,492.05 207.59,492.04 210.32,492.03 213.06,492.02 215.80,492.01 218.54,492.00 221.27,491.99 224.01,491.97 226.75,491.96 229.48,491.95 232.22,491.94 234.96,491.93 237.69,491.92 240.43,491.91 243.17,491.90 245.91,491.89 248.64,491.87 251.38,491.86 254.12,491.85 256.85,491.84 259.59,491.83 262.33,491.82 265.06,491.80 267.80,491.79 270.54,491.78 273.27,491.77 276.01,491.75 278.75,491.74 281.49,491.73 284.22,491.72 286.96,491.70 289.70,491.69 292.43,491.68 295.17,491.66 297.91,491.65 300.64,491.63 303.38,491.62 306.12,491.61 308.86,491.59 311.59,491.58 314.33,491.56 317.07,491.55 319.80,491.54 322.54,491.52 325.28,491.51 328.01,491.49 330.75,491.48 333.49,491.46 336.22,491.44 338.96,491.43 341.70,491.41 344.44,491.40 347.17,491.38 349.91,491.37 352.65,491.35 355.38,491.33 358.12,491.32 360.86,491.30 363.59,491.28 366.33,491.27 369.07,491.25 371.80,491.23 374.54,491.21 377.28,491.20 380.02,491.18 382.75,491.16 385.49,491.14 388.23,491.12 390.96,491.10 393.70,491.09 396.44,491.07 399.17,491.05 401.91,491.03 404.65,491.01 407.39,490.99 410.12,490.97 412.86,490.95 415.60,490.93 418.33,490.91 421.07,490.89 423.81,490.87 426.54,490.85 429.28,490.83 432.02,490.80 434.75,490.78 437.49,490.76 440.23,490.74 442.97,490.72 445.70,490.70 448.44,490.67 451.18,490.65 453.91,490.63 456.65,490.60 459.39,490.58 462.12,490.56 464.86,490.53 467.60,490.51 470.34,490.48 473.07,490.46 475.81,490.44 478.55,490.41 481.28,490.39 484.02,490.36 486.76,490.33 489.49,490.31 492.23,490.28 494.97,490.26 497.70,490.23 500.44,490.20 503.18,490.18 505.92,490.15 508.65,490.12 511.39,490.09 514.13,490.07 516.86,490.04 519.60,490.01 522.34,489.98 525.07,489.95 527.81,489.92 530.55,489.89 533.28,489.86 536.02,489.83 538.76,489.80 541.50,489.77 544.23,489.74 546.97,489.71 549.71,489.68 552.44,489.64 555.18,489.61 557.92,489.58 560.65,489.55 563.39,489.51 566.13,489.48 568.87,489.45 571.60,489.41 574.34,489.38 577.08,489.34 579.81,489.31 582.55,489.27 585.29,489.24 588.02,489.20 590.76,489.17 593.50,489.13 596.23,489.09 598.97,489.06 601.71,489.02 604.45,488.98 607.18,488.94 609.92,488.90" style="stroke-width: 1.07;stroke: none;stroke-linecap: butt;"/>
<polyline points="609.92,488.91 607.18,488.94 604.45,488.98 601.71,489.02 598.97,489.06 596.23,489.09 593.50,489.13 590.76,489.17 588.02,489.20 585.29,489.24 582.55,489.28 579.81,489.31 577.08,489.35 574.34,489.38 571.60,489.41 568.87,489.45 566.13,489.48 563.39,489.52 560.65,489.55 557.92,489.58 555.18,489.61 552.44,489.65 549.71,489.68 546.97,489.71 544.23,489.74 541.50,489.77 538.76,489.80 536.02,489.83 533.28,489.86 530.55,489.89 527.81,489.92 525.07,489.95 522.34,489.98 519.60,490.01 516.86,490.04 514.13,490.07 511.39,490.09 508.65,490.12 505.92,490.15 503.18,490.18 500.44,490.20 497.70,490.23 494.97,490.26 492.23,490.28 489.49,490.31 486.76,490.34 484.02,490.36 481.28,490.39 478.55,490.41 475.81,490.44 473.07,490.46 470.34,490.49 467.60,490.51 464.86,490.53 462.12,490.56 459.39,490.58 456.65,490.60 453.91,490.63 451.18,490.65 448.44,490.67 445.70,490.70 442.97,490.72 440.23,490.74 437.49,490.76 434.75,490.78 432.02,490.80 429.28,490.83 426.54,490.85 423.81,490.87 421.07,490.89 418.33,490.91 415.60,490.93 412.86,490.95 410.12,490.97 407.39,490.99 404.65,491.01 401.91,491.03 399.17,491.05 396.44,491.07 393.70,491.09 390.96,491.10 388.23,491.12 385.49,491.14 382.75,491.16 380.02,491.18 377.28,491.20 374.54,491.21 371.80,491.23 369.07,491.25 366.33,491.27 363.59,491.28 360.86,491.30 358.12,491.32 355.38,491.33 352.65,491.35 349.91,491.37 347.17,491.38 344.44,491.40 341.70,491.41 338.96,491.43 336.22,491.45 333.49,491.46 330.75,491.48 328.01,491.49 325.28,491.51 322.54,491.52 319.80,491.54 317.07,491.55 314.33,491.56 311.59,491.58 308.86,491.59 306.12,491.61 303.38,491.62 300.64,491.64 297.91,491.65 295.17,491.66 292.43,491.68 289.70,491.69 286.96,491.70 284.22,491.72 281.49,491.73 278.75,491.74 276.01,491.75 273.27,491.77 270.54,491.78 267.80,491.79 265.06,491.80 262.33,491.82 259.59,491.83 256.85,491.84 254.12,491.85 251.38,491.86 248.64,491.88 245.91,491.89 243.17,491.90 240.43,491.91 237.69,491.92 234.96,491.93 232.22,491.94 229.48,491.95 226.75,491.96 224.01,491.98 221.27,491.99 218.54,492.00 215.80,492.01 213.06,492.02 210.32,492.03 207.59,492.04 204.85,492.05 202.11,492.06 199.38,492.07 196.64,492.08 193.90,492.09 191.17,492.10 188.43,492.11 185.69,492.11 182.96,492.12 180.22,492.13 177.48,492.14 174.74,492.15 172.01,492.16 169.27,492.17 166.53,492.18 163.80,492.19 161.06,492.20 158.32,492.20 155.59,492.21 152.85,492.22 150.11,492.23 147.38,492.24 144.64,492.25 141.90,492.25 139.16,492.26 136.43,492.27 133.69,492.28 130.95,492.29 128.22,492.29 125.48,492.30 122.74,492.31 120.01,492.32 117.27,492.32 114.53,492.33 111.79,492.34 109.06,492.35 106.32,492.35 103.58,492.36 100.85,492.37 98.11,492.37 95.37,492.38 92.64,492.39 89.90,492.39 87.16,492.40 84.43,492.41 81.69,492.41 78.95,492.42 76.21,492.43 73.48,492.43 70.74,492.44 68.00,492.45 65.27,492.45" style="stroke-width: 1.07;stroke: none;stroke-linecap: butt;"/>
<polygon points="65.27,55.92 68.00,71.81 70.74,108.42 73.48,179.41 76.21,274.07 78.95,293.39 81.69,296.02 84.43,298.65 87.16,301.27 89.90,303.88 92.64,306.48 95.37,309.08 98.11,311.66 100.85,314.22 103.58,316.78 106.32,319.32 109.06,321.85 111.79,324.37 114.53,326.87 117.27,329.35 120.01,331.82 122.74,334.28 125.48,336.71 128.22,339.13 130.95,341.53 133.69,343.92 136.43,346.28 139.16,348.61 141.90,350.93 144.64,353.22 147.38,355.49 150.11,357.74 152.85,359.97 155.59,362.17 158.32,364.36 161.06,366.52 163.80,368.67 166.53,370.79 169.27,372.88 172.01,374.96 174.74,377.01 177.48,379.03 180.22,381.04 182.96,383.02 185.69,384.98 188.43,386.91 191.17,388.82 193.90,390.70 196.64,392.56 199.38,394.40 202.11,396.21 204.85,398.00 207.59,399.77 210.32,401.51 213.06,403.22 215.80,404.91 218.54,406.58 221.27,408.22 224.01,409.84 226.75,411.44 229.48,413.01 232.22,414.56 234.96,416.08 237.69,417.58 240.43,419.06 243.17,420.52 245.91,421.95 248.64,423.35 251.38,424.74 254.12,426.10 256.85,427.44 259.59,428.76 262.33,430.06 265.06,431.33 267.80,432.58 270.54,433.81 273.27,435.02 276.01,436.21 278.75,437.38 281.49,438.52 284.22,439.65 286.96,440.76 289.70,441.84 292.43,442.91 295.17,443.96 297.91,444.99 300.64,446.00 303.38,446.99 306.12,447.96 308.86,448.91 311.59,449.85 314.33,450.77 317.07,451.67 319.80,452.55 322.54,453.42 325.28,454.27 328.01,455.10 330.75,455.92 333.49,456.72 336.22,457.50 338.96,458.27 341.70,459.03 344.44,459.77 347.17,460.49 349.91,461.20 352.65,461.90 355.38,462.58 358.12,463.25 360.86,463.90 363.59,464.54 366.33,465.17 369.07,465.78 371.80,466.39 374.54,466.98 377.28,467.55 380.02,468.12 382.75,468.67 385.49,469.22 388.23,469.75 390.96,470.27 393.70,470.77 396.44,471.27 399.17,471.76 401.91,472.24 404.65,472.70 407.39,473.16 410.12,473.61 412.86,474.05 415.60,474.48 418.33,474.89 421.07,475.30 423.81,475.71 426.54,476.10 429.28,476.48 432.02,476.86 434.75,477.23 437.49,477.59 440.23,477.94 442.97,478.28 445.70,478.62 448.44,478.95 451.18,479.27 453.91,479.58 456.65,479.89 459.39,480.19 462.12,480.49 464.86,480.77 467.60,481.06 470.34,481.33 473.07,481.60 475.81,481.86 478.55,482.12 481.28,482.37 484.02,482.62 486.76,482.86 489.49,483.09 492.23,483.32 494.97,483.55 497.70,483.77 500.44,483.98 503.18,484.19 505.92,484.40 508.65,484.60 511.39,484.79 514.13,484.99 516.86,485.17 519.60,485.36 522.34,485.54 525.07,485.71 527.81,485.88 530.55,486.05 533.28,486.21 536.02,486.37 538.76,486.53 541.50,486.68 544.23,486.83 546.97,486.97 549.71,487.12 552.44,487.25 555.18,487.39 557.92,487.52 560.65,487.65 563.39,487.78 566.13,487.90 568.87,488.02 571.60,488.14 574.34,488.26 577.08,488.37 579.81,488.48 582.55,488.59 585.29,488.69 588.02,488.80 590.76,488.90 593.50,488.99 596.23,489.09 598.97,489.18 601.71,489.28 604.45,489.37 607.18,489.45 609.92,489.54 609.92,493.13 607.18,493.13 604.45,493.13 601.71,493.13 598.97,493.13 596.23,493.13 593.50,493.13 590.76,493.13 588.02,493.13 585.29,493.13 582.55,493.13 579.81,493.13 577.08,493.13 574.34,493.13 571.60,493.13 568.87,493.13 566.13,493.13 563.39,493.13 560.65,493.13 557.92,493.13 555.18,493.13 552.44,493.13 549.71,493.13 546.97,493.13 544.23,493.13 541.50,493.13 538.76,493.13 536.02,493.13 533.28,493.13 530.55,493.13 527.81,493.13 525.07,493.13 522.34,493.13 519.60,493.13 516.86,493.13 514.13,493.13 511.39,493.13 508.65,493.13 505.92,493.13 503.18,493.13 500.44,493.13 497.70,493.13 494.97,493.13 492.23,493.13 489.49,493.13 486.76,493.13 484.02,493.13 481.28,493.13 478.55,493.13 475.81,493.13 473.07,493.13 470.34,493.13 467.60,493.13 464.86,493.13 462.12,493.13 459.39,493.13 456.65,493.13 453.91,493.13 451.18,493.13 448.44,493.13 445.70,493.13 442.97,493.13 440.23,493.13 437.49,493.13 434.75,493.13 432.02,493.13 429.28,493.13 426.54,493.13 423.81,493.13 421.07,493.13 418.33,493.13 415.60,493.13 412.86,493.13 410.12,493.13 407.39,493.13 404.65,493.13 401.91,493.13 399.17,493.13 396.44,493.13 393.70,493.13 390.96,493.13 388.23,493.13 385.49,493.13 382.75,493.13 380.02,493.13 377.28,493.13 374.54,493.13 371.80,493.13 369.07,493.13 366.33,493.13 363.59,493.13 360.86,493.13 358.12,493.13 355.38,493.13 352.65,493.13 349.91,493.13 347.17,493.13 344.44,493.13 341.70,493.13 338.96,493.13 336.22,493.13 333.49,493.13 330.75,493.13 328.01,493.13 325.28,493.13 322.54,493.13 319.80,493.13 317.07,493.13 314.33,493.13 311.59,493.13 308.86,493.13 306.12,493.13 303.38,493.13 300.64,493.13 297.91,493.13 295.17,493.13 292.43,493.13 289.70,493.13 286.96,493.13 284.22,493.13 281.49,493.13 278.75,493.13 276.01,493.13 273.27,493.13 270.54,493.13 267.80,493.13 265.06,493.13 262.33,493.13 259.59,493.13 256.85,493.13 254.12,493.13 251.38,493.13 248.64,493.13 245.91,493.13 243.17,493.13 240.43,493.13 237.69,493.13 234.96,493.13 232.22,493.13 229.48,493.13 226.75,493.13 224.01,493.13 221.27,493.13 218.54,493.13 215.80,493.13 213.06,493.13 210.32,493.13 207.59,493.13 204.85,493.13 202.11,493.13 199.38,493.13 196.64,493.13 193.90,493.13 191.17,493.13 188.43,493.13 185.69,493.13 182.96,493.13 180.22,493.13 177.48,493.13 174.74,493.13 172.01,493.13 169.27,493.13 166.53,493.13 163.80,493.13 161.06,493.13 158.32,493.13 155.59,493.13 152.85,493.13 150.11,493.13 147.38,493.13 144.64,493.13 141.90,493.13 139.16,493.13 136.43,493.13 133.69,493.13 130.95,493.13 128.22,493.13 125.48,493.13 122.74,493.13 120.01,493.13 117.27,493.13 114.53,493.12 111.79,493.12 109.06,493.12 106.32,493.12 103.58,493.10 100.85,493.06 98.11,492.95 95.37,492.68 92.64,492.03 89.90,490.63 87.16,487.83 84.43,482.46 81.69,473.59 78.95,459.43 76.21,439.06 73.48,413.54 70.74,384.13 68.00,354.40 65.27,326.99" style="stroke-width: 0.00;stroke: none;stroke-linecap: butt;fill: #C77CFF;fill-opacity: 0.20;" />
<polyline points="65.27,55.92 68.00,71.81 70.74,108.42 73.48,179.41 76.21,274.07 78.95,293.39 81.69,296.02 84.43,298.65 87.16,301.27 89.90,303.88 92.64,306.48 95.37,309.08 98.11,311.66 100.85,314.22 103.58,316.78 106.32,319.32 109.06,321.85 111.79,324.37 114.53,326.87 117.27,329.35 120.01,331.82 122.74,334.28 125.48,336.71 128.22,339.13 130.95,341.53 133.69,343.92 136.43,346.28 139.16,348.61 141.90,350.93 144.64,353.22 147.38,355.49 150.11,357.74 152.85,359.97 155.59,362.17 158.32,364.36 161.06,366.52 163.80,368.67 166.53,370.79 169.27,372.88 172.01,374.96 174.74,377.01 177.48,379.03 180.22,381.04 182.96,383.02 185.69,384.98 188.43,386.91 191.17,388.82 193.90,390.70 196.64,392.56 199.38,394.40 202.11,396.21 204.85,398.00 207.59,399.77 210.32,401.51 213.06,403.22 215.80,404.91 218.54,406.58 221.27,408.22 224.01,409.84 226.75,411.44 229.48,413.01 232.22,414.56 234.96,416.08 237.69,417.58 240.43,419.06 243.17,420.52 245.91,421.95 248.64,423.35 251.38,424.74 254.12,426.10 256.85,427.44 259.59,428.76 262.33,430.06 265.06,431.33 267.80,432.58 270.54,433.81 273.27,435.02 276.01,436.21 278.75,437.38 281.49,438.52 284.22,439.65 286.96,440.76 289.70,441.84 292.43,442.91 295.17,443.96 297.91,444.99 300.64,446.00 303.38,446.99 306.12,447.96 308.86,448.91 311.59,449.85 314.33,450.77 317.07,451.67 319.80,452.55 322.54,453.42 325.28,454.27 328.01,455.10 330.75,455.92 333.49,456.72 336.22,457.50 338.96,458.27 341.70,459.03 344.44,459.77 347.17,460.49 349.91,461.20 352.65,461.90 355.38,462.58 358.12,463.25 360.86,463.90 363.59,464.54 366.33,465.17 369.07,465.78 371.80,466.39 374.54,466.98 377.28,467.55 380.02,468.12 382.75,468.67 385.49,469.22 388.23,469.75 390.96,470.27 393.70,470.77 396.44,471.27 399.17,471.76 401.91,472.24 404.65,472.70 407.39,473.16 410.12,473.61 412.86,474.05 415.60,474.48 418.33,474.89 421.07,475.30 423.81,475.71 426.54,476.10 429.28,476.48 432.02,476.86 434.75,477.23 437.49,477.59 440.23,477.94 442.97,478.28 445.70,478.62 448.44,478.95 451.18,479.27 453.91,479.58 456.65,479.89 459.39,480.19 462.12,480.49 464.86,480.77 467.60,481.06 470.34,481.33 473.07,481.60 475.81,481.86 478.55,482.12 481.28,482.37 484.02,482.62 486.76,482.86 489.49,483.09 492.23,483.32 494.97,483.55 497.70,483.77 500.44,483.98 503.18,484.19 505.92,484.40 508.65,484.60 511.39,484.79 514.13,484.99 516.86,485.17 519.60,485.36 522.34,485.54 525.07,485.71 527.81,485.88 530.55,486.05 533.28,486.21 536.02,486.37 538.76,486.53 541.50,486.68 544.23,486.83 546.97,486.97 549.71,487.12 552.44,487.25 555.18,487.39 557.92,487.52 560.65,487.65 563.39,487.78 566.13,487.90 568.87,488.02 571.60,488.14 574.34,488.26 577.08,488.37 579.81,488.48 582.55,488.59 585.29,488.69 588.02,488.80 590.76,488.90 593.50,488.99 596.23,489.09 598.97,489.18 601.71,489.28 604.45,489.37 607.18,489.45 609.92,489.54" style="stroke-width: 1.07;stroke: none;stroke-linecap: butt;"/>
<polyline points="609.92,493.13 607.18,493.13 604.45,493.13 601.71,493.13 598.97,493.13 596.23,493.13 593.50,493.13 590.76,493.13 588.02,493.13 585.29,493.13 582.55,493.13 579.81,493.13 577.08,493.13 574.34,493.13 571.60,493.13 568.87,493.13 566.13,493.13 563.39,493.13 560.65,493.13 557.92,493.13 555.18,493.13 552.44,493.13 549.71,493.13 546.97,493.13 544.23,493.13 541.50,493.13 538.76,493.13 536.02,493.13 533.28,493.13 530.55,493.13 527.81,493.13 525.07,493.13 522.34,493.13 519.60,493.13 516.86,493.13 514.13,493.13 511.39,493.13 508.65,493.13 505.92,493.13 503.18,493.13 500.44,493.13 497.70,493.13 494.97,493.13 492.23,493.13 489.49,493.13 486.76,493.13 484.02,493.13 481.28,493.13 478.55,493.13 475.81,493.13 473.07,493.13 470.34,493.13 467.60,493.13 464.86,493.13 462.12,493.13 459.39,493.13 456.65,493.13 453.91,493.13 451.18,493.13 448.44,493.13 445.70,493.13 442.97,493.13 440.23,493.13 437.49,493.13 434.75,493.13 432.02,493.13 429.28,493.13 426.54,493.13 423.81,493.13 421.07,493.13 418.33,493.13 415.60,493.13 412.86,493.13 410.12,493.13 407.39,493.13 404.65,493.13 401.91,493.13 399.17,493.13 396.44,493.13 393.70,493.13 390.96,493.13 388.23,493.13 385.49,493.13 382.75,493.13 380.02,493.13 377.28,493.13 374.54,493.13 371.80,493.13 369.07,493.13 366.33,493.13 363.59,493.13 360.86,493.13 358.12,493.13 355.38,493.13 352.65,493.13 349.91,493.13 347.17,493.13 344.44,493.13 341.70,493.13 338.96,493.13 336.22,493.13 333.49,493.13 330.75,493.13 328.01,493.13 325.28,493.13 322.54,493.13 319.80,493.13 317.07,493.13 314.33,493.13 311.59,493.13 308.86,493.13 306.12,493.13 303.38,493.13 300.64,493.13 297.91,493.13 295.17,493.13 292.43,493.13 289.70,493.13 286.96,493.13 284.22,493.13 281.49,493.13 278.75,493.13 276.01,493.13 273.27,493.13 270.54,493.13 267.80,493.13 265.06,493.13 262.33,493.13 259.59,493.13 256.85,493.13 254.12,493.13 251.38,493.13 248.64,493.13 245.91,493.13 243.17,493.13 240.43,493.13 237.69,493.13 234.96,493.13 232.22,493.13 229.48,493.13 226.75,493.13 224.01,493.13 221.27,493.13 218.54,493.13 215.80,493.13 213.06,493.13 210.32,493.13 207.59,493.13 204.85,493.13 202.11,493.13 199.38,493.13 196.64,493.13 193.90,493.13 191.17,493.13 188.43,493.13 185.69,493.13 182.96,493.13 180.22,493.13 177.48,493.13 174.74,493.13 172.01,493.13 169.27,493.13 166.53,493.13 163.80,493.13 161.06,493.13 158.32,493.13 155.59,493.13 152.85,493.13 150.11,493.13 147.38,493.13 144.64,493.13 141.90,493.13 139.16,493.13 136.43,493.13 133.69,493.13 130.95,493.13 128.22,493.13 125.48,493.13 122.74,493.13 120.01,493.13 117.27,493.13 114.53,493.12 111.79,493.12 109.06,493.12 106.32,493.12 103.58,493.10 100.85,493.06 98.11,492.95 95.37,492.68 92.64,492.03 89.90,490.63 87.16,487.83 84.43,482.46 81.69,473.59 78.95,459.43 76.21,439.06 73.48,413.54 70.74,384.13 68.00,354.40 65.27,326.99" style="stroke-width: 1.07;stroke: none;stroke-linecap: butt;"/>
<circle cx="65.27" cy="49.80" r="2.06" style="stroke-width: 0.71;stroke: #F8766D;stroke-opacity: 0.70;fill: #F8766D;fill-opacity: 0.70;"/>
<circle cx="65.27" cy="109.63" r="2.06" style="stroke-width: 0.71;stroke: #F8766D;stroke-opacity: 0.70;fill: #F8766D;fill-opacity: 0.70;"/>
<circle cx="65.27" cy="195.18" r="2.06" style="stroke-width: 0.71;stroke: #F8766D;stroke-opacity: 0.70;fill: #F8766D;fill-opacity: 0.70;"/>
<circle cx="65.27" cy="493.13" r="2.06" style="stroke-width: 0.71;stroke: #7CAE00;stroke-opacity: 0.70;fill: #7CAE00;fill-opacity: 0.70;"/>
<circle cx="65.27" cy="493.13" r="2.06" style="stroke-width: 0.71;stroke: #7CAE00;stroke-opacity: 0.70;fill: #7CAE00;fill-opacity: 0.70;"/>
<circle cx="65.27" cy="493.13" r="2.06" style="stroke-width: 0.71;stroke: #7CAE00;stroke-opacity: 0.70;fill: #7CAE00;fill-opacity: 0.70;"/>
<circle cx="65.27" cy="493.13" r="2.06" style="stroke-width: 0.71;stroke: #00BFC4;stroke-opacity: 0.70;fill: #00BFC4;fill-opacity: 0.70;"/>
<circle cx="65.27" cy="493.13" r="2.06" style="stroke-width: 0.71;stroke: #00BFC4;stroke-opacity: 0.70;fill: #00BFC4;fill-opacity: 0.70;"/>
<circle cx="65.27" cy="493.13" r="2.06" style="stroke-width: 0.71;stroke: #00BFC4;stroke-opacity: 0.70;fill: #00BFC4;fill-opacity: 0.70;"/>
<circle cx="65.27" cy="447.92" r="2.06" style="stroke-width: 0.71;stroke: #C77CFF;stroke-opacity: 0.70;fill: #C77CFF;fill-opacity: 0.70;"/>
<circle cx="65.27" cy="349.70" r="2.06" style="stroke-width: 0.71;stroke: #C77CFF;stroke-opacity: 0.70;fill: #C77CFF;fill-opacity: 0.70;"/>
<circle cx="65.27" cy="179.11" r="2.06" style="stroke-width: 0.71;stroke: #C77CFF;stroke-opacity: 0.70;fill: #C77CFF;fill-opacity: 0.70;"/>
<circle cx="156.56" cy="493.13" r="2.06" style="stroke-width: 0.71;stroke: #F8766D;stroke-opacity: 0.70;fill: #F8766D;fill-opacity: 0.70;"/>
<circle cx="156.56" cy="493.13" r="2.06" style="stroke-width: 0.71;stroke: #F8766D;stroke-opacity: 0.70;fill: #F8766D;fill-opacity: 0.70;"/>
<circle cx="156.56" cy="493.13" r="2.06" style="stroke-width: 0.71;stroke: #F8766D;stroke-opacity: 0.70;fill: #F8766D;fill-opacity: 0.70;"/>
<circle cx="156.56" cy="493.13" r="2.06" style="stroke-width: 0.71;stroke: #7CAE00;stroke-opacity: 0.70;fill: #7CAE00;fill-opacity: 0.70;"/>
<circle cx="156.56" cy="493.13" r="2.06" style="stroke-width: 0.71;stroke: #7CAE00;stroke-opacity: 0.70;fill: #7CAE00;fill-opacity: 0.70;"/>
<circle cx="156.56" cy="493.13" r="2.06" style="stroke-width: 0.71;stroke: #7CAE00;stroke-opacity: 0.70;fill: #7CAE00;fill-opacity: 0.70;"/>
<circle cx="156.56" cy="493.13" r="2.06" style="stroke-width: 0.71;stroke: #00BFC4;stroke-opacity: 0.70;fill: #00BFC4;fill-opacity: 0.70;"/>
<circle cx="156.56" cy="493.13" r="2.06" style="stroke-width: 0.71;stroke: #00BFC4;stroke-opacity: 0.70;fill: #00BFC4;fill-opacity: 0.70;"/>
<circle cx="156.56" cy="493.13" r="2.06" style="stroke-width: 0.71;stroke: #00BFC4;stroke-opacity: 0.70;fill: #00BFC4;fill-opacity: 0.70;"/>
<circle cx="156.56" cy="493.13" r="2.06" style="stroke-width: 0.71;stroke: #C77CFF;stroke-opacity: 0.70;fill: #C77CFF;fill-opacity: 0.70;"/>
<circle cx="156.56" cy="493.13" r="2.06" style="stroke-width: 0.71;stroke: #C77CFF;stroke-opacity: 0.70;fill: #C77CFF;fill-opacity: 0.70;"/>
<circle cx="156.56" cy="493.13" r="2.06" style="stroke-width: 0.71;stroke: #C77CFF;stroke-opacity: 0.70;fill: #C77CFF;fill-opacity: 0.70;"/>
<circle cx="243.68" cy="493.13" r="2.06" style="stroke-width: 0.71;stroke: #F8766D;stroke-opacity: 0.70;fill: #F8766D;fill-opacity: 0.70;"/>
<circle cx="243.68" cy="493.13" r="2.06" style="stroke-width: 0.71;stroke: #F8766D;stroke-opacity: 0.70;fill: #F8766D;fill-opacity: 0.70;"/>
<circle cx="243.68" cy="493.13" r="2.06" style="stroke-width: 0.71;stroke: #F8766D;stroke-opacity: 0.70;fill: #F8766D;fill-opacity: 0.70;"/>
<circle cx="243.68" cy="493.13" r="2.06" style="stroke-width: 0.71;stroke: #7CAE00;stroke-opacity: 0.70;fill: #7CAE00;fill-opacity: 0.70;"/>
<circle cx="243.68" cy="493.13" r="2.06" style="stroke-width: 0.71;stroke: #7CAE00;stroke-opacity: 0.70;fill: #7CAE00;fill-opacity: 0.70;"/>
<circle cx="243.68" cy="493.13" r="2.06" style="stroke-width: 0.71;stroke: #7CAE00;stroke-opacity: 0.70;fill: #7CAE00;fill-opacity: 0.70;"/>
<circle cx="243.68" cy="493.13" r="2.06" style="stroke-width: 0.71;stroke: #00BFC4;stroke-opacity: 0.70;fill: #00BFC4;fill-opacity: 0.70;"/>
<circle cx="243.68" cy="493.13" r="2.06" style="stroke-width: 0.71;stroke: #00BFC4;stroke-opacity: 0.70;fill: #00BFC4;fill-opacity: 0.70;"/>
<circle cx="243.68" cy="493.13" r="2.06" style="stroke-width: 0.71;stroke: #00BFC4;stroke-opacity: 0.70;fill: #00BFC4;fill-opacity: 0.70;"/>
<circle cx="243.68" cy="493.13" r="2.06" style="stroke-width: 0.71;stroke: #C77CFF;stroke-opacity: 0.70;fill: #C77CFF;fill-opacity: 0.70;"/>
<circle cx="243.68" cy="493.13" r="2.06" style="stroke-width: 0.71;stroke: #C77CFF;stroke-opacity: 0.70;fill: #C77CFF;fill-opacity: 0.70;"/>
<circle cx="243.68" cy="493.13" r="2.06" style="stroke-width: 0.71;stroke: #C77CFF;stroke-opacity: 0.70;fill: #C77CFF;fill-opacity: 0.70;"/>
<circle cx="336.03" cy="493.13" r="2.06" style="stroke-width: 0.71;stroke: #F8766D;stroke-opacity: 0.70;fill: #F8766D;fill-opacity: 0.70;"/>
<circle cx="336.03" cy="493.13" r="2.06" style="stroke-width: 0.71;stroke: #F8766D;stroke-opacity: 0.70;fill: #F8766D;fill-opacity: 0.70;"/>
<circle cx="336.03" cy="493.13" r="2.06" style="stroke-width: 0.71;stroke: #F8766D;stroke-opacity: 0.70;fill: #F8766D;fill-opacity: 0.70;"/>
<circle cx="336.03" cy="493.13" r="2.06" style="stroke-width: 0.71;stroke: #7CAE00;stroke-opacity: 0.70;fill: #7CAE00;fill-opacity: 0.70;"/>
<circle cx="336.03" cy="493.13" r="2.06" style="stroke-width: 0.71;stroke: #7CAE00;stroke-opacity: 0.70;fill: #7CAE00;fill-opacity: 0.70;"/>
<circle cx="336.03" cy="493.13" r="2.06" style="stroke-width: 0.71;stroke: #7CAE00;stroke-opacity: 0.70;fill: #7CAE00;fill-opacity: 0.70;"/>
<circle cx="336.03" cy="493.13" r="2.06" style="stroke-width: 0.71;stroke: #00BFC4;stroke-opacity: 0.70;fill: #00BFC4;fill-opacity: 0.70;"/>
<circle cx="336.03" cy="493.13" r="2.06" style="stroke-width: 0.71;stroke: #00BFC4;stroke-opacity: 0.70;fill: #00BFC4;fill-opacity: 0.70;"/>
<circle cx="336.03" cy="493.13" r="2.06" style="stroke-width: 0.71;stroke: #00BFC4;stroke-opacity: 0.70;fill: #00BFC4;fill-opacity: 0.70;"/>
<circle cx="336.03" cy="493.13" r="2.06" style="stroke-width: 0.71;stroke: #C77CFF;stroke-opacity: 0.70;fill: #C77CFF;fill-opacity: 0.70;"/>
<circle cx="336.03" cy="493.13" r="2.06" style="stroke-width: 0.71;stroke: #C77CFF;stroke-opacity: 0.70;fill: #C77CFF;fill-opacity: 0.70;"/>
<circle cx="336.03" cy="493.13" r="2.06" style="stroke-width: 0.71;stroke: #C77CFF;stroke-opacity: 0.70;fill: #C77CFF;fill-opacity: 0.70;"/>
<circle cx="427.33" cy="493.13" r="2.06" style="stroke-width: 0.71;stroke: #F8766D;stroke-opacity: 0.70;fill: #F8766D;fill-opacity: 0.70;"/>
<circle cx="427.33" cy="493.13" r="2.06" style="stroke-width: 0.71;stroke: #F8766D;stroke-opacity: 0.70;fill: #F8766D;fill-opacity: 0.70;"/>
<circle cx="427.33" cy="493.13" r="2.06" style="stroke-width: 0.71;stroke: #F8766D;stroke-opacity: 0.70;fill: #F8766D;fill-opacity: 0.70;"/>
<circle cx="427.33" cy="493.13" r="2.06" style="stroke-width: 0.71;stroke: #7CAE00;stroke-opacity: 0.70;fill: #7CAE00;fill-opacity: 0.70;"/>
<circle cx="427.33" cy="493.13" r="2.06" style="stroke-width: 0.71;stroke: #7CAE00;stroke-opacity: 0.70;fill: #7CAE00;fill-opacity: 0.70;"/>
<circle cx="427.33" cy="493.13" r="2.06" style="stroke-width: 0.71;stroke: #7CAE00;stroke-opacity: 0.70;fill: #7CAE00;fill-opacity: 0.70;"/>
<circle cx="427.33" cy="493.13" r="2.06" style="stroke-width: 0.71;stroke: #00BFC4;stroke-opacity: 0.70;fill: #00BFC4;fill-opacity: 0.70;"/>
<circle cx="427.33" cy="493.13" r="2.06" style="stroke-width: 0.71;stroke: #00BFC4;stroke-opacity: 0.70;fill: #00BFC4;fill-opacity: 0.70;"/>
<circle cx="427.33" cy="493.13" r="2.06" style="stroke-width: 0.71;stroke: #00BFC4;stroke-opacity: 0.70;fill: #00BFC4;fill-opacity: 0.70;"/>
<circle cx="427.33" cy="493.13" r="2.06" style="stroke-width: 0.71;stroke: #C77CFF;stroke-opacity: 0.70;fill: #C77CFF;fill-opacity: 0.70;"/>
<circle cx="427.33" cy="493.13" r="2.06" style="stroke-width: 0.71;stroke: #C77CFF;stroke-opacity: 0.70;fill: #C77CFF;fill-opacity: 0.70;"/>
<circle cx="427.33" cy="493.13" r="2.06" style="stroke-width: 0.71;stroke: #C77CFF;stroke-opacity: 0.70;fill: #C77CFF;fill-opacity: 0.70;"/>
<circle cx="518.62" cy="493.13" r="2.06" style="stroke-width: 0.71;stroke: #F8766D;stroke-opacity: 0.70;fill: #F8766D;fill-opacity: 0.70;"/>
<circle cx="518.62" cy="493.13" r="2.06" style="stroke-width: 0.71;stroke: #F8766D;stroke-opacity: 0.70;fill: #F8766D;fill-opacity: 0.70;"/>
<circle cx="518.62" cy="493.13" r="2.06" style="stroke-width: 0.71;stroke: #F8766D;stroke-opacity: 0.70;fill: #F8766D;fill-opacity: 0.70;"/>
<circle cx="518.62" cy="493.13" r="2.06" style="stroke-width: 0.71;stroke: #7CAE00;stroke-opacity: 0.70;fill: #7CAE00;fill-opacity: 0.70;"/>
<circle cx="518.62" cy="493.13" r="2.06" style="stroke-width: 0.71;stroke: #7CAE00;stroke-opacity: 0.70;fill: #7CAE00;fill-opacity: 0.70;"/>
<circle cx="518.62" cy="493.13" r="2.06" style="stroke-width: 0.71;stroke: #7CAE00;stroke-opacity: 0.70;fill: #7CAE00;fill-opacity: 0.70;"/>
<circle cx="518.62" cy="493.13" r="2.06" style="stroke-width: 0.71;stroke: #00BFC4;stroke-opacity: 0.70;fill: #00BFC4;fill-opacity: 0.70;"/>
<circle cx="518.62" cy="493.13" r="2.06" style="stroke-width: 0.71;stroke: #00BFC4;stroke-opacity: 0.70;fill: #00BFC4;fill-opacity: 0.70;"/>
<circle cx="518.62" cy="493.13" r="2.06" style="stroke-width: 0.71;stroke: #00BFC4;stroke-opacity: 0.70;fill: #00BFC4;fill-opacity: 0.70;"/>
<circle cx="518.62" cy="493.13" r="2.06" style="stroke-width: 0.71;stroke: #C77CFF;stroke-opacity: 0.70;fill: #C77CFF;fill-opacity: 0.70;"/>
<circle cx="518.62" cy="493.13" r="2.06" style="stroke-width: 0.71;stroke: #C77CFF;stroke-opacity: 0.70;fill: #C77CFF;fill-opacity: 0.70;"/>
<circle cx="518.62" cy="493.13" r="2.06" style="stroke-width: 0.71;stroke: #C77CFF;stroke-opacity: 0.70;fill: #C77CFF;fill-opacity: 0.70;"/>
<circle cx="609.92" cy="486.04" r="2.06" style="stroke-width: 0.71;stroke: #F8766D;stroke-opacity: 0.70;fill: #F8766D;fill-opacity: 0.70;"/>
<circle cx="609.92" cy="493.13" r="2.06" style="stroke-width: 0.71;stroke: #F8766D;stroke-opacity: 0.70;fill: #F8766D;fill-opacity: 0.70;"/>
<circle cx="609.92" cy="493.13" r="2.06" style="stroke-width: 0.71;stroke: #F8766D;stroke-opacity: 0.70;fill: #F8766D;fill-opacity: 0.70;"/>
<circle cx="609.92" cy="482.84" r="2.06" style="stroke-width: 0.71;stroke: #7CAE00;stroke-opacity: 0.70;fill: #7CAE00;fill-opacity: 0.70;"/>
<circle cx="609.92" cy="493.13" r="2.06" style="stroke-width: 0.71;stroke: #7CAE00;stroke-opacity: 0.70;fill: #7CAE00;fill-opacity: 0.70;"/>
<circle cx="609.92" cy="493.13" r="2.06" style="stroke-width: 0.71;stroke: #7CAE00;stroke-opacity: 0.70;fill: #7CAE00;fill-opacity: 0.70;"/>
<circle cx="609.92" cy="493.13" r="2.06" style="stroke-width: 0.71;stroke: #00BFC4;stroke-opacity: 0.70;fill: #00BFC4;fill-opacity: 0.70;"/>
<circle cx="609.92" cy="483.38" r="2.06" style="stroke-width: 0.71;stroke: #00BFC4;stroke-opacity: 0.70;fill: #00BFC4;fill-opacity: 0.70;"/>
<circle cx="609.92" cy="493.13" r="2.06" style="stroke-width: 0.71;stroke: #00BFC4;stroke-opacity: 0.70;fill: #00BFC4;fill-opacity: 0.70;"/>
<circle cx="609.92" cy="493.13" r="2.06" style="stroke-width: 0.71;stroke: #C77CFF;stroke-opacity: 0.70;fill: #C77CFF;fill-opacity: 0.70;"/>
<circle cx="609.92" cy="493.13" r="2.06" style="stroke-width: 0.71;stroke: #C77CFF;stroke-opacity: 0.70;fill: #C77CFF;fill-opacity: 0.70;"/>
<circle cx="609.92" cy="477.91" r="2.06" style="stroke-width: 0.71;stroke: #C77CFF;stroke-opacity: 0.70;fill: #C77CFF;fill-opacity: 0.70;"/>
<polyline points="65.27,146.37 68.00,170.82 70.74,198.25 73.48,227.47 76.21,257.12 78.95,285.94 81.69,312.91 84.43,337.42 87.16,359.16 89.90,378.10 92.64,394.39 95.37,408.27 98.11,420.02 100.85,429.93 103.58,438.29 106.32,445.33 109.06,451.27 111.79,456.29 114.53,460.54 117.27,464.16 120.01,467.25 122.74,469.90 125.48,472.18 128.22,474.15 130.95,475.86 133.69,477.35 136.43,478.66 139.16,479.80 141.90,480.81 144.64,481.71 147.38,482.50 150.11,483.21 152.85,483.85 155.59,484.42 158.32,484.93 161.06,485.40 163.80,485.82 166.53,486.20 169.27,486.55 172.01,486.87 174.74,487.17 177.48,487.44 180.22,487.69 182.96,487.92 185.69,488.13 188.43,488.33 191.17,488.51 193.90,488.68 196.64,488.85 199.38,489.00 202.11,489.14 204.85,489.27 207.59,489.39 210.32,489.51 213.06,489.62 215.80,489.72 218.54,489.82 221.27,489.92 224.01,490.01 226.75,490.09 229.48,490.17 232.22,490.25 234.96,490.32 237.69,490.39 240.43,490.45 243.17,490.52 245.91,490.58 248.64,490.64 251.38,490.69 254.12,490.74 256.85,490.80 259.59,490.84 262.33,490.89 265.06,490.94 267.80,490.98 270.54,491.02 273.27,491.06 276.01,491.10 278.75,491.14 281.49,491.18 284.22,491.21 286.96,491.25 289.70,491.28 292.43,491.31 295.17,491.34 297.91,491.37 300.64,491.40 303.38,491.43 306.12,491.46 308.86,491.49 311.59,491.51 314.33,491.54 317.07,491.56 319.80,491.58 322.54,491.61 325.28,491.63 328.01,491.65 330.75,491.67 333.49,491.69 336.22,491.71 338.96,491.73 341.70,491.75 344.44,491.77 347.17,491.79 349.91,491.81 352.65,491.83 355.38,491.84 358.12,491.86 360.86,491.88 363.59,491.89 366.33,491.91 369.07,491.92 371.80,491.94 374.54,491.95 377.28,491.97 380.02,491.98 382.75,491.99 385.49,492.01 388.23,492.02 390.96,492.03 393.70,492.05 396.44,492.06 399.17,492.07 401.91,492.08 404.65,492.09 407.39,492.11 410.12,492.12 412.86,492.13 415.60,492.14 418.33,492.15 421.07,492.16 423.81,492.17 426.54,492.18 429.28,492.19 432.02,492.20 434.75,492.21 437.49,492.22 440.23,492.23 442.97,492.24 445.70,492.24 448.44,492.25 451.18,492.26 453.91,492.27 456.65,492.28 459.39,492.29 462.12,492.29 464.86,492.30 467.60,492.31 470.34,492.32 473.07,492.32 475.81,492.33 478.55,492.34 481.28,492.34 484.02,492.35 486.76,492.36 489.49,492.36 492.23,492.37 494.97,492.38 497.70,492.38 500.44,492.39 503.18,492.40 505.92,492.40 508.65,492.41 511.39,492.41 514.13,492.42 516.86,492.43 519.60,492.43 522.34,492.44 525.07,492.44 527.81,492.45 530.55,492.45 533.28,492.46 536.02,492.46 538.76,492.47 541.50,492.47 544.23,492.48 546.97,492.48 549.71,492.49 552.44,492.49 555.18,492.50 557.92,492.50 560.65,492.51 563.39,492.51 566.13,492.51 568.87,492.52 571.60,492.52 574.34,492.53 577.08,492.53 579.81,492.54 582.55,492.54 585.29,492.54 588.02,492.55 590.76,492.55 593.50,492.56 596.23,492.56 598.97,492.56 601.71,492.57 604.45,492.57 607.18,492.57 609.92,492.58" style="stroke-width: 1.71;stroke: #F8766D;stroke-linecap: butt;"/>
<polyline points="65.27,492.57 68.00,492.56 70.74,492.56 73.48,492.55 76.21,492.55 78.95,492.54 81.69,492.53 84.43,492.53 87.16,492.52 89.90,492.51 92.64,492.51 95.37,492.50 98.11,492.50 100.85,492.49 103.58,492.48 106.32,492.48 109.06,492.47 111.79,492.46 114.53,492.46 117.27,492.45 120.01,492.44 122.74,492.43 125.48,492.43 128.22,492.42 130.95,492.41 133.69,492.41 136.43,492.40 139.16,492.39 141.90,492.38 144.64,492.38 147.38,492.37 150.11,492.36 152.85,492.35 155.59,492.34 158.32,492.33 161.06,492.33 163.80,492.32 166.53,492.31 169.27,492.30 172.01,492.29 174.74,492.28 177.48,492.27 180.22,492.27 182.96,492.26 185.69,492.25 188.43,492.24 191.17,492.23 193.90,492.22 196.64,492.21 199.38,492.20 202.11,492.19 204.85,492.18 207.59,492.17 210.32,492.16 213.06,492.15 215.80,492.14 218.54,492.13 221.27,492.12 224.01,492.11 226.75,492.10 229.48,492.08 232.22,492.07 234.96,492.06 237.69,492.05 240.43,492.04 243.17,492.03 245.91,492.01 248.64,492.00 251.38,491.99 254.12,491.98 256.85,491.97 259.59,491.95 262.33,491.94 265.06,491.93 267.80,491.91 270.54,491.90 273.27,491.89 276.01,491.87 278.75,491.86 281.49,491.85 284.22,491.83 286.96,491.82 289.70,491.80 292.43,491.79 295.17,491.77 297.91,491.76 300.64,491.74 303.38,491.73 306.12,491.71 308.86,491.70 311.59,491.68 314.33,491.66 317.07,491.65 319.80,491.63 322.54,491.61 325.28,491.60 328.01,491.58 330.75,491.56 333.49,491.55 336.22,491.53 338.96,491.51 341.70,491.49 344.44,491.47 347.17,491.45 349.91,491.44 352.65,491.42 355.38,491.40 358.12,491.38 360.86,491.36 363.59,491.34 366.33,491.32 369.07,491.30 371.80,491.27 374.54,491.25 377.28,491.23 380.02,491.21 382.75,491.19 385.49,491.17 388.23,491.14 390.96,491.12 393.70,491.10 396.44,491.07 399.17,491.05 401.91,491.03 404.65,491.00 407.39,490.98 410.12,490.95 412.86,490.93 415.60,490.90 418.33,490.87 421.07,490.85 423.81,490.82 426.54,490.79 429.28,490.77 432.02,490.74 434.75,490.71 437.49,490.68 440.23,490.65 442.97,490.62 445.70,490.59 448.44,490.56 451.18,490.53 453.91,490.50 456.65,490.47 459.39,490.44 462.12,490.41 464.86,490.37 467.60,490.34 470.34,490.31 473.07,490.27 475.81,490.24 478.55,490.20 481.28,490.17 484.02,490.13 486.76,490.10 489.49,490.06 492.23,490.02 494.97,489.99 497.70,489.95 500.44,489.91 503.18,489.87 505.92,489.83 508.65,489.79 511.39,489.75 514.13,489.71 516.86,489.67 519.60,489.62 522.34,489.58 525.07,489.54 527.81,489.49 530.55,489.45 533.28,489.40 536.02,489.36 538.76,489.31 541.50,489.26 544.23,489.21 546.97,489.17 549.71,489.12 552.44,489.07 555.18,489.02 557.92,488.96 560.65,488.91 563.39,488.86 566.13,488.81 568.87,488.75 571.60,488.70 574.34,488.64 577.08,488.59 579.81,488.53 582.55,488.47 585.29,488.41 588.02,488.35 590.76,488.29 593.50,488.23 596.23,488.17 598.97,488.10 601.71,488.04 604.45,487.98 607.18,487.91 609.92,487.84" style="stroke-width: 1.71;stroke: #7CAE00;stroke-linecap: butt;"/>
<polyline points="65.27,492.45 68.00,492.45 70.74,492.44 73.48,492.43 76.21,492.43 78.95,492.42 81.69,492.41 84.43,492.41 87.16,492.40 89.90,492.39 92.64,492.39 95.37,492.38 98.11,492.37 100.85,492.37 103.58,492.36 106.32,492.35 109.06,492.35 111.79,492.34 114.53,492.33 117.27,492.32 120.01,492.32 122.74,492.31 125.48,492.30 128.22,492.29 130.95,492.29 133.69,492.28 136.43,492.27 139.16,492.26 141.90,492.25 144.64,492.25 147.38,492.24 150.11,492.23 152.85,492.22 155.59,492.21 158.32,492.20 161.06,492.20 163.80,492.19 166.53,492.18 169.27,492.17 172.01,492.16 174.74,492.15 177.48,492.14 180.22,492.13 182.96,492.12 185.69,492.11 188.43,492.11 191.17,492.10 193.90,492.09 196.64,492.08 199.38,492.07 202.11,492.06 204.85,492.05 207.59,492.04 210.32,492.03 213.06,492.02 215.80,492.01 218.54,492.00 221.27,491.99 224.01,491.97 226.75,491.96 229.48,491.95 232.22,491.94 234.96,491.93 237.69,491.92 240.43,491.91 243.17,491.90 245.91,491.89 248.64,491.87 251.38,491.86 254.12,491.85 256.85,491.84 259.59,491.83 262.33,491.82 265.06,491.80 267.80,491.79 270.54,491.78 273.27,491.77 276.01,491.75 278.75,491.74 281.49,491.73 284.22,491.72 286.96,491.70 289.70,491.69 292.43,491.68 295.17,491.66 297.91,491.65 300.64,491.64 303.38,491.62 306.12,491.61 308.86,491.59 311.59,491.58 314.33,491.56 317.07,491.55 319.80,491.54 322.54,491.52 325.28,491.51 328.01,491.49 330.75,491.48 333.49,491.46 336.22,491.45 338.96,491.43 341.70,491.41 344.44,491.40 347.17,491.38 349.91,491.37 352.65,491.35 355.38,491.33 358.12,491.32 360.86,491.30 363.59,491.28 366.33,491.27 369.07,491.25 371.80,491.23 374.54,491.21 377.28,491.20 380.02,491.18 382.75,491.16 385.49,491.14 388.23,491.12 390.96,491.10 393.70,491.09 396.44,491.07 399.17,491.05 401.91,491.03 404.65,491.01 407.39,490.99 410.12,490.97 412.86,490.95 415.60,490.93 418.33,490.91 421.07,490.89 423.81,490.87 426.54,490.85 429.28,490.83 432.02,490.80 434.75,490.78 437.49,490.76 440.23,490.74 442.97,490.72 445.70,490.70 448.44,490.67 451.18,490.65 453.91,490.63 456.65,490.60 459.39,490.58 462.12,490.56 464.86,490.53 467.60,490.51 470.34,490.48 473.07,490.46 475.81,490.44 478.55,490.41 481.28,490.39 484.02,490.36 486.76,490.33 489.49,490.31 492.23,490.28 494.97,490.26 497.70,490.23 500.44,490.20 503.18,490.18 505.92,490.15 508.65,490.12 511.39,490.09 514.13,490.07 516.86,490.04 519.60,490.01 522.34,489.98 525.07,489.95 527.81,489.92 530.55,489.89 533.28,489.86 536.02,489.83 538.76,489.80 541.50,489.77 544.23,489.74 546.97,489.71 549.71,489.68 552.44,489.65 555.18,489.61 557.92,489.58 560.65,489.55 563.39,489.51 566.13,489.48 568.87,489.45 571.60,489.41 574.34,489.38 577.08,489.35 579.81,489.31 582.55,489.28 585.29,489.24 588.02,489.20 590.76,489.17 593.50,489.13 596.23,489.09 598.97,489.06 601.71,489.02 604.45,488.98 607.18,488.94 609.92,488.90" style="stroke-width: 1.71;stroke: #00BFC4;stroke-linecap: butt;"/>
<polyline points="65.27,247.93 68.00,284.47 70.74,323.45 73.48,361.62 76.21,394.95 78.95,420.28 81.69,437.23 84.43,447.99 87.16,455.00 89.90,459.84 92.64,463.41 95.37,466.17 98.11,468.40 100.85,470.25 103.58,471.81 106.32,473.16 109.06,474.34 111.79,475.37 114.53,476.30 117.27,477.12 120.01,477.87 122.74,478.55 125.48,479.17 128.22,479.73 130.95,480.26 133.69,480.74 136.43,481.18 139.16,481.60 141.90,481.98 144.64,482.35 147.38,482.68 150.11,483.00 152.85,483.30 155.59,483.58 158.32,483.85 161.06,484.10 163.80,484.34 166.53,484.57 169.27,484.78 172.01,484.99 174.74,485.18 177.48,485.37 180.22,485.55 182.96,485.72 185.69,485.88 188.43,486.04 191.17,486.19 193.90,486.33 196.64,486.47 199.38,486.60 202.11,486.73 204.85,486.85 207.59,486.97 210.32,487.08 213.06,487.19 215.80,487.30 218.54,487.40 221.27,487.50 224.01,487.60 226.75,487.69 229.48,487.78 232.22,487.86 234.96,487.95 237.69,488.03 240.43,488.11 243.17,488.19 245.91,488.26 248.64,488.33 251.38,488.40 254.12,488.47 256.85,488.54 259.59,488.61 262.33,488.67 265.06,488.73 267.80,488.79 270.54,488.85 273.27,488.91 276.01,488.96 278.75,489.02 281.49,489.07 284.22,489.12 286.96,489.17 289.70,489.22 292.43,489.27 295.17,489.31 297.91,489.36 300.64,489.41 303.38,489.45 306.12,489.49 308.86,489.53 311.59,489.58 314.33,489.62 317.07,489.66 319.80,489.70 322.54,489.73 325.28,489.77 328.01,489.81 330.75,489.84 333.49,489.88 336.22,489.91 338.96,489.95 341.70,489.98 344.44,490.01 347.17,490.04 349.91,490.08 352.65,490.11 355.38,490.14 358.12,490.17 360.86,490.20 363.59,490.22 366.33,490.25 369.07,490.28 371.80,490.31 374.54,490.33 377.28,490.36 380.02,490.39 382.75,490.41 385.49,490.44 388.23,490.46 390.96,490.49 393.70,490.51 396.44,490.54 399.17,490.56 401.91,490.58 404.65,490.60 407.39,490.63 410.12,490.65 412.86,490.67 415.60,490.69 418.33,490.71 421.07,490.73 423.81,490.75 426.54,490.77 429.28,490.79 432.02,490.81 434.75,490.83 437.49,490.85 440.23,490.87 442.97,490.89 445.70,490.91 448.44,490.93 451.18,490.94 453.91,490.96 456.65,490.98 459.39,491.00 462.12,491.01 464.86,491.03 467.60,491.05 470.34,491.06 473.07,491.08 475.81,491.09 478.55,491.11 481.28,491.13 484.02,491.14 486.76,491.16 489.49,491.17 492.23,491.19 494.97,491.20 497.70,491.22 500.44,491.23 503.18,491.24 505.92,491.26 508.65,491.27 511.39,491.29 514.13,491.30 516.86,491.31 519.60,491.33 522.34,491.34 525.07,491.35 527.81,491.36 530.55,491.38 533.28,491.39 536.02,491.40 538.76,491.41 541.50,491.43 544.23,491.44 546.97,491.45 549.71,491.46 552.44,491.47 555.18,491.48 557.92,491.50 560.65,491.51 563.39,491.52 566.13,491.53 568.87,491.54 571.60,491.55 574.34,491.56 577.08,491.57 579.81,491.58 582.55,491.59 585.29,491.60 588.02,491.61 590.76,491.62 593.50,491.63 596.23,491.64 598.97,491.65 601.71,491.66 604.45,491.67 607.18,491.68 609.92,491.69" style="stroke-width: 1.71;stroke: #C77CFF;stroke-linecap: butt;"/>
</g><g clip-path="url(#c2)">
<g><text x="33.10" y="496.28" text-anchor="end" style="font-family: Arial;font-size: 8.80px;fill: #4D4D4D;" textLength="4.90px" lengthAdjust="spacingAndGlyphs">0</text></g>
<g><text x="33.10" y="384.38" text-anchor="end" style="font-family: Arial;font-size: 8.80px;fill: #4D4D4D;" textLength="9.79px" lengthAdjust="spacingAndGlyphs">25</text></g>
<g><text x="33.10" y="272.49" text-anchor="end" style="font-family: Arial;font-size: 8.80px;fill: #4D4D4D;" textLength="9.79px" lengthAdjust="spacingAndGlyphs">50</text></g>
<g><text x="33.10" y="160.60" text-anchor="end" style="font-family: Arial;font-size: 8.80px;fill: #4D4D4D;" textLength="9.79px" lengthAdjust="spacingAndGlyphs">75</text></g>
<g><text x="33.10" y="48.71" text-anchor="end" style="font-family: Arial;font-size: 8.80px;fill: #4D4D4D;" textLength="14.69px" lengthAdjust="spacingAndGlyphs">100</text></g>
<g><text x="94.66" y="526.74" text-anchor="middle" style="font-family: Arial;font-size: 8.80px;fill: #4D4D4D;" textLength="4.90px" lengthAdjust="spacingAndGlyphs">1</text></g>
<g><text x="239.36" y="526.74" text-anchor="middle" style="font-family: Arial;font-size: 8.80px;fill: #4D4D4D;" textLength="4.90px" lengthAdjust="spacingAndGlyphs">3</text></g>
<g><text x="397.94" y="526.74" text-anchor="middle" style="font-family: Arial;font-size: 8.80px;fill: #4D4D4D;" textLength="9.79px" lengthAdjust="spacingAndGlyphs">10</text></g>
<g><text x="542.64" y="526.74" text-anchor="middle" style="font-family: Arial;font-size: 8.80px;fill: #4D4D4D;" textLength="9.79px" lengthAdjust="spacingAndGlyphs">30</text></g>
<g><text x="337.59" y="539.20" text-anchor="middle" style="font-family: Arial;font-size: 11.00px;" textLength="44.65px" lengthAdjust="spacingAndGlyphs">Dose [%]</text></g>
<g><text transform="translate(13.36,269.34) rotate(-90.00)" text-anchor="middle" style="font-family: Arial;font-size: 11.00px;" textLength="57.87px" lengthAdjust="spacingAndGlyphs">Viability (%)</text></g>
<g><text x="653.59" y="235.98" style="font-family: Arial;font-size: 11.00px;" textLength="74.02px" lengthAdjust="spacingAndGlyphs">Patient / Group</text></g>
<circle cx="662.23" cy="251.26" r="2.06" style="stroke-width: 0.71;stroke: #F8766D;stroke-opacity: 0.70;fill: #F8766D;fill-opacity: 0.70;"/>
<line x1="655.32" y1="251.26" x2="669.14" y2="251.26" style="stroke-width: 1.71;stroke: #F8766D;stroke-linecap: butt;"/>
<circle cx="662.23" cy="268.54" r="2.06" style="stroke-width: 0.71;stroke: #7CAE00;stroke-opacity: 0.70;fill: #7CAE00;fill-opacity: 0.70;"/>
<line x1="655.32" y1="268.54" x2="669.14" y2="268.54" style="stroke-width: 1.71;stroke: #7CAE00;stroke-linecap: butt;"/>
<circle cx="662.23" cy="285.82" r="2.06" style="stroke-width: 0.71;stroke: #00BFC4;stroke-opacity: 0.70;fill: #00BFC4;fill-opacity: 0.70;"/>
<line x1="655.32" y1="285.82" x2="669.14" y2="285.82" style="stroke-width: 1.71;stroke: #00BFC4;stroke-linecap: butt;"/>
<circle cx="662.23" cy="303.10" r="2.06" style="stroke-width: 0.71;stroke: #C77CFF;stroke-opacity: 0.70;fill: #C77CFF;fill-opacity: 0.70;"/>
<line x1="655.32" y1="303.10" x2="669.14" y2="303.10" style="stroke-width: 1.71;stroke: #C77CFF;stroke-linecap: butt;"/>
<g><text x="676.35" y="254.41" style="font-family: Arial;font-size: 8.80px;" textLength="68.00px" lengthAdjust="spacingAndGlyphs">ASC397.ASC397</text></g>
<g><text x="676.35" y="271.69" style="font-family: Arial;font-size: 8.80px;" textLength="81.69px" lengthAdjust="spacingAndGlyphs">ASC397.ASC397cse</text></g>
<g><text x="676.35" y="288.97" style="font-family: Arial;font-size: 8.80px;" textLength="68.00px" lengthAdjust="spacingAndGlyphs">ASC399.ASC399</text></g>
<g><text x="676.35" y="306.25" style="font-family: Arial;font-size: 8.80px;" textLength="81.69px" lengthAdjust="spacingAndGlyphs">ASC399.ASC399cse</text></g>
<g><text x="38.03" y="14.93" style="font-family: Arial;font-size: 13.20px;" textLength="243.42px" lengthAdjust="spacingAndGlyphs">CSE_Erastin across patients &amp; conditions</text></g>
</g>
</svg>